<?xml version="1.0" encoding="utf-8" standalone="no"?>
<!DOCTYPE svg PUBLIC "-//W3C//DTD SVG 1.1//EN"
  "http://www.w3.org/Graphics/SVG/1.1/DTD/svg11.dtd">
<!-- Created with matplotlib (http://matplotlib.org/) -->
<svg height="345.6pt" version="1.1" viewBox="0 0 460.8 345.6" width="460.8pt" xmlns="http://www.w3.org/2000/svg" xmlns:xlink="http://www.w3.org/1999/xlink">
 <defs>
  <style type="text/css">
*{stroke-linecap:butt;stroke-linejoin:round;}
  </style>
 </defs>
 <g id="figure_1">
  <g id="patch_1">
   <path d="M 0 345.6 
L 460.8 345.6 
L 460.8 0 
L 0 0 
z
" style="fill:#ffffff;"/>
  </g>
  <g id="axes_1">
   <g id="patch_2">
    <path d="M 70.8725 284.92 
L 301.073442 284.92 
L 301.073442 19.8 
L 70.8725 19.8 
z
" style="fill:#ffffff;"/>
   </g>
   <g id="matplotlib.axis_1">
    <g id="xtick_1">
     <g id="line2d_1">
      <defs>
       <path d="M 0 0 
L 0 3.5 
" id="m48dfed0709" style="stroke:#000000;stroke-width:0.8;"/>
      </defs>
      <g>
       <use style="stroke:#000000;stroke-width:0.8;" x="77.06529" xlink:href="#m48dfed0709" y="284.92"/>
      </g>
     </g>
     <g id="text_1">
      <!-- 0 -->
      <defs>
       <path d="M 31.78125 3.421875 
Q 39.265625 3.421875 42.96875 11.625 
Q 46.6875 19.828125 46.6875 36.375 
Q 46.6875 52.984375 42.96875 61.1875 
Q 39.265625 69.390625 31.78125 69.390625 
Q 24.3125 69.390625 20.59375 61.1875 
Q 16.890625 52.984375 16.890625 36.375 
Q 16.890625 19.828125 20.59375 11.625 
Q 24.3125 3.421875 31.78125 3.421875 
z
M 31.78125 -1.421875 
Q 19.921875 -1.421875 13.25 8.53125 
Q 6.59375 18.5 6.59375 36.375 
Q 6.59375 54.296875 13.25 64.25 
Q 19.921875 74.21875 31.78125 74.21875 
Q 43.703125 74.21875 50.34375 64.25 
Q 56.984375 54.296875 56.984375 36.375 
Q 56.984375 18.5 50.34375 8.53125 
Q 43.703125 -1.421875 31.78125 -1.421875 
z
" id="DejaVuSerif-30"/>
      </defs>
      <g transform="translate(71.97529 304.0775)scale(0.16 -0.16)">
       <use xlink:href="#DejaVuSerif-30"/>
      </g>
     </g>
    </g>
    <g id="xtick_2">
     <g id="line2d_2">
      <g>
       <use style="stroke:#000000;stroke-width:0.8;" x="162.483079" xlink:href="#m48dfed0709" y="284.92"/>
      </g>
     </g>
     <g id="text_2">
      <!-- 20 -->
      <defs>
       <path d="M 12.796875 55.515625 
L 7.328125 55.515625 
L 7.328125 68.5 
Q 12.546875 71.296875 17.84375 72.75 
Q 23.140625 74.21875 28.21875 74.21875 
Q 39.59375 74.21875 46.1875 68.703125 
Q 52.78125 63.1875 52.78125 53.71875 
Q 52.78125 43.015625 37.84375 28.125 
Q 36.671875 27 36.078125 26.421875 
L 17.671875 8.015625 
L 48.09375 8.015625 
L 48.09375 17 
L 53.8125 17 
L 53.8125 0 
L 6.78125 0 
L 6.78125 5.328125 
L 28.90625 27.390625 
Q 36.234375 34.71875 39.359375 40.84375 
Q 42.484375 46.96875 42.484375 53.71875 
Q 42.484375 61.078125 38.640625 65.234375 
Q 34.8125 69.390625 28.078125 69.390625 
Q 21.09375 69.390625 17.28125 65.921875 
Q 13.484375 62.453125 12.796875 55.515625 
z
" id="DejaVuSerif-32"/>
      </defs>
      <g transform="translate(152.303079 304.0775)scale(0.16 -0.16)">
       <use xlink:href="#DejaVuSerif-32"/>
       <use x="63.623047" xlink:href="#DejaVuSerif-30"/>
      </g>
     </g>
    </g>
    <g id="xtick_3">
     <g id="line2d_3">
      <g>
       <use style="stroke:#000000;stroke-width:0.8;" x="247.900868" xlink:href="#m48dfed0709" y="284.92"/>
      </g>
     </g>
     <g id="text_3">
      <!-- 40 -->
      <defs>
       <path d="M 34.90625 24.703125 
L 34.90625 63.484375 
L 10.015625 24.703125 
z
M 56.390625 0 
L 23.1875 0 
L 23.1875 5.171875 
L 34.90625 5.171875 
L 34.90625 19.484375 
L 3.078125 19.484375 
L 3.078125 24.8125 
L 35.015625 74.21875 
L 44.671875 74.21875 
L 44.671875 24.703125 
L 58.59375 24.703125 
L 58.59375 19.484375 
L 44.671875 19.484375 
L 44.671875 5.171875 
L 56.390625 5.171875 
z
" id="DejaVuSerif-34"/>
      </defs>
      <g transform="translate(237.720868 304.0775)scale(0.16 -0.16)">
       <use xlink:href="#DejaVuSerif-34"/>
       <use x="63.623047" xlink:href="#DejaVuSerif-30"/>
      </g>
     </g>
    </g>
    <g id="text_4">
     <!-- Number of layers - $N$ -->
     <defs>
      <path d="M 4.890625 0 
L 4.890625 5.171875 
L 14.703125 5.171875 
L 14.703125 67.671875 
L 4.890625 67.671875 
L 4.890625 72.90625 
L 23.578125 72.90625 
L 67.28125 15.375 
L 67.28125 67.671875 
L 57.515625 67.671875 
L 57.515625 72.90625 
L 83.109375 72.90625 
L 83.109375 67.671875 
L 73.296875 67.671875 
L 73.296875 -1.421875 
L 67.390625 -1.421875 
L 20.703125 60.015625 
L 20.703125 5.171875 
L 30.515625 5.171875 
L 30.515625 0 
z
" id="DejaVuSerif-4e"/>
      <path d="M 35.40625 51.90625 
L 52.203125 51.90625 
L 52.203125 5.171875 
L 60.6875 5.171875 
L 60.6875 0 
L 43.21875 0 
L 43.21875 9.1875 
Q 40.71875 4 36.765625 1.28125 
Q 32.8125 -1.421875 27.59375 -1.421875 
Q 18.953125 -1.421875 14.875 3.484375 
Q 10.796875 8.40625 10.796875 18.890625 
L 10.796875 46.6875 
L 2.6875 46.6875 
L 2.6875 51.90625 
L 19.828125 51.90625 
L 19.828125 21.6875 
Q 19.828125 12.203125 22.140625 8.6875 
Q 24.46875 5.171875 30.421875 5.171875 
Q 36.671875 5.171875 39.9375 9.765625 
Q 43.21875 14.359375 43.21875 23.09375 
L 43.21875 46.6875 
L 35.40625 46.6875 
z
" id="DejaVuSerif-75"/>
      <path d="M 51.8125 41.796875 
Q 54.390625 47.515625 58.421875 50.421875 
Q 62.453125 53.328125 67.828125 53.328125 
Q 75.984375 53.328125 79.984375 48.265625 
Q 83.984375 43.21875 83.984375 33.015625 
L 83.984375 5.171875 
L 92.09375 5.171875 
L 92.09375 0 
L 67.1875 0 
L 67.1875 5.171875 
L 75 5.171875 
L 75 31.984375 
Q 75 39.9375 72.65625 43.3125 
Q 70.3125 46.6875 64.890625 46.6875 
Q 58.890625 46.6875 55.734375 42.140625 
Q 52.59375 37.59375 52.59375 28.90625 
L 52.59375 5.171875 
L 60.40625 5.171875 
L 60.40625 0 
L 35.796875 0 
L 35.796875 5.171875 
L 43.609375 5.171875 
L 43.609375 32.328125 
Q 43.609375 40.09375 41.265625 43.390625 
Q 38.921875 46.6875 33.5 46.6875 
Q 27.484375 46.6875 24.328125 42.140625 
Q 21.1875 37.59375 21.1875 28.90625 
L 21.1875 5.171875 
L 29 5.171875 
L 29 0 
L 4.109375 0 
L 4.109375 5.171875 
L 12.203125 5.171875 
L 12.203125 46.78125 
L 3.609375 46.78125 
L 3.609375 51.90625 
L 21.1875 51.90625 
L 21.1875 42.671875 
Q 23.6875 47.859375 27.53125 50.59375 
Q 31.390625 53.328125 36.28125 53.328125 
Q 42.328125 53.328125 46.375 50.3125 
Q 50.4375 47.3125 51.8125 41.796875 
z
" id="DejaVuSerif-6d"/>
      <path d="M 11.53125 5.171875 
L 11.53125 70.796875 
L 2.875 70.796875 
L 2.875 75.984375 
L 20.515625 75.984375 
L 20.515625 43.796875 
Q 23.140625 48.6875 27.21875 51 
Q 31.296875 53.328125 37.3125 53.328125 
Q 46.875 53.328125 52.921875 45.75 
Q 58.984375 38.1875 58.984375 25.984375 
Q 58.984375 13.765625 52.921875 6.171875 
Q 46.875 -1.421875 37.3125 -1.421875 
Q 31.296875 -1.421875 27.21875 0.890625 
Q 23.140625 3.21875 20.515625 8.109375 
L 20.515625 0 
L 2.875 0 
L 2.875 5.171875 
z
M 20.515625 23.390625 
Q 20.515625 14.015625 24.09375 9.109375 
Q 27.6875 4.203125 34.515625 4.203125 
Q 41.40625 4.203125 44.9375 9.71875 
Q 48.484375 15.234375 48.484375 25.984375 
Q 48.484375 36.765625 44.9375 42.234375 
Q 41.40625 47.703125 34.515625 47.703125 
Q 27.6875 47.703125 24.09375 42.765625 
Q 20.515625 37.84375 20.515625 28.515625 
z
" id="DejaVuSerif-62"/>
      <path d="M 54.203125 25 
L 15.484375 25 
L 15.484375 24.609375 
Q 15.484375 14.109375 19.4375 8.765625 
Q 23.390625 3.421875 31.109375 3.421875 
Q 37.015625 3.421875 40.796875 6.515625 
Q 44.578125 9.625 46.09375 15.71875 
L 53.328125 15.71875 
Q 51.171875 7.171875 45.375 2.875 
Q 39.59375 -1.421875 30.171875 -1.421875 
Q 18.796875 -1.421875 11.890625 6.078125 
Q 4.984375 13.578125 4.984375 25.984375 
Q 4.984375 38.28125 11.765625 45.796875 
Q 18.5625 53.328125 29.59375 53.328125 
Q 41.359375 53.328125 47.65625 46.0625 
Q 53.953125 38.8125 54.203125 25 
z
M 43.609375 30.171875 
Q 43.3125 39.265625 39.765625 43.875 
Q 36.234375 48.484375 29.59375 48.484375 
Q 23.390625 48.484375 19.828125 43.84375 
Q 16.265625 39.203125 15.484375 30.171875 
z
" id="DejaVuSerif-65"/>
      <path d="M 47.796875 52 
L 47.796875 39.015625 
L 42.625 39.015625 
Q 42.390625 42.875 40.484375 44.78125 
Q 38.578125 46.6875 34.90625 46.6875 
Q 28.265625 46.6875 24.71875 42.09375 
Q 21.1875 37.5 21.1875 28.90625 
L 21.1875 5.171875 
L 31.59375 5.171875 
L 31.59375 0 
L 4.109375 0 
L 4.109375 5.171875 
L 12.203125 5.171875 
L 12.203125 46.78125 
L 3.609375 46.78125 
L 3.609375 51.90625 
L 21.1875 51.90625 
L 21.1875 42.671875 
Q 23.828125 48.09375 27.96875 50.703125 
Q 32.125 53.328125 38.09375 53.328125 
Q 40.28125 53.328125 42.703125 52.984375 
Q 45.125 52.640625 47.796875 52 
z
" id="DejaVuSerif-72"/>
      <path id="DejaVuSerif-20"/>
      <path d="M 30.078125 3.421875 
Q 37.3125 3.421875 40.984375 9.125 
Q 44.671875 14.84375 44.671875 25.984375 
Q 44.671875 37.109375 40.984375 42.796875 
Q 37.3125 48.484375 30.078125 48.484375 
Q 22.859375 48.484375 19.171875 42.796875 
Q 15.484375 37.109375 15.484375 25.984375 
Q 15.484375 14.84375 19.1875 9.125 
Q 22.90625 3.421875 30.078125 3.421875 
z
M 30.078125 -1.421875 
Q 18.75 -1.421875 11.859375 6.078125 
Q 4.984375 13.578125 4.984375 25.984375 
Q 4.984375 38.375 11.84375 45.84375 
Q 18.703125 53.328125 30.078125 53.328125 
Q 41.453125 53.328125 48.3125 45.84375 
Q 55.171875 38.375 55.171875 25.984375 
Q 55.171875 13.578125 48.3125 6.078125 
Q 41.453125 -1.421875 30.078125 -1.421875 
z
" id="DejaVuSerif-6f"/>
      <path d="M 43.015625 63.71875 
L 38.28125 63.71875 
Q 38.234375 67.390625 36.203125 69.28125 
Q 34.1875 71.1875 30.328125 71.1875 
Q 25.296875 71.1875 23.234375 68.421875 
Q 21.1875 65.671875 21.1875 58.59375 
L 21.1875 51.90625 
L 35.6875 51.90625 
L 35.6875 46.6875 
L 21.1875 46.6875 
L 21.1875 5.171875 
L 32.71875 5.171875 
L 32.71875 0 
L 3.609375 0 
L 3.609375 5.171875 
L 12.203125 5.171875 
L 12.203125 46.6875 
L 3.609375 46.6875 
L 3.609375 51.90625 
L 12.203125 51.90625 
L 12.203125 58.40625 
Q 12.203125 67.09375 16.71875 71.53125 
Q 21.234375 75.984375 29.984375 75.984375 
Q 33.25 75.984375 36.515625 75.390625 
Q 39.796875 74.8125 43.015625 73.578125 
z
" id="DejaVuSerif-66"/>
      <path d="M 20.515625 5.171875 
L 29 5.171875 
L 29 0 
L 2.875 0 
L 2.875 5.171875 
L 11.53125 5.171875 
L 11.53125 70.796875 
L 2.875 70.796875 
L 2.875 75.984375 
L 20.515625 75.984375 
z
" id="DejaVuSerif-6c"/>
      <path d="M 39.796875 16.3125 
L 39.796875 27.296875 
L 28.21875 27.296875 
Q 21.53125 27.296875 18.25 24.40625 
Q 14.984375 21.53125 14.984375 15.578125 
Q 14.984375 10.15625 18.296875 6.984375 
Q 21.625 3.8125 27.296875 3.8125 
Q 32.90625 3.8125 36.34375 7.28125 
Q 39.796875 10.75 39.796875 16.3125 
z
M 48.78125 32.421875 
L 48.78125 5.171875 
L 56.78125 5.171875 
L 56.78125 0 
L 39.796875 0 
L 39.796875 5.609375 
Q 36.8125 2 32.90625 0.28125 
Q 29 -1.421875 23.78125 -1.421875 
Q 15.140625 -1.421875 10.0625 3.171875 
Q 4.984375 7.765625 4.984375 15.578125 
Q 4.984375 23.640625 10.796875 28.078125 
Q 16.609375 32.515625 27.203125 32.515625 
L 39.796875 32.515625 
L 39.796875 36.078125 
Q 39.796875 42 36.203125 45.234375 
Q 32.625 48.484375 26.125 48.484375 
Q 20.75 48.484375 17.578125 46.046875 
Q 14.40625 43.609375 13.625 38.8125 
L 8.984375 38.8125 
L 8.984375 49.3125 
Q 13.671875 51.3125 18.09375 52.3125 
Q 22.515625 53.328125 26.703125 53.328125 
Q 37.5 53.328125 43.140625 47.96875 
Q 48.78125 42.625 48.78125 32.421875 
z
" id="DejaVuSerif-61"/>
      <path d="M 21.578125 -9.515625 
L 25 -0.875 
L 5.609375 46.6875 
L -0.296875 46.6875 
L -0.296875 51.90625 
L 23.578125 51.90625 
L 23.578125 46.6875 
L 15.28125 46.6875 
L 29.890625 10.984375 
L 44.484375 46.6875 
L 36.71875 46.6875 
L 36.71875 51.90625 
L 56.203125 51.90625 
L 56.203125 46.6875 
L 50.390625 46.6875 
L 26.609375 -11.71875 
Q 24.171875 -17.78125 21.1875 -20 
Q 18.21875 -22.21875 12.796875 -22.21875 
Q 10.5 -22.21875 8.078125 -21.828125 
Q 5.671875 -21.4375 3.21875 -20.703125 
L 3.21875 -10.796875 
L 7.8125 -10.796875 
Q 8.109375 -14.109375 9.5 -15.546875 
Q 10.890625 -17 13.8125 -17 
Q 16.5 -17 18.140625 -15.5 
Q 19.78125 -14.015625 21.578125 -9.515625 
z
" id="DejaVuSerif-79"/>
      <path d="M 5.609375 2.875 
L 5.609375 14.984375 
L 10.796875 14.984375 
Q 10.984375 9.1875 14.421875 6.296875 
Q 17.875 3.421875 24.609375 3.421875 
Q 30.671875 3.421875 33.84375 5.6875 
Q 37.015625 7.953125 37.015625 12.3125 
Q 37.015625 15.71875 34.6875 17.8125 
Q 32.375 19.921875 24.90625 22.3125 
L 18.40625 24.515625 
Q 11.71875 26.65625 8.71875 29.875 
Q 5.71875 33.109375 5.71875 38.09375 
Q 5.71875 45.21875 10.9375 49.265625 
Q 16.15625 53.328125 25.390625 53.328125 
Q 29.5 53.328125 34.03125 52.25 
Q 38.578125 51.171875 43.40625 49.125 
L 43.40625 37.796875 
L 38.234375 37.796875 
Q 38.03125 42.828125 34.703125 45.65625 
Q 31.390625 48.484375 25.6875 48.484375 
Q 20.015625 48.484375 17.109375 46.484375 
Q 14.203125 44.484375 14.203125 40.484375 
Q 14.203125 37.203125 16.40625 35.21875 
Q 18.609375 33.25 25.203125 31.203125 
L 32.328125 29 
Q 39.703125 26.703125 42.9375 23.265625 
Q 46.1875 19.828125 46.1875 14.40625 
Q 46.1875 7.03125 40.546875 2.796875 
Q 34.90625 -1.421875 25 -1.421875 
Q 19.96875 -1.421875 15.1875 -0.34375 
Q 10.40625 0.734375 5.609375 2.875 
z
" id="DejaVuSerif-73"/>
      <path d="M 4.390625 30.609375 
L 29.390625 30.609375 
L 29.390625 23 
L 4.390625 23 
z
" id="DejaVuSerif-2d"/>
      <path d="M 4.6875 0 
Q 3.71875 0 3.71875 1.3125 
Q 3.765625 1.5625 3.90625 2.171875 
Q 4.046875 2.78125 4.3125 3.140625 
Q 4.59375 3.515625 4.984375 3.515625 
Q 14.546875 3.515625 16.109375 9.625 
L 29.6875 64.3125 
Q 26.90625 64.796875 20.90625 64.796875 
Q 19.921875 64.796875 19.921875 66.109375 
Q 19.96875 66.359375 20.109375 66.96875 
Q 20.265625 67.578125 20.53125 67.9375 
Q 20.796875 68.3125 21.1875 68.3125 
L 38.484375 68.3125 
Q 39.203125 68.3125 39.40625 67.671875 
L 61.625 14.796875 
L 72.703125 59.078125 
Q 72.90625 60.15625 72.90625 60.59375 
Q 72.90625 64.796875 65.1875 64.796875 
Q 64.203125 64.796875 64.203125 66.109375 
Q 64.546875 67.390625 64.734375 67.84375 
Q 64.9375 68.3125 65.921875 68.3125 
L 87.3125 68.3125 
Q 88.28125 68.3125 88.28125 67 
Q 88.234375 66.75 88.078125 66.140625 
Q 87.9375 65.53125 87.671875 65.15625 
Q 87.40625 64.796875 87.015625 64.796875 
Q 77.4375 64.796875 75.875 58.6875 
L 61.53125 0.875 
Q 61.1875 0 60.5 0 
L 59.28125 0 
Q 58.59375 0 58.40625 0.6875 
L 32.90625 61.1875 
L 32.71875 61.8125 
Q 32.515625 62.015625 32.515625 62.109375 
L 19.28125 9.1875 
Q 19.1875 8.9375 19.140625 8.5625 
Q 19.09375 8.203125 19 7.71875 
Q 19 5.125 21.234375 4.3125 
Q 23.484375 3.515625 26.8125 3.515625 
Q 27.78125 3.515625 27.78125 2.203125 
Q 27.4375 0.828125 27.1875 0.40625 
Q 26.953125 0 26.125 0 
z
" id="Cmmi10-4e"/>
     </defs>
     <g transform="translate(106.247971 322.805)scale(0.15 -0.15)">
      <use transform="translate(0 0.015625)" xlink:href="#DejaVuSerif-4e"/>
      <use transform="translate(87.5 0.015625)" xlink:href="#DejaVuSerif-75"/>
      <use transform="translate(151.904297 0.015625)" xlink:href="#DejaVuSerif-6d"/>
      <use transform="translate(246.728516 0.015625)" xlink:href="#DejaVuSerif-62"/>
      <use transform="translate(310.742188 0.015625)" xlink:href="#DejaVuSerif-65"/>
      <use transform="translate(369.921875 0.015625)" xlink:href="#DejaVuSerif-72"/>
      <use transform="translate(417.724609 0.015625)" xlink:href="#DejaVuSerif-20"/>
      <use transform="translate(449.511719 0.015625)" xlink:href="#DejaVuSerif-6f"/>
      <use transform="translate(509.716797 0.015625)" xlink:href="#DejaVuSerif-66"/>
      <use transform="translate(546.728516 0.015625)" xlink:href="#DejaVuSerif-20"/>
      <use transform="translate(578.515625 0.015625)" xlink:href="#DejaVuSerif-6c"/>
      <use transform="translate(610.498047 0.015625)" xlink:href="#DejaVuSerif-61"/>
      <use transform="translate(670.117188 0.015625)" xlink:href="#DejaVuSerif-79"/>
      <use transform="translate(726.611328 0.015625)" xlink:href="#DejaVuSerif-65"/>
      <use transform="translate(785.791016 0.015625)" xlink:href="#DejaVuSerif-72"/>
      <use transform="translate(833.59375 0.015625)" xlink:href="#DejaVuSerif-73"/>
      <use transform="translate(884.912109 0.015625)" xlink:href="#DejaVuSerif-20"/>
      <use transform="translate(916.699219 0.015625)" xlink:href="#DejaVuSerif-2d"/>
      <use transform="translate(950.488281 0.015625)" xlink:href="#DejaVuSerif-20"/>
      <use transform="translate(982.275391 0.015625)" xlink:href="#Cmmi10-4e"/>
     </g>
    </g>
   </g>
   <g id="matplotlib.axis_2">
    <g id="ytick_1">
     <g id="line2d_4">
      <defs>
       <path d="M 0 0 
L -3.5 0 
" id="m4e236769d3" style="stroke:#000000;stroke-width:0.8;"/>
      </defs>
      <g>
       <use style="stroke:#000000;stroke-width:0.8;" x="70.8725" xlink:href="#m4e236769d3" y="249.769699"/>
      </g>
     </g>
     <g id="text_5">
      <!-- 0.5 -->
      <defs>
       <path d="M 9.421875 5.078125 
Q 9.421875 7.8125 11.28125 9.71875 
Q 13.140625 11.625 15.921875 11.625 
Q 18.609375 11.625 20.5 9.71875 
Q 22.40625 7.8125 22.40625 5.078125 
Q 22.40625 2.390625 20.5 0.484375 
Q 18.609375 -1.421875 15.921875 -1.421875 
Q 13.140625 -1.421875 11.28125 0.453125 
Q 9.421875 2.34375 9.421875 5.078125 
z
" id="DejaVuSerif-2e"/>
       <path d="M 50.296875 72.90625 
L 50.296875 64.890625 
L 16.890625 64.890625 
L 16.890625 44 
Q 19.4375 45.75 22.828125 46.625 
Q 26.21875 47.515625 30.421875 47.515625 
Q 42.234375 47.515625 49.0625 40.96875 
Q 55.90625 34.421875 55.90625 23.09375 
Q 55.90625 11.53125 49 5.046875 
Q 42.09375 -1.421875 29.59375 -1.421875 
Q 24.5625 -1.421875 19.28125 -0.1875 
Q 14.015625 1.03125 8.5 3.515625 
L 8.5 17.671875 
L 14.015625 17.671875 
Q 14.453125 10.75 18.421875 7.078125 
Q 22.40625 3.421875 29.59375 3.421875 
Q 37.3125 3.421875 41.453125 8.5 
Q 45.609375 13.578125 45.609375 23.09375 
Q 45.609375 32.5625 41.484375 37.609375 
Q 37.359375 42.671875 29.59375 42.671875 
Q 25.203125 42.671875 21.84375 41.109375 
Q 18.5 39.546875 15.921875 36.28125 
L 11.71875 36.28125 
L 11.71875 72.90625 
z
" id="DejaVuSerif-35"/>
      </defs>
      <g transform="translate(38.4275 255.848449)scale(0.16 -0.16)">
       <use xlink:href="#DejaVuSerif-30"/>
       <use x="63.623047" xlink:href="#DejaVuSerif-2e"/>
       <use x="95.410156" xlink:href="#DejaVuSerif-35"/>
      </g>
     </g>
    </g>
    <g id="ytick_2">
     <g id="line2d_5">
      <g>
       <use style="stroke:#000000;stroke-width:0.8;" x="70.8725" xlink:href="#m4e236769d3" y="206.185941"/>
      </g>
     </g>
     <g id="text_6">
      <!-- 0.6 -->
      <defs>
       <path d="M 32.71875 3.421875 
Q 39.59375 3.421875 43.296875 8.46875 
Q 47.015625 13.53125 47.015625 23 
Q 47.015625 32.46875 43.296875 37.515625 
Q 39.59375 42.578125 32.71875 42.578125 
Q 25.734375 42.578125 22.0625 37.6875 
Q 18.40625 32.8125 18.40625 23.578125 
Q 18.40625 13.875 22.109375 8.640625 
Q 25.828125 3.421875 32.71875 3.421875 
z
M 16.796875 40.140625 
Q 20.125 43.796875 24.3125 45.59375 
Q 28.515625 47.40625 33.796875 47.40625 
Q 44.671875 47.40625 51 40.859375 
Q 57.328125 34.328125 57.328125 23 
Q 57.328125 11.921875 50.515625 5.25 
Q 43.703125 -1.421875 32.328125 -1.421875 
Q 19.96875 -1.421875 13.328125 7.78125 
Q 6.6875 17 6.6875 34.078125 
Q 6.6875 53.21875 14.546875 63.71875 
Q 22.40625 74.21875 36.71875 74.21875 
Q 40.578125 74.21875 44.828125 73.484375 
Q 49.078125 72.75 53.515625 71.296875 
L 53.515625 59.28125 
L 48 59.28125 
Q 47.40625 64.203125 44.234375 66.796875 
Q 41.0625 69.390625 35.6875 69.390625 
Q 26.21875 69.390625 21.578125 62.203125 
Q 16.9375 55.03125 16.796875 40.140625 
z
" id="DejaVuSerif-36"/>
      </defs>
      <g transform="translate(38.4275 212.264691)scale(0.16 -0.16)">
       <use xlink:href="#DejaVuSerif-30"/>
       <use x="63.623047" xlink:href="#DejaVuSerif-2e"/>
       <use x="95.410156" xlink:href="#DejaVuSerif-36"/>
      </g>
     </g>
    </g>
    <g id="ytick_3">
     <g id="line2d_6">
      <g>
       <use style="stroke:#000000;stroke-width:0.8;" x="70.8725" xlink:href="#m4e236769d3" y="162.602183"/>
      </g>
     </g>
     <g id="text_7">
      <!-- 0.7 -->
      <defs>
       <path d="M 56.390625 67.921875 
L 27.875 0 
L 20.609375 0 
L 47.796875 64.890625 
L 14.109375 64.890625 
L 14.109375 55.90625 
L 8.40625 55.90625 
L 8.40625 72.90625 
L 56.390625 72.90625 
z
" id="DejaVuSerif-37"/>
      </defs>
      <g transform="translate(38.4275 168.680933)scale(0.16 -0.16)">
       <use xlink:href="#DejaVuSerif-30"/>
       <use x="63.623047" xlink:href="#DejaVuSerif-2e"/>
       <use x="95.410156" xlink:href="#DejaVuSerif-37"/>
      </g>
     </g>
    </g>
    <g id="ytick_4">
     <g id="line2d_7">
      <g>
       <use style="stroke:#000000;stroke-width:0.8;" x="70.8725" xlink:href="#m4e236769d3" y="119.018425"/>
      </g>
     </g>
     <g id="text_8">
      <!-- 0.8 -->
      <defs>
       <path d="M 46.578125 19.921875 
Q 46.578125 27.734375 42.6875 32.046875 
Q 38.8125 36.375 31.78125 36.375 
Q 24.75 36.375 20.875 32.046875 
Q 17 27.734375 17 19.921875 
Q 17 12.0625 20.875 7.734375 
Q 24.75 3.421875 31.78125 3.421875 
Q 38.8125 3.421875 42.6875 7.734375 
Q 46.578125 12.0625 46.578125 19.921875 
z
M 44.578125 55.328125 
Q 44.578125 61.96875 41.203125 65.671875 
Q 37.84375 69.390625 31.78125 69.390625 
Q 25.78125 69.390625 22.390625 65.671875 
Q 19 61.96875 19 55.328125 
Q 19 48.640625 22.390625 44.921875 
Q 25.78125 41.21875 31.78125 41.21875 
Q 37.84375 41.21875 41.203125 44.921875 
Q 44.578125 48.640625 44.578125 55.328125 
z
M 39.3125 38.8125 
Q 47.609375 37.703125 52.25 32.6875 
Q 56.890625 27.6875 56.890625 19.921875 
Q 56.890625 9.671875 50.390625 4.125 
Q 43.890625 -1.421875 31.78125 -1.421875 
Q 19.734375 -1.421875 13.203125 4.125 
Q 6.6875 9.671875 6.6875 19.921875 
Q 6.6875 27.6875 11.328125 32.6875 
Q 15.96875 37.703125 24.3125 38.8125 
Q 16.9375 40.140625 13 44.40625 
Q 9.078125 48.6875 9.078125 55.328125 
Q 9.078125 64.109375 15.125 69.15625 
Q 21.1875 74.21875 31.78125 74.21875 
Q 42.390625 74.21875 48.4375 69.15625 
Q 54.5 64.109375 54.5 55.328125 
Q 54.5 48.6875 50.5625 44.40625 
Q 46.625 40.140625 39.3125 38.8125 
z
" id="DejaVuSerif-38"/>
      </defs>
      <g transform="translate(38.4275 125.097175)scale(0.16 -0.16)">
       <use xlink:href="#DejaVuSerif-30"/>
       <use x="63.623047" xlink:href="#DejaVuSerif-2e"/>
       <use x="95.410156" xlink:href="#DejaVuSerif-38"/>
      </g>
     </g>
    </g>
    <g id="ytick_5">
     <g id="line2d_8">
      <g>
       <use style="stroke:#000000;stroke-width:0.8;" x="70.8725" xlink:href="#m4e236769d3" y="75.434667"/>
      </g>
     </g>
     <g id="text_9">
      <!-- 0.9 -->
      <defs>
       <path d="M 46.78125 32.671875 
Q 43.5 29 39.25 27.1875 
Q 35.015625 25.390625 29.6875 25.390625 
Q 18.84375 25.390625 12.5625 31.9375 
Q 6.296875 38.484375 6.296875 49.8125 
Q 6.296875 60.890625 13.109375 67.546875 
Q 19.921875 74.21875 31.296875 74.21875 
Q 43.65625 74.21875 50.265625 65.015625 
Q 56.890625 55.8125 56.890625 38.71875 
Q 56.890625 19.578125 49.015625 9.078125 
Q 41.15625 -1.421875 26.90625 -1.421875 
Q 23.046875 -1.421875 18.796875 -0.6875 
Q 14.546875 0.046875 10.109375 1.515625 
L 10.109375 13.625 
L 15.578125 13.625 
Q 16.21875 8.6875 19.390625 6.046875 
Q 22.5625 3.421875 27.875 3.421875 
Q 37.359375 3.421875 41.984375 10.5625 
Q 46.625 17.71875 46.78125 32.671875 
z
M 30.90625 69.390625 
Q 23.96875 69.390625 20.28125 64.328125 
Q 16.609375 59.28125 16.609375 49.8125 
Q 16.609375 40.328125 20.28125 35.25 
Q 23.96875 30.171875 30.90625 30.171875 
Q 37.84375 30.171875 41.53125 35.078125 
Q 45.21875 39.984375 45.21875 49.21875 
Q 45.21875 58.9375 41.5 64.15625 
Q 37.796875 69.390625 30.90625 69.390625 
z
" id="DejaVuSerif-39"/>
      </defs>
      <g transform="translate(38.4275 81.513417)scale(0.16 -0.16)">
       <use xlink:href="#DejaVuSerif-30"/>
       <use x="63.623047" xlink:href="#DejaVuSerif-2e"/>
       <use x="95.410156" xlink:href="#DejaVuSerif-39"/>
      </g>
     </g>
    </g>
    <g id="ytick_6">
     <g id="line2d_9">
      <g>
       <use style="stroke:#000000;stroke-width:0.8;" x="70.8725" xlink:href="#m4e236769d3" y="31.850909"/>
      </g>
     </g>
     <g id="text_10">
      <!-- 1.0 -->
      <defs>
       <path d="M 14.203125 0 
L 14.203125 5.171875 
L 26.90625 5.171875 
L 26.90625 65.828125 
L 12.203125 56.296875 
L 12.203125 62.703125 
L 29.984375 74.21875 
L 36.71875 74.21875 
L 36.71875 5.171875 
L 49.421875 5.171875 
L 49.421875 0 
z
" id="DejaVuSerif-31"/>
      </defs>
      <g transform="translate(38.4275 37.929659)scale(0.16 -0.16)">
       <use xlink:href="#DejaVuSerif-31"/>
       <use x="63.623047" xlink:href="#DejaVuSerif-2e"/>
       <use x="95.410156" xlink:href="#DejaVuSerif-30"/>
      </g>
     </g>
    </g>
    <g id="text_11">
     <!-- Fraction of Energy - $\eta$ -->
     <defs>
      <path d="M 5.515625 0 
L 5.515625 5.171875 
L 14.796875 5.171875 
L 14.796875 67.671875 
L 5.515625 67.671875 
L 5.515625 72.90625 
L 65.1875 72.90625 
L 65.1875 56.6875 
L 59.1875 56.6875 
L 59.1875 66.890625 
L 24.703125 66.890625 
L 24.703125 42.484375 
L 49.609375 42.484375 
L 49.609375 51.609375 
L 55.609375 51.609375 
L 55.609375 27.390625 
L 49.609375 27.390625 
L 49.609375 36.53125 
L 24.703125 36.53125 
L 24.703125 5.171875 
L 36.375 5.171875 
L 36.375 0 
z
" id="DejaVuSerif-46"/>
      <path d="M 51.421875 15.578125 
Q 49.515625 7.28125 44.09375 2.921875 
Q 38.671875 -1.421875 30.078125 -1.421875 
Q 18.75 -1.421875 11.859375 6.078125 
Q 4.984375 13.578125 4.984375 25.984375 
Q 4.984375 38.421875 11.859375 45.875 
Q 18.75 53.328125 30.078125 53.328125 
Q 35.015625 53.328125 39.890625 52.171875 
Q 44.78125 51.03125 49.703125 48.6875 
L 49.703125 35.40625 
L 44.484375 35.40625 
Q 43.453125 42.234375 40.015625 45.359375 
Q 36.578125 48.484375 30.171875 48.484375 
Q 22.90625 48.484375 19.1875 42.84375 
Q 15.484375 37.203125 15.484375 25.984375 
Q 15.484375 14.75 19.171875 9.078125 
Q 22.859375 3.421875 30.171875 3.421875 
Q 35.984375 3.421875 39.453125 6.4375 
Q 42.921875 9.46875 44.1875 15.578125 
z
" id="DejaVuSerif-63"/>
      <path d="M 10.796875 46.6875 
L 2.875 46.6875 
L 2.875 51.90625 
L 10.796875 51.90625 
L 10.796875 68.015625 
L 19.828125 68.015625 
L 19.828125 51.90625 
L 36.71875 51.90625 
L 36.71875 46.6875 
L 19.828125 46.6875 
L 19.828125 13.71875 
Q 19.828125 7.125 21.09375 5.265625 
Q 22.359375 3.421875 25.78125 3.421875 
Q 29.296875 3.421875 30.90625 5.484375 
Q 32.515625 7.5625 32.625 12.203125 
L 39.40625 12.203125 
Q 39.015625 5.125 35.546875 1.84375 
Q 32.078125 -1.421875 25 -1.421875 
Q 17.234375 -1.421875 14.015625 2.015625 
Q 10.796875 5.46875 10.796875 13.71875 
z
" id="DejaVuSerif-74"/>
      <path d="M 9.71875 68.015625 
Q 9.71875 70.265625 11.34375 71.921875 
Q 12.984375 73.578125 15.28125 73.578125 
Q 17.53125 73.578125 19.15625 71.921875 
Q 20.796875 70.265625 20.796875 68.015625 
Q 20.796875 65.71875 19.1875 64.109375 
Q 17.578125 62.5 15.28125 62.5 
Q 12.984375 62.5 11.34375 64.109375 
Q 9.71875 65.71875 9.71875 68.015625 
z
M 21.1875 5.171875 
L 29.6875 5.171875 
L 29.6875 0 
L 3.609375 0 
L 3.609375 5.171875 
L 12.203125 5.171875 
L 12.203125 46.6875 
L 3.609375 46.6875 
L 3.609375 51.90625 
L 21.1875 51.90625 
z
" id="DejaVuSerif-69"/>
      <path d="M 4.109375 0 
L 4.109375 5.171875 
L 12.203125 5.171875 
L 12.203125 46.6875 
L 3.609375 46.6875 
L 3.609375 51.90625 
L 21.1875 51.90625 
L 21.1875 42.671875 
Q 23.6875 47.953125 27.65625 50.640625 
Q 31.640625 53.328125 36.921875 53.328125 
Q 45.515625 53.328125 49.5625 48.390625 
Q 53.609375 43.453125 53.609375 33.015625 
L 53.609375 5.171875 
L 61.625 5.171875 
L 61.625 0 
L 36.8125 0 
L 36.8125 5.171875 
L 44.578125 5.171875 
L 44.578125 30.171875 
Q 44.578125 39.703125 42.234375 43.234375 
Q 39.890625 46.78125 33.984375 46.78125 
Q 27.734375 46.78125 24.453125 42.203125 
Q 21.1875 37.640625 21.1875 28.90625 
L 21.1875 5.171875 
L 29 5.171875 
L 29 0 
z
" id="DejaVuSerif-6e"/>
      <path d="M 5.515625 0 
L 5.515625 5.171875 
L 14.796875 5.171875 
L 14.796875 67.671875 
L 5.515625 67.671875 
L 5.515625 72.90625 
L 64.203125 72.90625 
L 64.203125 56.6875 
L 58.203125 56.6875 
L 58.203125 66.890625 
L 24.703125 66.890625 
L 24.703125 42.484375 
L 48.578125 42.484375 
L 48.578125 51.609375 
L 54.59375 51.609375 
L 54.59375 27.390625 
L 48.578125 27.390625 
L 48.578125 36.53125 
L 24.703125 36.53125 
L 24.703125 6 
L 58.984375 6 
L 58.984375 16.21875 
L 64.984375 16.21875 
L 64.984375 0 
z
" id="DejaVuSerif-45"/>
      <path d="M 52.484375 46.6875 
L 52.484375 1.125 
Q 52.484375 -10.0625 46.328125 -16.140625 
Q 40.1875 -22.21875 28.8125 -22.21875 
Q 23.6875 -22.21875 19 -21.28125 
Q 14.3125 -20.359375 10.015625 -18.5 
L 10.015625 -7.625 
L 14.703125 -7.625 
Q 15.578125 -12.703125 18.84375 -15.046875 
Q 22.125 -17.390625 28.21875 -17.390625 
Q 36.140625 -17.390625 39.8125 -12.921875 
Q 43.5 -8.453125 43.5 1.125 
L 43.5 8.109375 
Q 40.875 3.21875 36.796875 0.890625 
Q 32.71875 -1.421875 26.703125 -1.421875 
Q 17.140625 -1.421875 11.0625 6.171875 
Q 4.984375 13.765625 4.984375 25.984375 
Q 4.984375 38.1875 11.03125 45.75 
Q 17.09375 53.328125 26.703125 53.328125 
Q 32.71875 53.328125 36.796875 51 
Q 40.875 48.6875 43.5 43.796875 
L 43.5 51.90625 
L 61.078125 51.90625 
L 61.078125 46.6875 
z
M 43.5 28.515625 
Q 43.5 37.84375 39.90625 42.765625 
Q 36.328125 47.703125 29.5 47.703125 
Q 22.5625 47.703125 19.015625 42.234375 
Q 15.484375 36.765625 15.484375 25.984375 
Q 15.484375 15.234375 19.015625 9.71875 
Q 22.5625 4.203125 29.5 4.203125 
Q 36.328125 4.203125 39.90625 9.109375 
Q 43.5 14.015625 43.5 23.390625 
z
" id="DejaVuSerif-67"/>
      <path d="M 10.6875 -1.125 
Q 9.46875 -1.125 8.59375 -0.34375 
Q 7.71875 0.4375 7.71875 1.703125 
Q 7.71875 2.296875 7.8125 2.59375 
L 15.28125 32.421875 
Q 16.015625 35.203125 16.015625 37.3125 
Q 16.015625 41.609375 13.09375 41.609375 
Q 9.96875 41.609375 8.453125 37.859375 
Q 6.9375 34.125 5.515625 28.421875 
Q 5.515625 28.125 5.21875 27.953125 
Q 4.9375 27.78125 4.6875 27.78125 
L 3.515625 27.78125 
Q 3.171875 27.78125 2.921875 28.140625 
Q 2.6875 28.515625 2.6875 28.8125 
Q 3.765625 33.15625 4.765625 36.171875 
Q 5.765625 39.203125 7.890625 41.6875 
Q 10.015625 44.1875 13.1875 44.1875 
Q 16.890625 44.1875 19.796875 41.84375 
Q 22.703125 39.5 22.703125 35.796875 
Q 25.640625 39.703125 29.59375 41.9375 
Q 33.546875 44.1875 38.1875 44.1875 
Q 43.40625 44.1875 46.546875 41.375 
Q 49.703125 38.578125 49.703125 33.40625 
Q 49.703125 30.421875 49.03125 27.875 
L 37.40625 -18.40625 
Q 37.109375 -19.828125 35.9375 -20.703125 
Q 34.765625 -21.578125 33.296875 -21.578125 
Q 32.078125 -21.578125 31.203125 -20.8125 
Q 30.328125 -20.0625 30.328125 -18.796875 
Q 30.328125 -18.21875 30.421875 -18.015625 
L 41.890625 28.078125 
Q 42.921875 32.171875 42.921875 34.90625 
Q 42.921875 37.703125 41.75 39.65625 
Q 40.578125 41.609375 37.984375 41.609375 
Q 28.171875 41.609375 21.6875 29.5 
L 14.890625 2.203125 
Q 14.546875 0.828125 13.34375 -0.140625 
Q 12.15625 -1.125 10.6875 -1.125 
z
" id="Cmmi10-b4"/>
     </defs>
     <g transform="translate(30.9775 235.085)rotate(-90)scale(0.15 -0.15)">
      <use transform="translate(0 0.015625)" xlink:href="#DejaVuSerif-46"/>
      <use transform="translate(69.384766 0.015625)" xlink:href="#DejaVuSerif-72"/>
      <use transform="translate(117.1875 0.015625)" xlink:href="#DejaVuSerif-61"/>
      <use transform="translate(176.806641 0.015625)" xlink:href="#DejaVuSerif-63"/>
      <use transform="translate(232.8125 0.015625)" xlink:href="#DejaVuSerif-74"/>
      <use transform="translate(272.998047 0.015625)" xlink:href="#DejaVuSerif-69"/>
      <use transform="translate(304.980469 0.015625)" xlink:href="#DejaVuSerif-6f"/>
      <use transform="translate(365.185547 0.015625)" xlink:href="#DejaVuSerif-6e"/>
      <use transform="translate(429.589844 0.015625)" xlink:href="#DejaVuSerif-20"/>
      <use transform="translate(461.376953 0.015625)" xlink:href="#DejaVuSerif-6f"/>
      <use transform="translate(521.582031 0.015625)" xlink:href="#DejaVuSerif-66"/>
      <use transform="translate(558.59375 0.015625)" xlink:href="#DejaVuSerif-20"/>
      <use transform="translate(590.380859 0.015625)" xlink:href="#DejaVuSerif-45"/>
      <use transform="translate(663.378906 0.015625)" xlink:href="#DejaVuSerif-6e"/>
      <use transform="translate(727.783203 0.015625)" xlink:href="#DejaVuSerif-65"/>
      <use transform="translate(786.962891 0.015625)" xlink:href="#DejaVuSerif-72"/>
      <use transform="translate(834.765625 0.015625)" xlink:href="#DejaVuSerif-67"/>
      <use transform="translate(898.779297 0.015625)" xlink:href="#DejaVuSerif-79"/>
      <use transform="translate(955.273438 0.015625)" xlink:href="#DejaVuSerif-20"/>
      <use transform="translate(987.060547 0.015625)" xlink:href="#DejaVuSerif-2d"/>
      <use transform="translate(1020.849609 0.015625)" xlink:href="#DejaVuSerif-20"/>
      <use transform="translate(1052.636719 0.015625)" xlink:href="#Cmmi10-b4"/>
     </g>
    </g>
   </g>
   <g id="line2d_10">
    <path clip-path="url(#p032608a5b5)" d="M 81.336179 31.850909 
L 85.607069 31.850909 
L 89.877958 31.850909 
L 94.148848 31.850909 
L 98.419737 31.850909 
L 102.690626 31.850909 
L 106.961516 31.850909 
L 111.232405 31.850909 
L 115.503295 31.850909 
L 119.774184 31.850909 
L 141.128632 31.850909 
L 162.483079 31.850909 
L 183.837526 31.850909 
L 205.191974 31.850909 
L 226.546421 31.850909 
L 247.900868 31.850909 
L 269.255315 31.850909 
L 290.609763 31.850909 
" style="fill:none;stroke:#1f77b4;stroke-linecap:square;stroke-width:1.5;"/>
    <defs>
     <path d="M 0 3 
C 0.795609 3 1.55874 2.683901 2.12132 2.12132 
C 2.683901 1.55874 3 0.795609 3 0 
C 3 -0.795609 2.683901 -1.55874 2.12132 -2.12132 
C 1.55874 -2.683901 0.795609 -3 0 -3 
C -0.795609 -3 -1.55874 -2.683901 -2.12132 -2.12132 
C -2.683901 -1.55874 -3 -0.795609 -3 0 
C -3 0.795609 -2.683901 1.55874 -2.12132 2.12132 
C -1.55874 2.683901 -0.795609 3 0 3 
z
" id="mf73b85c275" style="stroke:#1f77b4;"/>
    </defs>
    <g clip-path="url(#p032608a5b5)">
     <use style="fill:#1f77b4;stroke:#1f77b4;" x="81.336179" xlink:href="#mf73b85c275" y="31.850909"/>
     <use style="fill:#1f77b4;stroke:#1f77b4;" x="85.607069" xlink:href="#mf73b85c275" y="31.850909"/>
     <use style="fill:#1f77b4;stroke:#1f77b4;" x="89.877958" xlink:href="#mf73b85c275" y="31.850909"/>
     <use style="fill:#1f77b4;stroke:#1f77b4;" x="94.148848" xlink:href="#mf73b85c275" y="31.850909"/>
     <use style="fill:#1f77b4;stroke:#1f77b4;" x="98.419737" xlink:href="#mf73b85c275" y="31.850909"/>
     <use style="fill:#1f77b4;stroke:#1f77b4;" x="102.690626" xlink:href="#mf73b85c275" y="31.850909"/>
     <use style="fill:#1f77b4;stroke:#1f77b4;" x="106.961516" xlink:href="#mf73b85c275" y="31.850909"/>
     <use style="fill:#1f77b4;stroke:#1f77b4;" x="111.232405" xlink:href="#mf73b85c275" y="31.850909"/>
     <use style="fill:#1f77b4;stroke:#1f77b4;" x="115.503295" xlink:href="#mf73b85c275" y="31.850909"/>
     <use style="fill:#1f77b4;stroke:#1f77b4;" x="119.774184" xlink:href="#mf73b85c275" y="31.850909"/>
     <use style="fill:#1f77b4;stroke:#1f77b4;" x="141.128632" xlink:href="#mf73b85c275" y="31.850909"/>
     <use style="fill:#1f77b4;stroke:#1f77b4;" x="162.483079" xlink:href="#mf73b85c275" y="31.850909"/>
     <use style="fill:#1f77b4;stroke:#1f77b4;" x="183.837526" xlink:href="#mf73b85c275" y="31.850909"/>
     <use style="fill:#1f77b4;stroke:#1f77b4;" x="205.191974" xlink:href="#mf73b85c275" y="31.850909"/>
     <use style="fill:#1f77b4;stroke:#1f77b4;" x="226.546421" xlink:href="#mf73b85c275" y="31.850909"/>
     <use style="fill:#1f77b4;stroke:#1f77b4;" x="247.900868" xlink:href="#mf73b85c275" y="31.850909"/>
     <use style="fill:#1f77b4;stroke:#1f77b4;" x="269.255315" xlink:href="#mf73b85c275" y="31.850909"/>
     <use style="fill:#1f77b4;stroke:#1f77b4;" x="290.609763" xlink:href="#mf73b85c275" y="31.850909"/>
    </g>
   </g>
   <g id="line2d_11">
    <path clip-path="url(#p032608a5b5)" d="M 81.336179 34.030097 
L 85.607069 47.9769 
L 89.877958 67.589591 
L 94.148848 66.282078 
L 98.419737 63.231215 
L 102.690626 63.667052 
L 106.961516 64.538728 
L 111.232405 64.538728 
L 115.503295 64.974565 
L 119.774184 64.974565 
L 141.128632 63.667052 
L 162.483079 64.538728 
L 183.837526 64.538728 
L 205.191974 64.538728 
L 226.546421 64.974565 
L 247.900868 63.231215 
L 269.255315 64.538728 
L 290.609763 64.538728 
" style="fill:none;stroke:#ff7f0e;stroke-linecap:square;stroke-width:1.5;"/>
    <defs>
     <path d="M 0 -3 
L -3 3 
L 3 3 
z
" id="m15ecd2564c" style="stroke:#ff7f0e;stroke-linejoin:miter;"/>
    </defs>
    <g clip-path="url(#p032608a5b5)">
     <use style="fill:#ff7f0e;stroke:#ff7f0e;stroke-linejoin:miter;" x="81.336179" xlink:href="#m15ecd2564c" y="34.030097"/>
     <use style="fill:#ff7f0e;stroke:#ff7f0e;stroke-linejoin:miter;" x="85.607069" xlink:href="#m15ecd2564c" y="47.9769"/>
     <use style="fill:#ff7f0e;stroke:#ff7f0e;stroke-linejoin:miter;" x="89.877958" xlink:href="#m15ecd2564c" y="67.589591"/>
     <use style="fill:#ff7f0e;stroke:#ff7f0e;stroke-linejoin:miter;" x="94.148848" xlink:href="#m15ecd2564c" y="66.282078"/>
     <use style="fill:#ff7f0e;stroke:#ff7f0e;stroke-linejoin:miter;" x="98.419737" xlink:href="#m15ecd2564c" y="63.231215"/>
     <use style="fill:#ff7f0e;stroke:#ff7f0e;stroke-linejoin:miter;" x="102.690626" xlink:href="#m15ecd2564c" y="63.667052"/>
     <use style="fill:#ff7f0e;stroke:#ff7f0e;stroke-linejoin:miter;" x="106.961516" xlink:href="#m15ecd2564c" y="64.538728"/>
     <use style="fill:#ff7f0e;stroke:#ff7f0e;stroke-linejoin:miter;" x="111.232405" xlink:href="#m15ecd2564c" y="64.538728"/>
     <use style="fill:#ff7f0e;stroke:#ff7f0e;stroke-linejoin:miter;" x="115.503295" xlink:href="#m15ecd2564c" y="64.974565"/>
     <use style="fill:#ff7f0e;stroke:#ff7f0e;stroke-linejoin:miter;" x="119.774184" xlink:href="#m15ecd2564c" y="64.974565"/>
     <use style="fill:#ff7f0e;stroke:#ff7f0e;stroke-linejoin:miter;" x="141.128632" xlink:href="#m15ecd2564c" y="63.667052"/>
     <use style="fill:#ff7f0e;stroke:#ff7f0e;stroke-linejoin:miter;" x="162.483079" xlink:href="#m15ecd2564c" y="64.538728"/>
     <use style="fill:#ff7f0e;stroke:#ff7f0e;stroke-linejoin:miter;" x="183.837526" xlink:href="#m15ecd2564c" y="64.538728"/>
     <use style="fill:#ff7f0e;stroke:#ff7f0e;stroke-linejoin:miter;" x="205.191974" xlink:href="#m15ecd2564c" y="64.538728"/>
     <use style="fill:#ff7f0e;stroke:#ff7f0e;stroke-linejoin:miter;" x="226.546421" xlink:href="#m15ecd2564c" y="64.974565"/>
     <use style="fill:#ff7f0e;stroke:#ff7f0e;stroke-linejoin:miter;" x="247.900868" xlink:href="#m15ecd2564c" y="63.231215"/>
     <use style="fill:#ff7f0e;stroke:#ff7f0e;stroke-linejoin:miter;" x="269.255315" xlink:href="#m15ecd2564c" y="64.538728"/>
     <use style="fill:#ff7f0e;stroke:#ff7f0e;stroke-linejoin:miter;" x="290.609763" xlink:href="#m15ecd2564c" y="64.538728"/>
    </g>
   </g>
   <g id="line2d_12">
    <path clip-path="url(#p032608a5b5)" d="M 81.336179 35.33761 
L 85.607069 153.449594 
L 89.877958 212.287667 
L 94.148848 204.006753 
L 98.419737 206.621779 
L 102.690626 211.415992 
L 106.961516 204.878428 
L 111.232405 204.878428 
L 115.503295 205.314266 
L 119.774184 204.878428 
L 141.128632 205.314266 
L 162.483079 205.750104 
L 183.837526 205.314266 
L 205.191974 205.750104 
L 226.546421 205.750104 
L 247.900868 205.750104 
L 269.255315 206.185941 
L 290.609763 207.057616 
" style="fill:none;stroke:#2ca02c;stroke-linecap:square;stroke-width:1.5;"/>
    <defs>
     <path d="M -0 3 
L 3 -3 
L -3 -3 
z
" id="ma197de4650" style="stroke:#2ca02c;stroke-linejoin:miter;"/>
    </defs>
    <g clip-path="url(#p032608a5b5)">
     <use style="fill:#2ca02c;stroke:#2ca02c;stroke-linejoin:miter;" x="81.336179" xlink:href="#ma197de4650" y="35.33761"/>
     <use style="fill:#2ca02c;stroke:#2ca02c;stroke-linejoin:miter;" x="85.607069" xlink:href="#ma197de4650" y="153.449594"/>
     <use style="fill:#2ca02c;stroke:#2ca02c;stroke-linejoin:miter;" x="89.877958" xlink:href="#ma197de4650" y="212.287667"/>
     <use style="fill:#2ca02c;stroke:#2ca02c;stroke-linejoin:miter;" x="94.148848" xlink:href="#ma197de4650" y="204.006753"/>
     <use style="fill:#2ca02c;stroke:#2ca02c;stroke-linejoin:miter;" x="98.419737" xlink:href="#ma197de4650" y="206.621779"/>
     <use style="fill:#2ca02c;stroke:#2ca02c;stroke-linejoin:miter;" x="102.690626" xlink:href="#ma197de4650" y="211.415992"/>
     <use style="fill:#2ca02c;stroke:#2ca02c;stroke-linejoin:miter;" x="106.961516" xlink:href="#ma197de4650" y="204.878428"/>
     <use style="fill:#2ca02c;stroke:#2ca02c;stroke-linejoin:miter;" x="111.232405" xlink:href="#ma197de4650" y="204.878428"/>
     <use style="fill:#2ca02c;stroke:#2ca02c;stroke-linejoin:miter;" x="115.503295" xlink:href="#ma197de4650" y="205.314266"/>
     <use style="fill:#2ca02c;stroke:#2ca02c;stroke-linejoin:miter;" x="119.774184" xlink:href="#ma197de4650" y="204.878428"/>
     <use style="fill:#2ca02c;stroke:#2ca02c;stroke-linejoin:miter;" x="141.128632" xlink:href="#ma197de4650" y="205.314266"/>
     <use style="fill:#2ca02c;stroke:#2ca02c;stroke-linejoin:miter;" x="162.483079" xlink:href="#ma197de4650" y="205.750104"/>
     <use style="fill:#2ca02c;stroke:#2ca02c;stroke-linejoin:miter;" x="183.837526" xlink:href="#ma197de4650" y="205.314266"/>
     <use style="fill:#2ca02c;stroke:#2ca02c;stroke-linejoin:miter;" x="205.191974" xlink:href="#ma197de4650" y="205.750104"/>
     <use style="fill:#2ca02c;stroke:#2ca02c;stroke-linejoin:miter;" x="226.546421" xlink:href="#ma197de4650" y="205.750104"/>
     <use style="fill:#2ca02c;stroke:#2ca02c;stroke-linejoin:miter;" x="247.900868" xlink:href="#ma197de4650" y="205.750104"/>
     <use style="fill:#2ca02c;stroke:#2ca02c;stroke-linejoin:miter;" x="269.255315" xlink:href="#ma197de4650" y="206.185941"/>
     <use style="fill:#2ca02c;stroke:#2ca02c;stroke-linejoin:miter;" x="290.609763" xlink:href="#ma197de4650" y="207.057616"/>
    </g>
   </g>
   <g id="line2d_13">
    <path clip-path="url(#p032608a5b5)" d="M 81.336179 33.158422 
L 85.607069 193.982489 
L 89.877958 252.820562 
L 94.148848 239.745435 
L 98.419737 226.670307 
L 102.690626 228.849495 
L 106.961516 227.106145 
L 111.232405 228.849495 
L 115.503295 233.207871 
L 119.774184 232.336196 
L 141.128632 232.772034 
L 162.483079 233.207871 
L 183.837526 233.207871 
L 205.191974 233.207871 
L 226.546421 234.515384 
L 247.900868 234.079546 
L 269.255315 235.387059 
L 290.609763 236.258734 
" style="fill:none;stroke:#d62728;stroke-linecap:square;stroke-width:1.5;"/>
    <defs>
     <path d="M -3 3 
L 3 3 
L 3 -3 
L -3 -3 
z
" id="m4d9dc83b69" style="stroke:#d62728;stroke-linejoin:miter;"/>
    </defs>
    <g clip-path="url(#p032608a5b5)">
     <use style="fill:#d62728;stroke:#d62728;stroke-linejoin:miter;" x="81.336179" xlink:href="#m4d9dc83b69" y="33.158422"/>
     <use style="fill:#d62728;stroke:#d62728;stroke-linejoin:miter;" x="85.607069" xlink:href="#m4d9dc83b69" y="193.982489"/>
     <use style="fill:#d62728;stroke:#d62728;stroke-linejoin:miter;" x="89.877958" xlink:href="#m4d9dc83b69" y="252.820562"/>
     <use style="fill:#d62728;stroke:#d62728;stroke-linejoin:miter;" x="94.148848" xlink:href="#m4d9dc83b69" y="239.745435"/>
     <use style="fill:#d62728;stroke:#d62728;stroke-linejoin:miter;" x="98.419737" xlink:href="#m4d9dc83b69" y="226.670307"/>
     <use style="fill:#d62728;stroke:#d62728;stroke-linejoin:miter;" x="102.690626" xlink:href="#m4d9dc83b69" y="228.849495"/>
     <use style="fill:#d62728;stroke:#d62728;stroke-linejoin:miter;" x="106.961516" xlink:href="#m4d9dc83b69" y="227.106145"/>
     <use style="fill:#d62728;stroke:#d62728;stroke-linejoin:miter;" x="111.232405" xlink:href="#m4d9dc83b69" y="228.849495"/>
     <use style="fill:#d62728;stroke:#d62728;stroke-linejoin:miter;" x="115.503295" xlink:href="#m4d9dc83b69" y="233.207871"/>
     <use style="fill:#d62728;stroke:#d62728;stroke-linejoin:miter;" x="119.774184" xlink:href="#m4d9dc83b69" y="232.336196"/>
     <use style="fill:#d62728;stroke:#d62728;stroke-linejoin:miter;" x="141.128632" xlink:href="#m4d9dc83b69" y="232.772034"/>
     <use style="fill:#d62728;stroke:#d62728;stroke-linejoin:miter;" x="162.483079" xlink:href="#m4d9dc83b69" y="233.207871"/>
     <use style="fill:#d62728;stroke:#d62728;stroke-linejoin:miter;" x="183.837526" xlink:href="#m4d9dc83b69" y="233.207871"/>
     <use style="fill:#d62728;stroke:#d62728;stroke-linejoin:miter;" x="205.191974" xlink:href="#m4d9dc83b69" y="233.207871"/>
     <use style="fill:#d62728;stroke:#d62728;stroke-linejoin:miter;" x="226.546421" xlink:href="#m4d9dc83b69" y="234.515384"/>
     <use style="fill:#d62728;stroke:#d62728;stroke-linejoin:miter;" x="247.900868" xlink:href="#m4d9dc83b69" y="234.079546"/>
     <use style="fill:#d62728;stroke:#d62728;stroke-linejoin:miter;" x="269.255315" xlink:href="#m4d9dc83b69" y="235.387059"/>
     <use style="fill:#d62728;stroke:#d62728;stroke-linejoin:miter;" x="290.609763" xlink:href="#m4d9dc83b69" y="236.258734"/>
    </g>
   </g>
   <g id="line2d_14">
    <path clip-path="url(#p032608a5b5)" d="M 81.336179 35.33761 
L 85.607069 198.340865 
L 89.877958 268.946553 
L 94.148848 228.849495 
L 98.419737 201.391728 
L 102.690626 183.958225 
L 106.961516 173.498123 
L 111.232405 171.754772 
L 115.503295 175.241473 
L 119.774184 176.113148 
L 141.128632 172.626447 
L 162.483079 173.062285 
L 183.837526 171.754772 
L 205.191974 171.318935 
L 226.546421 173.498123 
L 247.900868 173.498123 
L 269.255315 174.369798 
L 290.609763 173.062285 
" style="fill:none;stroke:#9467bd;stroke-linecap:square;stroke-width:1.5;"/>
    <defs>
     <path d="M -3 -0 
L 3 3 
L 3 -3 
z
" id="m929fcbc5fa" style="stroke:#9467bd;stroke-linejoin:miter;"/>
    </defs>
    <g clip-path="url(#p032608a5b5)">
     <use style="fill:#9467bd;stroke:#9467bd;stroke-linejoin:miter;" x="81.336179" xlink:href="#m929fcbc5fa" y="35.33761"/>
     <use style="fill:#9467bd;stroke:#9467bd;stroke-linejoin:miter;" x="85.607069" xlink:href="#m929fcbc5fa" y="198.340865"/>
     <use style="fill:#9467bd;stroke:#9467bd;stroke-linejoin:miter;" x="89.877958" xlink:href="#m929fcbc5fa" y="268.946553"/>
     <use style="fill:#9467bd;stroke:#9467bd;stroke-linejoin:miter;" x="94.148848" xlink:href="#m929fcbc5fa" y="228.849495"/>
     <use style="fill:#9467bd;stroke:#9467bd;stroke-linejoin:miter;" x="98.419737" xlink:href="#m929fcbc5fa" y="201.391728"/>
     <use style="fill:#9467bd;stroke:#9467bd;stroke-linejoin:miter;" x="102.690626" xlink:href="#m929fcbc5fa" y="183.958225"/>
     <use style="fill:#9467bd;stroke:#9467bd;stroke-linejoin:miter;" x="106.961516" xlink:href="#m929fcbc5fa" y="173.498123"/>
     <use style="fill:#9467bd;stroke:#9467bd;stroke-linejoin:miter;" x="111.232405" xlink:href="#m929fcbc5fa" y="171.754772"/>
     <use style="fill:#9467bd;stroke:#9467bd;stroke-linejoin:miter;" x="115.503295" xlink:href="#m929fcbc5fa" y="175.241473"/>
     <use style="fill:#9467bd;stroke:#9467bd;stroke-linejoin:miter;" x="119.774184" xlink:href="#m929fcbc5fa" y="176.113148"/>
     <use style="fill:#9467bd;stroke:#9467bd;stroke-linejoin:miter;" x="141.128632" xlink:href="#m929fcbc5fa" y="172.626447"/>
     <use style="fill:#9467bd;stroke:#9467bd;stroke-linejoin:miter;" x="162.483079" xlink:href="#m929fcbc5fa" y="173.062285"/>
     <use style="fill:#9467bd;stroke:#9467bd;stroke-linejoin:miter;" x="183.837526" xlink:href="#m929fcbc5fa" y="171.754772"/>
     <use style="fill:#9467bd;stroke:#9467bd;stroke-linejoin:miter;" x="205.191974" xlink:href="#m929fcbc5fa" y="171.318935"/>
     <use style="fill:#9467bd;stroke:#9467bd;stroke-linejoin:miter;" x="226.546421" xlink:href="#m929fcbc5fa" y="173.498123"/>
     <use style="fill:#9467bd;stroke:#9467bd;stroke-linejoin:miter;" x="247.900868" xlink:href="#m929fcbc5fa" y="173.498123"/>
     <use style="fill:#9467bd;stroke:#9467bd;stroke-linejoin:miter;" x="269.255315" xlink:href="#m929fcbc5fa" y="174.369798"/>
     <use style="fill:#9467bd;stroke:#9467bd;stroke-linejoin:miter;" x="290.609763" xlink:href="#m929fcbc5fa" y="173.062285"/>
    </g>
   </g>
   <g id="line2d_15">
    <path clip-path="url(#p032608a5b5)" d="M 81.336179 34.901772 
L 85.607069 199.648377 
L 89.877958 271.561578 
L 94.148848 230.592846 
L 98.419737 198.776702 
L 102.690626 173.062285 
L 106.961516 162.602183 
L 111.232405 154.321269 
L 115.503295 145.16868 
L 119.774184 137.323603 
L 141.128632 136.451928 
L 162.483079 131.221877 
L 183.837526 130.78604 
L 205.191974 130.78604 
L 226.546421 133.401065 
L 247.900868 132.52939 
L 269.255315 132.52939 
L 290.609763 132.093553 
" style="fill:none;stroke:#8c564b;stroke-linecap:square;stroke-width:1.5;"/>
    <defs>
     <path d="M 3 0 
L -3 -3 
L -3 3 
z
" id="m7f56eab78c" style="stroke:#8c564b;stroke-linejoin:miter;"/>
    </defs>
    <g clip-path="url(#p032608a5b5)">
     <use style="fill:#8c564b;stroke:#8c564b;stroke-linejoin:miter;" x="81.336179" xlink:href="#m7f56eab78c" y="34.901772"/>
     <use style="fill:#8c564b;stroke:#8c564b;stroke-linejoin:miter;" x="85.607069" xlink:href="#m7f56eab78c" y="199.648377"/>
     <use style="fill:#8c564b;stroke:#8c564b;stroke-linejoin:miter;" x="89.877958" xlink:href="#m7f56eab78c" y="271.561578"/>
     <use style="fill:#8c564b;stroke:#8c564b;stroke-linejoin:miter;" x="94.148848" xlink:href="#m7f56eab78c" y="230.592846"/>
     <use style="fill:#8c564b;stroke:#8c564b;stroke-linejoin:miter;" x="98.419737" xlink:href="#m7f56eab78c" y="198.776702"/>
     <use style="fill:#8c564b;stroke:#8c564b;stroke-linejoin:miter;" x="102.690626" xlink:href="#m7f56eab78c" y="173.062285"/>
     <use style="fill:#8c564b;stroke:#8c564b;stroke-linejoin:miter;" x="106.961516" xlink:href="#m7f56eab78c" y="162.602183"/>
     <use style="fill:#8c564b;stroke:#8c564b;stroke-linejoin:miter;" x="111.232405" xlink:href="#m7f56eab78c" y="154.321269"/>
     <use style="fill:#8c564b;stroke:#8c564b;stroke-linejoin:miter;" x="115.503295" xlink:href="#m7f56eab78c" y="145.16868"/>
     <use style="fill:#8c564b;stroke:#8c564b;stroke-linejoin:miter;" x="119.774184" xlink:href="#m7f56eab78c" y="137.323603"/>
     <use style="fill:#8c564b;stroke:#8c564b;stroke-linejoin:miter;" x="141.128632" xlink:href="#m7f56eab78c" y="136.451928"/>
     <use style="fill:#8c564b;stroke:#8c564b;stroke-linejoin:miter;" x="162.483079" xlink:href="#m7f56eab78c" y="131.221877"/>
     <use style="fill:#8c564b;stroke:#8c564b;stroke-linejoin:miter;" x="183.837526" xlink:href="#m7f56eab78c" y="130.78604"/>
     <use style="fill:#8c564b;stroke:#8c564b;stroke-linejoin:miter;" x="205.191974" xlink:href="#m7f56eab78c" y="130.78604"/>
     <use style="fill:#8c564b;stroke:#8c564b;stroke-linejoin:miter;" x="226.546421" xlink:href="#m7f56eab78c" y="133.401065"/>
     <use style="fill:#8c564b;stroke:#8c564b;stroke-linejoin:miter;" x="247.900868" xlink:href="#m7f56eab78c" y="132.52939"/>
     <use style="fill:#8c564b;stroke:#8c564b;stroke-linejoin:miter;" x="269.255315" xlink:href="#m7f56eab78c" y="132.52939"/>
     <use style="fill:#8c564b;stroke:#8c564b;stroke-linejoin:miter;" x="290.609763" xlink:href="#m7f56eab78c" y="132.093553"/>
    </g>
   </g>
   <g id="line2d_16">
    <path clip-path="url(#p032608a5b5)" d="M 81.336179 34.030097 
L 85.607069 207.929291 
L 89.877958 272.869091 
L 94.148848 231.028683 
L 98.419737 197.46919 
L 102.690626 166.088884 
L 106.961516 154.757107 
L 111.232405 139.066954 
L 115.503295 127.735177 
L 119.774184 118.582588 
L 141.128632 91.996495 
L 162.483079 75.870505 
L 183.837526 66.282078 
L 205.191974 64.538728 
L 226.546421 63.231215 
L 247.900868 58.872839 
L 269.255315 62.35954 
L 290.609763 56.693651 
" style="fill:none;stroke:#e377c2;stroke-linecap:square;stroke-width:1.5;"/>
    <defs>
     <path d="M -0 4.242641 
L 2.545584 0 
L 0 -4.242641 
L -2.545584 -0 
z
" id="m9b1051cd65" style="stroke:#e377c2;stroke-linejoin:miter;"/>
    </defs>
    <g clip-path="url(#p032608a5b5)">
     <use style="fill:#e377c2;stroke:#e377c2;stroke-linejoin:miter;" x="81.336179" xlink:href="#m9b1051cd65" y="34.030097"/>
     <use style="fill:#e377c2;stroke:#e377c2;stroke-linejoin:miter;" x="85.607069" xlink:href="#m9b1051cd65" y="207.929291"/>
     <use style="fill:#e377c2;stroke:#e377c2;stroke-linejoin:miter;" x="89.877958" xlink:href="#m9b1051cd65" y="272.869091"/>
     <use style="fill:#e377c2;stroke:#e377c2;stroke-linejoin:miter;" x="94.148848" xlink:href="#m9b1051cd65" y="231.028683"/>
     <use style="fill:#e377c2;stroke:#e377c2;stroke-linejoin:miter;" x="98.419737" xlink:href="#m9b1051cd65" y="197.46919"/>
     <use style="fill:#e377c2;stroke:#e377c2;stroke-linejoin:miter;" x="102.690626" xlink:href="#m9b1051cd65" y="166.088884"/>
     <use style="fill:#e377c2;stroke:#e377c2;stroke-linejoin:miter;" x="106.961516" xlink:href="#m9b1051cd65" y="154.757107"/>
     <use style="fill:#e377c2;stroke:#e377c2;stroke-linejoin:miter;" x="111.232405" xlink:href="#m9b1051cd65" y="139.066954"/>
     <use style="fill:#e377c2;stroke:#e377c2;stroke-linejoin:miter;" x="115.503295" xlink:href="#m9b1051cd65" y="127.735177"/>
     <use style="fill:#e377c2;stroke:#e377c2;stroke-linejoin:miter;" x="119.774184" xlink:href="#m9b1051cd65" y="118.582588"/>
     <use style="fill:#e377c2;stroke:#e377c2;stroke-linejoin:miter;" x="141.128632" xlink:href="#m9b1051cd65" y="91.996495"/>
     <use style="fill:#e377c2;stroke:#e377c2;stroke-linejoin:miter;" x="162.483079" xlink:href="#m9b1051cd65" y="75.870505"/>
     <use style="fill:#e377c2;stroke:#e377c2;stroke-linejoin:miter;" x="183.837526" xlink:href="#m9b1051cd65" y="66.282078"/>
     <use style="fill:#e377c2;stroke:#e377c2;stroke-linejoin:miter;" x="205.191974" xlink:href="#m9b1051cd65" y="64.538728"/>
     <use style="fill:#e377c2;stroke:#e377c2;stroke-linejoin:miter;" x="226.546421" xlink:href="#m9b1051cd65" y="63.231215"/>
     <use style="fill:#e377c2;stroke:#e377c2;stroke-linejoin:miter;" x="247.900868" xlink:href="#m9b1051cd65" y="58.872839"/>
     <use style="fill:#e377c2;stroke:#e377c2;stroke-linejoin:miter;" x="269.255315" xlink:href="#m9b1051cd65" y="62.35954"/>
     <use style="fill:#e377c2;stroke:#e377c2;stroke-linejoin:miter;" x="290.609763" xlink:href="#m9b1051cd65" y="56.693651"/>
    </g>
   </g>
   <g id="line2d_17">
    <path clip-path="url(#p032608a5b5)" d="M 81.336179 34.901772 
L 85.607069 214.466855 
L 89.877958 264.588177 
L 94.148848 219.261069 
L 98.419737 195.290002 
L 102.690626 167.396397 
L 106.961516 142.989492 
L 111.232405 136.451928 
L 115.503295 123.376801 
L 119.774184 109.429998 
L 141.128632 82.408068 
L 162.483079 64.10289 
L 183.837526 58.437001 
L 205.191974 44.926036 
L 226.546421 48.848575 
L 247.900868 49.72025 
L 269.255315 49.284412 
L 290.609763 41.439336 
" style="fill:none;stroke:#7f7f7f;stroke-linecap:square;stroke-width:1.5;"/>
    <defs>
     <path d="M 0 -3 
L -0.673542 -0.927051 
L -2.85317 -0.927051 
L -1.089814 0.354102 
L -1.763356 2.427051 
L -0 1.145898 
L 1.763356 2.427051 
L 1.089814 0.354102 
L 2.85317 -0.927051 
L 0.673542 -0.927051 
z
" id="m2e393151fb" style="stroke:#7f7f7f;stroke-linejoin:bevel;"/>
    </defs>
    <g clip-path="url(#p032608a5b5)">
     <use style="fill:#7f7f7f;stroke:#7f7f7f;stroke-linejoin:bevel;" x="81.336179" xlink:href="#m2e393151fb" y="34.901772"/>
     <use style="fill:#7f7f7f;stroke:#7f7f7f;stroke-linejoin:bevel;" x="85.607069" xlink:href="#m2e393151fb" y="214.466855"/>
     <use style="fill:#7f7f7f;stroke:#7f7f7f;stroke-linejoin:bevel;" x="89.877958" xlink:href="#m2e393151fb" y="264.588177"/>
     <use style="fill:#7f7f7f;stroke:#7f7f7f;stroke-linejoin:bevel;" x="94.148848" xlink:href="#m2e393151fb" y="219.261069"/>
     <use style="fill:#7f7f7f;stroke:#7f7f7f;stroke-linejoin:bevel;" x="98.419737" xlink:href="#m2e393151fb" y="195.290002"/>
     <use style="fill:#7f7f7f;stroke:#7f7f7f;stroke-linejoin:bevel;" x="102.690626" xlink:href="#m2e393151fb" y="167.396397"/>
     <use style="fill:#7f7f7f;stroke:#7f7f7f;stroke-linejoin:bevel;" x="106.961516" xlink:href="#m2e393151fb" y="142.989492"/>
     <use style="fill:#7f7f7f;stroke:#7f7f7f;stroke-linejoin:bevel;" x="111.232405" xlink:href="#m2e393151fb" y="136.451928"/>
     <use style="fill:#7f7f7f;stroke:#7f7f7f;stroke-linejoin:bevel;" x="115.503295" xlink:href="#m2e393151fb" y="123.376801"/>
     <use style="fill:#7f7f7f;stroke:#7f7f7f;stroke-linejoin:bevel;" x="119.774184" xlink:href="#m2e393151fb" y="109.429998"/>
     <use style="fill:#7f7f7f;stroke:#7f7f7f;stroke-linejoin:bevel;" x="141.128632" xlink:href="#m2e393151fb" y="82.408068"/>
     <use style="fill:#7f7f7f;stroke:#7f7f7f;stroke-linejoin:bevel;" x="162.483079" xlink:href="#m2e393151fb" y="64.10289"/>
     <use style="fill:#7f7f7f;stroke:#7f7f7f;stroke-linejoin:bevel;" x="183.837526" xlink:href="#m2e393151fb" y="58.437001"/>
     <use style="fill:#7f7f7f;stroke:#7f7f7f;stroke-linejoin:bevel;" x="205.191974" xlink:href="#m2e393151fb" y="44.926036"/>
     <use style="fill:#7f7f7f;stroke:#7f7f7f;stroke-linejoin:bevel;" x="226.546421" xlink:href="#m2e393151fb" y="48.848575"/>
     <use style="fill:#7f7f7f;stroke:#7f7f7f;stroke-linejoin:bevel;" x="247.900868" xlink:href="#m2e393151fb" y="49.72025"/>
     <use style="fill:#7f7f7f;stroke:#7f7f7f;stroke-linejoin:bevel;" x="269.255315" xlink:href="#m2e393151fb" y="49.284412"/>
     <use style="fill:#7f7f7f;stroke:#7f7f7f;stroke-linejoin:bevel;" x="290.609763" xlink:href="#m2e393151fb" y="41.439336"/>
    </g>
   </g>
   <g id="patch_3">
    <path d="M 70.8725 284.92 
L 70.8725 19.8 
" style="fill:none;stroke:#000000;stroke-linecap:square;stroke-linejoin:miter;stroke-width:0.8;"/>
   </g>
   <g id="patch_4">
    <path d="M 301.073442 284.92 
L 301.073442 19.8 
" style="fill:none;stroke:#000000;stroke-linecap:square;stroke-linejoin:miter;stroke-width:0.8;"/>
   </g>
   <g id="patch_5">
    <path d="M 70.8725 284.92 
L 301.073442 284.92 
" style="fill:none;stroke:#000000;stroke-linecap:square;stroke-linejoin:miter;stroke-width:0.8;"/>
   </g>
   <g id="patch_6">
    <path d="M 70.8725 19.8 
L 301.073442 19.8 
" style="fill:none;stroke:#000000;stroke-linecap:square;stroke-linejoin:miter;stroke-width:0.8;"/>
   </g>
   <g id="legend_1">
    <g id="line2d_18">
     <path d="M 314.573442 71.667031 
L 344.573442 71.667031 
" style="fill:none;stroke:#1f77b4;stroke-linecap:square;stroke-width:1.5;"/>
    </g>
    <g id="line2d_19">
     <g>
      <use style="fill:#1f77b4;stroke:#1f77b4;" x="329.573442" xlink:href="#mf73b85c275" y="71.667031"/>
     </g>
    </g>
    <g id="text_12">
     <!-- $D/\lambda=0.021$ -->
     <defs>
      <path d="M 4.890625 0 
Q 3.90625 0 3.90625 1.3125 
Q 3.953125 1.5625 4.09375 2.171875 
Q 4.25 2.78125 4.515625 3.140625 
Q 4.78125 3.515625 5.171875 3.515625 
Q 11.28125 3.515625 13.71875 4.203125 
Q 14.984375 4.640625 15.578125 6.890625 
L 29.296875 61.8125 
Q 29.5 62.796875 29.5 63.1875 
Q 29.5 64.265625 28.328125 64.40625 
Q 26.421875 64.796875 21.09375 64.796875 
Q 20.125 64.796875 20.125 66.109375 
Q 20.171875 66.359375 20.3125 66.96875 
Q 20.453125 67.578125 20.71875 67.9375 
Q 21 68.3125 21.390625 68.3125 
L 57.328125 68.3125 
Q 64.3125 68.3125 69.53125 64.921875 
Q 74.75 61.53125 77.53125 55.78125 
Q 80.328125 50.046875 80.328125 43.109375 
Q 80.328125 35.453125 77.140625 27.78125 
Q 73.96875 20.125 68.25 13.765625 
Q 62.546875 7.421875 55.21875 3.703125 
Q 47.90625 0 40.1875 0 
z
M 23.578125 4.296875 
Q 23.578125 3.515625 27 3.515625 
L 38.625 3.515625 
Q 44.1875 3.515625 49.359375 5.8125 
Q 54.546875 8.109375 58.59375 12.109375 
Q 62.359375 15.875 65.234375 21.96875 
Q 68.109375 28.078125 69.703125 34.71875 
Q 71.296875 41.359375 71.296875 46.921875 
Q 71.296875 50.984375 70.09375 54.25 
Q 68.890625 57.515625 66.71875 59.859375 
Q 64.546875 62.203125 61.28125 63.5 
Q 58.015625 64.796875 53.90625 64.796875 
L 42.921875 64.796875 
Q 40.1875 64.796875 39.296875 64.328125 
Q 38.421875 63.875 37.703125 61.375 
L 24.03125 6.5 
Q 23.578125 5.28125 23.578125 4.296875 
z
" id="Cmmi10-44"/>
      <path d="M 5.609375 -23 
Q 5.609375 -22.703125 5.71875 -22.609375 
L 40.484375 73.78125 
Q 40.671875 74.359375 41.15625 74.671875 
Q 41.65625 75 42.28125 75 
Q 43.171875 75 43.71875 74.453125 
Q 44.28125 73.921875 44.28125 73 
L 44.28125 72.609375 
L 9.515625 -23.78125 
Q 8.9375 -25 7.625 -25 
Q 6.78125 -25 6.1875 -24.40625 
Q 5.609375 -23.828125 5.609375 -23 
z
" id="Cmmi10-3d"/>
      <path d="M 5.078125 1.703125 
Q 5.078125 3.171875 6.390625 4.5 
L 34.515625 32.078125 
L 24.609375 59.90625 
Q 23.4375 63.09375 22.140625 64.9375 
Q 20.84375 66.796875 18.40625 66.796875 
Q 17.28125 66.796875 17.28125 68.109375 
Q 17.390625 68.703125 17.78125 69.046875 
Q 18.171875 69.390625 18.796875 69.390625 
Q 29.296875 69.390625 31.5 63.1875 
L 51.8125 6.5 
Q 53.125 2.25 54.5 0.78125 
Q 54.984375 0.046875 54.984375 -0.203125 
Q 54.984375 -1.125 54.203125 -1.125 
L 48.78125 -1.125 
Q 46.296875 -0.390625 44.828125 3.21875 
L 35.6875 28.8125 
L 11.53125 0.390625 
Q 9.71875 -1.3125 8.296875 -1.3125 
Q 7.03125 -1.3125 6.046875 -0.4375 
Q 5.078125 0.4375 5.078125 1.703125 
z
" id="Cmmi10-b8"/>
      <path d="M 7.515625 13.28125 
Q 6.6875 13.28125 6.140625 13.90625 
Q 5.609375 14.546875 5.609375 15.28125 
Q 5.609375 16.109375 6.140625 16.6875 
Q 6.6875 17.28125 7.515625 17.28125 
L 70.3125 17.28125 
Q 71.046875 17.28125 71.578125 16.6875 
Q 72.125 16.109375 72.125 15.28125 
Q 72.125 14.546875 71.578125 13.90625 
Q 71.046875 13.28125 70.3125 13.28125 
z
M 7.515625 32.71875 
Q 6.6875 32.71875 6.140625 33.296875 
Q 5.609375 33.890625 5.609375 34.71875 
Q 5.609375 35.453125 6.140625 36.078125 
Q 6.6875 36.71875 7.515625 36.71875 
L 70.3125 36.71875 
Q 71.046875 36.71875 71.578125 36.078125 
Q 72.125 35.453125 72.125 34.71875 
Q 72.125 33.890625 71.578125 33.296875 
Q 71.046875 32.71875 70.3125 32.71875 
z
" id="Cmr10-3d"/>
      <path d="M 25 -2.203125 
Q 12.75 -2.203125 8.328125 7.875 
Q 3.90625 17.96875 3.90625 31.890625 
Q 3.90625 40.578125 5.484375 48.234375 
Q 7.078125 55.90625 11.78125 61.25 
Q 16.5 66.609375 25 66.609375 
Q 31.59375 66.609375 35.78125 63.375 
Q 39.984375 60.15625 42.1875 55.046875 
Q 44.390625 49.953125 45.1875 44.109375 
Q 46 38.28125 46 31.890625 
Q 46 23.296875 44.40625 15.796875 
Q 42.828125 8.296875 38.1875 3.046875 
Q 33.546875 -2.203125 25 -2.203125 
z
M 25 0.390625 
Q 30.5625 0.390625 33.296875 6.09375 
Q 36.03125 11.8125 36.671875 18.75 
Q 37.3125 25.6875 37.3125 33.5 
Q 37.3125 41.015625 36.671875 47.359375 
Q 36.03125 53.71875 33.3125 58.859375 
Q 30.609375 64.015625 25 64.015625 
Q 19.34375 64.015625 16.609375 58.828125 
Q 13.875 53.65625 13.234375 47.328125 
Q 12.59375 41.015625 12.59375 33.5 
Q 12.59375 27.9375 12.859375 23 
Q 13.140625 18.0625 14.3125 12.8125 
Q 15.484375 7.5625 18.09375 3.96875 
Q 20.703125 0.390625 25 0.390625 
z
" id="Cmr10-30"/>
      <path d="M 8.40625 5.515625 
Q 8.40625 7.765625 10.0625 9.375 
Q 11.71875 10.984375 13.921875 10.984375 
Q 15.28125 10.984375 16.59375 10.25 
Q 17.921875 9.515625 18.65625 8.203125 
Q 19.390625 6.890625 19.390625 5.515625 
Q 19.390625 3.328125 17.765625 1.65625 
Q 16.15625 0 13.921875 0 
Q 11.71875 0 10.0625 1.65625 
Q 8.40625 3.328125 8.40625 5.515625 
z
" id="Cmmi10-3a"/>
      <path d="M 4.984375 0 
L 4.984375 2.6875 
Q 4.984375 2.9375 5.171875 3.21875 
L 20.703125 20.40625 
Q 24.21875 24.21875 26.40625 26.796875 
Q 28.609375 29.390625 30.75 32.765625 
Q 32.90625 36.140625 34.15625 39.625 
Q 35.40625 43.109375 35.40625 47.015625 
Q 35.40625 51.125 33.890625 54.859375 
Q 32.375 58.59375 29.375 60.84375 
Q 26.375 63.09375 22.125 63.09375 
Q 17.78125 63.09375 14.3125 60.46875 
Q 10.84375 57.859375 9.421875 53.71875 
Q 9.8125 53.8125 10.5 53.8125 
Q 12.75 53.8125 14.328125 52.296875 
Q 15.921875 50.78125 15.921875 48.390625 
Q 15.921875 46.09375 14.328125 44.5 
Q 12.75 42.921875 10.5 42.921875 
Q 8.15625 42.921875 6.5625 44.546875 
Q 4.984375 46.1875 4.984375 48.390625 
Q 4.984375 52.15625 6.390625 55.4375 
Q 7.8125 58.734375 10.46875 61.296875 
Q 13.140625 63.875 16.484375 65.234375 
Q 19.828125 66.609375 23.578125 66.609375 
Q 29.296875 66.609375 34.21875 64.1875 
Q 39.15625 61.765625 42.03125 57.34375 
Q 44.921875 52.9375 44.921875 47.015625 
Q 44.921875 42.671875 43.015625 38.765625 
Q 41.109375 34.859375 38.125 31.65625 
Q 35.15625 28.46875 30.515625 24.40625 
Q 25.875 20.359375 24.421875 19 
L 13.09375 8.109375 
L 22.703125 8.109375 
Q 29.78125 8.109375 34.546875 8.21875 
Q 39.3125 8.34375 39.59375 8.59375 
Q 40.765625 9.859375 42 17.828125 
L 44.921875 17.828125 
L 42.09375 0 
z
" id="Cmr10-32"/>
      <path d="M 9.28125 0 
L 9.28125 3.515625 
Q 21.78125 3.515625 21.78125 6.6875 
L 21.78125 59.1875 
Q 16.609375 56.6875 8.6875 56.6875 
L 8.6875 60.203125 
Q 20.953125 60.203125 27.203125 66.609375 
L 28.609375 66.609375 
Q 28.953125 66.609375 29.265625 66.328125 
Q 29.59375 66.0625 29.59375 65.71875 
L 29.59375 6.6875 
Q 29.59375 3.515625 42.09375 3.515625 
L 42.09375 0 
z
" id="Cmr10-31"/>
     </defs>
     <g transform="translate(356.573442 76.917031)scale(0.15 -0.15)">
      <use xlink:href="#Cmmi10-44"/>
      <use transform="translate(82.714844 0)" xlink:href="#Cmmi10-3d"/>
      <use transform="translate(132.714844 0)" xlink:href="#Cmmi10-b8"/>
      <use transform="translate(208.574219 0)" xlink:href="#Cmr10-3d"/>
      <use transform="translate(303.818359 0)" xlink:href="#Cmr10-30"/>
      <use transform="translate(353.818359 0)" xlink:href="#Cmmi10-3a"/>
      <use transform="translate(381.503906 0)" xlink:href="#Cmr10-30"/>
      <use transform="translate(431.503906 0)" xlink:href="#Cmr10-32"/>
      <use transform="translate(481.503906 0)" xlink:href="#Cmr10-31"/>
     </g>
    </g>
    <g id="line2d_20">
     <path d="M 314.573442 94.314687 
L 344.573442 94.314687 
" style="fill:none;stroke:#ff7f0e;stroke-linecap:square;stroke-width:1.5;"/>
    </g>
    <g id="line2d_21">
     <g>
      <use style="fill:#ff7f0e;stroke:#ff7f0e;stroke-linejoin:miter;" x="329.573442" xlink:href="#m15ecd2564c" y="94.314687"/>
     </g>
    </g>
    <g id="text_13">
     <!-- $D/\lambda=0.107$ -->
     <defs>
      <path d="M 17.390625 2.59375 
Q 17.390625 8.15625 18.359375 13.46875 
Q 19.34375 18.796875 21.21875 24 
Q 23.09375 29.203125 25.75 34.203125 
Q 28.421875 39.203125 31.59375 43.609375 
L 40.71875 56.296875 
L 29.296875 56.296875 
Q 11.53125 56.296875 10.984375 55.8125 
Q 9.671875 54.203125 8.5 46.578125 
L 5.609375 46.578125 
L 8.890625 67.578125 
L 11.8125 67.578125 
L 11.8125 67.28125 
Q 11.8125 65.484375 17.921875 64.9375 
Q 24.03125 64.40625 29.890625 64.40625 
L 48.484375 64.40625 
L 48.484375 61.8125 
Q 48.484375 61.71875 48.453125 61.671875 
Q 48.4375 61.625 48.390625 61.53125 
L 34.625 42.1875 
Q 29.546875 34.671875 28.265625 25.484375 
Q 27 16.3125 27 2.59375 
Q 27 0.640625 25.578125 -0.78125 
Q 24.171875 -2.203125 22.21875 -2.203125 
Q 20.21875 -2.203125 18.796875 -0.78125 
Q 17.390625 0.640625 17.390625 2.59375 
z
" id="Cmr10-37"/>
     </defs>
     <g transform="translate(356.573442 99.564687)scale(0.15 -0.15)">
      <use xlink:href="#Cmmi10-44"/>
      <use transform="translate(82.714844 0)" xlink:href="#Cmmi10-3d"/>
      <use transform="translate(132.714844 0)" xlink:href="#Cmmi10-b8"/>
      <use transform="translate(208.574219 0)" xlink:href="#Cmr10-3d"/>
      <use transform="translate(303.818359 0)" xlink:href="#Cmr10-30"/>
      <use transform="translate(353.818359 0)" xlink:href="#Cmmi10-3a"/>
      <use transform="translate(381.503906 0)" xlink:href="#Cmr10-31"/>
      <use transform="translate(431.503906 0)" xlink:href="#Cmr10-30"/>
      <use transform="translate(481.503906 0)" xlink:href="#Cmr10-37"/>
     </g>
    </g>
    <g id="line2d_22">
     <path d="M 314.573442 116.962344 
L 344.573442 116.962344 
" style="fill:none;stroke:#2ca02c;stroke-linecap:square;stroke-width:1.5;"/>
    </g>
    <g id="line2d_23">
     <g>
      <use style="fill:#2ca02c;stroke:#2ca02c;stroke-linejoin:miter;" x="329.573442" xlink:href="#ma197de4650" y="116.962344"/>
     </g>
    </g>
    <g id="text_14">
     <!-- $D/\lambda=0.278$ -->
     <defs>
      <path d="M 4.203125 15.1875 
Q 4.203125 21.1875 8.15625 25.796875 
Q 12.109375 30.421875 18.3125 33.5 
L 14.59375 35.890625 
Q 11.1875 38.140625 9.03125 41.875 
Q 6.890625 45.609375 6.890625 49.703125 
Q 6.890625 54.5 9.40625 58.34375 
Q 11.921875 62.203125 16.09375 64.40625 
Q 20.265625 66.609375 25 66.609375 
Q 29.4375 66.609375 33.5625 64.796875 
Q 37.703125 62.984375 40.359375 59.609375 
Q 43.015625 56.25 43.015625 51.609375 
Q 43.015625 48.25 41.421875 45.359375 
Q 39.84375 42.484375 37.078125 40.1875 
Q 34.328125 37.890625 31.203125 36.28125 
L 36.921875 32.625 
Q 40.875 30.03125 43.28125 25.828125 
Q 45.703125 21.625 45.703125 17 
Q 45.703125 11.578125 42.796875 7.125 
Q 39.890625 2.6875 35.109375 0.234375 
Q 30.328125 -2.203125 25 -2.203125 
Q 19.828125 -2.203125 15.015625 -0.09375 
Q 10.203125 2 7.203125 5.984375 
Q 4.203125 9.96875 4.203125 15.1875 
z
M 9.625 15.1875 
Q 9.625 11.234375 11.796875 7.953125 
Q 13.96875 4.6875 17.53125 2.828125 
Q 21.09375 0.984375 25 0.984375 
Q 30.8125 0.984375 35.546875 4.375 
Q 40.28125 7.765625 40.28125 13.375 
Q 40.28125 15.28125 39.515625 17.15625 
Q 38.765625 19.046875 37.421875 20.578125 
Q 36.078125 22.125 34.421875 23.09375 
L 21 31.78125 
Q 17.875 30.125 15.25 27.578125 
Q 12.640625 25.046875 11.125 21.875 
Q 9.625 18.703125 9.625 15.1875 
z
M 16.5 45.703125 
L 28.609375 37.890625 
Q 32.8125 40.328125 35.5 43.796875 
Q 38.1875 47.265625 38.1875 51.609375 
Q 38.1875 54.984375 36.296875 57.78125 
Q 34.421875 60.59375 31.390625 62.15625 
Q 28.375 63.71875 24.90625 63.71875 
Q 21.875 63.71875 18.796875 62.546875 
Q 15.71875 61.375 13.71875 59.046875 
Q 11.71875 56.734375 11.71875 53.609375 
Q 11.71875 48.921875 16.5 45.703125 
z
" id="Cmr10-38"/>
     </defs>
     <g transform="translate(356.573442 122.212344)scale(0.15 -0.15)">
      <use xlink:href="#Cmmi10-44"/>
      <use transform="translate(82.714844 0)" xlink:href="#Cmmi10-3d"/>
      <use transform="translate(132.714844 0)" xlink:href="#Cmmi10-b8"/>
      <use transform="translate(208.574219 0)" xlink:href="#Cmr10-3d"/>
      <use transform="translate(303.818359 0)" xlink:href="#Cmr10-30"/>
      <use transform="translate(353.818359 0)" xlink:href="#Cmmi10-3a"/>
      <use transform="translate(381.503906 0)" xlink:href="#Cmr10-32"/>
      <use transform="translate(431.503906 0)" xlink:href="#Cmr10-37"/>
      <use transform="translate(481.503906 0)" xlink:href="#Cmr10-38"/>
     </g>
    </g>
    <g id="line2d_24">
     <path d="M 314.573442 139.61 
L 344.573442 139.61 
" style="fill:none;stroke:#d62728;stroke-linecap:square;stroke-width:1.5;"/>
    </g>
    <g id="line2d_25">
     <g>
      <use style="fill:#d62728;stroke:#d62728;stroke-linejoin:miter;" x="329.573442" xlink:href="#m4d9dc83b69" y="139.61"/>
     </g>
    </g>
    <g id="text_15">
     <!-- $D/\lambda=0.427$ -->
     <defs>
      <path d="M 2.78125 16.5 
L 2.78125 20.015625 
L 33.6875 66.109375 
Q 34.03125 66.609375 34.71875 66.609375 
L 36.1875 66.609375 
Q 37.3125 66.609375 37.3125 65.484375 
L 37.3125 20.015625 
L 47.125 20.015625 
L 47.125 16.5 
L 37.3125 16.5 
L 37.3125 6.6875 
Q 37.3125 4.640625 40.234375 4.078125 
Q 43.171875 3.515625 47.015625 3.515625 
L 47.015625 0 
L 19.484375 0 
L 19.484375 3.515625 
Q 23.34375 3.515625 26.265625 4.078125 
Q 29.203125 4.640625 29.203125 6.6875 
L 29.203125 16.5 
z
M 6.109375 20.015625 
L 29.78125 20.015625 
L 29.78125 55.421875 
z
" id="Cmr10-34"/>
     </defs>
     <g transform="translate(356.573442 144.86)scale(0.15 -0.15)">
      <use xlink:href="#Cmmi10-44"/>
      <use transform="translate(82.714844 0)" xlink:href="#Cmmi10-3d"/>
      <use transform="translate(132.714844 0)" xlink:href="#Cmmi10-b8"/>
      <use transform="translate(208.574219 0)" xlink:href="#Cmr10-3d"/>
      <use transform="translate(303.818359 0)" xlink:href="#Cmr10-30"/>
      <use transform="translate(353.818359 0)" xlink:href="#Cmmi10-3a"/>
      <use transform="translate(381.503906 0)" xlink:href="#Cmr10-34"/>
      <use transform="translate(431.503906 0)" xlink:href="#Cmr10-32"/>
      <use transform="translate(481.503906 0)" xlink:href="#Cmr10-37"/>
     </g>
    </g>
    <g id="line2d_26">
     <path d="M 314.573442 162.257656 
L 344.573442 162.257656 
" style="fill:none;stroke:#9467bd;stroke-linecap:square;stroke-width:1.5;"/>
    </g>
    <g id="line2d_27">
     <g>
      <use style="fill:#9467bd;stroke:#9467bd;stroke-linejoin:miter;" x="329.573442" xlink:href="#m929fcbc5fa" y="162.257656"/>
     </g>
    </g>
    <g id="text_16">
     <!-- $D/\lambda=0.854$ -->
     <defs>
      <path d="M 8.6875 11.375 
Q 9.71875 8.453125 11.84375 6.046875 
Q 13.96875 3.65625 16.875 2.3125 
Q 19.78125 0.984375 22.90625 0.984375 
Q 30.125 0.984375 32.859375 6.59375 
Q 35.59375 12.203125 35.59375 20.21875 
Q 35.59375 23.6875 35.46875 26.046875 
Q 35.359375 28.421875 34.8125 30.609375 
Q 33.890625 34.125 31.5625 36.765625 
Q 29.25 39.40625 25.875 39.40625 
Q 22.515625 39.40625 20.09375 38.375 
Q 17.671875 37.359375 16.15625 35.984375 
Q 14.65625 34.625 13.484375 33.109375 
Q 12.3125 31.59375 12.015625 31.5 
L 10.890625 31.5 
Q 10.640625 31.5 10.265625 31.8125 
Q 9.90625 32.125 9.90625 32.421875 
L 9.90625 65.828125 
Q 9.90625 66.0625 10.21875 66.328125 
Q 10.546875 66.609375 10.890625 66.609375 
L 11.1875 66.609375 
Q 17.921875 63.375 25.484375 63.375 
Q 32.90625 63.375 39.796875 66.609375 
L 40.09375 66.609375 
Q 40.4375 66.609375 40.71875 66.359375 
Q 41.015625 66.109375 41.015625 65.828125 
L 41.015625 64.890625 
Q 41.015625 64.40625 40.828125 64.40625 
Q 37.40625 59.859375 32.25 57.3125 
Q 27.09375 54.78125 21.578125 54.78125 
Q 17.578125 54.78125 13.375 55.90625 
L 13.375 37.015625 
Q 16.703125 39.703125 19.3125 40.84375 
Q 21.921875 42 25.984375 42 
Q 31.5 42 35.859375 38.8125 
Q 40.234375 35.640625 42.578125 30.53125 
Q 44.921875 25.4375 44.921875 20.125 
Q 44.921875 14.109375 41.96875 8.984375 
Q 39.015625 3.859375 33.9375 0.828125 
Q 28.859375 -2.203125 22.90625 -2.203125 
Q 17.96875 -2.203125 13.84375 0.328125 
Q 9.71875 2.875 7.34375 7.171875 
Q 4.984375 11.46875 4.984375 16.3125 
Q 4.984375 18.5625 6.4375 19.96875 
Q 7.90625 21.390625 10.109375 21.390625 
Q 12.3125 21.390625 13.796875 19.9375 
Q 15.28125 18.5 15.28125 16.3125 
Q 15.28125 14.15625 13.796875 12.671875 
Q 12.3125 11.1875 10.109375 11.1875 
Q 9.765625 11.1875 9.328125 11.25 
Q 8.890625 11.328125 8.6875 11.375 
z
" id="Cmr10-35"/>
     </defs>
     <g transform="translate(356.573442 167.507656)scale(0.15 -0.15)">
      <use xlink:href="#Cmmi10-44"/>
      <use transform="translate(82.714844 0)" xlink:href="#Cmmi10-3d"/>
      <use transform="translate(132.714844 0)" xlink:href="#Cmmi10-b8"/>
      <use transform="translate(208.574219 0)" xlink:href="#Cmr10-3d"/>
      <use transform="translate(303.818359 0)" xlink:href="#Cmr10-30"/>
      <use transform="translate(353.818359 0)" xlink:href="#Cmmi10-3a"/>
      <use transform="translate(381.503906 0)" xlink:href="#Cmr10-38"/>
      <use transform="translate(431.503906 0)" xlink:href="#Cmr10-35"/>
      <use transform="translate(481.503906 0)" xlink:href="#Cmr10-34"/>
     </g>
    </g>
    <g id="line2d_28">
     <path d="M 314.573442 184.905312 
L 344.573442 184.905312 
" style="fill:none;stroke:#8c564b;stroke-linecap:square;stroke-width:1.5;"/>
    </g>
    <g id="line2d_29">
     <g>
      <use style="fill:#8c564b;stroke:#8c564b;stroke-linejoin:miter;" x="329.573442" xlink:href="#m7f56eab78c" y="184.905312"/>
     </g>
    </g>
    <g id="text_17">
     <!-- $D/\lambda=1.28$ -->
     <g transform="translate(356.573442 190.155312)scale(0.15 -0.15)">
      <use xlink:href="#Cmmi10-44"/>
      <use transform="translate(82.714844 0)" xlink:href="#Cmmi10-3d"/>
      <use transform="translate(132.714844 0)" xlink:href="#Cmmi10-b8"/>
      <use transform="translate(208.574219 0)" xlink:href="#Cmr10-3d"/>
      <use transform="translate(303.818359 0)" xlink:href="#Cmr10-31"/>
      <use transform="translate(353.818359 0)" xlink:href="#Cmmi10-3a"/>
      <use transform="translate(381.503906 0)" xlink:href="#Cmr10-32"/>
      <use transform="translate(431.503906 0)" xlink:href="#Cmr10-38"/>
     </g>
    </g>
    <g id="line2d_30">
     <path d="M 314.573442 207.552969 
L 344.573442 207.552969 
" style="fill:none;stroke:#e377c2;stroke-linecap:square;stroke-width:1.5;"/>
    </g>
    <g id="line2d_31">
     <g>
      <use style="fill:#e377c2;stroke:#e377c2;stroke-linejoin:miter;" x="329.573442" xlink:href="#m9b1051cd65" y="207.552969"/>
     </g>
    </g>
    <g id="text_18">
     <!-- $D/\lambda=5.34$ -->
     <defs>
      <path d="M 9.515625 7.71875 
Q 11.859375 4.296875 15.8125 2.640625 
Q 19.78125 0.984375 24.3125 0.984375 
Q 30.125 0.984375 32.5625 5.9375 
Q 35.015625 10.890625 35.015625 17.1875 
Q 35.015625 20.015625 34.5 22.84375 
Q 33.984375 25.6875 32.765625 28.125 
Q 31.546875 30.5625 29.421875 32.03125 
Q 27.296875 33.5 24.21875 33.5 
L 17.578125 33.5 
Q 16.703125 33.5 16.703125 34.421875 
L 16.703125 35.296875 
Q 16.703125 36.078125 17.578125 36.078125 
L 23.09375 36.53125 
Q 26.609375 36.53125 28.921875 39.15625 
Q 31.25 41.796875 32.328125 45.578125 
Q 33.40625 49.359375 33.40625 52.78125 
Q 33.40625 57.5625 31.15625 60.640625 
Q 28.90625 63.71875 24.3125 63.71875 
Q 20.515625 63.71875 17.046875 62.28125 
Q 13.578125 60.84375 11.53125 57.90625 
Q 11.71875 57.953125 11.859375 57.984375 
Q 12.015625 58.015625 12.203125 58.015625 
Q 14.453125 58.015625 15.96875 56.453125 
Q 17.484375 54.890625 17.484375 52.6875 
Q 17.484375 50.53125 15.96875 48.96875 
Q 14.453125 47.40625 12.203125 47.40625 
Q 10.015625 47.40625 8.453125 48.96875 
Q 6.890625 50.53125 6.890625 52.6875 
Q 6.890625 56.984375 9.46875 60.15625 
Q 12.0625 63.328125 16.140625 64.96875 
Q 20.21875 66.609375 24.3125 66.609375 
Q 27.34375 66.609375 30.703125 65.703125 
Q 34.078125 64.796875 36.8125 63.109375 
Q 39.546875 61.421875 41.28125 58.78125 
Q 43.015625 56.15625 43.015625 52.78125 
Q 43.015625 48.578125 41.140625 45.015625 
Q 39.265625 41.453125 35.984375 38.859375 
Q 32.71875 36.28125 28.8125 35.015625 
Q 33.15625 34.1875 37.0625 31.734375 
Q 40.96875 29.296875 43.328125 25.484375 
Q 45.703125 21.6875 45.703125 17.28125 
Q 45.703125 11.765625 42.671875 7.296875 
Q 39.65625 2.828125 34.71875 0.3125 
Q 29.78125 -2.203125 24.3125 -2.203125 
Q 19.625 -2.203125 14.90625 -0.40625 
Q 10.203125 1.375 7.203125 4.9375 
Q 4.203125 8.5 4.203125 13.484375 
Q 4.203125 15.96875 5.859375 17.625 
Q 7.515625 19.28125 10.015625 19.28125 
Q 11.625 19.28125 12.96875 18.53125 
Q 14.3125 17.78125 15.0625 16.40625 
Q 15.828125 15.046875 15.828125 13.484375 
Q 15.828125 11.03125 14.109375 9.375 
Q 12.40625 7.71875 10.015625 7.71875 
z
" id="Cmr10-33"/>
     </defs>
     <g transform="translate(356.573442 212.802969)scale(0.15 -0.15)">
      <use xlink:href="#Cmmi10-44"/>
      <use transform="translate(82.714844 0)" xlink:href="#Cmmi10-3d"/>
      <use transform="translate(132.714844 0)" xlink:href="#Cmmi10-b8"/>
      <use transform="translate(208.574219 0)" xlink:href="#Cmr10-3d"/>
      <use transform="translate(303.818359 0)" xlink:href="#Cmr10-35"/>
      <use transform="translate(353.818359 0)" xlink:href="#Cmmi10-3a"/>
      <use transform="translate(381.503906 0)" xlink:href="#Cmr10-33"/>
      <use transform="translate(431.503906 0)" xlink:href="#Cmr10-34"/>
     </g>
    </g>
    <g id="line2d_32">
     <path d="M 314.573442 230.200625 
L 344.573442 230.200625 
" style="fill:none;stroke:#7f7f7f;stroke-linecap:square;stroke-width:1.5;"/>
    </g>
    <g id="line2d_33">
     <g>
      <use style="fill:#7f7f7f;stroke:#7f7f7f;stroke-linejoin:bevel;" x="329.573442" xlink:href="#m2e393151fb" y="230.200625"/>
     </g>
    </g>
    <g id="text_19">
     <!-- $D/\lambda=107$ -->
     <g transform="translate(356.573442 235.450625)scale(0.15 -0.15)">
      <use xlink:href="#Cmmi10-44"/>
      <use transform="translate(82.714844 0)" xlink:href="#Cmmi10-3d"/>
      <use transform="translate(132.714844 0)" xlink:href="#Cmmi10-b8"/>
      <use transform="translate(208.574219 0)" xlink:href="#Cmr10-3d"/>
      <use transform="translate(303.818359 0)" xlink:href="#Cmr10-31"/>
      <use transform="translate(353.818359 0)" xlink:href="#Cmr10-30"/>
      <use transform="translate(403.818359 0)" xlink:href="#Cmr10-37"/>
     </g>
    </g>
   </g>
  </g>
 </g>
 <defs>
  <clipPath id="p032608a5b5">
   <rect height="265.12" width="230.200942" x="70.8725" y="19.8"/>
  </clipPath>
 </defs>
</svg>
