<svg xmlns="http://www.w3.org/2000/svg" xmlns:xlink="http://www.w3.org/1999/xlink" version="1.1" viewBox="0 0 432 288" viewport="0 0 1280px 853px">
 <defs>
  <style type="text/css">
*{stroke-linecap:butt;stroke-linejoin:round;}
  </style>
 </defs>
 <g id="figure_1">
  <g id="patch_1">
   <path d="M 0 288  L 432 288  L 432 0  L 0 0  z " style="fill:#ffffff;"/>
  </g>
  <g id="axes_1">
   <g id="patch_2">
    <path d="M 38.56225 236.68  L 415.26 236.68  L 415.26 15.48  L 38.56225 15.48  z " style="fill:#ffffff;"/>
   </g>
   <g id="matplotlib.axis_1">
    <g id="xtick_1">
     <g id="line2d_1">
      <defs>
       <path d="M 0 0  L 0 3.5  " id="mdea6edc801" style="stroke:#757575;stroke-width:0.8;"/>
      </defs>
      <g>
       <use style="fill:#757575;stroke:#757575;stroke-width:0.8;" x="38.56225" xlink:href="#mdea6edc801" y="236.68"/>
      </g>
     </g>
     <g id="text_1">
      <!-- &#8722;6 -->
      <defs>
       <path d="M 10.59375 35.5  L 73.1875 35.5  L 73.1875 27.203125  L 10.59375 27.203125  z " id="DejaVuSans-2212"/>
       <path d="M 33.015625 40.375  Q 26.375 40.375 22.484375 35.828125  Q 18.609375 31.296875 18.609375 23.390625  Q 18.609375 15.53125 22.484375 10.953125  Q 26.375 6.390625 33.015625 6.390625  Q 39.65625 6.390625 43.53125 10.953125  Q 47.40625 15.53125 47.40625 23.390625  Q 47.40625 31.296875 43.53125 35.828125  Q 39.65625 40.375 33.015625 40.375  z M 52.59375 71.296875  L 52.59375 62.3125  Q 48.875 64.0625 45.09375 64.984375  Q 41.3125 65.921875 37.59375 65.921875  Q 27.828125 65.921875 22.671875 59.328125  Q 17.53125 52.734375 16.796875 39.40625  Q 19.671875 43.65625 24.015625 45.921875  Q 28.375 48.1875 33.59375 48.1875  Q 44.578125 48.1875 50.953125 41.515625  Q 57.328125 34.859375 57.328125 23.390625  Q 57.328125 12.15625 50.6875 5.359375  Q 44.046875 -1.421875 33.015625 -1.421875  Q 20.359375 -1.421875 13.671875 8.265625  Q 6.984375 17.96875 6.984375 36.375  Q 6.984375 53.65625 15.1875 63.9375  Q 23.390625 74.21875 37.203125 74.21875  Q 40.921875 74.21875 44.703125 73.484375  Q 48.484375 72.75 52.59375 71.296875  z " id="DejaVuSans-36"/>
      </defs>
      <g style="fill:#757575;" transform="translate(29.716938 252.798125)scale(0.12 -0.12)">
       <use xlink:href="#DejaVuSans-2212"/>
       <use x="83.789062" xlink:href="#DejaVuSans-36"/>
      </g>
     </g>
    </g>
    <g id="xtick_2">
     <g id="line2d_2">
      <g>
       <use style="fill:#757575;stroke:#757575;stroke-width:0.8;" x="101.345208" xlink:href="#mdea6edc801" y="236.68"/>
      </g>
     </g>
     <g id="text_2">
      <!-- &#8722;4 -->
      <defs>
       <path d="M 37.796875 64.3125  L 12.890625 25.390625  L 37.796875 25.390625  z M 35.203125 72.90625  L 47.609375 72.90625  L 47.609375 25.390625  L 58.015625 25.390625  L 58.015625 17.1875  L 47.609375 17.1875  L 47.609375 0  L 37.796875 0  L 37.796875 17.1875  L 4.890625 17.1875  L 4.890625 26.703125  z " id="DejaVuSans-34"/>
      </defs>
      <g style="fill:#757575;" transform="translate(92.499896 252.798125)scale(0.12 -0.12)">
       <use xlink:href="#DejaVuSans-2212"/>
       <use x="83.789062" xlink:href="#DejaVuSans-34"/>
      </g>
     </g>
    </g>
    <g id="xtick_3">
     <g id="line2d_3">
      <g>
       <use style="fill:#757575;stroke:#757575;stroke-width:0.8;" x="164.128167" xlink:href="#mdea6edc801" y="236.68"/>
      </g>
     </g>
     <g id="text_3">
      <!-- &#8722;2 -->
      <defs>
       <path d="M 19.1875 8.296875  L 53.609375 8.296875  L 53.609375 0  L 7.328125 0  L 7.328125 8.296875  Q 12.9375 14.109375 22.625 23.890625  Q 32.328125 33.6875 34.8125 36.53125  Q 39.546875 41.84375 41.421875 45.53125  Q 43.3125 49.21875 43.3125 52.78125  Q 43.3125 58.59375 39.234375 62.25  Q 35.15625 65.921875 28.609375 65.921875  Q 23.96875 65.921875 18.8125 64.3125  Q 13.671875 62.703125 7.8125 59.421875  L 7.8125 69.390625  Q 13.765625 71.78125 18.9375 73  Q 24.125 74.21875 28.421875 74.21875  Q 39.75 74.21875 46.484375 68.546875  Q 53.21875 62.890625 53.21875 53.421875  Q 53.21875 48.921875 51.53125 44.890625  Q 49.859375 40.875 45.40625 35.40625  Q 44.1875 33.984375 37.640625 27.21875  Q 31.109375 20.453125 19.1875 8.296875  z " id="DejaVuSans-32"/>
      </defs>
      <g style="fill:#757575;" transform="translate(155.282854 252.798125)scale(0.12 -0.12)">
       <use xlink:href="#DejaVuSans-2212"/>
       <use x="83.789062" xlink:href="#DejaVuSans-32"/>
      </g>
     </g>
    </g>
    <g id="xtick_4">
     <g id="line2d_4">
      <g>
       <use style="fill:#757575;stroke:#757575;stroke-width:0.8;" x="226.911125" xlink:href="#mdea6edc801" y="236.68"/>
      </g>
     </g>
     <g id="text_4">
      <!-- 0 -->
      <defs>
       <path d="M 31.78125 66.40625  Q 24.171875 66.40625 20.328125 58.90625  Q 16.5 51.421875 16.5 36.375  Q 16.5 21.390625 20.328125 13.890625  Q 24.171875 6.390625 31.78125 6.390625  Q 39.453125 6.390625 43.28125 13.890625  Q 47.125 21.390625 47.125 36.375  Q 47.125 51.421875 43.28125 58.90625  Q 39.453125 66.40625 31.78125 66.40625  z M 31.78125 74.21875  Q 44.046875 74.21875 50.515625 64.515625  Q 56.984375 54.828125 56.984375 36.375  Q 56.984375 17.96875 50.515625 8.265625  Q 44.046875 -1.421875 31.78125 -1.421875  Q 19.53125 -1.421875 13.0625 8.265625  Q 6.59375 17.96875 6.59375 36.375  Q 6.59375 54.828125 13.0625 64.515625  Q 19.53125 74.21875 31.78125 74.21875  z " id="DejaVuSans-30"/>
      </defs>
      <g style="fill:#757575;" transform="translate(223.093625 252.798125)scale(0.12 -0.12)">
       <use xlink:href="#DejaVuSans-30"/>
      </g>
     </g>
    </g>
    <g id="xtick_5">
     <g id="line2d_5">
      <g>
       <use style="fill:#757575;stroke:#757575;stroke-width:0.8;" x="289.694083" xlink:href="#mdea6edc801" y="236.68"/>
      </g>
     </g>
     <g id="text_5">
      <!-- 2 -->
      <g style="fill:#757575;" transform="translate(285.876583 252.798125)scale(0.12 -0.12)">
       <use xlink:href="#DejaVuSans-32"/>
      </g>
     </g>
    </g>
    <g id="xtick_6">
     <g id="line2d_6">
      <g>
       <use style="fill:#757575;stroke:#757575;stroke-width:0.8;" x="352.477042" xlink:href="#mdea6edc801" y="236.68"/>
      </g>
     </g>
     <g id="text_6">
      <!-- 4 -->
      <g style="fill:#757575;" transform="translate(348.659542 252.798125)scale(0.12 -0.12)">
       <use xlink:href="#DejaVuSans-34"/>
      </g>
     </g>
    </g>
    <g id="xtick_7">
     <g id="line2d_7">
      <g>
       <use style="fill:#757575;stroke:#757575;stroke-width:0.8;" x="415.26" xlink:href="#mdea6edc801" y="236.68"/>
      </g>
     </g>
     <g id="text_7">
      <!-- 6 -->
      <g style="fill:#757575;" transform="translate(411.4425 252.798125)scale(0.12 -0.12)">
       <use xlink:href="#DejaVuSans-36"/>
      </g>
     </g>
    </g>
    <g id="text_8">
     <!-- $x$ -->
     <defs>
      <path d="M 7.8125 2.875  Q 9.578125 1.515625 12.796875 1.515625  Q 15.921875 1.515625 18.3125 4.515625  Q 20.703125 7.515625 21.578125 11.078125  L 26.125 28.8125  Q 27.203125 33.640625 27.203125 35.40625  Q 27.203125 37.890625 25.8125 39.75  Q 24.421875 41.609375 21.921875 41.609375  Q 18.75 41.609375 15.96875 39.625  Q 13.1875 37.640625 11.28125 34.59375  Q 9.375 31.546875 8.59375 28.421875  Q 8.40625 27.78125 7.8125 27.78125  L 6.59375 27.78125  Q 5.8125 27.78125 5.8125 28.71875  L 5.8125 29  Q 6.78125 32.71875 9.125 36.25  Q 11.46875 39.796875 14.859375 41.984375  Q 18.265625 44.1875 22.125 44.1875  Q 25.78125 44.1875 28.734375 42.234375  Q 31.6875 40.28125 32.90625 36.921875  Q 34.625 39.984375 37.28125 42.078125  Q 39.9375 44.1875 43.109375 44.1875  Q 45.265625 44.1875 47.5 43.421875  Q 49.75 42.671875 51.171875 41.109375  Q 52.59375 39.546875 52.59375 37.203125  Q 52.59375 34.671875 50.953125 32.828125  Q 49.3125 31 46.78125 31  Q 45.171875 31 44.09375 32.03125  Q 43.015625 33.0625 43.015625 34.625  Q 43.015625 36.71875 44.453125 38.296875  Q 45.90625 39.890625 47.90625 40.1875  Q 46.09375 41.609375 42.921875 41.609375  Q 39.703125 41.609375 37.328125 38.625  Q 34.96875 35.640625 33.984375 31.984375  L 29.59375 14.3125  Q 28.515625 10.296875 28.515625 7.71875  Q 28.515625 5.171875 29.953125 3.34375  Q 31.390625 1.515625 33.796875 1.515625  Q 38.484375 1.515625 42.15625 5.640625  Q 45.84375 9.765625 47.015625 14.703125  Q 47.21875 15.28125 47.796875 15.28125  L 49.03125 15.28125  Q 49.421875 15.28125 49.65625 15.015625  Q 49.90625 14.75 49.90625 14.40625  Q 49.90625 14.3125 49.8125 14.109375  Q 48.390625 8.15625 43.84375 3.515625  Q 39.3125 -1.125 33.59375 -1.125  Q 29.9375 -1.125 26.984375 0.84375  Q 24.03125 2.828125 22.796875 6.203125  Q 21.234375 3.265625 18.46875 1.0625  Q 15.71875 -1.125 12.59375 -1.125  Q 10.453125 -1.125 8.171875 -0.359375  Q 5.90625 0.390625 4.484375 1.953125  Q 3.078125 3.515625 3.078125 5.90625  Q 3.078125 8.25 4.703125 10.171875  Q 6.34375 12.109375 8.796875 12.109375  Q 10.453125 12.109375 11.578125 11.109375  Q 12.703125 10.109375 12.703125 8.5  Q 12.703125 6.390625 11.296875 4.828125  Q 9.90625 3.265625 7.8125 2.875  z " id="Cmmi10-78"/>
     </defs>
     <g style="fill:#757575;" transform="translate(222.271125 271.45125)scale(0.16 -0.16)">
      <use transform="translate(0 0.8125)" xlink:href="#Cmmi10-78"/>
     </g>
    </g>
   </g>
   <g id="matplotlib.axis_2">
    <g id="text_9">
     <!-- $|\psi_n(x)|^2$ -->
     <defs>
      <path d="M 11.921875 -23.1875  L 11.921875 73.1875  Q 11.921875 73.96875 12.5 74.484375  Q 13.09375 75 13.921875 75  Q 14.65625 75 15.28125 74.484375  Q 15.921875 73.96875 15.921875 73.1875  L 15.921875 -23.1875  Q 15.921875 -23.96875 15.28125 -24.484375  Q 14.65625 -25 13.921875 -25  Q 13.09375 -25 12.5 -24.484375  Q 11.921875 -23.96875 11.921875 -23.1875  z " id="Cmsy10-6a"/>
      <path d="M 23.78125 -19.484375  L 28.515625 -0.875  Q 24.171875 -0.875 20.09375 0.75  Q 16.015625 2.390625 13.5 5.5625  Q 10.984375 8.734375 10.984375 13.28125  Q 10.984375 15.875 11.90625 19.1875  Q 12.84375 22.515625 13.890625 25.296875  Q 14.9375 28.078125 16.703125 32.625  Q 18.015625 36.28125 18.015625 38.625  Q 18.015625 41.609375 15.828125 41.609375  Q 11.859375 41.609375 9.296875 37.53125  Q 6.734375 33.453125 5.515625 28.421875  Q 5.328125 27.78125 4.6875 27.78125  L 3.515625 27.78125  Q 2.6875 27.78125 2.6875 28.71875  L 2.6875 29  Q 4.296875 34.96875 7.609375 39.578125  Q 10.9375 44.1875 16.015625 44.1875  Q 19.578125 44.1875 22.046875 41.84375  Q 24.515625 39.5 24.515625 35.890625  Q 24.515625 34.03125 23.6875 31.984375  Q 21.921875 27.4375 20.890625 24.75  Q 19.875 22.078125 18.9375 18.671875  Q 18.015625 15.28125 18.015625 12.59375  Q 18.015625 7.71875 21.0625 5.03125  Q 24.125 2.34375 29.109375 1.703125  L 45.90625 68.796875  Q 46.09375 69.390625 46.6875 69.390625  L 47.90625 69.390625  Q 48.6875 69.390625 48.6875 68.40625  L 31.984375 1.515625  L 33.109375 1.515625  Q 37.3125 1.515625 41.96875 4  Q 46.625 6.5 50.453125 10.546875  Q 54.296875 14.59375 56.546875 19.25  Q 58.796875 23.921875 58.796875 27.984375  Q 58.796875 31 57.8125 32.6875  Q 56.84375 34.375 55.28125 36.203125  Q 53.71875 38.03125 53.71875 39.109375  Q 53.71875 41.0625 55.328125 42.671875  Q 56.9375 44.28125 58.890625 44.28125  Q 61.28125 44.28125 62.328125 42.078125  Q 63.375 39.890625 63.375 37.109375  Q 63.375 34.1875 62.78125 31.25  Q 62.203125 28.328125 61.1875 24.3125  Q 58.890625 15.1875 51.609375 7.90625  Q 49.125 5.421875 46.109375 3.34375  Q 43.109375 1.265625 39.765625 0.0625  Q 36.421875 -1.125 33.015625 -1.125  L 31.390625 -1.125  L 26.703125 -19.921875  Q 26.515625 -20.515625 25.875 -20.515625  L 24.703125 -20.515625  Q 24.3125 -20.515625 24.046875 -20.1875  Q 23.78125 -19.875 23.78125 -19.484375  z " id="Cmmi10-c3"/>
      <path d="M 7.71875 1.703125  Q 7.71875 2.296875 7.8125 2.59375  L 15.28125 32.421875  Q 16.015625 35.203125 16.015625 37.3125  Q 16.015625 41.609375 13.09375 41.609375  Q 9.96875 41.609375 8.453125 37.859375  Q 6.9375 34.125 5.515625 28.421875  Q 5.515625 28.125 5.21875 27.953125  Q 4.9375 27.78125 4.6875 27.78125  L 3.515625 27.78125  Q 3.171875 27.78125 2.921875 28.140625  Q 2.6875 28.515625 2.6875 28.8125  Q 3.765625 33.15625 4.765625 36.171875  Q 5.765625 39.203125 7.890625 41.6875  Q 10.015625 44.1875 13.1875 44.1875  Q 16.9375 44.1875 19.8125 41.8125  Q 22.703125 39.453125 22.703125 35.796875  Q 25.6875 39.703125 29.6875 41.9375  Q 33.6875 44.1875 38.1875 44.1875  Q 41.75 44.1875 44.328125 42.96875  Q 46.921875 41.75 48.359375 39.28125  Q 49.8125 36.8125 49.8125 33.40625  Q 49.8125 29.296875 47.96875 23.484375  Q 46.140625 17.671875 43.40625 10.5  Q 42 7.234375 42 4.5  Q 42 1.515625 44.28125 1.515625  Q 48.1875 1.515625 50.796875 5.703125  Q 53.421875 9.90625 54.5 14.703125  Q 54.6875 15.28125 55.328125 15.28125  L 56.5 15.28125  Q 56.890625 15.28125 57.15625 15.03125  Q 57.421875 14.796875 57.421875 14.40625  Q 57.421875 14.3125 57.328125 14.109375  Q 55.953125 8.453125 52.5625 3.65625  Q 49.171875 -1.125 44.09375 -1.125  Q 40.578125 -1.125 38.078125 1.296875  Q 35.59375 3.71875 35.59375 7.171875  Q 35.59375 9.03125 36.375 11.078125  Q 37.640625 14.359375 39.28125 18.890625  Q 40.921875 23.4375 41.96875 27.578125  Q 43.015625 31.734375 43.015625 34.90625  Q 43.015625 37.703125 41.859375 39.65625  Q 40.71875 41.609375 37.984375 41.609375  Q 34.328125 41.609375 31.25 39.984375  Q 28.171875 38.375 25.875 35.71875  Q 23.578125 33.0625 21.6875 29.390625  L 14.890625 2.203125  Q 14.546875 0.828125 13.34375 -0.140625  Q 12.15625 -1.125 10.6875 -1.125  Q 9.46875 -1.125 8.59375 -0.34375  Q 7.71875 0.4375 7.71875 1.703125  z " id="Cmmi10-6e"/>
      <path d="M 31 -24.8125  Q 25.4375 -20.40625 21.40625 -14.71875  Q 17.390625 -9.03125 14.8125 -2.578125  Q 12.25 3.859375 10.984375 10.890625  Q 9.71875 17.921875 9.71875 25  Q 9.71875 32.171875 10.984375 39.203125  Q 12.25 46.234375 14.859375 52.734375  Q 17.484375 59.234375 21.53125 64.890625  Q 25.59375 70.5625 31 74.8125  Q 31 75 31.5 75  L 32.421875 75  Q 32.71875 75 32.953125 74.734375  Q 33.203125 74.46875 33.203125 74.125  Q 33.203125 73.6875 33.015625 73.484375  Q 28.125 68.703125 24.875 63.234375  Q 21.625 57.765625 19.640625 51.578125  Q 17.671875 45.40625 16.796875 38.78125  Q 15.921875 32.171875 15.921875 25  Q 15.921875 -6.78125 32.90625 -23.296875  Q 33.203125 -23.578125 33.203125 -24.125  Q 33.203125 -24.359375 32.9375 -24.671875  Q 32.671875 -25 32.421875 -25  L 31.5 -25  Q 31 -25 31 -24.8125  z " id="Cmr10-28"/>
      <path d="M 6.5 -25  Q 5.609375 -25 5.609375 -24.125  Q 5.609375 -23.6875 5.8125 -23.484375  Q 22.90625 -6.78125 22.90625 25  Q 22.90625 56.78125 6 73.296875  Q 5.609375 73.53125 5.609375 74.125  Q 5.609375 74.46875 5.875 74.734375  Q 6.15625 75 6.5 75  L 7.421875 75  Q 7.71875 75 7.90625 74.8125  Q 15.09375 69.140625 19.875 61.03125  Q 24.65625 52.9375 26.875 43.75  Q 29.109375 34.578125 29.109375 25  Q 29.109375 17.921875 27.90625 11.0625  Q 26.703125 4.203125 24.09375 -2.453125  Q 21.484375 -9.125 17.484375 -14.765625  Q 13.484375 -20.40625 7.90625 -24.8125  Q 7.71875 -25 7.421875 -25  z " id="Cmr10-29"/>
      <path d="M 4.984375 0  L 4.984375 2.6875  Q 4.984375 2.9375 5.171875 3.21875  L 20.703125 20.40625  Q 24.21875 24.21875 26.40625 26.796875  Q 28.609375 29.390625 30.75 32.765625  Q 32.90625 36.140625 34.15625 39.625  Q 35.40625 43.109375 35.40625 47.015625  Q 35.40625 51.125 33.890625 54.859375  Q 32.375 58.59375 29.375 60.84375  Q 26.375 63.09375 22.125 63.09375  Q 17.78125 63.09375 14.3125 60.46875  Q 10.84375 57.859375 9.421875 53.71875  Q 9.8125 53.8125 10.5 53.8125  Q 12.75 53.8125 14.328125 52.296875  Q 15.921875 50.78125 15.921875 48.390625  Q 15.921875 46.09375 14.328125 44.5  Q 12.75 42.921875 10.5 42.921875  Q 8.15625 42.921875 6.5625 44.546875  Q 4.984375 46.1875 4.984375 48.390625  Q 4.984375 52.15625 6.390625 55.4375  Q 7.8125 58.734375 10.46875 61.296875  Q 13.140625 63.875 16.484375 65.234375  Q 19.828125 66.609375 23.578125 66.609375  Q 29.296875 66.609375 34.21875 64.1875  Q 39.15625 61.765625 42.03125 57.34375  Q 44.921875 52.9375 44.921875 47.015625  Q 44.921875 42.671875 43.015625 38.765625  Q 41.109375 34.859375 38.125 31.65625  Q 35.15625 28.46875 30.515625 24.40625  Q 25.875 20.359375 24.421875 19  L 13.09375 8.109375  L 22.703125 8.109375  Q 29.78125 8.109375 34.546875 8.21875  Q 39.3125 8.34375 39.59375 8.59375  Q 40.765625 9.859375 42 17.828125  L 44.921875 17.828125  L 42.09375 0  z " id="Cmr10-32"/>
     </defs>
     <g style="fill:#757575;" transform="translate(30.56225 154.08)rotate(-90)scale(0.16 -0.16)">
      <use transform="translate(0 0.109375)" xlink:href="#Cmsy10-6a"/>
      <use transform="translate(27.685547 0.109375)" xlink:href="#Cmmi10-c3"/>
      <use transform="translate(92.773438 -16.896875)scale(0.7)" xlink:href="#Cmmi10-6e"/>
      <use transform="translate(141.157617 0.109375)" xlink:href="#Cmr10-28"/>
      <use transform="translate(179.975977 0.109375)" xlink:href="#Cmmi10-78"/>
      <use transform="translate(237.056055 0.109375)" xlink:href="#Cmr10-29"/>
      <use transform="translate(275.874414 0.109375)" xlink:href="#Cmsy10-6a"/>
      <use transform="translate(308.024102 38.373438)scale(0.7)" xlink:href="#Cmr10-32"/>
     </g>
    </g>
   </g>
   <g id="line2d_8">
    <path clip-path="url(#pe63ea88708)" d="M -0.812981 226.625455  L 143.830353 226.501958  L 154.788097 225.9446  L 161.231383 224.957796  L 165.826511 223.62069  L 169.409121 222.007076  L 172.351439 220.177006  L 174.852025 218.178109  L 177.029408 216.048111  L 178.96004 213.817061  L 180.696126 211.509074  L 182.274903 209.143654  L 185.063896 204.301193  L 187.478726 199.385739  L 189.61385 194.463097  L 191.532091 189.579063  L 194.09546 182.39316  L 197.074223 173.17575  L 200.292581 162.359059  L 205.152239 145.050824  L 210.083418 127.682216  L 212.857426 118.698673  L 215.080132 112.211637  L 216.848741 107.627667  L 218.557597 103.767086  L 220.219368 100.610902  L 221.52226 98.582479  L 222.807012 96.988302  L 224.078229 95.823274  L 225.025373 95.228839  L 225.969099 94.872606  L 226.911125 94.753933  L 227.853151 94.872606  L 228.796877 95.228839  L 229.744021 95.823274  L 230.696338 96.656981  L 231.977287 98.143446  L 233.275193 100.062755  L 234.594938 102.421038  L 236.283552 105.997765  L 238.026601 110.289893  L 239.838123 115.318339  L 242.126566 122.358251  L 245.00326 132.016365  L 249.670075 148.65301  L 254.761094 166.586052  L 258.183734 177.726597  L 260.544884 184.765831  L 263.225258 192.01398  L 265.245478 196.922074  L 267.511024 201.847912  L 270.098384 206.736686  L 271.547347 209.143654  L 273.126124 211.509074  L 274.86221 213.817061  L 276.792842 216.048111  L 278.970225 218.178109  L 281.470811 220.177006  L 284.413129 222.007076  L 287.995739 223.62069  L 292.590867 224.957796  L 299.034153 225.9446  L 309.991897 226.501958  L 433 226.606982  L 433 226.606982  " style="fill:none;stroke:#1f77b4;stroke-linecap:square;stroke-width:1.5;"/>
   </g>
   <g id="line2d_9">
    <path clip-path="url(#pe63ea88708)" d="M -0.812981 226.625455  L 143.830353 223.355589  L 154.788097 213.397682  L 161.231383 199.954625  L 165.826511 185.197528  L 169.409121 170.305597  L 172.351439 155.914645  L 174.852025 142.36185  L 178.96004 118.34515  L 183.723866 90.363353  L 186.311226 76.659539  L 188.576772 66.397733  L 189.61385 62.413684  L 190.596992 59.121094  L 191.532091 56.468442  L 192.42413 54.407134  L 193.277366 52.891547  L 194.09546 51.878988  L 194.881587 51.329598  L 195.638516 51.206216  L 196.36868 51.474238  L 197.074223 52.101456  L 197.757048 53.057905  L 198.418853 54.315707  L 199.061156 55.848924  L 200.292581 59.646727  L 201.460737 64.277523  L 202.573387 69.590485  L 204.152175 78.556809  L 205.638213 88.393018  L 207.499246 102.341301  L 209.667614 120.329656  L 217.538698 187.793754  L 219.227312 199.752539  L 220.547057 207.841269  L 221.844963 214.541425  L 222.807012 218.623868  L 223.761453 221.879584  L 224.710124 224.295967  L 225.340243 225.435984  L 225.969099 226.197017  L 226.5972 226.577838  L 227.22505 226.577838  L 227.853151 226.197017  L 228.482007 225.435984  L 229.112126 224.295967  L 229.744021 222.778821  L 230.696338 219.801664  L 231.655642 215.993164  L 232.948867 209.648748  L 234.262671 201.901509  L 235.941881 190.342843  L 237.672999 176.858276  L 240.210077 155.187273  L 245.876439 105.915313  L 247.706782 91.810579  L 249.165185 81.755237  L 250.711286 72.461108  L 251.798681 66.857356  L 252.938201 61.867925  L 254.136928 57.63342  L 255.403397 54.315707  L 256.065202 53.057905  L 256.748027 52.101456  L 257.45357 51.474238  L 258.183734 51.206216  L 258.940663 51.329598  L 259.72679 51.878988  L 260.544884 52.891547  L 261.39812 54.407134  L 262.290159 56.468442  L 263.225258 59.121094  L 264.2084 62.413684  L 265.245478 66.397733  L 266.343524 71.127493  L 268.758354 83.052015  L 271.547347 98.650166  L 278.970225 142.36185  L 281.470811 155.914645  L 284.413129 170.305597  L 287.995739 185.197528  L 292.590867 199.954625  L 299.034153 213.397682  L 309.991897 223.355589  L 433 226.13636  L 433 226.13636  " style="fill:none;stroke:#ff7f0e;stroke-linecap:square;stroke-width:1.5;"/>
   </g>
   <g id="line2d_10">
    <path clip-path="url(#pe63ea88708)" d="M -0.812981 226.625455  L 143.830353 199.959443  L 154.788097 151.637744  L 161.231383 107.805289  L 165.826511 74.151734  L 169.409121 50.634706  L 172.351439 35.780703  L 174.852025 27.918184  L 177.029408 25.534545  L 178.96004 27.358359  L 180.696126 32.353475  L 182.274903 39.687676  L 183.723866 48.697473  L 185.063896 58.856145  L 186.311226 69.746833  L 188.576772 92.478893  L 191.532091 125.854715  L 195.638516 172.485131  L 197.757048 193.333582  L 199.061156 204.186986  L 200.292581 212.71265  L 201.460737 219.051283  L 202.573387 223.366168  L 203.110964 224.818983  L 203.637008 225.831636  L 204.152175 226.426384  L 204.657065 226.62536  L 205.152239 226.450462  L 205.638213 225.923265  L 206.115468 225.064946  L 206.584452 223.896234  L 207.499246 220.708044  L 208.385619 216.514147  L 209.246227 211.461036  L 210.493895 202.568156  L 212.087119 188.908799  L 213.984127 170.159291  L 220.219368 106.102235  L 221.52226 95.45196  L 222.807012 86.77756  L 223.761453 81.685201  L 224.710124 77.872798  L 225.340243 76.06457  L 225.969099 74.854074  L 226.5972 74.247327  L 226.911125 74.171414  L 227.22505 74.247327  L 227.539038 74.474974  L 228.167453 75.384159  L 228.796877 76.894462  L 229.427819 78.998348  L 230.378214 83.243064  L 231.334983 88.749534  L 232.623825 97.937995  L 233.932014 109.045645  L 235.602281 125.218437  L 238.742118 158.577582  L 241.347946 185.266035  L 242.922968 199.317167  L 244.154636 208.655538  L 245.436631 216.514147  L 246.323004 220.708044  L 247.237798 223.896234  L 247.706782 225.064946  L 248.184037 225.923265  L 248.670011 226.450462  L 249.165185 226.62536  L 249.670075 226.426384  L 250.185242 225.831636  L 250.711286 224.818983  L 251.248863 223.366168  L 251.798681 221.450952  L 252.938201 216.145512  L 254.136928 208.732689  L 255.403397 199.058742  L 256.748027 187.000257  L 258.183734 172.485131  L 260.544884 146.163053  L 265.245478 92.478893  L 267.511024 69.746833  L 268.758354 58.856145  L 270.098384 48.697473  L 271.547347 39.687676  L 273.126124 32.353475  L 274.86221 27.358359  L 276.792842 25.534545  L 278.970225 27.918184  L 281.470811 35.780703  L 284.413129 50.634706  L 287.995739 74.151734  L 292.590867 107.805289  L 299.034153 151.637744  L 309.991897 199.959443  L 433 222.636848  L 433 222.636848  " style="fill:none;stroke:#2ca02c;stroke-linecap:square;stroke-width:1.5;"/>
   </g>
   <g id="patch_3">
    <path d="M 38.56225 236.68  L 38.56225 15.48  " style="fill:none;stroke:#757575;stroke-linecap:square;stroke-linejoin:miter;stroke-width:0.8;"/>
   </g>
   <g id="patch_4">
    <path d="M 38.56225 236.68  L 415.26 236.68  " style="fill:none;stroke:#757575;stroke-linecap:square;stroke-linejoin:miter;stroke-width:0.8;"/>
   </g>
  </g>
 </g>
 <defs>
  <clipPath id="pe63ea88708">
   <rect height="221.2" width="376.69775" x="38.56225" y="15.48"/>
  </clipPath>
 </defs>
</svg>