<?xml version="1.0" encoding="utf-8" standalone="no"?>
<!DOCTYPE svg PUBLIC "-//W3C//DTD SVG 1.1//EN"
  "http://www.w3.org/Graphics/SVG/1.1/DTD/svg11.dtd">
<!-- Created with matplotlib (http://matplotlib.org/) -->
<svg height="345pt" version="1.1" viewBox="0 0 460 345" width="460pt" xmlns="http://www.w3.org/2000/svg" xmlns:xlink="http://www.w3.org/1999/xlink">
 <defs>
  <style type="text/css">
*{stroke-linecap:butt;stroke-linejoin:round;}
  </style>
 </defs>
 <g id="figure_1">
  <g id="patch_1">
   <path d="M 0 345.6 
L 460.8 345.6 
L 460.8 0 
L 0 0 
z
" style="fill:none;opacity:0;"/>
  </g>
  <g id="axes_1">
   <g id="patch_2">
    <path d="M 57.6 307.584 
L 414.72 307.584 
L 414.72 41.472 
L 57.6 41.472 
z
" style="fill:#ffffff;"/>
   </g>
   <g id="matplotlib.axis_1">
    <g id="xtick_1">
     <g id="line2d_1">
      <defs>
       <path d="M 0 0 
L 0 3.5 
" id="m533af061ab" style="stroke:#000000;stroke-width:0.8;"/>
      </defs>
      <g>
       <use style="stroke:#000000;stroke-width:0.8;" x="73.832727" xlink:href="#m533af061ab" y="307.584"/>
      </g>
     </g>
     <g id="text_1">
      <!-- −8 -->
      <defs>
       <path d="M 10.59375 35.5 
L 73.1875 35.5 
L 73.1875 27.203125 
L 10.59375 27.203125 
z
" id="DejaVuSans-2212"/>
       <path d="M 31.78125 34.625 
Q 24.75 34.625 20.71875 30.859375 
Q 16.703125 27.09375 16.703125 20.515625 
Q 16.703125 13.921875 20.71875 10.15625 
Q 24.75 6.390625 31.78125 6.390625 
Q 38.8125 6.390625 42.859375 10.171875 
Q 46.921875 13.96875 46.921875 20.515625 
Q 46.921875 27.09375 42.890625 30.859375 
Q 38.875 34.625 31.78125 34.625 
z
M 21.921875 38.8125 
Q 15.578125 40.375 12.03125 44.71875 
Q 8.5 49.078125 8.5 55.328125 
Q 8.5 64.0625 14.71875 69.140625 
Q 20.953125 74.21875 31.78125 74.21875 
Q 42.671875 74.21875 48.875 69.140625 
Q 55.078125 64.0625 55.078125 55.328125 
Q 55.078125 49.078125 51.53125 44.71875 
Q 48 40.375 41.703125 38.8125 
Q 48.828125 37.15625 52.796875 32.3125 
Q 56.78125 27.484375 56.78125 20.515625 
Q 56.78125 9.90625 50.3125 4.234375 
Q 43.84375 -1.421875 31.78125 -1.421875 
Q 19.734375 -1.421875 13.25 4.234375 
Q 6.78125 9.90625 6.78125 20.515625 
Q 6.78125 27.484375 10.78125 32.3125 
Q 14.796875 37.15625 21.921875 38.8125 
z
M 18.3125 54.390625 
Q 18.3125 48.734375 21.84375 45.5625 
Q 25.390625 42.390625 31.78125 42.390625 
Q 38.140625 42.390625 41.71875 45.5625 
Q 45.3125 48.734375 45.3125 54.390625 
Q 45.3125 60.0625 41.71875 63.234375 
Q 38.140625 66.40625 31.78125 66.40625 
Q 25.390625 66.40625 21.84375 63.234375 
Q 18.3125 60.0625 18.3125 54.390625 
z
" id="DejaVuSans-38"/>
      </defs>
      <g transform="translate(66.461634 322.182437)scale(0.1 -0.1)">
       <use xlink:href="#DejaVuSans-2212"/>
       <use x="83.789062" xlink:href="#DejaVuSans-38"/>
      </g>
     </g>
    </g>
    <g id="xtick_2">
     <g id="line2d_2">
      <g>
       <use style="stroke:#000000;stroke-width:0.8;" x="114.414545" xlink:href="#m533af061ab" y="307.584"/>
      </g>
     </g>
     <g id="text_2">
      <!-- −6 -->
      <defs>
       <path d="M 33.015625 40.375 
Q 26.375 40.375 22.484375 35.828125 
Q 18.609375 31.296875 18.609375 23.390625 
Q 18.609375 15.53125 22.484375 10.953125 
Q 26.375 6.390625 33.015625 6.390625 
Q 39.65625 6.390625 43.53125 10.953125 
Q 47.40625 15.53125 47.40625 23.390625 
Q 47.40625 31.296875 43.53125 35.828125 
Q 39.65625 40.375 33.015625 40.375 
z
M 52.59375 71.296875 
L 52.59375 62.3125 
Q 48.875 64.0625 45.09375 64.984375 
Q 41.3125 65.921875 37.59375 65.921875 
Q 27.828125 65.921875 22.671875 59.328125 
Q 17.53125 52.734375 16.796875 39.40625 
Q 19.671875 43.65625 24.015625 45.921875 
Q 28.375 48.1875 33.59375 48.1875 
Q 44.578125 48.1875 50.953125 41.515625 
Q 57.328125 34.859375 57.328125 23.390625 
Q 57.328125 12.15625 50.6875 5.359375 
Q 44.046875 -1.421875 33.015625 -1.421875 
Q 20.359375 -1.421875 13.671875 8.265625 
Q 6.984375 17.96875 6.984375 36.375 
Q 6.984375 53.65625 15.1875 63.9375 
Q 23.390625 74.21875 37.203125 74.21875 
Q 40.921875 74.21875 44.703125 73.484375 
Q 48.484375 72.75 52.59375 71.296875 
z
" id="DejaVuSans-36"/>
      </defs>
      <g transform="translate(107.043452 322.182437)scale(0.1 -0.1)">
       <use xlink:href="#DejaVuSans-2212"/>
       <use x="83.789062" xlink:href="#DejaVuSans-36"/>
      </g>
     </g>
    </g>
    <g id="xtick_3">
     <g id="line2d_3">
      <g>
       <use style="stroke:#000000;stroke-width:0.8;" x="154.996364" xlink:href="#m533af061ab" y="307.584"/>
      </g>
     </g>
     <g id="text_3">
      <!-- −4 -->
      <defs>
       <path d="M 37.796875 64.3125 
L 12.890625 25.390625 
L 37.796875 25.390625 
z
M 35.203125 72.90625 
L 47.609375 72.90625 
L 47.609375 25.390625 
L 58.015625 25.390625 
L 58.015625 17.1875 
L 47.609375 17.1875 
L 47.609375 0 
L 37.796875 0 
L 37.796875 17.1875 
L 4.890625 17.1875 
L 4.890625 26.703125 
z
" id="DejaVuSans-34"/>
      </defs>
      <g transform="translate(147.62527 322.182437)scale(0.1 -0.1)">
       <use xlink:href="#DejaVuSans-2212"/>
       <use x="83.789062" xlink:href="#DejaVuSans-34"/>
      </g>
     </g>
    </g>
    <g id="xtick_4">
     <g id="line2d_4">
      <g>
       <use style="stroke:#000000;stroke-width:0.8;" x="195.578182" xlink:href="#m533af061ab" y="307.584"/>
      </g>
     </g>
     <g id="text_4">
      <!-- −2 -->
      <defs>
       <path d="M 19.1875 8.296875 
L 53.609375 8.296875 
L 53.609375 0 
L 7.328125 0 
L 7.328125 8.296875 
Q 12.9375 14.109375 22.625 23.890625 
Q 32.328125 33.6875 34.8125 36.53125 
Q 39.546875 41.84375 41.421875 45.53125 
Q 43.3125 49.21875 43.3125 52.78125 
Q 43.3125 58.59375 39.234375 62.25 
Q 35.15625 65.921875 28.609375 65.921875 
Q 23.96875 65.921875 18.8125 64.3125 
Q 13.671875 62.703125 7.8125 59.421875 
L 7.8125 69.390625 
Q 13.765625 71.78125 18.9375 73 
Q 24.125 74.21875 28.421875 74.21875 
Q 39.75 74.21875 46.484375 68.546875 
Q 53.21875 62.890625 53.21875 53.421875 
Q 53.21875 48.921875 51.53125 44.890625 
Q 49.859375 40.875 45.40625 35.40625 
Q 44.1875 33.984375 37.640625 27.21875 
Q 31.109375 20.453125 19.1875 8.296875 
z
" id="DejaVuSans-32"/>
      </defs>
      <g transform="translate(188.207088 322.182437)scale(0.1 -0.1)">
       <use xlink:href="#DejaVuSans-2212"/>
       <use x="83.789062" xlink:href="#DejaVuSans-32"/>
      </g>
     </g>
    </g>
    <g id="xtick_5">
     <g id="line2d_5">
      <g>
       <use style="stroke:#000000;stroke-width:0.8;" x="236.16" xlink:href="#m533af061ab" y="307.584"/>
      </g>
     </g>
     <g id="text_5">
      <!-- 0 -->
      <defs>
       <path d="M 31.78125 66.40625 
Q 24.171875 66.40625 20.328125 58.90625 
Q 16.5 51.421875 16.5 36.375 
Q 16.5 21.390625 20.328125 13.890625 
Q 24.171875 6.390625 31.78125 6.390625 
Q 39.453125 6.390625 43.28125 13.890625 
Q 47.125 21.390625 47.125 36.375 
Q 47.125 51.421875 43.28125 58.90625 
Q 39.453125 66.40625 31.78125 66.40625 
z
M 31.78125 74.21875 
Q 44.046875 74.21875 50.515625 64.515625 
Q 56.984375 54.828125 56.984375 36.375 
Q 56.984375 17.96875 50.515625 8.265625 
Q 44.046875 -1.421875 31.78125 -1.421875 
Q 19.53125 -1.421875 13.0625 8.265625 
Q 6.59375 17.96875 6.59375 36.375 
Q 6.59375 54.828125 13.0625 64.515625 
Q 19.53125 74.21875 31.78125 74.21875 
z
" id="DejaVuSans-30"/>
      </defs>
      <g transform="translate(232.97875 322.182437)scale(0.1 -0.1)">
       <use xlink:href="#DejaVuSans-30"/>
      </g>
     </g>
    </g>
    <g id="xtick_6">
     <g id="line2d_6">
      <g>
       <use style="stroke:#000000;stroke-width:0.8;" x="276.741818" xlink:href="#m533af061ab" y="307.584"/>
      </g>
     </g>
     <g id="text_6">
      <!-- 2 -->
      <g transform="translate(273.560568 322.182437)scale(0.1 -0.1)">
       <use xlink:href="#DejaVuSans-32"/>
      </g>
     </g>
    </g>
    <g id="xtick_7">
     <g id="line2d_7">
      <g>
       <use style="stroke:#000000;stroke-width:0.8;" x="317.323636" xlink:href="#m533af061ab" y="307.584"/>
      </g>
     </g>
     <g id="text_7">
      <!-- 4 -->
      <g transform="translate(314.142386 322.182437)scale(0.1 -0.1)">
       <use xlink:href="#DejaVuSans-34"/>
      </g>
     </g>
    </g>
    <g id="xtick_8">
     <g id="line2d_8">
      <g>
       <use style="stroke:#000000;stroke-width:0.8;" x="357.905455" xlink:href="#m533af061ab" y="307.584"/>
      </g>
     </g>
     <g id="text_8">
      <!-- 6 -->
      <g transform="translate(354.724205 322.182437)scale(0.1 -0.1)">
       <use xlink:href="#DejaVuSans-36"/>
      </g>
     </g>
    </g>
    <g id="xtick_9">
     <g id="line2d_9">
      <g>
       <use style="stroke:#000000;stroke-width:0.8;" x="398.487273" xlink:href="#m533af061ab" y="307.584"/>
      </g>
     </g>
     <g id="text_9">
      <!-- 8 -->
      <g transform="translate(395.306023 322.182437)scale(0.1 -0.1)">
       <use xlink:href="#DejaVuSans-38"/>
      </g>
     </g>
    </g>
    <g id="text_10">
     <!-- $x$ -->
     <defs>
      <path d="M 7.8125 2.875 
Q 9.578125 1.515625 12.796875 1.515625 
Q 15.921875 1.515625 18.3125 4.515625 
Q 20.703125 7.515625 21.578125 11.078125 
L 26.125 28.8125 
Q 27.203125 33.640625 27.203125 35.40625 
Q 27.203125 37.890625 25.8125 39.75 
Q 24.421875 41.609375 21.921875 41.609375 
Q 18.75 41.609375 15.96875 39.625 
Q 13.1875 37.640625 11.28125 34.59375 
Q 9.375 31.546875 8.59375 28.421875 
Q 8.40625 27.78125 7.8125 27.78125 
L 6.59375 27.78125 
Q 5.8125 27.78125 5.8125 28.71875 
L 5.8125 29 
Q 6.78125 32.71875 9.125 36.25 
Q 11.46875 39.796875 14.859375 41.984375 
Q 18.265625 44.1875 22.125 44.1875 
Q 25.78125 44.1875 28.734375 42.234375 
Q 31.6875 40.28125 32.90625 36.921875 
Q 34.625 39.984375 37.28125 42.078125 
Q 39.9375 44.1875 43.109375 44.1875 
Q 45.265625 44.1875 47.5 43.421875 
Q 49.75 42.671875 51.171875 41.109375 
Q 52.59375 39.546875 52.59375 37.203125 
Q 52.59375 34.671875 50.953125 32.828125 
Q 49.3125 31 46.78125 31 
Q 45.171875 31 44.09375 32.03125 
Q 43.015625 33.0625 43.015625 34.625 
Q 43.015625 36.71875 44.453125 38.296875 
Q 45.90625 39.890625 47.90625 40.1875 
Q 46.09375 41.609375 42.921875 41.609375 
Q 39.703125 41.609375 37.328125 38.625 
Q 34.96875 35.640625 33.984375 31.984375 
L 29.59375 14.3125 
Q 28.515625 10.296875 28.515625 7.71875 
Q 28.515625 5.171875 29.953125 3.34375 
Q 31.390625 1.515625 33.796875 1.515625 
Q 38.484375 1.515625 42.15625 5.640625 
Q 45.84375 9.765625 47.015625 14.703125 
Q 47.21875 15.28125 47.796875 15.28125 
L 49.03125 15.28125 
Q 49.421875 15.28125 49.65625 15.015625 
Q 49.90625 14.75 49.90625 14.40625 
Q 49.90625 14.3125 49.8125 14.109375 
Q 48.390625 8.15625 43.84375 3.515625 
Q 39.3125 -1.125 33.59375 -1.125 
Q 29.9375 -1.125 26.984375 0.84375 
Q 24.03125 2.828125 22.796875 6.203125 
Q 21.234375 3.265625 18.46875 1.0625 
Q 15.71875 -1.125 12.59375 -1.125 
Q 10.453125 -1.125 8.171875 -0.359375 
Q 5.90625 0.390625 4.484375 1.953125 
Q 3.078125 3.515625 3.078125 5.90625 
Q 3.078125 8.25 4.703125 10.171875 
Q 6.34375 12.109375 8.796875 12.109375 
Q 10.453125 12.109375 11.578125 11.109375 
Q 12.703125 10.109375 12.703125 8.5 
Q 12.703125 6.390625 11.296875 4.828125 
Q 9.90625 3.265625 7.8125 2.875 
z
" id="Cmmi10-78"/>
     </defs>
     <g transform="translate(233.26 335.860562)scale(0.1 -0.1)">
      <use transform="translate(0 0.8125)" xlink:href="#Cmmi10-78"/>
     </g>
    </g>
   </g>
   <g id="matplotlib.axis_2">
    <g id="ytick_1">
     <g id="line2d_10">
      <defs>
       <path d="M 0 0 
L -3.5 0 
" id="m76ac36937e" style="stroke:#000000;stroke-width:0.8;"/>
      </defs>
      <g>
       <use style="stroke:#000000;stroke-width:0.8;" x="57.6" xlink:href="#m76ac36937e" y="307.584"/>
      </g>
     </g>
     <g id="text_11">
      <!-- 0 -->
      <g transform="translate(44.2375 311.383219)scale(0.1 -0.1)">
       <use xlink:href="#DejaVuSans-30"/>
      </g>
     </g>
    </g>
    <g id="ytick_2">
     <g id="line2d_11">
      <g>
       <use style="stroke:#000000;stroke-width:0.8;" x="57.6" xlink:href="#m76ac36937e" y="269.974705"/>
      </g>
     </g>
     <g id="text_12">
      <!-- 1 -->
      <defs>
       <path d="M 12.40625 8.296875 
L 28.515625 8.296875 
L 28.515625 63.921875 
L 10.984375 60.40625 
L 10.984375 69.390625 
L 28.421875 72.90625 
L 38.28125 72.90625 
L 38.28125 8.296875 
L 54.390625 8.296875 
L 54.390625 0 
L 12.40625 0 
z
" id="DejaVuSans-31"/>
      </defs>
      <g transform="translate(44.2375 273.773923)scale(0.1 -0.1)">
       <use xlink:href="#DejaVuSans-31"/>
      </g>
     </g>
    </g>
    <g id="ytick_3">
     <g id="line2d_12">
      <g>
       <use style="stroke:#000000;stroke-width:0.8;" x="57.6" xlink:href="#m76ac36937e" y="232.365409"/>
      </g>
     </g>
     <g id="text_13">
      <!-- 2 -->
      <g transform="translate(44.2375 236.164628)scale(0.1 -0.1)">
       <use xlink:href="#DejaVuSans-32"/>
      </g>
     </g>
    </g>
    <g id="ytick_4">
     <g id="line2d_13">
      <g>
       <use style="stroke:#000000;stroke-width:0.8;" x="57.6" xlink:href="#m76ac36937e" y="194.756114"/>
      </g>
     </g>
     <g id="text_14">
      <!-- 3 -->
      <defs>
       <path d="M 40.578125 39.3125 
Q 47.65625 37.796875 51.625 33 
Q 55.609375 28.21875 55.609375 21.1875 
Q 55.609375 10.40625 48.1875 4.484375 
Q 40.765625 -1.421875 27.09375 -1.421875 
Q 22.515625 -1.421875 17.65625 -0.515625 
Q 12.796875 0.390625 7.625 2.203125 
L 7.625 11.71875 
Q 11.71875 9.328125 16.59375 8.109375 
Q 21.484375 6.890625 26.8125 6.890625 
Q 36.078125 6.890625 40.9375 10.546875 
Q 45.796875 14.203125 45.796875 21.1875 
Q 45.796875 27.640625 41.28125 31.265625 
Q 36.765625 34.90625 28.71875 34.90625 
L 20.21875 34.90625 
L 20.21875 43.015625 
L 29.109375 43.015625 
Q 36.375 43.015625 40.234375 45.921875 
Q 44.09375 48.828125 44.09375 54.296875 
Q 44.09375 59.90625 40.109375 62.90625 
Q 36.140625 65.921875 28.71875 65.921875 
Q 24.65625 65.921875 20.015625 65.03125 
Q 15.375 64.15625 9.8125 62.3125 
L 9.8125 71.09375 
Q 15.4375 72.65625 20.34375 73.4375 
Q 25.25 74.21875 29.59375 74.21875 
Q 40.828125 74.21875 47.359375 69.109375 
Q 53.90625 64.015625 53.90625 55.328125 
Q 53.90625 49.265625 50.4375 45.09375 
Q 46.96875 40.921875 40.578125 39.3125 
z
" id="DejaVuSans-33"/>
      </defs>
      <g transform="translate(44.2375 198.555333)scale(0.1 -0.1)">
       <use xlink:href="#DejaVuSans-33"/>
      </g>
     </g>
    </g>
    <g id="ytick_5">
     <g id="line2d_14">
      <g>
       <use style="stroke:#000000;stroke-width:0.8;" x="57.6" xlink:href="#m76ac36937e" y="157.146818"/>
      </g>
     </g>
     <g id="text_15">
      <!-- 4 -->
      <g transform="translate(44.2375 160.946037)scale(0.1 -0.1)">
       <use xlink:href="#DejaVuSans-34"/>
      </g>
     </g>
    </g>
    <g id="ytick_6">
     <g id="line2d_15">
      <g>
       <use style="stroke:#000000;stroke-width:0.8;" x="57.6" xlink:href="#m76ac36937e" y="119.537523"/>
      </g>
     </g>
     <g id="text_16">
      <!-- 5 -->
      <defs>
       <path d="M 10.796875 72.90625 
L 49.515625 72.90625 
L 49.515625 64.59375 
L 19.828125 64.59375 
L 19.828125 46.734375 
Q 21.96875 47.46875 24.109375 47.828125 
Q 26.265625 48.1875 28.421875 48.1875 
Q 40.625 48.1875 47.75 41.5 
Q 54.890625 34.8125 54.890625 23.390625 
Q 54.890625 11.625 47.5625 5.09375 
Q 40.234375 -1.421875 26.90625 -1.421875 
Q 22.3125 -1.421875 17.546875 -0.640625 
Q 12.796875 0.140625 7.71875 1.703125 
L 7.71875 11.625 
Q 12.109375 9.234375 16.796875 8.0625 
Q 21.484375 6.890625 26.703125 6.890625 
Q 35.15625 6.890625 40.078125 11.328125 
Q 45.015625 15.765625 45.015625 23.390625 
Q 45.015625 31 40.078125 35.4375 
Q 35.15625 39.890625 26.703125 39.890625 
Q 22.75 39.890625 18.8125 39.015625 
Q 14.890625 38.140625 10.796875 36.28125 
z
" id="DejaVuSans-35"/>
      </defs>
      <g transform="translate(44.2375 123.336742)scale(0.1 -0.1)">
       <use xlink:href="#DejaVuSans-35"/>
      </g>
     </g>
    </g>
    <g id="ytick_7">
     <g id="line2d_16">
      <g>
       <use style="stroke:#000000;stroke-width:0.8;" x="57.6" xlink:href="#m76ac36937e" y="81.928228"/>
      </g>
     </g>
     <g id="text_17">
      <!-- 6 -->
      <g transform="translate(44.2375 85.727446)scale(0.1 -0.1)">
       <use xlink:href="#DejaVuSans-36"/>
      </g>
     </g>
    </g>
    <g id="ytick_8">
     <g id="line2d_17">
      <g>
       <use style="stroke:#000000;stroke-width:0.8;" x="57.6" xlink:href="#m76ac36937e" y="44.318932"/>
      </g>
     </g>
     <g id="text_18">
      <!-- 7 -->
      <defs>
       <path d="M 8.203125 72.90625 
L 55.078125 72.90625 
L 55.078125 68.703125 
L 28.609375 0 
L 18.3125 0 
L 43.21875 64.59375 
L 8.203125 64.59375 
z
" id="DejaVuSans-37"/>
      </defs>
      <g transform="translate(44.2375 48.118151)scale(0.1 -0.1)">
       <use xlink:href="#DejaVuSans-37"/>
      </g>
     </g>
    </g>
    <g id="text_19">
     <!-- $\psi(x)$ -->
     <defs>
      <path d="M 23.78125 -19.484375 
L 28.515625 -0.875 
Q 24.171875 -0.875 20.09375 0.75 
Q 16.015625 2.390625 13.5 5.5625 
Q 10.984375 8.734375 10.984375 13.28125 
Q 10.984375 15.875 11.90625 19.1875 
Q 12.84375 22.515625 13.890625 25.296875 
Q 14.9375 28.078125 16.703125 32.625 
Q 18.015625 36.28125 18.015625 38.625 
Q 18.015625 41.609375 15.828125 41.609375 
Q 11.859375 41.609375 9.296875 37.53125 
Q 6.734375 33.453125 5.515625 28.421875 
Q 5.328125 27.78125 4.6875 27.78125 
L 3.515625 27.78125 
Q 2.6875 27.78125 2.6875 28.71875 
L 2.6875 29 
Q 4.296875 34.96875 7.609375 39.578125 
Q 10.9375 44.1875 16.015625 44.1875 
Q 19.578125 44.1875 22.046875 41.84375 
Q 24.515625 39.5 24.515625 35.890625 
Q 24.515625 34.03125 23.6875 31.984375 
Q 21.921875 27.4375 20.890625 24.75 
Q 19.875 22.078125 18.9375 18.671875 
Q 18.015625 15.28125 18.015625 12.59375 
Q 18.015625 7.71875 21.0625 5.03125 
Q 24.125 2.34375 29.109375 1.703125 
L 45.90625 68.796875 
Q 46.09375 69.390625 46.6875 69.390625 
L 47.90625 69.390625 
Q 48.6875 69.390625 48.6875 68.40625 
L 31.984375 1.515625 
L 33.109375 1.515625 
Q 37.3125 1.515625 41.96875 4 
Q 46.625 6.5 50.453125 10.546875 
Q 54.296875 14.59375 56.546875 19.25 
Q 58.796875 23.921875 58.796875 27.984375 
Q 58.796875 31 57.8125 32.6875 
Q 56.84375 34.375 55.28125 36.203125 
Q 53.71875 38.03125 53.71875 39.109375 
Q 53.71875 41.0625 55.328125 42.671875 
Q 56.9375 44.28125 58.890625 44.28125 
Q 61.28125 44.28125 62.328125 42.078125 
Q 63.375 39.890625 63.375 37.109375 
Q 63.375 34.1875 62.78125 31.25 
Q 62.203125 28.328125 61.1875 24.3125 
Q 58.890625 15.1875 51.609375 7.90625 
Q 49.125 5.421875 46.109375 3.34375 
Q 43.109375 1.265625 39.765625 0.0625 
Q 36.421875 -1.125 33.015625 -1.125 
L 31.390625 -1.125 
L 26.703125 -19.921875 
Q 26.515625 -20.515625 25.875 -20.515625 
L 24.703125 -20.515625 
Q 24.3125 -20.515625 24.046875 -20.1875 
Q 23.78125 -19.875 23.78125 -19.484375 
z
" id="Cmmi10-c3"/>
      <path d="M 31 -24.8125 
Q 25.4375 -20.40625 21.40625 -14.71875 
Q 17.390625 -9.03125 14.8125 -2.578125 
Q 12.25 3.859375 10.984375 10.890625 
Q 9.71875 17.921875 9.71875 25 
Q 9.71875 32.171875 10.984375 39.203125 
Q 12.25 46.234375 14.859375 52.734375 
Q 17.484375 59.234375 21.53125 64.890625 
Q 25.59375 70.5625 31 74.8125 
Q 31 75 31.5 75 
L 32.421875 75 
Q 32.71875 75 32.953125 74.734375 
Q 33.203125 74.46875 33.203125 74.125 
Q 33.203125 73.6875 33.015625 73.484375 
Q 28.125 68.703125 24.875 63.234375 
Q 21.625 57.765625 19.640625 51.578125 
Q 17.671875 45.40625 16.796875 38.78125 
Q 15.921875 32.171875 15.921875 25 
Q 15.921875 -6.78125 32.90625 -23.296875 
Q 33.203125 -23.578125 33.203125 -24.125 
Q 33.203125 -24.359375 32.9375 -24.671875 
Q 32.671875 -25 32.421875 -25 
L 31.5 -25 
Q 31 -25 31 -24.8125 
z
" id="Cmr10-28"/>
      <path d="M 6.5 -25 
Q 5.609375 -25 5.609375 -24.125 
Q 5.609375 -23.6875 5.8125 -23.484375 
Q 22.90625 -6.78125 22.90625 25 
Q 22.90625 56.78125 6 73.296875 
Q 5.609375 73.53125 5.609375 74.125 
Q 5.609375 74.46875 5.875 74.734375 
Q 6.15625 75 6.5 75 
L 7.421875 75 
Q 7.71875 75 7.90625 74.8125 
Q 15.09375 69.140625 19.875 61.03125 
Q 24.65625 52.9375 26.875 43.75 
Q 29.109375 34.578125 29.109375 25 
Q 29.109375 17.921875 27.90625 11.0625 
Q 26.703125 4.203125 24.09375 -2.453125 
Q 21.484375 -9.125 17.484375 -14.765625 
Q 13.484375 -20.40625 7.90625 -24.8125 
Q 7.71875 -25 7.421875 -25 
z
" id="Cmr10-29"/>
     </defs>
     <g transform="translate(37.7375 184.528)rotate(-90)scale(0.1 -0.1)">
      <use xlink:href="#Cmmi10-c3"/>
      <use transform="translate(65.087891 0)" xlink:href="#Cmr10-28"/>
      <use transform="translate(103.90625 0)" xlink:href="#Cmmi10-78"/>
      <use transform="translate(160.986328 0)" xlink:href="#Cmr10-29"/>
     </g>
    </g>
   </g>
   <g id="line2d_18">
    <path clip-path="url(#p251daa493b)" d="M 73.832727 6.709637 
L 236.16 307.584 
L 398.487273 6.709637 
L 398.487273 6.709637 
" style="fill:none;stroke:#000000;stroke-linecap:square;stroke-width:1.5;"/>
   </g>
   <g id="line2d_19">
    <path clip-path="url(#p251daa493b)" d="M 73.832727 277.075212 
L 168.631855 276.966164 
L 179.345455 276.735455 
L 186.487855 276.372296 
L 192.656291 275.840462 
L 197.850764 275.166158 
L 202.395927 274.350001 
L 206.941091 273.296074 
L 211.486255 272.014065 
L 217.005382 270.207449 
L 227.718982 266.589015 
L 230.640873 265.874384 
L 233.238109 265.45856 
L 235.510691 265.298497 
L 237.783273 265.34249 
L 240.380509 265.637372 
L 242.977745 266.163808 
L 246.224291 267.07136 
L 250.769455 268.605281 
L 259.859782 271.71286 
L 264.7296 273.126268 
L 269.274764 274.214145 
L 273.819927 275.063527 
L 278.689745 275.732202 
L 284.208873 276.255223 
L 290.701964 276.643871 
L 298.818327 276.892679 
L 312.129164 277.036488 
L 338.750836 277.073211 
L 398.487273 277.075212 
L 398.487273 277.075212 
" style="fill:none;stroke:#1f77b4;stroke-linecap:square;stroke-width:1.5;"/>
   </g>
   <g id="line2d_20">
    <path clip-path="url(#p251daa493b)" d="M 73.832727 237.79147 
L 151.100509 237.901447 
L 162.138764 238.148566 
L 169.930473 238.534977 
L 176.098909 239.054973 
L 181.618036 239.738709 
L 186.812509 240.596802 
L 192.331636 241.732406 
L 200.123345 243.597206 
L 206.291782 244.991431 
L 209.862982 245.590108 
L 212.784873 245.882859 
L 215.382109 245.948169 
L 217.979345 245.79372 
L 220.251927 245.454695 
L 222.524509 244.909987 
L 224.797091 244.153001 
L 227.394327 243.033778 
L 229.991564 241.670131 
L 233.238109 239.701519 
L 243.3024 233.37552 
L 245.899636 232.098844 
L 248.496873 231.079515 
L 250.769455 230.413689 
L 253.042036 229.958464 
L 255.639273 229.682512 
L 258.236509 229.642056 
L 261.1584 229.837167 
L 264.404945 230.292035 
L 268.3008 231.069292 
L 275.4432 232.780662 
L 282.5856 234.411716 
L 288.104727 235.441755 
L 293.623855 236.234381 
L 299.142982 236.803061 
L 305.636073 237.238843 
L 313.752436 237.543058 
L 324.790691 237.718184 
L 346.542545 237.787428 
L 398.487273 237.791476 
L 398.487273 237.791476 
" style="fill:none;stroke:#ff7f0e;stroke-linecap:square;stroke-width:1.5;"/>
   </g>
   <g id="line2d_21">
    <path clip-path="url(#p251daa493b)" d="M 73.832727 210.591905 
L 134.867782 210.701041 
L 145.581382 210.937683 
L 153.048436 211.311334 
L 159.216873 211.832687 
L 164.411345 212.481485 
L 169.281164 213.306497 
L 174.150982 214.356907 
L 179.670109 215.786405 
L 192.980945 219.373032 
L 196.227491 219.936049 
L 198.824727 220.179198 
L 201.421964 220.188003 
L 203.694545 219.971799 
L 205.967127 219.52507 
L 208.239709 218.835569 
L 210.512291 217.900647 
L 212.784873 216.728575 
L 215.382109 215.125618 
L 218.304 213.051255 
L 228.368291 205.607822 
L 230.316218 204.548516 
L 232.264145 203.748778 
L 233.887418 203.31147 
L 235.510691 203.100538 
L 237.133964 203.124096 
L 238.757236 203.381235 
L 240.380509 203.862085 
L 242.328436 204.708366 
L 244.276364 205.805992 
L 246.8736 207.565211 
L 250.769455 210.546621 
L 255.639273 214.233691 
L 258.561164 216.158278 
L 261.1584 217.589312 
L 263.430982 218.593345 
L 265.703564 219.35315 
L 267.976145 219.868386 
L 270.248727 220.148701 
L 272.521309 220.212292 
L 275.118545 220.051845 
L 278.040436 219.627543 
L 281.611636 218.85364 
L 286.481455 217.542551 
L 297.195055 214.592685 
L 302.389527 213.433606 
L 307.259345 212.578685 
L 312.453818 211.902108 
L 318.2976 211.378735 
L 325.115345 211.000154 
L 333.881018 210.753054 
L 347.191855 210.630573 
L 384.527127 210.592039 
L 398.487273 210.591905 
L 398.487273 210.591905 
" style="fill:none;stroke:#2ca02c;stroke-linecap:square;stroke-width:1.5;"/>
   </g>
   <g id="line2d_22">
    <path clip-path="url(#p251daa493b)" d="M 73.832727 185.557807 
L 124.478836 185.665283 
L 136.1664 185.912488 
L 143.958109 186.284724 
L 150.4512 186.805111 
L 156.619636 187.52605 
L 162.463418 188.42952 
L 169.930473 189.831772 
L 178.371491 191.388994 
L 182.267345 191.890373 
L 185.513891 192.103251 
L 188.435782 192.083664 
L 191.033018 191.865968 
L 193.630255 191.438182 
L 196.227491 190.7894 
L 198.824727 189.921919 
L 201.746618 188.708279 
L 205.317818 186.961556 
L 214.408145 182.356373 
L 217.005382 181.376784 
L 219.277964 180.772945 
L 221.225891 180.483028 
L 223.173818 180.427476 
L 225.121745 180.618606 
L 227.069673 181.056183 
L 229.0176 181.725835 
L 231.290182 182.760915 
L 234.212073 184.382656 
L 241.354473 188.517046 
L 243.627055 189.516427 
L 245.574982 190.149022 
L 247.522909 190.546128 
L 249.470836 190.695798 
L 251.418764 190.600021 
L 253.366691 190.273 
L 255.639273 189.631751 
L 257.911855 188.759217 
L 260.833745 187.392171 
L 266.677527 184.322666 
L 270.573382 182.407311 
L 273.495273 181.193671 
L 276.092509 180.32619 
L 278.689745 179.677408 
L 281.286982 179.249622 
L 283.884218 179.031926 
L 286.806109 179.012339 
L 290.052655 179.225217 
L 293.948509 179.726596 
L 299.142982 180.647456 
L 312.453818 183.113463 
L 318.2976 183.922074 
L 324.466036 184.545646 
L 331.283782 184.997897 
L 339.400145 185.299596 
L 350.763055 185.480144 
L 371.8656 185.553735 
L 398.487273 185.557782 
L 398.487273 185.557782 
" style="fill:none;stroke:#d62728;stroke-linecap:square;stroke-width:1.5;"/>
   </g>
   <g id="line2d_23">
    <path clip-path="url(#p251daa493b)" d="M 73.832727 163.677597 
L 113.765236 163.788704 
L 123.504873 164.055112 
L 130.971927 164.479473 
L 137.465018 165.07257 
L 142.984145 165.789562 
L 148.178618 166.677212 
L 153.697745 167.845385 
L 168.3072 171.108868 
L 171.553745 171.526853 
L 174.475636 171.686704 
L 177.072873 171.614966 
L 179.670109 171.309233 
L 181.942691 170.83046 
L 184.215273 170.144728 
L 186.812509 169.108585 
L 189.409745 167.822478 
L 192.331636 166.130536 
L 197.201455 163.002491 
L 201.097309 160.588996 
L 203.694545 159.224373 
L 205.967127 158.291636 
L 207.915055 157.73838 
L 209.538327 157.477068 
L 211.1616 157.413059 
L 212.784873 157.555289 
L 214.408145 157.906128 
L 216.031418 158.46048 
L 217.979345 159.375086 
L 220.251927 160.734678 
L 223.173818 162.799589 
L 228.368291 166.557394 
L 230.640873 167.882346 
L 232.264145 168.603206 
L 233.887418 169.095133 
L 235.510691 169.333718 
L 237.133964 169.30703 
L 238.757236 169.016405 
L 240.380509 168.476364 
L 242.003782 167.713639 
L 243.951709 166.557394 
L 246.548945 164.739166 
L 252.392727 160.524108 
L 254.665309 159.205097 
L 256.613236 158.333843 
L 258.236509 157.819402 
L 259.859782 157.510128 
L 261.483055 157.409559 
L 263.106327 157.513937 
L 264.7296 157.813129 
L 266.677527 158.407174 
L 268.625455 159.224373 
L 270.898036 160.404402 
L 274.144582 162.374706 
L 282.260945 167.466342 
L 285.182836 168.96085 
L 287.780073 170.029755 
L 290.052655 170.745275 
L 292.325236 171.25325 
L 294.922473 171.590128 
L 297.519709 171.689508 
L 300.4416 171.555759 
L 303.688145 171.160163 
L 307.584 170.43733 
L 313.427782 169.084021 
L 322.193455 167.065072 
L 327.712582 166.043825 
L 333.231709 165.261046 
L 339.075491 164.660038 
L 345.893236 164.193265 
L 353.684945 163.890134 
L 364.073891 163.726037 
L 384.851782 163.678407 
L 398.487273 163.677597 
L 398.487273 163.677597 
" style="fill:none;stroke:#9467bd;stroke-linecap:square;stroke-width:1.5;"/>
   </g>
   <g id="line2d_24">
    <path clip-path="url(#p251daa493b)" d="M 73.832727 142.784092 
L 106.947491 142.677197 
L 116.037818 142.426387 
L 123.504873 142.002501 
L 130.322618 141.399808 
L 137.140364 140.575652 
L 144.282764 139.475242 
L 157.268945 137.385596 
L 161.1648 137.052565 
L 164.411345 136.99938 
L 167.333236 137.164737 
L 170.255127 137.555923 
L 173.177018 138.185408 
L 176.098909 139.052221 
L 179.345455 140.269256 
L 183.241309 141.993534 
L 190.708364 145.375576 
L 193.3056 146.295414 
L 195.578182 146.88551 
L 197.850764 147.229534 
L 199.798691 147.305246 
L 201.746618 147.167879 
L 203.694545 146.817216 
L 205.967127 146.152758 
L 208.239709 145.247517 
L 211.1616 143.822139 
L 218.304 140.174467 
L 220.576582 139.33857 
L 222.524509 138.869409 
L 224.147782 138.683463 
L 225.771055 138.697996 
L 227.394327 138.915592 
L 229.342255 139.432467 
L 231.290182 140.195101 
L 233.562764 141.322301 
L 242.003782 145.782378 
L 243.951709 146.427735 
L 245.574982 146.763934 
L 247.198255 146.900679 
L 248.821527 146.83412 
L 250.4448 146.571018 
L 252.392727 146.019718 
L 254.665309 145.108873 
L 257.5872 143.656205 
L 264.080291 140.320883 
L 266.352873 139.415643 
L 268.625455 138.751184 
L 270.573382 138.400521 
L 272.521309 138.263155 
L 274.469236 138.338866 
L 276.417164 138.617818 
L 278.689745 139.175139 
L 281.286982 140.065959 
L 284.533527 141.445523 
L 294.597818 145.938295 
L 297.519709 146.929981 
L 300.4416 147.692483 
L 303.363491 148.215282 
L 306.285382 148.503897 
L 309.207273 148.575648 
L 312.453818 148.433723 
L 316.349673 148.021013 
L 321.544145 147.215826 
L 335.179636 144.992748 
L 341.997382 144.168592 
L 348.815127 143.565899 
L 355.957527 143.155782 
L 364.398545 142.907709 
L 376.735418 142.799762 
L 398.487273 142.784308 
L 398.487273 142.784308 
" style="fill:none;stroke:#8c564b;stroke-linecap:square;stroke-width:1.5;"/>
   </g>
   <g id="line2d_25">
    <path clip-path="url(#p251daa493b)" d="M 73.832727 123.472997 
L 101.428364 123.581039 
L 108.895418 123.831028 
L 114.414545 124.228311 
L 119.284364 124.795021 
L 124.154182 125.583942 
L 129.997964 126.768133 
L 143.3088 129.562631 
L 147.853964 130.257722 
L 151.425164 130.594881 
L 154.347055 130.666018 
L 156.944291 130.523308 
L 159.541527 130.146244 
L 161.814109 129.6029 
L 164.086691 128.855044 
L 166.683927 127.764404 
L 169.605818 126.287664 
L 173.826327 123.876175 
L 179.0208 120.937181 
L 181.942691 119.543506 
L 184.215273 118.690938 
L 186.1632 118.168761 
L 188.111127 117.873877 
L 190.059055 117.833389 
L 191.682327 118.007061 
L 193.3056 118.37299 
L 195.253527 119.058302 
L 197.201455 119.987056 
L 199.474036 121.317232 
L 203.369891 123.922546 
L 206.616436 126.013057 
L 208.889018 127.217798 
L 210.836945 127.984909 
L 212.460218 128.396264 
L 214.083491 128.577672 
L 215.706764 128.517455 
L 217.330036 128.213908 
L 218.953309 127.676013 
L 220.576582 126.924082 
L 222.524509 125.785136 
L 225.121745 123.996212 
L 229.666909 120.82217 
L 231.614836 119.746132 
L 233.238109 119.092411 
L 234.861382 118.707115 
L 236.16 118.610476 
L 237.458618 118.707115 
L 238.757236 118.992763 
L 240.380509 119.595795 
L 242.003782 120.433398 
L 244.276364 121.893415 
L 251.094109 126.570156 
L 253.042036 127.541895 
L 254.665309 128.124593 
L 256.288582 128.476083 
L 257.911855 128.585161 
L 259.535127 128.451453 
L 261.1584 128.084699 
L 262.781673 127.504026 
L 264.7296 126.564405 
L 267.002182 125.213297 
L 271.872 121.945757 
L 274.793891 120.162625 
L 277.066473 119.058302 
L 279.0144 118.37299 
L 280.962327 117.956938 
L 282.5856 117.821576 
L 284.533527 117.905994 
L 286.481455 118.24084 
L 288.429382 118.797817 
L 290.701964 119.683636 
L 293.2992 120.937181 
L 296.8704 122.925953 
L 304.0128 126.971735 
L 306.934691 128.339333 
L 309.531927 129.307177 
L 311.804509 129.938455 
L 314.077091 130.366119 
L 316.674327 130.621713 
L 319.271564 130.66138 
L 322.518109 130.470426 
L 326.413964 129.98899 
L 331.283782 129.140134 
L 338.101527 127.700315 
L 347.841164 125.643879 
L 353.035636 124.795021 
L 357.905455 124.228311 
L 363.099927 123.848333 
L 369.593018 123.608135 
L 379.657309 123.49312 
L 398.487273 123.472997 
L 398.487273 123.472997 
" style="fill:none;stroke:#e377c2;stroke-linecap:square;stroke-width:1.5;"/>
   </g>
   <g id="line2d_26">
    <path clip-path="url(#p251daa493b)" d="M 73.832727 104.621801 
L 97.207855 104.735458 
L 104.350255 104.991031 
L 109.544727 105.384851 
L 114.414545 105.982288 
L 119.284364 106.815472 
L 126.426764 108.307945 
L 132.5952 109.508144 
L 136.815709 110.090217 
L 140.386909 110.368257 
L 143.958109 110.422842 
L 147.204655 110.253513 
L 150.126545 109.892216 
L 153.048436 109.298998 
L 155.645673 108.555843 
L 158.567564 107.47575 
L 161.814109 106.020954 
L 170.904436 101.742859 
L 173.501673 100.870262 
L 175.774255 100.348552 
L 177.722182 100.104633 
L 179.670109 100.059981 
L 181.618036 100.219656 
L 183.565964 100.58331 
L 185.838545 101.256068 
L 188.111127 102.171626 
L 191.033018 103.627129 
L 198.500073 107.533735 
L 200.448 108.238004 
L 202.395927 108.687338 
L 204.0192 108.839705 
L 205.642473 108.780187 
L 207.265745 108.511935 
L 209.213673 107.935521 
L 211.1616 107.123127 
L 213.758836 105.776932 
L 220.576582 102.058253 
L 222.524509 101.303199 
L 224.147782 100.881812 
L 225.771055 100.68432 
L 227.394327 100.731225 
L 229.0176 101.027938 
L 230.640873 101.56245 
L 232.5888 102.473964 
L 235.186036 104.003403 
L 239.7312 106.768357 
L 241.679127 107.67987 
L 243.3024 108.214382 
L 244.925673 108.511096 
L 246.548945 108.558001 
L 248.172218 108.360509 
L 249.795491 107.939122 
L 251.743418 107.184068 
L 254.016 106.050423 
L 262.457018 101.55402 
L 264.404945 100.893251 
L 266.028218 100.544954 
L 267.651491 100.400909 
L 269.274764 100.468903 
L 270.898036 100.744947 
L 272.845964 101.327737 
L 275.118545 102.292288 
L 278.040436 103.820162 
L 283.559564 106.770451 
L 286.1568 107.869489 
L 288.429382 108.578928 
L 290.377309 108.976128 
L 292.325236 109.169975 
L 294.273164 109.159171 
L 296.221091 108.94788 
L 298.493673 108.46134 
L 300.766255 107.742275 
L 303.363491 106.688655 
L 307.259345 104.823876 
L 312.778473 102.178813 
L 315.700364 101.018694 
L 318.622255 100.109592 
L 321.544145 99.46075 
L 324.466036 99.050767 
L 327.712582 98.835641 
L 330.959127 98.836013 
L 334.530327 99.05542 
L 338.426182 99.528796 
L 342.971345 100.329861 
L 358.879418 103.39888 
L 363.749236 103.948877 
L 368.943709 104.302231 
L 375.761455 104.519451 
L 386.799709 104.610197 
L 398.487273 104.620519 
L 398.487273 104.620519 
" style="fill:none;stroke:#7f7f7f;stroke-linecap:square;stroke-width:1.5;"/>
   </g>
   <g id="line2d_27">
    <path clip-path="url(#p251daa493b)" d="M 73.832727 85.253909 
L 95.584582 85.36268 
L 102.077673 85.605733 
L 106.622836 85.975921 
L 110.518691 86.501211 
L 114.089891 87.195809 
L 117.661091 88.106504 
L 122.206255 89.5156 
L 128.699345 91.555384 
L 131.621236 92.225199 
L 133.893818 92.540154 
L 136.1664 92.631972 
L 138.438982 92.478472 
L 140.711564 92.076784 
L 142.984145 91.443283 
L 145.581382 90.477084 
L 148.827927 88.997949 
L 153.373091 86.635151 
L 162.463418 81.824871 
L 165.060655 80.70931 
L 167.333236 79.978347 
L 169.281164 79.603281 
L 170.904436 79.505495 
L 172.527709 79.624385 
L 174.150982 79.968473 
L 175.774255 80.532754 
L 177.722182 81.47217 
L 179.994764 82.852263 
L 184.215273 85.780664 
L 187.137164 87.674526 
L 189.409745 88.870501 
L 191.357673 89.627567 
L 192.980945 90.040811 
L 194.604218 90.24146 
L 196.227491 90.221443 
L 197.850764 89.977623 
L 199.474036 89.512389 
L 201.097309 88.835371 
L 203.045236 87.771456 
L 205.317818 86.258452 
L 211.810909 81.731388 
L 213.434182 80.949395 
L 214.7328 80.52244 
L 216.031418 80.297865 
L 217.330036 80.288934 
L 218.628655 80.497734 
L 219.927273 80.914874 
L 221.550545 81.697423 
L 223.498473 82.937581 
L 226.420364 85.126524 
L 229.342255 87.260908 
L 231.290182 88.425354 
L 232.913455 89.14679 
L 234.536727 89.596435 
L 235.835345 89.742978 
L 237.133964 89.693987 
L 238.432582 89.451179 
L 240.055855 88.888857 
L 241.679127 88.069499 
L 243.627055 86.816166 
L 246.8736 84.378067 
L 249.795491 82.283457 
L 251.418764 81.352618 
L 253.042036 80.681287 
L 254.340655 80.366438 
L 255.639273 80.266044 
L 256.937891 80.383774 
L 258.236509 80.71186 
L 259.859782 81.388737 
L 261.483055 82.309115 
L 263.755636 83.869606 
L 268.950109 87.570845 
L 270.898036 88.676054 
L 272.845964 89.512389 
L 274.469236 89.977623 
L 276.092509 90.221443 
L 277.715782 90.24146 
L 279.339055 90.040811 
L 280.962327 89.627567 
L 282.910255 88.870501 
L 284.858182 87.863265 
L 287.455418 86.225318 
L 294.597818 81.47217 
L 296.545745 80.532754 
L 298.169018 79.968473 
L 299.792291 79.624385 
L 301.415564 79.505495 
L 303.038836 79.603281 
L 304.986764 79.978347 
L 306.934691 80.588583 
L 309.207273 81.524441 
L 312.453818 83.12389 
L 326.413964 90.341007 
L 329.0112 91.335579 
L 331.283782 91.999874 
L 333.556364 92.436101 
L 335.828945 92.625346 
L 338.101527 92.567645 
L 340.374109 92.282546 
L 342.971345 91.725427 
L 346.217891 90.789083 
L 356.931491 87.502617 
L 360.502691 86.728736 
L 364.398545 86.126547 
L 368.619055 85.713222 
L 373.813527 85.442331 
L 381.280582 85.297045 
L 398.487273 85.253909 
L 398.487273 85.253909 
" style="fill:none;stroke:#bcbd22;stroke-linecap:square;stroke-width:1.5;"/>
   </g>
   <g id="line2d_28">
    <path clip-path="url(#p251daa493b)" d="M 73.832727 66.092253 
L 92.013382 65.971926 
L 98.181818 65.717125 
L 102.726982 65.312165 
L 106.622836 64.733473 
L 110.194036 63.966619 
L 113.765236 62.96489 
L 118.635055 61.326543 
L 123.504873 59.72961 
L 126.102109 59.098729 
L 128.374691 58.774809 
L 130.322618 58.712173 
L 132.270545 58.87429 
L 134.218473 59.271586 
L 136.1664 59.89832 
L 138.438982 60.88909 
L 141.036218 62.288689 
L 145.256727 64.875611 
L 149.801891 67.592205 
L 152.723782 69.093808 
L 155.321018 70.197505 
L 157.5936 70.949873 
L 159.866182 71.463837 
L 161.814109 71.67669 
L 163.762036 71.641325 
L 165.385309 71.398156 
L 167.008582 70.946844 
L 168.631855 70.285158 
L 170.579782 69.231107 
L 172.852364 67.710833 
L 180.319418 62.422482 
L 181.942691 61.644102 
L 183.565964 61.112188 
L 185.189236 60.848923 
L 186.812509 60.858445 
L 188.435782 61.128981 
L 190.059055 61.636451 
L 192.006982 62.512309 
L 194.279564 63.820127 
L 197.526109 66.010255 
L 201.746618 68.867422 
L 203.694545 69.945332 
L 205.317818 70.618003 
L 206.941091 71.022699 
L 208.239709 71.121539 
L 209.538327 71.003606 
L 210.836945 70.664436 
L 212.135564 70.111762 
L 213.758836 69.1533 
L 215.706764 67.702994 
L 221.550545 63.069639 
L 223.173818 62.172017 
L 224.472436 61.680439 
L 225.771055 61.412466 
L 227.069673 61.375342 
L 228.368291 61.564414 
L 229.666909 61.964483 
L 231.290182 62.724164 
L 233.238109 63.934214 
L 236.16 66.094154 
L 239.406545 68.473687 
L 241.354473 69.636684 
L 242.977745 70.342445 
L 244.276364 70.6917 
L 245.574982 70.825265 
L 246.8736 70.730419 
L 248.172218 70.40538 
L 249.470836 69.8605 
L 251.094109 68.906275 
L 253.042036 67.457201 
L 258.885818 62.822101 
L 260.509091 61.919268 
L 261.807709 61.418541 
L 263.106327 61.134452 
L 264.404945 61.071578 
L 265.703564 61.222631 
L 267.002182 61.570304 
L 268.625455 62.242975 
L 270.573382 63.320885 
L 273.170618 65.039146 
L 278.689745 68.767472 
L 280.962327 69.996822 
L 282.910255 70.781347 
L 284.533527 71.197549 
L 286.1568 71.365971 
L 287.780073 71.266969 
L 289.403345 70.894764 
L 291.026618 70.260566 
L 292.649891 69.393902 
L 294.597818 68.114013 
L 298.493673 65.194235 
L 301.090909 63.364092 
L 303.038836 62.224627 
L 304.986764 61.357127 
L 306.610036 60.863515 
L 308.233309 60.579456 
L 309.856582 60.494047 
L 311.804509 60.628198 
L 313.752436 60.986304 
L 316.025018 61.641879 
L 318.622255 62.65276 
L 321.219491 63.898262 
L 324.466036 65.719135 
L 334.205673 71.455976 
L 336.478255 72.409631 
L 338.426182 72.999233 
L 340.374109 73.35728 
L 342.322036 73.4808 
L 344.269964 73.382748 
L 346.542545 73.024189 
L 349.139782 72.364895 
L 352.710982 71.201313 
L 359.853382 68.833661 
L 363.424582 67.91506 
L 366.995782 67.233983 
L 370.891636 66.734739 
L 375.4368 66.395416 
L 381.280582 66.195059 
L 391.344873 66.105424 
L 398.487273 66.096055 
L 398.487273 66.096055 
" style="fill:none;stroke:#17becf;stroke-linecap:square;stroke-width:1.5;"/>
   </g>
   <g id="patch_3">
    <path d="M 57.6 307.584 
L 57.6 41.472 
" style="fill:none;stroke:#000000;stroke-linecap:square;stroke-linejoin:miter;stroke-width:0.8;"/>
   </g>
   <g id="patch_4">
    <path d="M 414.72 307.584 
L 414.72 41.472 
" style="fill:none;stroke:#000000;stroke-linecap:square;stroke-linejoin:miter;stroke-width:0.8;"/>
   </g>
   <g id="patch_5">
    <path d="M 57.6 307.584 
L 414.72 307.584 
" style="fill:none;stroke:#000000;stroke-linecap:square;stroke-linejoin:miter;stroke-width:0.8;"/>
   </g>
   <g id="patch_6">
    <path d="M 57.6 41.472 
L 414.72 41.472 
" style="fill:none;stroke:#000000;stroke-linecap:square;stroke-linejoin:miter;stroke-width:0.8;"/>
   </g>
  </g>
 </g>
 <defs>
  <clipPath id="p251daa493b">
   <rect height="266.112" width="357.12" x="57.6" y="41.472"/>
  </clipPath>
 </defs>
</svg>
