<?xml version="1.0" encoding="utf-8" standalone="no"?>
<!DOCTYPE svg PUBLIC "-//W3C//DTD SVG 1.1//EN"
  "http://www.w3.org/Graphics/SVG/1.1/DTD/svg11.dtd">
<!-- Created with matplotlib (http://matplotlib.org/) -->
<svg height="345pt" version="1.1" viewBox="0 0 460 345" width="460pt" xmlns="http://www.w3.org/2000/svg" xmlns:xlink="http://www.w3.org/1999/xlink">
 <defs>
  <style type="text/css">
*{stroke-linecap:butt;stroke-linejoin:round;}
  </style>
 </defs>
 <g id="figure_1">
  <g id="patch_1">
   <path d="M 0 345.6 
L 460.8 345.6 
L 460.8 0 
L 0 0 
z
" style="fill:none;opacity:0;"/>
  </g>
  <g id="axes_1">
   <g id="patch_2">
    <path d="M 57.6 307.584 
L 414.72 307.584 
L 414.72 41.472 
L 57.6 41.472 
z
" style="fill:#ffffff;"/>
   </g>
   <g id="matplotlib.axis_1">
    <g id="xtick_1">
     <g id="line2d_1">
      <defs>
       <path d="M 0 0 
L 0 3.5 
" id="mc4e22864a5" style="stroke:#000000;stroke-width:0.8;"/>
      </defs>
      <g>
       <use style="stroke:#000000;stroke-width:0.8;" x="106.298182" xlink:href="#mc4e22864a5" y="307.584"/>
      </g>
     </g>
     <g id="text_1">
      <!-- −4 -->
      <defs>
       <path d="M 10.59375 35.5 
L 73.1875 35.5 
L 73.1875 27.203125 
L 10.59375 27.203125 
z
" id="DejaVuSans-2212"/>
       <path d="M 37.796875 64.3125 
L 12.890625 25.390625 
L 37.796875 25.390625 
z
M 35.203125 72.90625 
L 47.609375 72.90625 
L 47.609375 25.390625 
L 58.015625 25.390625 
L 58.015625 17.1875 
L 47.609375 17.1875 
L 47.609375 0 
L 37.796875 0 
L 37.796875 17.1875 
L 4.890625 17.1875 
L 4.890625 26.703125 
z
" id="DejaVuSans-34"/>
      </defs>
      <g transform="translate(98.927088 322.182437)scale(0.1 -0.1)">
       <use xlink:href="#DejaVuSans-2212"/>
       <use x="83.789062" xlink:href="#DejaVuSans-34"/>
      </g>
     </g>
    </g>
    <g id="xtick_2">
     <g id="line2d_2">
      <g>
       <use style="stroke:#000000;stroke-width:0.8;" x="171.229091" xlink:href="#mc4e22864a5" y="307.584"/>
      </g>
     </g>
     <g id="text_2">
      <!-- −2 -->
      <defs>
       <path d="M 19.1875 8.296875 
L 53.609375 8.296875 
L 53.609375 0 
L 7.328125 0 
L 7.328125 8.296875 
Q 12.9375 14.109375 22.625 23.890625 
Q 32.328125 33.6875 34.8125 36.53125 
Q 39.546875 41.84375 41.421875 45.53125 
Q 43.3125 49.21875 43.3125 52.78125 
Q 43.3125 58.59375 39.234375 62.25 
Q 35.15625 65.921875 28.609375 65.921875 
Q 23.96875 65.921875 18.8125 64.3125 
Q 13.671875 62.703125 7.8125 59.421875 
L 7.8125 69.390625 
Q 13.765625 71.78125 18.9375 73 
Q 24.125 74.21875 28.421875 74.21875 
Q 39.75 74.21875 46.484375 68.546875 
Q 53.21875 62.890625 53.21875 53.421875 
Q 53.21875 48.921875 51.53125 44.890625 
Q 49.859375 40.875 45.40625 35.40625 
Q 44.1875 33.984375 37.640625 27.21875 
Q 31.109375 20.453125 19.1875 8.296875 
z
" id="DejaVuSans-32"/>
      </defs>
      <g transform="translate(163.857997 322.182437)scale(0.1 -0.1)">
       <use xlink:href="#DejaVuSans-2212"/>
       <use x="83.789062" xlink:href="#DejaVuSans-32"/>
      </g>
     </g>
    </g>
    <g id="xtick_3">
     <g id="line2d_3">
      <g>
       <use style="stroke:#000000;stroke-width:0.8;" x="236.16" xlink:href="#mc4e22864a5" y="307.584"/>
      </g>
     </g>
     <g id="text_3">
      <!-- 0 -->
      <defs>
       <path d="M 31.78125 66.40625 
Q 24.171875 66.40625 20.328125 58.90625 
Q 16.5 51.421875 16.5 36.375 
Q 16.5 21.390625 20.328125 13.890625 
Q 24.171875 6.390625 31.78125 6.390625 
Q 39.453125 6.390625 43.28125 13.890625 
Q 47.125 21.390625 47.125 36.375 
Q 47.125 51.421875 43.28125 58.90625 
Q 39.453125 66.40625 31.78125 66.40625 
z
M 31.78125 74.21875 
Q 44.046875 74.21875 50.515625 64.515625 
Q 56.984375 54.828125 56.984375 36.375 
Q 56.984375 17.96875 50.515625 8.265625 
Q 44.046875 -1.421875 31.78125 -1.421875 
Q 19.53125 -1.421875 13.0625 8.265625 
Q 6.59375 17.96875 6.59375 36.375 
Q 6.59375 54.828125 13.0625 64.515625 
Q 19.53125 74.21875 31.78125 74.21875 
z
" id="DejaVuSans-30"/>
      </defs>
      <g transform="translate(232.97875 322.182437)scale(0.1 -0.1)">
       <use xlink:href="#DejaVuSans-30"/>
      </g>
     </g>
    </g>
    <g id="xtick_4">
     <g id="line2d_4">
      <g>
       <use style="stroke:#000000;stroke-width:0.8;" x="301.090909" xlink:href="#mc4e22864a5" y="307.584"/>
      </g>
     </g>
     <g id="text_4">
      <!-- 2 -->
      <g transform="translate(297.909659 322.182437)scale(0.1 -0.1)">
       <use xlink:href="#DejaVuSans-32"/>
      </g>
     </g>
    </g>
    <g id="xtick_5">
     <g id="line2d_5">
      <g>
       <use style="stroke:#000000;stroke-width:0.8;" x="366.021818" xlink:href="#mc4e22864a5" y="307.584"/>
      </g>
     </g>
     <g id="text_5">
      <!-- 4 -->
      <g transform="translate(362.840568 322.182437)scale(0.1 -0.1)">
       <use xlink:href="#DejaVuSans-34"/>
      </g>
     </g>
    </g>
    <g id="text_6">
     <!-- $x$ -->
     <defs>
      <path d="M 7.8125 2.875 
Q 9.578125 1.515625 12.796875 1.515625 
Q 15.921875 1.515625 18.3125 4.515625 
Q 20.703125 7.515625 21.578125 11.078125 
L 26.125 28.8125 
Q 27.203125 33.640625 27.203125 35.40625 
Q 27.203125 37.890625 25.8125 39.75 
Q 24.421875 41.609375 21.921875 41.609375 
Q 18.75 41.609375 15.96875 39.625 
Q 13.1875 37.640625 11.28125 34.59375 
Q 9.375 31.546875 8.59375 28.421875 
Q 8.40625 27.78125 7.8125 27.78125 
L 6.59375 27.78125 
Q 5.8125 27.78125 5.8125 28.71875 
L 5.8125 29 
Q 6.78125 32.71875 9.125 36.25 
Q 11.46875 39.796875 14.859375 41.984375 
Q 18.265625 44.1875 22.125 44.1875 
Q 25.78125 44.1875 28.734375 42.234375 
Q 31.6875 40.28125 32.90625 36.921875 
Q 34.625 39.984375 37.28125 42.078125 
Q 39.9375 44.1875 43.109375 44.1875 
Q 45.265625 44.1875 47.5 43.421875 
Q 49.75 42.671875 51.171875 41.109375 
Q 52.59375 39.546875 52.59375 37.203125 
Q 52.59375 34.671875 50.953125 32.828125 
Q 49.3125 31 46.78125 31 
Q 45.171875 31 44.09375 32.03125 
Q 43.015625 33.0625 43.015625 34.625 
Q 43.015625 36.71875 44.453125 38.296875 
Q 45.90625 39.890625 47.90625 40.1875 
Q 46.09375 41.609375 42.921875 41.609375 
Q 39.703125 41.609375 37.328125 38.625 
Q 34.96875 35.640625 33.984375 31.984375 
L 29.59375 14.3125 
Q 28.515625 10.296875 28.515625 7.71875 
Q 28.515625 5.171875 29.953125 3.34375 
Q 31.390625 1.515625 33.796875 1.515625 
Q 38.484375 1.515625 42.15625 5.640625 
Q 45.84375 9.765625 47.015625 14.703125 
Q 47.21875 15.28125 47.796875 15.28125 
L 49.03125 15.28125 
Q 49.421875 15.28125 49.65625 15.015625 
Q 49.90625 14.75 49.90625 14.40625 
Q 49.90625 14.3125 49.8125 14.109375 
Q 48.390625 8.15625 43.84375 3.515625 
Q 39.3125 -1.125 33.59375 -1.125 
Q 29.9375 -1.125 26.984375 0.84375 
Q 24.03125 2.828125 22.796875 6.203125 
Q 21.234375 3.265625 18.46875 1.0625 
Q 15.71875 -1.125 12.59375 -1.125 
Q 10.453125 -1.125 8.171875 -0.359375 
Q 5.90625 0.390625 4.484375 1.953125 
Q 3.078125 3.515625 3.078125 5.90625 
Q 3.078125 8.25 4.703125 10.171875 
Q 6.34375 12.109375 8.796875 12.109375 
Q 10.453125 12.109375 11.578125 11.109375 
Q 12.703125 10.109375 12.703125 8.5 
Q 12.703125 6.390625 11.296875 4.828125 
Q 9.90625 3.265625 7.8125 2.875 
z
" id="Cmmi10-78"/>
     </defs>
     <g transform="translate(233.26 335.860562)scale(0.1 -0.1)">
      <use transform="translate(0 0.8125)" xlink:href="#Cmmi10-78"/>
     </g>
    </g>
   </g>
   <g id="matplotlib.axis_2">
    <g id="ytick_1">
     <g id="line2d_6">
      <defs>
       <path d="M 0 0 
L -3.5 0 
" id="ma798da83d6" style="stroke:#000000;stroke-width:0.8;"/>
      </defs>
      <g>
       <use style="stroke:#000000;stroke-width:0.8;" x="57.6" xlink:href="#ma798da83d6" y="307.584"/>
      </g>
     </g>
     <g id="text_7">
      <!-- 0 -->
      <g transform="translate(44.2375 311.383219)scale(0.1 -0.1)">
       <use xlink:href="#DejaVuSans-30"/>
      </g>
     </g>
    </g>
    <g id="ytick_2">
     <g id="line2d_7">
      <g>
       <use style="stroke:#000000;stroke-width:0.8;" x="57.6" xlink:href="#ma798da83d6" y="277.674895"/>
      </g>
     </g>
     <g id="text_8">
      <!-- 2 -->
      <g transform="translate(44.2375 281.474113)scale(0.1 -0.1)">
       <use xlink:href="#DejaVuSans-32"/>
      </g>
     </g>
    </g>
    <g id="ytick_3">
     <g id="line2d_8">
      <g>
       <use style="stroke:#000000;stroke-width:0.8;" x="57.6" xlink:href="#ma798da83d6" y="247.765789"/>
      </g>
     </g>
     <g id="text_9">
      <!-- 4 -->
      <g transform="translate(44.2375 251.565008)scale(0.1 -0.1)">
       <use xlink:href="#DejaVuSans-34"/>
      </g>
     </g>
    </g>
    <g id="ytick_4">
     <g id="line2d_9">
      <g>
       <use style="stroke:#000000;stroke-width:0.8;" x="57.6" xlink:href="#ma798da83d6" y="217.856684"/>
      </g>
     </g>
     <g id="text_10">
      <!-- 6 -->
      <defs>
       <path d="M 33.015625 40.375 
Q 26.375 40.375 22.484375 35.828125 
Q 18.609375 31.296875 18.609375 23.390625 
Q 18.609375 15.53125 22.484375 10.953125 
Q 26.375 6.390625 33.015625 6.390625 
Q 39.65625 6.390625 43.53125 10.953125 
Q 47.40625 15.53125 47.40625 23.390625 
Q 47.40625 31.296875 43.53125 35.828125 
Q 39.65625 40.375 33.015625 40.375 
z
M 52.59375 71.296875 
L 52.59375 62.3125 
Q 48.875 64.0625 45.09375 64.984375 
Q 41.3125 65.921875 37.59375 65.921875 
Q 27.828125 65.921875 22.671875 59.328125 
Q 17.53125 52.734375 16.796875 39.40625 
Q 19.671875 43.65625 24.015625 45.921875 
Q 28.375 48.1875 33.59375 48.1875 
Q 44.578125 48.1875 50.953125 41.515625 
Q 57.328125 34.859375 57.328125 23.390625 
Q 57.328125 12.15625 50.6875 5.359375 
Q 44.046875 -1.421875 33.015625 -1.421875 
Q 20.359375 -1.421875 13.671875 8.265625 
Q 6.984375 17.96875 6.984375 36.375 
Q 6.984375 53.65625 15.1875 63.9375 
Q 23.390625 74.21875 37.203125 74.21875 
Q 40.921875 74.21875 44.703125 73.484375 
Q 48.484375 72.75 52.59375 71.296875 
z
" id="DejaVuSans-36"/>
      </defs>
      <g transform="translate(44.2375 221.655902)scale(0.1 -0.1)">
       <use xlink:href="#DejaVuSans-36"/>
      </g>
     </g>
    </g>
    <g id="ytick_5">
     <g id="line2d_10">
      <g>
       <use style="stroke:#000000;stroke-width:0.8;" x="57.6" xlink:href="#ma798da83d6" y="187.947578"/>
      </g>
     </g>
     <g id="text_11">
      <!-- 8 -->
      <defs>
       <path d="M 31.78125 34.625 
Q 24.75 34.625 20.71875 30.859375 
Q 16.703125 27.09375 16.703125 20.515625 
Q 16.703125 13.921875 20.71875 10.15625 
Q 24.75 6.390625 31.78125 6.390625 
Q 38.8125 6.390625 42.859375 10.171875 
Q 46.921875 13.96875 46.921875 20.515625 
Q 46.921875 27.09375 42.890625 30.859375 
Q 38.875 34.625 31.78125 34.625 
z
M 21.921875 38.8125 
Q 15.578125 40.375 12.03125 44.71875 
Q 8.5 49.078125 8.5 55.328125 
Q 8.5 64.0625 14.71875 69.140625 
Q 20.953125 74.21875 31.78125 74.21875 
Q 42.671875 74.21875 48.875 69.140625 
Q 55.078125 64.0625 55.078125 55.328125 
Q 55.078125 49.078125 51.53125 44.71875 
Q 48 40.375 41.703125 38.8125 
Q 48.828125 37.15625 52.796875 32.3125 
Q 56.78125 27.484375 56.78125 20.515625 
Q 56.78125 9.90625 50.3125 4.234375 
Q 43.84375 -1.421875 31.78125 -1.421875 
Q 19.734375 -1.421875 13.25 4.234375 
Q 6.78125 9.90625 6.78125 20.515625 
Q 6.78125 27.484375 10.78125 32.3125 
Q 14.796875 37.15625 21.921875 38.8125 
z
M 18.3125 54.390625 
Q 18.3125 48.734375 21.84375 45.5625 
Q 25.390625 42.390625 31.78125 42.390625 
Q 38.140625 42.390625 41.71875 45.5625 
Q 45.3125 48.734375 45.3125 54.390625 
Q 45.3125 60.0625 41.71875 63.234375 
Q 38.140625 66.40625 31.78125 66.40625 
Q 25.390625 66.40625 21.84375 63.234375 
Q 18.3125 60.0625 18.3125 54.390625 
z
" id="DejaVuSans-38"/>
      </defs>
      <g transform="translate(44.2375 191.746797)scale(0.1 -0.1)">
       <use xlink:href="#DejaVuSans-38"/>
      </g>
     </g>
    </g>
    <g id="ytick_6">
     <g id="line2d_11">
      <g>
       <use style="stroke:#000000;stroke-width:0.8;" x="57.6" xlink:href="#ma798da83d6" y="158.038473"/>
      </g>
     </g>
     <g id="text_12">
      <!-- 10 -->
      <defs>
       <path d="M 12.40625 8.296875 
L 28.515625 8.296875 
L 28.515625 63.921875 
L 10.984375 60.40625 
L 10.984375 69.390625 
L 28.421875 72.90625 
L 38.28125 72.90625 
L 38.28125 8.296875 
L 54.390625 8.296875 
L 54.390625 0 
L 12.40625 0 
z
" id="DejaVuSans-31"/>
      </defs>
      <g transform="translate(37.875 161.837692)scale(0.1 -0.1)">
       <use xlink:href="#DejaVuSans-31"/>
       <use x="63.623047" xlink:href="#DejaVuSans-30"/>
      </g>
     </g>
    </g>
    <g id="ytick_7">
     <g id="line2d_12">
      <g>
       <use style="stroke:#000000;stroke-width:0.8;" x="57.6" xlink:href="#ma798da83d6" y="128.129367"/>
      </g>
     </g>
     <g id="text_13">
      <!-- 12 -->
      <g transform="translate(37.875 131.928586)scale(0.1 -0.1)">
       <use xlink:href="#DejaVuSans-31"/>
       <use x="63.623047" xlink:href="#DejaVuSans-32"/>
      </g>
     </g>
    </g>
    <g id="ytick_8">
     <g id="line2d_13">
      <g>
       <use style="stroke:#000000;stroke-width:0.8;" x="57.6" xlink:href="#ma798da83d6" y="98.220262"/>
      </g>
     </g>
     <g id="text_14">
      <!-- 14 -->
      <g transform="translate(37.875 102.019481)scale(0.1 -0.1)">
       <use xlink:href="#DejaVuSans-31"/>
       <use x="63.623047" xlink:href="#DejaVuSans-34"/>
      </g>
     </g>
    </g>
    <g id="ytick_9">
     <g id="line2d_14">
      <g>
       <use style="stroke:#000000;stroke-width:0.8;" x="57.6" xlink:href="#ma798da83d6" y="68.311157"/>
      </g>
     </g>
     <g id="text_15">
      <!-- 16 -->
      <g transform="translate(37.875 72.110375)scale(0.1 -0.1)">
       <use xlink:href="#DejaVuSans-31"/>
       <use x="63.623047" xlink:href="#DejaVuSans-36"/>
      </g>
     </g>
    </g>
    <g id="text_16">
     <!-- $\psi(x)$ -->
     <defs>
      <path d="M 23.78125 -19.484375 
L 28.515625 -0.875 
Q 24.171875 -0.875 20.09375 0.75 
Q 16.015625 2.390625 13.5 5.5625 
Q 10.984375 8.734375 10.984375 13.28125 
Q 10.984375 15.875 11.90625 19.1875 
Q 12.84375 22.515625 13.890625 25.296875 
Q 14.9375 28.078125 16.703125 32.625 
Q 18.015625 36.28125 18.015625 38.625 
Q 18.015625 41.609375 15.828125 41.609375 
Q 11.859375 41.609375 9.296875 37.53125 
Q 6.734375 33.453125 5.515625 28.421875 
Q 5.328125 27.78125 4.6875 27.78125 
L 3.515625 27.78125 
Q 2.6875 27.78125 2.6875 28.71875 
L 2.6875 29 
Q 4.296875 34.96875 7.609375 39.578125 
Q 10.9375 44.1875 16.015625 44.1875 
Q 19.578125 44.1875 22.046875 41.84375 
Q 24.515625 39.5 24.515625 35.890625 
Q 24.515625 34.03125 23.6875 31.984375 
Q 21.921875 27.4375 20.890625 24.75 
Q 19.875 22.078125 18.9375 18.671875 
Q 18.015625 15.28125 18.015625 12.59375 
Q 18.015625 7.71875 21.0625 5.03125 
Q 24.125 2.34375 29.109375 1.703125 
L 45.90625 68.796875 
Q 46.09375 69.390625 46.6875 69.390625 
L 47.90625 69.390625 
Q 48.6875 69.390625 48.6875 68.40625 
L 31.984375 1.515625 
L 33.109375 1.515625 
Q 37.3125 1.515625 41.96875 4 
Q 46.625 6.5 50.453125 10.546875 
Q 54.296875 14.59375 56.546875 19.25 
Q 58.796875 23.921875 58.796875 27.984375 
Q 58.796875 31 57.8125 32.6875 
Q 56.84375 34.375 55.28125 36.203125 
Q 53.71875 38.03125 53.71875 39.109375 
Q 53.71875 41.0625 55.328125 42.671875 
Q 56.9375 44.28125 58.890625 44.28125 
Q 61.28125 44.28125 62.328125 42.078125 
Q 63.375 39.890625 63.375 37.109375 
Q 63.375 34.1875 62.78125 31.25 
Q 62.203125 28.328125 61.1875 24.3125 
Q 58.890625 15.1875 51.609375 7.90625 
Q 49.125 5.421875 46.109375 3.34375 
Q 43.109375 1.265625 39.765625 0.0625 
Q 36.421875 -1.125 33.015625 -1.125 
L 31.390625 -1.125 
L 26.703125 -19.921875 
Q 26.515625 -20.515625 25.875 -20.515625 
L 24.703125 -20.515625 
Q 24.3125 -20.515625 24.046875 -20.1875 
Q 23.78125 -19.875 23.78125 -19.484375 
z
" id="Cmmi10-c3"/>
      <path d="M 31 -24.8125 
Q 25.4375 -20.40625 21.40625 -14.71875 
Q 17.390625 -9.03125 14.8125 -2.578125 
Q 12.25 3.859375 10.984375 10.890625 
Q 9.71875 17.921875 9.71875 25 
Q 9.71875 32.171875 10.984375 39.203125 
Q 12.25 46.234375 14.859375 52.734375 
Q 17.484375 59.234375 21.53125 64.890625 
Q 25.59375 70.5625 31 74.8125 
Q 31 75 31.5 75 
L 32.421875 75 
Q 32.71875 75 32.953125 74.734375 
Q 33.203125 74.46875 33.203125 74.125 
Q 33.203125 73.6875 33.015625 73.484375 
Q 28.125 68.703125 24.875 63.234375 
Q 21.625 57.765625 19.640625 51.578125 
Q 17.671875 45.40625 16.796875 38.78125 
Q 15.921875 32.171875 15.921875 25 
Q 15.921875 -6.78125 32.90625 -23.296875 
Q 33.203125 -23.578125 33.203125 -24.125 
Q 33.203125 -24.359375 32.9375 -24.671875 
Q 32.671875 -25 32.421875 -25 
L 31.5 -25 
Q 31 -25 31 -24.8125 
z
" id="Cmr10-28"/>
      <path d="M 6.5 -25 
Q 5.609375 -25 5.609375 -24.125 
Q 5.609375 -23.6875 5.8125 -23.484375 
Q 22.90625 -6.78125 22.90625 25 
Q 22.90625 56.78125 6 73.296875 
Q 5.609375 73.53125 5.609375 74.125 
Q 5.609375 74.46875 5.875 74.734375 
Q 6.15625 75 6.5 75 
L 7.421875 75 
Q 7.71875 75 7.90625 74.8125 
Q 15.09375 69.140625 19.875 61.03125 
Q 24.65625 52.9375 26.875 43.75 
Q 29.109375 34.578125 29.109375 25 
Q 29.109375 17.921875 27.90625 11.0625 
Q 26.703125 4.203125 24.09375 -2.453125 
Q 21.484375 -9.125 17.484375 -14.765625 
Q 13.484375 -20.40625 7.90625 -24.8125 
Q 7.71875 -25 7.421875 -25 
z
" id="Cmr10-29"/>
     </defs>
     <g transform="translate(31.375 184.528)rotate(-90)scale(0.1 -0.1)">
      <use xlink:href="#Cmmi10-c3"/>
      <use transform="translate(65.087891 0)" xlink:href="#Cmr10-28"/>
      <use transform="translate(103.90625 0)" xlink:href="#Cmmi10-78"/>
      <use transform="translate(160.986328 0)" xlink:href="#Cmr10-29"/>
     </g>
    </g>
   </g>
   <g id="line2d_15">
    <path clip-path="url(#pb4617302c0)" d="M 123.318976 -1 
L 126.426764 26.978395 
L 129.348655 51.439967 
L 132.270545 74.20684 
L 135.192436 95.363915 
L 138.114327 114.993743 
L 141.036218 133.176517 
L 143.958109 149.990077 
L 146.88 165.509908 
L 149.801891 179.809138 
L 152.723782 192.958544 
L 155.645673 205.026545 
L 158.567564 216.079206 
L 161.489455 226.180238 
L 164.086691 234.409689 
L 166.683927 241.977276 
L 169.281164 248.923061 
L 171.8784 255.285632 
L 174.475636 261.10211 
L 177.072873 266.408144 
L 179.670109 271.237914 
L 182.267345 275.62413 
L 184.864582 279.598031 
L 187.461818 283.189386 
L 190.059055 286.426495 
L 192.656291 289.336187 
L 195.253527 291.94382 
L 198.175418 294.546042 
L 201.097309 296.827954 
L 204.0192 298.818993 
L 206.941091 300.546238 
L 209.862982 302.034415 
L 213.109527 303.434685 
L 216.356073 304.594647 
L 219.927273 305.621215 
L 223.498473 306.41211 
L 227.394327 307.030959 
L 231.290182 307.415004 
L 235.186036 307.577269 
L 239.081891 307.523336 
L 242.977745 307.251344 
L 246.8736 306.75199 
L 250.4448 306.080348 
L 254.016 305.18528 
L 257.262545 304.157903 
L 260.509091 302.904861 
L 263.755636 301.401031 
L 266.677527 299.809503 
L 269.599418 297.968209 
L 272.521309 295.851377 
L 275.4432 293.430879 
L 278.040436 290.999807 
L 280.637673 288.28178 
L 283.234909 285.252357 
L 285.832145 281.885629 
L 288.429382 278.154214 
L 291.026618 274.029263 
L 293.623855 269.480454 
L 296.221091 264.475997 
L 298.818327 258.982631 
L 301.415564 252.965625 
L 304.0128 246.388778 
L 306.610036 239.214418 
L 309.207273 231.403406 
L 311.804509 222.915128 
L 314.401745 213.707505 
L 316.998982 203.736984 
L 319.596218 192.958544 
L 322.518109 179.809138 
L 325.44 165.509908 
L 328.361891 149.990077 
L 331.283782 133.176517 
L 334.205673 114.993743 
L 337.127564 95.363915 
L 340.049455 74.20684 
L 342.971345 51.439967 
L 345.893236 26.978395 
L 349.001024 -1 
L 349.001024 -1 
" style="fill:none;stroke:#000000;stroke-linecap:square;stroke-width:1.5;"/>
   </g>
   <g id="line2d_16">
    <path clip-path="url(#pb4617302c0)" d="M 73.832727 299.22222 
L 157.5936 299.114453 
L 169.605818 298.853928 
L 179.0208 298.426783 
L 187.786473 297.800225 
L 197.201455 296.894886 
L 222.524509 294.305342 
L 229.342255 293.924598 
L 235.510691 293.79333 
L 241.679127 293.879256 
L 248.172218 294.194243 
L 255.639273 294.794096 
L 265.703564 295.852425 
L 282.260945 297.601444 
L 291.026618 298.286301 
L 299.792291 298.746417 
L 309.856582 299.038472 
L 323.492073 299.186033 
L 354.0096 299.222046 
L 398.487273 299.22222 
L 398.487273 299.22222 
" style="fill:none;stroke:#1f77b4;stroke-linecap:square;stroke-width:1.5;"/>
   </g>
   <g id="line2d_17">
    <path clip-path="url(#pb4617302c0)" d="M 73.832727 281.121876 
L 145.581382 281.231846 
L 155.321018 281.48386 
L 162.788073 281.895647 
L 169.281164 282.474418 
L 175.774255 283.281427 
L 183.565964 284.497407 
L 195.902836 286.456062 
L 200.772655 286.988857 
L 204.993164 287.233733 
L 208.889018 287.237416 
L 212.460218 287.030757 
L 216.031418 286.614224 
L 219.927273 285.924562 
L 223.823127 285.009664 
L 228.368291 283.707208 
L 234.536727 281.67832 
L 244.925673 278.239631 
L 249.470836 276.985997 
L 253.366691 276.124578 
L 257.262545 275.495086 
L 260.833745 275.135977 
L 264.404945 274.985557 
L 268.3008 275.045715 
L 272.521309 275.342391 
L 277.391127 275.919225 
L 284.208873 276.982134 
L 297.519709 279.097345 
L 304.0128 279.870707 
L 310.505891 280.416003 
L 317.648291 280.785119 
L 326.738618 281.011913 
L 341.023418 281.109611 
L 398.487273 281.121883 
L 398.487273 281.121883 
" style="fill:none;stroke:#ff7f0e;stroke-linecap:square;stroke-width:1.5;"/>
   </g>
   <g id="line2d_18">
    <path clip-path="url(#pb4617302c0)" d="M 73.832727 260.647116 
L 136.491055 260.754639 
L 145.256727 261.007123 
L 151.425164 261.390907 
L 156.944291 261.954365 
L 162.138764 262.714813 
L 167.333236 263.699521 
L 174.475636 265.309137 
L 181.942691 266.950052 
L 185.838545 267.592228 
L 189.085091 267.924198 
L 192.006982 268.020317 
L 194.928873 267.89375 
L 197.850764 267.524975 
L 200.772655 266.906799 
L 203.694545 266.046066 
L 206.941091 264.832053 
L 210.512291 263.243096 
L 215.706764 260.653366 
L 221.8752 257.612828 
L 225.4464 256.113346 
L 228.368291 255.132186 
L 230.965527 254.490992 
L 233.562764 254.095222 
L 235.835345 253.963526 
L 238.107927 254.036803 
L 240.380509 254.312697 
L 242.977745 254.864462 
L 245.574982 255.646102 
L 248.496873 256.75966 
L 252.068073 258.375319 
L 258.236509 261.480831 
L 263.430982 263.993115 
L 267.002182 265.470439 
L 269.924073 266.457517 
L 272.845964 267.212234 
L 275.767855 267.719547 
L 278.689745 267.979004 
L 281.611636 268.003539 
L 284.858182 267.785075 
L 288.429382 267.299143 
L 292.649891 266.488229 
L 300.4416 264.704308 
L 307.259345 263.243118 
L 312.453818 262.353506 
L 317.648291 261.69354 
L 323.167418 261.22319 
L 329.660509 260.904353 
L 338.426182 260.719254 
L 354.334255 260.650955 
L 398.487273 260.647116 
L 398.487273 260.647116 
" style="fill:none;stroke:#2ca02c;stroke-linecap:square;stroke-width:1.5;"/>
   </g>
   <g id="line2d_19">
    <path clip-path="url(#pb4617302c0)" d="M 73.832727 238.361343 
L 130.647273 238.252308 
L 138.763636 238.003936 
L 144.607418 237.615904 
L 149.801891 237.044249 
L 154.671709 236.271727 
L 159.541527 235.270079 
L 166.683927 233.532871 
L 172.527709 232.183204 
L 176.098909 231.573814 
L 179.0208 231.283366 
L 181.618036 231.226986 
L 184.215273 231.390675 
L 186.812509 231.793493 
L 189.409745 232.442182 
L 192.006982 233.329183 
L 194.928873 234.582763 
L 198.175418 236.226272 
L 204.343855 239.675883 
L 208.239709 241.719459 
L 211.1616 242.999762 
L 213.434182 243.77744 
L 215.706764 244.324339 
L 217.654691 244.58912 
L 219.602618 244.654578 
L 221.550545 244.517037 
L 223.498473 244.179595 
L 225.771055 243.546805 
L 228.043636 242.682484 
L 230.640873 241.460068 
L 234.212073 239.498762 
L 242.003782 235.097835 
L 244.601018 233.903423 
L 246.8736 233.070105 
L 249.146182 232.472854 
L 251.094109 232.168224 
L 253.042036 232.064486 
L 254.989964 232.1636 
L 256.937891 232.46078 
L 259.210473 233.042506 
L 261.483055 233.850418 
L 264.080291 235.002775 
L 267.326836 236.688135 
L 277.715782 242.290669 
L 280.637673 243.516325 
L 283.234909 244.374472 
L 285.832145 244.992533 
L 288.429382 245.364816 
L 291.026618 245.499729 
L 293.623855 245.417693 
L 296.545745 245.103339 
L 300.116945 244.472948 
L 304.986764 243.350313 
L 315.375709 240.891498 
L 320.245527 240.008796 
L 325.115345 239.361632 
L 330.309818 238.905262 
L 336.478255 238.599256 
L 344.919273 238.425052 
L 361.152 238.363163 
L 398.487273 238.360892 
L 398.487273 238.360892 
" style="fill:none;stroke:#d62728;stroke-linecap:square;stroke-width:1.5;"/>
   </g>
   <g id="line2d_20">
    <path clip-path="url(#pb4617302c0)" d="M 73.832727 214.561775 
L 124.478836 214.675929 
L 131.945891 214.931315 
L 137.140364 215.31543 
L 141.685527 215.872507 
L 145.906036 216.626352 
L 149.801891 217.544014 
L 154.347055 218.85875 
L 166.034618 222.433945 
L 168.956509 222.990563 
L 171.229091 223.216719 
L 173.501673 223.22143 
L 175.4496 223.026608 
L 177.397527 222.634578 
L 179.345455 222.039476 
L 181.618036 221.091689 
L 183.890618 219.88865 
L 186.487855 218.246335 
L 189.7344 215.908779 
L 196.8768 210.659337 
L 199.149382 209.27985 
L 201.097309 208.316543 
L 203.045236 207.599956 
L 204.668509 207.215272 
L 206.291782 207.038198 
L 207.915055 207.076132 
L 209.538327 207.330175 
L 211.1616 207.79492 
L 213.109527 208.613542 
L 215.057455 209.685741 
L 217.330036 211.19771 
L 220.576582 213.676432 
L 226.420364 218.194114 
L 228.692945 219.65611 
L 230.640873 220.66729 
L 232.5888 221.406777 
L 234.212073 221.791077 
L 235.835345 221.951326 
L 237.458618 221.882504 
L 239.081891 221.586766 
L 240.705164 221.073379 
L 242.653091 220.193087 
L 244.601018 219.062395 
L 246.8736 217.494857 
L 250.4448 214.715166 
L 254.989964 211.19771 
L 257.5872 209.49117 
L 259.535127 208.458468 
L 261.483055 207.685594 
L 263.106327 207.262243 
L 264.7296 207.051199 
L 266.352873 207.05656 
L 267.976145 207.275943 
L 269.599418 207.700734 
L 271.547345 208.460991 
L 273.495273 209.461562 
L 275.767855 210.874739 
L 279.0144 213.200834 
L 286.1568 218.464967 
L 288.754036 220.075007 
L 291.026618 221.243314 
L 293.2992 222.15278 
L 295.247127 222.713952 
L 297.195055 223.072509 
L 299.467636 223.244566 
L 301.740218 223.173204 
L 304.0128 222.890278 
L 306.610036 222.356993 
L 309.856582 221.466107 
L 316.025018 219.480097 
L 321.544145 217.805661 
L 325.764655 216.764467 
L 329.660509 216.02487 
L 333.881018 215.450492 
L 338.750836 215.027733 
L 344.594618 214.756296 
L 353.035636 214.606675 
L 371.540945 214.562516 
L 398.487273 214.561775 
L 398.487273 214.561775 
" style="fill:none;stroke:#9467bd;stroke-linecap:square;stroke-width:1.5;"/>
   </g>
   <g id="line2d_21">
    <path clip-path="url(#pb4617302c0)" d="M 73.832727 189.445253 
L 120.907636 189.571965 
L 128.050036 189.841779 
L 133.244509 190.259158 
L 137.465018 190.813071 
L 141.360873 191.538822 
L 145.256727 192.482891 
L 149.801891 193.815683 
L 158.242909 196.359437 
L 161.1648 196.979864 
L 163.762036 197.289494 
L 166.034618 197.320439 
L 167.982545 197.140299 
L 169.930473 196.753073 
L 171.8784 196.151803 
L 173.826327 195.339204 
L 176.098909 194.142562 
L 178.696145 192.498399 
L 182.267345 189.925515 
L 187.461818 186.175882 
L 189.7344 184.793771 
L 191.682327 183.838992 
L 193.630255 183.149705 
L 195.253527 182.806531 
L 196.8768 182.690022 
L 198.500073 182.80753 
L 200.123345 183.158084 
L 201.746618 183.732115 
L 203.694545 184.689908 
L 205.642473 185.896608 
L 208.239709 187.785491 
L 215.382109 193.206925 
L 217.330036 194.365165 
L 219.277964 195.251236 
L 220.901236 195.744686 
L 222.524509 195.993701 
L 224.147782 195.987813 
L 225.771055 195.72655 
L 227.394327 195.219537 
L 229.0176 194.486165 
L 230.965527 193.347934 
L 233.238109 191.746367 
L 237.458618 188.406138 
L 240.705164 185.97645 
L 242.977745 184.577696 
L 244.925673 183.672841 
L 246.548945 183.165827 
L 248.172218 182.904564 
L 249.795491 182.898676 
L 251.418764 183.147691 
L 253.042036 183.641142 
L 254.665309 184.359066 
L 256.613236 185.476126 
L 258.885818 187.050586 
L 262.781673 190.091378 
L 266.352873 192.774552 
L 268.625455 194.202469 
L 270.573382 195.160262 
L 272.196655 195.734294 
L 273.819927 196.084848 
L 275.4432 196.202356 
L 277.066473 196.085846 
L 278.689745 195.742672 
L 280.313018 195.187909 
L 282.260945 194.274164 
L 284.533527 192.928462 
L 287.455418 190.897801 
L 294.922473 185.539659 
L 297.519709 184.03497 
L 299.792291 182.988394 
L 301.740218 182.315868 
L 303.688145 181.857615 
L 305.636073 181.609762 
L 307.908655 181.569271 
L 310.181236 181.765729 
L 312.778473 182.227503 
L 316.025018 183.059495 
L 321.544145 184.770473 
L 327.063273 186.409486 
L 331.283782 187.422444 
L 335.179636 188.13007 
L 339.400145 188.666984 
L 344.269964 189.050598 
L 350.4384 189.297317 
L 359.853382 189.424157 
L 383.553164 189.443031 
L 398.487273 189.447124 
L 398.487273 189.447124 
" style="fill:none;stroke:#8c564b;stroke-linecap:square;stroke-width:1.5;"/>
   </g>
   <g id="line2d_22">
    <path clip-path="url(#pb4617302c0)" d="M 73.832727 163.128878 
L 114.7392 163.029038 
L 122.530909 162.786028 
L 127.400727 162.435678 
L 131.621236 161.909268 
L 135.192436 161.248231 
L 138.763636 160.36579 
L 142.659491 159.169707 
L 153.697745 155.580952 
L 156.294982 155.100136 
L 158.567564 154.93218 
L 160.515491 155.015046 
L 162.463418 155.33186 
L 164.411345 155.895952 
L 166.359273 156.708841 
L 168.3072 157.758586 
L 170.579782 159.246717 
L 173.501673 161.470342 
L 180.644073 167.083552 
L 182.592 168.294358 
L 184.539927 169.228637 
L 186.1632 169.753434 
L 187.786473 170.020324 
L 189.409745 170.013844 
L 191.033018 169.729375 
L 192.656291 169.173897 
L 194.279564 168.366217 
L 196.227491 167.107516 
L 198.500073 165.333232 
L 206.616436 158.623336 
L 208.239709 157.661978 
L 209.862982 156.951089 
L 211.1616 156.586679 
L 212.460218 156.417271 
L 213.758836 156.449108 
L 215.057455 156.682363 
L 216.356073 157.111047 
L 217.979345 157.902816 
L 219.602618 158.944656 
L 221.550545 160.45597 
L 224.472436 163.037753 
L 228.368291 166.441757 
L 230.316218 167.859709 
L 231.939491 168.794988 
L 233.562764 169.456867 
L 234.861382 169.767218 
L 236.16 169.871765 
L 237.458618 169.767218 
L 238.757236 169.456867 
L 240.055855 168.950479 
L 241.679127 168.066614 
L 243.627055 166.696815 
L 245.899636 164.79611 
L 252.068073 159.420926 
L 254.016 158.092562 
L 255.639273 157.247471 
L 257.262545 156.682363 
L 258.561164 156.449108 
L 259.859782 156.417271 
L 261.1584 156.586679 
L 262.457018 156.951089 
L 264.080291 157.661978 
L 265.703564 158.623336 
L 267.651491 160.042092 
L 270.573382 162.509345 
L 275.118545 166.380348 
L 277.066473 167.772702 
L 279.0144 168.879642 
L 280.637673 169.538916 
L 282.260945 169.933289 
L 283.884218 170.051048 
L 285.507491 169.892235 
L 287.130764 169.468097 
L 288.754036 168.800046 
L 290.701964 167.71935 
L 292.974545 166.157092 
L 296.221091 163.59012 
L 301.090909 159.715756 
L 303.688145 157.954936 
L 305.960727 156.708841 
L 307.908655 155.895952 
L 309.856582 155.33186 
L 311.804509 155.015046 
L 313.752436 154.93218 
L 315.700364 155.060303 
L 317.972945 155.436022 
L 320.570182 156.095677 
L 324.141382 157.250872 
L 332.907055 160.181985 
L 336.478255 161.104399 
L 340.049455 161.804938 
L 343.945309 162.335654 
L 348.490473 162.713482 
L 354.334255 162.957764 
L 364.073891 163.109545 
L 382.5792 163.154081 
L 398.487273 163.128878 
L 398.487273 163.128878 
" style="fill:none;stroke:#e377c2;stroke-linecap:square;stroke-width:1.5;"/>
   </g>
   <g id="line2d_23">
    <path clip-path="url(#pb4617302c0)" d="M 73.832727 135.782601 
L 107.921455 135.846965 
L 117.336436 136.081647 
L 122.530909 136.430422 
L 126.426764 136.906367 
L 129.997964 137.569376 
L 133.244509 138.389967 
L 136.815709 139.526514 
L 141.685527 141.342423 
L 146.555345 143.096396 
L 149.152582 143.802486 
L 151.425164 144.183565 
L 153.373091 144.281603 
L 155.321018 144.131418 
L 156.944291 143.798048 
L 158.567564 143.266645 
L 160.515491 142.367488 
L 162.463418 141.198051 
L 164.736 139.537882 
L 167.657891 137.071075 
L 173.501673 132.035958 
L 175.4496 130.669614 
L 177.072873 129.763074 
L 178.696145 129.114663 
L 179.994764 128.805156 
L 181.293382 128.695044 
L 182.592 128.790833 
L 183.890618 129.092986 
L 185.189236 129.595631 
L 186.812509 130.486561 
L 188.435782 131.633426 
L 190.383709 133.273825 
L 193.954909 136.661096 
L 196.8768 139.317849 
L 198.824727 140.789349 
L 200.448 141.731889 
L 201.746618 142.260887 
L 203.045236 142.567765 
L 204.343855 142.640017 
L 205.642473 142.473214 
L 206.941091 142.071325 
L 208.239709 141.446741 
L 209.862982 140.384827 
L 211.810909 138.774712 
L 214.408145 136.270046 
L 218.304 132.478224 
L 220.251927 130.902729 
L 221.8752 129.887028 
L 223.173818 129.313116 
L 224.472436 128.975584 
L 225.771055 128.88763 
L 227.069673 129.053205 
L 228.368291 129.466804 
L 229.666909 130.113622 
L 231.290182 131.213408 
L 233.238109 132.874689 
L 235.835345 135.437842 
L 239.406545 138.962465 
L 241.354473 140.569405 
L 242.977745 141.60828 
L 244.276364 142.198673 
L 245.574982 142.551296 
L 246.8736 142.653636 
L 248.172218 142.50255 
L 249.470836 142.104334 
L 250.769455 141.474424 
L 252.392727 140.398406 
L 254.340655 138.769096 
L 256.937891 136.249751 
L 260.833745 132.475583 
L 262.781673 130.919502 
L 264.404945 129.916702 
L 265.703564 129.346178 
L 267.002182 129.002225 
L 268.3008 128.895144 
L 269.599418 129.026792 
L 270.898036 129.390676 
L 272.196655 129.972358 
L 273.819927 130.972049 
L 275.767855 132.495716 
L 278.365091 134.878383 
L 282.910255 139.116068 
L 284.858182 140.622285 
L 286.481455 141.620932 
L 288.104727 142.339258 
L 289.403345 142.692335 
L 290.701964 142.839916 
L 292.000582 142.780898 
L 293.2992 142.520316 
L 294.922473 141.927987 
L 296.545745 141.069837 
L 298.493673 139.749027 
L 300.766255 137.917335 
L 309.207273 130.786044 
L 311.1552 129.533044 
L 313.103127 128.541219 
L 315.051055 127.831741 
L 316.674327 127.459172 
L 318.622255 127.264849 
L 320.570182 127.323725 
L 322.518109 127.602212 
L 324.790691 128.150588 
L 327.712582 129.102061 
L 339.7248 133.330592 
L 342.971345 134.108796 
L 346.542545 134.7288 
L 350.4384 135.167792 
L 355.308218 135.472096 
L 362.450618 135.664072 
L 377.060073 135.786613 
L 398.487273 135.756879 
L 398.487273 135.756879 
" style="fill:none;stroke:#7f7f7f;stroke-linecap:square;stroke-width:1.5;"/>
   </g>
   <g id="line2d_24">
    <path clip-path="url(#pb4617302c0)" d="M 73.832727 107.369232 
L 101.103709 107.363278 
L 112.466618 107.089425 
L 117.985745 106.755499 
L 121.8816 106.308096 
L 125.128145 105.727952 
L 128.374691 104.915389 
L 131.621236 103.860259 
L 135.517091 102.334334 
L 142.010182 99.734154 
L 144.282764 99.056928 
L 146.230691 98.677352 
L 148.178618 98.537561 
L 149.801891 98.636219 
L 151.425164 98.95119 
L 153.048436 99.493875 
L 154.671709 100.266347 
L 156.294982 101.260098 
L 158.242909 102.715889 
L 160.515491 104.703787 
L 168.631855 112.167591 
L 170.255127 113.25182 
L 171.8784 114.055709 
L 173.177018 114.466034 
L 174.475636 114.651007 
L 175.774255 114.60091 
L 177.072873 114.313637 
L 178.371491 113.795144 
L 179.670109 113.059597 
L 181.293382 111.869498 
L 183.241309 110.125536 
L 186.1632 107.148444 
L 189.409745 103.918015 
L 191.357673 102.321186 
L 192.980945 101.315356 
L 194.279564 100.77058 
L 195.578182 100.482551 
L 196.8768 100.464749 
L 198.175418 100.720146 
L 199.474036 101.240845 
L 200.772655 102.008166 
L 202.395927 103.269176 
L 204.343855 105.12158 
L 211.1616 112.037163 
L 212.784873 113.188471 
L 214.083491 113.841926 
L 215.382109 114.225809 
L 216.680727 114.322697 
L 217.979345 114.127251 
L 219.277964 113.646576 
L 220.576582 112.900027 
L 222.199855 111.64099 
L 224.147782 109.763935 
L 230.965527 102.714428 
L 232.5888 101.555346 
L 233.887418 100.906729 
L 235.186036 100.537023 
L 236.484655 100.46227 
L 237.783273 100.685715 
L 239.081891 101.197661 
L 240.380509 101.975897 
L 242.003782 103.27079 
L 243.951709 105.17891 
L 250.4448 111.918478 
L 252.068073 113.110089 
L 253.366691 113.792631 
L 254.665309 114.203343 
L 255.963927 114.325884 
L 257.262545 114.156265 
L 258.561164 113.702898 
L 259.859782 112.986114 
L 261.483055 111.768238 
L 263.430982 109.944681 
L 266.677527 106.485935 
L 269.274764 103.852181 
L 270.898036 102.475648 
L 272.521309 101.410515 
L 273.819927 100.825997 
L 275.118545 100.503108 
L 276.417164 100.452467 
L 277.715782 100.673802 
L 279.0144 101.156204 
L 280.313018 101.878803 
L 281.936291 103.073743 
L 283.884218 104.835503 
L 287.130764 108.163365 
L 290.052655 111.033739 
L 292.000582 112.617066 
L 293.623855 113.630873 
L 294.922473 114.205277 
L 296.221091 114.551234 
L 297.519709 114.660737 
L 298.818327 114.533908 
L 300.116945 114.178617 
L 301.415564 113.609846 
L 303.038836 112.631511 
L 304.986764 111.136101 
L 307.259345 109.085173 
L 314.077091 102.715889 
L 316.025018 101.260098 
L 317.972945 100.093718 
L 319.596218 99.366876 
L 321.219491 98.870219 
L 322.842764 98.599694 
L 324.466036 98.54222 
L 326.413964 98.725282 
L 328.361891 99.139965 
L 330.634473 99.84682 
L 333.881018 101.1108 
L 341.023418 103.976026 
L 344.269964 105.007723 
L 347.516509 105.795928 
L 350.763055 106.354731 
L 354.658909 106.783124 
L 359.528727 107.076007 
L 367.645091 107.302845 
L 380.631273 107.442836 
L 398.487273 107.369232 
L 398.487273 107.369232 
" style="fill:none;stroke:#bcbd22;stroke-linecap:square;stroke-width:1.5;"/>
   </g>
   <g id="line2d_25">
    <path clip-path="url(#pb4617302c0)" d="M 73.832727 77.898595 
L 90.390109 77.750426 
L 99.155782 77.968079 
L 112.791273 78.543533 
L 116.687127 78.923891 
L 119.609018 79.405421 
L 122.206255 80.031478 
L 124.803491 80.877364 
L 127.400727 81.951133 
L 130.322618 83.396754 
L 138.438982 87.622107 
L 140.386909 88.309189 
L 142.010182 88.666956 
L 143.633455 88.784572 
L 144.932073 88.681824 
L 146.230691 88.389035 
L 147.529309 87.897475 
L 148.827927 87.204159 
L 150.4512 86.059667 
L 152.074473 84.62767 
L 154.0224 82.58614 
L 156.619636 79.485545 
L 161.1648 73.95242 
L 163.112727 71.955539 
L 164.736 70.630025 
L 166.034618 69.846699 
L 167.333236 69.343366 
L 168.3072 69.162995 
L 169.281164 69.157853 
L 170.255127 69.329783 
L 171.553745 69.830755 
L 172.852364 70.628064 
L 174.150982 71.695167 
L 175.774255 73.349996 
L 177.722182 75.677718 
L 183.241309 82.517369 
L 184.864582 84.070034 
L 186.1632 85.018918 
L 187.461818 85.660813 
L 188.435782 85.922487 
L 189.409745 85.98729 
L 190.383709 85.852695 
L 191.357673 85.521075 
L 192.656291 84.785736 
L 193.954909 83.74415 
L 195.578182 82.080632 
L 197.526109 79.707443 
L 202.395927 73.53134 
L 204.0192 71.907449 
L 205.317818 70.91471 
L 206.616436 70.24665 
L 207.5904 69.978929 
L 208.564364 69.920247 
L 209.538327 70.072776 
L 210.512291 70.433058 
L 211.486255 70.99205 
L 212.784873 72.020808 
L 214.083491 73.328711 
L 216.031418 75.676219 
L 221.550545 82.695248 
L 222.849164 83.952131 
L 224.147782 84.914865 
L 225.121745 85.414838 
L 226.095709 85.708482 
L 227.069673 85.787507 
L 228.043636 85.649517 
L 229.0176 85.298088 
L 229.991564 84.742689 
L 231.290182 83.711745 
L 232.5888 82.395676 
L 234.212073 80.448317 
L 240.380509 72.64693 
L 241.679127 71.466227 
L 242.977745 70.597587 
L 243.951709 70.176831 
L 244.925673 69.967003 
L 245.899636 69.973662 
L 246.8736 70.1964 
L 247.847564 70.628873 
L 249.146182 71.510073 
L 250.4448 72.698671 
L 252.068073 74.526964 
L 254.340655 77.471715 
L 257.5872 81.664013 
L 259.210473 83.408768 
L 260.509091 84.512379 
L 261.807709 85.299515 
L 262.781673 85.659797 
L 263.755636 85.812326 
L 264.7296 85.753644 
L 265.703564 85.485923 
L 266.677527 85.016862 
L 267.976145 84.101382 
L 269.274764 82.895588 
L 270.898036 81.068118 
L 273.495273 77.726229 
L 276.417164 74.024059 
L 278.040436 72.291733 
L 279.339055 71.180034 
L 280.637673 70.364701 
L 281.611636 69.968786 
L 282.5856 69.768008 
L 283.559564 69.766386 
L 284.533527 69.963015 
L 285.507491 70.352172 
L 286.806109 71.152082 
L 288.104727 72.239386 
L 289.728 73.929235 
L 292.000582 76.706197 
L 296.545745 82.382577 
L 298.169018 84.037406 
L 299.467636 85.104509 
L 300.766255 85.901817 
L 302.064873 86.40279 
L 303.038836 86.57472 
L 304.0128 86.569578 
L 304.986764 86.389207 
L 306.285382 85.885874 
L 307.584 85.102548 
L 308.882618 84.069853 
L 310.505891 82.486789 
L 312.453818 80.273452 
L 319.920873 71.422658 
L 321.544145 69.93731 
L 323.167418 68.733014 
L 324.790691 67.835098 
L 326.089309 67.343537 
L 327.387927 67.050749 
L 328.686545 66.948 
L 330.309818 67.065617 
L 331.933091 67.423383 
L 333.881018 68.110465 
L 336.1536 69.167553 
L 340.049455 71.279032 
L 344.269964 73.479613 
L 347.191855 74.733279 
L 349.789091 75.607822 
L 352.386327 76.259996 
L 355.308218 76.765053 
L 358.879418 77.140771 
L 364.073891 77.431147 
L 378.683345 77.92594 
L 386.799709 77.998083 
L 398.487273 77.833977 
L 398.487273 77.833977 
" style="fill:none;stroke:#17becf;stroke-linecap:square;stroke-width:1.5;"/>
   </g>
   <g id="patch_3">
    <path d="M 57.6 307.584 
L 57.6 41.472 
" style="fill:none;stroke:#000000;stroke-linecap:square;stroke-linejoin:miter;stroke-width:0.8;"/>
   </g>
   <g id="patch_4">
    <path d="M 414.72 307.584 
L 414.72 41.472 
" style="fill:none;stroke:#000000;stroke-linecap:square;stroke-linejoin:miter;stroke-width:0.8;"/>
   </g>
   <g id="patch_5">
    <path d="M 57.6 307.584 
L 414.72 307.584 
" style="fill:none;stroke:#000000;stroke-linecap:square;stroke-linejoin:miter;stroke-width:0.8;"/>
   </g>
   <g id="patch_6">
    <path d="M 57.6 41.472 
L 414.72 41.472 
" style="fill:none;stroke:#000000;stroke-linecap:square;stroke-linejoin:miter;stroke-width:0.8;"/>
   </g>
  </g>
 </g>
 <defs>
  <clipPath id="pb4617302c0">
   <rect height="266.112" width="357.12" x="57.6" y="41.472"/>
  </clipPath>
 </defs>
</svg>
