<?xml version="1.0" encoding="utf-8" standalone="no"?>
<!DOCTYPE svg PUBLIC "-//W3C//DTD SVG 1.1//EN"
  "http://www.w3.org/Graphics/SVG/1.1/DTD/svg11.dtd">
<!-- Created with matplotlib (http://matplotlib.org/) -->
<svg height="345pt" version="1.1" viewBox="0 0 460 345" width="460pt" xmlns="http://www.w3.org/2000/svg" xmlns:xlink="http://www.w3.org/1999/xlink">
 <defs>
  <style type="text/css">
*{stroke-linecap:butt;stroke-linejoin:round;}
  </style>
 </defs>
 <g id="figure_1">
  <g id="patch_1">
   <path d="M 0 345.6 
L 460.8 345.6 
L 460.8 0 
L 0 0 
z
" style="fill:#ffffff;"/>
  </g>
  <g id="axes_1">
   <g id="patch_2">
    <path d="M 57.6 307.584 
L 414.72 307.584 
L 414.72 41.472 
L 57.6 41.472 
z
" style="fill:#ffffff;"/>
   </g>
   <g id="matplotlib.axis_1">
    <g id="xtick_1">
     <g id="line2d_1">
      <defs>
       <path d="M 0 0 
L 0 3.5 
" id="m72b3f0b960" style="stroke:#000000;stroke-width:0.8;"/>
      </defs>
      <g>
       <use style="stroke:#000000;stroke-width:0.8;" x="73.832727" xlink:href="#m72b3f0b960" y="307.584"/>
      </g>
     </g>
     <g id="text_1">
      <!-- 0 -->
      <defs>
       <path d="M 31.78125 66.40625 
Q 24.171875 66.40625 20.328125 58.90625 
Q 16.5 51.421875 16.5 36.375 
Q 16.5 21.390625 20.328125 13.890625 
Q 24.171875 6.390625 31.78125 6.390625 
Q 39.453125 6.390625 43.28125 13.890625 
Q 47.125 21.390625 47.125 36.375 
Q 47.125 51.421875 43.28125 58.90625 
Q 39.453125 66.40625 31.78125 66.40625 
z
M 31.78125 74.21875 
Q 44.046875 74.21875 50.515625 64.515625 
Q 56.984375 54.828125 56.984375 36.375 
Q 56.984375 17.96875 50.515625 8.265625 
Q 44.046875 -1.421875 31.78125 -1.421875 
Q 19.53125 -1.421875 13.0625 8.265625 
Q 6.59375 17.96875 6.59375 36.375 
Q 6.59375 54.828125 13.0625 64.515625 
Q 19.53125 74.21875 31.78125 74.21875 
z
" id="DejaVuSans-30"/>
      </defs>
      <g transform="translate(70.651477 322.182437)scale(0.1 -0.1)">
       <use xlink:href="#DejaVuSans-30"/>
      </g>
     </g>
    </g>
    <g id="xtick_2">
     <g id="line2d_2">
      <g>
       <use style="stroke:#000000;stroke-width:0.8;" x="138.763636" xlink:href="#m72b3f0b960" y="307.584"/>
      </g>
     </g>
     <g id="text_2">
      <!-- 2 -->
      <defs>
       <path d="M 19.1875 8.296875 
L 53.609375 8.296875 
L 53.609375 0 
L 7.328125 0 
L 7.328125 8.296875 
Q 12.9375 14.109375 22.625 23.890625 
Q 32.328125 33.6875 34.8125 36.53125 
Q 39.546875 41.84375 41.421875 45.53125 
Q 43.3125 49.21875 43.3125 52.78125 
Q 43.3125 58.59375 39.234375 62.25 
Q 35.15625 65.921875 28.609375 65.921875 
Q 23.96875 65.921875 18.8125 64.3125 
Q 13.671875 62.703125 7.8125 59.421875 
L 7.8125 69.390625 
Q 13.765625 71.78125 18.9375 73 
Q 24.125 74.21875 28.421875 74.21875 
Q 39.75 74.21875 46.484375 68.546875 
Q 53.21875 62.890625 53.21875 53.421875 
Q 53.21875 48.921875 51.53125 44.890625 
Q 49.859375 40.875 45.40625 35.40625 
Q 44.1875 33.984375 37.640625 27.21875 
Q 31.109375 20.453125 19.1875 8.296875 
z
" id="DejaVuSans-32"/>
      </defs>
      <g transform="translate(135.582386 322.182437)scale(0.1 -0.1)">
       <use xlink:href="#DejaVuSans-32"/>
      </g>
     </g>
    </g>
    <g id="xtick_3">
     <g id="line2d_3">
      <g>
       <use style="stroke:#000000;stroke-width:0.8;" x="203.694545" xlink:href="#m72b3f0b960" y="307.584"/>
      </g>
     </g>
     <g id="text_3">
      <!-- 4 -->
      <defs>
       <path d="M 37.796875 64.3125 
L 12.890625 25.390625 
L 37.796875 25.390625 
z
M 35.203125 72.90625 
L 47.609375 72.90625 
L 47.609375 25.390625 
L 58.015625 25.390625 
L 58.015625 17.1875 
L 47.609375 17.1875 
L 47.609375 0 
L 37.796875 0 
L 37.796875 17.1875 
L 4.890625 17.1875 
L 4.890625 26.703125 
z
" id="DejaVuSans-34"/>
      </defs>
      <g transform="translate(200.513295 322.182437)scale(0.1 -0.1)">
       <use xlink:href="#DejaVuSans-34"/>
      </g>
     </g>
    </g>
    <g id="xtick_4">
     <g id="line2d_4">
      <g>
       <use style="stroke:#000000;stroke-width:0.8;" x="268.625455" xlink:href="#m72b3f0b960" y="307.584"/>
      </g>
     </g>
     <g id="text_4">
      <!-- 6 -->
      <defs>
       <path d="M 33.015625 40.375 
Q 26.375 40.375 22.484375 35.828125 
Q 18.609375 31.296875 18.609375 23.390625 
Q 18.609375 15.53125 22.484375 10.953125 
Q 26.375 6.390625 33.015625 6.390625 
Q 39.65625 6.390625 43.53125 10.953125 
Q 47.40625 15.53125 47.40625 23.390625 
Q 47.40625 31.296875 43.53125 35.828125 
Q 39.65625 40.375 33.015625 40.375 
z
M 52.59375 71.296875 
L 52.59375 62.3125 
Q 48.875 64.0625 45.09375 64.984375 
Q 41.3125 65.921875 37.59375 65.921875 
Q 27.828125 65.921875 22.671875 59.328125 
Q 17.53125 52.734375 16.796875 39.40625 
Q 19.671875 43.65625 24.015625 45.921875 
Q 28.375 48.1875 33.59375 48.1875 
Q 44.578125 48.1875 50.953125 41.515625 
Q 57.328125 34.859375 57.328125 23.390625 
Q 57.328125 12.15625 50.6875 5.359375 
Q 44.046875 -1.421875 33.015625 -1.421875 
Q 20.359375 -1.421875 13.671875 8.265625 
Q 6.984375 17.96875 6.984375 36.375 
Q 6.984375 53.65625 15.1875 63.9375 
Q 23.390625 74.21875 37.203125 74.21875 
Q 40.921875 74.21875 44.703125 73.484375 
Q 48.484375 72.75 52.59375 71.296875 
z
" id="DejaVuSans-36"/>
      </defs>
      <g transform="translate(265.444205 322.182437)scale(0.1 -0.1)">
       <use xlink:href="#DejaVuSans-36"/>
      </g>
     </g>
    </g>
    <g id="xtick_5">
     <g id="line2d_5">
      <g>
       <use style="stroke:#000000;stroke-width:0.8;" x="333.556364" xlink:href="#m72b3f0b960" y="307.584"/>
      </g>
     </g>
     <g id="text_5">
      <!-- 8 -->
      <defs>
       <path d="M 31.78125 34.625 
Q 24.75 34.625 20.71875 30.859375 
Q 16.703125 27.09375 16.703125 20.515625 
Q 16.703125 13.921875 20.71875 10.15625 
Q 24.75 6.390625 31.78125 6.390625 
Q 38.8125 6.390625 42.859375 10.171875 
Q 46.921875 13.96875 46.921875 20.515625 
Q 46.921875 27.09375 42.890625 30.859375 
Q 38.875 34.625 31.78125 34.625 
z
M 21.921875 38.8125 
Q 15.578125 40.375 12.03125 44.71875 
Q 8.5 49.078125 8.5 55.328125 
Q 8.5 64.0625 14.71875 69.140625 
Q 20.953125 74.21875 31.78125 74.21875 
Q 42.671875 74.21875 48.875 69.140625 
Q 55.078125 64.0625 55.078125 55.328125 
Q 55.078125 49.078125 51.53125 44.71875 
Q 48 40.375 41.703125 38.8125 
Q 48.828125 37.15625 52.796875 32.3125 
Q 56.78125 27.484375 56.78125 20.515625 
Q 56.78125 9.90625 50.3125 4.234375 
Q 43.84375 -1.421875 31.78125 -1.421875 
Q 19.734375 -1.421875 13.25 4.234375 
Q 6.78125 9.90625 6.78125 20.515625 
Q 6.78125 27.484375 10.78125 32.3125 
Q 14.796875 37.15625 21.921875 38.8125 
z
M 18.3125 54.390625 
Q 18.3125 48.734375 21.84375 45.5625 
Q 25.390625 42.390625 31.78125 42.390625 
Q 38.140625 42.390625 41.71875 45.5625 
Q 45.3125 48.734375 45.3125 54.390625 
Q 45.3125 60.0625 41.71875 63.234375 
Q 38.140625 66.40625 31.78125 66.40625 
Q 25.390625 66.40625 21.84375 63.234375 
Q 18.3125 60.0625 18.3125 54.390625 
z
" id="DejaVuSans-38"/>
      </defs>
      <g transform="translate(330.375114 322.182437)scale(0.1 -0.1)">
       <use xlink:href="#DejaVuSans-38"/>
      </g>
     </g>
    </g>
    <g id="xtick_6">
     <g id="line2d_6">
      <g>
       <use style="stroke:#000000;stroke-width:0.8;" x="398.487273" xlink:href="#m72b3f0b960" y="307.584"/>
      </g>
     </g>
     <g id="text_6">
      <!-- 10 -->
      <defs>
       <path d="M 12.40625 8.296875 
L 28.515625 8.296875 
L 28.515625 63.921875 
L 10.984375 60.40625 
L 10.984375 69.390625 
L 28.421875 72.90625 
L 38.28125 72.90625 
L 38.28125 8.296875 
L 54.390625 8.296875 
L 54.390625 0 
L 12.40625 0 
z
" id="DejaVuSans-31"/>
      </defs>
      <g transform="translate(392.124773 322.182437)scale(0.1 -0.1)">
       <use xlink:href="#DejaVuSans-31"/>
       <use x="63.623047" xlink:href="#DejaVuSans-30"/>
      </g>
     </g>
    </g>
    <g id="text_7">
     <!-- $t$ -->
     <defs>
      <path d="M 42.28125 54.6875 
L 40.921875 47.703125 
L 23 47.703125 
L 17.1875 18.015625 
Q 16.890625 16.359375 16.75 15.234375 
Q 16.609375 14.109375 16.609375 13.484375 
Q 16.609375 10.359375 18.484375 8.9375 
Q 20.359375 7.515625 24.515625 7.515625 
L 33.59375 7.515625 
L 32.078125 0 
L 23.484375 0 
Q 15.484375 0 11.546875 3.125 
Q 7.625 6.25 7.625 12.59375 
Q 7.625 13.71875 7.765625 15.0625 
Q 7.90625 16.40625 8.203125 18.015625 
L 14.015625 47.703125 
L 6.390625 47.703125 
L 7.8125 54.6875 
L 15.28125 54.6875 
L 18.3125 70.21875 
L 27.296875 70.21875 
L 24.3125 54.6875 
z
" id="DejaVuSans-Oblique-74"/>
     </defs>
     <g transform="translate(234.16 335.860562)scale(0.1 -0.1)">
      <use transform="translate(0 0.78125)" xlink:href="#DejaVuSans-Oblique-74"/>
     </g>
    </g>
   </g>
   <g id="matplotlib.axis_2">
    <g id="ytick_1">
     <g id="line2d_7">
      <defs>
       <path d="M 0 0 
L -3.5 0 
" id="mea7a6406c8" style="stroke:#000000;stroke-width:0.8;"/>
      </defs>
      <g>
       <use style="stroke:#000000;stroke-width:0.8;" x="57.6" xlink:href="#mea7a6406c8" y="295.333328"/>
      </g>
     </g>
     <g id="text_8">
      <!-- −4 -->
      <defs>
       <path d="M 10.59375 35.5 
L 73.1875 35.5 
L 73.1875 27.203125 
L 10.59375 27.203125 
z
" id="DejaVuSans-2212"/>
      </defs>
      <g transform="translate(35.857813 299.132547)scale(0.1 -0.1)">
       <use xlink:href="#DejaVuSans-2212"/>
       <use x="83.789062" xlink:href="#DejaVuSans-34"/>
      </g>
     </g>
    </g>
    <g id="ytick_2">
     <g id="line2d_8">
      <g>
       <use style="stroke:#000000;stroke-width:0.8;" x="57.6" xlink:href="#mea7a6406c8" y="262.17764"/>
      </g>
     </g>
     <g id="text_9">
      <!-- −3 -->
      <defs>
       <path d="M 40.578125 39.3125 
Q 47.65625 37.796875 51.625 33 
Q 55.609375 28.21875 55.609375 21.1875 
Q 55.609375 10.40625 48.1875 4.484375 
Q 40.765625 -1.421875 27.09375 -1.421875 
Q 22.515625 -1.421875 17.65625 -0.515625 
Q 12.796875 0.390625 7.625 2.203125 
L 7.625 11.71875 
Q 11.71875 9.328125 16.59375 8.109375 
Q 21.484375 6.890625 26.8125 6.890625 
Q 36.078125 6.890625 40.9375 10.546875 
Q 45.796875 14.203125 45.796875 21.1875 
Q 45.796875 27.640625 41.28125 31.265625 
Q 36.765625 34.90625 28.71875 34.90625 
L 20.21875 34.90625 
L 20.21875 43.015625 
L 29.109375 43.015625 
Q 36.375 43.015625 40.234375 45.921875 
Q 44.09375 48.828125 44.09375 54.296875 
Q 44.09375 59.90625 40.109375 62.90625 
Q 36.140625 65.921875 28.71875 65.921875 
Q 24.65625 65.921875 20.015625 65.03125 
Q 15.375 64.15625 9.8125 62.3125 
L 9.8125 71.09375 
Q 15.4375 72.65625 20.34375 73.4375 
Q 25.25 74.21875 29.59375 74.21875 
Q 40.828125 74.21875 47.359375 69.109375 
Q 53.90625 64.015625 53.90625 55.328125 
Q 53.90625 49.265625 50.4375 45.09375 
Q 46.96875 40.921875 40.578125 39.3125 
z
" id="DejaVuSans-33"/>
      </defs>
      <g transform="translate(35.857813 265.976859)scale(0.1 -0.1)">
       <use xlink:href="#DejaVuSans-2212"/>
       <use x="83.789062" xlink:href="#DejaVuSans-33"/>
      </g>
     </g>
    </g>
    <g id="ytick_3">
     <g id="line2d_9">
      <g>
       <use style="stroke:#000000;stroke-width:0.8;" x="57.6" xlink:href="#mea7a6406c8" y="229.021951"/>
      </g>
     </g>
     <g id="text_10">
      <!-- −2 -->
      <g transform="translate(35.857813 232.82117)scale(0.1 -0.1)">
       <use xlink:href="#DejaVuSans-2212"/>
       <use x="83.789062" xlink:href="#DejaVuSans-32"/>
      </g>
     </g>
    </g>
    <g id="ytick_4">
     <g id="line2d_10">
      <g>
       <use style="stroke:#000000;stroke-width:0.8;" x="57.6" xlink:href="#mea7a6406c8" y="195.866263"/>
      </g>
     </g>
     <g id="text_11">
      <!-- −1 -->
      <g transform="translate(35.857813 199.665482)scale(0.1 -0.1)">
       <use xlink:href="#DejaVuSans-2212"/>
       <use x="83.789062" xlink:href="#DejaVuSans-31"/>
      </g>
     </g>
    </g>
    <g id="ytick_5">
     <g id="line2d_11">
      <g>
       <use style="stroke:#000000;stroke-width:0.8;" x="57.6" xlink:href="#mea7a6406c8" y="162.710575"/>
      </g>
     </g>
     <g id="text_12">
      <!-- 0 -->
      <g transform="translate(44.2375 166.509793)scale(0.1 -0.1)">
       <use xlink:href="#DejaVuSans-30"/>
      </g>
     </g>
    </g>
    <g id="ytick_6">
     <g id="line2d_12">
      <g>
       <use style="stroke:#000000;stroke-width:0.8;" x="57.6" xlink:href="#mea7a6406c8" y="129.554886"/>
      </g>
     </g>
     <g id="text_13">
      <!-- 1 -->
      <g transform="translate(44.2375 133.354105)scale(0.1 -0.1)">
       <use xlink:href="#DejaVuSans-31"/>
      </g>
     </g>
    </g>
    <g id="ytick_7">
     <g id="line2d_13">
      <g>
       <use style="stroke:#000000;stroke-width:0.8;" x="57.6" xlink:href="#mea7a6406c8" y="96.399198"/>
      </g>
     </g>
     <g id="text_14">
      <!-- 2 -->
      <g transform="translate(44.2375 100.198416)scale(0.1 -0.1)">
       <use xlink:href="#DejaVuSans-32"/>
      </g>
     </g>
    </g>
    <g id="ytick_8">
     <g id="line2d_14">
      <g>
       <use style="stroke:#000000;stroke-width:0.8;" x="57.6" xlink:href="#mea7a6406c8" y="63.243509"/>
      </g>
     </g>
     <g id="text_15">
      <!-- 3 -->
      <g transform="translate(44.2375 67.042728)scale(0.1 -0.1)">
       <use xlink:href="#DejaVuSans-33"/>
      </g>
     </g>
    </g>
   </g>
   <g id="line2d_15">
    <path clip-path="url(#p551365df3b)" d="M 73.832727 61.864476 
L 77.728582 61.98316 
L 81.299782 62.303422 
L 84.870982 62.83969 
L 88.117527 63.536325 
L 91.364073 64.462112 
L 94.285964 65.523745 
L 97.207855 66.839916 
L 99.805091 68.260328 
L 102.402327 69.956632 
L 104.674909 71.702919 
L 106.947491 73.730568 
L 109.220073 76.07953 
L 111.492655 78.794463 
L 113.440582 81.449952 
L 115.388509 84.443492 
L 117.336436 87.809596 
L 119.284364 91.583075 
L 121.232291 95.797445 
L 123.180218 100.482675 
L 125.4528 106.574606 
L 127.725382 113.357776 
L 129.997964 120.822573 
L 132.5952 130.125276 
L 135.841745 142.688553 
L 146.555345 185.126364 
L 149.152582 193.991398 
L 151.425164 200.915597 
L 153.373091 206.173388 
L 155.321018 210.781726 
L 156.944291 214.121012 
L 158.567564 217.007347 
L 160.190836 219.447072 
L 161.814109 221.448771 
L 163.112727 222.741184 
L 164.411345 223.76435 
L 165.709964 224.522987 
L 167.008582 225.021398 
L 168.3072 225.263341 
L 169.605818 225.251956 
L 170.904436 224.989736 
L 172.203055 224.478541 
L 173.501673 223.719653 
L 174.800291 222.713874 
L 176.098909 221.461661 
L 177.722182 219.5503 
L 179.345455 217.255128 
L 180.968727 214.577898 
L 182.916655 210.866342 
L 184.864582 206.622653 
L 186.812509 201.868775 
L 189.085091 195.724457 
L 191.682327 188.01511 
L 194.928873 177.603776 
L 204.668509 145.771057 
L 207.265745 138.351406 
L 209.538327 132.549379 
L 211.486255 128.158045 
L 213.434182 124.34253 
L 215.057455 121.619412 
L 216.680727 119.319251 
L 218.304 117.445226 
L 219.602618 116.253015 
L 220.901236 115.332752 
L 222.199855 114.682882 
L 223.498473 114.301406 
L 224.797091 114.186012 
L 226.095709 114.334154 
L 227.394327 114.743079 
L 228.692945 115.409802 
L 229.991564 116.33104 
L 231.290182 117.503092 
L 232.913455 119.314286 
L 234.536727 121.500571 
L 236.16 124.049327 
L 238.107927 127.563616 
L 240.055855 131.541411 
L 242.328436 136.7068 
L 244.925673 143.187953 
L 248.496873 152.796744 
L 256.288582 174.056593 
L 258.885818 180.449145 
L 261.1584 185.506661 
L 263.106327 189.369274 
L 265.054255 192.748657 
L 266.677527 195.171909 
L 268.3008 197.223549 
L 269.924073 198.894593 
L 271.222691 199.953697 
L 272.521309 200.764413 
L 273.819927 201.326482 
L 275.118545 201.640569 
L 276.417164 201.70816 
L 277.715782 201.5315 
L 279.0144 201.113566 
L 280.313018 200.458077 
L 281.611636 199.569545 
L 283.234909 198.139447 
L 284.858182 196.36636 
L 286.481455 194.265701 
L 288.429382 191.338903 
L 290.377309 188.006215 
L 292.649891 183.668244 
L 295.247127 178.2279 
L 298.818327 170.188936 
L 305.960727 153.941071 
L 308.882618 147.928644 
L 311.1552 143.729131 
L 313.103127 140.531124 
L 315.051055 137.747399 
L 316.674327 135.767118 
L 318.2976 134.110204 
L 319.920873 132.786438 
L 321.219491 131.971651 
L 322.518109 131.375988 
L 323.816727 131.000085 
L 325.115345 130.843498 
L 326.413964 130.904762 
L 327.712582 131.18143 
L 329.0112 131.670083 
L 330.309818 132.366325 
L 331.933091 133.52022 
L 333.556364 134.977076 
L 335.179636 136.721281 
L 337.127564 139.167332 
L 339.075491 141.962474 
L 341.348073 145.60509 
L 344.269964 150.764966 
L 348.490473 158.780682 
L 354.334255 169.845319 
L 357.256145 174.878258 
L 359.528727 178.395739 
L 361.801309 181.486277 
L 363.749236 183.751393 
L 365.372509 185.346346 
L 366.995782 186.661892 
L 368.619055 187.689019 
L 370.242327 188.421861 
L 371.540945 188.794189 
L 372.839564 188.976036 
L 374.138182 188.968277 
L 375.4368 188.772843 
L 376.735418 188.392697 
L 378.358691 187.663941 
L 379.981964 186.662937 
L 381.605236 185.40228 
L 383.553164 183.568302 
L 385.501091 181.413615 
L 387.773673 178.543616 
L 390.370909 174.876876 
L 393.617455 169.882006 
L 398.487273 162.047079 
L 398.487273 162.047079 
" style="fill:none;stroke:#1f77b4;stroke-linecap:square;stroke-width:1.5;"/>
   </g>
   <g id="line2d_16">
    <path clip-path="url(#p551365df3b)" d="M 73.832727 162.710575 
L 82.5984 167.297456 
L 86.1696 169.45373 
L 89.091491 171.466423 
L 91.688727 173.506991 
L 94.285964 175.844364 
L 96.558545 178.18374 
L 98.831127 180.848079 
L 101.103709 183.890631 
L 103.051636 186.843615 
L 104.999564 190.156685 
L 106.947491 193.871329 
L 108.895418 198.030111 
L 110.843345 202.675089 
L 112.791273 207.845344 
L 115.063855 214.583873 
L 117.336436 222.111143 
L 119.609018 230.419317 
L 122.206255 240.781171 
L 125.777455 256.076224 
L 129.997964 274.04398 
L 131.945891 281.421522 
L 133.569164 286.704193 
L 134.867782 290.182071 
L 135.841745 292.274044 
L 136.815709 293.872793 
L 137.465018 294.645502 
L 138.114327 295.172748 
L 138.763636 295.447249 
L 139.412945 295.463767 
L 140.062255 295.21921 
L 140.711564 294.712694 
L 141.360873 293.945549 
L 142.334836 292.314397 
L 143.3088 290.125741 
L 144.282764 287.40962 
L 145.581382 283.03444 
L 146.88 277.897041 
L 148.503273 270.585471 
L 150.775855 259.118087 
L 154.0224 241.339305 
L 161.1648 201.870794 
L 165.385309 180.036133 
L 170.255127 156.153151 
L 179.670109 111.450301 
L 184.539927 89.080493 
L 187.137164 78.083709 
L 189.085091 70.661491 
L 190.708364 65.233261 
L 192.006982 61.504924 
L 193.3056 58.412062 
L 194.279564 56.555281 
L 195.253527 55.126546 
L 196.227491 54.149078 
L 196.8768 53.757119 
L 197.526109 53.577434 
L 198.175418 53.612436 
L 198.824727 53.86319 
L 199.474036 54.32939 
L 200.123345 55.009365 
L 201.097309 56.423217 
L 202.071273 58.295504 
L 203.045236 60.60489 
L 204.343855 64.317813 
L 205.642473 68.687184 
L 207.265745 74.947262 
L 209.213673 83.409854 
L 211.810909 95.849323 
L 215.706764 115.854563 
L 225.771055 168.053599 
L 230.640873 192.016284 
L 234.536727 210.108032 
L 237.458618 222.640169 
L 239.7312 231.456982 
L 241.679127 238.14014 
L 243.3024 242.94685 
L 244.601018 246.211856 
L 245.899636 248.901518 
L 246.8736 250.511417 
L 247.847564 251.752228 
L 248.821527 252.609476 
L 249.470836 252.962417 
L 250.120145 253.13786 
L 250.769455 253.13449 
L 251.418764 252.951876 
L 252.068073 252.590478 
L 253.042036 251.716351 
L 254.016 250.451402 
L 254.989964 248.807981 
L 256.288582 246.056347 
L 257.5872 242.707849 
L 259.210473 237.766869 
L 260.833745 232.096844 
L 262.781673 224.502434 
L 265.378909 213.369924 
L 268.950109 196.903244 
L 281.286982 139.055034 
L 284.533527 125.234762 
L 287.130764 115.098538 
L 289.403345 107.133167 
L 291.351273 101.145643 
L 292.974545 96.856211 
L 294.273164 93.941063 
L 295.571782 91.526629 
L 296.8704 89.646827 
L 297.844364 88.60488 
L 298.818327 87.888582 
L 299.792291 87.504347 
L 300.766255 87.455718 
L 301.740218 87.743225 
L 302.714182 88.364342 
L 303.688145 89.313523 
L 304.662109 90.582336 
L 305.960727 92.75173 
L 307.259345 95.436485 
L 308.557964 98.597618 
L 310.181236 103.15231 
L 312.129164 109.382069 
L 314.401745 117.50033 
L 317.323636 128.907136 
L 321.544145 146.44594 
L 329.0112 177.542152 
L 332.257745 190.072451 
L 334.854982 199.265443 
L 337.127564 206.501386 
L 339.075491 211.967823 
L 340.698764 215.920787 
L 342.322036 219.260902 
L 343.620655 221.454012 
L 344.919273 223.194211 
L 345.893236 224.189676 
L 346.8672 224.912131 
L 347.841164 225.356783 
L 348.815127 225.520859 
L 349.789091 225.403693 
L 350.763055 225.006777 
L 351.737018 224.333747 
L 352.710982 223.390325 
L 353.684945 222.184205 
L 354.983564 220.184088 
L 356.282182 217.761014 
L 357.905455 214.185173 
L 359.528727 210.064947 
L 361.476655 204.503921 
L 363.749236 197.327101 
L 366.671127 187.313652 
L 371.540945 169.636355 
L 377.060073 149.802693 
L 379.981964 140.047713 
L 382.5792 132.122603 
L 384.851782 125.939127 
L 386.799709 121.310933 
L 388.422982 117.994404 
L 390.046255 115.218659 
L 391.344873 113.415036 
L 392.643491 112.001199 
L 393.617455 111.205058 
L 394.591418 110.640278 
L 395.565382 110.309694 
L 396.539345 110.214624 
L 397.513309 110.354826 
L 398.487273 110.72848 
L 398.487273 110.72848 
" style="fill:none;stroke:#ff7f0e;stroke-linecap:square;stroke-width:1.5;"/>
   </g>
   <g id="patch_3">
    <path d="M 57.6 307.584 
L 57.6 41.472 
" style="fill:none;stroke:#000000;stroke-linecap:square;stroke-linejoin:miter;stroke-width:0.8;"/>
   </g>
   <g id="patch_4">
    <path d="M 414.72 307.584 
L 414.72 41.472 
" style="fill:none;stroke:#000000;stroke-linecap:square;stroke-linejoin:miter;stroke-width:0.8;"/>
   </g>
   <g id="patch_5">
    <path d="M 57.6 307.584 
L 414.72 307.584 
" style="fill:none;stroke:#000000;stroke-linecap:square;stroke-linejoin:miter;stroke-width:0.8;"/>
   </g>
   <g id="patch_6">
    <path d="M 57.6 41.472 
L 414.72 41.472 
" style="fill:none;stroke:#000000;stroke-linecap:square;stroke-linejoin:miter;stroke-width:0.8;"/>
   </g>
   <g id="legend_1">
    <g id="patch_7">
     <path d="M 355.62 78.82825 
L 407.72 78.82825 
Q 409.72 78.82825 409.72 76.82825 
L 409.72 48.472 
Q 409.72 46.472 407.72 46.472 
L 355.62 46.472 
Q 353.62 46.472 353.62 48.472 
L 353.62 76.82825 
Q 353.62 78.82825 355.62 78.82825 
z
" style="fill:#ffffff;opacity:0.8;stroke:#cccccc;stroke-linejoin:miter;"/>
    </g>
    <g id="line2d_17">
     <path d="M 357.62 54.570437 
L 377.62 54.570437 
" style="fill:none;stroke:#1f77b4;stroke-linecap:square;stroke-width:1.5;"/>
    </g>
    <g id="line2d_18"/>
    <g id="text_16">
     <!-- $\theta(t)$ -->
     <defs>
      <path d="M 45.515625 34.671875 
L 14.453125 34.671875 
Q 12.359375 20.0625 14.5 13.875 
Q 17.1875 6.25 24.46875 6.25 
Q 31.78125 6.25 37.359375 13.921875 
Q 42.234375 20.65625 45.515625 34.671875 
z
M 47.015625 42.96875 
Q 48.34375 56.84375 46.625 61.71875 
Q 43.953125 69.4375 36.765625 69.4375 
Q 29.296875 69.4375 23.828125 61.8125 
Q 19.53125 55.671875 16.15625 42.96875 
z
M 38.1875 76.765625 
Q 49.90625 76.765625 54.59375 66.40625 
Q 59.28125 56.109375 55.71875 37.84375 
Q 52.203125 19.625 43.453125 9.28125 
Q 34.765625 -1.125 23.046875 -1.125 
Q 11.28125 -1.125 6.640625 9.28125 
Q 2 19.625 5.515625 37.84375 
Q 9.078125 56.109375 17.71875 66.40625 
Q 26.421875 76.765625 38.1875 76.765625 
z
" id="DejaVuSans-Oblique-3b8"/>
      <path d="M 31 75.875 
Q 24.46875 64.65625 21.28125 53.65625 
Q 18.109375 42.671875 18.109375 31.390625 
Q 18.109375 20.125 21.3125 9.0625 
Q 24.515625 -2 31 -13.1875 
L 23.1875 -13.1875 
Q 15.875 -1.703125 12.234375 9.375 
Q 8.59375 20.453125 8.59375 31.390625 
Q 8.59375 42.28125 12.203125 53.3125 
Q 15.828125 64.359375 23.1875 75.875 
z
" id="DejaVuSans-28"/>
      <path d="M 8.015625 75.875 
L 15.828125 75.875 
Q 23.140625 64.359375 26.78125 53.3125 
Q 30.421875 42.28125 30.421875 31.390625 
Q 30.421875 20.453125 26.78125 9.375 
Q 23.140625 -1.703125 15.828125 -13.1875 
L 8.015625 -13.1875 
Q 14.5 -2 17.703125 9.0625 
Q 20.90625 20.125 20.90625 31.390625 
Q 20.90625 42.671875 17.703125 53.65625 
Q 14.5 64.65625 8.015625 75.875 
z
" id="DejaVuSans-29"/>
     </defs>
     <g transform="translate(385.62 58.070437)scale(0.1 -0.1)">
      <use transform="translate(0 0.234375)" xlink:href="#DejaVuSans-Oblique-3b8"/>
      <use transform="translate(61.181641 0.234375)" xlink:href="#DejaVuSans-28"/>
      <use transform="translate(100.195312 0.234375)" xlink:href="#DejaVuSans-Oblique-74"/>
      <use transform="translate(139.404297 0.234375)" xlink:href="#DejaVuSans-29"/>
     </g>
    </g>
    <g id="line2d_19">
     <path d="M 357.62 69.248562 
L 377.62 69.248562 
" style="fill:none;stroke:#ff7f0e;stroke-linecap:square;stroke-width:1.5;"/>
    </g>
    <g id="line2d_20"/>
    <g id="text_17">
     <!-- $\omega(t)$ -->
     <defs>
      <path d="M 21.390625 -1.421875 
Q 1.125 -1.421875 6.78125 27.59375 
Q 8.984375 39.0625 19.625 54.6875 
L 29.296875 54.6875 
Q 19.234375 39.0625 17 27.34375 
Q 12.796875 6.203125 23.734375 6.203125 
Q 33.84375 6.203125 38.71875 32.46875 
L 47.015625 32.46875 
Q 41.703125 6.0625 51.8125 6.203125 
Q 62.703125 6.296875 66.796875 27.34375 
Q 69.046875 39.0625 65.140625 54.6875 
L 74.8125 54.6875 
Q 79.296875 39.0625 77.09375 27.59375 
Q 71.53125 -1.46875 51.21875 -1.421875 
Q 37.9375 -1.375 39.109375 13.1875 
Q 34.28125 -1.421875 21.390625 -1.421875 
z
" id="DejaVuSans-Oblique-3c9"/>
     </defs>
     <g transform="translate(385.62 72.748562)scale(0.1 -0.1)">
      <use transform="translate(0 0.125)" xlink:href="#DejaVuSans-Oblique-3c9"/>
      <use transform="translate(83.740234 0.125)" xlink:href="#DejaVuSans-28"/>
      <use transform="translate(122.753906 0.125)" xlink:href="#DejaVuSans-Oblique-74"/>
      <use transform="translate(161.962891 0.125)" xlink:href="#DejaVuSans-29"/>
     </g>
    </g>
   </g>
  </g>
 </g>
 <defs>
  <clipPath id="p551365df3b">
   <rect height="266.112" width="357.12" x="57.6" y="41.472"/>
  </clipPath>
 </defs>
</svg>
