<?xml version="1.0" encoding="utf-8" standalone="no"?>
<!DOCTYPE svg PUBLIC "-//W3C//DTD SVG 1.1//EN"
  "http://www.w3.org/Graphics/SVG/1.1/DTD/svg11.dtd">
<!-- Created with matplotlib (http://matplotlib.org/) -->
<svg height="345pt" version="1.1" viewBox="0 0 460 345" width="460pt" xmlns="http://www.w3.org/2000/svg" xmlns:xlink="http://www.w3.org/1999/xlink">
 <defs>
  <style type="text/css">
*{stroke-linecap:butt;stroke-linejoin:round;}
  </style>
 </defs>
 <g id="figure_1">
  <g id="patch_1">
   <path d="M 0 345.6 
L 460.8 345.6 
L 460.8 0 
L 0 0 
z
" style="fill:#ffffff;"/>
  </g>
  <g id="axes_1">
   <g id="patch_2">
    <path d="M 57.6 307.584 
L 414.72 307.584 
L 414.72 41.472 
L 57.6 41.472 
z
" style="fill:#ffffff;"/>
   </g>
   <g id="matplotlib.axis_1">
    <g id="xtick_1">
     <g id="line2d_1">
      <defs>
       <path d="M 0 0 
L 0 3.5 
" id="m8136f5e05f" style="stroke:#000000;stroke-width:0.8;"/>
      </defs>
      <g>
       <use style="stroke:#000000;stroke-width:0.8;" x="73.832727" xlink:href="#m8136f5e05f" y="307.584"/>
      </g>
     </g>
     <g id="text_1">
      <!-- 0 -->
      <defs>
       <path d="M 31.78125 66.40625 
Q 24.171875 66.40625 20.328125 58.90625 
Q 16.5 51.421875 16.5 36.375 
Q 16.5 21.390625 20.328125 13.890625 
Q 24.171875 6.390625 31.78125 6.390625 
Q 39.453125 6.390625 43.28125 13.890625 
Q 47.125 21.390625 47.125 36.375 
Q 47.125 51.421875 43.28125 58.90625 
Q 39.453125 66.40625 31.78125 66.40625 
z
M 31.78125 74.21875 
Q 44.046875 74.21875 50.515625 64.515625 
Q 56.984375 54.828125 56.984375 36.375 
Q 56.984375 17.96875 50.515625 8.265625 
Q 44.046875 -1.421875 31.78125 -1.421875 
Q 19.53125 -1.421875 13.0625 8.265625 
Q 6.59375 17.96875 6.59375 36.375 
Q 6.59375 54.828125 13.0625 64.515625 
Q 19.53125 74.21875 31.78125 74.21875 
z
" id="DejaVuSans-30"/>
      </defs>
      <g transform="translate(70.651477 322.182437)scale(0.1 -0.1)">
       <use xlink:href="#DejaVuSans-30"/>
      </g>
     </g>
    </g>
    <g id="xtick_2">
     <g id="line2d_2">
      <g>
       <use style="stroke:#000000;stroke-width:0.8;" x="125.503103" xlink:href="#m8136f5e05f" y="307.584"/>
      </g>
     </g>
     <g id="text_2">
      <!-- 1 -->
      <defs>
       <path d="M 12.40625 8.296875 
L 28.515625 8.296875 
L 28.515625 63.921875 
L 10.984375 60.40625 
L 10.984375 69.390625 
L 28.421875 72.90625 
L 38.28125 72.90625 
L 38.28125 8.296875 
L 54.390625 8.296875 
L 54.390625 0 
L 12.40625 0 
z
" id="DejaVuSans-31"/>
      </defs>
      <g transform="translate(122.321853 322.182437)scale(0.1 -0.1)">
       <use xlink:href="#DejaVuSans-31"/>
      </g>
     </g>
    </g>
    <g id="xtick_3">
     <g id="line2d_3">
      <g>
       <use style="stroke:#000000;stroke-width:0.8;" x="177.173479" xlink:href="#m8136f5e05f" y="307.584"/>
      </g>
     </g>
     <g id="text_3">
      <!-- 2 -->
      <defs>
       <path d="M 19.1875 8.296875 
L 53.609375 8.296875 
L 53.609375 0 
L 7.328125 0 
L 7.328125 8.296875 
Q 12.9375 14.109375 22.625 23.890625 
Q 32.328125 33.6875 34.8125 36.53125 
Q 39.546875 41.84375 41.421875 45.53125 
Q 43.3125 49.21875 43.3125 52.78125 
Q 43.3125 58.59375 39.234375 62.25 
Q 35.15625 65.921875 28.609375 65.921875 
Q 23.96875 65.921875 18.8125 64.3125 
Q 13.671875 62.703125 7.8125 59.421875 
L 7.8125 69.390625 
Q 13.765625 71.78125 18.9375 73 
Q 24.125 74.21875 28.421875 74.21875 
Q 39.75 74.21875 46.484375 68.546875 
Q 53.21875 62.890625 53.21875 53.421875 
Q 53.21875 48.921875 51.53125 44.890625 
Q 49.859375 40.875 45.40625 35.40625 
Q 44.1875 33.984375 37.640625 27.21875 
Q 31.109375 20.453125 19.1875 8.296875 
z
" id="DejaVuSans-32"/>
      </defs>
      <g transform="translate(173.992229 322.182437)scale(0.1 -0.1)">
       <use xlink:href="#DejaVuSans-32"/>
      </g>
     </g>
    </g>
    <g id="xtick_4">
     <g id="line2d_4">
      <g>
       <use style="stroke:#000000;stroke-width:0.8;" x="228.843854" xlink:href="#m8136f5e05f" y="307.584"/>
      </g>
     </g>
     <g id="text_4">
      <!-- 3 -->
      <defs>
       <path d="M 40.578125 39.3125 
Q 47.65625 37.796875 51.625 33 
Q 55.609375 28.21875 55.609375 21.1875 
Q 55.609375 10.40625 48.1875 4.484375 
Q 40.765625 -1.421875 27.09375 -1.421875 
Q 22.515625 -1.421875 17.65625 -0.515625 
Q 12.796875 0.390625 7.625 2.203125 
L 7.625 11.71875 
Q 11.71875 9.328125 16.59375 8.109375 
Q 21.484375 6.890625 26.8125 6.890625 
Q 36.078125 6.890625 40.9375 10.546875 
Q 45.796875 14.203125 45.796875 21.1875 
Q 45.796875 27.640625 41.28125 31.265625 
Q 36.765625 34.90625 28.71875 34.90625 
L 20.21875 34.90625 
L 20.21875 43.015625 
L 29.109375 43.015625 
Q 36.375 43.015625 40.234375 45.921875 
Q 44.09375 48.828125 44.09375 54.296875 
Q 44.09375 59.90625 40.109375 62.90625 
Q 36.140625 65.921875 28.71875 65.921875 
Q 24.65625 65.921875 20.015625 65.03125 
Q 15.375 64.15625 9.8125 62.3125 
L 9.8125 71.09375 
Q 15.4375 72.65625 20.34375 73.4375 
Q 25.25 74.21875 29.59375 74.21875 
Q 40.828125 74.21875 47.359375 69.109375 
Q 53.90625 64.015625 53.90625 55.328125 
Q 53.90625 49.265625 50.4375 45.09375 
Q 46.96875 40.921875 40.578125 39.3125 
z
" id="DejaVuSans-33"/>
      </defs>
      <g transform="translate(225.662604 322.182437)scale(0.1 -0.1)">
       <use xlink:href="#DejaVuSans-33"/>
      </g>
     </g>
    </g>
    <g id="xtick_5">
     <g id="line2d_5">
      <g>
       <use style="stroke:#000000;stroke-width:0.8;" x="280.51423" xlink:href="#m8136f5e05f" y="307.584"/>
      </g>
     </g>
     <g id="text_5">
      <!-- 4 -->
      <defs>
       <path d="M 37.796875 64.3125 
L 12.890625 25.390625 
L 37.796875 25.390625 
z
M 35.203125 72.90625 
L 47.609375 72.90625 
L 47.609375 25.390625 
L 58.015625 25.390625 
L 58.015625 17.1875 
L 47.609375 17.1875 
L 47.609375 0 
L 37.796875 0 
L 37.796875 17.1875 
L 4.890625 17.1875 
L 4.890625 26.703125 
z
" id="DejaVuSans-34"/>
      </defs>
      <g transform="translate(277.33298 322.182437)scale(0.1 -0.1)">
       <use xlink:href="#DejaVuSans-34"/>
      </g>
     </g>
    </g>
    <g id="xtick_6">
     <g id="line2d_6">
      <g>
       <use style="stroke:#000000;stroke-width:0.8;" x="332.184606" xlink:href="#m8136f5e05f" y="307.584"/>
      </g>
     </g>
     <g id="text_6">
      <!-- 5 -->
      <defs>
       <path d="M 10.796875 72.90625 
L 49.515625 72.90625 
L 49.515625 64.59375 
L 19.828125 64.59375 
L 19.828125 46.734375 
Q 21.96875 47.46875 24.109375 47.828125 
Q 26.265625 48.1875 28.421875 48.1875 
Q 40.625 48.1875 47.75 41.5 
Q 54.890625 34.8125 54.890625 23.390625 
Q 54.890625 11.625 47.5625 5.09375 
Q 40.234375 -1.421875 26.90625 -1.421875 
Q 22.3125 -1.421875 17.546875 -0.640625 
Q 12.796875 0.140625 7.71875 1.703125 
L 7.71875 11.625 
Q 12.109375 9.234375 16.796875 8.0625 
Q 21.484375 6.890625 26.703125 6.890625 
Q 35.15625 6.890625 40.078125 11.328125 
Q 45.015625 15.765625 45.015625 23.390625 
Q 45.015625 31 40.078125 35.4375 
Q 35.15625 39.890625 26.703125 39.890625 
Q 22.75 39.890625 18.8125 39.015625 
Q 14.890625 38.140625 10.796875 36.28125 
z
" id="DejaVuSans-35"/>
      </defs>
      <g transform="translate(329.003356 322.182437)scale(0.1 -0.1)">
       <use xlink:href="#DejaVuSans-35"/>
      </g>
     </g>
    </g>
    <g id="xtick_7">
     <g id="line2d_7">
      <g>
       <use style="stroke:#000000;stroke-width:0.8;" x="383.854982" xlink:href="#m8136f5e05f" y="307.584"/>
      </g>
     </g>
     <g id="text_7">
      <!-- 6 -->
      <defs>
       <path d="M 33.015625 40.375 
Q 26.375 40.375 22.484375 35.828125 
Q 18.609375 31.296875 18.609375 23.390625 
Q 18.609375 15.53125 22.484375 10.953125 
Q 26.375 6.390625 33.015625 6.390625 
Q 39.65625 6.390625 43.53125 10.953125 
Q 47.40625 15.53125 47.40625 23.390625 
Q 47.40625 31.296875 43.53125 35.828125 
Q 39.65625 40.375 33.015625 40.375 
z
M 52.59375 71.296875 
L 52.59375 62.3125 
Q 48.875 64.0625 45.09375 64.984375 
Q 41.3125 65.921875 37.59375 65.921875 
Q 27.828125 65.921875 22.671875 59.328125 
Q 17.53125 52.734375 16.796875 39.40625 
Q 19.671875 43.65625 24.015625 45.921875 
Q 28.375 48.1875 33.59375 48.1875 
Q 44.578125 48.1875 50.953125 41.515625 
Q 57.328125 34.859375 57.328125 23.390625 
Q 57.328125 12.15625 50.6875 5.359375 
Q 44.046875 -1.421875 33.015625 -1.421875 
Q 20.359375 -1.421875 13.671875 8.265625 
Q 6.984375 17.96875 6.984375 36.375 
Q 6.984375 53.65625 15.1875 63.9375 
Q 23.390625 74.21875 37.203125 74.21875 
Q 40.921875 74.21875 44.703125 73.484375 
Q 48.484375 72.75 52.59375 71.296875 
z
" id="DejaVuSans-36"/>
      </defs>
      <g transform="translate(380.673732 322.182437)scale(0.1 -0.1)">
       <use xlink:href="#DejaVuSans-36"/>
      </g>
     </g>
    </g>
   </g>
   <g id="matplotlib.axis_2">
    <g id="ytick_1">
     <g id="line2d_8">
      <defs>
       <path d="M 0 0 
L -3.5 0 
" id="m997e04029c" style="stroke:#000000;stroke-width:0.8;"/>
      </defs>
      <g>
       <use style="stroke:#000000;stroke-width:0.8;" x="57.6" xlink:href="#m997e04029c" y="295.490244"/>
      </g>
     </g>
     <g id="text_8">
      <!-- −1.00 -->
      <defs>
       <path d="M 10.59375 35.5 
L 73.1875 35.5 
L 73.1875 27.203125 
L 10.59375 27.203125 
z
" id="DejaVuSans-2212"/>
       <path d="M 10.6875 12.40625 
L 21 12.40625 
L 21 0 
L 10.6875 0 
z
" id="DejaVuSans-2e"/>
      </defs>
      <g transform="translate(19.954687 299.289463)scale(0.1 -0.1)">
       <use xlink:href="#DejaVuSans-2212"/>
       <use x="83.789062" xlink:href="#DejaVuSans-31"/>
       <use x="147.412109" xlink:href="#DejaVuSans-2e"/>
       <use x="179.199219" xlink:href="#DejaVuSans-30"/>
       <use x="242.822266" xlink:href="#DejaVuSans-30"/>
      </g>
     </g>
    </g>
    <g id="ytick_2">
     <g id="line2d_9">
      <g>
       <use style="stroke:#000000;stroke-width:0.8;" x="57.6" xlink:href="#m997e04029c" y="265.249683"/>
      </g>
     </g>
     <g id="text_9">
      <!-- −0.75 -->
      <defs>
       <path d="M 8.203125 72.90625 
L 55.078125 72.90625 
L 55.078125 68.703125 
L 28.609375 0 
L 18.3125 0 
L 43.21875 64.59375 
L 8.203125 64.59375 
z
" id="DejaVuSans-37"/>
      </defs>
      <g transform="translate(19.954687 269.048902)scale(0.1 -0.1)">
       <use xlink:href="#DejaVuSans-2212"/>
       <use x="83.789062" xlink:href="#DejaVuSans-30"/>
       <use x="147.412109" xlink:href="#DejaVuSans-2e"/>
       <use x="179.199219" xlink:href="#DejaVuSans-37"/>
       <use x="242.822266" xlink:href="#DejaVuSans-35"/>
      </g>
     </g>
    </g>
    <g id="ytick_3">
     <g id="line2d_10">
      <g>
       <use style="stroke:#000000;stroke-width:0.8;" x="57.6" xlink:href="#m997e04029c" y="235.009122"/>
      </g>
     </g>
     <g id="text_10">
      <!-- −0.50 -->
      <g transform="translate(19.954687 238.808341)scale(0.1 -0.1)">
       <use xlink:href="#DejaVuSans-2212"/>
       <use x="83.789062" xlink:href="#DejaVuSans-30"/>
       <use x="147.412109" xlink:href="#DejaVuSans-2e"/>
       <use x="179.199219" xlink:href="#DejaVuSans-35"/>
       <use x="242.822266" xlink:href="#DejaVuSans-30"/>
      </g>
     </g>
    </g>
    <g id="ytick_4">
     <g id="line2d_11">
      <g>
       <use style="stroke:#000000;stroke-width:0.8;" x="57.6" xlink:href="#m997e04029c" y="204.768561"/>
      </g>
     </g>
     <g id="text_11">
      <!-- −0.25 -->
      <g transform="translate(19.954687 208.56778)scale(0.1 -0.1)">
       <use xlink:href="#DejaVuSans-2212"/>
       <use x="83.789062" xlink:href="#DejaVuSans-30"/>
       <use x="147.412109" xlink:href="#DejaVuSans-2e"/>
       <use x="179.199219" xlink:href="#DejaVuSans-32"/>
       <use x="242.822266" xlink:href="#DejaVuSans-35"/>
      </g>
     </g>
    </g>
    <g id="ytick_5">
     <g id="line2d_12">
      <g>
       <use style="stroke:#000000;stroke-width:0.8;" x="57.6" xlink:href="#m997e04029c" y="174.528"/>
      </g>
     </g>
     <g id="text_12">
      <!-- 0.00 -->
      <g transform="translate(28.334375 178.327219)scale(0.1 -0.1)">
       <use xlink:href="#DejaVuSans-30"/>
       <use x="63.623047" xlink:href="#DejaVuSans-2e"/>
       <use x="95.410156" xlink:href="#DejaVuSans-30"/>
       <use x="159.033203" xlink:href="#DejaVuSans-30"/>
      </g>
     </g>
    </g>
    <g id="ytick_6">
     <g id="line2d_13">
      <g>
       <use style="stroke:#000000;stroke-width:0.8;" x="57.6" xlink:href="#m997e04029c" y="144.287439"/>
      </g>
     </g>
     <g id="text_13">
      <!-- 0.25 -->
      <g transform="translate(28.334375 148.086658)scale(0.1 -0.1)">
       <use xlink:href="#DejaVuSans-30"/>
       <use x="63.623047" xlink:href="#DejaVuSans-2e"/>
       <use x="95.410156" xlink:href="#DejaVuSans-32"/>
       <use x="159.033203" xlink:href="#DejaVuSans-35"/>
      </g>
     </g>
    </g>
    <g id="ytick_7">
     <g id="line2d_14">
      <g>
       <use style="stroke:#000000;stroke-width:0.8;" x="57.6" xlink:href="#m997e04029c" y="114.046878"/>
      </g>
     </g>
     <g id="text_14">
      <!-- 0.50 -->
      <g transform="translate(28.334375 117.846097)scale(0.1 -0.1)">
       <use xlink:href="#DejaVuSans-30"/>
       <use x="63.623047" xlink:href="#DejaVuSans-2e"/>
       <use x="95.410156" xlink:href="#DejaVuSans-35"/>
       <use x="159.033203" xlink:href="#DejaVuSans-30"/>
      </g>
     </g>
    </g>
    <g id="ytick_8">
     <g id="line2d_15">
      <g>
       <use style="stroke:#000000;stroke-width:0.8;" x="57.6" xlink:href="#m997e04029c" y="83.806317"/>
      </g>
     </g>
     <g id="text_15">
      <!-- 0.75 -->
      <g transform="translate(28.334375 87.605536)scale(0.1 -0.1)">
       <use xlink:href="#DejaVuSans-30"/>
       <use x="63.623047" xlink:href="#DejaVuSans-2e"/>
       <use x="95.410156" xlink:href="#DejaVuSans-37"/>
       <use x="159.033203" xlink:href="#DejaVuSans-35"/>
      </g>
     </g>
    </g>
    <g id="ytick_9">
     <g id="line2d_16">
      <g>
       <use style="stroke:#000000;stroke-width:0.8;" x="57.6" xlink:href="#m997e04029c" y="53.565756"/>
      </g>
     </g>
     <g id="text_16">
      <!-- 1.00 -->
      <g transform="translate(28.334375 57.364975)scale(0.1 -0.1)">
       <use xlink:href="#DejaVuSans-31"/>
       <use x="63.623047" xlink:href="#DejaVuSans-2e"/>
       <use x="95.410156" xlink:href="#DejaVuSans-30"/>
       <use x="159.033203" xlink:href="#DejaVuSans-30"/>
      </g>
     </g>
    </g>
   </g>
   <g id="line2d_17">
    <path clip-path="url(#p0a48fdbb1b)" d="M 73.832727 174.528 
L 74.005324 174.123973 
L 74.177921 173.71995 
L 74.350518 173.315936 
L 74.523114 172.911935 
L 74.695711 172.507952 
L 74.868308 172.103992 
L 75.040905 171.700058 
L 75.213502 171.296156 
L 75.386098 170.892289 
L 75.558695 170.488463 
L 75.731292 170.084681 
L 75.903889 169.680948 
L 76.076485 169.277269 
L 76.249082 168.873648 
L 76.421679 168.47009 
L 76.594276 168.066598 
L 76.766873 167.663179 
L 76.939469 167.259835 
L 77.112066 166.856571 
L 77.284663 166.453392 
L 77.45726 166.050303 
L 77.629856 165.647307 
L 77.802453 165.24441 
L 77.97505 164.841616 
L 78.147647 164.438928 
L 78.320244 164.036353 
L 78.49284 163.633893 
L 78.665437 163.231554 
L 78.838034 162.829341 
L 79.010631 162.427256 
L 79.183227 162.025306 
L 79.355824 161.623494 
L 79.528421 161.221826 
L 79.701018 160.820304 
L 79.873615 160.418935 
L 80.046211 160.017722 
L 80.218808 159.616669 
L 80.391405 159.215782 
L 80.564002 158.815065 
L 80.736599 158.414522 
L 80.909195 158.014158 
L 81.081792 157.613976 
L 81.254389 157.213983 
L 81.426986 156.814181 
L 81.599582 156.414576 
L 81.772179 156.015172 
L 81.944776 155.615974 
L 82.117373 155.216986 
L 82.28997 154.818211 
L 82.462566 154.419656 
L 82.635163 154.021324 
L 82.80776 153.62322 
L 82.980357 153.225349 
L 83.152953 152.827714 
L 83.32555 152.43032 
L 83.498147 152.033172 
L 83.670744 151.636274 
L 83.843341 151.239631 
L 84.015937 150.843247 
L 84.188534 150.447126 
L 84.361131 150.051274 
L 84.533728 149.655694 
L 84.706324 149.260391 
L 84.878921 148.865369 
L 85.051518 148.470633 
L 85.224115 148.076188 
L 85.396712 147.682037 
L 85.569308 147.288186 
L 85.741905 146.894639 
L 85.914502 146.5014 
L 86.087099 146.108473 
L 86.259696 145.715864 
L 86.432292 145.323576 
L 86.604889 144.931614 
L 86.777486 144.539983 
L 86.950083 144.148687 
L 87.122679 143.757731 
L 87.295276 143.367118 
L 87.467873 142.976854 
L 87.64047 142.586943 
L 87.813067 142.197389 
L 87.985663 141.808197 
L 88.15826 141.419371 
L 88.330857 141.030916 
L 88.503454 140.642837 
L 88.67605 140.255137 
L 88.848647 139.867821 
L 89.021244 139.480894 
L 89.193841 139.09436 
L 89.366438 138.708223 
L 89.539034 138.322489 
L 89.711631 137.937161 
L 89.884228 137.552244 
L 90.056825 137.167743 
L 90.229421 136.783661 
L 90.402018 136.400004 
L 90.574615 136.016776 
L 90.747212 135.633981 
L 90.919809 135.251624 
" style="fill:none;stroke:#ff0000;stroke-linecap:square;stroke-width:1.5;"/>
   </g>
   <g id="line2d_18">
    <path clip-path="url(#p0a48fdbb1b)" d="M 90.919809 135.251624 
L 91.092405 134.869709 
L 91.265002 134.48824 
L 91.437599 134.107221 
L 91.610196 133.726657 
L 91.782793 133.346551 
L 91.955389 132.966907 
L 92.127986 132.587729 
L 92.300583 132.209021 
L 92.47318 131.830787 
L 92.645776 131.453032 
L 92.818373 131.075758 
L 92.99097 130.698971 
L 93.163567 130.322673 
L 93.336164 129.94687 
L 93.50876 129.571565 
L 93.681357 129.196761 
L 93.853954 128.822464 
L 94.026551 128.448677 
L 94.199147 128.075403 
L 94.371744 127.702648 
L 94.544341 127.330414 
L 94.716938 126.958706 
L 94.889535 126.587529 
L 95.062131 126.216885 
L 95.234728 125.846778 
L 95.407325 125.477214 
L 95.579922 125.108196 
L 95.752518 124.739727 
L 95.925115 124.371812 
L 96.097712 124.004455 
L 96.270309 123.637659 
L 96.442906 123.27143 
L 96.615502 122.90577 
L 96.788099 122.540684 
L 96.960696 122.176175 
L 97.133293 121.812248 
L 97.30589 121.448907 
L 97.478486 121.086155 
L 97.651083 120.723997 
L 97.82368 120.362436 
L 97.996277 120.001477 
L 98.168873 119.641124 
L 98.34147 119.28138 
L 98.514067 118.92225 
L 98.686664 118.563737 
L 98.859261 118.205846 
L 99.031857 117.84858 
L 99.204454 117.491944 
L 99.377051 117.135941 
L 99.549648 116.780575 
L 99.722244 116.425851 
L 99.894841 116.071772 
L 100.067438 115.718343 
L 100.240035 115.365567 
L 100.412632 115.013448 
L 100.585228 114.661991 
L 100.757825 114.311199 
L 100.930422 113.961076 
L 101.103019 113.611626 
L 101.275615 113.262854 
L 101.448212 112.914763 
L 101.620809 112.567357 
L 101.793406 112.220641 
L 101.966003 111.874617 
L 102.138599 111.529291 
L 102.311196 111.184666 
L 102.483793 110.840746 
L 102.65639 110.497535 
L 102.828987 110.155037 
L 103.001583 109.813257 
L 103.17418 109.472197 
L 103.346777 109.131863 
L 103.519374 108.792257 
L 103.69197 108.453385 
L 103.864567 108.115249 
L 104.037164 107.777854 
L 104.209761 107.441205 
L 104.382358 107.105304 
L 104.554954 106.770157 
L 104.727551 106.435766 
L 104.900148 106.102136 
L 105.072745 105.769271 
L 105.245341 105.437175 
L 105.417938 105.105852 
L 105.590535 104.775305 
L 105.763132 104.445539 
L 105.935729 104.116559 
L 106.108325 103.788366 
L 106.280922 103.460967 
L 106.453519 103.134365 
L 106.626116 102.808563 
L 106.798712 102.483566 
L 106.971309 102.159377 
L 107.143906 101.836001 
L 107.316503 101.513442 
L 107.4891 101.191704 
L 107.661696 100.87079 
L 107.834293 100.550705 
L 108.00689 100.231452 
" style="fill:none;stroke:#ff0000;stroke-linecap:square;stroke-width:1.5;"/>
   </g>
   <g id="line2d_19">
    <path clip-path="url(#p0a48fdbb1b)" d="M 108.00689 100.231452 
L 108.179487 99.913036 
L 108.352084 99.595459 
L 108.52468 99.278725 
L 108.697277 98.962837 
L 108.869874 98.647798 
L 109.042471 98.333611 
L 109.215067 98.020278 
L 109.387664 97.707804 
L 109.560261 97.396191 
L 109.732858 97.085442 
L 109.905455 96.77556 
L 110.078051 96.466549 
L 110.250648 96.158411 
L 110.423245 95.851149 
L 110.595842 95.544767 
L 110.768438 95.239267 
L 110.941035 94.934654 
L 111.113632 94.630928 
L 111.286229 94.328095 
L 111.458826 94.026157 
L 111.631422 93.725116 
L 111.804019 93.424976 
L 111.976616 93.125741 
L 112.149213 92.827412 
L 112.321809 92.529994 
L 112.494406 92.233489 
L 112.667003 91.937901 
L 112.8396 91.643231 
L 113.012197 91.349485 
L 113.184793 91.056663 
L 113.35739 90.764771 
L 113.529987 90.47381 
L 113.702584 90.183784 
L 113.875181 89.894695 
L 114.047777 89.606548 
L 114.220374 89.319344 
L 114.392971 89.033087 
L 114.565568 88.747781 
L 114.738164 88.463427 
L 114.910761 88.18003 
L 115.083358 87.897592 
L 115.255955 87.616116 
L 115.428552 87.335606 
L 115.601148 87.056064 
L 115.773745 86.777494 
L 115.946342 86.499898 
L 116.118939 86.22328 
L 116.291535 85.947643 
L 116.464132 85.67299 
L 116.636729 85.399323 
L 116.809326 85.126647 
L 116.981923 84.854963 
L 117.154519 84.584276 
L 117.327116 84.314587 
L 117.499713 84.045901 
L 117.67231 83.77822 
L 117.844906 83.511548 
L 118.017503 83.245887 
L 118.1901 82.98124 
L 118.362697 82.717611 
L 118.535294 82.455003 
L 118.70789 82.193418 
L 118.880487 81.93286 
L 119.053084 81.673332 
L 119.225681 81.414836 
L 119.398278 81.157377 
L 119.570874 80.900957 
L 119.743471 80.645578 
L 119.916068 80.391245 
L 120.088665 80.13796 
L 120.261261 79.885727 
L 120.433858 79.634548 
L 120.606455 79.384426 
L 120.779052 79.135365 
L 120.951649 78.887367 
L 121.124245 78.640436 
L 121.296842 78.394574 
L 121.469439 78.149786 
L 121.642036 77.906073 
L 121.814632 77.663439 
L 121.987229 77.421887 
L 122.159826 77.18142 
L 122.332423 76.942041 
L 122.50502 76.703754 
L 122.677616 76.46656 
L 122.850213 76.230464 
L 123.02281 75.995468 
L 123.195407 75.761576 
L 123.368003 75.52879 
L 123.5406 75.297114 
L 123.713197 75.06655 
L 123.885794 74.837102 
L 124.058391 74.608773 
L 124.230987 74.381566 
L 124.403584 74.155483 
L 124.576181 73.930529 
L 124.748778 73.706706 
L 124.921375 73.484016 
L 125.093971 73.262464 
" style="fill:none;stroke:#ff0000;stroke-linecap:square;stroke-width:1.5;"/>
   </g>
   <g id="line2d_20">
    <path clip-path="url(#p0a48fdbb1b)" d="M 125.093971 73.262464 
L 125.266568 73.042052 
L 125.439165 72.822782 
L 125.611762 72.604656 
L 125.784358 72.387676 
L 125.956955 72.171843 
L 126.129552 71.957159 
L 126.302149 71.743627 
L 126.474746 71.531248 
L 126.647342 71.320023 
L 126.819939 71.109955 
L 126.992536 70.901045 
L 127.165133 70.693296 
L 127.337729 70.486709 
L 127.510326 70.281286 
L 127.682923 70.077028 
L 127.85552 69.873938 
L 128.028117 69.672017 
L 128.200713 69.471268 
L 128.37331 69.271691 
L 128.545907 69.073289 
L 128.718504 68.876064 
L 128.8911 68.680017 
L 129.063697 68.485151 
L 129.236294 68.291467 
L 129.408891 68.098966 
L 129.581488 67.907652 
L 129.754084 67.717525 
L 129.926681 67.528587 
L 130.099278 67.34084 
L 130.271875 67.154287 
L 130.444472 66.968928 
L 130.617068 66.784766 
L 130.789665 66.601802 
L 130.962262 66.420039 
L 131.134859 66.239477 
L 131.307455 66.06012 
L 131.480052 65.881968 
L 131.652649 65.705024 
L 131.825246 65.529289 
L 131.997843 65.354766 
L 132.170439 65.181455 
L 132.343036 65.00936 
L 132.515633 64.838481 
L 132.68823 64.66882 
L 132.860826 64.50038 
L 133.033423 64.333162 
L 133.20602 64.167168 
L 133.378617 64.002399 
L 133.551214 63.838858 
L 133.72381 63.676547 
L 133.896407 63.515466 
L 134.069004 63.355619 
L 134.241601 63.197007 
L 134.414197 63.039631 
L 134.586794 62.883494 
L 134.759391 62.728597 
L 134.931988 62.574942 
L 135.104585 62.422531 
L 135.277181 62.271366 
L 135.449778 62.121448 
L 135.622375 61.97278 
L 135.794972 61.825363 
L 135.967569 61.679199 
L 136.140165 61.53429 
L 136.312762 61.390638 
L 136.485359 61.248244 
L 136.657956 61.10711 
L 136.830552 60.967239 
L 137.003149 60.828631 
L 137.175746 60.69129 
L 137.348343 60.555216 
L 137.52094 60.420411 
L 137.693536 60.286877 
L 137.866133 60.154617 
L 138.03873 60.023631 
L 138.211327 59.893923 
L 138.383923 59.765492 
L 138.55652 59.638342 
L 138.729117 59.512474 
L 138.901714 59.38789 
L 139.074311 59.264592 
L 139.246907 59.142582 
L 139.419504 59.02186 
L 139.592101 58.902431 
L 139.764698 58.784294 
L 139.937294 58.667452 
L 140.109891 58.551907 
L 140.282488 58.43766 
L 140.455085 58.324714 
L 140.627682 58.213069 
L 140.800278 58.102729 
L 140.972875 57.993695 
L 141.145472 57.885968 
L 141.318069 57.77955 
L 141.490666 57.674444 
L 141.663262 57.570651 
L 141.835859 57.468173 
L 142.008456 57.367012 
L 142.181053 57.267169 
" style="fill:none;stroke:#ff0000;stroke-linecap:square;stroke-width:1.5;"/>
   </g>
   <g id="line2d_21">
    <path clip-path="url(#p0a48fdbb1b)" d="M 142.181053 57.267169 
L 142.353649 57.168646 
L 142.526246 57.071444 
L 142.698843 56.975563 
L 142.87144 56.881003 
L 143.044037 56.787766 
L 143.216633 56.69585 
L 143.38923 56.605257 
L 143.561827 56.515987 
L 143.734424 56.428041 
L 143.90702 56.341418 
L 144.079617 56.256119 
L 144.252214 56.172145 
L 144.424811 56.089495 
L 144.597408 56.008171 
L 144.770004 55.928173 
L 144.942601 55.8495 
L 145.115198 55.772154 
L 145.287795 55.696134 
L 145.460391 55.621441 
L 145.632988 55.548076 
L 145.805585 55.476039 
L 145.978182 55.40533 
L 146.150779 55.335949 
L 146.323375 55.267898 
L 146.495972 55.201176 
L 146.668569 55.135783 
L 146.841166 55.071721 
L 147.013763 55.008989 
L 147.186359 54.947587 
L 147.358956 54.887518 
L 147.531553 54.828779 
L 147.70415 54.771373 
L 147.876746 54.715299 
L 148.049343 54.660557 
L 148.22194 54.607149 
L 148.394537 54.555074 
L 148.567134 54.504333 
L 148.73973 54.454926 
L 148.912327 54.406853 
L 149.084924 54.360116 
L 149.257521 54.314714 
L 149.430117 54.270647 
L 149.602714 54.227917 
L 149.775311 54.186523 
L 149.947908 54.146466 
L 150.120505 54.107746 
L 150.293101 54.070363 
L 150.465698 54.034319 
L 150.638295 53.999613 
L 150.810892 53.966245 
L 150.983488 53.934217 
L 151.156085 53.903528 
L 151.328682 53.874178 
L 151.501279 53.846169 
L 151.673876 53.819501 
L 151.846472 53.794173 
L 152.019069 53.770187 
L 152.191666 53.747542 
L 152.364263 53.72624 
L 152.53686 53.706279 
L 152.709456 53.687662 
L 152.882053 53.670388 
L 153.05465 53.654457 
L 153.227247 53.63987 
L 153.399843 53.626628 
L 153.57244 53.61473 
L 153.745037 53.604177 
L 153.917634 53.59497 
L 154.090231 53.587108 
L 154.262827 53.580593 
L 154.435424 53.575424 
L 154.608021 53.571602 
L 154.780618 53.569127 
L 154.953214 53.568 
L 155.125811 53.568221 
L 155.298408 53.56979 
L 155.471005 53.572708 
L 155.643602 53.576976 
L 155.816198 53.582592 
L 155.988795 53.589559 
L 156.161392 53.597876 
L 156.333989 53.607544 
L 156.506585 53.618562 
L 156.679182 53.630932 
L 156.851779 53.644654 
L 157.024376 53.659728 
L 157.196973 53.676154 
L 157.369569 53.693934 
L 157.542166 53.713066 
L 157.714763 53.733552 
L 157.88736 53.755393 
L 158.059957 53.778587 
L 158.232553 53.803137 
L 158.40515 53.829041 
L 158.577747 53.856301 
L 158.750344 53.884917 
L 158.92294 53.914889 
L 159.095537 53.946218 
L 159.268134 53.978904 
" style="fill:none;stroke:#ff0000;stroke-linecap:square;stroke-width:1.5;"/>
   </g>
   <g id="line2d_22">
    <path clip-path="url(#p0a48fdbb1b)" d="M 159.268134 53.978904 
L 159.440731 54.012946 
L 159.613328 54.048346 
L 159.785924 54.0851 
L 159.958521 54.123208 
L 160.131118 54.16267 
L 160.303715 54.203483 
L 160.476311 54.245646 
L 160.648908 54.28916 
L 160.821505 54.334022 
L 160.994102 54.380231 
L 161.166699 54.427786 
L 161.339295 54.476687 
L 161.511892 54.526932 
L 161.684489 54.578519 
L 161.857086 54.631449 
L 162.029682 54.685719 
L 162.202279 54.741329 
L 162.374876 54.798277 
L 162.547473 54.856562 
L 162.72007 54.916184 
L 162.892666 54.977141 
L 163.065263 55.039432 
L 163.23786 55.103056 
L 163.410457 55.168011 
L 163.583054 55.234298 
L 163.75565 55.301914 
L 163.928247 55.370858 
L 164.100844 55.44113 
L 164.273441 55.512728 
L 164.446037 55.585651 
L 164.618634 55.659898 
L 164.791231 55.735468 
L 164.963828 55.81236 
L 165.136425 55.890573 
L 165.309021 55.970105 
L 165.481618 56.050956 
L 165.654215 56.133124 
L 165.826812 56.216608 
L 165.999408 56.301407 
L 166.172005 56.387521 
L 166.344602 56.474947 
L 166.517199 56.563685 
L 166.689796 56.653734 
L 166.862392 56.745092 
L 167.034989 56.837759 
L 167.207586 56.931733 
L 167.380183 57.027013 
L 167.552779 57.123599 
L 167.725376 57.221488 
L 167.897973 57.32068 
L 168.07057 57.421175 
L 168.243167 57.522969 
L 168.415763 57.626064 
L 168.58836 57.730457 
L 168.760957 57.836147 
L 168.933554 57.943133 
L 169.106151 58.051415 
L 169.278747 58.16099 
L 169.451344 58.271859 
L 169.623941 58.384019 
L 169.796538 58.49747 
L 169.969134 58.61221 
L 170.141731 58.728239 
L 170.314328 58.845555 
L 170.486925 58.964158 
L 170.659522 59.084045 
L 170.832118 59.205217 
L 171.004715 59.327671 
L 171.177312 59.451407 
L 171.349909 59.576424 
L 171.522505 59.702721 
L 171.695102 59.830295 
L 171.867699 59.959148 
L 172.040296 60.089276 
L 172.212893 60.220679 
L 172.385489 60.353357 
L 172.558086 60.487307 
L 172.730683 60.622529 
L 172.90328 60.759022 
L 173.075876 60.896785 
L 173.248473 61.035815 
L 173.42107 61.176113 
L 173.593667 61.317678 
L 173.766264 61.460507 
L 173.93886 61.6046 
L 174.111457 61.749957 
L 174.284054 61.896575 
L 174.456651 62.044453 
L 174.629247 62.193592 
L 174.801844 62.343988 
L 174.974441 62.495642 
L 175.147038 62.648552 
L 175.319635 62.802718 
L 175.492231 62.958137 
L 175.664828 63.114809 
L 175.837425 63.272733 
L 176.010022 63.431907 
L 176.182619 63.592331 
L 176.355215 63.754004 
" style="fill:none;stroke:#ff0000;stroke-linecap:square;stroke-width:1.5;"/>
   </g>
   <g id="line2d_23">
    <path clip-path="url(#p0a48fdbb1b)" d="M 176.355215 63.754004 
L 176.527812 63.916923 
L 176.700409 64.081087 
L 176.873006 64.246494 
L 177.045602 64.413141 
L 177.218199 64.581025 
L 177.390796 64.750144 
L 177.563393 64.920495 
L 177.73599 65.092076 
L 177.908586 65.264885 
L 178.081183 65.438919 
L 178.25378 65.614175 
L 178.426377 65.790652 
L 178.598973 65.968346 
L 178.77157 66.147255 
L 178.944167 66.327377 
L 179.116764 66.508709 
L 179.289361 66.691248 
L 179.461957 66.874993 
L 179.634554 67.05994 
L 179.807151 67.246088 
L 179.979748 67.433434 
L 180.152344 67.621974 
L 180.324941 67.811708 
L 180.497538 68.002632 
L 180.670135 68.194744 
L 180.842732 68.388041 
L 181.015328 68.582521 
L 181.187925 68.778182 
L 181.360522 68.97502 
L 181.533119 69.173034 
L 181.705716 69.372221 
L 181.878312 69.572578 
L 182.050909 69.774104 
L 182.223506 69.976795 
L 182.396103 70.180649 
L 182.568699 70.385664 
L 182.741296 70.591837 
L 182.913893 70.799165 
L 183.08649 71.007647 
L 183.259087 71.217279 
L 183.431683 71.42806 
L 183.60428 71.639986 
L 183.776877 71.853056 
L 183.949474 72.067267 
L 184.12207 72.282615 
L 184.294667 72.4991 
L 184.467264 72.716718 
L 184.639861 72.935467 
L 184.812458 73.155344 
L 184.985054 73.376347 
L 185.157651 73.598474 
L 185.330248 73.821722 
L 185.502845 74.046088 
L 185.675441 74.27157 
L 185.848038 74.498166 
L 186.020635 74.725872 
L 186.193232 74.954688 
L 186.365829 75.184609 
L 186.538425 75.415634 
L 186.711022 75.647761 
L 186.883619 75.880986 
L 187.056216 76.115307 
L 187.228813 76.350722 
L 187.401409 76.587228 
L 187.574006 76.824823 
L 187.746603 77.063504 
L 187.9192 77.303269 
L 188.091796 77.544116 
L 188.264393 77.786041 
L 188.43699 78.029042 
L 188.609587 78.273118 
L 188.782184 78.518265 
L 188.95478 78.764481 
L 189.127377 79.011763 
L 189.299974 79.26011 
L 189.472571 79.509518 
L 189.645167 79.759985 
L 189.817764 80.011508 
L 189.990361 80.264086 
L 190.162958 80.517715 
L 190.335555 80.772394 
L 190.508151 81.028119 
L 190.680748 81.284888 
L 190.853345 81.542699 
L 191.025942 81.801549 
L 191.198538 82.061436 
L 191.371135 82.322358 
L 191.543732 82.584311 
L 191.716329 82.847293 
L 191.888926 83.111302 
L 192.061522 83.376336 
L 192.234119 83.642391 
L 192.406716 83.909466 
L 192.579313 84.177558 
L 192.75191 84.446665 
L 192.924506 84.716783 
L 193.097103 84.987911 
L 193.2697 85.260046 
L 193.442297 85.533185 
" style="fill:none;stroke:#ff0000;stroke-linecap:square;stroke-width:1.5;"/>
   </g>
   <g id="line2d_24">
    <path clip-path="url(#p0a48fdbb1b)" d="M 193.442297 85.533185 
L 193.614893 85.807326 
L 193.78749 86.082466 
L 193.960087 86.358601 
L 194.132684 86.635727 
L 194.305281 86.913841 
L 194.477877 87.192939 
L 194.650474 87.473017 
L 194.823071 87.754073 
L 194.995668 88.036102 
L 195.168264 88.319102 
L 195.340861 88.603067 
L 195.513458 88.887995 
L 195.686055 89.173883 
L 195.858652 89.460726 
L 196.031248 89.748521 
L 196.203845 90.037265 
L 196.376442 90.326953 
L 196.549039 90.617583 
L 196.721635 90.90915 
L 196.894232 91.201652 
L 197.066829 91.495084 
L 197.239426 91.789444 
L 197.412023 92.084726 
L 197.584619 92.380929 
L 197.757216 92.678048 
L 197.929813 92.97608 
L 198.10241 93.27502 
L 198.275007 93.574867 
L 198.447603 93.875615 
L 198.6202 94.177262 
L 198.792797 94.479804 
L 198.965394 94.783237 
L 199.13799 95.087557 
L 199.310587 95.392762 
L 199.483184 95.698848 
L 199.655781 96.00581 
L 199.828378 96.313646 
L 200.000974 96.622351 
L 200.173571 96.931923 
L 200.346168 97.242358 
L 200.518765 97.553652 
L 200.691361 97.865801 
L 200.863958 98.178802 
L 201.036555 98.492652 
L 201.209152 98.807346 
L 201.381749 99.122882 
L 201.554345 99.439255 
L 201.726942 99.756463 
L 201.899539 100.074501 
L 202.072136 100.393365 
L 202.244732 100.713054 
L 202.417329 101.033562 
L 202.589926 101.354886 
L 202.762523 101.677023 
L 202.93512 101.999969 
L 203.107716 102.323721 
L 203.280313 102.648274 
L 203.45291 102.973626 
L 203.625507 103.299773 
L 203.798104 103.626711 
L 203.9707 103.954436 
L 204.143297 104.282946 
L 204.315894 104.612236 
L 204.488491 104.942303 
L 204.661087 105.273143 
L 204.833684 105.604753 
L 205.006281 105.93713 
L 205.178878 106.270269 
L 205.351475 106.604167 
L 205.524071 106.93882 
L 205.696668 107.274225 
L 205.869265 107.610379 
L 206.041862 107.947277 
L 206.214458 108.284917 
L 206.387055 108.623294 
L 206.559652 108.962405 
L 206.732249 109.302247 
L 206.904846 109.642816 
L 207.077442 109.984108 
L 207.250039 110.326119 
L 207.422636 110.668847 
L 207.595233 111.012287 
L 207.767829 111.356437 
L 207.940426 111.701291 
L 208.113023 112.046848 
L 208.28562 112.393103 
L 208.458217 112.740053 
L 208.630813 113.087693 
L 208.80341 113.436022 
L 208.976007 113.785034 
L 209.148604 114.134727 
L 209.321201 114.485097 
L 209.493797 114.836139 
L 209.666394 115.187852 
L 209.838991 115.540231 
L 210.011588 115.893272 
L 210.184184 116.246972 
L 210.356781 116.601328 
L 210.529378 116.956335 
" style="fill:none;stroke:#ff0000;stroke-linecap:square;stroke-width:1.5;"/>
   </g>
   <g id="line2d_25">
    <path clip-path="url(#p0a48fdbb1b)" d="M 210.529378 116.956335 
L 210.701975 117.311991 
L 210.874572 117.668291 
L 211.047168 118.02523 
L 211.219765 118.382805 
L 211.392362 118.74101 
L 211.564959 119.099843 
L 211.737555 119.459298 
L 211.910152 119.819372 
L 212.082749 120.180059 
L 212.255346 120.541356 
L 212.427943 120.903259 
L 212.600539 121.265762 
L 212.773136 121.628863 
L 212.945733 121.992556 
L 213.11833 122.356837 
L 213.290926 122.721703 
L 213.463523 123.087148 
L 213.63612 123.453168 
L 213.808717 123.81976 
L 213.981314 124.186919 
L 214.15391 124.55464 
L 214.326507 124.922919 
L 214.499104 125.291753 
L 214.671701 125.661136 
L 214.844298 126.031064 
L 215.016894 126.401534 
L 215.189491 126.772541 
L 215.362088 127.14408 
L 215.534685 127.516148 
L 215.707281 127.888739 
L 215.879878 128.261851 
L 216.052475 128.635478 
L 216.225072 129.009616 
L 216.397669 129.38426 
L 216.570265 129.759408 
L 216.742862 130.135054 
L 216.915459 130.511194 
L 217.088056 130.887823 
L 217.260652 131.264938 
L 217.433249 131.642535 
L 217.605846 132.020608 
L 217.778443 132.399154 
L 217.95104 132.778168 
L 218.123636 133.157646 
L 218.296233 133.537584 
L 218.46883 133.917978 
L 218.641427 134.298823 
L 218.814023 134.680114 
L 218.98662 135.061849 
L 219.159217 135.444021 
L 219.331814 135.826628 
L 219.504411 136.209665 
L 219.677007 136.593127 
L 219.849604 136.97701 
L 220.022201 137.36131 
L 220.194798 137.746023 
L 220.367395 138.131145 
L 220.539991 138.51667 
L 220.712588 138.902595 
L 220.885185 139.288916 
L 221.057782 139.675628 
L 221.230378 140.062727 
L 221.402975 140.450208 
L 221.575572 140.838068 
L 221.748169 141.226302 
L 221.920766 141.614906 
L 222.093362 142.003875 
L 222.265959 142.393206 
L 222.438556 142.782894 
L 222.611153 143.172934 
L 222.783749 143.563323 
L 222.956346 143.954056 
L 223.128943 144.345128 
L 223.30154 144.736537 
L 223.474137 145.128276 
L 223.646733 145.520343 
L 223.81933 145.912732 
L 223.991927 146.30544 
L 224.164524 146.698461 
L 224.33712 147.091793 
L 224.509717 147.48543 
L 224.682314 147.879369 
L 224.854911 148.273604 
L 225.027508 148.668132 
L 225.200104 149.062949 
L 225.372701 149.45805 
L 225.545298 149.853431 
L 225.717895 150.249087 
L 225.890492 150.645014 
L 226.063088 151.041209 
L 226.235685 151.437666 
L 226.408282 151.834382 
L 226.580879 152.231352 
L 226.753475 152.628572 
L 226.926072 153.026037 
L 227.098669 153.423744 
L 227.271266 153.821688 
L 227.443863 154.219864 
L 227.616459 154.618269 
" style="fill:none;stroke:#ff0000;stroke-linecap:square;stroke-width:1.5;"/>
   </g>
   <g id="line2d_26">
    <path clip-path="url(#p0a48fdbb1b)" d="M 227.616459 154.618269 
L 227.789056 155.016898 
L 227.961653 155.415747 
L 228.13425 155.814811 
L 228.306846 156.214085 
L 228.479443 156.613566 
L 228.65204 157.013248 
L 228.824637 157.413127 
L 228.997234 157.813199 
L 229.16983 158.213458 
L 229.342427 158.613901 
L 229.515024 159.014523 
L 229.687621 159.415319 
L 229.860217 159.816285 
L 230.032814 160.217417 
L 230.205411 160.618709 
L 230.378008 161.020157 
L 230.550605 161.421757 
L 230.723201 161.823504 
L 230.895798 162.225394 
L 231.068395 162.627422 
L 231.240992 163.029584 
L 231.413589 163.431875 
L 231.586185 163.83429 
L 231.758782 164.236826 
L 231.931379 164.639476 
L 232.103976 165.042238 
L 232.276572 165.445106 
L 232.449169 165.848076 
L 232.621766 166.251144 
L 232.794363 166.654304 
L 232.96696 167.057553 
L 233.139556 167.460885 
L 233.312153 167.864297 
L 233.48475 168.267783 
L 233.657347 168.67134 
L 233.829943 169.074962 
L 234.00254 169.478646 
L 234.175137 169.882386 
L 234.347734 170.286178 
L 234.520331 170.690017 
L 234.692927 171.0939 
L 234.865524 171.497821 
L 235.038121 171.901776 
L 235.210718 172.305761 
L 235.383314 172.70977 
L 235.555911 173.1138 
L 235.728508 173.517846 
L 235.901105 173.921903 
L 236.073702 174.325967 
L 236.246298 174.730033 
L 236.418895 175.134097 
L 236.591492 175.538154 
L 236.764089 175.9422 
L 236.936686 176.34623 
L 237.109282 176.750239 
L 237.281879 177.154224 
L 237.454476 177.558179 
L 237.627073 177.9621 
L 237.799669 178.365983 
L 237.972266 178.769822 
L 238.144863 179.173614 
L 238.31746 179.577354 
L 238.490057 179.981038 
L 238.662653 180.38466 
L 238.83525 180.788217 
L 239.007847 181.191703 
L 239.180444 181.595115 
L 239.35304 181.998447 
L 239.525637 182.401696 
L 239.698234 182.804856 
L 239.870831 183.207924 
L 240.043428 183.610894 
L 240.216024 184.013762 
L 240.388621 184.416524 
L 240.561218 184.819174 
L 240.733815 185.22171 
L 240.906411 185.624125 
L 241.079008 186.026416 
L 241.251605 186.428578 
L 241.424202 186.830606 
L 241.596799 187.232496 
L 241.769395 187.634243 
L 241.941992 188.035843 
L 242.114589 188.437291 
L 242.287186 188.838583 
L 242.459783 189.239715 
L 242.632379 189.640681 
L 242.804976 190.041477 
L 242.977573 190.442099 
L 243.15017 190.842542 
L 243.322766 191.242801 
L 243.495363 191.642873 
L 243.66796 192.042752 
L 243.840557 192.442434 
L 244.013154 192.841915 
L 244.18575 193.241189 
L 244.358347 193.640253 
L 244.530944 194.039102 
L 244.703541 194.437731 
" style="fill:none;stroke:#ff0000;stroke-linecap:square;stroke-width:1.5;"/>
   </g>
   <g id="line2d_27">
    <path clip-path="url(#p0a48fdbb1b)" d="M 244.703541 194.437731 
L 244.876137 194.836136 
L 245.048734 195.234312 
L 245.221331 195.632256 
L 245.393928 196.029963 
L 245.566525 196.427428 
L 245.739121 196.824648 
L 245.911718 197.221618 
L 246.084315 197.618334 
L 246.256912 198.014791 
L 246.429508 198.410986 
L 246.602105 198.806913 
L 246.774702 199.202569 
L 246.947299 199.59795 
L 247.119896 199.993051 
L 247.292492 200.387868 
L 247.465089 200.782396 
L 247.637686 201.176631 
L 247.810283 201.57057 
L 247.98288 201.964207 
L 248.155476 202.357539 
L 248.328073 202.75056 
L 248.50067 203.143268 
L 248.673267 203.535657 
L 248.845863 203.927724 
L 249.01846 204.319463 
L 249.191057 204.710872 
L 249.363654 205.101944 
L 249.536251 205.492677 
L 249.708847 205.883066 
L 249.881444 206.273106 
L 250.054041 206.662794 
L 250.226638 207.052125 
L 250.399234 207.441094 
L 250.571831 207.829698 
L 250.744428 208.217932 
L 250.917025 208.605792 
L 251.089622 208.993273 
L 251.262218 209.380372 
L 251.434815 209.767084 
L 251.607412 210.153405 
L 251.780009 210.53933 
L 251.952605 210.924855 
L 252.125202 211.309977 
L 252.297799 211.69469 
L 252.470396 212.07899 
L 252.642993 212.462873 
L 252.815589 212.846335 
L 252.988186 213.229372 
L 253.160783 213.611979 
L 253.33338 213.994151 
L 253.505977 214.375886 
L 253.678573 214.757177 
L 253.85117 215.138022 
L 254.023767 215.518416 
L 254.196364 215.898354 
L 254.36896 216.277832 
L 254.541557 216.656846 
L 254.714154 217.035392 
L 254.886751 217.413465 
L 255.059348 217.791062 
L 255.231944 218.168177 
L 255.404541 218.544806 
L 255.577138 218.920946 
L 255.749735 219.296592 
L 255.922331 219.67174 
L 256.094928 220.046384 
L 256.267525 220.420522 
L 256.440122 220.794149 
L 256.612719 221.167261 
L 256.785315 221.539852 
L 256.957912 221.91192 
L 257.130509 222.283459 
L 257.303106 222.654466 
L 257.475702 223.024936 
L 257.648299 223.394864 
L 257.820896 223.764247 
L 257.993493 224.133081 
L 258.16609 224.50136 
L 258.338686 224.869081 
L 258.511283 225.23624 
L 258.68388 225.602832 
L 258.856477 225.968852 
L 259.029074 226.334297 
L 259.20167 226.699163 
L 259.374267 227.063444 
L 259.546864 227.427137 
L 259.719461 227.790238 
L 259.892057 228.152741 
L 260.064654 228.514644 
L 260.237251 228.875941 
L 260.409848 229.236628 
L 260.582445 229.596702 
L 260.755041 229.956157 
L 260.927638 230.31499 
L 261.100235 230.673195 
L 261.272832 231.03077 
L 261.445428 231.387709 
L 261.618025 231.744009 
L 261.790622 232.099665 
" style="fill:none;stroke:#ff0000;stroke-linecap:square;stroke-width:1.5;"/>
   </g>
   <g id="line2d_28">
    <path clip-path="url(#p0a48fdbb1b)" d="M 261.790622 232.099665 
L 261.963219 232.454672 
L 262.135816 232.809028 
L 262.308412 233.162728 
L 262.481009 233.515769 
L 262.653606 233.868148 
L 262.826203 234.219861 
L 262.998799 234.570903 
L 263.171396 234.921273 
L 263.343993 235.270966 
L 263.51659 235.619978 
L 263.689187 235.968307 
L 263.861783 236.315947 
L 264.03438 236.662897 
L 264.206977 237.009152 
L 264.379574 237.354709 
L 264.552171 237.699563 
L 264.724767 238.043713 
L 264.897364 238.387153 
L 265.069961 238.729881 
L 265.242558 239.071892 
L 265.415154 239.413184 
L 265.587751 239.753753 
L 265.760348 240.093595 
L 265.932945 240.432706 
L 266.105542 240.771083 
L 266.278138 241.108723 
L 266.450735 241.445621 
L 266.623332 241.781775 
L 266.795929 242.11718 
L 266.968525 242.451833 
L 267.141122 242.785731 
L 267.313719 243.11887 
L 267.486316 243.451247 
L 267.658913 243.782857 
L 267.831509 244.113697 
L 268.004106 244.443764 
L 268.176703 244.773054 
L 268.3493 245.101564 
L 268.521896 245.429289 
L 268.694493 245.756227 
L 268.86709 246.082374 
L 269.039687 246.407726 
L 269.212284 246.732279 
L 269.38488 247.056031 
L 269.557477 247.378977 
L 269.730074 247.701114 
L 269.902671 248.022438 
L 270.075268 248.342946 
L 270.247864 248.662635 
L 270.420461 248.981499 
L 270.593058 249.299537 
L 270.765655 249.616745 
L 270.938251 249.933118 
L 271.110848 250.248654 
L 271.283445 250.563348 
L 271.456042 250.877198 
L 271.628639 251.190199 
L 271.801235 251.502348 
L 271.973832 251.813642 
L 272.146429 252.124077 
L 272.319026 252.433649 
L 272.491622 252.742354 
L 272.664219 253.05019 
L 272.836816 253.357152 
L 273.009413 253.663238 
L 273.18201 253.968443 
L 273.354606 254.272763 
L 273.527203 254.576196 
L 273.6998 254.878738 
L 273.872397 255.180385 
L 274.044993 255.481133 
L 274.21759 255.78098 
L 274.390187 256.07992 
L 274.562784 256.377952 
L 274.735381 256.675071 
L 274.907977 256.971274 
L 275.080574 257.266556 
L 275.253171 257.560916 
L 275.425768 257.854348 
L 275.598365 258.14685 
L 275.770961 258.438417 
L 275.943558 258.729047 
L 276.116155 259.018735 
L 276.288752 259.307479 
L 276.461348 259.595274 
L 276.633945 259.882117 
L 276.806542 260.168005 
L 276.979139 260.452933 
L 277.151736 260.736898 
L 277.324332 261.019898 
L 277.496929 261.301927 
L 277.669526 261.582983 
L 277.842123 261.863061 
L 278.014719 262.142159 
L 278.187316 262.420273 
L 278.359913 262.697399 
L 278.53251 262.973534 
L 278.705107 263.248674 
L 278.877703 263.522815 
" style="fill:none;stroke:#ff0000;stroke-linecap:square;stroke-width:1.5;"/>
   </g>
   <g id="line2d_29">
    <path clip-path="url(#p0a48fdbb1b)" d="M 278.877703 263.522815 
L 279.0503 263.795954 
L 279.222897 264.068089 
L 279.395494 264.339217 
L 279.56809 264.609335 
L 279.740687 264.878442 
L 279.913284 265.146534 
L 280.085881 265.413609 
L 280.258478 265.679664 
L 280.431074 265.944698 
L 280.603671 266.208707 
L 280.776268 266.471689 
L 280.948865 266.733642 
L 281.121462 266.994564 
L 281.294058 267.254451 
L 281.466655 267.513301 
L 281.639252 267.771112 
L 281.811849 268.027881 
L 281.984445 268.283606 
L 282.157042 268.538285 
L 282.329639 268.791914 
L 282.502236 269.044492 
L 282.674833 269.296015 
L 282.847429 269.546482 
L 283.020026 269.79589 
L 283.192623 270.044237 
L 283.36522 270.291519 
L 283.537816 270.537735 
L 283.710413 270.782882 
L 283.88301 271.026958 
L 284.055607 271.269959 
L 284.228204 271.511884 
L 284.4008 271.752731 
L 284.573397 271.992496 
L 284.745994 272.231177 
L 284.918591 272.468772 
L 285.091187 272.705278 
L 285.263784 272.940693 
L 285.436381 273.175014 
L 285.608978 273.408239 
L 285.781575 273.640366 
L 285.954171 273.871391 
L 286.126768 274.101312 
L 286.299365 274.330128 
L 286.471962 274.557834 
L 286.644559 274.78443 
L 286.817155 275.009912 
L 286.989752 275.234278 
L 287.162349 275.457526 
L 287.334946 275.679653 
L 287.507542 275.900656 
L 287.680139 276.120533 
L 287.852736 276.339282 
L 288.025333 276.5569 
L 288.19793 276.773385 
L 288.370526 276.988733 
L 288.543123 277.202944 
L 288.71572 277.416014 
L 288.888317 277.62794 
L 289.060913 277.838721 
L 289.23351 278.048353 
L 289.406107 278.256835 
L 289.578704 278.464163 
L 289.751301 278.670336 
L 289.923897 278.875351 
L 290.096494 279.079205 
L 290.269091 279.281896 
L 290.441688 279.483422 
L 290.614284 279.683779 
L 290.786881 279.882966 
L 290.959478 280.08098 
L 291.132075 280.277818 
L 291.304672 280.473479 
L 291.477268 280.667959 
L 291.649865 280.861256 
L 291.822462 281.053368 
L 291.995059 281.244292 
L 292.167656 281.434026 
L 292.340252 281.622566 
L 292.512849 281.809912 
L 292.685446 281.99606 
L 292.858043 282.181007 
L 293.030639 282.364752 
L 293.203236 282.547291 
L 293.375833 282.728623 
L 293.54843 282.908745 
L 293.721027 283.087654 
L 293.893623 283.265348 
L 294.06622 283.441825 
L 294.238817 283.617081 
L 294.411414 283.791115 
L 294.58401 283.963924 
L 294.756607 284.135505 
L 294.929204 284.305856 
L 295.101801 284.474975 
L 295.274398 284.642859 
L 295.446994 284.809506 
L 295.619591 284.974913 
L 295.792188 285.139077 
L 295.964785 285.301996 
" style="fill:none;stroke:#ff0000;stroke-linecap:square;stroke-width:1.5;"/>
   </g>
   <g id="line2d_30">
    <path clip-path="url(#p0a48fdbb1b)" d="M 295.964785 285.301996 
L 296.137381 285.463669 
L 296.309978 285.624093 
L 296.482575 285.783267 
L 296.655172 285.941191 
L 296.827769 286.097863 
L 297.000365 286.253282 
L 297.172962 286.407448 
L 297.345559 286.560358 
L 297.518156 286.712012 
L 297.690753 286.862408 
L 297.863349 287.011547 
L 298.035946 287.159425 
L 298.208543 287.306043 
L 298.38114 287.4514 
L 298.553736 287.595493 
L 298.726333 287.738322 
L 298.89893 287.879887 
L 299.071527 288.020185 
L 299.244124 288.159215 
L 299.41672 288.296978 
L 299.589317 288.433471 
L 299.761914 288.568693 
L 299.934511 288.702643 
L 300.107107 288.835321 
L 300.279704 288.966724 
L 300.452301 289.096852 
L 300.624898 289.225705 
L 300.797495 289.353279 
L 300.970091 289.479576 
L 301.142688 289.604593 
L 301.315285 289.728329 
L 301.487882 289.850783 
L 301.660478 289.971955 
L 301.833075 290.091842 
L 302.005672 290.210445 
L 302.178269 290.327761 
L 302.350866 290.44379 
L 302.523462 290.55853 
L 302.696059 290.671981 
L 302.868656 290.784141 
L 303.041253 290.89501 
L 303.213849 291.004585 
L 303.386446 291.112867 
L 303.559043 291.219853 
L 303.73164 291.325543 
L 303.904237 291.429936 
L 304.076833 291.533031 
L 304.24943 291.634825 
L 304.422027 291.73532 
L 304.594624 291.834512 
L 304.767221 291.932401 
L 304.939817 292.028987 
L 305.112414 292.124267 
L 305.285011 292.218241 
L 305.457608 292.310908 
L 305.630204 292.402266 
L 305.802801 292.492315 
L 305.975398 292.581053 
L 306.147995 292.668479 
L 306.320592 292.754593 
L 306.493188 292.839392 
L 306.665785 292.922876 
L 306.838382 293.005044 
L 307.010979 293.085895 
L 307.183575 293.165427 
L 307.356172 293.24364 
L 307.528769 293.320532 
L 307.701366 293.396102 
L 307.873963 293.470349 
L 308.046559 293.543272 
L 308.219156 293.61487 
L 308.391753 293.685142 
L 308.56435 293.754086 
L 308.736946 293.821702 
L 308.909543 293.887989 
L 309.08214 293.952944 
L 309.254737 294.016568 
L 309.427334 294.078859 
L 309.59993 294.139816 
L 309.772527 294.199438 
L 309.945124 294.257723 
L 310.117721 294.314671 
L 310.290318 294.370281 
L 310.462914 294.424551 
L 310.635511 294.477481 
L 310.808108 294.529068 
L 310.980705 294.579313 
L 311.153301 294.628214 
L 311.325898 294.675769 
L 311.498495 294.721978 
L 311.671092 294.76684 
L 311.843689 294.810354 
L 312.016285 294.852517 
L 312.188882 294.89333 
L 312.361479 294.932792 
L 312.534076 294.9709 
L 312.706672 295.007654 
L 312.879269 295.043054 
L 313.051866 295.077096 
" style="fill:none;stroke:#ff0000;stroke-linecap:square;stroke-width:1.5;"/>
   </g>
   <g id="line2d_31">
    <path clip-path="url(#p0a48fdbb1b)" d="M 313.051866 295.077096 
L 313.224463 295.109782 
L 313.39706 295.141111 
L 313.569656 295.171083 
L 313.742253 295.199699 
L 313.91485 295.226959 
L 314.087447 295.252863 
L 314.260043 295.277413 
L 314.43264 295.300607 
L 314.605237 295.322448 
L 314.777834 295.342934 
L 314.950431 295.362066 
L 315.123027 295.379846 
L 315.295624 295.396272 
L 315.468221 295.411346 
L 315.640818 295.425068 
L 315.813415 295.437438 
L 315.986011 295.448456 
L 316.158608 295.458124 
L 316.331205 295.466441 
L 316.503802 295.473408 
L 316.676398 295.479024 
L 316.848995 295.483292 
L 317.021592 295.48621 
L 317.194189 295.487779 
L 317.366786 295.488 
L 317.539382 295.486873 
L 317.711979 295.484398 
L 317.884576 295.480576 
L 318.057173 295.475407 
L 318.229769 295.468892 
L 318.402366 295.46103 
L 318.574963 295.451823 
L 318.74756 295.44127 
L 318.920157 295.429372 
L 319.092753 295.41613 
L 319.26535 295.401543 
L 319.437947 295.385612 
L 319.610544 295.368338 
L 319.78314 295.349721 
L 319.955737 295.32976 
L 320.128334 295.308458 
L 320.300931 295.285813 
L 320.473528 295.261827 
L 320.646124 295.236499 
L 320.818721 295.209831 
L 320.991318 295.181822 
L 321.163915 295.152472 
L 321.336512 295.121783 
L 321.509108 295.089755 
L 321.681705 295.056387 
L 321.854302 295.021681 
L 322.026899 294.985637 
L 322.199495 294.948254 
L 322.372092 294.909534 
L 322.544689 294.869477 
L 322.717286 294.828083 
L 322.889883 294.785353 
L 323.062479 294.741286 
L 323.235076 294.695884 
L 323.407673 294.649147 
L 323.58027 294.601074 
L 323.752866 294.551667 
L 323.925463 294.500926 
L 324.09806 294.448851 
L 324.270657 294.395443 
L 324.443254 294.340701 
L 324.61585 294.284627 
L 324.788447 294.227221 
L 324.961044 294.168482 
L 325.133641 294.108413 
L 325.306237 294.047011 
L 325.478834 293.984279 
L 325.651431 293.920217 
L 325.824028 293.854824 
L 325.996625 293.788102 
L 326.169221 293.720051 
L 326.341818 293.65067 
L 326.514415 293.579961 
L 326.687012 293.507924 
L 326.859609 293.434559 
L 327.032205 293.359866 
L 327.204802 293.283846 
L 327.377399 293.2065 
L 327.549996 293.127827 
L 327.722592 293.047829 
L 327.895189 292.966505 
L 328.067786 292.883855 
L 328.240383 292.799881 
L 328.41298 292.714582 
L 328.585576 292.627959 
L 328.758173 292.540013 
L 328.93077 292.450743 
L 329.103367 292.36015 
L 329.275963 292.268234 
L 329.44856 292.174997 
L 329.621157 292.080437 
L 329.793754 291.984556 
L 329.966351 291.887354 
L 330.138947 291.788831 
" style="fill:none;stroke:#ff0000;stroke-linecap:square;stroke-width:1.5;"/>
   </g>
   <g id="line2d_32">
    <path clip-path="url(#p0a48fdbb1b)" d="M 330.138947 291.788831 
L 330.311544 291.688988 
L 330.484141 291.587827 
L 330.656738 291.485349 
L 330.829334 291.381556 
L 331.001931 291.27645 
L 331.174528 291.170032 
L 331.347125 291.062305 
L 331.519722 290.953271 
L 331.692318 290.842931 
L 331.864915 290.731286 
L 332.037512 290.61834 
L 332.210109 290.504093 
L 332.382706 290.388548 
L 332.555302 290.271706 
L 332.727899 290.153569 
L 332.900496 290.03414 
L 333.073093 289.913418 
L 333.245689 289.791408 
L 333.418286 289.66811 
L 333.590883 289.543526 
L 333.76348 289.417658 
L 333.936077 289.290508 
L 334.108673 289.162077 
L 334.28127 289.032369 
L 334.453867 288.901383 
L 334.626464 288.769123 
L 334.79906 288.635589 
L 334.971657 288.500784 
L 335.144254 288.36471 
L 335.316851 288.227369 
L 335.489448 288.088761 
L 335.662044 287.94889 
L 335.834641 287.807756 
L 336.007238 287.665362 
L 336.179835 287.52171 
L 336.352431 287.376801 
L 336.525028 287.230637 
L 336.697625 287.08322 
L 336.870222 286.934552 
L 337.042819 286.784634 
L 337.215415 286.633469 
L 337.388012 286.481058 
L 337.560609 286.327403 
L 337.733206 286.172506 
L 337.905803 286.016369 
L 338.078399 285.858993 
L 338.250996 285.700381 
L 338.423593 285.540534 
L 338.59619 285.379453 
L 338.768786 285.217142 
L 338.941383 285.053601 
L 339.11398 284.888832 
L 339.286577 284.722838 
L 339.459174 284.55562 
L 339.63177 284.38718 
L 339.804367 284.217519 
L 339.976964 284.04664 
L 340.149561 283.874545 
L 340.322157 283.701234 
L 340.494754 283.526711 
L 340.667351 283.350976 
L 340.839948 283.174032 
L 341.012545 282.99588 
L 341.185141 282.816523 
L 341.357738 282.635961 
L 341.530335 282.454198 
L 341.702932 282.271234 
L 341.875528 282.087072 
L 342.048125 281.901713 
L 342.220722 281.71516 
L 342.393319 281.527413 
L 342.565916 281.338475 
L 342.738512 281.148348 
L 342.911109 280.957034 
L 343.083706 280.764533 
L 343.256303 280.570849 
L 343.4289 280.375983 
L 343.601496 280.179936 
L 343.774093 279.982711 
L 343.94669 279.784309 
L 344.119287 279.584732 
L 344.291883 279.383983 
L 344.46448 279.182062 
L 344.637077 278.978972 
L 344.809674 278.774714 
L 344.982271 278.569291 
L 345.154867 278.362704 
L 345.327464 278.154955 
L 345.500061 277.946045 
L 345.672658 277.735977 
L 345.845254 277.524752 
L 346.017851 277.312373 
L 346.190448 277.098841 
L 346.363045 276.884157 
L 346.535642 276.668324 
L 346.708238 276.451344 
L 346.880835 276.233218 
L 347.053432 276.013948 
L 347.226029 275.793536 
" style="fill:none;stroke:#ff0000;stroke-linecap:square;stroke-width:1.5;"/>
   </g>
   <g id="line2d_33">
    <path clip-path="url(#p0a48fdbb1b)" d="M 347.226029 275.793536 
L 347.398625 275.571984 
L 347.571222 275.349294 
L 347.743819 275.125471 
L 347.916416 274.900517 
L 348.089013 274.674434 
L 348.261609 274.447227 
L 348.434206 274.218898 
L 348.606803 273.98945 
L 348.7794 273.758886 
L 348.951997 273.52721 
L 349.124593 273.294424 
L 349.29719 273.060532 
L 349.469787 272.825536 
L 349.642384 272.58944 
L 349.81498 272.352246 
L 349.987577 272.113959 
L 350.160174 271.87458 
L 350.332771 271.634113 
L 350.505368 271.392561 
L 350.677964 271.149927 
L 350.850561 270.906214 
L 351.023158 270.661426 
L 351.195755 270.415564 
L 351.368351 270.168633 
L 351.540948 269.920635 
L 351.713545 269.671574 
L 351.886142 269.421452 
L 352.058739 269.170273 
L 352.231335 268.91804 
L 352.403932 268.664755 
L 352.576529 268.410422 
L 352.749126 268.155043 
L 352.921722 267.898623 
L 353.094319 267.641164 
L 353.266916 267.382668 
L 353.439513 267.12314 
L 353.61211 266.862582 
L 353.784706 266.600997 
L 353.957303 266.338389 
L 354.1299 266.07476 
L 354.302497 265.810113 
L 354.475094 265.544452 
L 354.64769 265.27778 
L 354.820287 265.010099 
L 354.992884 264.741413 
L 355.165481 264.471724 
L 355.338077 264.201037 
L 355.510674 263.929353 
L 355.683271 263.656677 
L 355.855868 263.38301 
L 356.028465 263.108357 
L 356.201061 262.83272 
L 356.373658 262.556102 
L 356.546255 262.278506 
L 356.718852 261.999936 
L 356.891448 261.720394 
L 357.064045 261.439884 
L 357.236642 261.158408 
L 357.409239 260.87597 
L 357.581836 260.592573 
L 357.754432 260.308219 
L 357.927029 260.022913 
L 358.099626 259.736656 
L 358.272223 259.449452 
L 358.444819 259.161305 
L 358.617416 258.872216 
L 358.790013 258.58219 
L 358.96261 258.291229 
L 359.135207 257.999337 
L 359.307803 257.706515 
L 359.4804 257.412769 
L 359.652997 257.118099 
L 359.825594 256.822511 
L 359.998191 256.526006 
L 360.170787 256.228588 
L 360.343384 255.930259 
L 360.515981 255.631024 
L 360.688578 255.330884 
L 360.861174 255.029843 
L 361.033771 254.727905 
L 361.206368 254.425072 
L 361.378965 254.121346 
L 361.551562 253.816733 
L 361.724158 253.511233 
L 361.896755 253.204851 
L 362.069352 252.897589 
L 362.241949 252.589451 
L 362.414545 252.28044 
L 362.587142 251.970558 
L 362.759739 251.659809 
L 362.932336 251.348196 
L 363.104933 251.035722 
L 363.277529 250.722389 
L 363.450126 250.408202 
L 363.622723 250.093163 
L 363.79532 249.777275 
L 363.967916 249.460541 
L 364.140513 249.142964 
L 364.31311 248.824548 
" style="fill:none;stroke:#ff0000;stroke-linecap:square;stroke-width:1.5;"/>
   </g>
   <g id="line2d_34">
    <path clip-path="url(#p0a48fdbb1b)" d="M 364.31311 248.824548 
L 364.485707 248.505295 
L 364.658304 248.18521 
L 364.8309 247.864296 
L 365.003497 247.542558 
L 365.176094 247.219999 
L 365.348691 246.896623 
L 365.521288 246.572434 
L 365.693884 246.247437 
L 365.866481 245.921635 
L 366.039078 245.595033 
L 366.211675 245.267634 
L 366.384271 244.939441 
L 366.556868 244.610461 
L 366.729465 244.280695 
L 366.902062 243.950148 
L 367.074659 243.618825 
L 367.247255 243.286729 
L 367.419852 242.953864 
L 367.592449 242.620234 
L 367.765046 242.285843 
L 367.937642 241.950696 
L 368.110239 241.614795 
L 368.282836 241.278146 
L 368.455433 240.940751 
L 368.62803 240.602615 
L 368.800626 240.263743 
L 368.973223 239.924137 
L 369.14582 239.583803 
L 369.318417 239.242743 
L 369.491013 238.900963 
L 369.66361 238.558465 
L 369.836207 238.215254 
L 370.008804 237.871334 
L 370.181401 237.526709 
L 370.353997 237.181383 
L 370.526594 236.835359 
L 370.699191 236.488643 
L 370.871788 236.141237 
L 371.044385 235.793146 
L 371.216981 235.444374 
L 371.389578 235.094924 
L 371.562175 234.744801 
L 371.734772 234.394009 
L 371.907368 234.042552 
L 372.079965 233.690433 
L 372.252562 233.337657 
L 372.425159 232.984228 
L 372.597756 232.630149 
L 372.770352 232.275425 
L 372.942949 231.920059 
L 373.115546 231.564056 
L 373.288143 231.20742 
L 373.460739 230.850154 
L 373.633336 230.492263 
L 373.805933 230.13375 
L 373.97853 229.77462 
L 374.151127 229.414876 
L 374.323723 229.054523 
L 374.49632 228.693564 
L 374.668917 228.332003 
L 374.841514 227.969845 
L 375.01411 227.607093 
L 375.186707 227.243752 
L 375.359304 226.879825 
L 375.531901 226.515316 
L 375.704498 226.15023 
L 375.877094 225.78457 
L 376.049691 225.418341 
L 376.222288 225.051545 
L 376.394885 224.684188 
L 376.567482 224.316273 
L 376.740078 223.947804 
L 376.912675 223.578786 
L 377.085272 223.209222 
L 377.257869 222.839115 
L 377.430465 222.468471 
L 377.603062 222.097294 
L 377.775659 221.725586 
L 377.948256 221.353352 
L 378.120853 220.980597 
L 378.293449 220.607323 
L 378.466046 220.233536 
L 378.638643 219.859239 
L 378.81124 219.484435 
L 378.983836 219.10913 
L 379.156433 218.733327 
L 379.32903 218.357029 
L 379.501627 217.980242 
L 379.674224 217.602968 
L 379.84682 217.225213 
L 380.019417 216.846979 
L 380.192014 216.468271 
L 380.364611 216.089093 
L 380.537207 215.709449 
L 380.709804 215.329343 
L 380.882401 214.948779 
L 381.054998 214.56776 
L 381.227595 214.186291 
L 381.400191 213.804376 
" style="fill:none;stroke:#ff0000;stroke-linecap:square;stroke-width:1.5;"/>
   </g>
   <g id="line2d_35">
    <path clip-path="url(#p0a48fdbb1b)" d="M 381.400191 213.804376 
L 381.572788 213.422019 
L 381.745385 213.039224 
L 381.917982 212.655996 
L 382.090579 212.272339 
L 382.263175 211.888257 
L 382.435772 211.503756 
L 382.608369 211.118839 
L 382.780966 210.733511 
L 382.953562 210.347777 
L 383.126159 209.96164 
L 383.298756 209.575106 
L 383.471353 209.188179 
L 383.64395 208.800863 
L 383.816546 208.413163 
L 383.989143 208.025084 
L 384.16174 207.636629 
L 384.334337 207.247803 
L 384.506933 206.858611 
L 384.67953 206.469057 
L 384.852127 206.079146 
L 385.024724 205.688882 
L 385.197321 205.298269 
L 385.369917 204.907313 
L 385.542514 204.516017 
L 385.715111 204.124386 
L 385.887708 203.732424 
L 386.060304 203.340136 
L 386.232901 202.947527 
L 386.405498 202.5546 
L 386.578095 202.161361 
L 386.750692 201.767814 
L 386.923288 201.373963 
L 387.095885 200.979812 
L 387.268482 200.585367 
L 387.441079 200.190631 
L 387.613676 199.795609 
L 387.786272 199.400306 
L 387.958869 199.004726 
L 388.131466 198.608874 
L 388.304063 198.212753 
L 388.476659 197.816369 
L 388.649256 197.419726 
L 388.821853 197.022828 
L 388.99445 196.62568 
L 389.167047 196.228286 
L 389.339643 195.830651 
L 389.51224 195.43278 
L 389.684837 195.034676 
L 389.857434 194.636344 
L 390.03003 194.237789 
L 390.202627 193.839014 
L 390.375224 193.440026 
L 390.547821 193.040828 
L 390.720418 192.641424 
L 390.893014 192.241819 
L 391.065611 191.842017 
L 391.238208 191.442024 
L 391.410805 191.041842 
L 391.583401 190.641478 
L 391.755998 190.240935 
L 391.928595 189.840218 
L 392.101192 189.439331 
L 392.273789 189.038278 
L 392.446385 188.637065 
L 392.618982 188.235696 
L 392.791579 187.834174 
L 392.964176 187.432506 
L 393.136773 187.030694 
L 393.309369 186.628744 
L 393.481966 186.226659 
L 393.654563 185.824446 
L 393.82716 185.422107 
L 393.999756 185.019647 
L 394.172353 184.617072 
L 394.34495 184.214384 
L 394.517547 183.81159 
L 394.690144 183.408693 
L 394.86274 183.005697 
L 395.035337 182.602608 
L 395.207934 182.199429 
L 395.380531 181.796165 
L 395.553127 181.392821 
L 395.725724 180.989402 
L 395.898321 180.58591 
L 396.070918 180.182352 
L 396.243515 179.778731 
L 396.416111 179.375052 
L 396.588708 178.971319 
L 396.761305 178.567537 
L 396.933902 178.163711 
L 397.106498 177.759844 
L 397.279095 177.355942 
L 397.451692 176.952008 
L 397.624289 176.548048 
L 397.796886 176.144065 
L 397.969482 175.740064 
L 398.142079 175.33605 
L 398.314676 174.932027 
L 398.487273 174.528 
" style="fill:none;stroke:#ff0000;stroke-linecap:square;stroke-width:1.5;"/>
   </g>
   <g id="line2d_36">
    <defs>
     <path d="M 0 3 
C 0.795609 3 1.55874 2.683901 2.12132 2.12132 
C 2.683901 1.55874 3 0.795609 3 0 
C 3 -0.795609 2.683901 -1.55874 2.12132 -2.12132 
C 1.55874 -2.683901 0.795609 -3 0 -3 
C -0.795609 -3 -1.55874 -2.683901 -2.12132 -2.12132 
C -2.683901 -1.55874 -3 -0.795609 -3 0 
C -3 0.795609 -2.683901 1.55874 -2.12132 2.12132 
C -1.55874 2.683901 -0.795609 3 0 3 
z
" id="mde1c9418ff" style="stroke:#1f77b4;"/>
    </defs>
    <g clip-path="url(#p0a48fdbb1b)">
     <use style="fill:#1f77b4;stroke:#1f77b4;" x="73.832727" xlink:href="#mde1c9418ff" y="174.528"/>
     <use style="fill:#1f77b4;stroke:#1f77b4;" x="90.919809" xlink:href="#mde1c9418ff" y="135.251624"/>
     <use style="fill:#1f77b4;stroke:#1f77b4;" x="108.00689" xlink:href="#mde1c9418ff" y="100.231452"/>
     <use style="fill:#1f77b4;stroke:#1f77b4;" x="125.093971" xlink:href="#mde1c9418ff" y="73.262464"/>
     <use style="fill:#1f77b4;stroke:#1f77b4;" x="142.181053" xlink:href="#mde1c9418ff" y="57.267169"/>
     <use style="fill:#1f77b4;stroke:#1f77b4;" x="159.268134" xlink:href="#mde1c9418ff" y="53.978904"/>
     <use style="fill:#1f77b4;stroke:#1f77b4;" x="176.355215" xlink:href="#mde1c9418ff" y="63.754004"/>
     <use style="fill:#1f77b4;stroke:#1f77b4;" x="193.442297" xlink:href="#mde1c9418ff" y="85.533185"/>
     <use style="fill:#1f77b4;stroke:#1f77b4;" x="210.529378" xlink:href="#mde1c9418ff" y="116.956335"/>
     <use style="fill:#1f77b4;stroke:#1f77b4;" x="227.616459" xlink:href="#mde1c9418ff" y="154.618269"/>
     <use style="fill:#1f77b4;stroke:#1f77b4;" x="244.703541" xlink:href="#mde1c9418ff" y="194.437731"/>
     <use style="fill:#1f77b4;stroke:#1f77b4;" x="261.790622" xlink:href="#mde1c9418ff" y="232.099665"/>
     <use style="fill:#1f77b4;stroke:#1f77b4;" x="278.877703" xlink:href="#mde1c9418ff" y="263.522815"/>
     <use style="fill:#1f77b4;stroke:#1f77b4;" x="295.964785" xlink:href="#mde1c9418ff" y="285.301996"/>
     <use style="fill:#1f77b4;stroke:#1f77b4;" x="313.051866" xlink:href="#mde1c9418ff" y="295.077096"/>
     <use style="fill:#1f77b4;stroke:#1f77b4;" x="330.138947" xlink:href="#mde1c9418ff" y="291.788831"/>
     <use style="fill:#1f77b4;stroke:#1f77b4;" x="347.226029" xlink:href="#mde1c9418ff" y="275.793536"/>
     <use style="fill:#1f77b4;stroke:#1f77b4;" x="364.31311" xlink:href="#mde1c9418ff" y="248.824548"/>
     <use style="fill:#1f77b4;stroke:#1f77b4;" x="381.400191" xlink:href="#mde1c9418ff" y="213.804376"/>
     <use style="fill:#1f77b4;stroke:#1f77b4;" x="398.487273" xlink:href="#mde1c9418ff" y="174.528"/>
    </g>
   </g>
   <g id="patch_3">
    <path d="M 57.6 307.584 
L 57.6 41.472 
" style="fill:none;stroke:#000000;stroke-linecap:square;stroke-linejoin:miter;stroke-width:0.8;"/>
   </g>
   <g id="patch_4">
    <path d="M 414.72 307.584 
L 414.72 41.472 
" style="fill:none;stroke:#000000;stroke-linecap:square;stroke-linejoin:miter;stroke-width:0.8;"/>
   </g>
   <g id="patch_5">
    <path d="M 57.6 307.584 
L 414.72 307.584 
" style="fill:none;stroke:#000000;stroke-linecap:square;stroke-linejoin:miter;stroke-width:0.8;"/>
   </g>
   <g id="patch_6">
    <path d="M 57.6 41.472 
L 414.72 41.472 
" style="fill:none;stroke:#000000;stroke-linecap:square;stroke-linejoin:miter;stroke-width:0.8;"/>
   </g>
  </g>
 </g>
 <defs>
  <clipPath id="p0a48fdbb1b">
   <rect height="266.112" width="357.12" x="57.6" y="41.472"/>
  </clipPath>
 </defs>
</svg>
