<?xml version="1.0" encoding="UTF-8" standalone="no"?>
<!-- Created with Inkscape (http://www.inkscape.org/) -->

<svg
   xmlns:dc="http://purl.org/dc/elements/1.1/"
   xmlns:cc="http://creativecommons.org/ns#"
   xmlns:rdf="http://www.w3.org/1999/02/22-rdf-syntax-ns#"
   xmlns:svg="http://www.w3.org/2000/svg"
   xmlns="http://www.w3.org/2000/svg"
   xmlns:sodipodi="http://sodipodi.sourceforge.net/DTD/sodipodi-0.dtd"
   xmlns:inkscape="http://www.inkscape.org/namespaces/inkscape"
   width="600"
   height="400"
   viewBox="0 0 600.00001 400"
   id="svg2"
   version="1.1"
   inkscape:version="0.91 r13725"
   sodipodi:docname="isometric_beam2.svg">
  <sodipodi:namedview
     id="base"
     pagecolor="#ffffff"
     bordercolor="#666666"
     borderopacity="1.0"
     inkscape:pageopacity="0.0"
     inkscape:pageshadow="2"
     inkscape:zoom="1.3841615"
     inkscape:cx="210.68033"
     inkscape:cy="215.77562"
     inkscape:document-units="px"
     inkscape:current-layer="layer1"
     showgrid="true"
     units="px"
     inkscape:object-nodes="true"
     inkscape:window-width="1920"
     inkscape:window-height="1016"
     inkscape:window-x="0"
     inkscape:window-y="0"
     inkscape:window-maximized="1">
    <inkscape:grid
       type="axonomgrid"
       id="grid4246"
       units="mm"
       empspacing="5"
       spacingy="35.433071" />
  </sodipodi:namedview>
  <defs
     id="defs4">
    <marker
       inkscape:isstock="true"
       style="overflow:visible"
       id="marker6540"
       refX="0"
       refY="0"
       orient="auto"
       inkscape:stockid="Arrow1Mend">
      <path
         inkscape:connector-curvature="0"
         transform="matrix(-0.4,0,0,-0.4,-4,0)"
         style="fill:#000000;fill-opacity:1;fill-rule:evenodd;stroke:#000000;stroke-width:1pt;stroke-opacity:1"
         d="M 0,0 5,-5 -12.5,0 5,5 0,0 Z"
         id="path6542" />
    </marker>
    <marker
       inkscape:stockid="Arrow2Mend"
       orient="auto"
       refY="0"
       refX="0"
       id="marker6500"
       style="overflow:visible"
       inkscape:isstock="true">
      <path
         inkscape:connector-curvature="0"
         id="path6502"
         style="fill:#000000;fill-opacity:1;fill-rule:evenodd;stroke:#000000;stroke-width:0.625;stroke-linejoin:round;stroke-opacity:1"
         d="M 8.7185878,4.0337352 -2.2072895,0.01601326 8.7185884,-4.0017078 c -1.7454984,2.3720609 -1.7354408,5.6174519 -6e-7,8.035443 z"
         transform="scale(-0.6,-0.6)" />
    </marker>
    <marker
       inkscape:stockid="Arrow2Mend"
       orient="auto"
       refY="0"
       refX="0"
       id="marker6490"
       style="overflow:visible"
       inkscape:isstock="true">
      <path
         inkscape:connector-curvature="0"
         id="path6492"
         style="fill:#000000;fill-opacity:1;fill-rule:evenodd;stroke:#000000;stroke-width:0.625;stroke-linejoin:round;stroke-opacity:1"
         d="M 8.7185878,4.0337352 -2.2072895,0.01601326 8.7185884,-4.0017078 c -1.7454984,2.3720609 -1.7354408,5.6174519 -6e-7,8.035443 z"
         transform="scale(-0.6,-0.6)" />
    </marker>
    <marker
       inkscape:stockid="Arrow2Mend"
       orient="auto"
       refY="0"
       refX="0"
       id="marker6480"
       style="overflow:visible"
       inkscape:isstock="true">
      <path
         inkscape:connector-curvature="0"
         id="path6482"
         style="fill:#000000;fill-opacity:1;fill-rule:evenodd;stroke:#000000;stroke-width:0.625;stroke-linejoin:round;stroke-opacity:1"
         d="M 8.7185878,4.0337352 -2.2072895,0.01601326 8.7185884,-4.0017078 c -1.7454984,2.3720609 -1.7354408,5.6174519 -6e-7,8.035443 z"
         transform="scale(-0.6,-0.6)" />
    </marker>
    <marker
       inkscape:collect="always"
       inkscape:isstock="true"
       style="overflow:visible"
       id="Arrow2Mend"
       refX="0"
       refY="0"
       orient="auto"
       inkscape:stockid="Arrow2Mend">
      <path
         inkscape:connector-curvature="0"
         transform="scale(-0.6,-0.6)"
         d="M 8.7185878,4.0337352 -2.2072895,0.01601326 8.7185884,-4.0017078 c -1.7454984,2.3720609 -1.7354408,5.6174519 -6e-7,8.035443 z"
         style="fill:#000000;fill-opacity:1;fill-rule:evenodd;stroke:#000000;stroke-width:0.625;stroke-linejoin:round;stroke-opacity:1"
         id="path4233" />
    </marker>
    <marker
       inkscape:isstock="true"
       style="overflow:visible"
       id="Arrow1Mstart"
       refX="0"
       refY="0"
       orient="auto"
       inkscape:stockid="Arrow1Mstart">
      <path
         inkscape:connector-curvature="0"
         transform="matrix(0.4,0,0,0.4,4,0)"
         style="fill:#666666;fill-opacity:1;fill-rule:evenodd;stroke:#666666;stroke-width:1pt;stroke-opacity:1"
         d="M 0,0 5,-5 -12.5,0 5,5 0,0 Z"
         id="path4212" />
    </marker>
    <marker
       inkscape:isstock="true"
       style="overflow:visible"
       id="marker6394"
       refX="0"
       refY="0"
       orient="auto"
       inkscape:stockid="Arrow1Mend">
      <path
         inkscape:connector-curvature="0"
         transform="matrix(-0.4,0,0,-0.4,-4,0)"
         style="fill:#666666;fill-opacity:1;fill-rule:evenodd;stroke:#666666;stroke-width:1pt;stroke-opacity:1"
         d="M 0,0 5,-5 -12.5,0 5,5 0,0 Z"
         id="path6396" />
    </marker>
    <marker
       inkscape:collect="always"
       inkscape:stockid="Arrow1Mend"
       orient="auto"
       refY="0"
       refX="0"
       id="marker6362"
       style="overflow:visible"
       inkscape:isstock="true">
      <path
         inkscape:connector-curvature="0"
         id="path6364"
         d="M 0,0 5,-5 -12.5,0 5,5 0,0 Z"
         style="fill:#666666;fill-opacity:1;fill-rule:evenodd;stroke:#666666;stroke-width:1pt;stroke-opacity:1"
         transform="matrix(-0.4,0,0,-0.4,-4,0)" />
    </marker>
    <marker
       inkscape:stockid="Arrow1Mend"
       orient="auto"
       refY="0"
       refX="0"
       id="marker5137"
       style="overflow:visible"
       inkscape:isstock="true">
      <path
         inkscape:connector-curvature="0"
         id="path5139"
         d="M 0,0 5,-5 -12.5,0 5,5 0,0 Z"
         style="fill:#000000;fill-opacity:1;fill-rule:evenodd;stroke:#000000;stroke-width:1pt;stroke-opacity:1"
         transform="matrix(-0.4,0,0,-0.4,-4,0)" />
    </marker>
  </defs>
  <metadata
     id="metadata7">
    <rdf:RDF>
      <cc:Work
         rdf:about="">
        <dc:format>image/svg+xml</dc:format>
        <dc:type
           rdf:resource="http://purl.org/dc/dcmitype/StillImage" />
        <dc:title></dc:title>
      </cc:Work>
    </rdf:RDF>
  </metadata>
  <g
     transform="translate(0,-652.36216)"
     id="layer1"
     inkscape:groupmode="layer"
     inkscape:label="Layer 1">
    <g
       id="g4838">
      <path
         inkscape:connector-curvature="0"
         id="path4758"
         d="m 153.4297,822.0472 306.85939,177.16535 0,-70.86614 -306.85939,-177.16535 0,70.86614"
         style="fill:#8585be;fill-rule:evenodd;stroke:none;stroke-width:1px;stroke-linecap:butt;stroke-linejoin:miter;stroke-opacity:1;fill-opacity:0.72156864" />
      <path
         inkscape:connector-curvature="0"
         id="path4828"
         d="m 460.28909,999.21255 61.37188,-35.43307 0,-70.86614 -61.37188,35.43307 z"
         style="fill:#d7d7ff;fill-rule:evenodd;stroke:none;stroke-width:1px;stroke-linecap:butt;stroke-linejoin:miter;stroke-opacity:1;fill-opacity:0.72156864" />
      <path
         inkscape:connector-curvature="0"
         id="path4830"
         d="M 521.66097,892.91334 214.80158,715.74799 153.4297,751.18106 460.28909,928.34641 Z"
         style="fill:#4e4e9e;fill-rule:evenodd;stroke:none;stroke-width:1px;stroke-linecap:butt;stroke-linejoin:miter;stroke-opacity:1;fill-opacity:0.72156864" />
    </g>
    <path
       inkscape:connector-curvature="0"
       id="path4165"
       d="M 510.31092,1028.0662 153.4297,822.0472 62.218882,874.70104"
       style="fill:none;fill-rule:evenodd;stroke:#666666;stroke-width:2;stroke-linecap:butt;stroke-linejoin:miter;stroke-miterlimit:4;stroke-dasharray:none;stroke-opacity:1;marker-start:url(#Arrow1Mstart);marker-end:url(#marker6394)" />
    <path
       inkscape:connector-curvature="0"
       id="path4169"
       d="m 153.4297,822.0472 0,-143.2913"
       style="fill:none;fill-rule:evenodd;stroke:#666666;stroke-width:2;stroke-linecap:butt;stroke-linejoin:miter;stroke-miterlimit:4;stroke-dasharray:none;stroke-opacity:1;marker-end:url(#marker6362)" />
    <g
       id="g5935"
       transform="translate(93.842383,615.47199)">
      <g
         word-spacing="normal"
         letter-spacing="normal"
         font-size-adjust="none"
         font-stretch="normal"
         font-weight="normal"
         font-variant="normal"
         font-style="normal"
         stroke-miterlimit="10.433"
         xml:space="preserve"
         transform="matrix(0.42857143,0,0,-0.42857143,-75,450)"
         id="g5937"
         style="font-style:normal;font-variant:normal;font-weight:normal;font-stretch:normal;letter-spacing:normal;word-spacing:normal;text-anchor:start;fill:none;fill-opacity:1;fill-rule:evenodd;stroke:#000000;stroke-linecap:butt;stroke-linejoin:miter;stroke-miterlimit:10.43299961;stroke-dasharray:none;stroke-dashoffset:0;stroke-opacity:1"><path
           id="path5939"
           d="m 466.11,422.79 0,5.62 -8.27,-0.39 0,-2.34 c 3.09,0 3.44,0 3.44,-1.95 l 0,-15.39 -3.44,0 0,-2.34 13.15,0 0,2.34 -4.33,0 0,8.72 c 0,3.49 1.25,9.56 6.23,9.56 -0.05,-0.05 -0.95,-0.84 -0.95,-2.29 0,-2.04 1.6,-3.04 3.04,-3.04 1.44,0 3.04,1.05 3.04,3.04 0,2.64 -2.69,4.08 -5.28,4.08 -3.49,0 -5.48,-2.48 -6.63,-5.62 z"
           inkscape:connector-curvature="0"
           style="fill:#000000;stroke-width:0" /></g>    </g>
    <g
       style="fill:#666666;fill-opacity:1"
       id="g6017"
       transform="translate(348.4603,766.69285)">
      <g
         id="g6019"
         transform="matrix(0.42857143,0,0,-0.42857143,-75,450)"
         xml:space="preserve"
         stroke-miterlimit="10.433"
         font-style="normal"
         font-variant="normal"
         font-weight="normal"
         font-stretch="normal"
         font-size-adjust="none"
         letter-spacing="normal"
         word-spacing="normal"
         style="font-style:normal;font-variant:normal;font-weight:normal;font-stretch:normal;letter-spacing:normal;word-spacing:normal;text-anchor:start;fill:#666666;fill-opacity:1;fill-rule:evenodd;stroke:#000000;stroke-linecap:butt;stroke-linejoin:miter;stroke-miterlimit:10.43299961;stroke-dasharray:none;stroke-dashoffset:0;stroke-opacity:1"><polygon
           points="461.78,434.8 462.68,433.9 468.45,438.98 474.18,433.9 475.08,434.8 468.45,441.57 "
           id="polygon6021"
           style="fill:#666666;fill-opacity:1;stroke-width:0" /><path
           d="m 479.02,416.86 0.1,0 0.09,0 0.1,0 0.09,0 0.09,0 0.08,0.01 0.08,0 0.08,0.01 0.07,0.01 0.07,0.01 0.07,0.01 0.06,0.02 0.06,0.02 0.06,0.02 0.05,0.03 0.05,0.03 0.05,0.03 0.04,0.04 0.05,0.04 0.03,0.05 0.04,0.05 0.03,0.06 0.01,0.03 0.02,0.03 0.01,0.03 0.01,0.04 0.02,0.03 0.01,0.04 0.01,0.04 0.01,0.04 0,0.04 0.01,0.05 0.01,0.04 0.01,0.05 0,0.05 0.01,0.05 0,0.05 0,0.06 0.01,0.05 0,0.06 0,0.06 0,0.06 c 0,1.55 -0.3,5.18 -2.79,7.68 -1.84,1.79 -4.48,2.69 -7.92,2.69 -7.97,0 -12.31,-5.14 -12.31,-11.36 0,-6.68 4.98,-11.51 13,-11.51 7.87,0 10.02,5.28 10.02,6.13 0,0.9 -0.95,0.9 -1.2,0.9 -0.84,0 -0.95,-0.25 -1.24,-1.05 -1.05,-2.39 -3.89,-3.98 -7.13,-3.98 -7.02,0 -7.07,6.62 -7.07,9.16 l 0,1.64 c 0.1,1.95 0.15,4.04 1.19,5.68 1.3,2 3.29,2.59 4.74,2.59 5.83,0 5.92,-6.52 5.98,-8.27 l -11.91,0 0,-1.64 z"
           id="path6023"
           inkscape:connector-curvature="0"
           style="fill:#666666;fill-opacity:1;stroke-width:0" /><path
           d="m 490.68,402.7 -0.03,-0.12 -0.04,-0.11 -0.05,-0.12 -0.04,-0.13 -0.06,-0.12 -0.06,-0.13 -0.06,-0.12 -0.07,-0.13 -0.07,-0.13 -0.07,-0.13 -0.08,-0.13 -0.09,-0.12 -0.09,-0.13 -0.09,-0.12 -0.1,-0.12 -0.1,-0.12 -0.11,-0.12 -0.11,-0.11 -0.11,-0.1 -0.12,-0.1 -0.12,-0.1 -0.13,-0.09 -0.13,-0.08 -0.13,-0.08 -0.14,-0.07 -0.14,-0.06 -0.15,-0.05 -0.15,-0.05 -0.15,-0.03 -0.16,-0.03 -0.16,-0.02 -0.16,0 c -0.11,0 -1.16,0 -1.89,0.49 1.43,0.45 1.53,1.7 1.53,1.92 0,0.76 -0.59,1.28 -1.39,1.28 -0.98,0 -1.99,-0.83 -1.99,-2.12 0,-1.75 1.95,-2.55 3.67,-2.55 1.6,0 3.03,1.01 3.9,2.48 0.84,-1.85 2.76,-2.48 4.15,-2.48 4.01,0 6.14,4.36 6.14,5.33 0,0.46 -0.46,0.46 -0.56,0.46 -0.49,0 -0.52,-0.17 -0.67,-0.59 -0.73,-2.41 -2.82,-4.22 -4.77,-4.22 -1.4,0 -2.13,0.94 -2.13,2.26 0,0.91 0.84,4.08 1.81,7.95 0.7,2.69 2.27,3.56 3.42,3.56 0.07,0 1.16,0 1.89,-0.49 -1.12,-0.31 -1.54,-1.29 -1.54,-1.91 0,-0.77 0.59,-1.3 1.4,-1.3 0.8,0 1.95,0.67 1.95,2.13 0,1.96 -2.23,2.55 -3.63,2.55 -1.74,0 -3.14,-1.15 -3.9,-2.48 -0.63,1.43 -2.23,2.48 -4.19,2.48 -3.9,0 -6.13,-4.29 -6.13,-5.34 0,-0.45 0.48,-0.45 0.59,-0.45 0.45,0 0.49,0.14 0.66,0.59 0.87,2.72 3.07,4.22 4.78,4.22 1.15,0 2.09,-0.63 2.09,-2.3 0,-0.7 -0.42,-2.44 -0.73,-3.63 z"
           id="path6025"
           inkscape:connector-curvature="0"
           style="fill:#666666;fill-opacity:1;stroke-width:0" /></g>    </g>
    <g
       style="fill:#666666;fill-opacity:1"
       id="g6113"
       transform="translate(-2.0626355,411.62423)">
      <g
         word-spacing="normal"
         letter-spacing="normal"
         font-size-adjust="none"
         font-stretch="normal"
         font-weight="normal"
         font-variant="normal"
         font-style="normal"
         stroke-miterlimit="10.433"
         xml:space="preserve"
         transform="matrix(0.42857143,0,0,-0.42857143,-75,450)"
         id="g6115"
         style="font-style:normal;font-variant:normal;font-weight:normal;font-stretch:normal;letter-spacing:normal;word-spacing:normal;text-anchor:start;fill:#666666;fill-opacity:1;fill-rule:evenodd;stroke:#000000;stroke-linecap:butt;stroke-linejoin:miter;stroke-miterlimit:10.43299961;stroke-dasharray:none;stroke-dashoffset:0;stroke-opacity:1"><polygon
           id="polygon6117"
           points="462.68,433.9 468.45,438.98 474.18,433.9 475.08,434.8 468.45,441.57 461.78,434.8 "
           style="fill:#666666;fill-opacity:1;stroke-width:0" /><path
           id="path6119"
           d="m 479.02,416.86 0.1,0 0.09,0 0.1,0 0.09,0 0.09,0 0.08,0.01 0.08,0 0.08,0.01 0.07,0.01 0.07,0.01 0.07,0.01 0.06,0.02 0.06,0.02 0.06,0.02 0.05,0.03 0.05,0.03 0.05,0.03 0.04,0.04 0.05,0.04 0.03,0.05 0.04,0.05 0.03,0.06 0.01,0.03 0.02,0.03 0.01,0.03 0.01,0.04 0.02,0.03 0.01,0.04 0.01,0.04 0.01,0.04 0,0.04 0.01,0.05 0.01,0.04 0.01,0.05 0,0.05 0.01,0.05 0,0.05 0,0.06 0.01,0.05 0,0.06 0,0.06 0,0.06 c 0,1.55 -0.3,5.18 -2.79,7.68 -1.84,1.79 -4.48,2.69 -7.92,2.69 -7.97,0 -12.31,-5.14 -12.31,-11.36 0,-6.68 4.98,-11.51 13,-11.51 7.87,0 10.02,5.28 10.02,6.13 0,0.9 -0.95,0.9 -1.2,0.9 -0.84,0 -0.95,-0.25 -1.24,-1.05 -1.05,-2.39 -3.89,-3.98 -7.13,-3.98 -7.02,0 -7.07,6.62 -7.07,9.16 l 0,1.64 c 0.1,1.95 0.15,4.04 1.19,5.68 1.3,2 3.29,2.59 4.74,2.59 5.83,0 5.92,-6.52 5.98,-8.27 l -11.91,0 0,-1.64 z"
           inkscape:connector-curvature="0"
           style="fill:#666666;fill-opacity:1;stroke-width:0" /><path
           id="path6121"
           d="m 501.39,412.14 0,0.03 0.01,0.02 0.01,0.02 0,0.02 0.01,0.02 0,0.02 0.01,0.04 0.01,0.04 0.01,0.03 0.01,0.03 0.01,0.03 0.01,0.03 0,0.03 0.01,0.02 0,0.03 0.01,0.02 0,0.02 0.01,0.02 0,0.02 0,0.02 0.01,0.02 0,0.02 0,0.02 0,0.03 0,0.03 0.01,0.04 0,0.03 0,0.02 0,0.02 0,0.01 0,0.02 c 0,0.7 -0.56,1.12 -1.15,1.12 -0.39,0 -1.05,-0.17 -1.43,-0.84 -0.11,-0.21 -0.39,-1.32 -0.56,-2.02 l -0.73,-2.9 c -0.21,-0.83 -1.29,-5.23 -1.4,-5.61 -0.03,0 -1.57,-3.03 -4.29,-3.03 -2.37,0 -2.37,2.26 -2.37,2.89 0,1.89 0.8,4.08 1.85,6.77 0.42,1.11 0.59,1.53 0.59,2.12 0,1.68 -1.43,2.97 -3.31,2.97 -3.52,0 -5.09,-4.74 -5.09,-5.34 0,-0.45 0.49,-0.45 0.59,-0.45 0.49,0 0.52,0.17 0.63,0.56 0.87,2.89 2.37,4.25 3.76,4.25 0.6,0 0.88,-0.38 0.88,-1.22 0,-0.8 -0.32,-1.57 -0.49,-2.02 -1.67,-4.26 -2.03,-5.55 -2.03,-7.08 0,-0.59 0,-2.23 1.37,-3.35 1.08,-0.91 2.54,-1.08 3.48,-1.08 1.4,0 2.65,0.53 3.8,1.57 -0.45,-1.92 -0.83,-3.38 -2.3,-5.13 -0.94,-1.07 -2.33,-2.23 -4.18,-2.23 -0.25,0 -1.88,0 -2.62,1.16 1.88,0.2 1.88,1.88 1.88,1.91 0,1.12 -1,1.33 -1.36,1.33 -0.87,0 -2.01,-0.7 -2.01,-2.3 0,-1.78 1.67,-3.07 4.14,-3.07 3.52,0 7.81,2.72 8.89,7.07 z"
           inkscape:connector-curvature="0"
           style="fill:#666666;fill-opacity:1;stroke-width:0" /></g>    </g>
    <g
       style="fill:#666666;fill-opacity:1"
       id="g6219"
       transform="translate(-47.519501,620.22073)">
      <g
         id="g6221"
         transform="matrix(0.42857143,0,0,-0.42857143,-75,450)"
         xml:space="preserve"
         stroke-miterlimit="10.433"
         font-style="normal"
         font-variant="normal"
         font-weight="normal"
         font-stretch="normal"
         font-size-adjust="none"
         letter-spacing="normal"
         word-spacing="normal"
         style="font-style:normal;font-variant:normal;font-weight:normal;font-stretch:normal;letter-spacing:normal;word-spacing:normal;text-anchor:start;fill:#666666;fill-opacity:1;fill-rule:evenodd;stroke:#000000;stroke-linecap:butt;stroke-linejoin:miter;stroke-miterlimit:10.43299961;stroke-dasharray:none;stroke-dashoffset:0;stroke-opacity:1"><polygon
           points="468.45,438.98 474.18,433.9 475.08,434.8 468.45,441.57 461.78,434.8 462.68,433.9 "
           id="polygon6223"
           style="fill:#666666;fill-opacity:1;stroke-width:0" /><path
           d="m 479.02,416.86 0.1,0 0.09,0 0.1,0 0.09,0 0.09,0 0.08,0.01 0.08,0 0.08,0.01 0.07,0.01 0.07,0.01 0.07,0.01 0.06,0.02 0.06,0.02 0.06,0.02 0.05,0.03 0.05,0.03 0.05,0.03 0.04,0.04 0.05,0.04 0.03,0.05 0.04,0.05 0.03,0.06 0.01,0.03 0.02,0.03 0.01,0.03 0.01,0.04 0.02,0.03 0.01,0.04 0.01,0.04 0.01,0.04 0,0.04 0.01,0.05 0.01,0.04 0.01,0.05 0,0.05 0.01,0.05 0,0.05 0,0.06 0.01,0.05 0,0.06 0,0.06 0,0.06 c 0,1.55 -0.3,5.18 -2.79,7.68 -1.84,1.79 -4.48,2.69 -7.92,2.69 -7.97,0 -12.31,-5.14 -12.31,-11.36 0,-6.68 4.98,-11.51 13,-11.51 7.87,0 10.02,5.28 10.02,6.13 0,0.9 -0.95,0.9 -1.2,0.9 -0.84,0 -0.95,-0.25 -1.24,-1.05 -1.05,-2.39 -3.89,-3.98 -7.13,-3.98 -7.02,0 -7.07,6.62 -7.07,9.16 l 0,1.64 c 0.1,1.95 0.15,4.04 1.19,5.68 1.3,2 3.29,2.59 4.74,2.59 5.83,0 5.92,-6.52 5.98,-8.27 l -11.91,0 0,-1.64 z"
           id="path6225"
           inkscape:connector-curvature="0"
           style="fill:#666666;fill-opacity:1;stroke-width:0" /><path
           d="m 487.86,402.07 0.17,0.17 0.16,0.16 0.17,0.17 0.17,0.16 0.18,0.18 0.09,0.09 0.1,0.09 0.1,0.09 0.11,0.1 0.11,0.1 0.12,0.11 0.12,0.11 0.13,0.11 0.13,0.12 0.15,0.13 0.15,0.13 0.16,0.14 0.17,0.14 0.18,0.15 0.19,0.16 0.2,0.16 0.21,0.17 0.22,0.19 0.23,0.18 0.25,0.2 0.25,0.21 0.28,0.22 c 0.73,0.59 3.34,2.69 4.35,3.66 2.13,2.09 3.46,3.87 3.46,4.29 0,0.42 -0.46,0.42 -0.6,0.42 -0.31,0 -0.41,-0.07 -0.59,-0.35 -1.08,-1.6 -1.81,-2.13 -2.65,-2.13 -0.42,0 -0.94,0.04 -1.99,1.05 -1.18,1.18 -1.95,1.43 -2.75,1.43 -2.79,0 -4.67,-3.04 -4.67,-4.08 0,-0.32 0.35,-0.42 0.59,-0.42 0.42,0 0.49,0.1 0.63,0.49 0.52,1.22 2.47,1.29 3.03,1.29 0.8,0 1.71,-0.21 2.2,-0.32 1.92,-0.41 2.16,-0.41 3.03,-0.41 -0.9,-0.95 -1.53,-1.57 -4.85,-4.22 -2.71,-2.17 -3.66,-3.04 -4.32,-3.73 -2.09,-2.06 -3.1,-3.6 -3.1,-3.91 0,-0.42 0.45,-0.42 0.59,-0.42 0.35,0 0.42,0.07 0.59,0.35 0.94,1.32 2.03,2.13 3.21,2.13 0.42,0 0.94,-0.04 1.88,-0.91 1.08,-1.04 1.78,-1.57 2.9,-1.57 3.73,0 6.06,4.22 6.06,5.4 0,0.42 -0.38,0.46 -0.59,0.46 -0.41,0 -0.48,-0.17 -0.63,-0.56 -0.66,-1.74 -2.71,-2.58 -4.43,-2.58 -0.8,0 -1.67,0.18 -2.54,0.38 -1.6,0.35 -1.88,0.35 -2.51,0.35 -0.07,0 -0.59,0 -0.8,-0.03 z"
           id="path6227"
           inkscape:connector-curvature="0"
           style="fill:#666666;fill-opacity:1;stroke-width:0" /></g>    </g>
    <path
       inkscape:connector-curvature="0"
       id="path6532"
       d="m 153.4297,822.0472 85.42208,49.31846"
       style="fill:none;fill-rule:evenodd;stroke:#000000;stroke-width:2;stroke-linecap:butt;stroke-linejoin:miter;stroke-miterlimit:4;stroke-dasharray:none;stroke-opacity:1;marker-end:url(#marker6540)" />
    <g
       transform="matrix(0.79999994,0,0,0.79999994,11.470853,668.51949)"
       id="g6780">
      <g
         style="font-style:normal;font-variant:normal;font-weight:normal;font-stretch:normal;letter-spacing:normal;word-spacing:normal;text-anchor:start;fill:none;fill-opacity:1;fill-rule:evenodd;stroke:#000000;stroke-width:1.25000012;stroke-linecap:butt;stroke-linejoin:miter;stroke-miterlimit:10.43299961;stroke-dasharray:none;stroke-dashoffset:0;stroke-opacity:1"
         word-spacing="normal"
         letter-spacing="normal"
         font-size-adjust="none"
         font-stretch="normal"
         font-weight="normal"
         font-variant="normal"
         font-style="normal"
         stroke-miterlimit="10.433"
         xml:space="preserve"
         transform="matrix(0.57142857,0,0,-0.57142857,-100,450)"
         id="g6782"><path
           style="fill:#000000;stroke-width:0"
           inkscape:connector-curvature="0"
           id="path6784"
           d="m 492.86,427.72 -0.01,0.74 -0.05,0.73 -0.07,0.71 -0.11,0.7 -0.13,0.67 -0.16,0.66 -0.19,0.64 -0.22,0.63 -0.24,0.6 -0.27,0.58 -0.29,0.56 -0.32,0.54 -0.34,0.52 -0.37,0.5 -0.38,0.47 -0.42,0.46 -0.43,0.42 -0.45,0.41 -0.48,0.38 -0.49,0.35 -0.51,0.33 -0.53,0.3 -0.56,0.28 -0.56,0.25 -0.59,0.22 -0.6,0.2 -0.62,0.16 -0.63,0.14 -0.65,0.11 -0.66,0.07 -0.68,0.05 -0.69,0.02 -0.3,-1.25 c 4.09,0 8.57,-2.79 8.57,-10.21 0,-3.59 -1.35,-11.36 -6.28,-17.48 -2.39,-3.04 -6.47,-5.98 -10.66,-5.98 l 0,0 c -4.93,0 -8.42,4.03 -8.42,10.61 0,2.19 0.7,9.46 4.54,15.29 3.43,5.18 8.32,7.77 12.25,7.77 l 0.3,1.25 c -10.76,0 -21.72,-11.31 -21.72,-22.92 0,-8.27 5.58,-13.3 12.75,-13.3 10.56,0 21.67,10.91 21.67,22.82 z" /></g>    </g>
  </g>
  <g
     inkscape:groupmode="layer"
     id="layer2"
     inkscape:label="Layer 2"
     sodipodi:insensitive="true"
     style="display:inline">
    <path
       transform="translate(0,-652.36216)"
       inkscape:connector-curvature="0"
       id="path4190"
       d="m 286.08476,897.88721 0,-66.30342"
       style="fill:none;fill-rule:evenodd;stroke:#000000;stroke-width:2;stroke-linecap:butt;stroke-linejoin:miter;stroke-miterlimit:4;stroke-dasharray:8, 8;stroke-dashoffset:0;stroke-opacity:1" />
    <g
       transform="translate(21.335755,-689.44194)"
       id="g5753">
      <path
         style="fill:none;fill-rule:evenodd;stroke:#000000;stroke-width:2;stroke-linecap:butt;stroke-linejoin:miter;stroke-miterlimit:4;stroke-dasharray:none;stroke-opacity:1"
         d="m 264.749,817.98802 59.69008,-34.4577"
         id="path4192"
         inkscape:connector-curvature="0" />
      <path
         inkscape:connector-curvature="0"
         id="path4194"
         d="m 265.31721,817.23041 0,46.56592"
         style="fill:none;fill-rule:evenodd;stroke:#000000;stroke-width:2;stroke-linecap:butt;stroke-linejoin:miter;stroke-miterlimit:4;stroke-dasharray:none;stroke-opacity:1;marker-end:url(#Arrow2Mend)" />
      <path
         style="fill:none;fill-rule:evenodd;stroke:#000000;stroke-width:2;stroke-linecap:butt;stroke-linejoin:miter;stroke-miterlimit:4;stroke-dasharray:none;stroke-opacity:1;marker-end:url(#marker6500)"
         d="m 323.76236,784.24699 0,46.56592"
         id="path4776"
         inkscape:connector-curvature="0" />
      <path
         inkscape:connector-curvature="0"
         id="path5099"
         d="m 284.79892,806.23593 0,46.56592"
         style="fill:none;fill-rule:evenodd;stroke:#000000;stroke-width:2;stroke-linecap:butt;stroke-linejoin:miter;stroke-miterlimit:4;stroke-dasharray:none;stroke-opacity:1;marker-end:url(#marker6480)" />
      <path
         style="fill:none;fill-rule:evenodd;stroke:#000000;stroke-width:2;stroke-linecap:butt;stroke-linejoin:miter;stroke-miterlimit:4;stroke-dasharray:none;stroke-opacity:1;marker-end:url(#marker6490)"
         d="m 304.28065,795.24147 0,46.56592"
         id="path5135"
         inkscape:connector-curvature="0" />
    </g>
    <g
       id="g5790"
       transform="translate(199.90719,-199.44193)">
      <g
         word-spacing="normal"
         letter-spacing="normal"
         font-size-adjust="none"
         font-stretch="normal"
         font-weight="normal"
         font-variant="normal"
         font-style="normal"
         stroke-miterlimit="10.433"
         xml:space="preserve"
         transform="matrix(0.42857143,0,0,-0.42857143,-75,450)"
         id="content"
         style="font-style:normal;font-variant:normal;font-weight:normal;font-stretch:normal;letter-spacing:normal;word-spacing:normal;text-anchor:start;fill:none;fill-opacity:1;fill-rule:evenodd;stroke:#000000;stroke-linecap:butt;stroke-linejoin:miter;stroke-miterlimit:10.43299961;stroke-dasharray:none;stroke-dashoffset:0;stroke-opacity:1"><path
           id="path5793"
           d="m 471.09,422.19 4.84,0 c 3.73,0 4.13,-0.8 4.13,-2.24 0,-0.35 0,-0.95 -0.35,-2.44 -0.1,-0.25 -0.15,-0.45 -0.15,-0.55 0,-0.4 0.3,-0.6 0.6,-0.6 0.5,0 0.5,0.15 0.75,1.05 l 2.73,10.8 c 0.16,0.56 0.16,0.65 0.16,0.8 0,0.1 -0.1,0.55 -0.6,0.55 -0.5,0 -0.55,-0.25 -0.75,-1.04 -1.04,-3.89 -2.19,-4.79 -6.43,-4.79 l -4.53,0 3.19,12.66 c 0.45,1.74 0.5,1.94 2.69,1.94 l 6.58,0 c 6.12,0 7.27,-1.65 7.27,-5.48 0,-1.15 0,-1.35 -0.15,-2.69 -0.1,-0.65 -0.1,-0.75 -0.1,-0.9 0,-0.25 0.15,-0.6 0.6,-0.6 0.54,0 0.59,0.3 0.7,1.25 l 0.99,8.62 c 0.15,1.34 -0.1,1.34 -1.35,1.34 l -24.4,0 c -1,0 -1.5,0 -1.5,-0.99 0,-0.55 0.45,-0.55 1.4,-0.55 1.84,0 3.23,0 3.23,-0.9 0,-0.2 0,-0.3 -0.25,-1.19 l -6.57,-26.35 c -0.5,-1.95 -0.6,-2.35 -4.53,-2.35 -0.85,0 -1.4,0 -1.4,-0.94 0,-0.6 0.6,-0.6 0.75,-0.6 l 14,0 c 0.45,0 1.04,0 1.04,0.95 0,0.39 -0.29,0.5 -0.29,0.55 -0.16,0.04 -0.25,0.04 -1.4,0.04 -1.1,0 -1.35,0 -2.59,0.1 -1.44,0.15 -1.6,0.35 -1.6,1 0,0.1 0,0.4 0.2,1.15 z"
           inkscape:connector-curvature="0"
           style="fill:#000000;stroke-width:0" /></g>    </g>
    <g
       id="g5859"
       transform="translate(152.4907,-9.91808)">
      <g
         id="g5861"
         transform="matrix(0.42857143,0,0,-0.42857143,-75,450)"
         xml:space="preserve"
         stroke-miterlimit="10.433"
         font-style="normal"
         font-variant="normal"
         font-weight="normal"
         font-stretch="normal"
         font-size-adjust="none"
         letter-spacing="normal"
         word-spacing="normal"
         style="font-style:normal;font-variant:normal;font-weight:normal;font-stretch:normal;letter-spacing:normal;word-spacing:normal;text-anchor:start;fill:none;fill-opacity:1;fill-rule:evenodd;stroke:#000000;stroke-linecap:butt;stroke-linejoin:miter;stroke-miterlimit:10.43299961;stroke-dasharray:none;stroke-dashoffset:0;stroke-opacity:1"><path
           d="m 464.92,411.73 -0.19,-0.31 -0.19,-0.29 -0.18,-0.27 -0.19,-0.26 -0.18,-0.25 -0.19,-0.23 -0.19,-0.23 -0.18,-0.2 -0.19,-0.2 -0.18,-0.18 -0.19,-0.17 -0.19,-0.16 -0.19,-0.15 -0.18,-0.14 -0.19,-0.13 -0.19,-0.12 -0.19,-0.11 -0.19,-0.1 -0.19,-0.09 -0.19,-0.09 -0.2,-0.07 -0.19,-0.07 -0.19,-0.06 -0.2,-0.06 -0.2,-0.05 -0.19,-0.04 -0.2,-0.04 -0.2,-0.03 -0.4,-0.05 -0.41,-0.04 c -0.6,-0.04 -1.05,-0.04 -1.05,-0.99 0,-0.3 0.25,-0.55 0.65,-0.55 l 9.27,0 c 0.3,0 0.94,0 0.94,0.95 0,0.55 -0.44,0.59 -0.8,0.59 -1.14,0.1 -2.34,0.5 -2.34,1.75 0,0.6 0.3,1.14 0.7,1.84 l 3.79,6.38 12.5,0 -0.15,1.54 -11.41,0 9.82,16.44 1.59,-16.44 0.15,-1.54 c 0.1,-1.05 0.8,-7.82 0.8,-8.32 0,-1.49 -2.59,-1.65 -3.59,-1.65 -0.7,0 -1.2,0 -1.2,-0.99 0,-0.55 0.6,-0.55 0.7,-0.55 l 11.86,0 c 0.3,0 0.89,0 0.89,1 0,0.54 -0.49,0.54 -1.14,0.54 -3.09,0 -3.09,0.35 -3.24,1.8 l -3.04,31.13 c -0.1,1 -0.1,1.2 -0.94,1.2 -0.8,0 -1,-0.35 -1.3,-0.85 z"
           id="path5863"
           inkscape:connector-curvature="0"
           style="fill:#000000;stroke-width:0" /></g>    </g>
  </g>
</svg>
