<?xml version="1.0" encoding="utf-8" standalone="no"?>
<!DOCTYPE svg PUBLIC "-//W3C//DTD SVG 1.1//EN"
  "http://www.w3.org/Graphics/SVG/1.1/DTD/svg11.dtd">
<!-- Created with matplotlib (http://matplotlib.org/) -->
<svg height="288pt" version="1.1" viewBox="0 0 432 288" width="432pt" xmlns="http://www.w3.org/2000/svg" xmlns:xlink="http://www.w3.org/1999/xlink">
 <defs>
  <style type="text/css">
*{stroke-linecap:butt;stroke-linejoin:round;}
  </style>
 </defs>
 <g id="figure_1">
  <g id="patch_1">
   <path d="M 0 288 
L 432 288 
L 432 0 
L 0 0 
z
" style="fill:#ffffff;"/>
  </g>
  <g id="axes_1">
   <g id="patch_2">
    <path d="M 38.56225 236.68 
L 415.26 236.68 
L 415.26 15.48 
L 38.56225 15.48 
z
" style="fill:#ffffff;"/>
   </g>
   <g id="matplotlib.axis_1">
    <g id="xtick_1">
     <g id="line2d_1">
      <defs>
       <path d="M 0 0 
L 0 3.5 
" id="me8efdba640" style="stroke:#757575;stroke-width:0.8;"/>
      </defs>
      <g>
       <use style="fill:#757575;stroke:#757575;stroke-width:0.8;" x="38.56225" xlink:href="#me8efdba640" y="236.68"/>
      </g>
     </g>
     <g id="text_1">
      <!-- −6 -->
      <defs>
       <path d="M 10.59375 35.5 
L 73.1875 35.5 
L 73.1875 27.203125 
L 10.59375 27.203125 
z
" id="DejaVuSans-2212"/>
       <path d="M 33.015625 40.375 
Q 26.375 40.375 22.484375 35.828125 
Q 18.609375 31.296875 18.609375 23.390625 
Q 18.609375 15.53125 22.484375 10.953125 
Q 26.375 6.390625 33.015625 6.390625 
Q 39.65625 6.390625 43.53125 10.953125 
Q 47.40625 15.53125 47.40625 23.390625 
Q 47.40625 31.296875 43.53125 35.828125 
Q 39.65625 40.375 33.015625 40.375 
z
M 52.59375 71.296875 
L 52.59375 62.3125 
Q 48.875 64.0625 45.09375 64.984375 
Q 41.3125 65.921875 37.59375 65.921875 
Q 27.828125 65.921875 22.671875 59.328125 
Q 17.53125 52.734375 16.796875 39.40625 
Q 19.671875 43.65625 24.015625 45.921875 
Q 28.375 48.1875 33.59375 48.1875 
Q 44.578125 48.1875 50.953125 41.515625 
Q 57.328125 34.859375 57.328125 23.390625 
Q 57.328125 12.15625 50.6875 5.359375 
Q 44.046875 -1.421875 33.015625 -1.421875 
Q 20.359375 -1.421875 13.671875 8.265625 
Q 6.984375 17.96875 6.984375 36.375 
Q 6.984375 53.65625 15.1875 63.9375 
Q 23.390625 74.21875 37.203125 74.21875 
Q 40.921875 74.21875 44.703125 73.484375 
Q 48.484375 72.75 52.59375 71.296875 
z
" id="DejaVuSans-36"/>
      </defs>
      <g style="fill:#757575;" transform="translate(29.716938 252.798125)scale(0.12 -0.12)">
       <use xlink:href="#DejaVuSans-2212"/>
       <use x="83.789062" xlink:href="#DejaVuSans-36"/>
      </g>
     </g>
    </g>
    <g id="xtick_2">
     <g id="line2d_2">
      <g>
       <use style="fill:#757575;stroke:#757575;stroke-width:0.8;" x="101.345208" xlink:href="#me8efdba640" y="236.68"/>
      </g>
     </g>
     <g id="text_2">
      <!-- −4 -->
      <defs>
       <path d="M 37.796875 64.3125 
L 12.890625 25.390625 
L 37.796875 25.390625 
z
M 35.203125 72.90625 
L 47.609375 72.90625 
L 47.609375 25.390625 
L 58.015625 25.390625 
L 58.015625 17.1875 
L 47.609375 17.1875 
L 47.609375 0 
L 37.796875 0 
L 37.796875 17.1875 
L 4.890625 17.1875 
L 4.890625 26.703125 
z
" id="DejaVuSans-34"/>
      </defs>
      <g style="fill:#757575;" transform="translate(92.499896 252.798125)scale(0.12 -0.12)">
       <use xlink:href="#DejaVuSans-2212"/>
       <use x="83.789062" xlink:href="#DejaVuSans-34"/>
      </g>
     </g>
    </g>
    <g id="xtick_3">
     <g id="line2d_3">
      <g>
       <use style="fill:#757575;stroke:#757575;stroke-width:0.8;" x="164.128167" xlink:href="#me8efdba640" y="236.68"/>
      </g>
     </g>
     <g id="text_3">
      <!-- −2 -->
      <defs>
       <path d="M 19.1875 8.296875 
L 53.609375 8.296875 
L 53.609375 0 
L 7.328125 0 
L 7.328125 8.296875 
Q 12.9375 14.109375 22.625 23.890625 
Q 32.328125 33.6875 34.8125 36.53125 
Q 39.546875 41.84375 41.421875 45.53125 
Q 43.3125 49.21875 43.3125 52.78125 
Q 43.3125 58.59375 39.234375 62.25 
Q 35.15625 65.921875 28.609375 65.921875 
Q 23.96875 65.921875 18.8125 64.3125 
Q 13.671875 62.703125 7.8125 59.421875 
L 7.8125 69.390625 
Q 13.765625 71.78125 18.9375 73 
Q 24.125 74.21875 28.421875 74.21875 
Q 39.75 74.21875 46.484375 68.546875 
Q 53.21875 62.890625 53.21875 53.421875 
Q 53.21875 48.921875 51.53125 44.890625 
Q 49.859375 40.875 45.40625 35.40625 
Q 44.1875 33.984375 37.640625 27.21875 
Q 31.109375 20.453125 19.1875 8.296875 
z
" id="DejaVuSans-32"/>
      </defs>
      <g style="fill:#757575;" transform="translate(155.282854 252.798125)scale(0.12 -0.12)">
       <use xlink:href="#DejaVuSans-2212"/>
       <use x="83.789062" xlink:href="#DejaVuSans-32"/>
      </g>
     </g>
    </g>
    <g id="xtick_4">
     <g id="line2d_4">
      <g>
       <use style="fill:#757575;stroke:#757575;stroke-width:0.8;" x="226.911125" xlink:href="#me8efdba640" y="236.68"/>
      </g>
     </g>
     <g id="text_4">
      <!-- 0 -->
      <defs>
       <path d="M 31.78125 66.40625 
Q 24.171875 66.40625 20.328125 58.90625 
Q 16.5 51.421875 16.5 36.375 
Q 16.5 21.390625 20.328125 13.890625 
Q 24.171875 6.390625 31.78125 6.390625 
Q 39.453125 6.390625 43.28125 13.890625 
Q 47.125 21.390625 47.125 36.375 
Q 47.125 51.421875 43.28125 58.90625 
Q 39.453125 66.40625 31.78125 66.40625 
z
M 31.78125 74.21875 
Q 44.046875 74.21875 50.515625 64.515625 
Q 56.984375 54.828125 56.984375 36.375 
Q 56.984375 17.96875 50.515625 8.265625 
Q 44.046875 -1.421875 31.78125 -1.421875 
Q 19.53125 -1.421875 13.0625 8.265625 
Q 6.59375 17.96875 6.59375 36.375 
Q 6.59375 54.828125 13.0625 64.515625 
Q 19.53125 74.21875 31.78125 74.21875 
z
" id="DejaVuSans-30"/>
      </defs>
      <g style="fill:#757575;" transform="translate(223.093625 252.798125)scale(0.12 -0.12)">
       <use xlink:href="#DejaVuSans-30"/>
      </g>
     </g>
    </g>
    <g id="xtick_5">
     <g id="line2d_5">
      <g>
       <use style="fill:#757575;stroke:#757575;stroke-width:0.8;" x="289.694083" xlink:href="#me8efdba640" y="236.68"/>
      </g>
     </g>
     <g id="text_5">
      <!-- 2 -->
      <g style="fill:#757575;" transform="translate(285.876583 252.798125)scale(0.12 -0.12)">
       <use xlink:href="#DejaVuSans-32"/>
      </g>
     </g>
    </g>
    <g id="xtick_6">
     <g id="line2d_6">
      <g>
       <use style="fill:#757575;stroke:#757575;stroke-width:0.8;" x="352.477042" xlink:href="#me8efdba640" y="236.68"/>
      </g>
     </g>
     <g id="text_6">
      <!-- 4 -->
      <g style="fill:#757575;" transform="translate(348.659542 252.798125)scale(0.12 -0.12)">
       <use xlink:href="#DejaVuSans-34"/>
      </g>
     </g>
    </g>
    <g id="xtick_7">
     <g id="line2d_7">
      <g>
       <use style="fill:#757575;stroke:#757575;stroke-width:0.8;" x="415.26" xlink:href="#me8efdba640" y="236.68"/>
      </g>
     </g>
     <g id="text_7">
      <!-- 6 -->
      <g style="fill:#757575;" transform="translate(411.4425 252.798125)scale(0.12 -0.12)">
       <use xlink:href="#DejaVuSans-36"/>
      </g>
     </g>
    </g>
    <g id="text_8">
     <!-- $x$ -->
     <defs>
      <path d="M 7.8125 2.875 
Q 9.578125 1.515625 12.796875 1.515625 
Q 15.921875 1.515625 18.3125 4.515625 
Q 20.703125 7.515625 21.578125 11.078125 
L 26.125 28.8125 
Q 27.203125 33.640625 27.203125 35.40625 
Q 27.203125 37.890625 25.8125 39.75 
Q 24.421875 41.609375 21.921875 41.609375 
Q 18.75 41.609375 15.96875 39.625 
Q 13.1875 37.640625 11.28125 34.59375 
Q 9.375 31.546875 8.59375 28.421875 
Q 8.40625 27.78125 7.8125 27.78125 
L 6.59375 27.78125 
Q 5.8125 27.78125 5.8125 28.71875 
L 5.8125 29 
Q 6.78125 32.71875 9.125 36.25 
Q 11.46875 39.796875 14.859375 41.984375 
Q 18.265625 44.1875 22.125 44.1875 
Q 25.78125 44.1875 28.734375 42.234375 
Q 31.6875 40.28125 32.90625 36.921875 
Q 34.625 39.984375 37.28125 42.078125 
Q 39.9375 44.1875 43.109375 44.1875 
Q 45.265625 44.1875 47.5 43.421875 
Q 49.75 42.671875 51.171875 41.109375 
Q 52.59375 39.546875 52.59375 37.203125 
Q 52.59375 34.671875 50.953125 32.828125 
Q 49.3125 31 46.78125 31 
Q 45.171875 31 44.09375 32.03125 
Q 43.015625 33.0625 43.015625 34.625 
Q 43.015625 36.71875 44.453125 38.296875 
Q 45.90625 39.890625 47.90625 40.1875 
Q 46.09375 41.609375 42.921875 41.609375 
Q 39.703125 41.609375 37.328125 38.625 
Q 34.96875 35.640625 33.984375 31.984375 
L 29.59375 14.3125 
Q 28.515625 10.296875 28.515625 7.71875 
Q 28.515625 5.171875 29.953125 3.34375 
Q 31.390625 1.515625 33.796875 1.515625 
Q 38.484375 1.515625 42.15625 5.640625 
Q 45.84375 9.765625 47.015625 14.703125 
Q 47.21875 15.28125 47.796875 15.28125 
L 49.03125 15.28125 
Q 49.421875 15.28125 49.65625 15.015625 
Q 49.90625 14.75 49.90625 14.40625 
Q 49.90625 14.3125 49.8125 14.109375 
Q 48.390625 8.15625 43.84375 3.515625 
Q 39.3125 -1.125 33.59375 -1.125 
Q 29.9375 -1.125 26.984375 0.84375 
Q 24.03125 2.828125 22.796875 6.203125 
Q 21.234375 3.265625 18.46875 1.0625 
Q 15.71875 -1.125 12.59375 -1.125 
Q 10.453125 -1.125 8.171875 -0.359375 
Q 5.90625 0.390625 4.484375 1.953125 
Q 3.078125 3.515625 3.078125 5.90625 
Q 3.078125 8.25 4.703125 10.171875 
Q 6.34375 12.109375 8.796875 12.109375 
Q 10.453125 12.109375 11.578125 11.109375 
Q 12.703125 10.109375 12.703125 8.5 
Q 12.703125 6.390625 11.296875 4.828125 
Q 9.90625 3.265625 7.8125 2.875 
z
" id="Cmmi10-78"/>
     </defs>
     <g style="fill:#757575;" transform="translate(222.271125 271.45125)scale(0.16 -0.16)">
      <use transform="translate(0 0.8125)" xlink:href="#Cmmi10-78"/>
     </g>
    </g>
   </g>
   <g id="matplotlib.axis_2">
    <g id="text_9">
     <!-- $|\psi_n(x)|^2$ -->
     <defs>
      <path d="M 11.921875 -23.1875 
L 11.921875 73.1875 
Q 11.921875 73.96875 12.5 74.484375 
Q 13.09375 75 13.921875 75 
Q 14.65625 75 15.28125 74.484375 
Q 15.921875 73.96875 15.921875 73.1875 
L 15.921875 -23.1875 
Q 15.921875 -23.96875 15.28125 -24.484375 
Q 14.65625 -25 13.921875 -25 
Q 13.09375 -25 12.5 -24.484375 
Q 11.921875 -23.96875 11.921875 -23.1875 
z
" id="Cmsy10-6a"/>
      <path d="M 23.78125 -19.484375 
L 28.515625 -0.875 
Q 24.171875 -0.875 20.09375 0.75 
Q 16.015625 2.390625 13.5 5.5625 
Q 10.984375 8.734375 10.984375 13.28125 
Q 10.984375 15.875 11.90625 19.1875 
Q 12.84375 22.515625 13.890625 25.296875 
Q 14.9375 28.078125 16.703125 32.625 
Q 18.015625 36.28125 18.015625 38.625 
Q 18.015625 41.609375 15.828125 41.609375 
Q 11.859375 41.609375 9.296875 37.53125 
Q 6.734375 33.453125 5.515625 28.421875 
Q 5.328125 27.78125 4.6875 27.78125 
L 3.515625 27.78125 
Q 2.6875 27.78125 2.6875 28.71875 
L 2.6875 29 
Q 4.296875 34.96875 7.609375 39.578125 
Q 10.9375 44.1875 16.015625 44.1875 
Q 19.578125 44.1875 22.046875 41.84375 
Q 24.515625 39.5 24.515625 35.890625 
Q 24.515625 34.03125 23.6875 31.984375 
Q 21.921875 27.4375 20.890625 24.75 
Q 19.875 22.078125 18.9375 18.671875 
Q 18.015625 15.28125 18.015625 12.59375 
Q 18.015625 7.71875 21.0625 5.03125 
Q 24.125 2.34375 29.109375 1.703125 
L 45.90625 68.796875 
Q 46.09375 69.390625 46.6875 69.390625 
L 47.90625 69.390625 
Q 48.6875 69.390625 48.6875 68.40625 
L 31.984375 1.515625 
L 33.109375 1.515625 
Q 37.3125 1.515625 41.96875 4 
Q 46.625 6.5 50.453125 10.546875 
Q 54.296875 14.59375 56.546875 19.25 
Q 58.796875 23.921875 58.796875 27.984375 
Q 58.796875 31 57.8125 32.6875 
Q 56.84375 34.375 55.28125 36.203125 
Q 53.71875 38.03125 53.71875 39.109375 
Q 53.71875 41.0625 55.328125 42.671875 
Q 56.9375 44.28125 58.890625 44.28125 
Q 61.28125 44.28125 62.328125 42.078125 
Q 63.375 39.890625 63.375 37.109375 
Q 63.375 34.1875 62.78125 31.25 
Q 62.203125 28.328125 61.1875 24.3125 
Q 58.890625 15.1875 51.609375 7.90625 
Q 49.125 5.421875 46.109375 3.34375 
Q 43.109375 1.265625 39.765625 0.0625 
Q 36.421875 -1.125 33.015625 -1.125 
L 31.390625 -1.125 
L 26.703125 -19.921875 
Q 26.515625 -20.515625 25.875 -20.515625 
L 24.703125 -20.515625 
Q 24.3125 -20.515625 24.046875 -20.1875 
Q 23.78125 -19.875 23.78125 -19.484375 
z
" id="Cmmi10-c3"/>
      <path d="M 7.71875 1.703125 
Q 7.71875 2.296875 7.8125 2.59375 
L 15.28125 32.421875 
Q 16.015625 35.203125 16.015625 37.3125 
Q 16.015625 41.609375 13.09375 41.609375 
Q 9.96875 41.609375 8.453125 37.859375 
Q 6.9375 34.125 5.515625 28.421875 
Q 5.515625 28.125 5.21875 27.953125 
Q 4.9375 27.78125 4.6875 27.78125 
L 3.515625 27.78125 
Q 3.171875 27.78125 2.921875 28.140625 
Q 2.6875 28.515625 2.6875 28.8125 
Q 3.765625 33.15625 4.765625 36.171875 
Q 5.765625 39.203125 7.890625 41.6875 
Q 10.015625 44.1875 13.1875 44.1875 
Q 16.9375 44.1875 19.8125 41.8125 
Q 22.703125 39.453125 22.703125 35.796875 
Q 25.6875 39.703125 29.6875 41.9375 
Q 33.6875 44.1875 38.1875 44.1875 
Q 41.75 44.1875 44.328125 42.96875 
Q 46.921875 41.75 48.359375 39.28125 
Q 49.8125 36.8125 49.8125 33.40625 
Q 49.8125 29.296875 47.96875 23.484375 
Q 46.140625 17.671875 43.40625 10.5 
Q 42 7.234375 42 4.5 
Q 42 1.515625 44.28125 1.515625 
Q 48.1875 1.515625 50.796875 5.703125 
Q 53.421875 9.90625 54.5 14.703125 
Q 54.6875 15.28125 55.328125 15.28125 
L 56.5 15.28125 
Q 56.890625 15.28125 57.15625 15.03125 
Q 57.421875 14.796875 57.421875 14.40625 
Q 57.421875 14.3125 57.328125 14.109375 
Q 55.953125 8.453125 52.5625 3.65625 
Q 49.171875 -1.125 44.09375 -1.125 
Q 40.578125 -1.125 38.078125 1.296875 
Q 35.59375 3.71875 35.59375 7.171875 
Q 35.59375 9.03125 36.375 11.078125 
Q 37.640625 14.359375 39.28125 18.890625 
Q 40.921875 23.4375 41.96875 27.578125 
Q 43.015625 31.734375 43.015625 34.90625 
Q 43.015625 37.703125 41.859375 39.65625 
Q 40.71875 41.609375 37.984375 41.609375 
Q 34.328125 41.609375 31.25 39.984375 
Q 28.171875 38.375 25.875 35.71875 
Q 23.578125 33.0625 21.6875 29.390625 
L 14.890625 2.203125 
Q 14.546875 0.828125 13.34375 -0.140625 
Q 12.15625 -1.125 10.6875 -1.125 
Q 9.46875 -1.125 8.59375 -0.34375 
Q 7.71875 0.4375 7.71875 1.703125 
z
" id="Cmmi10-6e"/>
      <path d="M 31 -24.8125 
Q 25.4375 -20.40625 21.40625 -14.71875 
Q 17.390625 -9.03125 14.8125 -2.578125 
Q 12.25 3.859375 10.984375 10.890625 
Q 9.71875 17.921875 9.71875 25 
Q 9.71875 32.171875 10.984375 39.203125 
Q 12.25 46.234375 14.859375 52.734375 
Q 17.484375 59.234375 21.53125 64.890625 
Q 25.59375 70.5625 31 74.8125 
Q 31 75 31.5 75 
L 32.421875 75 
Q 32.71875 75 32.953125 74.734375 
Q 33.203125 74.46875 33.203125 74.125 
Q 33.203125 73.6875 33.015625 73.484375 
Q 28.125 68.703125 24.875 63.234375 
Q 21.625 57.765625 19.640625 51.578125 
Q 17.671875 45.40625 16.796875 38.78125 
Q 15.921875 32.171875 15.921875 25 
Q 15.921875 -6.78125 32.90625 -23.296875 
Q 33.203125 -23.578125 33.203125 -24.125 
Q 33.203125 -24.359375 32.9375 -24.671875 
Q 32.671875 -25 32.421875 -25 
L 31.5 -25 
Q 31 -25 31 -24.8125 
z
" id="Cmr10-28"/>
      <path d="M 6.5 -25 
Q 5.609375 -25 5.609375 -24.125 
Q 5.609375 -23.6875 5.8125 -23.484375 
Q 22.90625 -6.78125 22.90625 25 
Q 22.90625 56.78125 6 73.296875 
Q 5.609375 73.53125 5.609375 74.125 
Q 5.609375 74.46875 5.875 74.734375 
Q 6.15625 75 6.5 75 
L 7.421875 75 
Q 7.71875 75 7.90625 74.8125 
Q 15.09375 69.140625 19.875 61.03125 
Q 24.65625 52.9375 26.875 43.75 
Q 29.109375 34.578125 29.109375 25 
Q 29.109375 17.921875 27.90625 11.0625 
Q 26.703125 4.203125 24.09375 -2.453125 
Q 21.484375 -9.125 17.484375 -14.765625 
Q 13.484375 -20.40625 7.90625 -24.8125 
Q 7.71875 -25 7.421875 -25 
z
" id="Cmr10-29"/>
      <path d="M 4.984375 0 
L 4.984375 2.6875 
Q 4.984375 2.9375 5.171875 3.21875 
L 20.703125 20.40625 
Q 24.21875 24.21875 26.40625 26.796875 
Q 28.609375 29.390625 30.75 32.765625 
Q 32.90625 36.140625 34.15625 39.625 
Q 35.40625 43.109375 35.40625 47.015625 
Q 35.40625 51.125 33.890625 54.859375 
Q 32.375 58.59375 29.375 60.84375 
Q 26.375 63.09375 22.125 63.09375 
Q 17.78125 63.09375 14.3125 60.46875 
Q 10.84375 57.859375 9.421875 53.71875 
Q 9.8125 53.8125 10.5 53.8125 
Q 12.75 53.8125 14.328125 52.296875 
Q 15.921875 50.78125 15.921875 48.390625 
Q 15.921875 46.09375 14.328125 44.5 
Q 12.75 42.921875 10.5 42.921875 
Q 8.15625 42.921875 6.5625 44.546875 
Q 4.984375 46.1875 4.984375 48.390625 
Q 4.984375 52.15625 6.390625 55.4375 
Q 7.8125 58.734375 10.46875 61.296875 
Q 13.140625 63.875 16.484375 65.234375 
Q 19.828125 66.609375 23.578125 66.609375 
Q 29.296875 66.609375 34.21875 64.1875 
Q 39.15625 61.765625 42.03125 57.34375 
Q 44.921875 52.9375 44.921875 47.015625 
Q 44.921875 42.671875 43.015625 38.765625 
Q 41.109375 34.859375 38.125 31.65625 
Q 35.15625 28.46875 30.515625 24.40625 
Q 25.875 20.359375 24.421875 19 
L 13.09375 8.109375 
L 22.703125 8.109375 
Q 29.78125 8.109375 34.546875 8.21875 
Q 39.3125 8.34375 39.59375 8.59375 
Q 40.765625 9.859375 42 17.828125 
L 44.921875 17.828125 
L 42.09375 0 
z
" id="Cmr10-32"/>
     </defs>
     <g style="fill:#757575;" transform="translate(30.56225 154.08)rotate(-90)scale(0.16 -0.16)">
      <use transform="translate(0 0.109375)" xlink:href="#Cmsy10-6a"/>
      <use transform="translate(27.685547 0.109375)" xlink:href="#Cmmi10-c3"/>
      <use transform="translate(92.773438 -16.896875)scale(0.7)" xlink:href="#Cmmi10-6e"/>
      <use transform="translate(141.157617 0.109375)" xlink:href="#Cmr10-28"/>
      <use transform="translate(179.975977 0.109375)" xlink:href="#Cmmi10-78"/>
      <use transform="translate(237.056055 0.109375)" xlink:href="#Cmr10-29"/>
      <use transform="translate(275.874414 0.109375)" xlink:href="#Cmsy10-6a"/>
      <use transform="translate(308.024102 38.373438)scale(0.7)" xlink:href="#Cmr10-32"/>
     </g>
    </g>
   </g>
   <g id="line2d_8">
    <path clip-path="url(#p32e3c63314)" d="M -1 226.625455 
L 139.718273 226.551762 
L 147.625576 226.344946 
L 151.125643 226.138661 
L 154.369928 225.831857 
L 157.386918 225.399011 
L 160.201032 224.815215 
L 162.833325 224.05762 
L 165.302046 223.106608 
L 167.623093 221.946623 
L 169.810381 220.566635 
L 171.876138 218.960291 
L 173.831158 217.125779 
L 175.685004 215.065505 
L 177.446179 212.785611 
L 179.122268 210.295433 
L 180.720063 207.606911 
L 182.245659 204.734018 
L 183.704546 201.692213 
L 186.44155 195.168244 
L 188.965413 188.171162 
L 191.304542 180.835642 
L 193.48265 173.287646 
L 196.490712 161.810621 
L 199.235854 150.425624 
L 203.341767 132.290392 
L 210.290212 101.38882 
L 212.737345 91.437333 
L 215.049286 82.923484 
L 216.711426 77.476163 
L 218.323397 72.821932 
L 219.894305 68.948526 
L 221.43244 65.843462 
L 222.44346 64.194575 
L 223.445477 62.879158 
L 224.440564 61.894792 
L 225.430742 61.239608 
L 226.417989 60.912337 
L 227.404261 60.912337 
L 228.391508 61.239608 
L 229.381686 61.894792 
L 230.376773 62.879158 
L 231.37879 64.194575 
L 232.38981 65.843462 
L 233.411981 67.828729 
L 234.971079 71.444665 
L 236.568395 75.837215 
L 238.212741 81.018892 
L 239.913887 87.000836 
L 242.289634 96.233695 
L 245.475971 109.785581 
L 257.331538 161.810621 
L 260.3396 173.287646 
L 262.517708 180.835642 
L 264.856837 188.171162 
L 267.3807 195.168243 
L 270.117704 201.692213 
L 271.576591 204.734017 
L 273.102187 207.60691 
L 274.699982 210.295433 
L 276.376071 212.785611 
L 278.137246 215.065505 
L 279.991092 217.125779 
L 281.946112 218.96029 
L 284.011869 220.566635 
L 286.199157 221.946623 
L 288.520204 223.106608 
L 290.988925 224.05762 
L 293.621218 224.815215 
L 296.435332 225.399011 
L 299.452322 225.831857 
L 302.696607 226.138661 
L 309.98596 226.475277 
L 318.597761 226.592864 
L 349.172194 226.62541 
L 433 226.625455 
L 433 226.625455 
" style="fill:none;stroke:#1f77b4;stroke-linecap:square;stroke-width:1.5;"/>
   </g>
   <g id="line2d_9">
    <path clip-path="url(#p32e3c63314)" d="M -1 226.625455 
L 118.861464 226.581697 
L 124.871989 226.485065 
L 130.298499 226.249516 
L 135.224489 225.756778 
L 139.718273 224.847458 
L 143.83629 223.334322 
L 147.625576 221.024045 
L 151.125643 217.742057 
L 154.369928 213.354877 
L 157.386918 207.785909 
L 160.201032 201.022936 
L 162.833325 193.117593 
L 165.302046 184.178407 
L 167.623093 174.359629 
L 169.810381 163.848014 
L 171.876138 152.849392 
L 175.685004 130.23761 
L 185.101681 70.426901 
L 187.728226 56.387091 
L 188.965413 50.73805 
L 190.15649 46.017667 
L 191.304542 42.219115 
L 192.412398 39.323975 
L 193.48265 37.304346 
L 194.517683 36.124773 
L 195.519695 35.74397 
L 196.490712 36.116342 
L 197.432608 37.193296 
L 198.347119 38.924365 
L 199.235854 41.258152 
L 200.100307 44.14311 
L 200.941871 47.528178 
L 202.561431 55.599787 
L 204.103911 65.090957 
L 205.577525 75.649883 
L 207.674426 92.805866 
L 210.290212 116.752167 
L 216.711426 177.349706 
L 218.851171 194.611639 
L 220.410269 205.313887 
L 221.939208 213.935786 
L 222.945463 218.478481 
L 223.94376 222.031821 
L 224.936143 224.580415 
L 225.430742 225.474452 
L 225.924609 226.113687 
L 226.417989 226.497481 
L 226.911125 226.625455 
L 227.404261 226.497481 
L 227.897641 226.113686 
L 228.391508 225.474451 
L 228.886107 224.580414 
L 229.87849 222.03182 
L 230.876787 218.478479 
L 231.883042 213.935784 
L 232.899364 208.42454 
L 234.447545 198.402663 
L 236.031183 186.386793 
L 238.212741 167.564402 
L 241.084905 140.376308 
L 245.475971 98.737239 
L 247.531447 81.229184 
L 248.973397 70.257615 
L 250.480483 60.190687 
L 252.060407 51.36329 
L 252.880379 47.528175 
L 253.721943 44.143107 
L 254.586396 41.258149 
L 255.475131 38.924363 
L 256.389642 37.193294 
L 257.331538 36.11634 
L 258.302555 35.743969 
L 259.304567 36.124772 
L 260.3396 37.304346 
L 261.409852 39.323975 
L 262.517708 42.219116 
L 263.66576 46.017668 
L 264.856837 50.738051 
L 266.094024 56.387092 
L 267.3807 62.957776 
L 270.117704 78.752772 
L 273.102187 97.702592 
L 278.137246 130.237614 
L 281.946112 152.849396 
L 284.011869 163.848018 
L 286.199157 174.359633 
L 288.520204 184.178411 
L 290.988925 193.117596 
L 293.621218 201.022939 
L 296.435332 207.785911 
L 299.452322 213.354879 
L 302.696607 217.742058 
L 306.196674 221.024045 
L 309.98596 223.334322 
L 314.103977 224.847458 
L 318.597761 225.756778 
L 323.523751 226.249516 
L 328.950261 226.485065 
L 341.658459 226.614545 
L 433 226.625455 
L 433 226.625455 
" style="fill:none;stroke:#ff7f0e;stroke-linecap:square;stroke-width:1.5;"/>
   </g>
   <g id="line2d_10">
    <path clip-path="url(#p32e3c63314)" d="M -1 226.625455 
L 104.650056 226.591589 
L 112.163791 226.467737 
L 118.861464 226.067517 
L 124.871989 225.04154 
L 130.298499 222.860101 
L 135.224489 218.877449 
L 139.718273 212.462851 
L 143.83629 203.153673 
L 147.625576 190.777894 
L 151.125643 175.511258 
L 154.369928 157.861709 
L 157.386918 138.59622 
L 160.201032 118.635884 
L 167.623093 63.888241 
L 169.810381 49.918774 
L 171.876138 38.948416 
L 173.831158 31.210818 
L 175.685004 26.767703 
L 177.446179 25.534545 
L 179.122268 27.31045 
L 180.720063 31.808561 
L 182.245659 38.684519 
L 183.704546 47.561472 
L 185.101681 58.050957 
L 186.44155 69.769482 
L 188.965413 95.456003 
L 192.412398 135.014579 
L 195.519695 170.364475 
L 197.432608 189.707612 
L 199.235854 205.023155 
L 200.100307 211.108738 
L 200.941871 216.147655 
L 201.761843 220.157974 
L 202.561431 223.168558 
L 203.341767 225.217023 
L 204.103911 226.347922 
L 204.848853 226.611152 
L 205.577525 226.060564 
L 206.290803 224.75277 
L 206.989511 222.746126 
L 207.674426 220.099864 
L 208.346279 216.873376 
L 209.653534 208.914613 
L 210.916386 199.3281 
L 212.737345 182.834352 
L 215.049286 158.905045 
L 218.851171 118.657897 
L 220.410269 104.108712 
L 221.939208 92.010244 
L 222.945463 85.506861 
L 223.94376 80.35983 
L 224.936143 76.636387 
L 225.430742 75.324009 
L 225.924609 74.383697 
L 226.417989 73.818354 
L 226.911125 73.629714 
L 227.404261 73.818354 
L 227.897641 74.383698 
L 228.391508 75.324009 
L 228.886107 76.636387 
L 229.87849 80.35983 
L 230.876787 85.506861 
L 231.883042 92.010244 
L 232.899364 99.781482 
L 234.447545 113.565511 
L 236.568395 135.131569 
L 241.084905 182.834352 
L 242.905864 199.328101 
L 244.168716 208.914614 
L 245.475971 216.873377 
L 246.147824 220.099864 
L 246.832739 222.746126 
L 247.531447 224.752771 
L 248.244725 226.060564 
L 248.973397 226.611152 
L 249.718339 226.347922 
L 250.480483 225.217023 
L 251.260819 223.168558 
L 252.060407 220.157974 
L 252.880379 216.147655 
L 253.721943 211.108737 
L 254.586396 205.023155 
L 256.389642 189.707612 
L 258.302555 170.364474 
L 261.409852 135.014578 
L 264.856837 95.456003 
L 267.3807 69.769482 
L 268.720569 58.050957 
L 270.117704 47.561472 
L 271.576591 38.684519 
L 273.102187 31.808562 
L 274.699982 27.310451 
L 276.376071 25.534546 
L 278.137246 26.767704 
L 279.991092 31.210819 
L 281.946112 38.948417 
L 284.011869 49.918776 
L 286.199157 63.888242 
L 288.520204 80.434581 
L 293.621218 118.635886 
L 296.435332 138.596221 
L 299.452322 157.86171 
L 302.696607 175.511259 
L 306.196674 190.777895 
L 309.98596 203.153673 
L 314.103977 212.462852 
L 318.597761 218.877449 
L 323.523751 222.860101 
L 328.950261 225.04154 
L 334.960786 226.067517 
L 341.658459 226.467737 
L 349.172194 226.591589 
L 391.469786 226.625454 
L 433 226.625455 
L 433 226.625455 
" style="fill:none;stroke:#2ca02c;stroke-linecap:square;stroke-width:1.5;"/>
   </g>
   <g id="patch_3">
    <path d="M 38.56225 236.68 
L 38.56225 15.48 
" style="fill:none;stroke:#757575;stroke-linecap:square;stroke-linejoin:miter;stroke-width:0.8;"/>
   </g>
   <g id="patch_4">
    <path d="M 38.56225 236.68 
L 415.26 236.68 
" style="fill:none;stroke:#757575;stroke-linecap:square;stroke-linejoin:miter;stroke-width:0.8;"/>
   </g>
  </g>
 </g>
 <defs>
  <clipPath id="p32e3c63314">
   <rect height="221.2" width="376.69775" x="38.56225" y="15.48"/>
  </clipPath>
 </defs>
</svg>
