<svg xmlns="http://www.w3.org/2000/svg" xmlns:xlink="http://www.w3.org/1999/xlink" version="1.1" viewBox="0 0 576 216" viewport="0 0 5120px 1920px">
 <defs>
  <style type="text/css">
*{stroke-linecap:butt;stroke-linejoin:round;}
  </style>
 </defs>
 <g id="figure_1">
  <g id="patch_1">
   <path d="M 0 216  L 576 216  L 576 0  L 0 0  z " style="fill:#ffffff;"/>
  </g>
  <g id="axes_1">
   <g id="patch_2">
    <path d="M 66.68 174.04  L 282.135 174.04  L 282.135 13.32  L 66.68 13.32  z " style="fill:#ffffff;"/>
   </g>
   <g id="matplotlib.axis_1">
    <g id="xtick_1">
     <g id="line2d_1">
      <defs>
       <path d="M 0 0  L 0 3.5  " id="m669ef0d77d" style="stroke:#000000;stroke-width:0.8;"/>
      </defs>
      <g>
       <use style="stroke:#000000;stroke-width:0.8;" x="117.708816" xlink:href="#m669ef0d77d" y="174.04"/>
      </g>
     </g>
     <g id="text_1">
      <!-- 5 -->
      <defs>
       <path d="M 10.796875 72.90625  L 49.515625 72.90625  L 49.515625 64.59375  L 19.828125 64.59375  L 19.828125 46.734375  Q 21.96875 47.46875 24.109375 47.828125  Q 26.265625 48.1875 28.421875 48.1875  Q 40.625 48.1875 47.75 41.5  Q 54.890625 34.8125 54.890625 23.390625  Q 54.890625 11.625 47.5625 5.09375  Q 40.234375 -1.421875 26.90625 -1.421875  Q 22.3125 -1.421875 17.546875 -0.640625  Q 12.796875 0.140625 7.71875 1.703125  L 7.71875 11.625  Q 12.109375 9.234375 16.796875 8.0625  Q 21.484375 6.890625 26.703125 6.890625  Q 35.15625 6.890625 40.078125 11.328125  Q 45.015625 15.765625 45.015625 23.390625  Q 45.015625 31 40.078125 35.4375  Q 35.15625 39.890625 26.703125 39.890625  Q 22.75 39.890625 18.8125 39.015625  Q 14.890625 38.140625 10.796875 36.28125  z " id="DejaVuSans-35"/>
      </defs>
      <g transform="translate(114.527566 188.638438)scale(0.1 -0.1)">
       <use xlink:href="#DejaVuSans-35"/>
      </g>
     </g>
    </g>
    <g id="xtick_2">
     <g id="line2d_2">
      <g>
       <use style="stroke:#000000;stroke-width:0.8;" x="169.253074" xlink:href="#m669ef0d77d" y="174.04"/>
      </g>
     </g>
     <g id="text_2">
      <!-- 10 -->
      <defs>
       <path d="M 12.40625 8.296875  L 28.515625 8.296875  L 28.515625 63.921875  L 10.984375 60.40625  L 10.984375 69.390625  L 28.421875 72.90625  L 38.28125 72.90625  L 38.28125 8.296875  L 54.390625 8.296875  L 54.390625 0  L 12.40625 0  z " id="DejaVuSans-31"/>
       <path d="M 31.78125 66.40625  Q 24.171875 66.40625 20.328125 58.90625  Q 16.5 51.421875 16.5 36.375  Q 16.5 21.390625 20.328125 13.890625  Q 24.171875 6.390625 31.78125 6.390625  Q 39.453125 6.390625 43.28125 13.890625  Q 47.125 21.390625 47.125 36.375  Q 47.125 51.421875 43.28125 58.90625  Q 39.453125 66.40625 31.78125 66.40625  z M 31.78125 74.21875  Q 44.046875 74.21875 50.515625 64.515625  Q 56.984375 54.828125 56.984375 36.375  Q 56.984375 17.96875 50.515625 8.265625  Q 44.046875 -1.421875 31.78125 -1.421875  Q 19.53125 -1.421875 13.0625 8.265625  Q 6.59375 17.96875 6.59375 36.375  Q 6.59375 54.828125 13.0625 64.515625  Q 19.53125 74.21875 31.78125 74.21875  z " id="DejaVuSans-30"/>
      </defs>
      <g transform="translate(162.890574 188.638438)scale(0.1 -0.1)">
       <use xlink:href="#DejaVuSans-31"/>
       <use x="63.623047" xlink:href="#DejaVuSans-30"/>
      </g>
     </g>
    </g>
    <g id="xtick_3">
     <g id="line2d_3">
      <g>
       <use style="stroke:#000000;stroke-width:0.8;" x="220.797333" xlink:href="#m669ef0d77d" y="174.04"/>
      </g>
     </g>
     <g id="text_3">
      <!-- 15 -->
      <g transform="translate(214.434833 188.638438)scale(0.1 -0.1)">
       <use xlink:href="#DejaVuSans-31"/>
       <use x="63.623047" xlink:href="#DejaVuSans-35"/>
      </g>
     </g>
    </g>
    <g id="xtick_4">
     <g id="line2d_4">
      <g>
       <use style="stroke:#000000;stroke-width:0.8;" x="272.341591" xlink:href="#m669ef0d77d" y="174.04"/>
      </g>
     </g>
     <g id="text_4">
      <!-- 20 -->
      <defs>
       <path d="M 19.1875 8.296875  L 53.609375 8.296875  L 53.609375 0  L 7.328125 0  L 7.328125 8.296875  Q 12.9375 14.109375 22.625 23.890625  Q 32.328125 33.6875 34.8125 36.53125  Q 39.546875 41.84375 41.421875 45.53125  Q 43.3125 49.21875 43.3125 52.78125  Q 43.3125 58.59375 39.234375 62.25  Q 35.15625 65.921875 28.609375 65.921875  Q 23.96875 65.921875 18.8125 64.3125  Q 13.671875 62.703125 7.8125 59.421875  L 7.8125 69.390625  Q 13.765625 71.78125 18.9375 73  Q 24.125 74.21875 28.421875 74.21875  Q 39.75 74.21875 46.484375 68.546875  Q 53.21875 62.890625 53.21875 53.421875  Q 53.21875 48.921875 51.53125 44.890625  Q 49.859375 40.875 45.40625 35.40625  Q 44.1875 33.984375 37.640625 27.21875  Q 31.109375 20.453125 19.1875 8.296875  z " id="DejaVuSans-32"/>
      </defs>
      <g transform="translate(265.979091 188.638438)scale(0.1 -0.1)">
       <use xlink:href="#DejaVuSans-32"/>
       <use x="63.623047" xlink:href="#DejaVuSans-30"/>
      </g>
     </g>
    </g>
    <g id="text_5">
     <!-- $N$ -->
     <defs>
      <path d="M 4.6875 0  Q 3.71875 0 3.71875 1.3125  Q 3.765625 1.5625 3.90625 2.171875  Q 4.046875 2.78125 4.3125 3.140625  Q 4.59375 3.515625 4.984375 3.515625  Q 14.546875 3.515625 16.109375 9.625  L 29.6875 64.3125  Q 26.90625 64.796875 20.90625 64.796875  Q 19.921875 64.796875 19.921875 66.109375  Q 19.96875 66.359375 20.109375 66.96875  Q 20.265625 67.578125 20.53125 67.9375  Q 20.796875 68.3125 21.1875 68.3125  L 38.484375 68.3125  Q 39.203125 68.3125 39.40625 67.671875  L 61.625 14.796875  L 72.703125 59.078125  Q 72.90625 60.15625 72.90625 60.59375  Q 72.90625 64.796875 65.1875 64.796875  Q 64.203125 64.796875 64.203125 66.109375  Q 64.546875 67.390625 64.734375 67.84375  Q 64.9375 68.3125 65.921875 68.3125  L 87.3125 68.3125  Q 88.28125 68.3125 88.28125 67  Q 88.234375 66.75 88.078125 66.140625  Q 87.9375 65.53125 87.671875 65.15625  Q 87.40625 64.796875 87.015625 64.796875  Q 77.4375 64.796875 75.875 58.6875  L 61.53125 0.875  Q 61.1875 0 60.5 0  L 59.28125 0  Q 58.59375 0 58.40625 0.6875  L 32.90625 61.1875  L 32.71875 61.8125  Q 32.515625 62.015625 32.515625 62.109375  L 19.28125 9.1875  Q 19.1875 8.9375 19.140625 8.5625  Q 19.09375 8.203125 19 7.71875  Q 19 5.125 21.234375 4.3125  Q 23.484375 3.515625 26.8125 3.515625  Q 27.78125 3.515625 27.78125 2.203125  Q 27.4375 0.828125 27.1875 0.40625  Q 26.953125 0 26.125 0  z " id="Cmmi10-4e"/>
     </defs>
     <g transform="translate(170.3575 202.316563)scale(0.1 -0.1)">
      <use transform="translate(0 0.6875)" xlink:href="#Cmmi10-4e"/>
     </g>
    </g>
   </g>
   <g id="matplotlib.axis_2">
    <g id="ytick_1">
     <g id="line2d_5">
      <defs>
       <path d="M 0 0  L -3.5 0  " id="mbc107dde9a" style="stroke:#000000;stroke-width:0.8;"/>
      </defs>
      <g>
       <use style="stroke:#000000;stroke-width:0.8;" x="66.68" xlink:href="#mbc107dde9a" y="167.527202"/>
      </g>
     </g>
     <g id="text_6">
      <!-- 0 -->
      <g transform="translate(53.3175 171.326421)scale(0.1 -0.1)">
       <use xlink:href="#DejaVuSans-30"/>
      </g>
     </g>
    </g>
    <g id="ytick_2">
     <g id="line2d_6">
      <g>
       <use style="stroke:#000000;stroke-width:0.8;" x="66.68" xlink:href="#mbc107dde9a" y="132.027598"/>
      </g>
     </g>
     <g id="text_7">
      <!-- 1000 -->
      <g transform="translate(34.23 135.826816)scale(0.1 -0.1)">
       <use xlink:href="#DejaVuSans-31"/>
       <use x="63.623047" xlink:href="#DejaVuSans-30"/>
       <use x="127.246094" xlink:href="#DejaVuSans-30"/>
       <use x="190.869141" xlink:href="#DejaVuSans-30"/>
      </g>
     </g>
    </g>
    <g id="ytick_3">
     <g id="line2d_7">
      <g>
       <use style="stroke:#000000;stroke-width:0.8;" x="66.68" xlink:href="#mbc107dde9a" y="96.527993"/>
      </g>
     </g>
     <g id="text_8">
      <!-- 2000 -->
      <g transform="translate(34.23 100.327211)scale(0.1 -0.1)">
       <use xlink:href="#DejaVuSans-32"/>
       <use x="63.623047" xlink:href="#DejaVuSans-30"/>
       <use x="127.246094" xlink:href="#DejaVuSans-30"/>
       <use x="190.869141" xlink:href="#DejaVuSans-30"/>
      </g>
     </g>
    </g>
    <g id="ytick_4">
     <g id="line2d_8">
      <g>
       <use style="stroke:#000000;stroke-width:0.8;" x="66.68" xlink:href="#mbc107dde9a" y="61.028388"/>
      </g>
     </g>
     <g id="text_9">
      <!-- 3000 -->
      <defs>
       <path d="M 40.578125 39.3125  Q 47.65625 37.796875 51.625 33  Q 55.609375 28.21875 55.609375 21.1875  Q 55.609375 10.40625 48.1875 4.484375  Q 40.765625 -1.421875 27.09375 -1.421875  Q 22.515625 -1.421875 17.65625 -0.515625  Q 12.796875 0.390625 7.625 2.203125  L 7.625 11.71875  Q 11.71875 9.328125 16.59375 8.109375  Q 21.484375 6.890625 26.8125 6.890625  Q 36.078125 6.890625 40.9375 10.546875  Q 45.796875 14.203125 45.796875 21.1875  Q 45.796875 27.640625 41.28125 31.265625  Q 36.765625 34.90625 28.71875 34.90625  L 20.21875 34.90625  L 20.21875 43.015625  L 29.109375 43.015625  Q 36.375 43.015625 40.234375 45.921875  Q 44.09375 48.828125 44.09375 54.296875  Q 44.09375 59.90625 40.109375 62.90625  Q 36.140625 65.921875 28.71875 65.921875  Q 24.65625 65.921875 20.015625 65.03125  Q 15.375 64.15625 9.8125 62.3125  L 9.8125 71.09375  Q 15.4375 72.65625 20.34375 73.4375  Q 25.25 74.21875 29.59375 74.21875  Q 40.828125 74.21875 47.359375 69.109375  Q 53.90625 64.015625 53.90625 55.328125  Q 53.90625 49.265625 50.4375 45.09375  Q 46.96875 40.921875 40.578125 39.3125  z " id="DejaVuSans-33"/>
      </defs>
      <g transform="translate(34.23 64.827607)scale(0.1 -0.1)">
       <use xlink:href="#DejaVuSans-33"/>
       <use x="63.623047" xlink:href="#DejaVuSans-30"/>
       <use x="127.246094" xlink:href="#DejaVuSans-30"/>
       <use x="190.869141" xlink:href="#DejaVuSans-30"/>
      </g>
     </g>
    </g>
    <g id="ytick_5">
     <g id="line2d_9">
      <g>
       <use style="stroke:#000000;stroke-width:0.8;" x="66.68" xlink:href="#mbc107dde9a" y="25.528783"/>
      </g>
     </g>
     <g id="text_10">
      <!-- 4000 -->
      <defs>
       <path d="M 37.796875 64.3125  L 12.890625 25.390625  L 37.796875 25.390625  z M 35.203125 72.90625  L 47.609375 72.90625  L 47.609375 25.390625  L 58.015625 25.390625  L 58.015625 17.1875  L 47.609375 17.1875  L 47.609375 0  L 37.796875 0  L 37.796875 17.1875  L 4.890625 17.1875  L 4.890625 26.703125  z " id="DejaVuSans-34"/>
      </defs>
      <g transform="translate(34.23 29.328002)scale(0.1 -0.1)">
       <use xlink:href="#DejaVuSans-34"/>
       <use x="63.623047" xlink:href="#DejaVuSans-30"/>
       <use x="127.246094" xlink:href="#DejaVuSans-30"/>
       <use x="190.869141" xlink:href="#DejaVuSans-30"/>
      </g>
     </g>
    </g>
    <g id="text_11">
     <!-- $\omega\sqrt{\frac{\lambda}{EI}}$ -->
     <defs>
      <path d="M 12.109375 -1.125  Q 6.453125 -1.125 3.9375 3.015625  Q 1.421875 7.171875 1.421875 13.1875  Q 1.421875 17.140625 2.125 20.921875  Q 2.828125 24.703125 4.265625 28.578125  Q 5.71875 32.46875 7.5625 35.859375  Q 9.421875 39.265625 11.71875 42.484375  Q 12.15625 43.109375 12.890625 43.109375  Q 13.53125 43.109375 13.921875 42.71875  Q 14.3125 42.328125 14.3125 41.796875  Q 14.3125 41.265625 14.015625 40.828125  Q 4.890625 28.265625 4.890625 17.671875  Q 4.890625 13.09375 7 9.796875  Q 9.125 6.5 13.484375 6.5  Q 17.234375 6.5 20.4375 8.6875  Q 23.640625 10.890625 25.984375 14.3125  Q 25.984375 16.0625 26.59375 19.765625  Q 27.203125 23.484375 28.484375 26.390625  Q 29.78125 29.296875 31.59375 29.296875  Q 33.890625 29.296875 33.890625 26.609375  Q 33.890625 25.046875 33.21875 22.671875  Q 32.5625 20.3125 31.75 18.265625  Q 30.953125 16.21875 29.78125 13.625  Q 30.953125 6.5 36.921875 6.5  Q 40.375 6.5 43.859375 8.5  Q 47.359375 10.5 50.046875 13.75  Q 52.734375 17 54.265625 20.75  Q 55.8125 24.515625 55.8125 27.875  Q 55.8125 30.90625 54.859375 32.59375  Q 53.90625 34.28125 52.34375 36.125  Q 50.78125 37.984375 50.78125 39.109375  Q 50.78125 41.0625 52.4375 42.671875  Q 54.109375 44.28125 56 44.28125  Q 58.453125 44.28125 59.46875 42.0625  Q 60.5 39.84375 60.5 37.015625  Q 60.5 32.421875 58.671875 25.4375  Q 56.84375 18.453125 54.5 13.8125  Q 51.265625 7.515625 46.40625 3.1875  Q 41.546875 -1.125 35.5 -1.125  Q 31.640625 -1.125 29.265625 1.1875  Q 26.90625 3.515625 26.21875 7.515625  Q 23.4375 3.5625 19.875 1.21875  Q 16.3125 -1.125 12.109375 -1.125  z " id="Cmmi10-21"/>
      <path d="M 42.390625 -175.984375  L 19.671875 -96.6875  L 12.796875 -104.6875  L 10.984375 -102.78125  L 25.296875 -85.984375  L 46.578125 -160.40625  L 98.1875 2.78125  Q 98.53125 4 100 4  Q 100.828125 4 101.40625 3.40625  Q 102 2.828125 102 2  L 102 1.609375  L 46.296875 -174.8125  Q 45.703125 -175.984375 44.578125 -175.984375  z " id="Cmex10-71"/>
      <path d="M 5.078125 1.703125  Q 5.078125 3.171875 6.390625 4.5  L 34.515625 32.078125  L 24.609375 59.90625  Q 23.4375 63.09375 22.140625 64.9375  Q 20.84375 66.796875 18.40625 66.796875  Q 17.28125 66.796875 17.28125 68.109375  Q 17.390625 68.703125 17.78125 69.046875  Q 18.171875 69.390625 18.796875 69.390625  Q 29.296875 69.390625 31.5 63.1875  L 51.8125 6.5  Q 53.125 2.25 54.5 0.78125  Q 54.984375 0.046875 54.984375 -0.203125  Q 54.984375 -1.125 54.203125 -1.125  L 48.78125 -1.125  Q 46.296875 -0.390625 44.828125 3.21875  L 35.6875 28.8125  L 11.53125 0.390625  Q 9.71875 -1.3125 8.296875 -1.3125  Q 7.03125 -1.3125 6.046875 -0.4375  Q 5.078125 0.4375 5.078125 1.703125  z " id="Cmmi10-b8"/>
      <path d="M 4.6875 0  Q 3.71875 0 3.71875 1.3125  Q 3.765625 1.5625 3.90625 2.171875  Q 4.046875 2.78125 4.3125 3.140625  Q 4.59375 3.515625 4.984375 3.515625  Q 11.078125 3.515625 13.484375 4.203125  Q 14.796875 4.640625 15.375 6.890625  L 29.109375 61.8125  Q 29.296875 62.796875 29.296875 63.1875  Q 29.296875 64.265625 28.078125 64.40625  Q 26.21875 64.796875 20.90625 64.796875  Q 19.921875 64.796875 19.921875 66.109375  Q 19.96875 66.359375 20.109375 66.96875  Q 20.265625 67.578125 20.53125 67.9375  Q 20.796875 68.3125 21.1875 68.3125  L 75.390625 68.3125  Q 76.421875 68.3125 76.421875 67  L 74.03125 46.296875  Q 74.03125 46.046875 73.65625 45.71875  Q 73.296875 45.40625 73 45.40625  L 72.125 45.40625  Q 71.09375 45.40625 71.09375 46.6875  Q 71.6875 51.5625 71.6875 53.90625  Q 71.6875 57.90625 70.3125 60.125  Q 68.953125 62.359375 66.671875 63.328125  Q 64.40625 64.3125 61.640625 64.546875  Q 58.890625 64.796875 54.390625 64.796875  L 43.015625 64.796875  Q 40.28125 64.796875 39.40625 64.328125  Q 38.53125 63.875 37.796875 61.375  L 31.78125 37.203125  L 39.59375 37.203125  Q 44.671875 37.203125 47.265625 37.90625  Q 49.859375 38.625 51.359375 40.859375  Q 52.875 43.109375 54.109375 48  Q 54.203125 48.34375 54.46875 48.609375  Q 54.734375 48.875 55.078125 48.875  L 56 48.875  Q 56.984375 48.875 56.984375 47.609375  L 50.78125 22.90625  Q 50.59375 22.015625 49.8125 22.015625  L 48.875 22.015625  Q 47.90625 22.015625 47.90625 23.296875  Q 48.875 27.296875 48.875 29.203125  Q 48.875 32.125 46.234375 32.90625  Q 43.609375 33.6875 39.203125 33.6875  L 30.90625 33.6875  L 24.125 6.5  Q 23.6875 5.28125 23.6875 4.296875  Q 23.6875 3.515625 27.09375 3.515625  L 39.203125 3.515625  Q 46.4375 3.515625 50.921875 4.640625  Q 55.421875 5.765625 58.375 8.21875  Q 61.328125 10.6875 63.46875 14.5  Q 65.625 18.3125 68.703125 25.59375  Q 68.890625 26.21875 69.578125 26.21875  L 70.515625 26.21875  Q 70.90625 26.21875 71.1875 25.875  Q 71.484375 25.53125 71.484375 25.09375  Q 71.484375 24.90625 71.390625 24.703125  L 61.078125 0.59375  Q 60.890625 0 60.296875 0  z " id="Cmmi10-45"/>
      <path d="M 4.203125 0  Q 3.21875 0 3.21875 1.3125  Q 3.609375 3.515625 4.5 3.515625  Q 10.40625 3.515625 12.5 3.90625  Q 14.796875 4.4375 15.375 6.890625  L 29.109375 61.8125  Q 29.296875 62.796875 29.296875 63.09375  Q 29.296875 63.71875 28.96875 63.984375  Q 28.65625 64.265625 27.984375 64.40625  Q 25.984375 64.796875 20.40625 64.796875  Q 19.390625 64.796875 19.390625 66.109375  Q 19.734375 67.390625 19.921875 67.84375  Q 20.125 68.3125 21.09375 68.3125  L 49.03125 68.3125  Q 50 68.3125 50 67  Q 49.953125 66.75 49.796875 66.15625  Q 49.65625 65.578125 49.40625 65.1875  Q 49.171875 64.796875 48.6875 64.796875  Q 42.828125 64.796875 40.578125 64.40625  Q 38.375 63.875 37.796875 61.375  L 24.125 6.5  Q 23.875 5.28125 23.875 5.171875  Q 23.875 4.9375 23.953125 4.71875  Q 24.03125 4.5 24.25 4.328125  Q 24.46875 4.15625 24.6875 4.078125  Q 24.90625 4 25.203125 3.90625  Q 27.09375 3.515625 32.8125 3.515625  Q 33.796875 3.515625 33.796875 2.203125  Q 33.453125 0.78125 33.25 0.390625  Q 33.0625 0 32.078125 0  z " id="Cmmi10-49"/>
     </defs>
     <g transform="translate(26.03 107.23)rotate(-90)scale(0.1 -0.1)">
      <use transform="translate(0 0.771875)" xlink:href="#Cmmi10-21"/>
      <use transform="translate(62.207031 115.4375)scale(0.887916)" xlink:href="#Cmex10-71"/>
      <use transform="translate(184.488281 39.176563)scale(0.7)" xlink:href="#Cmmi10-b8"/>
      <use transform="translate(163.488281 -40.810937)scale(0.7)" xlink:href="#Cmmi10-45"/>
      <use transform="translate(215.133789 -40.810937)scale(0.7)" xlink:href="#Cmmi10-49"/>
      <path d="M 150.988281 112.5  L 150.988281 118.75  L 270.861328 118.75  L 270.861328 112.5  L 150.988281 112.5  z "/>
      <path d="M 163.488281 13.257812  L 163.488281 19.507812  L 245.861328 19.507812  L 245.861328 13.257812  L 163.488281 13.257812  z "/>
     </g>
    </g>
   </g>
   <g id="line2d_10">
    <defs>
     <path d="M 0 3  C 0.795609 3 1.55874 2.683901 2.12132 2.12132  C 2.683901 1.55874 3 0.795609 3 0  C 3 -0.795609 2.683901 -1.55874 2.12132 -2.12132  C 1.55874 -2.683901 0.795609 -3 0 -3  C -0.795609 -3 -1.55874 -2.683901 -2.12132 -2.12132  C -2.683901 -1.55874 -3 -0.795609 -3 0  C -3 0.795609 -2.683901 1.55874 -2.12132 2.12132  C -1.55874 2.683901 -0.795609 3 0 3  z " id="m48f0cb0281" style="stroke:#1f77b4;"/>
    </defs>
    <g clip-path="url(#pcba85e1e9f)">
     <use style="fill:#1f77b4;stroke:#1f77b4;" x="76.473409" xlink:href="#m48f0cb0281" y="166.734545"/>
     <use style="fill:#1f77b4;stroke:#1f77b4;" x="86.782261" xlink:href="#m48f0cb0281" y="165.342216"/>
     <use style="fill:#1f77b4;stroke:#1f77b4;" x="97.091112" xlink:href="#m48f0cb0281" y="163.243771"/>
     <use style="fill:#1f77b4;stroke:#1f77b4;" x="107.399964" xlink:href="#m48f0cb0281" y="160.446507"/>
     <use style="fill:#1f77b4;stroke:#1f77b4;" x="117.708816" xlink:href="#m48f0cb0281" y="156.949936"/>
     <use style="fill:#1f77b4;stroke:#1f77b4;" x="128.017667" xlink:href="#m48f0cb0281" y="152.754118"/>
     <use style="fill:#1f77b4;stroke:#1f77b4;" x="138.326519" xlink:href="#m48f0cb0281" y="147.85909"/>
     <use style="fill:#1f77b4;stroke:#1f77b4;" x="148.635371" xlink:href="#m48f0cb0281" y="142.264896"/>
     <use style="fill:#1f77b4;stroke:#1f77b4;" x="158.944222" xlink:href="#m48f0cb0281" y="135.97159"/>
     <use style="fill:#1f77b4;stroke:#1f77b4;" x="169.253074" xlink:href="#m48f0cb0281" y="128.979229"/>
     <use style="fill:#1f77b4;stroke:#1f77b4;" x="179.561926" xlink:href="#m48f0cb0281" y="121.287879"/>
     <use style="fill:#1f77b4;stroke:#1f77b4;" x="189.870778" xlink:href="#m48f0cb0281" y="112.897612"/>
     <use style="fill:#1f77b4;stroke:#1f77b4;" x="200.179629" xlink:href="#m48f0cb0281" y="103.808508"/>
     <use style="fill:#1f77b4;stroke:#1f77b4;" x="210.488481" xlink:href="#m48f0cb0281" y="94.020654"/>
     <use style="fill:#1f77b4;stroke:#1f77b4;" x="220.797333" xlink:href="#m48f0cb0281" y="83.534141"/>
     <use style="fill:#1f77b4;stroke:#1f77b4;" x="231.106184" xlink:href="#m48f0cb0281" y="72.349071"/>
     <use style="fill:#1f77b4;stroke:#1f77b4;" x="241.415036" xlink:href="#m48f0cb0281" y="60.46555"/>
     <use style="fill:#1f77b4;stroke:#1f77b4;" x="251.723888" xlink:href="#m48f0cb0281" y="47.883692"/>
     <use style="fill:#1f77b4;stroke:#1f77b4;" x="262.032739" xlink:href="#m48f0cb0281" y="34.603618"/>
     <use style="fill:#1f77b4;stroke:#1f77b4;" x="272.341591" xlink:href="#m48f0cb0281" y="20.625455"/>
    </g>
   </g>
   <g id="patch_3">
    <path d="M 66.68 174.04  L 66.68 13.32  " style="fill:none;stroke:#000000;stroke-linecap:square;stroke-linejoin:miter;stroke-width:0.8;"/>
   </g>
   <g id="patch_4">
    <path d="M 282.135 174.04  L 282.135 13.32  " style="fill:none;stroke:#000000;stroke-linecap:square;stroke-linejoin:miter;stroke-width:0.8;"/>
   </g>
   <g id="patch_5">
    <path d="M 66.68 174.04  L 282.135 174.04  " style="fill:none;stroke:#000000;stroke-linecap:square;stroke-linejoin:miter;stroke-width:0.8;"/>
   </g>
   <g id="patch_6">
    <path d="M 66.68 13.32  L 282.135 13.32  " style="fill:none;stroke:#000000;stroke-linecap:square;stroke-linejoin:miter;stroke-width:0.8;"/>
   </g>
  </g>
  <g id="axes_2">
   <g id="patch_7">
    <path d="M 347.225 174.04  L 562.68 174.04  L 562.68 13.32  L 347.225 13.32  z " style="fill:#ffffff;"/>
   </g>
   <g id="matplotlib.axis_3">
    <g id="xtick_5">
     <g id="line2d_11">
      <g>
       <use style="stroke:#000000;stroke-width:0.8;" x="357.018409" xlink:href="#m669ef0d77d" y="174.04"/>
      </g>
     </g>
     <g id="text_12">
      <!-- 0.0 -->
      <defs>
       <path d="M 10.6875 12.40625  L 21 12.40625  L 21 0  L 10.6875 0  z " id="DejaVuSans-2e"/>
      </defs>
      <g transform="translate(349.066847 188.638438)scale(0.1 -0.1)">
       <use xlink:href="#DejaVuSans-30"/>
       <use x="63.623047" xlink:href="#DejaVuSans-2e"/>
       <use x="95.410156" xlink:href="#DejaVuSans-30"/>
      </g>
     </g>
    </g>
    <g id="xtick_6">
     <g id="line2d_12">
      <g>
       <use style="stroke:#000000;stroke-width:0.8;" x="396.192045" xlink:href="#m669ef0d77d" y="174.04"/>
      </g>
     </g>
     <g id="text_13">
      <!-- 0.2 -->
      <g transform="translate(388.240483 188.638438)scale(0.1 -0.1)">
       <use xlink:href="#DejaVuSans-30"/>
       <use x="63.623047" xlink:href="#DejaVuSans-2e"/>
       <use x="95.410156" xlink:href="#DejaVuSans-32"/>
      </g>
     </g>
    </g>
    <g id="xtick_7">
     <g id="line2d_13">
      <g>
       <use style="stroke:#000000;stroke-width:0.8;" x="435.365682" xlink:href="#m669ef0d77d" y="174.04"/>
      </g>
     </g>
     <g id="text_14">
      <!-- 0.4 -->
      <g transform="translate(427.414119 188.638438)scale(0.1 -0.1)">
       <use xlink:href="#DejaVuSans-30"/>
       <use x="63.623047" xlink:href="#DejaVuSans-2e"/>
       <use x="95.410156" xlink:href="#DejaVuSans-34"/>
      </g>
     </g>
    </g>
    <g id="xtick_8">
     <g id="line2d_14">
      <g>
       <use style="stroke:#000000;stroke-width:0.8;" x="474.539318" xlink:href="#m669ef0d77d" y="174.04"/>
      </g>
     </g>
     <g id="text_15">
      <!-- 0.6 -->
      <defs>
       <path d="M 33.015625 40.375  Q 26.375 40.375 22.484375 35.828125  Q 18.609375 31.296875 18.609375 23.390625  Q 18.609375 15.53125 22.484375 10.953125  Q 26.375 6.390625 33.015625 6.390625  Q 39.65625 6.390625 43.53125 10.953125  Q 47.40625 15.53125 47.40625 23.390625  Q 47.40625 31.296875 43.53125 35.828125  Q 39.65625 40.375 33.015625 40.375  z M 52.59375 71.296875  L 52.59375 62.3125  Q 48.875 64.0625 45.09375 64.984375  Q 41.3125 65.921875 37.59375 65.921875  Q 27.828125 65.921875 22.671875 59.328125  Q 17.53125 52.734375 16.796875 39.40625  Q 19.671875 43.65625 24.015625 45.921875  Q 28.375 48.1875 33.59375 48.1875  Q 44.578125 48.1875 50.953125 41.515625  Q 57.328125 34.859375 57.328125 23.390625  Q 57.328125 12.15625 50.6875 5.359375  Q 44.046875 -1.421875 33.015625 -1.421875  Q 20.359375 -1.421875 13.671875 8.265625  Q 6.984375 17.96875 6.984375 36.375  Q 6.984375 53.65625 15.1875 63.9375  Q 23.390625 74.21875 37.203125 74.21875  Q 40.921875 74.21875 44.703125 73.484375  Q 48.484375 72.75 52.59375 71.296875  z " id="DejaVuSans-36"/>
      </defs>
      <g transform="translate(466.587756 188.638438)scale(0.1 -0.1)">
       <use xlink:href="#DejaVuSans-30"/>
       <use x="63.623047" xlink:href="#DejaVuSans-2e"/>
       <use x="95.410156" xlink:href="#DejaVuSans-36"/>
      </g>
     </g>
    </g>
    <g id="xtick_9">
     <g id="line2d_15">
      <g>
       <use style="stroke:#000000;stroke-width:0.8;" x="513.712955" xlink:href="#m669ef0d77d" y="174.04"/>
      </g>
     </g>
     <g id="text_16">
      <!-- 0.8 -->
      <defs>
       <path d="M 31.78125 34.625  Q 24.75 34.625 20.71875 30.859375  Q 16.703125 27.09375 16.703125 20.515625  Q 16.703125 13.921875 20.71875 10.15625  Q 24.75 6.390625 31.78125 6.390625  Q 38.8125 6.390625 42.859375 10.171875  Q 46.921875 13.96875 46.921875 20.515625  Q 46.921875 27.09375 42.890625 30.859375  Q 38.875 34.625 31.78125 34.625  z M 21.921875 38.8125  Q 15.578125 40.375 12.03125 44.71875  Q 8.5 49.078125 8.5 55.328125  Q 8.5 64.0625 14.71875 69.140625  Q 20.953125 74.21875 31.78125 74.21875  Q 42.671875 74.21875 48.875 69.140625  Q 55.078125 64.0625 55.078125 55.328125  Q 55.078125 49.078125 51.53125 44.71875  Q 48 40.375 41.703125 38.8125  Q 48.828125 37.15625 52.796875 32.3125  Q 56.78125 27.484375 56.78125 20.515625  Q 56.78125 9.90625 50.3125 4.234375  Q 43.84375 -1.421875 31.78125 -1.421875  Q 19.734375 -1.421875 13.25 4.234375  Q 6.78125 9.90625 6.78125 20.515625  Q 6.78125 27.484375 10.78125 32.3125  Q 14.796875 37.15625 21.921875 38.8125  z M 18.3125 54.390625  Q 18.3125 48.734375 21.84375 45.5625  Q 25.390625 42.390625 31.78125 42.390625  Q 38.140625 42.390625 41.71875 45.5625  Q 45.3125 48.734375 45.3125 54.390625  Q 45.3125 60.0625 41.71875 63.234375  Q 38.140625 66.40625 31.78125 66.40625  Q 25.390625 66.40625 21.84375 63.234375  Q 18.3125 60.0625 18.3125 54.390625  z " id="DejaVuSans-38"/>
      </defs>
      <g transform="translate(505.761392 188.638438)scale(0.1 -0.1)">
       <use xlink:href="#DejaVuSans-30"/>
       <use x="63.623047" xlink:href="#DejaVuSans-2e"/>
       <use x="95.410156" xlink:href="#DejaVuSans-38"/>
      </g>
     </g>
    </g>
    <g id="xtick_10">
     <g id="line2d_16">
      <g>
       <use style="stroke:#000000;stroke-width:0.8;" x="552.886591" xlink:href="#m669ef0d77d" y="174.04"/>
      </g>
     </g>
     <g id="text_17">
      <!-- 1.0 -->
      <g transform="translate(544.935028 188.638438)scale(0.1 -0.1)">
       <use xlink:href="#DejaVuSans-31"/>
       <use x="63.623047" xlink:href="#DejaVuSans-2e"/>
       <use x="95.410156" xlink:href="#DejaVuSans-30"/>
      </g>
     </g>
    </g>
    <g id="text_18">
     <!-- $x$ -->
     <defs>
      <path d="M 7.8125 2.875  Q 9.578125 1.515625 12.796875 1.515625  Q 15.921875 1.515625 18.3125 4.515625  Q 20.703125 7.515625 21.578125 11.078125  L 26.125 28.8125  Q 27.203125 33.640625 27.203125 35.40625  Q 27.203125 37.890625 25.8125 39.75  Q 24.421875 41.609375 21.921875 41.609375  Q 18.75 41.609375 15.96875 39.625  Q 13.1875 37.640625 11.28125 34.59375  Q 9.375 31.546875 8.59375 28.421875  Q 8.40625 27.78125 7.8125 27.78125  L 6.59375 27.78125  Q 5.8125 27.78125 5.8125 28.71875  L 5.8125 29  Q 6.78125 32.71875 9.125 36.25  Q 11.46875 39.796875 14.859375 41.984375  Q 18.265625 44.1875 22.125 44.1875  Q 25.78125 44.1875 28.734375 42.234375  Q 31.6875 40.28125 32.90625 36.921875  Q 34.625 39.984375 37.28125 42.078125  Q 39.9375 44.1875 43.109375 44.1875  Q 45.265625 44.1875 47.5 43.421875  Q 49.75 42.671875 51.171875 41.109375  Q 52.59375 39.546875 52.59375 37.203125  Q 52.59375 34.671875 50.953125 32.828125  Q 49.3125 31 46.78125 31  Q 45.171875 31 44.09375 32.03125  Q 43.015625 33.0625 43.015625 34.625  Q 43.015625 36.71875 44.453125 38.296875  Q 45.90625 39.890625 47.90625 40.1875  Q 46.09375 41.609375 42.921875 41.609375  Q 39.703125 41.609375 37.328125 38.625  Q 34.96875 35.640625 33.984375 31.984375  L 29.59375 14.3125  Q 28.515625 10.296875 28.515625 7.71875  Q 28.515625 5.171875 29.953125 3.34375  Q 31.390625 1.515625 33.796875 1.515625  Q 38.484375 1.515625 42.15625 5.640625  Q 45.84375 9.765625 47.015625 14.703125  Q 47.21875 15.28125 47.796875 15.28125  L 49.03125 15.28125  Q 49.421875 15.28125 49.65625 15.015625  Q 49.90625 14.75 49.90625 14.40625  Q 49.90625 14.3125 49.8125 14.109375  Q 48.390625 8.15625 43.84375 3.515625  Q 39.3125 -1.125 33.59375 -1.125  Q 29.9375 -1.125 26.984375 0.84375  Q 24.03125 2.828125 22.796875 6.203125  Q 21.234375 3.265625 18.46875 1.0625  Q 15.71875 -1.125 12.59375 -1.125  Q 10.453125 -1.125 8.171875 -0.359375  Q 5.90625 0.390625 4.484375 1.953125  Q 3.078125 3.515625 3.078125 5.90625  Q 3.078125 8.25 4.703125 10.171875  Q 6.34375 12.109375 8.796875 12.109375  Q 10.453125 12.109375 11.578125 11.109375  Q 12.703125 10.109375 12.703125 8.5  Q 12.703125 6.390625 11.296875 4.828125  Q 9.90625 3.265625 7.8125 2.875  z " id="Cmmi10-78"/>
     </defs>
     <g transform="translate(452.0525 202.316563)scale(0.1 -0.1)">
      <use transform="translate(0 0.8125)" xlink:href="#Cmmi10-78"/>
     </g>
    </g>
   </g>
   <g id="matplotlib.axis_4">
    <g id="ytick_6">
     <g id="line2d_17">
      <g>
       <use style="stroke:#000000;stroke-width:0.8;" x="347.225" xlink:href="#mbc107dde9a" y="151.532228"/>
      </g>
     </g>
     <g id="text_19">
      <!-- &#8722;0.04 -->
      <defs>
       <path d="M 10.59375 35.5  L 73.1875 35.5  L 73.1875 27.203125  L 10.59375 27.203125  z " id="DejaVuSans-2212"/>
      </defs>
      <g transform="translate(309.579687 155.331446)scale(0.1 -0.1)">
       <use xlink:href="#DejaVuSans-2212"/>
       <use x="83.789062" xlink:href="#DejaVuSans-30"/>
       <use x="147.412109" xlink:href="#DejaVuSans-2e"/>
       <use x="179.199219" xlink:href="#DejaVuSans-30"/>
       <use x="242.822266" xlink:href="#DejaVuSans-34"/>
      </g>
     </g>
    </g>
    <g id="ytick_7">
     <g id="line2d_18">
      <g>
       <use style="stroke:#000000;stroke-width:0.8;" x="347.225" xlink:href="#mbc107dde9a" y="121.713696"/>
      </g>
     </g>
     <g id="text_20">
      <!-- &#8722;0.02 -->
      <g transform="translate(309.579687 125.512915)scale(0.1 -0.1)">
       <use xlink:href="#DejaVuSans-2212"/>
       <use x="83.789062" xlink:href="#DejaVuSans-30"/>
       <use x="147.412109" xlink:href="#DejaVuSans-2e"/>
       <use x="179.199219" xlink:href="#DejaVuSans-30"/>
       <use x="242.822266" xlink:href="#DejaVuSans-32"/>
      </g>
     </g>
    </g>
    <g id="ytick_8">
     <g id="line2d_19">
      <g>
       <use style="stroke:#000000;stroke-width:0.8;" x="347.225" xlink:href="#mbc107dde9a" y="91.895165"/>
      </g>
     </g>
     <g id="text_21">
      <!-- 0.00 -->
      <g transform="translate(317.959375 95.694383)scale(0.1 -0.1)">
       <use xlink:href="#DejaVuSans-30"/>
       <use x="63.623047" xlink:href="#DejaVuSans-2e"/>
       <use x="95.410156" xlink:href="#DejaVuSans-30"/>
       <use x="159.033203" xlink:href="#DejaVuSans-30"/>
      </g>
     </g>
    </g>
    <g id="ytick_9">
     <g id="line2d_20">
      <g>
       <use style="stroke:#000000;stroke-width:0.8;" x="347.225" xlink:href="#mbc107dde9a" y="62.076633"/>
      </g>
     </g>
     <g id="text_22">
      <!-- 0.02 -->
      <g transform="translate(317.959375 65.875852)scale(0.1 -0.1)">
       <use xlink:href="#DejaVuSans-30"/>
       <use x="63.623047" xlink:href="#DejaVuSans-2e"/>
       <use x="95.410156" xlink:href="#DejaVuSans-30"/>
       <use x="159.033203" xlink:href="#DejaVuSans-32"/>
      </g>
     </g>
    </g>
    <g id="ytick_10">
     <g id="line2d_21">
      <g>
       <use style="stroke:#000000;stroke-width:0.8;" x="347.225" xlink:href="#mbc107dde9a" y="32.258101"/>
      </g>
     </g>
     <g id="text_23">
      <!-- 0.04 -->
      <g transform="translate(317.959375 36.05732)scale(0.1 -0.1)">
       <use xlink:href="#DejaVuSans-30"/>
       <use x="63.623047" xlink:href="#DejaVuSans-2e"/>
       <use x="95.410156" xlink:href="#DejaVuSans-30"/>
       <use x="159.033203" xlink:href="#DejaVuSans-34"/>
      </g>
     </g>
    </g>
    <g id="text_24">
     <!-- $w$ -->
     <defs>
      <path d="M 10.796875 11.625  Q 10.796875 13.71875 11.359375 16.453125  Q 11.921875 19.1875 12.59375 21.3125  Q 13.28125 23.4375 14.90625 27.828125  Q 16.546875 32.234375 16.703125 32.625  Q 18.015625 36.28125 18.015625 38.625  Q 18.015625 41.609375 15.828125 41.609375  Q 11.859375 41.609375 9.296875 37.53125  Q 6.734375 33.453125 5.515625 28.421875  Q 5.328125 27.78125 4.6875 27.78125  L 3.515625 27.78125  Q 2.6875 27.78125 2.6875 28.71875  L 2.6875 29  Q 4.296875 34.96875 7.609375 39.578125  Q 10.9375 44.1875 16.015625 44.1875  Q 19.578125 44.1875 22.046875 41.84375  Q 24.515625 39.5 24.515625 35.890625  Q 24.515625 34.03125 23.6875 31.984375  Q 22.515625 28.953125 20.921875 24.703125  Q 19.34375 20.453125 18.453125 16.984375  Q 17.578125 13.53125 17.578125 10.296875  Q 17.578125 6.390625 19.625 3.953125  Q 21.6875 1.515625 25.59375 1.515625  Q 30.90625 1.515625 34.421875 9.625  Q 34.28125 10.203125 34.28125 11.28125  Q 34.28125 13.96875 35.109375 17.390625  L 40.71875 39.890625  Q 41.0625 41.21875 42.28125 42.15625  Q 43.5 43.109375 44.921875 43.109375  Q 46.09375 43.109375 47 42.328125  Q 47.90625 41.546875 47.90625 40.28125  Q 47.90625 39.703125 47.796875 39.5  L 42.1875 17.1875  Q 41.21875 13.1875 41.21875 10.015625  Q 41.21875 6.25 42.9375 3.875  Q 44.671875 1.515625 48.390625 1.515625  Q 54.828125 1.515625 58.984375 10.015625  Q 60.546875 13.03125 62.46875 18.9375  Q 64.40625 24.859375 64.40625 27.984375  Q 64.40625 30.859375 63.46875 32.546875  Q 62.546875 34.234375 60.90625 36.1875  Q 59.28125 38.140625 59.28125 39.109375  Q 59.28125 41.015625 60.90625 42.640625  Q 62.546875 44.28125 64.5 44.28125  Q 66.890625 44.28125 67.9375 42.078125  Q 69 39.890625 69 37.109375  Q 69 33.734375 67.875 28.53125  Q 66.75 23.34375 65.03125 18.09375  Q 63.328125 12.84375 61.8125 9.71875  Q 56.34375 -1.125 48.1875 -1.125  Q 44 -1.125 40.53125 0.484375  Q 37.0625 2.09375 35.40625 5.609375  Q 33.796875 2.734375 31.171875 0.796875  Q 28.5625 -1.125 25.390625 -1.125  Q 18.796875 -1.125 14.796875 2.015625  Q 10.796875 5.171875 10.796875 11.625  z " id="Cmmi10-77"/>
     </defs>
     <g transform="translate(303.5 97.28)rotate(-90)scale(0.1 -0.1)">
      <use transform="translate(0 0.71875)" xlink:href="#Cmmi10-77"/>
     </g>
    </g>
   </g>
   <g id="line2d_22">
    <path clip-path="url(#p86d1997687)" d="M 357.018409 91.895165  L 358.977091 92.009027  L 361.131641 92.36511  L 363.286191 92.950413  L 365.636609 93.835074  L 367.987027 94.960189  L 370.533314 96.430876  L 373.275468 98.283667  L 376.213491 100.548812  L 379.347382 103.248354  L 382.873009 106.587128  L 386.790373 110.606823  L 391.491209 115.759313  L 397.954859 123.210188  L 411.665632 139.10596  L 416.758205 144.615566  L 421.067305 148.962462  L 424.984668 152.603864  L 428.510295 155.589692  L 431.840055 158.128393  L 434.973945 160.247882  L 437.911968 161.98242  L 440.849991 163.460736  L 443.592145 164.600633  L 446.3343 165.502182  L 449.076455 166.160202  L 451.622741 166.549843  L 454.169027 166.724313  L 456.715314 166.682752  L 459.2616 166.425364  L 461.807886 165.95342  L 464.550041 165.20792  L 467.292195 164.22058  L 470.03435 162.99708  L 472.972373 161.432177  L 475.910395 159.614724  L 479.044286 157.411492  L 482.374045 154.789875  L 485.899673 151.723926  L 489.817036 148.003825  L 494.126136 143.584251  L 499.022841 138.229549  L 505.486491 130.799251  L 519.980736 114.009033  L 524.681573 108.96431  L 528.598936 105.067084  L 532.124564 101.864378  L 535.258455 99.306585  L 538.196477 97.192251  L 540.938632 95.495951  L 543.484918 94.184228  L 545.835336 93.217542  L 547.989886 92.55211  L 550.144436 92.11117  L 552.298986 91.907723  L 552.886591 91.895165  L 552.886591 91.895165  " style="fill:none;stroke:#1f77b4;stroke-linecap:square;stroke-width:1.5;"/>
   </g>
   <g id="line2d_23">
    <path clip-path="url(#p86d1997687)" d="M 357.018409 91.895165  L 358.193618 91.775418  L 359.564695 91.385933  L 360.935773 90.742331  L 362.30685 89.860226  L 363.873795 88.58008  L 365.636609 86.820882  L 367.595291 84.508776  L 369.749841 81.583003  L 372.100259 78.002316  L 374.842414 73.411432  L 378.368041 67.038731  L 384.635823 55.122041  L 389.728395 45.644874  L 393.058155 39.881905  L 395.996177 35.234106  L 398.542464 31.617894  L 400.892882 28.672132  L 403.047432 26.338371  L 405.006114 24.544989  L 406.768927 23.213753  L 408.531741 22.162304  L 410.098686 21.470438  L 411.665632 21.012977  L 413.232577 20.794485  L 414.799523 20.818427  L 416.366468 21.087168  L 417.933414 21.601967  L 419.500359 22.362988  L 421.067305 23.369303  L 422.830118 24.792071  L 424.592932 26.51826  L 426.355745 28.541741  L 428.314427 31.129247  L 430.468977 34.372847  L 432.623527 38.01287  L 434.973945 42.408142  L 437.520232 47.630077  L 440.458255 54.187322  L 443.788014 62.206446  L 447.705377 72.266138  L 452.993818 86.524142  L 463.178964 114.091093  L 467.096327 124.000134  L 470.426086 131.847467  L 473.364109 138.222457  L 476.106264 143.633201  L 478.456682 147.810715  L 480.8071 151.528807  L 482.96165 154.509316  L 484.920332 156.847844  L 486.683145 158.640686  L 488.445959 160.131327  L 490.208773 161.314931  L 491.775718 162.106687  L 493.342664 162.652278  L 494.909609 162.95173  L 496.476555 163.006167  L 498.0435 162.817812  L 499.610445 162.389995  L 501.177391 161.727144  L 502.744336 160.834779  L 504.50715 159.564792  L 506.269964 158.023736  L 508.228645 156.009031  L 510.383195 153.448183  L 512.733614 150.276807  L 515.2799 146.445364  L 518.217923 141.591186  L 521.74355 135.294044  L 526.836123 125.6734  L 533.495641 113.158529  L 536.8254 107.382116  L 539.567555 103.067261  L 541.917973 99.78533  L 543.876655 97.403095  L 545.639468 95.573049  L 547.206414 94.223755  L 548.773359 93.159775  L 550.144436 92.481145  L 551.515514 92.054402  L 552.690723 91.900943  L 552.886591 91.895165  L 552.886591 91.895165  " style="fill:none;stroke:#ff7f0e;stroke-linecap:square;stroke-width:1.5;"/>
   </g>
   <g id="line2d_24">
    <path clip-path="url(#p86d1997687)" d="M 357.018409 91.895165  L 357.99775 92.06231  L 358.977091 92.496582  L 359.956432 93.182369  L 361.131641 94.315339  L 362.30685 95.761076  L 363.677927 97.807193  L 365.244873 100.567457  L 367.007686 104.135077  L 369.162236 109.034784  L 371.904391 115.890276  L 376.605227 128.39161  L 380.718459 139.091253  L 383.460614 145.619897  L 385.615164 150.223916  L 387.573845 153.912702  L 389.336659 156.769549  L 390.903605 158.903945  L 392.274682 160.436978  L 393.645759 161.641752  L 394.820968 162.403387  L 395.996177 162.907781  L 397.171386 163.149631  L 398.150727 163.147719  L 399.130068 162.959126  L 400.305277 162.48513  L 401.480486 161.74062  L 402.655695 160.726543  L 404.026773 159.205843  L 405.39785 157.32719  L 406.964795 154.752442  L 408.531741 151.736766  L 410.294555 147.841621  L 412.253236 142.929031  L 414.407786 136.876414  L 416.758205 129.591654  L 419.500359 120.348287  L 423.025986 107.607846  L 435.169814 62.878179  L 437.911968 54.014455  L 440.262386 47.143049  L 442.416936 41.53974  L 444.375618 37.093411  L 446.138432 33.664579  L 447.705377 31.100345  L 449.076455 29.246234  L 450.447532 27.767166  L 451.622741 26.804503  L 452.79795 26.127895  L 453.973159 25.740245  L 454.9525 25.639172  L 455.931841 25.740244  L 456.911182 26.043159  L 458.086391 26.671776  L 459.2616 27.587017  L 460.436809 28.784954  L 461.807886 30.532919  L 463.178964 32.648414  L 464.745909 35.500222  L 466.508723 39.235751  L 468.271536 43.494722  L 470.230218 48.790767  L 472.580636 55.84298  L 475.126923 64.207863  L 478.260814 75.295135  L 482.96165 92.864356  L 489.229432 116.189334  L 492.363323 127.024723  L 495.105477 135.708863  L 497.455895 142.405817  L 499.414577 147.377304  L 501.373259 151.736761  L 503.136073 155.098755  L 504.703018 157.617194  L 506.074095 159.445157  L 507.445173 160.91419  L 508.620382 161.883461  L 509.795591 162.582915  L 510.9708 163.011828  L 512.146009 163.170806  L 513.12535 163.098453  L 514.300559 162.768581  L 515.475768 162.177785  L 516.650977 161.331813  L 518.022055 160.031839  L 519.393132 158.407705  L 520.960077 156.175074  L 522.722891 153.216379  L 524.681573 149.426759  L 526.836123 144.728818  L 529.382409 138.601762  L 532.712168 129.959154  L 539.959291 110.934578  L 542.505577 104.985817  L 544.464259 100.94116  L 546.227073 97.807192  L 547.794018 95.499542  L 549.165095 93.9016  L 550.340305 92.878871  L 551.319645 92.291817  L 552.298986 91.962522  L 552.886591 91.895165  L 552.886591 91.895165  " style="fill:none;stroke:#2ca02c;stroke-linecap:square;stroke-width:1.5;"/>
   </g>
   <g id="line2d_25">
    <path clip-path="url(#p86d1997687)" d="M 357.018409 91.895165  L 357.801882 92.079167  L 358.585355 92.544831  L 359.368827 93.275168  L 360.348168 94.534418  L 361.327509 96.147554  L 362.502718 98.5039  L 363.873795 101.760948  L 365.440741 106.043283  L 367.399423 112.042445  L 370.337445 121.867556  L 375.821755 140.335249  L 377.976305 146.801522  L 379.739118 151.488925  L 381.306064 155.098186  L 382.677141 157.767395  L 384.048218 159.937112  L 385.223427 161.372818  L 386.202768 162.256194  L 387.182109 162.845752  L 387.965582 163.101209  L 388.749055 163.161547  L 389.532527 163.024812  L 390.316 162.689774  L 391.295341 161.991416  L 392.274682 160.983073  L 393.254023 159.667083  L 394.429232 157.687631  L 395.604441 155.281299  L 396.975518 151.952693  L 398.542464 147.495043  L 400.305277 141.707028  L 402.263959 134.415586  L 404.418509 125.505264  L 407.160664 113.129815  L 411.273895 93.352863  L 416.1706 69.997809  L 418.912755 57.999872  L 421.067305 49.507626  L 423.025986 42.687732  L 424.7888 37.397748  L 426.355745 33.44088  L 427.726823 30.595126  L 428.902032 28.635857  L 430.077241 27.13424  L 431.056582 26.240135  L 432.035923 25.675455  L 432.819395 25.462739  L 433.602868 25.463189  L 434.386341 25.676731  L 435.169814 26.102617  L 436.149155 26.931347  L 437.128495 28.085337  L 438.107836 29.558722  L 439.283045 31.737783  L 440.654123 34.82639  L 442.0252 38.47423  L 443.592145 43.281729  L 445.354959 49.430016  L 447.313641 57.062595  L 449.664059 67.125287  L 452.79795 81.595985  L 461.024414 120.113119  L 463.374832 129.87311  L 465.333514 137.183911  L 467.096327 142.994122  L 468.663273 147.467089  L 470.03435 150.799416  L 471.405427 153.554441  L 472.580636 155.435652  L 473.559977 156.654041  L 474.539318 157.548216  L 475.518659 158.113599  L 476.302132 158.327141  L 477.085605 158.327591  L 477.869077 158.114874  L 478.65255 157.689593  L 479.631891 156.861082  L 480.611232 155.706446  L 481.590573 154.231262  L 482.765782 152.048112  L 484.136859 148.951448  L 485.507936 145.291254  L 487.074882 140.463359  L 488.837695 134.282703  L 490.796377 126.600458  L 493.146795 116.455898  L 496.280686 101.831335  L 505.094755 59.990415  L 507.445173 50.148899  L 509.599723 42.083301  L 511.362536 36.295286  L 512.929482 31.837636  L 514.300559 28.50903  L 515.671636 25.742826  L 516.846845 23.835606  L 518.022055 22.366832  L 519.001395 21.482299  L 519.980736 20.9082  L 520.764209 20.672422  L 521.547682 20.634422  L 522.331155 20.792609  L 523.114627 21.144667  L 524.093968 21.852668  L 525.073309 22.85127  L 526.248518 24.420023  L 527.423727 26.374559  L 528.794805 29.111919  L 530.36175 32.791234  L 532.124564 37.545976  L 534.279114 44.075745  L 537.021268 53.163393  L 543.28905 74.219405  L 545.247732 79.955252  L 546.814677 83.952811  L 548.185755 86.905842  L 549.360964 88.960536  L 550.340305 90.293211  L 551.319645 91.245498  L 552.103118 91.711162  L 552.886591 91.895165  L 552.886591 91.895165  " style="fill:none;stroke:#d62728;stroke-linecap:square;stroke-width:1.5;"/>
   </g>
   <g id="patch_8">
    <path d="M 347.225 174.04  L 347.225 13.32  " style="fill:none;stroke:#000000;stroke-linecap:square;stroke-linejoin:miter;stroke-width:0.8;"/>
   </g>
   <g id="patch_9">
    <path d="M 562.68 174.04  L 562.68 13.32  " style="fill:none;stroke:#000000;stroke-linecap:square;stroke-linejoin:miter;stroke-width:0.8;"/>
   </g>
   <g id="patch_10">
    <path d="M 347.225 174.04  L 562.68 174.04  " style="fill:none;stroke:#000000;stroke-linecap:square;stroke-linejoin:miter;stroke-width:0.8;"/>
   </g>
   <g id="patch_11">
    <path d="M 347.225 13.32  L 562.68 13.32  " style="fill:none;stroke:#000000;stroke-linecap:square;stroke-linejoin:miter;stroke-width:0.8;"/>
   </g>
   <g id="legend_1">
    <g id="patch_12">
     <path d="M 431.08 50.67625  L 555.68 50.67625  Q 557.68 50.67625 557.68 48.67625  L 557.68 20.32  Q 557.68 18.32 555.68 18.32  L 431.08 18.32  Q 429.08 18.32 429.08 20.32  L 429.08 48.67625  Q 429.08 50.67625 431.08 50.67625  z " style="fill:#ffffff;opacity:0.8;stroke:#cccccc;stroke-linejoin:miter;"/>
    </g>
    <g id="line2d_26">
     <path d="M 433.08 26.418438  L 453.08 26.418438  " style="fill:none;stroke:#1f77b4;stroke-linecap:square;stroke-width:1.5;"/>
    </g>
    <g id="line2d_27"/>
    <g id="text_25">
     <!-- $n=1$ -->
     <defs>
      <path d="M 7.71875 1.703125  Q 7.71875 2.296875 7.8125 2.59375  L 15.28125 32.421875  Q 16.015625 35.203125 16.015625 37.3125  Q 16.015625 41.609375 13.09375 41.609375  Q 9.96875 41.609375 8.453125 37.859375  Q 6.9375 34.125 5.515625 28.421875  Q 5.515625 28.125 5.21875 27.953125  Q 4.9375 27.78125 4.6875 27.78125  L 3.515625 27.78125  Q 3.171875 27.78125 2.921875 28.140625  Q 2.6875 28.515625 2.6875 28.8125  Q 3.765625 33.15625 4.765625 36.171875  Q 5.765625 39.203125 7.890625 41.6875  Q 10.015625 44.1875 13.1875 44.1875  Q 16.9375 44.1875 19.8125 41.8125  Q 22.703125 39.453125 22.703125 35.796875  Q 25.6875 39.703125 29.6875 41.9375  Q 33.6875 44.1875 38.1875 44.1875  Q 41.75 44.1875 44.328125 42.96875  Q 46.921875 41.75 48.359375 39.28125  Q 49.8125 36.8125 49.8125 33.40625  Q 49.8125 29.296875 47.96875 23.484375  Q 46.140625 17.671875 43.40625 10.5  Q 42 7.234375 42 4.5  Q 42 1.515625 44.28125 1.515625  Q 48.1875 1.515625 50.796875 5.703125  Q 53.421875 9.90625 54.5 14.703125  Q 54.6875 15.28125 55.328125 15.28125  L 56.5 15.28125  Q 56.890625 15.28125 57.15625 15.03125  Q 57.421875 14.796875 57.421875 14.40625  Q 57.421875 14.3125 57.328125 14.109375  Q 55.953125 8.453125 52.5625 3.65625  Q 49.171875 -1.125 44.09375 -1.125  Q 40.578125 -1.125 38.078125 1.296875  Q 35.59375 3.71875 35.59375 7.171875  Q 35.59375 9.03125 36.375 11.078125  Q 37.640625 14.359375 39.28125 18.890625  Q 40.921875 23.4375 41.96875 27.578125  Q 43.015625 31.734375 43.015625 34.90625  Q 43.015625 37.703125 41.859375 39.65625  Q 40.71875 41.609375 37.984375 41.609375  Q 34.328125 41.609375 31.25 39.984375  Q 28.171875 38.375 25.875 35.71875  Q 23.578125 33.0625 21.6875 29.390625  L 14.890625 2.203125  Q 14.546875 0.828125 13.34375 -0.140625  Q 12.15625 -1.125 10.6875 -1.125  Q 9.46875 -1.125 8.59375 -0.34375  Q 7.71875 0.4375 7.71875 1.703125  z " id="Cmmi10-6e"/>
      <path d="M 7.515625 13.28125  Q 6.6875 13.28125 6.140625 13.90625  Q 5.609375 14.546875 5.609375 15.28125  Q 5.609375 16.109375 6.140625 16.6875  Q 6.6875 17.28125 7.515625 17.28125  L 70.3125 17.28125  Q 71.046875 17.28125 71.578125 16.6875  Q 72.125 16.109375 72.125 15.28125  Q 72.125 14.546875 71.578125 13.90625  Q 71.046875 13.28125 70.3125 13.28125  z M 7.515625 32.71875  Q 6.6875 32.71875 6.140625 33.296875  Q 5.609375 33.890625 5.609375 34.71875  Q 5.609375 35.453125 6.140625 36.078125  Q 6.6875 36.71875 7.515625 36.71875  L 70.3125 36.71875  Q 71.046875 36.71875 71.578125 36.078125  Q 72.125 35.453125 72.125 34.71875  Q 72.125 33.890625 71.578125 33.296875  Q 71.046875 32.71875 70.3125 32.71875  z " id="Cmr10-3d"/>
      <path d="M 9.28125 0  L 9.28125 3.515625  Q 21.78125 3.515625 21.78125 6.6875  L 21.78125 59.1875  Q 16.609375 56.6875 8.6875 56.6875  L 8.6875 60.203125  Q 20.953125 60.203125 27.203125 66.609375  L 28.609375 66.609375  Q 28.953125 66.609375 29.265625 66.328125  Q 29.59375 66.0625 29.59375 65.71875  L 29.59375 6.6875  Q 29.59375 3.515625 42.09375 3.515625  L 42.09375 0  z " id="Cmr10-31"/>
     </defs>
     <g transform="translate(461.08 29.918438)scale(0.1 -0.1)">
      <use transform="translate(0 0.390625)" xlink:href="#Cmmi10-6e"/>
      <use transform="translate(77.568359 0.390625)" xlink:href="#Cmr10-3d"/>
      <use transform="translate(172.8125 0.390625)" xlink:href="#Cmr10-31"/>
     </g>
    </g>
    <g id="line2d_28">
     <path d="M 433.08 41.096563  L 453.08 41.096563  " style="fill:none;stroke:#ff7f0e;stroke-linecap:square;stroke-width:1.5;"/>
    </g>
    <g id="line2d_29"/>
    <g id="text_26">
     <!-- $n=2$ -->
     <defs>
      <path d="M 4.984375 0  L 4.984375 2.6875  Q 4.984375 2.9375 5.171875 3.21875  L 20.703125 20.40625  Q 24.21875 24.21875 26.40625 26.796875  Q 28.609375 29.390625 30.75 32.765625  Q 32.90625 36.140625 34.15625 39.625  Q 35.40625 43.109375 35.40625 47.015625  Q 35.40625 51.125 33.890625 54.859375  Q 32.375 58.59375 29.375 60.84375  Q 26.375 63.09375 22.125 63.09375  Q 17.78125 63.09375 14.3125 60.46875  Q 10.84375 57.859375 9.421875 53.71875  Q 9.8125 53.8125 10.5 53.8125  Q 12.75 53.8125 14.328125 52.296875  Q 15.921875 50.78125 15.921875 48.390625  Q 15.921875 46.09375 14.328125 44.5  Q 12.75 42.921875 10.5 42.921875  Q 8.15625 42.921875 6.5625 44.546875  Q 4.984375 46.1875 4.984375 48.390625  Q 4.984375 52.15625 6.390625 55.4375  Q 7.8125 58.734375 10.46875 61.296875  Q 13.140625 63.875 16.484375 65.234375  Q 19.828125 66.609375 23.578125 66.609375  Q 29.296875 66.609375 34.21875 64.1875  Q 39.15625 61.765625 42.03125 57.34375  Q 44.921875 52.9375 44.921875 47.015625  Q 44.921875 42.671875 43.015625 38.765625  Q 41.109375 34.859375 38.125 31.65625  Q 35.15625 28.46875 30.515625 24.40625  Q 25.875 20.359375 24.421875 19  L 13.09375 8.109375  L 22.703125 8.109375  Q 29.78125 8.109375 34.546875 8.21875  Q 39.3125 8.34375 39.59375 8.59375  Q 40.765625 9.859375 42 17.828125  L 44.921875 17.828125  L 42.09375 0  z " id="Cmr10-32"/>
     </defs>
     <g transform="translate(461.08 44.596563)scale(0.1 -0.1)">
      <use transform="translate(0 0.390625)" xlink:href="#Cmmi10-6e"/>
      <use transform="translate(77.568359 0.390625)" xlink:href="#Cmr10-3d"/>
      <use transform="translate(172.8125 0.390625)" xlink:href="#Cmr10-32"/>
     </g>
    </g>
    <g id="line2d_30">
     <path d="M 503.38 26.418438  L 523.38 26.418438  " style="fill:none;stroke:#2ca02c;stroke-linecap:square;stroke-width:1.5;"/>
    </g>
    <g id="line2d_31"/>
    <g id="text_27">
     <!-- $n=3$ -->
     <defs>
      <path d="M 9.515625 7.71875  Q 11.859375 4.296875 15.8125 2.640625  Q 19.78125 0.984375 24.3125 0.984375  Q 30.125 0.984375 32.5625 5.9375  Q 35.015625 10.890625 35.015625 17.1875  Q 35.015625 20.015625 34.5 22.84375  Q 33.984375 25.6875 32.765625 28.125  Q 31.546875 30.5625 29.421875 32.03125  Q 27.296875 33.5 24.21875 33.5  L 17.578125 33.5  Q 16.703125 33.5 16.703125 34.421875  L 16.703125 35.296875  Q 16.703125 36.078125 17.578125 36.078125  L 23.09375 36.53125  Q 26.609375 36.53125 28.921875 39.15625  Q 31.25 41.796875 32.328125 45.578125  Q 33.40625 49.359375 33.40625 52.78125  Q 33.40625 57.5625 31.15625 60.640625  Q 28.90625 63.71875 24.3125 63.71875  Q 20.515625 63.71875 17.046875 62.28125  Q 13.578125 60.84375 11.53125 57.90625  Q 11.71875 57.953125 11.859375 57.984375  Q 12.015625 58.015625 12.203125 58.015625  Q 14.453125 58.015625 15.96875 56.453125  Q 17.484375 54.890625 17.484375 52.6875  Q 17.484375 50.53125 15.96875 48.96875  Q 14.453125 47.40625 12.203125 47.40625  Q 10.015625 47.40625 8.453125 48.96875  Q 6.890625 50.53125 6.890625 52.6875  Q 6.890625 56.984375 9.46875 60.15625  Q 12.0625 63.328125 16.140625 64.96875  Q 20.21875 66.609375 24.3125 66.609375  Q 27.34375 66.609375 30.703125 65.703125  Q 34.078125 64.796875 36.8125 63.109375  Q 39.546875 61.421875 41.28125 58.78125  Q 43.015625 56.15625 43.015625 52.78125  Q 43.015625 48.578125 41.140625 45.015625  Q 39.265625 41.453125 35.984375 38.859375  Q 32.71875 36.28125 28.8125 35.015625  Q 33.15625 34.1875 37.0625 31.734375  Q 40.96875 29.296875 43.328125 25.484375  Q 45.703125 21.6875 45.703125 17.28125  Q 45.703125 11.765625 42.671875 7.296875  Q 39.65625 2.828125 34.71875 0.3125  Q 29.78125 -2.203125 24.3125 -2.203125  Q 19.625 -2.203125 14.90625 -0.40625  Q 10.203125 1.375 7.203125 4.9375  Q 4.203125 8.5 4.203125 13.484375  Q 4.203125 15.96875 5.859375 17.625  Q 7.515625 19.28125 10.015625 19.28125  Q 11.625 19.28125 12.96875 18.53125  Q 14.3125 17.78125 15.0625 16.40625  Q 15.828125 15.046875 15.828125 13.484375  Q 15.828125 11.03125 14.109375 9.375  Q 12.40625 7.71875 10.015625 7.71875  z " id="Cmr10-33"/>
     </defs>
     <g transform="translate(531.38 29.918438)scale(0.1 -0.1)">
      <use transform="translate(0 0.390625)" xlink:href="#Cmmi10-6e"/>
      <use transform="translate(77.568359 0.390625)" xlink:href="#Cmr10-3d"/>
      <use transform="translate(172.8125 0.390625)" xlink:href="#Cmr10-33"/>
     </g>
    </g>
    <g id="line2d_32">
     <path d="M 503.38 41.096563  L 523.38 41.096563  " style="fill:none;stroke:#d62728;stroke-linecap:square;stroke-width:1.5;"/>
    </g>
    <g id="line2d_33"/>
    <g id="text_28">
     <!-- $n=4$ -->
     <defs>
      <path d="M 2.78125 16.5  L 2.78125 20.015625  L 33.6875 66.109375  Q 34.03125 66.609375 34.71875 66.609375  L 36.1875 66.609375  Q 37.3125 66.609375 37.3125 65.484375  L 37.3125 20.015625  L 47.125 20.015625  L 47.125 16.5  L 37.3125 16.5  L 37.3125 6.6875  Q 37.3125 4.640625 40.234375 4.078125  Q 43.171875 3.515625 47.015625 3.515625  L 47.015625 0  L 19.484375 0  L 19.484375 3.515625  Q 23.34375 3.515625 26.265625 4.078125  Q 29.203125 4.640625 29.203125 6.6875  L 29.203125 16.5  z M 6.109375 20.015625  L 29.78125 20.015625  L 29.78125 55.421875  z " id="Cmr10-34"/>
     </defs>
     <g transform="translate(531.38 44.596563)scale(0.1 -0.1)">
      <use transform="translate(0 0.390625)" xlink:href="#Cmmi10-6e"/>
      <use transform="translate(77.568359 0.390625)" xlink:href="#Cmr10-3d"/>
      <use transform="translate(172.8125 0.390625)" xlink:href="#Cmr10-34"/>
     </g>
    </g>
   </g>
  </g>
 </g>
 <defs>
  <clipPath id="pcba85e1e9f">
   <rect height="160.72" width="215.455" x="66.68" y="13.32"/>
  </clipPath>
  <clipPath id="p86d1997687">
   <rect height="160.72" width="215.455" x="347.225" y="13.32"/>
  </clipPath>
 </defs>
</svg>