<svg xmlns="http://www.w3.org/2000/svg" xmlns:xlink="http://www.w3.org/1999/xlink" version="1.1" viewBox="0 0 432 288" viewport="0 0 1280px 853px">
 <defs>
  <style type="text/css">
*{stroke-linecap:butt;stroke-linejoin:round;}
  </style>
 </defs>
 <g id="figure_1">
  <g id="patch_1">
   <path d="M 0 288  L 432 288  L 432 0  L 0 0  z " style="fill:#ffffff;"/>
  </g>
  <g id="axes_1">
   <g id="patch_2">
    <path d="M 54 256.32  L 388.8 256.32  L 388.8 34.56  L 54 34.56  z " style="fill:#ffffff;"/>
   </g>
   <g id="matplotlib.axis_1">
    <g id="xtick_1">
     <g id="line2d_1">
      <path clip-path="url(#p46f653ffad)" d="M 69.218182 256.32  L 69.218182 34.56  " style="fill:none;stroke:#c7dedf;stroke-linecap:square;stroke-width:0.3;"/>
     </g>
     <g id="line2d_2">
      <defs>
       <path d="M 0 0  L 0 -3.5  " id="m91f883238c" style="stroke:#000000;stroke-width:0.8;"/>
      </defs>
      <g>
       <use style="stroke:#000000;stroke-width:0.8;" x="69.218182" xlink:href="#m91f883238c" y="256.32"/>
      </g>
     </g>
     <g id="text_1">
      <!-- 0.0 -->
      <defs>
       <path d="M 31.78125 66.40625  Q 24.171875 66.40625 20.328125 58.90625  Q 16.5 51.421875 16.5 36.375  Q 16.5 21.390625 20.328125 13.890625  Q 24.171875 6.390625 31.78125 6.390625  Q 39.453125 6.390625 43.28125 13.890625  Q 47.125 21.390625 47.125 36.375  Q 47.125 51.421875 43.28125 58.90625  Q 39.453125 66.40625 31.78125 66.40625  z M 31.78125 74.21875  Q 44.046875 74.21875 50.515625 64.515625  Q 56.984375 54.828125 56.984375 36.375  Q 56.984375 17.96875 50.515625 8.265625  Q 44.046875 -1.421875 31.78125 -1.421875  Q 19.53125 -1.421875 13.0625 8.265625  Q 6.59375 17.96875 6.59375 36.375  Q 6.59375 54.828125 13.0625 64.515625  Q 19.53125 74.21875 31.78125 74.21875  z " id="DejaVuSans-30"/>
       <path d="M 10.6875 12.40625  L 21 12.40625  L 21 0  L 10.6875 0  z " id="DejaVuSans-2e"/>
      </defs>
      <g transform="translate(61.266619 267.418437)scale(0.1 -0.1)">
       <use xlink:href="#DejaVuSans-30"/>
       <use x="63.623047" xlink:href="#DejaVuSans-2e"/>
       <use x="95.410156" xlink:href="#DejaVuSans-30"/>
      </g>
     </g>
    </g>
    <g id="xtick_2">
     <g id="line2d_3">
      <path clip-path="url(#p46f653ffad)" d="M 107.263636 256.32  L 107.263636 34.56  " style="fill:none;stroke:#c7dedf;stroke-linecap:square;stroke-width:0.3;"/>
     </g>
     <g id="line2d_4">
      <g>
       <use style="stroke:#000000;stroke-width:0.8;" x="107.263636" xlink:href="#m91f883238c" y="256.32"/>
      </g>
     </g>
     <g id="text_2">
      <!-- 0.5 -->
      <defs>
       <path d="M 10.796875 72.90625  L 49.515625 72.90625  L 49.515625 64.59375  L 19.828125 64.59375  L 19.828125 46.734375  Q 21.96875 47.46875 24.109375 47.828125  Q 26.265625 48.1875 28.421875 48.1875  Q 40.625 48.1875 47.75 41.5  Q 54.890625 34.8125 54.890625 23.390625  Q 54.890625 11.625 47.5625 5.09375  Q 40.234375 -1.421875 26.90625 -1.421875  Q 22.3125 -1.421875 17.546875 -0.640625  Q 12.796875 0.140625 7.71875 1.703125  L 7.71875 11.625  Q 12.109375 9.234375 16.796875 8.0625  Q 21.484375 6.890625 26.703125 6.890625  Q 35.15625 6.890625 40.078125 11.328125  Q 45.015625 15.765625 45.015625 23.390625  Q 45.015625 31 40.078125 35.4375  Q 35.15625 39.890625 26.703125 39.890625  Q 22.75 39.890625 18.8125 39.015625  Q 14.890625 38.140625 10.796875 36.28125  z " id="DejaVuSans-35"/>
      </defs>
      <g transform="translate(99.312074 267.418437)scale(0.1 -0.1)">
       <use xlink:href="#DejaVuSans-30"/>
       <use x="63.623047" xlink:href="#DejaVuSans-2e"/>
       <use x="95.410156" xlink:href="#DejaVuSans-35"/>
      </g>
     </g>
    </g>
    <g id="xtick_3">
     <g id="line2d_5">
      <path clip-path="url(#p46f653ffad)" d="M 145.309091 256.32  L 145.309091 34.56  " style="fill:none;stroke:#c7dedf;stroke-linecap:square;stroke-width:0.3;"/>
     </g>
     <g id="line2d_6">
      <g>
       <use style="stroke:#000000;stroke-width:0.8;" x="145.309091" xlink:href="#m91f883238c" y="256.32"/>
      </g>
     </g>
     <g id="text_3">
      <!-- 1.0 -->
      <defs>
       <path d="M 12.40625 8.296875  L 28.515625 8.296875  L 28.515625 63.921875  L 10.984375 60.40625  L 10.984375 69.390625  L 28.421875 72.90625  L 38.28125 72.90625  L 38.28125 8.296875  L 54.390625 8.296875  L 54.390625 0  L 12.40625 0  z " id="DejaVuSans-31"/>
      </defs>
      <g transform="translate(137.357528 267.418437)scale(0.1 -0.1)">
       <use xlink:href="#DejaVuSans-31"/>
       <use x="63.623047" xlink:href="#DejaVuSans-2e"/>
       <use x="95.410156" xlink:href="#DejaVuSans-30"/>
      </g>
     </g>
    </g>
    <g id="xtick_4">
     <g id="line2d_7">
      <path clip-path="url(#p46f653ffad)" d="M 183.354545 256.32  L 183.354545 34.56  " style="fill:none;stroke:#c7dedf;stroke-linecap:square;stroke-width:0.3;"/>
     </g>
     <g id="line2d_8">
      <g>
       <use style="stroke:#000000;stroke-width:0.8;" x="183.354545" xlink:href="#m91f883238c" y="256.32"/>
      </g>
     </g>
     <g id="text_4">
      <!-- 1.5 -->
      <g transform="translate(175.402983 267.418437)scale(0.1 -0.1)">
       <use xlink:href="#DejaVuSans-31"/>
       <use x="63.623047" xlink:href="#DejaVuSans-2e"/>
       <use x="95.410156" xlink:href="#DejaVuSans-35"/>
      </g>
     </g>
    </g>
    <g id="xtick_5">
     <g id="line2d_9">
      <path clip-path="url(#p46f653ffad)" d="M 221.4 256.32  L 221.4 34.56  " style="fill:none;stroke:#c7dedf;stroke-linecap:square;stroke-width:0.3;"/>
     </g>
     <g id="line2d_10">
      <g>
       <use style="stroke:#000000;stroke-width:0.8;" x="221.4" xlink:href="#m91f883238c" y="256.32"/>
      </g>
     </g>
     <g id="text_5">
      <!-- 2.0 -->
      <defs>
       <path d="M 19.1875 8.296875  L 53.609375 8.296875  L 53.609375 0  L 7.328125 0  L 7.328125 8.296875  Q 12.9375 14.109375 22.625 23.890625  Q 32.328125 33.6875 34.8125 36.53125  Q 39.546875 41.84375 41.421875 45.53125  Q 43.3125 49.21875 43.3125 52.78125  Q 43.3125 58.59375 39.234375 62.25  Q 35.15625 65.921875 28.609375 65.921875  Q 23.96875 65.921875 18.8125 64.3125  Q 13.671875 62.703125 7.8125 59.421875  L 7.8125 69.390625  Q 13.765625 71.78125 18.9375 73  Q 24.125 74.21875 28.421875 74.21875  Q 39.75 74.21875 46.484375 68.546875  Q 53.21875 62.890625 53.21875 53.421875  Q 53.21875 48.921875 51.53125 44.890625  Q 49.859375 40.875 45.40625 35.40625  Q 44.1875 33.984375 37.640625 27.21875  Q 31.109375 20.453125 19.1875 8.296875  z " id="DejaVuSans-32"/>
      </defs>
      <g transform="translate(213.448438 267.418437)scale(0.1 -0.1)">
       <use xlink:href="#DejaVuSans-32"/>
       <use x="63.623047" xlink:href="#DejaVuSans-2e"/>
       <use x="95.410156" xlink:href="#DejaVuSans-30"/>
      </g>
     </g>
    </g>
    <g id="xtick_6">
     <g id="line2d_11">
      <path clip-path="url(#p46f653ffad)" d="M 259.445455 256.32  L 259.445455 34.56  " style="fill:none;stroke:#c7dedf;stroke-linecap:square;stroke-width:0.3;"/>
     </g>
     <g id="line2d_12">
      <g>
       <use style="stroke:#000000;stroke-width:0.8;" x="259.445455" xlink:href="#m91f883238c" y="256.32"/>
      </g>
     </g>
     <g id="text_6">
      <!-- 2.5 -->
      <g transform="translate(251.493892 267.418437)scale(0.1 -0.1)">
       <use xlink:href="#DejaVuSans-32"/>
       <use x="63.623047" xlink:href="#DejaVuSans-2e"/>
       <use x="95.410156" xlink:href="#DejaVuSans-35"/>
      </g>
     </g>
    </g>
    <g id="xtick_7">
     <g id="line2d_13">
      <path clip-path="url(#p46f653ffad)" d="M 297.490909 256.32  L 297.490909 34.56  " style="fill:none;stroke:#c7dedf;stroke-linecap:square;stroke-width:0.3;"/>
     </g>
     <g id="line2d_14">
      <g>
       <use style="stroke:#000000;stroke-width:0.8;" x="297.490909" xlink:href="#m91f883238c" y="256.32"/>
      </g>
     </g>
     <g id="text_7">
      <!-- 3.0 -->
      <defs>
       <path d="M 40.578125 39.3125  Q 47.65625 37.796875 51.625 33  Q 55.609375 28.21875 55.609375 21.1875  Q 55.609375 10.40625 48.1875 4.484375  Q 40.765625 -1.421875 27.09375 -1.421875  Q 22.515625 -1.421875 17.65625 -0.515625  Q 12.796875 0.390625 7.625 2.203125  L 7.625 11.71875  Q 11.71875 9.328125 16.59375 8.109375  Q 21.484375 6.890625 26.8125 6.890625  Q 36.078125 6.890625 40.9375 10.546875  Q 45.796875 14.203125 45.796875 21.1875  Q 45.796875 27.640625 41.28125 31.265625  Q 36.765625 34.90625 28.71875 34.90625  L 20.21875 34.90625  L 20.21875 43.015625  L 29.109375 43.015625  Q 36.375 43.015625 40.234375 45.921875  Q 44.09375 48.828125 44.09375 54.296875  Q 44.09375 59.90625 40.109375 62.90625  Q 36.140625 65.921875 28.71875 65.921875  Q 24.65625 65.921875 20.015625 65.03125  Q 15.375 64.15625 9.8125 62.3125  L 9.8125 71.09375  Q 15.4375 72.65625 20.34375 73.4375  Q 25.25 74.21875 29.59375 74.21875  Q 40.828125 74.21875 47.359375 69.109375  Q 53.90625 64.015625 53.90625 55.328125  Q 53.90625 49.265625 50.4375 45.09375  Q 46.96875 40.921875 40.578125 39.3125  z " id="DejaVuSans-33"/>
      </defs>
      <g transform="translate(289.539347 267.418437)scale(0.1 -0.1)">
       <use xlink:href="#DejaVuSans-33"/>
       <use x="63.623047" xlink:href="#DejaVuSans-2e"/>
       <use x="95.410156" xlink:href="#DejaVuSans-30"/>
      </g>
     </g>
    </g>
    <g id="xtick_8">
     <g id="line2d_15">
      <path clip-path="url(#p46f653ffad)" d="M 335.536364 256.32  L 335.536364 34.56  " style="fill:none;stroke:#c7dedf;stroke-linecap:square;stroke-width:0.3;"/>
     </g>
     <g id="line2d_16">
      <g>
       <use style="stroke:#000000;stroke-width:0.8;" x="335.536364" xlink:href="#m91f883238c" y="256.32"/>
      </g>
     </g>
     <g id="text_8">
      <!-- 3.5 -->
      <g transform="translate(327.584801 267.418437)scale(0.1 -0.1)">
       <use xlink:href="#DejaVuSans-33"/>
       <use x="63.623047" xlink:href="#DejaVuSans-2e"/>
       <use x="95.410156" xlink:href="#DejaVuSans-35"/>
      </g>
     </g>
    </g>
    <g id="xtick_9">
     <g id="line2d_17">
      <path clip-path="url(#p46f653ffad)" d="M 373.581818 256.32  L 373.581818 34.56  " style="fill:none;stroke:#c7dedf;stroke-linecap:square;stroke-width:0.3;"/>
     </g>
     <g id="line2d_18">
      <g>
       <use style="stroke:#000000;stroke-width:0.8;" x="373.581818" xlink:href="#m91f883238c" y="256.32"/>
      </g>
     </g>
     <g id="text_9">
      <!-- 4.0 -->
      <defs>
       <path d="M 37.796875 64.3125  L 12.890625 25.390625  L 37.796875 25.390625  z M 35.203125 72.90625  L 47.609375 72.90625  L 47.609375 25.390625  L 58.015625 25.390625  L 58.015625 17.1875  L 47.609375 17.1875  L 47.609375 0  L 37.796875 0  L 37.796875 17.1875  L 4.890625 17.1875  L 4.890625 26.703125  z " id="DejaVuSans-34"/>
      </defs>
      <g transform="translate(365.630256 267.418437)scale(0.1 -0.1)">
       <use xlink:href="#DejaVuSans-34"/>
       <use x="63.623047" xlink:href="#DejaVuSans-2e"/>
       <use x="95.410156" xlink:href="#DejaVuSans-30"/>
      </g>
     </g>
    </g>
   </g>
   <g id="matplotlib.axis_2">
    <g id="ytick_1">
     <g id="line2d_19">
      <path clip-path="url(#p46f653ffad)" d="M 54 243.431771  L 388.8 243.431771  " style="fill:none;stroke:#c7dedf;stroke-linecap:square;stroke-width:0.3;"/>
     </g>
     <g id="line2d_20">
      <defs>
       <path d="M 0 0  L 3.5 0  " id="m2f066b046e" style="stroke:#000000;stroke-width:0.8;"/>
      </defs>
      <g>
       <use style="stroke:#000000;stroke-width:0.8;" x="54" xlink:href="#m2f066b046e" y="243.431771"/>
      </g>
     </g>
     <g id="text_10">
      <!-- &#8722;0.2 -->
      <defs>
       <path d="M 10.59375 35.5  L 73.1875 35.5  L 73.1875 27.203125  L 10.59375 27.203125  z " id="DejaVuSans-2212"/>
      </defs>
      <g transform="translate(26.217187 247.230989)scale(0.1 -0.1)">
       <use xlink:href="#DejaVuSans-2212"/>
       <use x="83.789062" xlink:href="#DejaVuSans-30"/>
       <use x="147.412109" xlink:href="#DejaVuSans-2e"/>
       <use x="179.199219" xlink:href="#DejaVuSans-32"/>
      </g>
     </g>
    </g>
    <g id="ytick_2">
     <g id="line2d_21">
      <path clip-path="url(#p46f653ffad)" d="M 54 210.299809  L 388.8 210.299809  " style="fill:none;stroke:#c7dedf;stroke-linecap:square;stroke-width:0.3;"/>
     </g>
     <g id="line2d_22">
      <g>
       <use style="stroke:#000000;stroke-width:0.8;" x="54" xlink:href="#m2f066b046e" y="210.299809"/>
      </g>
     </g>
     <g id="text_11">
      <!-- 0.0 -->
      <g transform="translate(34.596875 214.099028)scale(0.1 -0.1)">
       <use xlink:href="#DejaVuSans-30"/>
       <use x="63.623047" xlink:href="#DejaVuSans-2e"/>
       <use x="95.410156" xlink:href="#DejaVuSans-30"/>
      </g>
     </g>
    </g>
    <g id="ytick_3">
     <g id="line2d_23">
      <path clip-path="url(#p46f653ffad)" d="M 54 177.167847  L 388.8 177.167847  " style="fill:none;stroke:#c7dedf;stroke-linecap:square;stroke-width:0.3;"/>
     </g>
     <g id="line2d_24">
      <g>
       <use style="stroke:#000000;stroke-width:0.8;" x="54" xlink:href="#m2f066b046e" y="177.167847"/>
      </g>
     </g>
     <g id="text_12">
      <!-- 0.2 -->
      <g transform="translate(34.596875 180.967066)scale(0.1 -0.1)">
       <use xlink:href="#DejaVuSans-30"/>
       <use x="63.623047" xlink:href="#DejaVuSans-2e"/>
       <use x="95.410156" xlink:href="#DejaVuSans-32"/>
      </g>
     </g>
    </g>
    <g id="ytick_4">
     <g id="line2d_25">
      <path clip-path="url(#p46f653ffad)" d="M 54 144.035885  L 388.8 144.035885  " style="fill:none;stroke:#c7dedf;stroke-linecap:square;stroke-width:0.3;"/>
     </g>
     <g id="line2d_26">
      <g>
       <use style="stroke:#000000;stroke-width:0.8;" x="54" xlink:href="#m2f066b046e" y="144.035885"/>
      </g>
     </g>
     <g id="text_13">
      <!-- 0.4 -->
      <g transform="translate(34.596875 147.835104)scale(0.1 -0.1)">
       <use xlink:href="#DejaVuSans-30"/>
       <use x="63.623047" xlink:href="#DejaVuSans-2e"/>
       <use x="95.410156" xlink:href="#DejaVuSans-34"/>
      </g>
     </g>
    </g>
    <g id="ytick_5">
     <g id="line2d_27">
      <path clip-path="url(#p46f653ffad)" d="M 54 110.903924  L 388.8 110.903924  " style="fill:none;stroke:#c7dedf;stroke-linecap:square;stroke-width:0.3;"/>
     </g>
     <g id="line2d_28">
      <g>
       <use style="stroke:#000000;stroke-width:0.8;" x="54" xlink:href="#m2f066b046e" y="110.903924"/>
      </g>
     </g>
     <g id="text_14">
      <!-- 0.6 -->
      <defs>
       <path d="M 33.015625 40.375  Q 26.375 40.375 22.484375 35.828125  Q 18.609375 31.296875 18.609375 23.390625  Q 18.609375 15.53125 22.484375 10.953125  Q 26.375 6.390625 33.015625 6.390625  Q 39.65625 6.390625 43.53125 10.953125  Q 47.40625 15.53125 47.40625 23.390625  Q 47.40625 31.296875 43.53125 35.828125  Q 39.65625 40.375 33.015625 40.375  z M 52.59375 71.296875  L 52.59375 62.3125  Q 48.875 64.0625 45.09375 64.984375  Q 41.3125 65.921875 37.59375 65.921875  Q 27.828125 65.921875 22.671875 59.328125  Q 17.53125 52.734375 16.796875 39.40625  Q 19.671875 43.65625 24.015625 45.921875  Q 28.375 48.1875 33.59375 48.1875  Q 44.578125 48.1875 50.953125 41.515625  Q 57.328125 34.859375 57.328125 23.390625  Q 57.328125 12.15625 50.6875 5.359375  Q 44.046875 -1.421875 33.015625 -1.421875  Q 20.359375 -1.421875 13.671875 8.265625  Q 6.984375 17.96875 6.984375 36.375  Q 6.984375 53.65625 15.1875 63.9375  Q 23.390625 74.21875 37.203125 74.21875  Q 40.921875 74.21875 44.703125 73.484375  Q 48.484375 72.75 52.59375 71.296875  z " id="DejaVuSans-36"/>
      </defs>
      <g transform="translate(34.596875 114.703142)scale(0.1 -0.1)">
       <use xlink:href="#DejaVuSans-30"/>
       <use x="63.623047" xlink:href="#DejaVuSans-2e"/>
       <use x="95.410156" xlink:href="#DejaVuSans-36"/>
      </g>
     </g>
    </g>
    <g id="ytick_6">
     <g id="line2d_29">
      <path clip-path="url(#p46f653ffad)" d="M 54 77.771962  L 388.8 77.771962  " style="fill:none;stroke:#c7dedf;stroke-linecap:square;stroke-width:0.3;"/>
     </g>
     <g id="line2d_30">
      <g>
       <use style="stroke:#000000;stroke-width:0.8;" x="54" xlink:href="#m2f066b046e" y="77.771962"/>
      </g>
     </g>
     <g id="text_15">
      <!-- 0.8 -->
      <defs>
       <path d="M 31.78125 34.625  Q 24.75 34.625 20.71875 30.859375  Q 16.703125 27.09375 16.703125 20.515625  Q 16.703125 13.921875 20.71875 10.15625  Q 24.75 6.390625 31.78125 6.390625  Q 38.8125 6.390625 42.859375 10.171875  Q 46.921875 13.96875 46.921875 20.515625  Q 46.921875 27.09375 42.890625 30.859375  Q 38.875 34.625 31.78125 34.625  z M 21.921875 38.8125  Q 15.578125 40.375 12.03125 44.71875  Q 8.5 49.078125 8.5 55.328125  Q 8.5 64.0625 14.71875 69.140625  Q 20.953125 74.21875 31.78125 74.21875  Q 42.671875 74.21875 48.875 69.140625  Q 55.078125 64.0625 55.078125 55.328125  Q 55.078125 49.078125 51.53125 44.71875  Q 48 40.375 41.703125 38.8125  Q 48.828125 37.15625 52.796875 32.3125  Q 56.78125 27.484375 56.78125 20.515625  Q 56.78125 9.90625 50.3125 4.234375  Q 43.84375 -1.421875 31.78125 -1.421875  Q 19.734375 -1.421875 13.25 4.234375  Q 6.78125 9.90625 6.78125 20.515625  Q 6.78125 27.484375 10.78125 32.3125  Q 14.796875 37.15625 21.921875 38.8125  z M 18.3125 54.390625  Q 18.3125 48.734375 21.84375 45.5625  Q 25.390625 42.390625 31.78125 42.390625  Q 38.140625 42.390625 41.71875 45.5625  Q 45.3125 48.734375 45.3125 54.390625  Q 45.3125 60.0625 41.71875 63.234375  Q 38.140625 66.40625 31.78125 66.40625  Q 25.390625 66.40625 21.84375 63.234375  Q 18.3125 60.0625 18.3125 54.390625  z " id="DejaVuSans-38"/>
      </defs>
      <g transform="translate(34.596875 81.571181)scale(0.1 -0.1)">
       <use xlink:href="#DejaVuSans-30"/>
       <use x="63.623047" xlink:href="#DejaVuSans-2e"/>
       <use x="95.410156" xlink:href="#DejaVuSans-38"/>
      </g>
     </g>
    </g>
    <g id="ytick_7">
     <g id="line2d_31">
      <path clip-path="url(#p46f653ffad)" d="M 54 44.64  L 388.8 44.64  " style="fill:none;stroke:#c7dedf;stroke-linecap:square;stroke-width:0.3;"/>
     </g>
     <g id="line2d_32">
      <g>
       <use style="stroke:#000000;stroke-width:0.8;" x="54" xlink:href="#m2f066b046e" y="44.64"/>
      </g>
     </g>
     <g id="text_16">
      <!-- 1.0 -->
      <g transform="translate(34.596875 48.439219)scale(0.1 -0.1)">
       <use xlink:href="#DejaVuSans-31"/>
       <use x="63.623047" xlink:href="#DejaVuSans-2e"/>
       <use x="95.410156" xlink:href="#DejaVuSans-30"/>
      </g>
     </g>
    </g>
   </g>
   <g id="line2d_33">
    <path clip-path="url(#p46f653ffad)" d="M 69.218182 44.64  L 72.292562 45.0845  L 75.366942 46.413696  L 78.441322 48.614758  L 81.515702 51.666472  L 84.590083 55.539479  L 87.664463 60.196613  L 90.738843 65.593324  L 93.813223 71.678193  L 96.887603 78.393514  L 99.961983 85.675951  L 103.036364 93.457259  L 106.110744 101.665054  L 109.185124 110.223626  L 112.259504 119.054791  L 115.333884 128.078756  L 118.408264 137.215008  L 121.482645 146.383195  L 124.557025 155.504002  L 127.631405 164.500005  L 130.705785 173.296497  L 133.780165 181.822273  L 136.854545 190.010365  L 139.928926 197.79872  L 143.003306 205.130812  L 146.077686 211.956181  L 149.152066 218.230895  L 152.226446 223.917927  L 155.300826 228.987449  L 158.375207 233.417026  L 161.449587 237.191732  L 164.523967 240.304165  L 167.598347 242.754377  L 170.672727 244.54971  L 173.747107 245.70455  L 176.821488 246.24  L 179.895868 246.183475  L 182.970248 245.568229  L 186.044628 244.432816  L 189.119008 242.820499  L 192.193388 240.778609  L 195.267769 238.35787  L 198.342149 235.611688  L 201.416529 232.59543  L 204.490909 229.365683  L 207.565289 225.97952  L 210.639669 222.493774  L 213.71405 218.964326  L 216.78843 215.445428  L 219.86281 211.989054  L 222.93719 208.644297  L 226.01157 205.456823  L 229.08595 202.46837  L 232.160331 199.716323  L 235.234711 197.233342  L 238.309091 195.047073  L 241.383471 193.179925  L 244.457851 191.648923  L 247.532231 190.46564  L 250.606612 189.636198  L 253.680992 189.161349  L 256.755372 189.036618  L 259.829752 189.252525  L 262.904132 189.794861  L 265.978512 190.645026  L 269.052893 191.780419  L 272.127273 193.174876  L 275.201653 194.799141  L 278.276033 196.621377  L 281.350413 198.607696  L 284.424793 200.722707  L 287.499174 202.930068  L 290.573554 205.193048  L 293.647934 207.475073  L 296.722314 209.740259  L 299.796694 211.953923  L 302.871074 214.083067  L 305.945455 216.096826  L 309.019835 217.96687  L 312.094215 219.667766  L 315.168595 221.17729  L 318.242975 222.47668  L 321.317355 223.550837  L 324.391736 224.388465  L 327.466116 224.982156  L 330.540496 225.328413  L 333.614876 225.427614  L 336.689256 225.28392  L 339.763636 224.905132  L 342.838017 224.302491  L 345.912397 223.490437  L 348.986777 222.48632  L 352.061157 221.310078  L 355.135537 219.983878  L 358.209917 218.531731  L 361.284298 216.979096  L 364.358678 215.352454  L 367.433058 213.678891  L 370.507438 211.985666  L 373.581818 210.299796  " style="fill:none;stroke:#e41a1c;stroke-linecap:square;stroke-width:1.5;"/>
   </g>
   <g id="line2d_34">
    <path clip-path="url(#p46f653ffad)" d="M 69.218182 127.469904  L 72.292562 127.692155  L 75.366942 128.356752  L 78.441322 129.457283  L 81.515702 130.98314  L 84.590083 132.919644  L 87.664463 135.248211  L 90.738843 137.946566  L 93.813223 140.989001  L 96.887603 144.346661  L 99.961983 147.98788  L 103.036364 151.878534  L 106.110744 155.982431  L 109.185124 160.261718  L 112.259504 164.6773  L 115.333884 169.189282  L 118.408264 173.757409  L 121.482645 178.341502  L 124.557025 182.901905  L 127.631405 187.399907  L 130.705785 191.798153  L 133.780165 196.061041  L 136.854545 200.155087  L 139.928926 204.049264  L 143.003306 207.71531  L 146.077686 211.127995  L 149.152066 214.265352  L 152.226446 217.108868  L 155.300826 219.643629  L 158.375207 221.858417  L 161.449587 223.74577  L 164.523967 225.301987  L 167.598347 226.527093  L 170.672727 227.42476  L 173.747107 228.002179  L 176.821488 228.269904  L 179.895868 228.241642  L 182.970248 227.934019  L 186.044628 227.366312  L 189.119008 226.560154  L 192.193388 225.539209  L 195.267769 224.328839  L 198.342149 222.955748  L 201.416529 221.447619  L 204.490909 219.832746  L 207.565289 218.139664  L 210.639669 216.396791  L 213.71405 214.632068  L 216.78843 212.872619  L 219.86281 211.144431  L 222.93719 209.472053  L 226.01157 207.878316  L 229.08595 206.38409  L 232.160331 205.008066  L 235.234711 203.766575  L 238.309091 202.673441  L 241.383471 201.739867  L 244.457851 200.974366  L 247.532231 200.382724  L 250.606612 199.968004  L 253.680992 199.730579  L 256.755372 199.668213  L 259.829752 199.776167  L 262.904132 200.047335  L 265.978512 200.472417  L 269.052893 201.040114  L 272.127273 201.737342  L 275.201653 202.549475  L 278.276033 203.460593  L 281.350413 204.453753  L 284.424793 205.511258  L 287.499174 206.614938  L 290.573554 207.746429  L 293.647934 208.887441  L 296.722314 210.020034  L 299.796694 211.126866  L 302.871074 212.191438  L 305.945455 213.198317  L 309.019835 214.133339  L 312.094215 214.983787  L 315.168595 215.738549  L 318.242975 216.388244  L 321.317355 216.925323  L 324.391736 217.344137  L 327.466116 217.640983  L 330.540496 217.814111  L 333.614876 217.863711  L 336.689256 217.791864  L 339.763636 217.60247  L 342.838017 217.30115  L 345.912397 216.895123  L 348.986777 216.393065  L 352.061157 215.804944  L 355.135537 215.141843  L 358.209917 214.41577  L 361.284298 213.639452  L 364.358678 212.826132  L 367.433058 211.98935  L 370.507438 211.142737  L 373.581818 210.299802  " style="fill:none;stroke:#377eb8;stroke-linecap:square;stroke-width:1.5;"/>
   </g>
   <g id="line2d_35">
    <path clip-path="url(#p46f653ffad)" d="M 69.218182 155.079873  L 72.292562 155.228039  L 75.366942 155.671104  L 78.441322 156.404792  L 81.515702 157.42203  L 84.590083 158.713032  L 87.664463 160.26541  L 90.738843 162.064314  L 93.813223 164.092604  L 96.887603 166.331044  L 99.961983 168.758523  L 103.036364 171.352292  L 106.110744 174.088224  L 109.185124 176.941081  L 112.259504 179.884803  L 115.333884 182.892791  L 118.408264 185.938209  L 121.482645 188.994271  L 124.557025 192.03454  L 127.631405 195.033207  L 130.705785 197.965371  L 133.780165 200.807297  L 136.854545 203.536661  L 139.928926 206.132779  L 143.003306 208.57681  L 146.077686 210.851933  L 149.152066 212.943504  L 152.226446 214.839182  L 155.300826 216.529022  L 158.375207 218.005548  L 161.449587 219.263783  L 164.523967 220.301261  L 167.598347 221.117998  L 170.672727 221.716443  L 173.747107 222.101389  L 176.821488 222.279873  L 179.895868 222.261031  L 182.970248 222.055949  L 186.044628 221.677478  L 189.119008 221.140039  L 192.193388 220.459409  L 195.267769 219.652496  L 198.342149 218.737102  L 201.416529 217.731682  L 204.490909 216.6551  L 207.565289 215.526379  L 210.639669 214.364464  L 213.71405 213.187981  L 216.78843 212.015015  L 219.86281 210.86289  L 222.93719 209.747972  L 226.01157 208.68548  L 229.08595 207.689329  L 232.160331 206.77198  L 235.234711 205.94432  L 238.309091 205.215564  L 241.383471 204.593181  L 244.457851 204.082847  L 247.532231 203.688419  L 250.606612 203.411939  L 253.680992 203.253655  L 256.755372 203.212078  L 259.829752 203.284047  L 262.904132 203.464826  L 265.978512 203.748214  L 269.052893 204.126679  L 272.127273 204.591498  L 275.201653 205.13292  L 278.276033 205.740332  L 281.350413 206.402438  L 284.424793 207.107441  L 287.499174 207.843228  L 290.573554 208.597555  L 293.647934 209.35823  L 296.722314 210.113292  L 299.796694 210.85118  L 302.871074 211.560895  L 305.945455 212.232148  L 309.019835 212.855496  L 312.094215 213.422461  L 315.168595 213.925636  L 318.242975 214.358766  L 321.317355 214.716818  L 324.391736 214.996027  L 327.466116 215.193925  L 330.540496 215.309344  L 333.614876 215.342411  L 336.689256 215.294513  L 339.763636 215.16825  L 342.838017 214.967369  L 345.912397 214.696685  L 348.986777 214.361979  L 352.061157 213.969899  L 355.135537 213.527832  L 358.209917 213.043783  L 361.284298 212.526238  L 364.358678 211.984024  L 367.433058 211.42617  L 370.507438 210.861761  L 373.581818 210.299804  " style="fill:none;stroke:#4daf4a;stroke-linecap:square;stroke-width:1.5;"/>
   </g>
   <g id="line2d_36">
    <path clip-path="url(#p46f653ffad)" d="M 69.218182 168.884857  L 72.292562 168.995982  L 75.366942 169.328281  L 78.441322 169.878546  L 81.515702 170.641475  L 84.590083 171.609726  L 87.664463 172.77401  L 90.738843 174.123188  L 93.813223 175.644405  L 96.887603 177.323235  L 99.961983 179.143844  L 103.036364 181.089171  L 106.110744 183.14112  L 109.185124 185.280763  L 112.259504 187.488554  L 115.333884 189.744546  L 118.408264 192.028609  L 121.482645 194.320655  L 124.557025 196.600857  L 127.631405 198.849858  L 130.705785 201.048981  L 133.780165 203.180425  L 136.854545 205.227448  L 139.928926 207.174537  L 143.003306 209.00756  L 146.077686 210.713902  L 149.152066 212.28258  L 152.226446 213.704338  L 155.300826 214.971719  L 158.375207 216.079113  L 161.449587 217.02279  L 164.523967 217.800898  L 167.598347 218.413451  L 170.672727 218.862284  L 173.747107 219.150994  L 176.821488 219.284857  L 179.895868 219.270725  L 182.970248 219.116914  L 186.044628 218.833061  L 189.119008 218.429981  L 192.193388 217.919509  L 195.267769 217.314324  L 198.342149 216.627779  L 201.416529 215.873714  L 204.490909 215.066277  L 207.565289 214.219737  L 210.639669 213.3483  L 213.71405 212.465938  L 216.78843 211.586214  L 219.86281 210.72212  L 222.93719 209.885931  L 226.01157 209.089062  L 229.08595 208.341949  L 232.160331 207.653937  L 235.234711 207.033192  L 238.309091 206.486625  L 241.383471 206.019838  L 244.457851 205.637087  L 247.532231 205.341267  L 250.606612 205.133906  L 253.680992 205.015194  L 256.755372 204.984011  L 259.829752 205.037988  L 262.904132 205.173572  L 265.978512 205.386113  L 269.052893 205.669961  L 272.127273 206.018576  L 275.201653 206.424642  L 278.276033 206.880201  L 281.350413 207.376781  L 284.424793 207.905533  L 287.499174 208.457374  L 290.573554 209.023119  L 293.647934 209.593625  L 296.722314 210.159921  L 299.796694 210.713337  L 302.871074 211.245623  L 305.945455 211.749063  L 309.019835 212.216574  L 312.094215 212.641798  L 315.168595 213.019179  L 318.242975 213.344027  L 321.317355 213.612566  L 324.391736 213.821973  L 327.466116 213.970396  L 330.540496 214.05696  L 333.614876 214.08176  L 336.689256 214.045837  L 339.763636 213.95114  L 342.838017 213.800479  L 345.912397 213.597466  L 348.986777 213.346437  L 352.061157 213.052376  L 355.135537 212.720826  L 358.209917 212.357789  L 361.284298 211.969631  L 364.358678 211.56297  L 367.433058 211.144579  L 370.507438 210.721273  L 373.581818 210.299806  " style="fill:none;stroke:#984ea3;stroke-linecap:square;stroke-width:1.5;"/>
   </g>
   <g id="line2d_37">
    <path clip-path="url(#p46f653ffad)" d="M 69.218182 177.167847  L 72.292562 177.256747  L 75.366942 177.522586  L 78.441322 177.962799  L 81.515702 178.573141  L 84.590083 179.347743  L 87.664463 180.27917  L 90.738843 181.358512  L 93.813223 182.575486  L 96.887603 183.91855  L 99.961983 185.375037  L 103.036364 186.931299  L 106.110744 188.572858  L 109.185124 190.284572  L 112.259504 192.050805  L 115.333884 193.855598  L 118.408264 195.682849  L 121.482645 197.516486  L 124.557025 199.340647  L 127.631405 201.139848  L 130.705785 202.899146  L 133.780165 204.604302  L 136.854545 206.24192  L 139.928926 207.799591  L 143.003306 209.266009  L 146.077686 210.631083  L 149.152066 211.886026  L 152.226446 213.023433  L 155.300826 214.037337  L 158.375207 214.923252  L 161.449587 215.678193  L 164.523967 216.30068  L 167.598347 216.790723  L 170.672727 217.149789  L 173.747107 217.380757  L 176.821488 217.487847  L 179.895868 217.476542  L 182.970248 217.353493  L 186.044628 217.12641  L 189.119008 216.803947  L 192.193388 216.395569  L 195.267769 215.911421  L 198.342149 215.362185  L 201.416529 214.758933  L 204.490909 214.112984  L 207.565289 213.435751  L 210.639669 212.738602  L 213.71405 212.032712  L 216.78843 211.328933  L 219.86281 210.637658  L 222.93719 209.968706  L 226.01157 209.331212  L 229.08595 208.733521  L 232.160331 208.183112  L 235.234711 207.686515  L 238.309091 207.249262  L 241.383471 206.875832  L 244.457851 206.569632  L 247.532231 206.332975  L 250.606612 206.167087  L 253.680992 206.072117  L 256.755372 206.047171  L 259.829752 206.090352  L 262.904132 206.198819  L 265.978512 206.368852  L 269.052893 206.595931  L 272.127273 206.874822  L 275.201653 207.199675  L 278.276033 207.564123  L 281.350413 207.961386  L 284.424793 208.384388  L 287.499174 208.825861  L 290.573554 209.278457  L 293.647934 209.734862  L 296.722314 210.187899  L 299.796694 210.630632  L 302.871074 211.056461  L 305.945455 211.459212  L 309.019835 211.833221  L 312.094215 212.1734  L 315.168595 212.475305  L 318.242975 212.735183  L 321.317355 212.950014  L 324.391736 213.11754  L 327.466116 213.236278  L 330.540496 213.30553  L 333.614876 213.32537  L 336.689256 213.296631  L 339.763636 213.220873  L 342.838017 213.100345  L 345.912397 212.937934  L 348.986777 212.737111  L 352.061157 212.501863  L 355.135537 212.236623  L 358.209917 211.946193  L 361.284298 211.635666  L 364.358678 211.310338  L 367.433058 210.975625  L 370.507438 210.63698  L 373.581818 210.299806  " style="fill:none;stroke:#ff7f00;stroke-linecap:square;stroke-width:1.5;"/>
   </g>
   <g id="patch_3">
    <path d="M 54 256.32  L 54 34.56  " style="fill:none;"/>
   </g>
   <g id="patch_4">
    <path d="M 388.8 256.32  L 388.8 34.56  " style="fill:none;"/>
   </g>
   <g id="patch_5">
    <path d="M 54 256.32  L 388.8 256.32  " style="fill:none;"/>
   </g>
   <g id="patch_6">
    <path d="M 54 34.56  L 388.8 34.56  " style="fill:none;"/>
   </g>
   <g id="legend_1">
    <g id="line2d_38">
     <path d="M 345.4375 47.658437  L 365.4375 47.658437  " style="fill:none;stroke:#e41a1c;stroke-linecap:square;stroke-width:1.5;"/>
    </g>
    <g id="line2d_39"/>
    <g id="text_17">
     <!-- 0 -->
     <g transform="translate(373.4375 51.158437)scale(0.1 -0.1)">
      <use xlink:href="#DejaVuSans-30"/>
     </g>
    </g>
    <g id="line2d_40">
     <path d="M 345.4375 62.336562  L 365.4375 62.336562  " style="fill:none;stroke:#377eb8;stroke-linecap:square;stroke-width:1.5;"/>
    </g>
    <g id="line2d_41"/>
    <g id="text_18">
     <!-- 1 -->
     <g transform="translate(373.4375 65.836562)scale(0.1 -0.1)">
      <use xlink:href="#DejaVuSans-31"/>
     </g>
    </g>
    <g id="line2d_42">
     <path d="M 345.4375 77.014687  L 365.4375 77.014687  " style="fill:none;stroke:#4daf4a;stroke-linecap:square;stroke-width:1.5;"/>
    </g>
    <g id="line2d_43"/>
    <g id="text_19">
     <!-- 2 -->
     <g transform="translate(373.4375 80.514687)scale(0.1 -0.1)">
      <use xlink:href="#DejaVuSans-32"/>
     </g>
    </g>
    <g id="line2d_44">
     <path d="M 345.4375 91.692813  L 365.4375 91.692813  " style="fill:none;stroke:#984ea3;stroke-linecap:square;stroke-width:1.5;"/>
    </g>
    <g id="line2d_45"/>
    <g id="text_20">
     <!-- 3 -->
     <g transform="translate(373.4375 95.192813)scale(0.1 -0.1)">
      <use xlink:href="#DejaVuSans-33"/>
     </g>
    </g>
    <g id="line2d_46">
     <path d="M 345.4375 106.370937  L 365.4375 106.370937  " style="fill:none;stroke:#ff7f00;stroke-linecap:square;stroke-width:1.5;"/>
    </g>
    <g id="line2d_47"/>
    <g id="text_21">
     <!-- 4 -->
     <g transform="translate(373.4375 109.870937)scale(0.1 -0.1)">
      <use xlink:href="#DejaVuSans-34"/>
     </g>
    </g>
   </g>
  </g>
 </g>
 <defs>
  <clipPath id="p46f653ffad">
   <rect height="221.76" width="334.8" x="54" y="34.56"/>
  </clipPath>
 </defs>
</svg>