<svg xmlns="http://www.w3.org/2000/svg" xmlns:xlink="http://www.w3.org/1999/xlink" version="1.1" viewBox="0 0 460 345" viewport="0 0 1280px 960px">
 <defs>
  <style type="text/css">
*{stroke-linecap:butt;stroke-linejoin:round;}
  </style>
 </defs>
 <g id="figure_1">
  <g id="patch_1">
   <path d="M 0 345.6  L 460.8 345.6  L 460.8 0  L 0 0  z " style="fill:#ffffff;"/>
  </g>
  <g id="axes_1">
   <g id="patch_2">
    <path d="M 57.6 307.584  L 414.72 307.584  L 414.72 41.472  L 57.6 41.472  z " style="fill:#ffffff;"/>
   </g>
   <g id="matplotlib.axis_1">
    <g id="xtick_1">
     <g id="line2d_1">
      <defs>
       <path d="M 0 0  L 0 3.5  " id="m793cadbbdc" style="stroke:#000000;stroke-width:0.8;"/>
      </defs>
      <g>
       <use style="stroke:#000000;stroke-width:0.8;" x="73.832727" xlink:href="#m793cadbbdc" y="307.584"/>
      </g>
     </g>
     <g id="text_1">
      <!-- 0 -->
      <defs>
       <path d="M 31.78125 66.40625  Q 24.171875 66.40625 20.328125 58.90625  Q 16.5 51.421875 16.5 36.375  Q 16.5 21.390625 20.328125 13.890625  Q 24.171875 6.390625 31.78125 6.390625  Q 39.453125 6.390625 43.28125 13.890625  Q 47.125 21.390625 47.125 36.375  Q 47.125 51.421875 43.28125 58.90625  Q 39.453125 66.40625 31.78125 66.40625  z M 31.78125 74.21875  Q 44.046875 74.21875 50.515625 64.515625  Q 56.984375 54.828125 56.984375 36.375  Q 56.984375 17.96875 50.515625 8.265625  Q 44.046875 -1.421875 31.78125 -1.421875  Q 19.53125 -1.421875 13.0625 8.265625  Q 6.59375 17.96875 6.59375 36.375  Q 6.59375 54.828125 13.0625 64.515625  Q 19.53125 74.21875 31.78125 74.21875  z " id="DejaVuSans-30"/>
      </defs>
      <g transform="translate(70.651477 322.182437)scale(0.1 -0.1)">
       <use xlink:href="#DejaVuSans-30"/>
      </g>
     </g>
    </g>
    <g id="xtick_2">
     <g id="line2d_2">
      <g>
       <use style="stroke:#000000;stroke-width:0.8;" x="138.763636" xlink:href="#m793cadbbdc" y="307.584"/>
      </g>
     </g>
     <g id="text_2">
      <!-- 2 -->
      <defs>
       <path d="M 19.1875 8.296875  L 53.609375 8.296875  L 53.609375 0  L 7.328125 0  L 7.328125 8.296875  Q 12.9375 14.109375 22.625 23.890625  Q 32.328125 33.6875 34.8125 36.53125  Q 39.546875 41.84375 41.421875 45.53125  Q 43.3125 49.21875 43.3125 52.78125  Q 43.3125 58.59375 39.234375 62.25  Q 35.15625 65.921875 28.609375 65.921875  Q 23.96875 65.921875 18.8125 64.3125  Q 13.671875 62.703125 7.8125 59.421875  L 7.8125 69.390625  Q 13.765625 71.78125 18.9375 73  Q 24.125 74.21875 28.421875 74.21875  Q 39.75 74.21875 46.484375 68.546875  Q 53.21875 62.890625 53.21875 53.421875  Q 53.21875 48.921875 51.53125 44.890625  Q 49.859375 40.875 45.40625 35.40625  Q 44.1875 33.984375 37.640625 27.21875  Q 31.109375 20.453125 19.1875 8.296875  z " id="DejaVuSans-32"/>
      </defs>
      <g transform="translate(135.582386 322.182437)scale(0.1 -0.1)">
       <use xlink:href="#DejaVuSans-32"/>
      </g>
     </g>
    </g>
    <g id="xtick_3">
     <g id="line2d_3">
      <g>
       <use style="stroke:#000000;stroke-width:0.8;" x="203.694545" xlink:href="#m793cadbbdc" y="307.584"/>
      </g>
     </g>
     <g id="text_3">
      <!-- 4 -->
      <defs>
       <path d="M 37.796875 64.3125  L 12.890625 25.390625  L 37.796875 25.390625  z M 35.203125 72.90625  L 47.609375 72.90625  L 47.609375 25.390625  L 58.015625 25.390625  L 58.015625 17.1875  L 47.609375 17.1875  L 47.609375 0  L 37.796875 0  L 37.796875 17.1875  L 4.890625 17.1875  L 4.890625 26.703125  z " id="DejaVuSans-34"/>
      </defs>
      <g transform="translate(200.513295 322.182437)scale(0.1 -0.1)">
       <use xlink:href="#DejaVuSans-34"/>
      </g>
     </g>
    </g>
    <g id="xtick_4">
     <g id="line2d_4">
      <g>
       <use style="stroke:#000000;stroke-width:0.8;" x="268.625455" xlink:href="#m793cadbbdc" y="307.584"/>
      </g>
     </g>
     <g id="text_4">
      <!-- 6 -->
      <defs>
       <path d="M 33.015625 40.375  Q 26.375 40.375 22.484375 35.828125  Q 18.609375 31.296875 18.609375 23.390625  Q 18.609375 15.53125 22.484375 10.953125  Q 26.375 6.390625 33.015625 6.390625  Q 39.65625 6.390625 43.53125 10.953125  Q 47.40625 15.53125 47.40625 23.390625  Q 47.40625 31.296875 43.53125 35.828125  Q 39.65625 40.375 33.015625 40.375  z M 52.59375 71.296875  L 52.59375 62.3125  Q 48.875 64.0625 45.09375 64.984375  Q 41.3125 65.921875 37.59375 65.921875  Q 27.828125 65.921875 22.671875 59.328125  Q 17.53125 52.734375 16.796875 39.40625  Q 19.671875 43.65625 24.015625 45.921875  Q 28.375 48.1875 33.59375 48.1875  Q 44.578125 48.1875 50.953125 41.515625  Q 57.328125 34.859375 57.328125 23.390625  Q 57.328125 12.15625 50.6875 5.359375  Q 44.046875 -1.421875 33.015625 -1.421875  Q 20.359375 -1.421875 13.671875 8.265625  Q 6.984375 17.96875 6.984375 36.375  Q 6.984375 53.65625 15.1875 63.9375  Q 23.390625 74.21875 37.203125 74.21875  Q 40.921875 74.21875 44.703125 73.484375  Q 48.484375 72.75 52.59375 71.296875  z " id="DejaVuSans-36"/>
      </defs>
      <g transform="translate(265.444205 322.182437)scale(0.1 -0.1)">
       <use xlink:href="#DejaVuSans-36"/>
      </g>
     </g>
    </g>
    <g id="xtick_5">
     <g id="line2d_5">
      <g>
       <use style="stroke:#000000;stroke-width:0.8;" x="333.556364" xlink:href="#m793cadbbdc" y="307.584"/>
      </g>
     </g>
     <g id="text_5">
      <!-- 8 -->
      <defs>
       <path d="M 31.78125 34.625  Q 24.75 34.625 20.71875 30.859375  Q 16.703125 27.09375 16.703125 20.515625  Q 16.703125 13.921875 20.71875 10.15625  Q 24.75 6.390625 31.78125 6.390625  Q 38.8125 6.390625 42.859375 10.171875  Q 46.921875 13.96875 46.921875 20.515625  Q 46.921875 27.09375 42.890625 30.859375  Q 38.875 34.625 31.78125 34.625  z M 21.921875 38.8125  Q 15.578125 40.375 12.03125 44.71875  Q 8.5 49.078125 8.5 55.328125  Q 8.5 64.0625 14.71875 69.140625  Q 20.953125 74.21875 31.78125 74.21875  Q 42.671875 74.21875 48.875 69.140625  Q 55.078125 64.0625 55.078125 55.328125  Q 55.078125 49.078125 51.53125 44.71875  Q 48 40.375 41.703125 38.8125  Q 48.828125 37.15625 52.796875 32.3125  Q 56.78125 27.484375 56.78125 20.515625  Q 56.78125 9.90625 50.3125 4.234375  Q 43.84375 -1.421875 31.78125 -1.421875  Q 19.734375 -1.421875 13.25 4.234375  Q 6.78125 9.90625 6.78125 20.515625  Q 6.78125 27.484375 10.78125 32.3125  Q 14.796875 37.15625 21.921875 38.8125  z M 18.3125 54.390625  Q 18.3125 48.734375 21.84375 45.5625  Q 25.390625 42.390625 31.78125 42.390625  Q 38.140625 42.390625 41.71875 45.5625  Q 45.3125 48.734375 45.3125 54.390625  Q 45.3125 60.0625 41.71875 63.234375  Q 38.140625 66.40625 31.78125 66.40625  Q 25.390625 66.40625 21.84375 63.234375  Q 18.3125 60.0625 18.3125 54.390625  z " id="DejaVuSans-38"/>
      </defs>
      <g transform="translate(330.375114 322.182437)scale(0.1 -0.1)">
       <use xlink:href="#DejaVuSans-38"/>
      </g>
     </g>
    </g>
    <g id="xtick_6">
     <g id="line2d_6">
      <g>
       <use style="stroke:#000000;stroke-width:0.8;" x="398.487273" xlink:href="#m793cadbbdc" y="307.584"/>
      </g>
     </g>
     <g id="text_6">
      <!-- 10 -->
      <defs>
       <path d="M 12.40625 8.296875  L 28.515625 8.296875  L 28.515625 63.921875  L 10.984375 60.40625  L 10.984375 69.390625  L 28.421875 72.90625  L 38.28125 72.90625  L 38.28125 8.296875  L 54.390625 8.296875  L 54.390625 0  L 12.40625 0  z " id="DejaVuSans-31"/>
      </defs>
      <g transform="translate(392.124773 322.182437)scale(0.1 -0.1)">
       <use xlink:href="#DejaVuSans-31"/>
       <use x="63.623047" xlink:href="#DejaVuSans-30"/>
      </g>
     </g>
    </g>
    <g id="text_7">
     <!-- $t$ -->
     <defs>
      <path d="M 42.28125 54.6875  L 40.921875 47.703125  L 23 47.703125  L 17.1875 18.015625  Q 16.890625 16.359375 16.75 15.234375  Q 16.609375 14.109375 16.609375 13.484375  Q 16.609375 10.359375 18.484375 8.9375  Q 20.359375 7.515625 24.515625 7.515625  L 33.59375 7.515625  L 32.078125 0  L 23.484375 0  Q 15.484375 0 11.546875 3.125  Q 7.625 6.25 7.625 12.59375  Q 7.625 13.71875 7.765625 15.0625  Q 7.90625 16.40625 8.203125 18.015625  L 14.015625 47.703125  L 6.390625 47.703125  L 7.8125 54.6875  L 15.28125 54.6875  L 18.3125 70.21875  L 27.296875 70.21875  L 24.3125 54.6875  z " id="DejaVuSans-Oblique-74"/>
     </defs>
     <g transform="translate(234.16 335.860562)scale(0.1 -0.1)">
      <use transform="translate(0 0.78125)" xlink:href="#DejaVuSans-Oblique-74"/>
     </g>
    </g>
   </g>
   <g id="matplotlib.axis_2">
    <g id="ytick_1">
     <g id="line2d_7">
      <defs>
       <path d="M 0 0  L -3.5 0  " id="m141b5c99a3" style="stroke:#000000;stroke-width:0.8;"/>
      </defs>
      <g>
       <use style="stroke:#000000;stroke-width:0.8;" x="57.6" xlink:href="#m141b5c99a3" y="287.209735"/>
      </g>
     </g>
     <g id="text_8">
      <!-- &#8722;4 -->
      <defs>
       <path d="M 10.59375 35.5  L 73.1875 35.5  L 73.1875 27.203125  L 10.59375 27.203125  z " id="DejaVuSans-2212"/>
      </defs>
      <g transform="translate(35.857813 291.008954)scale(0.1 -0.1)">
       <use xlink:href="#DejaVuSans-2212"/>
       <use x="83.789062" xlink:href="#DejaVuSans-34"/>
      </g>
     </g>
    </g>
    <g id="ytick_2">
     <g id="line2d_8">
      <g>
       <use style="stroke:#000000;stroke-width:0.8;" x="57.6" xlink:href="#m141b5c99a3" y="230.051331"/>
      </g>
     </g>
     <g id="text_9">
      <!-- &#8722;2 -->
      <g transform="translate(35.857813 233.850549)scale(0.1 -0.1)">
       <use xlink:href="#DejaVuSans-2212"/>
       <use x="83.789062" xlink:href="#DejaVuSans-32"/>
      </g>
     </g>
    </g>
    <g id="ytick_3">
     <g id="line2d_9">
      <g>
       <use style="stroke:#000000;stroke-width:0.8;" x="57.6" xlink:href="#m141b5c99a3" y="172.892926"/>
      </g>
     </g>
     <g id="text_10">
      <!-- 0 -->
      <g transform="translate(44.2375 176.692145)scale(0.1 -0.1)">
       <use xlink:href="#DejaVuSans-30"/>
      </g>
     </g>
    </g>
    <g id="ytick_4">
     <g id="line2d_10">
      <g>
       <use style="stroke:#000000;stroke-width:0.8;" x="57.6" xlink:href="#m141b5c99a3" y="115.734521"/>
      </g>
     </g>
     <g id="text_11">
      <!-- 2 -->
      <g transform="translate(44.2375 119.53374)scale(0.1 -0.1)">
       <use xlink:href="#DejaVuSans-32"/>
      </g>
     </g>
    </g>
    <g id="ytick_5">
     <g id="line2d_11">
      <g>
       <use style="stroke:#000000;stroke-width:0.8;" x="57.6" xlink:href="#m141b5c99a3" y="58.576117"/>
      </g>
     </g>
     <g id="text_12">
      <!-- 4 -->
      <g transform="translate(44.2375 62.375335)scale(0.1 -0.1)">
       <use xlink:href="#DejaVuSans-34"/>
      </g>
     </g>
    </g>
   </g>
   <g id="line2d_12">
    <path clip-path="url(#pc7f1e93689)" d="M 73.832727 85.966634  L 77.079273 85.966634  L 80.325818 86.109292  L 83.572364 86.391042  L 86.818909 86.815501  L 90.065455 87.393104  L 93.312 88.141088  L 96.558545 89.08379  L 99.805091 90.253245  L 103.051636 91.690045  L 106.298182 93.444443  L 109.544727 95.577629  L 112.791273 98.163081  L 116.037818 101.28775  L 119.284364 105.05269  L 122.530909 109.572391  L 125.777455 114.971621  L 129.024 121.377906  L 132.270545 128.907049  L 135.517091 137.638726  L 138.763636 147.580352  L 142.010182 158.621909  L 145.256727 170.493953  L 148.503273 182.753461  L 151.749818 194.826288  L 154.996364 206.113992  L 158.242909 216.127364  L 161.489455 224.578949  L 164.736 231.392687  L 167.982545 236.647308  L 171.229091 240.500545  L 174.475636 243.128584  L 177.722182 244.690065  L 180.968727 245.309538  L 184.215273 245.07238  L 187.461818 244.025241  L 190.708364 242.178664  L 193.954909 239.510466  L 197.201455 235.969695  L 200.448 231.481862  L 203.694545 225.956903  L 206.941091 219.3021  L 210.187636 211.442725  L 213.434182 202.352888  L 216.680727 192.096379  L 219.927273 180.870636  L 223.173818 169.036003  L 226.420364 157.10351  L 229.666909 145.661591  L 232.913455 135.255637  L 236.16 126.274525  L 239.406545 118.901106  L 242.653091 113.138376  L 245.899636 108.87685  L 249.146182 105.96191  L 252.392727 104.240642  L 255.639273 103.587124  L 258.885818 103.912858  L 262.132364 105.168971  L 265.378909 107.344423  L 268.625455 110.462185  L 271.872 114.573682  L 275.118545 119.750611  L 278.365091 126.072248  L 281.611636 133.605674  L 284.858182 142.376473  L 288.104727 152.32957  L 291.351273 163.285801  L 294.597818 174.909847  L 297.844364 186.714653  L 301.090909 198.123575  L 304.337455 208.582816  L 307.584 217.676646  L 310.830545 225.187607  L 314.077091 231.081845  L 317.323636 235.447435  L 320.570182 238.426818  L 323.816727 240.167071  L 327.063273 240.791655  L 330.309818 240.387936  L 333.556364 239.003895  L 336.802909 236.649589  L 340.049455 233.30127  L 343.296 228.907861  L 346.542545 223.400807  L 349.789091 216.709334  L 353.035636 208.783685  L 356.282182 199.62823  L 359.528727 189.342994  L 362.775273 178.164741  L 366.021818 166.488112  L 369.268364 154.8413  L 372.514909 143.803225  L 375.761455 133.884853  L 379.008 125.430468  L 382.254545 118.586223  L 385.501091 113.336269  L 388.747636 109.569688  L 391.994182 107.142207  L 395.240727 105.917368  L 398.487273 105.788115  " style="fill:none;stroke:#1f77b4;stroke-linecap:square;stroke-width:1.5;"/>
   </g>
   <g id="line2d_13">
    <path clip-path="url(#pc7f1e93689)" d="M 73.832727 172.892926  L 77.079273 174.319506  L 80.325818 175.710421  L 83.572364 177.137518  L 86.818909 178.668961  L 90.065455 180.372762  L 93.312 182.319946  L 96.558545 184.587475  L 99.805091 187.260932  L 103.051636 190.436905  L 106.298182 194.224788  L 109.544727 198.747438  L 112.791273 204.139617  L 116.037818 210.542329  L 119.284364 218.089935  L 122.530909 226.885223  L 125.777455 236.955782  L 129.024 248.184358  L 132.270545 260.209691  L 135.517091 272.30919  L 138.763636 283.308496  L 142.010182 291.613367  L 145.256727 295.488  L 148.503273 293.621201  L 151.749818 285.769965  L 154.996364 273.026644  L 158.242909 257.408774  L 161.489455 241.030307  L 164.736 225.43914  L 167.982545 211.425294  L 171.229091 199.173312  L 174.475636 188.507744  L 177.722182 179.087652  L 180.968727 170.521343  L 184.215273 162.421538  L 187.461818 154.42716  L 190.708364 146.210944  L 193.954909 137.485213  L 197.201455 128.014593  L 200.448 117.643343  L 203.694545 106.34489  L 206.941091 94.299182  L 210.187636 81.994552  L 213.434182 70.327841  L 216.680727 60.635492  L 219.927273 54.546595  L 223.173818 53.568  L 226.420364 58.473736  L 229.666909 68.833388  L 232.913455 83.081797  L 236.16 99.158736  L 239.406545 115.265631  L 242.653091 130.277668  L 245.899636 143.743527  L 249.146182 155.680239  L 252.392727 166.357747  L 255.639273 176.15027  L 258.885818 185.454055  L 262.132364 194.647447  L 265.378909 204.070542  L 268.625455 214.007896  L 271.872 224.662218  L 275.118545 236.109292  L 278.365091 248.227193  L 281.611636 260.600914  L 284.858182 272.423894  L 288.104727 282.45524  L 291.351273 289.133387  L 294.597818 290.940978  L 297.844364 286.982153  L 301.090909 277.485331  L 304.337455 263.831225  L 307.584 248.002544  L 310.830545 231.835305  L 314.077091 216.548823  L 317.323636 202.686751  L 320.570182 190.295456  L 323.816727 179.138767  L 327.063273 168.85574  L 330.309818 159.052518  L 333.556364 149.349862  L 336.802909 139.409735  L 340.049455 128.95884  L 343.296 117.822387  L 346.542545 105.978189  L 349.789091 93.636443  L 353.035636 81.338375  L 356.282182 70.040567  L 359.528727 61.110395  L 362.775273 56.126633  L 366.021818 56.424806  L 369.268364 62.512177  L 372.514909 73.709207  L 375.761455 88.349071  L 379.008 104.450478  L 382.254545 120.393386  L 385.501091 135.22712  L 388.747636 148.618113  L 391.994182 160.644538  L 395.240727 171.600394  L 398.487273 181.864364  " style="fill:none;stroke:#ff7f0e;stroke-linecap:square;stroke-width:1.5;"/>
   </g>
   <g id="patch_3">
    <path d="M 57.6 307.584  L 57.6 41.472  " style="fill:none;stroke:#000000;stroke-linecap:square;stroke-linejoin:miter;stroke-width:0.8;"/>
   </g>
   <g id="patch_4">
    <path d="M 414.72 307.584  L 414.72 41.472  " style="fill:none;stroke:#000000;stroke-linecap:square;stroke-linejoin:miter;stroke-width:0.8;"/>
   </g>
   <g id="patch_5">
    <path d="M 57.6 307.584  L 414.72 307.584  " style="fill:none;stroke:#000000;stroke-linecap:square;stroke-linejoin:miter;stroke-width:0.8;"/>
   </g>
   <g id="patch_6">
    <path d="M 57.6 41.472  L 414.72 41.472  " style="fill:none;stroke:#000000;stroke-linecap:square;stroke-linejoin:miter;stroke-width:0.8;"/>
   </g>
   <g id="legend_1">
    <g id="patch_7">
     <path d="M 64.6 78.82825  L 116.7 78.82825  Q 118.7 78.82825 118.7 76.82825  L 118.7 48.472  Q 118.7 46.472 116.7 46.472  L 64.6 46.472  Q 62.6 46.472 62.6 48.472  L 62.6 76.82825  Q 62.6 78.82825 64.6 78.82825  z " style="fill:#ffffff;opacity:0.8;stroke:#cccccc;stroke-linejoin:miter;"/>
    </g>
    <g id="line2d_14">
     <path d="M 66.6 54.570437  L 86.6 54.570437  " style="fill:none;stroke:#1f77b4;stroke-linecap:square;stroke-width:1.5;"/>
    </g>
    <g id="line2d_15"/>
    <g id="text_13">
     <!-- $\theta(t)$ -->
     <defs>
      <path d="M 45.515625 34.671875  L 14.453125 34.671875  Q 12.359375 20.0625 14.5 13.875  Q 17.1875 6.25 24.46875 6.25  Q 31.78125 6.25 37.359375 13.921875  Q 42.234375 20.65625 45.515625 34.671875  z M 47.015625 42.96875  Q 48.34375 56.84375 46.625 61.71875  Q 43.953125 69.4375 36.765625 69.4375  Q 29.296875 69.4375 23.828125 61.8125  Q 19.53125 55.671875 16.15625 42.96875  z M 38.1875 76.765625  Q 49.90625 76.765625 54.59375 66.40625  Q 59.28125 56.109375 55.71875 37.84375  Q 52.203125 19.625 43.453125 9.28125  Q 34.765625 -1.125 23.046875 -1.125  Q 11.28125 -1.125 6.640625 9.28125  Q 2 19.625 5.515625 37.84375  Q 9.078125 56.109375 17.71875 66.40625  Q 26.421875 76.765625 38.1875 76.765625  z " id="DejaVuSans-Oblique-3b8"/>
      <path d="M 31 75.875  Q 24.46875 64.65625 21.28125 53.65625  Q 18.109375 42.671875 18.109375 31.390625  Q 18.109375 20.125 21.3125 9.0625  Q 24.515625 -2 31 -13.1875  L 23.1875 -13.1875  Q 15.875 -1.703125 12.234375 9.375  Q 8.59375 20.453125 8.59375 31.390625  Q 8.59375 42.28125 12.203125 53.3125  Q 15.828125 64.359375 23.1875 75.875  z " id="DejaVuSans-28"/>
      <path d="M 8.015625 75.875  L 15.828125 75.875  Q 23.140625 64.359375 26.78125 53.3125  Q 30.421875 42.28125 30.421875 31.390625  Q 30.421875 20.453125 26.78125 9.375  Q 23.140625 -1.703125 15.828125 -13.1875  L 8.015625 -13.1875  Q 14.5 -2 17.703125 9.0625  Q 20.90625 20.125 20.90625 31.390625  Q 20.90625 42.671875 17.703125 53.65625  Q 14.5 64.65625 8.015625 75.875  z " id="DejaVuSans-29"/>
     </defs>
     <g transform="translate(94.6 58.070437)scale(0.1 -0.1)">
      <use transform="translate(0 0.234375)" xlink:href="#DejaVuSans-Oblique-3b8"/>
      <use transform="translate(61.181641 0.234375)" xlink:href="#DejaVuSans-28"/>
      <use transform="translate(100.195312 0.234375)" xlink:href="#DejaVuSans-Oblique-74"/>
      <use transform="translate(139.404297 0.234375)" xlink:href="#DejaVuSans-29"/>
     </g>
    </g>
    <g id="line2d_16">
     <path d="M 66.6 69.248562  L 86.6 69.248562  " style="fill:none;stroke:#ff7f0e;stroke-linecap:square;stroke-width:1.5;"/>
    </g>
    <g id="line2d_17"/>
    <g id="text_14">
     <!-- $\omega(t)$ -->
     <defs>
      <path d="M 21.390625 -1.421875  Q 1.125 -1.421875 6.78125 27.59375  Q 8.984375 39.0625 19.625 54.6875  L 29.296875 54.6875  Q 19.234375 39.0625 17 27.34375  Q 12.796875 6.203125 23.734375 6.203125  Q 33.84375 6.203125 38.71875 32.46875  L 47.015625 32.46875  Q 41.703125 6.0625 51.8125 6.203125  Q 62.703125 6.296875 66.796875 27.34375  Q 69.046875 39.0625 65.140625 54.6875  L 74.8125 54.6875  Q 79.296875 39.0625 77.09375 27.59375  Q 71.53125 -1.46875 51.21875 -1.421875  Q 37.9375 -1.375 39.109375 13.1875  Q 34.28125 -1.421875 21.390625 -1.421875  z " id="DejaVuSans-Oblique-3c9"/>
     </defs>
     <g transform="translate(94.6 72.748562)scale(0.1 -0.1)">
      <use transform="translate(0 0.125)" xlink:href="#DejaVuSans-Oblique-3c9"/>
      <use transform="translate(83.740234 0.125)" xlink:href="#DejaVuSans-28"/>
      <use transform="translate(122.753906 0.125)" xlink:href="#DejaVuSans-Oblique-74"/>
      <use transform="translate(161.962891 0.125)" xlink:href="#DejaVuSans-29"/>
     </g>
    </g>
   </g>
  </g>
 </g>
 <defs>
  <clipPath id="pc7f1e93689">
   <rect height="266.112" width="357.12" x="57.6" y="41.472"/>
  </clipPath>
 </defs>
</svg>