<svg xmlns="http://www.w3.org/2000/svg" xmlns:xlink="http://www.w3.org/1999/xlink" version="1.1" viewBox="0 0 460 345" viewport="0 0 1280px 960px">
 <defs>
  <style type="text/css">
*{stroke-linecap:butt;stroke-linejoin:round;}
  </style>
 </defs>
 <g id="figure_1">
  <g id="patch_1">
   <path d="M 0 345.6  L 460.8 345.6  L 460.8 0  L 0 0  z " style="fill:#ffffff;"/>
  </g>
  <g id="axes_1">
   <g id="patch_2">
    <path d="M 57.6 307.584  L 414.72 307.584  L 414.72 41.472  L 57.6 41.472  z " style="fill:#ffffff;"/>
   </g>
   <g id="matplotlib.axis_1">
    <g id="xtick_1">
     <g id="line2d_1">
      <defs>
       <path d="M 0 0  L 0 3.5  " id="m185b231f69" style="stroke:#000000;stroke-width:0.8;"/>
      </defs>
      <g>
       <use style="stroke:#000000;stroke-width:0.8;" x="73.832727" xlink:href="#m185b231f69" y="307.584"/>
      </g>
     </g>
     <g id="text_1">
      <!-- 0 -->
      <defs>
       <path d="M 31.78125 66.40625  Q 24.171875 66.40625 20.328125 58.90625  Q 16.5 51.421875 16.5 36.375  Q 16.5 21.390625 20.328125 13.890625  Q 24.171875 6.390625 31.78125 6.390625  Q 39.453125 6.390625 43.28125 13.890625  Q 47.125 21.390625 47.125 36.375  Q 47.125 51.421875 43.28125 58.90625  Q 39.453125 66.40625 31.78125 66.40625  z M 31.78125 74.21875  Q 44.046875 74.21875 50.515625 64.515625  Q 56.984375 54.828125 56.984375 36.375  Q 56.984375 17.96875 50.515625 8.265625  Q 44.046875 -1.421875 31.78125 -1.421875  Q 19.53125 -1.421875 13.0625 8.265625  Q 6.59375 17.96875 6.59375 36.375  Q 6.59375 54.828125 13.0625 64.515625  Q 19.53125 74.21875 31.78125 74.21875  z " id="DejaVuSans-30"/>
      </defs>
      <g transform="translate(70.651477 322.182437)scale(0.1 -0.1)">
       <use xlink:href="#DejaVuSans-30"/>
      </g>
     </g>
    </g>
    <g id="xtick_2">
     <g id="line2d_2">
      <g>
       <use style="stroke:#000000;stroke-width:0.8;" x="138.763636" xlink:href="#m185b231f69" y="307.584"/>
      </g>
     </g>
     <g id="text_2">
      <!-- 2 -->
      <defs>
       <path d="M 19.1875 8.296875  L 53.609375 8.296875  L 53.609375 0  L 7.328125 0  L 7.328125 8.296875  Q 12.9375 14.109375 22.625 23.890625  Q 32.328125 33.6875 34.8125 36.53125  Q 39.546875 41.84375 41.421875 45.53125  Q 43.3125 49.21875 43.3125 52.78125  Q 43.3125 58.59375 39.234375 62.25  Q 35.15625 65.921875 28.609375 65.921875  Q 23.96875 65.921875 18.8125 64.3125  Q 13.671875 62.703125 7.8125 59.421875  L 7.8125 69.390625  Q 13.765625 71.78125 18.9375 73  Q 24.125 74.21875 28.421875 74.21875  Q 39.75 74.21875 46.484375 68.546875  Q 53.21875 62.890625 53.21875 53.421875  Q 53.21875 48.921875 51.53125 44.890625  Q 49.859375 40.875 45.40625 35.40625  Q 44.1875 33.984375 37.640625 27.21875  Q 31.109375 20.453125 19.1875 8.296875  z " id="DejaVuSans-32"/>
      </defs>
      <g transform="translate(135.582386 322.182437)scale(0.1 -0.1)">
       <use xlink:href="#DejaVuSans-32"/>
      </g>
     </g>
    </g>
    <g id="xtick_3">
     <g id="line2d_3">
      <g>
       <use style="stroke:#000000;stroke-width:0.8;" x="203.694545" xlink:href="#m185b231f69" y="307.584"/>
      </g>
     </g>
     <g id="text_3">
      <!-- 4 -->
      <defs>
       <path d="M 37.796875 64.3125  L 12.890625 25.390625  L 37.796875 25.390625  z M 35.203125 72.90625  L 47.609375 72.90625  L 47.609375 25.390625  L 58.015625 25.390625  L 58.015625 17.1875  L 47.609375 17.1875  L 47.609375 0  L 37.796875 0  L 37.796875 17.1875  L 4.890625 17.1875  L 4.890625 26.703125  z " id="DejaVuSans-34"/>
      </defs>
      <g transform="translate(200.513295 322.182437)scale(0.1 -0.1)">
       <use xlink:href="#DejaVuSans-34"/>
      </g>
     </g>
    </g>
    <g id="xtick_4">
     <g id="line2d_4">
      <g>
       <use style="stroke:#000000;stroke-width:0.8;" x="268.625455" xlink:href="#m185b231f69" y="307.584"/>
      </g>
     </g>
     <g id="text_4">
      <!-- 6 -->
      <defs>
       <path d="M 33.015625 40.375  Q 26.375 40.375 22.484375 35.828125  Q 18.609375 31.296875 18.609375 23.390625  Q 18.609375 15.53125 22.484375 10.953125  Q 26.375 6.390625 33.015625 6.390625  Q 39.65625 6.390625 43.53125 10.953125  Q 47.40625 15.53125 47.40625 23.390625  Q 47.40625 31.296875 43.53125 35.828125  Q 39.65625 40.375 33.015625 40.375  z M 52.59375 71.296875  L 52.59375 62.3125  Q 48.875 64.0625 45.09375 64.984375  Q 41.3125 65.921875 37.59375 65.921875  Q 27.828125 65.921875 22.671875 59.328125  Q 17.53125 52.734375 16.796875 39.40625  Q 19.671875 43.65625 24.015625 45.921875  Q 28.375 48.1875 33.59375 48.1875  Q 44.578125 48.1875 50.953125 41.515625  Q 57.328125 34.859375 57.328125 23.390625  Q 57.328125 12.15625 50.6875 5.359375  Q 44.046875 -1.421875 33.015625 -1.421875  Q 20.359375 -1.421875 13.671875 8.265625  Q 6.984375 17.96875 6.984375 36.375  Q 6.984375 53.65625 15.1875 63.9375  Q 23.390625 74.21875 37.203125 74.21875  Q 40.921875 74.21875 44.703125 73.484375  Q 48.484375 72.75 52.59375 71.296875  z " id="DejaVuSans-36"/>
      </defs>
      <g transform="translate(265.444205 322.182437)scale(0.1 -0.1)">
       <use xlink:href="#DejaVuSans-36"/>
      </g>
     </g>
    </g>
    <g id="xtick_5">
     <g id="line2d_5">
      <g>
       <use style="stroke:#000000;stroke-width:0.8;" x="333.556364" xlink:href="#m185b231f69" y="307.584"/>
      </g>
     </g>
     <g id="text_5">
      <!-- 8 -->
      <defs>
       <path d="M 31.78125 34.625  Q 24.75 34.625 20.71875 30.859375  Q 16.703125 27.09375 16.703125 20.515625  Q 16.703125 13.921875 20.71875 10.15625  Q 24.75 6.390625 31.78125 6.390625  Q 38.8125 6.390625 42.859375 10.171875  Q 46.921875 13.96875 46.921875 20.515625  Q 46.921875 27.09375 42.890625 30.859375  Q 38.875 34.625 31.78125 34.625  z M 21.921875 38.8125  Q 15.578125 40.375 12.03125 44.71875  Q 8.5 49.078125 8.5 55.328125  Q 8.5 64.0625 14.71875 69.140625  Q 20.953125 74.21875 31.78125 74.21875  Q 42.671875 74.21875 48.875 69.140625  Q 55.078125 64.0625 55.078125 55.328125  Q 55.078125 49.078125 51.53125 44.71875  Q 48 40.375 41.703125 38.8125  Q 48.828125 37.15625 52.796875 32.3125  Q 56.78125 27.484375 56.78125 20.515625  Q 56.78125 9.90625 50.3125 4.234375  Q 43.84375 -1.421875 31.78125 -1.421875  Q 19.734375 -1.421875 13.25 4.234375  Q 6.78125 9.90625 6.78125 20.515625  Q 6.78125 27.484375 10.78125 32.3125  Q 14.796875 37.15625 21.921875 38.8125  z M 18.3125 54.390625  Q 18.3125 48.734375 21.84375 45.5625  Q 25.390625 42.390625 31.78125 42.390625  Q 38.140625 42.390625 41.71875 45.5625  Q 45.3125 48.734375 45.3125 54.390625  Q 45.3125 60.0625 41.71875 63.234375  Q 38.140625 66.40625 31.78125 66.40625  Q 25.390625 66.40625 21.84375 63.234375  Q 18.3125 60.0625 18.3125 54.390625  z " id="DejaVuSans-38"/>
      </defs>
      <g transform="translate(330.375114 322.182437)scale(0.1 -0.1)">
       <use xlink:href="#DejaVuSans-38"/>
      </g>
     </g>
    </g>
    <g id="xtick_6">
     <g id="line2d_6">
      <g>
       <use style="stroke:#000000;stroke-width:0.8;" x="398.487273" xlink:href="#m185b231f69" y="307.584"/>
      </g>
     </g>
     <g id="text_6">
      <!-- 10 -->
      <defs>
       <path d="M 12.40625 8.296875  L 28.515625 8.296875  L 28.515625 63.921875  L 10.984375 60.40625  L 10.984375 69.390625  L 28.421875 72.90625  L 38.28125 72.90625  L 38.28125 8.296875  L 54.390625 8.296875  L 54.390625 0  L 12.40625 0  z " id="DejaVuSans-31"/>
      </defs>
      <g transform="translate(392.124773 322.182437)scale(0.1 -0.1)">
       <use xlink:href="#DejaVuSans-31"/>
       <use x="63.623047" xlink:href="#DejaVuSans-30"/>
      </g>
     </g>
    </g>
    <g id="text_7">
     <!-- $t$ -->
     <defs>
      <path d="M 42.28125 54.6875  L 40.921875 47.703125  L 23 47.703125  L 17.1875 18.015625  Q 16.890625 16.359375 16.75 15.234375  Q 16.609375 14.109375 16.609375 13.484375  Q 16.609375 10.359375 18.484375 8.9375  Q 20.359375 7.515625 24.515625 7.515625  L 33.59375 7.515625  L 32.078125 0  L 23.484375 0  Q 15.484375 0 11.546875 3.125  Q 7.625 6.25 7.625 12.59375  Q 7.625 13.71875 7.765625 15.0625  Q 7.90625 16.40625 8.203125 18.015625  L 14.015625 47.703125  L 6.390625 47.703125  L 7.8125 54.6875  L 15.28125 54.6875  L 18.3125 70.21875  L 27.296875 70.21875  L 24.3125 54.6875  z " id="DejaVuSans-Oblique-74"/>
     </defs>
     <g transform="translate(234.16 335.860562)scale(0.1 -0.1)">
      <use transform="translate(0 0.78125)" xlink:href="#DejaVuSans-Oblique-74"/>
     </g>
    </g>
   </g>
   <g id="matplotlib.axis_2">
    <g id="ytick_1">
     <g id="line2d_7">
      <defs>
       <path d="M 0 0  L -3.5 0  " id="m8dca3b5cd4" style="stroke:#000000;stroke-width:0.8;"/>
      </defs>
      <g>
       <use style="stroke:#000000;stroke-width:0.8;" x="57.6" xlink:href="#m8dca3b5cd4" y="294.439441"/>
      </g>
     </g>
     <g id="text_8">
      <!-- &#8722;4 -->
      <defs>
       <path d="M 10.59375 35.5  L 73.1875 35.5  L 73.1875 27.203125  L 10.59375 27.203125  z " id="DejaVuSans-2212"/>
      </defs>
      <g transform="translate(35.857813 298.23866)scale(0.1 -0.1)">
       <use xlink:href="#DejaVuSans-2212"/>
       <use x="83.789062" xlink:href="#DejaVuSans-34"/>
      </g>
     </g>
    </g>
    <g id="ytick_2">
     <g id="line2d_8">
      <g>
       <use style="stroke:#000000;stroke-width:0.8;" x="57.6" xlink:href="#m8dca3b5cd4" y="261.853228"/>
      </g>
     </g>
     <g id="text_9">
      <!-- &#8722;3 -->
      <defs>
       <path d="M 40.578125 39.3125  Q 47.65625 37.796875 51.625 33  Q 55.609375 28.21875 55.609375 21.1875  Q 55.609375 10.40625 48.1875 4.484375  Q 40.765625 -1.421875 27.09375 -1.421875  Q 22.515625 -1.421875 17.65625 -0.515625  Q 12.796875 0.390625 7.625 2.203125  L 7.625 11.71875  Q 11.71875 9.328125 16.59375 8.109375  Q 21.484375 6.890625 26.8125 6.890625  Q 36.078125 6.890625 40.9375 10.546875  Q 45.796875 14.203125 45.796875 21.1875  Q 45.796875 27.640625 41.28125 31.265625  Q 36.765625 34.90625 28.71875 34.90625  L 20.21875 34.90625  L 20.21875 43.015625  L 29.109375 43.015625  Q 36.375 43.015625 40.234375 45.921875  Q 44.09375 48.828125 44.09375 54.296875  Q 44.09375 59.90625 40.109375 62.90625  Q 36.140625 65.921875 28.71875 65.921875  Q 24.65625 65.921875 20.015625 65.03125  Q 15.375 64.15625 9.8125 62.3125  L 9.8125 71.09375  Q 15.4375 72.65625 20.34375 73.4375  Q 25.25 74.21875 29.59375 74.21875  Q 40.828125 74.21875 47.359375 69.109375  Q 53.90625 64.015625 53.90625 55.328125  Q 53.90625 49.265625 50.4375 45.09375  Q 46.96875 40.921875 40.578125 39.3125  z " id="DejaVuSans-33"/>
      </defs>
      <g transform="translate(35.857813 265.652447)scale(0.1 -0.1)">
       <use xlink:href="#DejaVuSans-2212"/>
       <use x="83.789062" xlink:href="#DejaVuSans-33"/>
      </g>
     </g>
    </g>
    <g id="ytick_3">
     <g id="line2d_9">
      <g>
       <use style="stroke:#000000;stroke-width:0.8;" x="57.6" xlink:href="#m8dca3b5cd4" y="229.267015"/>
      </g>
     </g>
     <g id="text_10">
      <!-- &#8722;2 -->
      <g transform="translate(35.857813 233.066234)scale(0.1 -0.1)">
       <use xlink:href="#DejaVuSans-2212"/>
       <use x="83.789062" xlink:href="#DejaVuSans-32"/>
      </g>
     </g>
    </g>
    <g id="ytick_4">
     <g id="line2d_10">
      <g>
       <use style="stroke:#000000;stroke-width:0.8;" x="57.6" xlink:href="#m8dca3b5cd4" y="196.680802"/>
      </g>
     </g>
     <g id="text_11">
      <!-- &#8722;1 -->
      <g transform="translate(35.857813 200.48002)scale(0.1 -0.1)">
       <use xlink:href="#DejaVuSans-2212"/>
       <use x="83.789062" xlink:href="#DejaVuSans-31"/>
      </g>
     </g>
    </g>
    <g id="ytick_5">
     <g id="line2d_11">
      <g>
       <use style="stroke:#000000;stroke-width:0.8;" x="57.6" xlink:href="#m8dca3b5cd4" y="164.094588"/>
      </g>
     </g>
     <g id="text_12">
      <!-- 0 -->
      <g transform="translate(44.2375 167.893807)scale(0.1 -0.1)">
       <use xlink:href="#DejaVuSans-30"/>
      </g>
     </g>
    </g>
    <g id="ytick_6">
     <g id="line2d_12">
      <g>
       <use style="stroke:#000000;stroke-width:0.8;" x="57.6" xlink:href="#m8dca3b5cd4" y="131.508375"/>
      </g>
     </g>
     <g id="text_13">
      <!-- 1 -->
      <g transform="translate(44.2375 135.307594)scale(0.1 -0.1)">
       <use xlink:href="#DejaVuSans-31"/>
      </g>
     </g>
    </g>
    <g id="ytick_7">
     <g id="line2d_13">
      <g>
       <use style="stroke:#000000;stroke-width:0.8;" x="57.6" xlink:href="#m8dca3b5cd4" y="98.922162"/>
      </g>
     </g>
     <g id="text_14">
      <!-- 2 -->
      <g transform="translate(44.2375 102.72138)scale(0.1 -0.1)">
       <use xlink:href="#DejaVuSans-32"/>
      </g>
     </g>
    </g>
    <g id="ytick_8">
     <g id="line2d_14">
      <g>
       <use style="stroke:#000000;stroke-width:0.8;" x="57.6" xlink:href="#m8dca3b5cd4" y="66.335948"/>
      </g>
     </g>
     <g id="text_15">
      <!-- 3 -->
      <g transform="translate(44.2375 70.135167)scale(0.1 -0.1)">
       <use xlink:href="#DejaVuSans-33"/>
      </g>
     </g>
    </g>
   </g>
   <g id="line2d_15">
    <path clip-path="url(#pe88c84d12a)" d="M 73.832727 64.980601  L 77.728582 65.087465  L 81.624436 65.429898  L 85.195636 65.964031  L 88.766836 66.73419  L 92.013382 67.670857  L 94.935273 68.739396  L 97.857164 70.059082  L 100.4544 71.479038  L 103.051636 73.170621  L 105.324218 74.908417  L 107.5968 76.92256  L 109.869382 79.251924  L 112.141964 81.939922  L 114.089891 84.565434  L 116.037818 87.521654  L 117.985745 90.842155  L 119.933673 94.560872  L 121.8816 98.710614  L 123.829527 103.320947  L 126.102109 109.312657  L 128.374691 115.983043  L 130.647273 123.32535  L 133.244509 132.482084  L 136.491055 144.867275  L 147.529309 188.083405  L 149.801891 195.761664  L 152.074473 202.670304  L 154.0224 207.923551  L 155.970327 212.535198  L 157.5936 215.883553  L 159.216873 218.785283  L 160.840145 221.247493  L 162.463418 223.279658  L 163.762036 224.602831  L 165.060655 225.662972  L 166.359273 226.465285  L 167.657891 227.014528  L 168.956509 227.314873  L 170.255127 227.36982  L 171.553745 227.182145  L 172.852364 226.753901  L 174.150982 226.08645  L 175.4496 225.180538  L 176.748218 224.0364  L 178.371491 222.271016  L 179.994764 220.132639  L 181.618036 217.621019  L 183.241309 214.73709  L 185.189236 210.789596  L 187.137164 206.322849  L 189.409745 200.485871  L 191.682327 194.031739  L 194.279564 186.014966  L 197.850764 174.212758  L 205.317818 149.315466  L 207.915055 141.485778  L 210.187636 135.276498  L 212.135564 130.512589  L 214.083491 126.311326  L 215.706764 123.261016  L 217.330036 120.630986  L 218.953309 118.425869  L 220.576582 116.646593  L 221.8752 115.528706  L 223.173818 114.680624  L 224.472436 114.100214  L 225.771055 113.785078  L 227.069673 113.732683  L 228.368291 113.940439  L 229.666909 114.405722  L 230.965527 115.125845  L 232.264145 116.097989  L 233.562764 117.319084  L 235.186036 119.190168  L 236.809309 121.436511  L 238.432582 124.047648  L 240.380509 127.643237  L 242.328436 131.713495  L 244.601018 137.006596  L 247.198255 143.667012  L 250.4448 152.662423  L 259.535127 178.360903  L 262.132364 184.866978  L 264.404945 189.972968  L 266.352873 193.842637  L 268.3008 197.201026  L 269.924073 199.588247  L 271.547345 201.589492  L 273.170618 203.197949  L 274.469236 204.199497  L 275.767855 204.946903  L 277.066473 205.440565  L 278.365091 205.681635  L 279.663709 205.671907  L 280.962327 205.413758  L 282.260945 204.910124  L 283.559564 204.16452  L 284.858182 203.181108  L 286.481455 201.624967  L 288.104727 199.716483  L 289.728 197.469762  L 291.675927 194.35172  L 293.623855 190.808373  L 295.896436 186.198058  L 298.493673 180.410582  L 302.064873 171.837407  L 309.856582 152.924071  L 312.453818 147.258463  L 314.7264 142.790225  L 316.674327 139.392478  L 318.622255 136.438372  L 320.245527 134.338637  L 321.8688 132.582481  L 323.492073 131.179253  L 324.790691 130.314822  L 326.089309 129.681661  L 327.387927 129.280256  L 328.686545 129.110094  L 329.985164 129.169748  L 331.283782 129.456919  L 332.5824 129.968454  L 333.881018 130.700334  L 335.504291 131.917445  L 337.127564 133.459295  L 338.750836 135.311468  L 340.698764 137.919075  L 342.646691 140.91231  L 344.919273 144.833576  L 347.516509 149.77969  L 351.087709 157.132346  L 358.879418 173.420067  L 361.476655 178.316065  L 363.749236 182.181445  L 365.697164 185.120899  L 367.645091 187.673252  L 369.268364 189.481947  L 370.891636 190.986643  L 372.514909 192.177428  L 374.138182 193.047733  L 375.4368 193.510763  L 376.735418 193.76586  L 378.034036 193.813579  L 379.332655 193.6555  L 380.631273 193.294196  L 381.929891 192.733226  L 383.553164 191.758266  L 385.176436 190.489662  L 386.799709 188.941167  L 388.747636 186.736949  L 390.695564 184.187597  L 392.968145 180.831068  L 395.565382 176.582885  L 398.487273 171.431888  L 398.487273 171.431888  " style="fill:none;stroke:#1f77b4;stroke-linecap:square;stroke-width:1.5;"/>
   </g>
   <g id="line2d_16">
    <path clip-path="url(#pe88c84d12a)" d="M 73.832727 164.094588  L 82.923055 168.759309  L 86.494255 170.874833  L 89.416145 172.848075  L 92.013382 174.84687  L 94.610618 177.134024  L 96.8832 179.420626  L 99.155782 182.021976  L 101.428364 184.989182  L 103.700945 188.378167  L 105.648873 191.66439  L 107.5968 195.344919  L 109.544727 199.460814  L 111.492655 204.052538  L 113.440582 209.157562  L 115.713164 215.80288  L 117.985745 223.216855  L 120.258327 231.391139  L 122.855564 241.576951  L 126.426764 256.604429  L 130.647273 274.270823  L 132.5952 281.539133  L 134.218473 286.754122  L 135.517091 290.195379  L 136.491055 292.27045  L 137.465018 293.861117  L 138.438982 294.928795  L 139.088291 295.334725  L 139.7376 295.488  L 140.386909 295.384104  L 141.036218 295.020685  L 141.685527 294.397608  L 142.334836 293.516952  L 143.3088 291.72287  L 144.282764 289.382212  L 145.256727 286.527244  L 146.555345 281.990777  L 148.178618 275.305665  L 150.126545 266.112235  L 152.723782 252.543216  L 164.086691 191.407653  L 167.982545 172.372382  L 173.501673 146.661756  L 186.487855 87.518729  L 189.085091 76.763523  L 191.033018 69.52918  L 192.656291 64.270604  L 193.954909 60.690834  L 195.253527 57.760734  L 196.227491 56.036462  L 197.201455 54.749674  L 198.175418 53.923641  L 198.824727 53.637755  L 199.474036 53.568  L 200.123345 53.716498  L 200.772655 54.083936  L 201.421964 54.669549  L 202.395927 55.951842  L 203.369891 57.706458  L 204.343855 59.913572  L 205.642473 63.515352  L 206.941091 67.802193  L 208.564364 73.996003  L 210.512291 82.42299  L 213.109527 94.861471  L 217.005382 114.88454  L 226.095709 161.96971  L 231.614836 189.183571  L 236.16 210.507818  L 239.406545 224.723422  L 242.003782 235.067981  L 243.951709 241.960621  L 245.574982 246.974762  L 246.8736 250.419955  L 248.172218 253.295418  L 249.146182 255.043942  L 250.120145 256.419135  L 251.094109 257.403257  L 252.068073 257.982437  L 252.717382 258.138718  L 253.366691 258.109075  L 254.016 257.892849  L 254.665309 257.490372  L 255.639273 256.540613  L 256.613236 255.183587  L 257.5872 253.432534  L 258.885818 250.5156  L 260.184436 246.980885  L 261.807709 241.785607  L 263.430982 235.847566  L 265.378909 227.928374  L 267.976145 216.382536  L 271.872 197.845506  L 282.910255 144.701174  L 286.481455 128.702562  L 289.403345 116.532015  L 291.675927 107.880862  L 293.623855 101.209375  L 295.247127 96.290336  L 296.8704 92.052048  L 298.169018 89.212602  L 299.467636 86.909958  L 300.4416 85.558238  L 301.415564 84.543234  L 302.389527 83.875588  L 303.363491 83.562867  L 304.0128 83.553791  L 304.662109 83.704788  L 305.636073 84.230507  L 306.610036 85.111393  L 307.584 86.33986  L 308.557964 87.905025  L 309.856582 90.491279  L 311.1552 93.611158  L 312.778473 98.19034  L 314.401745 103.430965  L 316.349673 110.446227  L 318.946909 120.743548  L 322.193455 134.601681  L 335.179636 191.076037  L 338.101527 202.354072  L 340.374109 210.338884  L 342.322036 216.485144  L 344.269964 221.857255  L 345.893236 225.652194  L 347.191855 228.191628  L 348.490473 230.2545  L 349.464436 231.471895  L 350.4384 232.395627  L 351.412364 233.018007  L 352.386327 233.333658  L 353.360291 233.339683  L 354.334255 233.035788  L 355.308218 232.424323  L 356.282182 231.510251  L 357.256145 230.30105  L 358.554764 228.246985  L 359.853382 225.714994  L 361.152 222.73964  L 362.775273 218.456317  L 364.7232 212.597196  L 366.995782 204.954298  L 369.917673 194.196398  L 374.138182 177.618812  L 381.280582 149.449299  L 384.527127 137.567797  L 387.124364 128.866273  L 389.396945 122.03383  L 391.344873 116.887074  L 392.968145 113.177233  L 394.591418 110.054896  L 395.890036 108.015187  L 397.188655 106.407963  L 398.162618 105.497927  L 398.487273 105.252147  L 398.487273 105.252147  " style="fill:none;stroke:#ff7f0e;stroke-linecap:square;stroke-width:1.5;"/>
   </g>
   <g id="patch_3">
    <path d="M 57.6 307.584  L 57.6 41.472  " style="fill:none;stroke:#000000;stroke-linecap:square;stroke-linejoin:miter;stroke-width:0.8;"/>
   </g>
   <g id="patch_4">
    <path d="M 414.72 307.584  L 414.72 41.472  " style="fill:none;stroke:#000000;stroke-linecap:square;stroke-linejoin:miter;stroke-width:0.8;"/>
   </g>
   <g id="patch_5">
    <path d="M 57.6 307.584  L 414.72 307.584  " style="fill:none;stroke:#000000;stroke-linecap:square;stroke-linejoin:miter;stroke-width:0.8;"/>
   </g>
   <g id="patch_6">
    <path d="M 57.6 41.472  L 414.72 41.472  " style="fill:none;stroke:#000000;stroke-linecap:square;stroke-linejoin:miter;stroke-width:0.8;"/>
   </g>
   <g id="legend_1">
    <g id="patch_7">
     <path d="M 355.62 78.82825  L 407.72 78.82825  Q 409.72 78.82825 409.72 76.82825  L 409.72 48.472  Q 409.72 46.472 407.72 46.472  L 355.62 46.472  Q 353.62 46.472 353.62 48.472  L 353.62 76.82825  Q 353.62 78.82825 355.62 78.82825  z " style="fill:#ffffff;opacity:0.8;stroke:#cccccc;stroke-linejoin:miter;"/>
    </g>
    <g id="line2d_17">
     <path d="M 357.62 54.570437  L 377.62 54.570437  " style="fill:none;stroke:#1f77b4;stroke-linecap:square;stroke-width:1.5;"/>
    </g>
    <g id="line2d_18"/>
    <g id="text_16">
     <!-- $\theta(t)$ -->
     <defs>
      <path d="M 45.515625 34.671875  L 14.453125 34.671875  Q 12.359375 20.0625 14.5 13.875  Q 17.1875 6.25 24.46875 6.25  Q 31.78125 6.25 37.359375 13.921875  Q 42.234375 20.65625 45.515625 34.671875  z M 47.015625 42.96875  Q 48.34375 56.84375 46.625 61.71875  Q 43.953125 69.4375 36.765625 69.4375  Q 29.296875 69.4375 23.828125 61.8125  Q 19.53125 55.671875 16.15625 42.96875  z M 38.1875 76.765625  Q 49.90625 76.765625 54.59375 66.40625  Q 59.28125 56.109375 55.71875 37.84375  Q 52.203125 19.625 43.453125 9.28125  Q 34.765625 -1.125 23.046875 -1.125  Q 11.28125 -1.125 6.640625 9.28125  Q 2 19.625 5.515625 37.84375  Q 9.078125 56.109375 17.71875 66.40625  Q 26.421875 76.765625 38.1875 76.765625  z " id="DejaVuSans-Oblique-3b8"/>
      <path d="M 31 75.875  Q 24.46875 64.65625 21.28125 53.65625  Q 18.109375 42.671875 18.109375 31.390625  Q 18.109375 20.125 21.3125 9.0625  Q 24.515625 -2 31 -13.1875  L 23.1875 -13.1875  Q 15.875 -1.703125 12.234375 9.375  Q 8.59375 20.453125 8.59375 31.390625  Q 8.59375 42.28125 12.203125 53.3125  Q 15.828125 64.359375 23.1875 75.875  z " id="DejaVuSans-28"/>
      <path d="M 8.015625 75.875  L 15.828125 75.875  Q 23.140625 64.359375 26.78125 53.3125  Q 30.421875 42.28125 30.421875 31.390625  Q 30.421875 20.453125 26.78125 9.375  Q 23.140625 -1.703125 15.828125 -13.1875  L 8.015625 -13.1875  Q 14.5 -2 17.703125 9.0625  Q 20.90625 20.125 20.90625 31.390625  Q 20.90625 42.671875 17.703125 53.65625  Q 14.5 64.65625 8.015625 75.875  z " id="DejaVuSans-29"/>
     </defs>
     <g transform="translate(385.62 58.070437)scale(0.1 -0.1)">
      <use transform="translate(0 0.234375)" xlink:href="#DejaVuSans-Oblique-3b8"/>
      <use transform="translate(61.181641 0.234375)" xlink:href="#DejaVuSans-28"/>
      <use transform="translate(100.195312 0.234375)" xlink:href="#DejaVuSans-Oblique-74"/>
      <use transform="translate(139.404297 0.234375)" xlink:href="#DejaVuSans-29"/>
     </g>
    </g>
    <g id="line2d_19">
     <path d="M 357.62 69.248562  L 377.62 69.248562  " style="fill:none;stroke:#ff7f0e;stroke-linecap:square;stroke-width:1.5;"/>
    </g>
    <g id="line2d_20"/>
    <g id="text_17">
     <!-- $\omega(t)$ -->
     <defs>
      <path d="M 21.390625 -1.421875  Q 1.125 -1.421875 6.78125 27.59375  Q 8.984375 39.0625 19.625 54.6875  L 29.296875 54.6875  Q 19.234375 39.0625 17 27.34375  Q 12.796875 6.203125 23.734375 6.203125  Q 33.84375 6.203125 38.71875 32.46875  L 47.015625 32.46875  Q 41.703125 6.0625 51.8125 6.203125  Q 62.703125 6.296875 66.796875 27.34375  Q 69.046875 39.0625 65.140625 54.6875  L 74.8125 54.6875  Q 79.296875 39.0625 77.09375 27.59375  Q 71.53125 -1.46875 51.21875 -1.421875  Q 37.9375 -1.375 39.109375 13.1875  Q 34.28125 -1.421875 21.390625 -1.421875  z " id="DejaVuSans-Oblique-3c9"/>
     </defs>
     <g transform="translate(385.62 72.748562)scale(0.1 -0.1)">
      <use transform="translate(0 0.125)" xlink:href="#DejaVuSans-Oblique-3c9"/>
      <use transform="translate(83.740234 0.125)" xlink:href="#DejaVuSans-28"/>
      <use transform="translate(122.753906 0.125)" xlink:href="#DejaVuSans-Oblique-74"/>
      <use transform="translate(161.962891 0.125)" xlink:href="#DejaVuSans-29"/>
     </g>
    </g>
   </g>
  </g>
 </g>
 <defs>
  <clipPath id="pe88c84d12a">
   <rect height="266.112" width="357.12" x="57.6" y="41.472"/>
  </clipPath>
 </defs>
</svg>