<svg xmlns="http://www.w3.org/2000/svg" xmlns:xlink="http://www.w3.org/1999/xlink" version="1.1" viewBox="0 0 460 345" viewport="0 0 1280px 960px">
 <defs>
  <style type="text/css">
*{stroke-linecap:butt;stroke-linejoin:round;}
  </style>
 </defs>
 <g id="figure_1">
  <g id="patch_1">
   <path d="M 0 345.6  L 460.8 345.6  L 460.8 0  L 0 0  z " style="fill:#ffffff;"/>
  </g>
  <g id="axes_1">
   <g id="patch_2">
    <path d="M 57.6 307.584  L 414.72 307.584  L 414.72 41.472  L 57.6 41.472  z " style="fill:#ffffff;"/>
   </g>
   <g id="matplotlib.axis_1">
    <g id="xtick_1">
     <g id="line2d_1">
      <defs>
       <path d="M 0 0  L 0 3.5  " id="ma82a27dd58" style="stroke:#000000;stroke-width:0.8;"/>
      </defs>
      <g>
       <use style="stroke:#000000;stroke-width:0.8;" x="73.832727" xlink:href="#ma82a27dd58" y="307.584"/>
      </g>
     </g>
     <g id="text_1">
      <!-- &#8722;1.00 -->
      <defs>
       <path d="M 10.59375 35.5  L 73.1875 35.5  L 73.1875 27.203125  L 10.59375 27.203125  z " id="DejaVuSans-2212"/>
       <path d="M 12.40625 8.296875  L 28.515625 8.296875  L 28.515625 63.921875  L 10.984375 60.40625  L 10.984375 69.390625  L 28.421875 72.90625  L 38.28125 72.90625  L 38.28125 8.296875  L 54.390625 8.296875  L 54.390625 0  L 12.40625 0  z " id="DejaVuSans-31"/>
       <path d="M 10.6875 12.40625  L 21 12.40625  L 21 0  L 10.6875 0  z " id="DejaVuSans-2e"/>
       <path d="M 31.78125 66.40625  Q 24.171875 66.40625 20.328125 58.90625  Q 16.5 51.421875 16.5 36.375  Q 16.5 21.390625 20.328125 13.890625  Q 24.171875 6.390625 31.78125 6.390625  Q 39.453125 6.390625 43.28125 13.890625  Q 47.125 21.390625 47.125 36.375  Q 47.125 51.421875 43.28125 58.90625  Q 39.453125 66.40625 31.78125 66.40625  z M 31.78125 74.21875  Q 44.046875 74.21875 50.515625 64.515625  Q 56.984375 54.828125 56.984375 36.375  Q 56.984375 17.96875 50.515625 8.265625  Q 44.046875 -1.421875 31.78125 -1.421875  Q 19.53125 -1.421875 13.0625 8.265625  Q 6.59375 17.96875 6.59375 36.375  Q 6.59375 54.828125 13.0625 64.515625  Q 19.53125 74.21875 31.78125 74.21875  z " id="DejaVuSans-30"/>
      </defs>
      <g transform="translate(58.510071 322.182437)scale(0.1 -0.1)">
       <use xlink:href="#DejaVuSans-2212"/>
       <use x="83.789062" xlink:href="#DejaVuSans-31"/>
       <use x="147.412109" xlink:href="#DejaVuSans-2e"/>
       <use x="179.199219" xlink:href="#DejaVuSans-30"/>
       <use x="242.822266" xlink:href="#DejaVuSans-30"/>
      </g>
     </g>
    </g>
    <g id="xtick_2">
     <g id="line2d_2">
      <g>
       <use style="stroke:#000000;stroke-width:0.8;" x="114.414545" xlink:href="#ma82a27dd58" y="307.584"/>
      </g>
     </g>
     <g id="text_2">
      <!-- &#8722;0.75 -->
      <defs>
       <path d="M 8.203125 72.90625  L 55.078125 72.90625  L 55.078125 68.703125  L 28.609375 0  L 18.3125 0  L 43.21875 64.59375  L 8.203125 64.59375  z " id="DejaVuSans-37"/>
       <path d="M 10.796875 72.90625  L 49.515625 72.90625  L 49.515625 64.59375  L 19.828125 64.59375  L 19.828125 46.734375  Q 21.96875 47.46875 24.109375 47.828125  Q 26.265625 48.1875 28.421875 48.1875  Q 40.625 48.1875 47.75 41.5  Q 54.890625 34.8125 54.890625 23.390625  Q 54.890625 11.625 47.5625 5.09375  Q 40.234375 -1.421875 26.90625 -1.421875  Q 22.3125 -1.421875 17.546875 -0.640625  Q 12.796875 0.140625 7.71875 1.703125  L 7.71875 11.625  Q 12.109375 9.234375 16.796875 8.0625  Q 21.484375 6.890625 26.703125 6.890625  Q 35.15625 6.890625 40.078125 11.328125  Q 45.015625 15.765625 45.015625 23.390625  Q 45.015625 31 40.078125 35.4375  Q 35.15625 39.890625 26.703125 39.890625  Q 22.75 39.890625 18.8125 39.015625  Q 14.890625 38.140625 10.796875 36.28125  z " id="DejaVuSans-35"/>
      </defs>
      <g transform="translate(99.091889 322.182437)scale(0.1 -0.1)">
       <use xlink:href="#DejaVuSans-2212"/>
       <use x="83.789062" xlink:href="#DejaVuSans-30"/>
       <use x="147.412109" xlink:href="#DejaVuSans-2e"/>
       <use x="179.199219" xlink:href="#DejaVuSans-37"/>
       <use x="242.822266" xlink:href="#DejaVuSans-35"/>
      </g>
     </g>
    </g>
    <g id="xtick_3">
     <g id="line2d_3">
      <g>
       <use style="stroke:#000000;stroke-width:0.8;" x="154.996364" xlink:href="#ma82a27dd58" y="307.584"/>
      </g>
     </g>
     <g id="text_3">
      <!-- &#8722;0.50 -->
      <g transform="translate(139.673707 322.182437)scale(0.1 -0.1)">
       <use xlink:href="#DejaVuSans-2212"/>
       <use x="83.789062" xlink:href="#DejaVuSans-30"/>
       <use x="147.412109" xlink:href="#DejaVuSans-2e"/>
       <use x="179.199219" xlink:href="#DejaVuSans-35"/>
       <use x="242.822266" xlink:href="#DejaVuSans-30"/>
      </g>
     </g>
    </g>
    <g id="xtick_4">
     <g id="line2d_4">
      <g>
       <use style="stroke:#000000;stroke-width:0.8;" x="195.578182" xlink:href="#ma82a27dd58" y="307.584"/>
      </g>
     </g>
     <g id="text_4">
      <!-- &#8722;0.25 -->
      <defs>
       <path d="M 19.1875 8.296875  L 53.609375 8.296875  L 53.609375 0  L 7.328125 0  L 7.328125 8.296875  Q 12.9375 14.109375 22.625 23.890625  Q 32.328125 33.6875 34.8125 36.53125  Q 39.546875 41.84375 41.421875 45.53125  Q 43.3125 49.21875 43.3125 52.78125  Q 43.3125 58.59375 39.234375 62.25  Q 35.15625 65.921875 28.609375 65.921875  Q 23.96875 65.921875 18.8125 64.3125  Q 13.671875 62.703125 7.8125 59.421875  L 7.8125 69.390625  Q 13.765625 71.78125 18.9375 73  Q 24.125 74.21875 28.421875 74.21875  Q 39.75 74.21875 46.484375 68.546875  Q 53.21875 62.890625 53.21875 53.421875  Q 53.21875 48.921875 51.53125 44.890625  Q 49.859375 40.875 45.40625 35.40625  Q 44.1875 33.984375 37.640625 27.21875  Q 31.109375 20.453125 19.1875 8.296875  z " id="DejaVuSans-32"/>
      </defs>
      <g transform="translate(180.255526 322.182437)scale(0.1 -0.1)">
       <use xlink:href="#DejaVuSans-2212"/>
       <use x="83.789062" xlink:href="#DejaVuSans-30"/>
       <use x="147.412109" xlink:href="#DejaVuSans-2e"/>
       <use x="179.199219" xlink:href="#DejaVuSans-32"/>
       <use x="242.822266" xlink:href="#DejaVuSans-35"/>
      </g>
     </g>
    </g>
    <g id="xtick_5">
     <g id="line2d_5">
      <g>
       <use style="stroke:#000000;stroke-width:0.8;" x="236.16" xlink:href="#ma82a27dd58" y="307.584"/>
      </g>
     </g>
     <g id="text_5">
      <!-- 0.00 -->
      <g transform="translate(225.027187 322.182437)scale(0.1 -0.1)">
       <use xlink:href="#DejaVuSans-30"/>
       <use x="63.623047" xlink:href="#DejaVuSans-2e"/>
       <use x="95.410156" xlink:href="#DejaVuSans-30"/>
       <use x="159.033203" xlink:href="#DejaVuSans-30"/>
      </g>
     </g>
    </g>
    <g id="xtick_6">
     <g id="line2d_6">
      <g>
       <use style="stroke:#000000;stroke-width:0.8;" x="276.741818" xlink:href="#ma82a27dd58" y="307.584"/>
      </g>
     </g>
     <g id="text_6">
      <!-- 0.25 -->
      <g transform="translate(265.609006 322.182437)scale(0.1 -0.1)">
       <use xlink:href="#DejaVuSans-30"/>
       <use x="63.623047" xlink:href="#DejaVuSans-2e"/>
       <use x="95.410156" xlink:href="#DejaVuSans-32"/>
       <use x="159.033203" xlink:href="#DejaVuSans-35"/>
      </g>
     </g>
    </g>
    <g id="xtick_7">
     <g id="line2d_7">
      <g>
       <use style="stroke:#000000;stroke-width:0.8;" x="317.323636" xlink:href="#ma82a27dd58" y="307.584"/>
      </g>
     </g>
     <g id="text_7">
      <!-- 0.50 -->
      <g transform="translate(306.190824 322.182437)scale(0.1 -0.1)">
       <use xlink:href="#DejaVuSans-30"/>
       <use x="63.623047" xlink:href="#DejaVuSans-2e"/>
       <use x="95.410156" xlink:href="#DejaVuSans-35"/>
       <use x="159.033203" xlink:href="#DejaVuSans-30"/>
      </g>
     </g>
    </g>
    <g id="xtick_8">
     <g id="line2d_8">
      <g>
       <use style="stroke:#000000;stroke-width:0.8;" x="357.905455" xlink:href="#ma82a27dd58" y="307.584"/>
      </g>
     </g>
     <g id="text_8">
      <!-- 0.75 -->
      <g transform="translate(346.772642 322.182437)scale(0.1 -0.1)">
       <use xlink:href="#DejaVuSans-30"/>
       <use x="63.623047" xlink:href="#DejaVuSans-2e"/>
       <use x="95.410156" xlink:href="#DejaVuSans-37"/>
       <use x="159.033203" xlink:href="#DejaVuSans-35"/>
      </g>
     </g>
    </g>
    <g id="xtick_9">
     <g id="line2d_9">
      <g>
       <use style="stroke:#000000;stroke-width:0.8;" x="398.487273" xlink:href="#ma82a27dd58" y="307.584"/>
      </g>
     </g>
     <g id="text_9">
      <!-- 1.00 -->
      <g transform="translate(387.35446 322.182437)scale(0.1 -0.1)">
       <use xlink:href="#DejaVuSans-31"/>
       <use x="63.623047" xlink:href="#DejaVuSans-2e"/>
       <use x="95.410156" xlink:href="#DejaVuSans-30"/>
       <use x="159.033203" xlink:href="#DejaVuSans-30"/>
      </g>
     </g>
    </g>
   </g>
   <g id="matplotlib.axis_2">
    <g id="ytick_1">
     <g id="line2d_10">
      <defs>
       <path d="M 0 0  L -3.5 0  " id="mc7427e7253" style="stroke:#000000;stroke-width:0.8;"/>
      </defs>
      <g>
       <use style="stroke:#000000;stroke-width:0.8;" x="57.6" xlink:href="#mc7427e7253" y="307.584"/>
      </g>
     </g>
     <g id="text_10">
      <!-- 0.0 -->
      <g transform="translate(34.696875 311.383219)scale(0.1 -0.1)">
       <use xlink:href="#DejaVuSans-30"/>
       <use x="63.623047" xlink:href="#DejaVuSans-2e"/>
       <use x="95.410156" xlink:href="#DejaVuSans-30"/>
      </g>
     </g>
    </g>
    <g id="ytick_2">
     <g id="line2d_11">
      <g>
       <use style="stroke:#000000;stroke-width:0.8;" x="57.6" xlink:href="#mc7427e7253" y="263.232"/>
      </g>
     </g>
     <g id="text_11">
      <!-- 0.2 -->
      <g transform="translate(34.696875 267.031219)scale(0.1 -0.1)">
       <use xlink:href="#DejaVuSans-30"/>
       <use x="63.623047" xlink:href="#DejaVuSans-2e"/>
       <use x="95.410156" xlink:href="#DejaVuSans-32"/>
      </g>
     </g>
    </g>
    <g id="ytick_3">
     <g id="line2d_12">
      <g>
       <use style="stroke:#000000;stroke-width:0.8;" x="57.6" xlink:href="#mc7427e7253" y="218.88"/>
      </g>
     </g>
     <g id="text_12">
      <!-- 0.4 -->
      <defs>
       <path d="M 37.796875 64.3125  L 12.890625 25.390625  L 37.796875 25.390625  z M 35.203125 72.90625  L 47.609375 72.90625  L 47.609375 25.390625  L 58.015625 25.390625  L 58.015625 17.1875  L 47.609375 17.1875  L 47.609375 0  L 37.796875 0  L 37.796875 17.1875  L 4.890625 17.1875  L 4.890625 26.703125  z " id="DejaVuSans-34"/>
      </defs>
      <g transform="translate(34.696875 222.679219)scale(0.1 -0.1)">
       <use xlink:href="#DejaVuSans-30"/>
       <use x="63.623047" xlink:href="#DejaVuSans-2e"/>
       <use x="95.410156" xlink:href="#DejaVuSans-34"/>
      </g>
     </g>
    </g>
    <g id="ytick_4">
     <g id="line2d_13">
      <g>
       <use style="stroke:#000000;stroke-width:0.8;" x="57.6" xlink:href="#mc7427e7253" y="174.528"/>
      </g>
     </g>
     <g id="text_13">
      <!-- 0.6 -->
      <defs>
       <path d="M 33.015625 40.375  Q 26.375 40.375 22.484375 35.828125  Q 18.609375 31.296875 18.609375 23.390625  Q 18.609375 15.53125 22.484375 10.953125  Q 26.375 6.390625 33.015625 6.390625  Q 39.65625 6.390625 43.53125 10.953125  Q 47.40625 15.53125 47.40625 23.390625  Q 47.40625 31.296875 43.53125 35.828125  Q 39.65625 40.375 33.015625 40.375  z M 52.59375 71.296875  L 52.59375 62.3125  Q 48.875 64.0625 45.09375 64.984375  Q 41.3125 65.921875 37.59375 65.921875  Q 27.828125 65.921875 22.671875 59.328125  Q 17.53125 52.734375 16.796875 39.40625  Q 19.671875 43.65625 24.015625 45.921875  Q 28.375 48.1875 33.59375 48.1875  Q 44.578125 48.1875 50.953125 41.515625  Q 57.328125 34.859375 57.328125 23.390625  Q 57.328125 12.15625 50.6875 5.359375  Q 44.046875 -1.421875 33.015625 -1.421875  Q 20.359375 -1.421875 13.671875 8.265625  Q 6.984375 17.96875 6.984375 36.375  Q 6.984375 53.65625 15.1875 63.9375  Q 23.390625 74.21875 37.203125 74.21875  Q 40.921875 74.21875 44.703125 73.484375  Q 48.484375 72.75 52.59375 71.296875  z " id="DejaVuSans-36"/>
      </defs>
      <g transform="translate(34.696875 178.327219)scale(0.1 -0.1)">
       <use xlink:href="#DejaVuSans-30"/>
       <use x="63.623047" xlink:href="#DejaVuSans-2e"/>
       <use x="95.410156" xlink:href="#DejaVuSans-36"/>
      </g>
     </g>
    </g>
    <g id="ytick_5">
     <g id="line2d_14">
      <g>
       <use style="stroke:#000000;stroke-width:0.8;" x="57.6" xlink:href="#mc7427e7253" y="130.176"/>
      </g>
     </g>
     <g id="text_14">
      <!-- 0.8 -->
      <defs>
       <path d="M 31.78125 34.625  Q 24.75 34.625 20.71875 30.859375  Q 16.703125 27.09375 16.703125 20.515625  Q 16.703125 13.921875 20.71875 10.15625  Q 24.75 6.390625 31.78125 6.390625  Q 38.8125 6.390625 42.859375 10.171875  Q 46.921875 13.96875 46.921875 20.515625  Q 46.921875 27.09375 42.890625 30.859375  Q 38.875 34.625 31.78125 34.625  z M 21.921875 38.8125  Q 15.578125 40.375 12.03125 44.71875  Q 8.5 49.078125 8.5 55.328125  Q 8.5 64.0625 14.71875 69.140625  Q 20.953125 74.21875 31.78125 74.21875  Q 42.671875 74.21875 48.875 69.140625  Q 55.078125 64.0625 55.078125 55.328125  Q 55.078125 49.078125 51.53125 44.71875  Q 48 40.375 41.703125 38.8125  Q 48.828125 37.15625 52.796875 32.3125  Q 56.78125 27.484375 56.78125 20.515625  Q 56.78125 9.90625 50.3125 4.234375  Q 43.84375 -1.421875 31.78125 -1.421875  Q 19.734375 -1.421875 13.25 4.234375  Q 6.78125 9.90625 6.78125 20.515625  Q 6.78125 27.484375 10.78125 32.3125  Q 14.796875 37.15625 21.921875 38.8125  z M 18.3125 54.390625  Q 18.3125 48.734375 21.84375 45.5625  Q 25.390625 42.390625 31.78125 42.390625  Q 38.140625 42.390625 41.71875 45.5625  Q 45.3125 48.734375 45.3125 54.390625  Q 45.3125 60.0625 41.71875 63.234375  Q 38.140625 66.40625 31.78125 66.40625  Q 25.390625 66.40625 21.84375 63.234375  Q 18.3125 60.0625 18.3125 54.390625  z " id="DejaVuSans-38"/>
      </defs>
      <g transform="translate(34.696875 133.975219)scale(0.1 -0.1)">
       <use xlink:href="#DejaVuSans-30"/>
       <use x="63.623047" xlink:href="#DejaVuSans-2e"/>
       <use x="95.410156" xlink:href="#DejaVuSans-38"/>
      </g>
     </g>
    </g>
    <g id="ytick_6">
     <g id="line2d_15">
      <g>
       <use style="stroke:#000000;stroke-width:0.8;" x="57.6" xlink:href="#mc7427e7253" y="85.824"/>
      </g>
     </g>
     <g id="text_15">
      <!-- 1.0 -->
      <g transform="translate(34.696875 89.623219)scale(0.1 -0.1)">
       <use xlink:href="#DejaVuSans-31"/>
       <use x="63.623047" xlink:href="#DejaVuSans-2e"/>
       <use x="95.410156" xlink:href="#DejaVuSans-30"/>
      </g>
     </g>
    </g>
    <g id="ytick_7">
     <g id="line2d_16">
      <g>
       <use style="stroke:#000000;stroke-width:0.8;" x="57.6" xlink:href="#mc7427e7253" y="41.472"/>
      </g>
     </g>
     <g id="text_16">
      <!-- 1.2 -->
      <g transform="translate(34.696875 45.271219)scale(0.1 -0.1)">
       <use xlink:href="#DejaVuSans-31"/>
       <use x="63.623047" xlink:href="#DejaVuSans-2e"/>
       <use x="95.410156" xlink:href="#DejaVuSans-32"/>
      </g>
     </g>
    </g>
   </g>
   <g id="line2d_17">
    <path clip-path="url(#p1007a60b27)" d="M 73.832727 299.054769  L 84.242492 297.898634  L 94.001647 296.591371  L 102.459581 295.236473  L 110.266905 293.755967  L 117.423618 292.158237  L 123.929721 290.460011  L 129.785214 288.687973  L 134.990097 286.879867  L 139.544369 285.084661  L 144.098641 283.055827  L 148.002303 281.100656  L 151.905965 278.914365  L 155.809627 276.461436  L 159.062678 274.183569  L 162.31573 271.663152  L 165.568781 268.867512  L 168.821833 265.758993  L 172.074884 262.294233  L 174.677326 259.232682  L 177.279767 255.882579  L 179.882208 252.211936  L 182.484649 248.185423  L 185.087091 243.764302  L 187.689532 238.906542  L 190.291973 233.567194  L 192.894414 227.699184  L 195.496856 221.254705  L 198.099297 214.187462  L 200.701738 206.456102  L 203.304179 198.029212  L 205.906621 188.892307  L 208.509062 179.057184  L 211.762113 165.862293  L 215.665775 149.013239  L 222.822489 117.846788  L 225.42493 107.680798  L 227.376761 100.948187  L 228.677981 97.008154  L 229.979202 93.580521  L 231.280423 90.72295  L 232.581643 88.485725  L 233.882864 86.909643  L 234.533474 86.379231  L 235.184085 86.024204  L 235.834695 85.846263  L 236.485305 85.846263  L 237.135915 86.024204  L 237.786526 86.379231  L 238.437136 86.909643  L 239.087746 87.612914  L 240.388967 89.523999  L 241.690188 92.077136  L 242.991408 95.226537  L 244.292629 98.917951  L 246.24446 105.337834  L 248.196291 112.621455  L 250.798732 123.292711  L 255.353004 143.256056  L 260.557887 165.862293  L 263.810938 179.057184  L 267.06399 191.243004  L 269.666431 200.202301  L 272.268872 208.453148  L 274.871314 216.015043  L 277.473755 222.922454  L 280.076196 229.218368  L 282.678637 234.949728  L 285.281079 240.164331  L 287.88352 244.908822  L 290.485961 249.227474  L 293.088402 253.161521  L 295.690844 256.74885  L 298.293285 260.023944  L 301.546336 263.725921  L 304.799388 267.042585  L 308.052439 270.021085  L 311.305491 272.702411  L 314.558543 275.122144  L 318.462204 277.72369  L 322.365866 280.038482  L 326.269528 282.105134  L 330.8238 284.245938  L 335.378073 286.136822  L 340.582955 288.037822  L 345.787837 289.703682  L 351.64333 291.341489  L 358.149433 292.916285  L 365.306147 294.402935  L 373.113471 295.785249  L 381.571405 297.054617  L 391.330559 298.283619  L 398.487273 299.054769  L 398.487273 299.054769  " style="fill:none;stroke:#1f77b4;stroke-linecap:square;stroke-width:1.5;"/>
   </g>
   <g id="line2d_18">
    <path clip-path="url(#p1007a60b27)" d="M 73.832727 305.326266  L 74.483338 307.782077  L 75.133948 297.036452  L 75.784558 294.523942  L 77.085779 303.331149  L 77.736389 303.438178  L 78.386999 301.775804  L 79.03761 298.841485  L 79.68822 302.524176  L 80.989441 300.830706  L 81.640051 298.369741  L 82.290661 301.054107  L 82.941272 299.203767  L 83.591882 301.807768  L 84.242492 301.424189  L 84.893103 301.375866  L 85.543713 302.043219  L 86.194323 301.17011  L 87.495544 302.362997  L 88.146154 301.659565  L 88.796764 301.832249  L 89.447375 301.785919  L 90.097985 302.135269  L 90.748595 301.654392  L 91.399206 301.666396  L 92.049816 302.522509  L 93.351037 302.124849  L 95.302868 302.180187  L 95.953478 301.865307  L 96.604088 301.929403  L 97.905309 301.712174  L 99.206529 301.464674  L 104.411412 300.028708  L 108.315074 298.478963  L 110.917515 297.294544  L 114.821177 295.309732  L 119.375449 292.744486  L 125.230942 289.162737  L 131.737045 284.913459  L 142.79742 277.365356  L 149.954134 272.281088  L 155.159016 268.342966  L 159.713288 264.648964  L 163.61695 261.219393  L 166.870002 258.100347  L 170.123053 254.670265  L 173.376105 250.860109  L 175.978546 247.494832  L 178.580987 243.812014  L 181.183429 239.775078  L 183.78587 235.340611  L 186.388311 230.457315  L 188.990752 225.067936  L 191.593194 219.113695  L 194.195635 212.539624  L 196.798076 205.298907  L 199.400517 197.355095  L 202.002959 188.682552  L 204.6054 179.26714  L 207.207841 169.110133  L 210.460893 155.41501  L 213.713944 140.754761  L 224.77432 89.78736  L 226.72615 82.181487  L 228.677981 75.541834  L 229.979202 71.757415  L 231.280423 68.552638  L 232.581643 65.975638  L 233.882864 64.065172  L 234.533474 63.369092  L 235.184085 62.849251  L 235.834695 62.507304  L 236.485305 62.344135  L 237.135915 62.359848  L 237.786526 62.553762  L 238.437136 62.924424  L 239.087746 63.46962  L 239.738357 64.186396  L 241.039577 66.119362  L 242.340798 68.686142  L 243.642019 71.840141  L 244.943239 75.527009  L 246.89507 81.923544  L 248.846901 89.164919  L 251.449342 99.750767  L 256.003615 119.48121  L 261.208497 141.716722  L 264.461549 154.673778  L 267.7146 166.662139  L 270.317041 175.507075  L 272.919483 183.680952  L 275.521924 191.191704  L 278.124365 198.057629  L 280.726806 204.306725  L 283.329248 209.976169  L 285.931689 215.110064  L 288.53413 219.755191  L 291.136571 223.956032  L 293.739013 227.750975  L 296.341454 231.171202  L 298.943895 234.242598  L 301.546336 236.989601  L 304.148778 239.439093  L 306.751219 241.622442  L 310.00427 244.031008  L 313.257322 246.147858  L 317.160984 248.386967  L 321.064646 250.371271  L 326.269528 252.733126  L 341.884176 259.563502  L 347.739668 262.509926  L 352.944551 265.375511  L 358.149433 268.48475  L 364.655537 272.689724  L 369.860419 276.24236  L 371.81225 277.664227  L 372.46286 278.049453  L 373.764081 279.089535  L 378.968963 282.923019  L 379.619574 283.535696  L 380.270184 283.90202  L 380.920794 284.765371  L 381.571405 285.106966  L 382.872625 286.476672  L 383.523236 286.65907  L 384.173846 286.986897  L 384.824456 287.791696  L 385.475066 288.236331  L 386.125677 287.625285  L 386.776287 289.415692  L 387.426897 289.824464  L 388.077508 289.758313  L 388.728118 292.074095  L 389.378728 292.954979  L 390.029339 291.832488  L 390.679949 294.967774  L 391.330559 292.447547  L 391.98117 294.585845  L 392.63178 290.260122  L 393.28239 296.174904  L 394.583611 297.731652  L 395.884831 291.501191  L 396.535442 296.409744  L 397.186052 292.750724  L 397.836662 296.693572  L 398.487273 286.534195  L 398.487273 286.534195  " style="fill:none;stroke:#ff7f0e;stroke-linecap:square;stroke-width:1.5;"/>
   </g>
   <g id="line2d_19">
    <defs>
     <path d="M 0 1.5  C 0.397805 1.5 0.77937 1.341951 1.06066 1.06066  C 1.341951 0.77937 1.5 0.397805 1.5 0  C 1.5 -0.397805 1.341951 -0.77937 1.06066 -1.06066  C 0.77937 -1.341951 0.397805 -1.5 0 -1.5  C -0.397805 -1.5 -0.77937 -1.341951 -1.06066 -1.06066  C -1.341951 -0.77937 -1.5 -0.397805 -1.5 0  C -1.5 0.397805 -1.341951 0.77937 -1.06066 1.06066  C -0.77937 1.341951 -0.397805 1.5 0 1.5  z " id="mf4e2d31ac0" style="stroke:#2ca02c;"/>
    </defs>
    <g clip-path="url(#p1007a60b27)">
     <use style="fill:#2ca02c;stroke:#2ca02c;" x="73.832727" xlink:href="#mf4e2d31ac0" y="299.054769"/>
     <use style="fill:#2ca02c;stroke:#2ca02c;" x="75.484985" xlink:href="#mf4e2d31ac0" y="298.885367"/>
     <use style="fill:#2ca02c;stroke:#2ca02c;" x="80.408122" xlink:href="#mf4e2d31ac0" y="298.350029"/>
     <use style="fill:#2ca02c;stroke:#2ca02c;" x="88.501919" xlink:href="#mf4e2d31ac0" y="297.357934"/>
     <use style="fill:#2ca02c;stroke:#2ca02c;" x="99.601608" xlink:href="#mf4e2d31ac0" y="295.720537"/>
     <use style="fill:#2ca02c;stroke:#2ca02c;" x="113.481233" xlink:href="#mf4e2d31ac0" y="293.0699"/>
     <use style="fill:#2ca02c;stroke:#2ca02c;" x="129.858243" xlink:href="#mf4e2d31ac0" y="288.664217"/>
     <use style="fill:#2ca02c;stroke:#2ca02c;" x="148.399251" xlink:href="#mf4e2d31ac0" y="280.889446"/>
     <use style="fill:#2ca02c;stroke:#2ca02c;" x="168.726814" xlink:href="#mf4e2d31ac0" y="265.854615"/>
     <use style="fill:#2ca02c;stroke:#2ca02c;" x="190.427122" xlink:href="#mf4e2d31ac0" y="233.275885"/>
     <use style="fill:#2ca02c;stroke:#2ca02c;" x="213.05842" xlink:href="#mf4e2d31ac0" y="160.366028"/>
     <use style="fill:#2ca02c;stroke:#2ca02c;" x="236.16" xlink:href="#mf4e2d31ac0" y="85.824"/>
     <use style="fill:#2ca02c;stroke:#2ca02c;" x="259.26158" xlink:href="#mf4e2d31ac0" y="160.366028"/>
     <use style="fill:#2ca02c;stroke:#2ca02c;" x="281.892878" xlink:href="#mf4e2d31ac0" y="233.275885"/>
     <use style="fill:#2ca02c;stroke:#2ca02c;" x="303.593186" xlink:href="#mf4e2d31ac0" y="265.854615"/>
     <use style="fill:#2ca02c;stroke:#2ca02c;" x="323.920749" xlink:href="#mf4e2d31ac0" y="280.889446"/>
     <use style="fill:#2ca02c;stroke:#2ca02c;" x="342.461757" xlink:href="#mf4e2d31ac0" y="288.664217"/>
     <use style="fill:#2ca02c;stroke:#2ca02c;" x="358.838767" xlink:href="#mf4e2d31ac0" y="293.0699"/>
     <use style="fill:#2ca02c;stroke:#2ca02c;" x="372.718392" xlink:href="#mf4e2d31ac0" y="295.720537"/>
     <use style="fill:#2ca02c;stroke:#2ca02c;" x="383.818081" xlink:href="#mf4e2d31ac0" y="297.357934"/>
     <use style="fill:#2ca02c;stroke:#2ca02c;" x="391.911878" xlink:href="#mf4e2d31ac0" y="298.350029"/>
     <use style="fill:#2ca02c;stroke:#2ca02c;" x="396.835015" xlink:href="#mf4e2d31ac0" y="298.885367"/>
     <use style="fill:#2ca02c;stroke:#2ca02c;" x="398.487273" xlink:href="#mf4e2d31ac0" y="299.054769"/>
    </g>
   </g>
   <g id="patch_3">
    <path d="M 57.6 307.584  L 57.6 41.472  " style="fill:none;stroke:#000000;stroke-linecap:square;stroke-linejoin:miter;stroke-width:0.8;"/>
   </g>
   <g id="patch_4">
    <path d="M 414.72 307.584  L 414.72 41.472  " style="fill:none;stroke:#000000;stroke-linecap:square;stroke-linejoin:miter;stroke-width:0.8;"/>
   </g>
   <g id="patch_5">
    <path d="M 57.6 307.584  L 414.72 307.584  " style="fill:none;stroke:#000000;stroke-linecap:square;stroke-linejoin:miter;stroke-width:0.8;"/>
   </g>
   <g id="patch_6">
    <path d="M 57.6 41.472  L 414.72 41.472  " style="fill:none;stroke:#000000;stroke-linecap:square;stroke-linejoin:miter;stroke-width:0.8;"/>
   </g>
  </g>
 </g>
 <defs>
  <clipPath id="p1007a60b27">
   <rect height="266.112" width="357.12" x="57.6" y="41.472"/>
  </clipPath>
 </defs>
</svg>