<svg xmlns="http://www.w3.org/2000/svg" xmlns:xlink="http://www.w3.org/1999/xlink" version="1.1" viewBox="0 0 460 345" viewport="0 0 400px 300px">
 <defs>
  <style type="text/css">
*{stroke-linecap:butt;stroke-linejoin:round;}
  </style>
 </defs>
 <g id="figure_1">
  <g id="patch_1">
   <path d="M 0 345.6  L 460.8 345.6  L 460.8 0  L 0 0  z " style="fill:none;opacity:0;"/>
  </g>
  <g id="axes_1">
   <g id="patch_2">
    <path d="M 57.6 307.584  L 414.72 307.584  L 414.72 41.472  L 57.6 41.472  z " style="fill:#ffffff;"/>
   </g>
   <g id="matplotlib.axis_1">
    <g id="xtick_1">
     <g id="line2d_1">
      <defs>
       <path d="M 0 0  L 0 3.5  " id="mcb11ab16cb" style="stroke:#000000;stroke-width:0.8;"/>
      </defs>
      <g>
       <use style="stroke:#000000;stroke-width:0.8;" x="73.832727" xlink:href="#mcb11ab16cb" y="307.584"/>
      </g>
     </g>
     <g id="text_1">
      <!-- &#8722;6 -->
      <defs>
       <path d="M 10.59375 35.5  L 73.1875 35.5  L 73.1875 27.203125  L 10.59375 27.203125  z " id="DejaVuSans-2212"/>
       <path d="M 33.015625 40.375  Q 26.375 40.375 22.484375 35.828125  Q 18.609375 31.296875 18.609375 23.390625  Q 18.609375 15.53125 22.484375 10.953125  Q 26.375 6.390625 33.015625 6.390625  Q 39.65625 6.390625 43.53125 10.953125  Q 47.40625 15.53125 47.40625 23.390625  Q 47.40625 31.296875 43.53125 35.828125  Q 39.65625 40.375 33.015625 40.375  z M 52.59375 71.296875  L 52.59375 62.3125  Q 48.875 64.0625 45.09375 64.984375  Q 41.3125 65.921875 37.59375 65.921875  Q 27.828125 65.921875 22.671875 59.328125  Q 17.53125 52.734375 16.796875 39.40625  Q 19.671875 43.65625 24.015625 45.921875  Q 28.375 48.1875 33.59375 48.1875  Q 44.578125 48.1875 50.953125 41.515625  Q 57.328125 34.859375 57.328125 23.390625  Q 57.328125 12.15625 50.6875 5.359375  Q 44.046875 -1.421875 33.015625 -1.421875  Q 20.359375 -1.421875 13.671875 8.265625  Q 6.984375 17.96875 6.984375 36.375  Q 6.984375 53.65625 15.1875 63.9375  Q 23.390625 74.21875 37.203125 74.21875  Q 40.921875 74.21875 44.703125 73.484375  Q 48.484375 72.75 52.59375 71.296875  z " id="DejaVuSans-36"/>
      </defs>
      <g transform="translate(66.461634 322.182437)scale(0.1 -0.1)">
       <use xlink:href="#DejaVuSans-2212"/>
       <use x="83.789062" xlink:href="#DejaVuSans-36"/>
      </g>
     </g>
    </g>
    <g id="xtick_2">
     <g id="line2d_2">
      <g>
       <use style="stroke:#000000;stroke-width:0.8;" x="127.941818" xlink:href="#mcb11ab16cb" y="307.584"/>
      </g>
     </g>
     <g id="text_2">
      <!-- &#8722;4 -->
      <defs>
       <path d="M 37.796875 64.3125  L 12.890625 25.390625  L 37.796875 25.390625  z M 35.203125 72.90625  L 47.609375 72.90625  L 47.609375 25.390625  L 58.015625 25.390625  L 58.015625 17.1875  L 47.609375 17.1875  L 47.609375 0  L 37.796875 0  L 37.796875 17.1875  L 4.890625 17.1875  L 4.890625 26.703125  z " id="DejaVuSans-34"/>
      </defs>
      <g transform="translate(120.570724 322.182437)scale(0.1 -0.1)">
       <use xlink:href="#DejaVuSans-2212"/>
       <use x="83.789062" xlink:href="#DejaVuSans-34"/>
      </g>
     </g>
    </g>
    <g id="xtick_3">
     <g id="line2d_3">
      <g>
       <use style="stroke:#000000;stroke-width:0.8;" x="182.050909" xlink:href="#mcb11ab16cb" y="307.584"/>
      </g>
     </g>
     <g id="text_3">
      <!-- &#8722;2 -->
      <defs>
       <path d="M 19.1875 8.296875  L 53.609375 8.296875  L 53.609375 0  L 7.328125 0  L 7.328125 8.296875  Q 12.9375 14.109375 22.625 23.890625  Q 32.328125 33.6875 34.8125 36.53125  Q 39.546875 41.84375 41.421875 45.53125  Q 43.3125 49.21875 43.3125 52.78125  Q 43.3125 58.59375 39.234375 62.25  Q 35.15625 65.921875 28.609375 65.921875  Q 23.96875 65.921875 18.8125 64.3125  Q 13.671875 62.703125 7.8125 59.421875  L 7.8125 69.390625  Q 13.765625 71.78125 18.9375 73  Q 24.125 74.21875 28.421875 74.21875  Q 39.75 74.21875 46.484375 68.546875  Q 53.21875 62.890625 53.21875 53.421875  Q 53.21875 48.921875 51.53125 44.890625  Q 49.859375 40.875 45.40625 35.40625  Q 44.1875 33.984375 37.640625 27.21875  Q 31.109375 20.453125 19.1875 8.296875  z " id="DejaVuSans-32"/>
      </defs>
      <g transform="translate(174.679815 322.182437)scale(0.1 -0.1)">
       <use xlink:href="#DejaVuSans-2212"/>
       <use x="83.789062" xlink:href="#DejaVuSans-32"/>
      </g>
     </g>
    </g>
    <g id="xtick_4">
     <g id="line2d_4">
      <g>
       <use style="stroke:#000000;stroke-width:0.8;" x="236.16" xlink:href="#mcb11ab16cb" y="307.584"/>
      </g>
     </g>
     <g id="text_4">
      <!-- 0 -->
      <defs>
       <path d="M 31.78125 66.40625  Q 24.171875 66.40625 20.328125 58.90625  Q 16.5 51.421875 16.5 36.375  Q 16.5 21.390625 20.328125 13.890625  Q 24.171875 6.390625 31.78125 6.390625  Q 39.453125 6.390625 43.28125 13.890625  Q 47.125 21.390625 47.125 36.375  Q 47.125 51.421875 43.28125 58.90625  Q 39.453125 66.40625 31.78125 66.40625  z M 31.78125 74.21875  Q 44.046875 74.21875 50.515625 64.515625  Q 56.984375 54.828125 56.984375 36.375  Q 56.984375 17.96875 50.515625 8.265625  Q 44.046875 -1.421875 31.78125 -1.421875  Q 19.53125 -1.421875 13.0625 8.265625  Q 6.59375 17.96875 6.59375 36.375  Q 6.59375 54.828125 13.0625 64.515625  Q 19.53125 74.21875 31.78125 74.21875  z " id="DejaVuSans-30"/>
      </defs>
      <g transform="translate(232.97875 322.182437)scale(0.1 -0.1)">
       <use xlink:href="#DejaVuSans-30"/>
      </g>
     </g>
    </g>
    <g id="xtick_5">
     <g id="line2d_5">
      <g>
       <use style="stroke:#000000;stroke-width:0.8;" x="290.269091" xlink:href="#mcb11ab16cb" y="307.584"/>
      </g>
     </g>
     <g id="text_5">
      <!-- 2 -->
      <g transform="translate(287.087841 322.182437)scale(0.1 -0.1)">
       <use xlink:href="#DejaVuSans-32"/>
      </g>
     </g>
    </g>
    <g id="xtick_6">
     <g id="line2d_6">
      <g>
       <use style="stroke:#000000;stroke-width:0.8;" x="344.378182" xlink:href="#mcb11ab16cb" y="307.584"/>
      </g>
     </g>
     <g id="text_6">
      <!-- 4 -->
      <g transform="translate(341.196932 322.182437)scale(0.1 -0.1)">
       <use xlink:href="#DejaVuSans-34"/>
      </g>
     </g>
    </g>
    <g id="xtick_7">
     <g id="line2d_7">
      <g>
       <use style="stroke:#000000;stroke-width:0.8;" x="398.487273" xlink:href="#mcb11ab16cb" y="307.584"/>
      </g>
     </g>
     <g id="text_7">
      <!-- 6 -->
      <g transform="translate(395.306023 322.182437)scale(0.1 -0.1)">
       <use xlink:href="#DejaVuSans-36"/>
      </g>
     </g>
    </g>
    <g id="text_8">
     <!-- $x$ -->
     <defs>
      <path d="M 7.8125 2.875  Q 9.578125 1.515625 12.796875 1.515625  Q 15.921875 1.515625 18.3125 4.515625  Q 20.703125 7.515625 21.578125 11.078125  L 26.125 28.8125  Q 27.203125 33.640625 27.203125 35.40625  Q 27.203125 37.890625 25.8125 39.75  Q 24.421875 41.609375 21.921875 41.609375  Q 18.75 41.609375 15.96875 39.625  Q 13.1875 37.640625 11.28125 34.59375  Q 9.375 31.546875 8.59375 28.421875  Q 8.40625 27.78125 7.8125 27.78125  L 6.59375 27.78125  Q 5.8125 27.78125 5.8125 28.71875  L 5.8125 29  Q 6.78125 32.71875 9.125 36.25  Q 11.46875 39.796875 14.859375 41.984375  Q 18.265625 44.1875 22.125 44.1875  Q 25.78125 44.1875 28.734375 42.234375  Q 31.6875 40.28125 32.90625 36.921875  Q 34.625 39.984375 37.28125 42.078125  Q 39.9375 44.1875 43.109375 44.1875  Q 45.265625 44.1875 47.5 43.421875  Q 49.75 42.671875 51.171875 41.109375  Q 52.59375 39.546875 52.59375 37.203125  Q 52.59375 34.671875 50.953125 32.828125  Q 49.3125 31 46.78125 31  Q 45.171875 31 44.09375 32.03125  Q 43.015625 33.0625 43.015625 34.625  Q 43.015625 36.71875 44.453125 38.296875  Q 45.90625 39.890625 47.90625 40.1875  Q 46.09375 41.609375 42.921875 41.609375  Q 39.703125 41.609375 37.328125 38.625  Q 34.96875 35.640625 33.984375 31.984375  L 29.59375 14.3125  Q 28.515625 10.296875 28.515625 7.71875  Q 28.515625 5.171875 29.953125 3.34375  Q 31.390625 1.515625 33.796875 1.515625  Q 38.484375 1.515625 42.15625 5.640625  Q 45.84375 9.765625 47.015625 14.703125  Q 47.21875 15.28125 47.796875 15.28125  L 49.03125 15.28125  Q 49.421875 15.28125 49.65625 15.015625  Q 49.90625 14.75 49.90625 14.40625  Q 49.90625 14.3125 49.8125 14.109375  Q 48.390625 8.15625 43.84375 3.515625  Q 39.3125 -1.125 33.59375 -1.125  Q 29.9375 -1.125 26.984375 0.84375  Q 24.03125 2.828125 22.796875 6.203125  Q 21.234375 3.265625 18.46875 1.0625  Q 15.71875 -1.125 12.59375 -1.125  Q 10.453125 -1.125 8.171875 -0.359375  Q 5.90625 0.390625 4.484375 1.953125  Q 3.078125 3.515625 3.078125 5.90625  Q 3.078125 8.25 4.703125 10.171875  Q 6.34375 12.109375 8.796875 12.109375  Q 10.453125 12.109375 11.578125 11.109375  Q 12.703125 10.109375 12.703125 8.5  Q 12.703125 6.390625 11.296875 4.828125  Q 9.90625 3.265625 7.8125 2.875  z " id="Cmmi10-78"/>
     </defs>
     <g transform="translate(233.26 335.860562)scale(0.1 -0.1)">
      <use transform="translate(0 0.8125)" xlink:href="#Cmmi10-78"/>
     </g>
    </g>
   </g>
   <g id="matplotlib.axis_2">
    <g id="ytick_1">
     <g id="line2d_8">
      <defs>
       <path d="M 0 0  L -3.5 0  " id="mc9355ffb1a" style="stroke:#000000;stroke-width:0.8;"/>
      </defs>
      <g>
       <use style="stroke:#000000;stroke-width:0.8;" x="57.6" xlink:href="#mc9355ffb1a" y="307.584"/>
      </g>
     </g>
     <g id="text_9">
      <!-- 0 -->
      <g transform="translate(44.2375 311.383219)scale(0.1 -0.1)">
       <use xlink:href="#DejaVuSans-30"/>
      </g>
     </g>
    </g>
    <g id="ytick_2">
     <g id="line2d_9">
      <g>
       <use style="stroke:#000000;stroke-width:0.8;" x="57.6" xlink:href="#mc9355ffb1a" y="265.198551"/>
      </g>
     </g>
     <g id="text_10">
      <!-- 1 -->
      <defs>
       <path d="M 12.40625 8.296875  L 28.515625 8.296875  L 28.515625 63.921875  L 10.984375 60.40625  L 10.984375 69.390625  L 28.421875 72.90625  L 38.28125 72.90625  L 38.28125 8.296875  L 54.390625 8.296875  L 54.390625 0  L 12.40625 0  z " id="DejaVuSans-31"/>
      </defs>
      <g transform="translate(44.2375 268.99777)scale(0.1 -0.1)">
       <use xlink:href="#DejaVuSans-31"/>
      </g>
     </g>
    </g>
    <g id="ytick_3">
     <g id="line2d_10">
      <g>
       <use style="stroke:#000000;stroke-width:0.8;" x="57.6" xlink:href="#mc9355ffb1a" y="222.813102"/>
      </g>
     </g>
     <g id="text_11">
      <!-- 2 -->
      <g transform="translate(44.2375 226.612321)scale(0.1 -0.1)">
       <use xlink:href="#DejaVuSans-32"/>
      </g>
     </g>
    </g>
    <g id="ytick_4">
     <g id="line2d_11">
      <g>
       <use style="stroke:#000000;stroke-width:0.8;" x="57.6" xlink:href="#mc9355ffb1a" y="180.427653"/>
      </g>
     </g>
     <g id="text_12">
      <!-- 3 -->
      <defs>
       <path d="M 40.578125 39.3125  Q 47.65625 37.796875 51.625 33  Q 55.609375 28.21875 55.609375 21.1875  Q 55.609375 10.40625 48.1875 4.484375  Q 40.765625 -1.421875 27.09375 -1.421875  Q 22.515625 -1.421875 17.65625 -0.515625  Q 12.796875 0.390625 7.625 2.203125  L 7.625 11.71875  Q 11.71875 9.328125 16.59375 8.109375  Q 21.484375 6.890625 26.8125 6.890625  Q 36.078125 6.890625 40.9375 10.546875  Q 45.796875 14.203125 45.796875 21.1875  Q 45.796875 27.640625 41.28125 31.265625  Q 36.765625 34.90625 28.71875 34.90625  L 20.21875 34.90625  L 20.21875 43.015625  L 29.109375 43.015625  Q 36.375 43.015625 40.234375 45.921875  Q 44.09375 48.828125 44.09375 54.296875  Q 44.09375 59.90625 40.109375 62.90625  Q 36.140625 65.921875 28.71875 65.921875  Q 24.65625 65.921875 20.015625 65.03125  Q 15.375 64.15625 9.8125 62.3125  L 9.8125 71.09375  Q 15.4375 72.65625 20.34375 73.4375  Q 25.25 74.21875 29.59375 74.21875  Q 40.828125 74.21875 47.359375 69.109375  Q 53.90625 64.015625 53.90625 55.328125  Q 53.90625 49.265625 50.4375 45.09375  Q 46.96875 40.921875 40.578125 39.3125  z " id="DejaVuSans-33"/>
      </defs>
      <g transform="translate(44.2375 184.226872)scale(0.1 -0.1)">
       <use xlink:href="#DejaVuSans-33"/>
      </g>
     </g>
    </g>
    <g id="ytick_5">
     <g id="line2d_12">
      <g>
       <use style="stroke:#000000;stroke-width:0.8;" x="57.6" xlink:href="#mc9355ffb1a" y="138.042204"/>
      </g>
     </g>
     <g id="text_13">
      <!-- 4 -->
      <g transform="translate(44.2375 141.841423)scale(0.1 -0.1)">
       <use xlink:href="#DejaVuSans-34"/>
      </g>
     </g>
    </g>
    <g id="ytick_6">
     <g id="line2d_13">
      <g>
       <use style="stroke:#000000;stroke-width:0.8;" x="57.6" xlink:href="#mc9355ffb1a" y="95.656755"/>
      </g>
     </g>
     <g id="text_14">
      <!-- 5 -->
      <defs>
       <path d="M 10.796875 72.90625  L 49.515625 72.90625  L 49.515625 64.59375  L 19.828125 64.59375  L 19.828125 46.734375  Q 21.96875 47.46875 24.109375 47.828125  Q 26.265625 48.1875 28.421875 48.1875  Q 40.625 48.1875 47.75 41.5  Q 54.890625 34.8125 54.890625 23.390625  Q 54.890625 11.625 47.5625 5.09375  Q 40.234375 -1.421875 26.90625 -1.421875  Q 22.3125 -1.421875 17.546875 -0.640625  Q 12.796875 0.140625 7.71875 1.703125  L 7.71875 11.625  Q 12.109375 9.234375 16.796875 8.0625  Q 21.484375 6.890625 26.703125 6.890625  Q 35.15625 6.890625 40.078125 11.328125  Q 45.015625 15.765625 45.015625 23.390625  Q 45.015625 31 40.078125 35.4375  Q 35.15625 39.890625 26.703125 39.890625  Q 22.75 39.890625 18.8125 39.015625  Q 14.890625 38.140625 10.796875 36.28125  z " id="DejaVuSans-35"/>
      </defs>
      <g transform="translate(44.2375 99.455974)scale(0.1 -0.1)">
       <use xlink:href="#DejaVuSans-35"/>
      </g>
     </g>
    </g>
    <g id="ytick_7">
     <g id="line2d_14">
      <g>
       <use style="stroke:#000000;stroke-width:0.8;" x="57.6" xlink:href="#mc9355ffb1a" y="53.271306"/>
      </g>
     </g>
     <g id="text_15">
      <!-- 6 -->
      <g transform="translate(44.2375 57.070525)scale(0.1 -0.1)">
       <use xlink:href="#DejaVuSans-36"/>
      </g>
     </g>
    </g>
    <g id="text_16">
     <!-- $\psi(x)$ -->
     <defs>
      <path d="M 23.78125 -19.484375  L 28.515625 -0.875  Q 24.171875 -0.875 20.09375 0.75  Q 16.015625 2.390625 13.5 5.5625  Q 10.984375 8.734375 10.984375 13.28125  Q 10.984375 15.875 11.90625 19.1875  Q 12.84375 22.515625 13.890625 25.296875  Q 14.9375 28.078125 16.703125 32.625  Q 18.015625 36.28125 18.015625 38.625  Q 18.015625 41.609375 15.828125 41.609375  Q 11.859375 41.609375 9.296875 37.53125  Q 6.734375 33.453125 5.515625 28.421875  Q 5.328125 27.78125 4.6875 27.78125  L 3.515625 27.78125  Q 2.6875 27.78125 2.6875 28.71875  L 2.6875 29  Q 4.296875 34.96875 7.609375 39.578125  Q 10.9375 44.1875 16.015625 44.1875  Q 19.578125 44.1875 22.046875 41.84375  Q 24.515625 39.5 24.515625 35.890625  Q 24.515625 34.03125 23.6875 31.984375  Q 21.921875 27.4375 20.890625 24.75  Q 19.875 22.078125 18.9375 18.671875  Q 18.015625 15.28125 18.015625 12.59375  Q 18.015625 7.71875 21.0625 5.03125  Q 24.125 2.34375 29.109375 1.703125  L 45.90625 68.796875  Q 46.09375 69.390625 46.6875 69.390625  L 47.90625 69.390625  Q 48.6875 69.390625 48.6875 68.40625  L 31.984375 1.515625  L 33.109375 1.515625  Q 37.3125 1.515625 41.96875 4  Q 46.625 6.5 50.453125 10.546875  Q 54.296875 14.59375 56.546875 19.25  Q 58.796875 23.921875 58.796875 27.984375  Q 58.796875 31 57.8125 32.6875  Q 56.84375 34.375 55.28125 36.203125  Q 53.71875 38.03125 53.71875 39.109375  Q 53.71875 41.0625 55.328125 42.671875  Q 56.9375 44.28125 58.890625 44.28125  Q 61.28125 44.28125 62.328125 42.078125  Q 63.375 39.890625 63.375 37.109375  Q 63.375 34.1875 62.78125 31.25  Q 62.203125 28.328125 61.1875 24.3125  Q 58.890625 15.1875 51.609375 7.90625  Q 49.125 5.421875 46.109375 3.34375  Q 43.109375 1.265625 39.765625 0.0625  Q 36.421875 -1.125 33.015625 -1.125  L 31.390625 -1.125  L 26.703125 -19.921875  Q 26.515625 -20.515625 25.875 -20.515625  L 24.703125 -20.515625  Q 24.3125 -20.515625 24.046875 -20.1875  Q 23.78125 -19.875 23.78125 -19.484375  z " id="Cmmi10-c3"/>
      <path d="M 31 -24.8125  Q 25.4375 -20.40625 21.40625 -14.71875  Q 17.390625 -9.03125 14.8125 -2.578125  Q 12.25 3.859375 10.984375 10.890625  Q 9.71875 17.921875 9.71875 25  Q 9.71875 32.171875 10.984375 39.203125  Q 12.25 46.234375 14.859375 52.734375  Q 17.484375 59.234375 21.53125 64.890625  Q 25.59375 70.5625 31 74.8125  Q 31 75 31.5 75  L 32.421875 75  Q 32.71875 75 32.953125 74.734375  Q 33.203125 74.46875 33.203125 74.125  Q 33.203125 73.6875 33.015625 73.484375  Q 28.125 68.703125 24.875 63.234375  Q 21.625 57.765625 19.640625 51.578125  Q 17.671875 45.40625 16.796875 38.78125  Q 15.921875 32.171875 15.921875 25  Q 15.921875 -6.78125 32.90625 -23.296875  Q 33.203125 -23.578125 33.203125 -24.125  Q 33.203125 -24.359375 32.9375 -24.671875  Q 32.671875 -25 32.421875 -25  L 31.5 -25  Q 31 -25 31 -24.8125  z " id="Cmr10-28"/>
      <path d="M 6.5 -25  Q 5.609375 -25 5.609375 -24.125  Q 5.609375 -23.6875 5.8125 -23.484375  Q 22.90625 -6.78125 22.90625 25  Q 22.90625 56.78125 6 73.296875  Q 5.609375 73.53125 5.609375 74.125  Q 5.609375 74.46875 5.875 74.734375  Q 6.15625 75 6.5 75  L 7.421875 75  Q 7.71875 75 7.90625 74.8125  Q 15.09375 69.140625 19.875 61.03125  Q 24.65625 52.9375 26.875 43.75  Q 29.109375 34.578125 29.109375 25  Q 29.109375 17.921875 27.90625 11.0625  Q 26.703125 4.203125 24.09375 -2.453125  Q 21.484375 -9.125 17.484375 -14.765625  Q 13.484375 -20.40625 7.90625 -24.8125  Q 7.71875 -25 7.421875 -25  z " id="Cmr10-29"/>
     </defs>
     <g transform="translate(37.7375 184.528)rotate(-90)scale(0.1 -0.1)">
      <use xlink:href="#Cmmi10-c3"/>
      <use transform="translate(65.087891 0)" xlink:href="#Cmr10-28"/>
      <use transform="translate(103.90625 0)" xlink:href="#Cmmi10-78"/>
      <use transform="translate(160.986328 0)" xlink:href="#Cmr10-29"/>
     </g>
    </g>
   </g>
   <g id="line2d_15">
    <path clip-path="url(#p7a546fd553)" d="M 78.853534 -1  L 82.923055 22.335902  L 87.143564 45.261937  L 91.364073 66.925427  L 95.584582 87.362128  L 99.480436 105.168834  L 103.376291 121.988823  L 107.272145 137.85022  L 111.168 152.781151  L 115.063855 166.809739  L 118.959709 179.96411  L 122.530909 191.278328  L 126.102109 201.903257  L 129.673309 211.860561  L 133.244509 221.171902  L 136.815709 229.858944  L 140.386909 237.943351  L 143.958109 245.446785  L 147.204655 251.782169  L 150.4512 257.67159  L 153.697745 263.131324  L 156.944291 268.177647  L 160.190836 272.826836  L 163.437382 277.095166  L 166.683927 280.998913  L 169.930473 284.554354  L 173.177018 287.777764  L 176.423564 290.685419  L 179.670109 293.293596  L 182.916655 295.61857  L 186.1632 297.676618  L 189.409745 299.484015  L 192.656291 301.057037  L 196.227491 302.536084  L 199.798691 303.772896  L 203.694545 304.871331  L 207.5904 305.735392  L 211.810909 306.439593  L 216.356073 306.968276  L 221.550545 307.336808  L 227.718982 307.536322  L 237.133964 307.583927  L 247.198255 307.477381  L 253.042036 307.202577  L 257.911855 306.76813  L 262.457018 306.142377  L 266.677527 305.330901  L 270.573382 304.353168  L 274.144582 303.239354  L 277.715782 301.895121  L 281.286982 300.298805  L 284.533527 298.61063  L 287.780073 296.679942  L 291.026618 294.490466  L 294.273164 292.025925  L 297.519709 289.270044  L 300.766255 286.206545  L 304.0128 282.819155  L 307.259345 279.091595  L 310.505891 275.007591  L 313.752436 270.550866  L 316.998982 265.705145  L 320.245527 260.45415  L 323.492073 254.781607  L 326.738618 248.67124  L 329.985164 242.106771  L 333.231709 235.071926  L 336.802909 226.770886  L 340.374109 217.859332  L 343.945309 208.315602  L 347.516509 198.118032  L 351.087709 187.244959  L 354.658909 175.674718  L 358.230109 163.385648  L 362.125964 149.134111  L 366.021818 133.973201  L 369.917673 117.874792  L 373.813527 100.810761  L 377.709382 82.752981  L 381.605236 63.673327  L 385.501091 43.543676  L 389.7216 20.51904  L 393.466466 -1  L 393.466466 -1  " style="fill:none;stroke:#000000;stroke-linecap:square;stroke-width:1.5;"/>
   </g>
   <g id="line2d_16">
    <path clip-path="url(#p7a546fd553)" d="M 73.832727 299.929487  L 128.374691 299.816874  L 144.282764 299.556612  L 156.619636 299.13932  L 168.3072 298.518905  L 180.968727 297.616276  L 214.408145 295.097725  L 224.147782 294.672793  L 233.238109 294.491706  L 242.328436 294.531324  L 251.418764 294.789205  L 261.1584 295.286552  L 272.845964 296.114478  L 307.584 298.732335  L 319.271564 299.283976  L 331.608436 299.637825  L 346.8672 299.841757  L 372.190255 299.922976  L 398.487273 299.929487  L 398.487273 299.929487  " style="fill:none;stroke:#1f77b4;stroke-linecap:square;stroke-width:1.5;"/>
   </g>
   <g id="line2d_17">
    <path clip-path="url(#p7a546fd553)" d="M 73.832727 281.765907  L 112.141964 281.88192  L 125.4528 282.144832  L 135.192436 282.55098  L 143.633455 283.115329  L 152.074473 283.905058  L 161.489455 285.023084  L 182.592 287.634773  L 188.760436 288.109279  L 194.279564 288.307779  L 199.474036 288.261733  L 204.343855 287.995089  L 209.213673 287.507873  L 214.408145 286.754846  L 219.927273 285.71902  L 226.095709 284.331215  L 234.861382 282.10526  L 247.847564 278.813781  L 254.016 277.483066  L 259.535127 276.514713  L 264.7296 275.83503  L 269.599418 275.421012  L 274.469236 275.227612  L 279.663709 275.255137  L 285.182836 275.521809  L 291.351273 276.05543  L 299.142982 276.968591  L 322.518109 279.859136  L 330.959127 280.587913  L 339.400145 281.094596  L 349.139782 281.449142  L 361.476655 281.661544  L 381.605236 281.753715  L 398.487273 281.763642  L 398.487273 281.763642  " style="fill:none;stroke:#ff7f0e;stroke-linecap:square;stroke-width:1.5;"/>
   </g>
   <g id="line2d_18">
    <path clip-path="url(#p7a546fd553)" d="M 73.832727 259.913261  L 101.753018 259.784734  L 113.440582 259.511864  L 122.206255 259.085486  L 129.673309 258.500717  L 136.815709 257.715917  L 144.282764 256.668877  L 167.008582 253.282362  L 171.553745 252.942214  L 175.774255 252.843185  L 179.670109 252.968082  L 183.565964 253.318967  L 187.461818 253.902047  L 191.357673 254.710649  L 195.578182 255.817499  L 200.448 257.337339  L 207.265745 259.729773  L 216.356073 262.898543  L 220.901236 264.252479  L 224.797091 265.199265  L 228.368291 265.853062  L 231.939491 266.275233  L 235.186036 266.443796  L 238.432582 266.401517  L 241.679127 266.149776  L 245.250327 265.640946  L 248.821527 264.908879  L 252.717382 263.889907  L 257.262545 262.473459  L 264.080291 260.081289  L 273.170618 256.911024  L 278.040436 255.453507  L 282.260945 254.417022  L 286.1568 253.682024  L 290.052655 253.176258  L 293.948509 252.901994  L 297.844364 252.849014  L 302.064873 253.016779  L 306.610036 253.41684  L 312.129164 254.128651  L 320.894836 255.521235  L 332.257745 257.286444  L 339.7248 258.206986  L 346.8672 258.859367  L 354.658909 259.336934  L 363.749236 259.657064  L 375.761455 259.841343  L 397.513309 259.912621  L 398.487273 259.913261  L 398.487273 259.913261  " style="fill:none;stroke:#2ca02c;stroke-linecap:square;stroke-width:1.5;"/>
   </g>
   <g id="line2d_19">
    <path clip-path="url(#p7a546fd553)" d="M 73.832727 236.320264  L 93.961309 236.173412  L 104.350255 235.880368  L 112.141964 235.441528  L 118.959709 234.83256  L 125.4528 234.020275  L 132.270545 232.927683  L 142.334836 231.043353  L 149.801891 229.74605  L 154.347055 229.16631  L 158.242909 228.87716  L 161.814109 228.826595  L 165.060655 228.98635  L 168.3072 229.358803  L 171.553745 229.950673  L 174.800291 230.757881  L 178.371491 231.875349  L 182.267345 233.325017  L 187.461818 235.509856  L 196.8768 239.518028  L 200.772655 240.909793  L 204.0192 241.842662  L 206.941091 242.464553  L 209.862982 242.853442  L 212.460218 242.98982  L 215.057455 242.923557  L 217.654691 242.655797  L 220.576582 242.123335  L 223.498473 241.365582  L 226.745018 240.295071  L 230.640873 238.763792  L 236.484655 236.187678  L 242.977745 233.369492  L 246.8736 231.91869  L 250.120145 230.939462  L 253.042036 230.278763  L 255.963927 229.85343  L 258.561164 229.685874  L 261.1584 229.72119  L 263.755636 229.957318  L 266.677527 230.452377  L 269.599418 231.170096  L 272.845964 232.192995  L 276.741818 233.664768  L 282.260945 236.018178  L 290.377309 239.471426  L 294.597818 241.012276  L 298.169018 242.088174  L 301.415564 242.853194  L 304.662109 243.401145  L 307.908655 243.730198  L 311.1552 243.849072  L 314.7264 243.758392  L 318.622255 243.433063  L 323.167418 242.822559  L 329.335855 241.746826  L 344.594618 238.986516  L 351.087709 238.093081  L 357.5808 237.430715  L 364.398545 236.959318  L 372.514909 236.627548  L 383.228509 236.427502  L 398.487273 236.347708  L 398.487273 236.347708  " style="fill:none;stroke:#d62728;stroke-linecap:square;stroke-width:1.5;"/>
   </g>
   <g id="line2d_20">
    <path clip-path="url(#p7a546fd553)" d="M 73.832727 211.324431  L 87.792873 211.516451  L 96.233891 211.844052  L 103.051636 212.330973  L 108.895418 212.971439  L 114.414545 213.802967  L 119.933673 214.862544  L 126.426764 216.350635  L 138.763636 219.242025  L 142.659491 219.899277  L 146.230691 220.270785  L 149.152582 220.365425  L 152.074473 220.240233  L 154.996364 219.873367  L 157.5936 219.334147  L 160.515491 218.486379  L 163.437382 217.393909  L 166.683927 215.923204  L 170.255127 214.055909  L 176.098909 210.696447  L 181.618036 207.611104  L 184.864582 206.04382  L 187.786473 204.89019  L 190.383709 204.120051  L 192.656291 203.671133  L 194.928873 203.449085  L 197.201455 203.463037  L 199.474036 203.714813  L 201.746618 204.198691  L 204.0192 204.901429  L 206.616436 205.945999  L 209.538327 207.379126  L 213.109527 209.397545  L 223.823127 215.65771  L 226.745018 217.005755  L 229.342255 217.952464  L 231.614836 218.553578  L 233.887418 218.922133  L 236.16 219.046312  L 238.432582 218.922133  L 240.705164 218.553578  L 242.977745 217.952464  L 245.574982 217.005755  L 248.172218 215.820304  L 251.418764 214.079057  L 256.288582 211.16544  L 261.807709 207.905831  L 265.054255 206.243014  L 267.651491 205.139719  L 270.248727 204.286084  L 272.521309 203.769956  L 274.793891 203.484495  L 277.066473 203.436506  L 279.339055 203.625232  L 281.611636 204.042564  L 283.884218 204.673508  L 286.481455 205.628748  L 289.403345 206.953681  L 292.974545 208.837716  L 299.792291 212.77398  L 304.337455 215.27013  L 307.908655 216.979191  L 310.830545 218.148493  L 313.752436 219.079682  L 316.674327 219.757566  L 319.596218 220.180192  L 322.518109 220.357501  L 325.44 220.309419  L 328.686545 220.025432  L 332.257745 219.485326  L 336.802909 218.553271  L 344.594618 216.668206  L 352.386327 214.862544  L 357.905455 213.802967  L 363.424582 212.971439  L 368.943709 212.360641  L 375.112145 211.89921  L 382.5792 211.571784  L 392.643491 211.372597  L 398.487273 211.324431  L 398.487273 211.324431  " style="fill:none;stroke:#9467bd;stroke-linecap:square;stroke-width:1.5;"/>
   </g>
   <g id="line2d_21">
    <path clip-path="url(#p7a546fd553)" d="M 73.832727 185.004118  L 84.546327 184.771161  L 92.013382 184.401004  L 98.181818 183.882897  L 103.700945 183.205777  L 109.220073 182.302227  L 115.063855 181.114458  L 131.621236 177.552651  L 135.192436 177.115685  L 138.438982 176.949001  L 141.360873 177.026738  L 143.958109 177.299431  L 146.555345 177.776113  L 149.152582 178.46042  L 152.074473 179.471027  L 154.996364 180.713613  L 158.567564 182.487692  L 164.086691 185.538437  L 169.281164 188.34174  L 172.527709 189.842374  L 175.124945 190.811858  L 177.397527 191.449385  L 179.670109 191.86255  L 181.942691 192.032773  L 184.215273 191.950169  L 186.487855 191.61432  L 188.760436 191.03465  L 191.033018 190.230362  L 193.630255 189.07306  L 196.8768 187.352562  L 202.395927 184.097656  L 206.616436 181.725356  L 209.538327 180.335718  L 212.135564 179.362834  L 214.408145 178.75744  L 216.680727 178.408047  L 218.628655 178.32369  L 220.576582 178.44109  L 222.524509 178.756954  L 224.797091 179.363618  L 227.069673 180.203121  L 229.666909 181.403678  L 232.913455 183.171357  L 243.627055 189.269805  L 246.224291 190.379838  L 248.496873 191.123186  L 250.769455 191.621982  L 252.717382 191.839403  L 254.665309 191.855957  L 256.613236 191.671381  L 258.885818 191.209861  L 261.1584 190.501826  L 263.755636 189.428525  L 266.677527 187.953578  L 270.573382 185.713369  L 277.066473 181.952609  L 279.988364 180.516114  L 282.5856 179.480634  L 284.858182 178.80179  L 287.130764 178.359716  L 289.403345 178.16806  L 291.675927 178.2306  L 293.948509 178.541438  L 296.221091 179.0856  L 298.818327 179.963291  L 301.740218 181.222128  L 305.311418 183.041471  L 317.972945 189.777411  L 320.894836 190.971321  L 323.816727 191.926617  L 326.413964 192.559167  L 329.0112 192.984173  L 331.933091 193.221724  L 334.854982 193.223795  L 338.101527 192.985483  L 341.672727 192.48744  L 346.217891 191.604702  L 354.658909 189.667332  L 361.801309 188.139503  L 367.320436 187.182835  L 372.839564 186.453506  L 378.683345 185.910394  L 385.501091 185.514226  L 393.942109 185.261757  L 398.487273 185.192519  L 398.487273 185.192519  " style="fill:none;stroke:#8c564b;stroke-linecap:square;stroke-width:1.5;"/>
   </g>
   <g id="line2d_22">
    <path clip-path="url(#p7a546fd553)" d="M 73.832727 157.714442  L 81.949091 157.402805  L 88.442182 156.932839  L 93.961309 156.312519  L 99.155782 155.505326  L 104.350255 154.474586  L 110.843345 152.936051  L 120.582982 150.607966  L 124.478836 149.930277  L 127.725382 149.594614  L 130.647273 149.525225  L 133.244509 149.681263  L 135.841745 150.063412  L 138.438982 150.682884  L 141.036218 151.539898  L 143.633455 152.622092  L 146.555345 154.075978  L 150.126545 156.109708  L 160.190836 162.027681  L 162.788073 163.230654  L 165.060655 164.06216  L 167.333236 164.646967  L 169.281164 164.929385  L 171.229091 164.996711  L 173.177018 164.843413  L 175.124945 164.471064  L 177.072873 163.888579  L 179.345455 162.965472  L 181.942691 161.63661  L 185.189236 159.676341  L 194.279564 153.954065  L 196.8768 152.692187  L 199.149382 151.854979  L 201.097309 151.369626  L 203.045236 151.118156  L 204.993164 151.110362  L 206.941091 151.347248  L 208.889018 151.820925  L 210.836945 152.514846  L 213.109527 153.569504  L 215.706764 155.03404  L 219.277964 157.3304  L 225.121745 161.112003  L 227.718982 162.529604  L 229.991564 163.528405  L 231.939491 164.164767  L 233.887418 164.573331  L 235.835345 164.73912  L 237.783273 164.656056  L 239.7312 164.327183  L 241.679127 163.76456  L 243.951709 162.840681  L 246.224291 161.673023  L 249.146182 159.908101  L 258.885818 153.739032  L 261.1584 152.650293  L 263.430982 151.820925  L 265.378909 151.347248  L 267.326836 151.110362  L 269.274764 151.118156  L 271.222691 151.369626  L 273.170618 151.854979  L 275.118545 152.556069  L 277.391127 153.611952  L 279.988364 155.067848  L 283.884218 157.551951  L 289.403345 161.076991  L 292.325236 162.658279  L 294.597818 163.650319  L 296.8704 164.388227  L 298.818327 164.796418  L 300.766255 164.98653  L 302.714182 164.955777  L 304.662109 164.708536  L 306.610036 164.255888  L 308.882618 163.491316  L 311.479855 162.350385  L 314.401745 160.804818  L 318.622255 158.288287  L 325.115345 154.427912  L 328.361891 152.772061  L 331.283782 151.539898  L 333.881018 150.682884  L 336.478255 150.063412  L 339.075491 149.681263  L 341.672727 149.525225  L 344.594618 149.594614  L 347.516509 149.886089  L 351.087709 150.478495  L 355.632873 151.481027  L 371.540945 155.206492  L 376.735418 156.084582  L 381.929891 156.739853  L 387.773673 157.243797  L 394.591418 157.594575  L 398.487273 157.714442  L 398.487273 157.714442  " style="fill:none;stroke:#e377c2;stroke-linecap:square;stroke-width:1.5;"/>
   </g>
   <g id="line2d_23">
    <path clip-path="url(#p7a546fd553)" d="M 73.832727 130.345853  L 80.325818 130.776868  L 85.844945 131.367791  L 90.714764 132.104586  L 95.584582 133.060669  L 101.103709 134.382726  L 114.414545 137.727044  L 117.661091 138.254149  L 120.582982 138.509379  L 123.180218 138.518751  L 125.777455 138.291679  L 128.050036 137.88169  L 130.322618 137.266462  L 132.919855 136.313392  L 135.517091 135.109444  L 138.438982 133.496689  L 142.010182 131.2591  L 150.126545 126.075025  L 152.723782 124.720105  L 154.996364 123.774731  L 156.944291 123.181988  L 158.892218 122.816046  L 160.840145 122.694043  L 162.788073 122.824831  L 164.736 123.20818  L 166.683927 123.834341  L 168.631855 124.684003  L 170.904436 125.91925  L 173.826327 127.799565  L 183.565964 134.371572  L 185.838545 135.48769  L 187.786473 136.199535  L 189.7344 136.652412  L 191.357673 136.816961  L 192.980945 136.781658  L 194.604218 136.546672  L 196.552145 136.010068  L 198.500073 135.216409  L 200.772655 134.009648  L 203.369891 132.345453  L 207.5904 129.310405  L 211.486255 126.600814  L 214.083491 125.081582  L 216.031418 124.178521  L 217.979345 123.522416  L 219.602618 123.185268  L 221.225891 123.049939  L 222.849164 123.120639  L 224.472436 123.395377  L 226.420364 123.9825  L 228.368291 124.826141  L 230.640873 126.085456  L 233.238109 127.795352  L 242.653091 134.298098  L 244.925673 135.437317  L 246.8736 136.156585  L 248.496873 136.550221  L 250.120145 136.74398  L 251.743418 136.73216  L 253.366691 136.515253  L 254.989964 136.099924  L 256.937891 135.357771  L 258.885818 134.380617  L 261.1584 133.000534  L 264.404945 130.737562  L 270.248727 126.602801  L 272.845964 125.078634  L 274.793891 124.168023  L 276.741818 123.499489  L 278.365091 123.147233  L 279.988364 122.991721  L 281.611636 123.036669  L 283.234909 123.27989  L 285.182836 123.821897  L 287.130764 124.613687  L 289.403345 125.807254  L 292.000582 127.442461  L 296.221091 130.414752  L 300.4416 133.296083  L 303.038836 134.799389  L 305.311418 135.850514  L 307.259345 136.515522  L 309.207273 136.940277  L 311.1552 137.113427  L 313.103127 137.033179  L 315.051055 136.706915  L 316.998982 136.150461  L 319.271564 135.241668  L 321.8688 133.919336  L 324.790691 132.170021  L 336.478255 124.868845  L 339.075491 123.635494  L 341.672727 122.649853  L 343.945309 122.005161  L 346.217891 121.566129  L 348.815127 121.307766  L 351.412364 121.289092  L 354.334255 121.517759  L 357.5808 122.022335  L 361.476655 122.873845  L 367.969745 124.572302  L 375.4368 126.460326  L 380.631273 127.533344  L 385.501091 128.3136  L 390.695564 128.916718  L 396.539345 129.361225  L 398.487273 129.46575  L 398.487273 129.46575  " style="fill:none;stroke:#7f7f7f;stroke-linecap:square;stroke-width:1.5;"/>
   </g>
   <g id="line2d_24">
    <path clip-path="url(#p7a546fd553)" d="M 73.832727 102.108138  L 78.702545 102.731823  L 82.923055 103.484514  L 87.143564 104.456632  L 91.688727 105.743499  L 97.207855 107.558121  L 104.999564 110.132415  L 108.246109 110.981236  L 111.168 111.513206  L 113.765236 111.739868  L 116.037818 111.709127  L 118.3104 111.436706  L 120.258327 110.996027  L 122.206255 110.35679  L 124.478836 109.359447  L 126.751418 108.101692  L 129.348655 106.377229  L 132.270545 104.143767  L 137.140364 100.06362  L 141.036218 96.909256  L 143.633455 95.092037  L 145.581382 93.968132  L 147.529309 93.101453  L 149.152582 92.60414  L 150.775855 92.330076  L 152.399127 92.290934  L 154.0224 92.492032  L 155.645673 92.931828  L 157.268945 93.601653  L 159.216873 94.6863  L 161.1648 96.038582  L 163.437382 97.882489  L 167.008582 101.113655  L 171.229091 104.886662  L 173.501673 106.635857  L 175.4496 107.866041  L 177.072873 108.656166  L 178.696145 109.203869  L 180.319418 109.490079  L 181.942691 109.504025  L 183.565964 109.243735  L 185.189236 108.716235  L 186.812509 107.937462  L 188.435782 106.931869  L 190.383709 105.471712  L 192.980945 103.209916  L 200.448 96.424993  L 202.395927 95.020842  L 204.0192 94.078795  L 205.642473 93.380075  L 207.265745 92.949672  L 208.564364 92.809381  L 209.862982 92.854436  L 211.1616 93.08406  L 212.784873 93.622669  L 214.408145 94.422938  L 216.031418 95.456909  L 217.979345 96.9546  L 220.576582 99.260932  L 227.394327 105.524926  L 229.342255 106.976058  L 230.965527 107.962935  L 232.5888 108.710847  L 234.212073 109.193987  L 235.510691 109.378352  L 236.809309 109.378352  L 238.107927 109.193987  L 239.7312 108.710847  L 241.354473 107.962935  L 242.977745 106.976058  L 244.925673 105.524926  L 247.522909 103.258506  L 255.314618 96.174692  L 257.262545 94.81034  L 258.885818 93.912744  L 260.509091 93.266693  L 262.132364 92.894662  L 263.430982 92.803227  L 264.7296 92.897339  L 266.028218 93.174622  L 267.651491 93.768509  L 269.274764 94.616786  L 271.222691 95.927502  L 273.495273 97.775018  L 276.741818 100.765708  L 281.286982 104.93433  L 283.559564 106.706245  L 285.507491 107.937462  L 287.130764 108.716235  L 288.754036 109.243735  L 290.377309 109.504025  L 292.000582 109.490079  L 293.623855 109.203869  L 295.247127 108.656166  L 296.8704 107.866041  L 298.818327 106.635857  L 301.090909 104.886662  L 304.0128 102.312901  L 309.856582 97.06285  L 312.129164 95.332045  L 314.077091 94.10767  L 315.700364 93.306974  L 317.323636 92.727659  L 318.946909 92.382705  L 320.570182 92.277911  L 322.193455 92.412029  L 323.816727 92.777129  L 325.44 93.359173  L 327.387927 94.316357  L 329.335855 95.51594  L 331.933091 97.407671  L 335.504291 100.338211  L 341.348073 105.168363  L 344.269964 107.274822  L 346.8672 108.851204  L 349.139782 109.962226  L 351.412364 110.805178  L 353.684945 111.376831  L 355.957527 111.685543  L 358.230109 111.749336  L 360.502691 111.593741  L 363.099927 111.18697  L 366.021818 110.498365  L 369.917673 109.323416  L 384.851782 104.5406  L 389.072291 103.551369  L 393.2928 102.782297  L 397.837964 102.177799  L 398.487273 102.108138  L 398.487273 102.108138  " style="fill:none;stroke:#bcbd22;stroke-linecap:square;stroke-width:1.5;"/>
   </g>
   <g id="line2d_25">
    <path clip-path="url(#p7a546fd553)" d="M 73.832727 70.159466  L 78.377891 69.398927  L 82.923055 68.406948  L 87.792873 67.109141  L 101.103709 63.370032  L 104.0256 62.861199  L 106.622836 62.623675  L 108.895418 62.619309  L 111.168 62.832146  L 113.440582 63.281327  L 115.713164 63.977032  L 117.985745 64.91846  L 120.258327 66.092201  L 122.855564 67.682697  L 126.102109 69.949316  L 134.218473 75.785204  L 136.491055 77.106183  L 138.438982 78.01552  L 140.386909 78.6742  L 142.010182 79.006856  L 143.633455 79.127675  L 145.256727 79.028614  L 146.88 78.708264  L 148.503273 78.172281  L 150.4512 77.263134  L 152.399127 76.09824  L 154.671709 74.482758  L 158.242909 71.621242  L 162.463418 68.288033  L 164.736 66.772161  L 166.683927 65.737054  L 168.3072 65.103721  L 169.930473 64.704952  L 171.553745 64.556661  L 173.177018 64.665778  L 174.800291 65.029836  L 176.423564 65.636909  L 178.046836 66.465918  L 179.994764 67.7115  L 182.592 69.688141  L 190.383709 75.915831  L 192.331636 77.088851  L 193.954909 77.837817  L 195.578182 78.346535  L 197.201455 78.59412  L 198.824727 78.569796  L 200.448 78.273465  L 202.071273 77.715843  L 203.694545 76.918151  L 205.642473 75.68826  L 207.915055 73.966969  L 212.460218 70.130905  L 215.382109 67.83925  L 217.330036 66.568319  L 218.953309 65.730153  L 220.576582 65.12892  L 222.199855 64.788437  L 223.823127 64.722013  L 225.4464 64.931968  L 227.069673 65.409591  L 228.692945 66.135547  L 230.640873 67.292843  L 232.913455 68.951918  L 236.16 71.649092  L 240.055855 74.847647  L 242.328436 76.422353  L 244.276364 77.481162  L 245.899636 78.110755  L 247.522909 78.48305  L 249.146182 78.582886  L 250.769455 78.405939  L 252.392727 77.958955  L 254.016 77.259529  L 255.639273 76.335444  L 257.5872 74.982471  L 260.184436 72.894767  L 266.028218 68.075121  L 267.976145 66.759694  L 269.924073 65.723531  L 271.547345 65.115871  L 273.170618 64.766081  L 274.793891 64.687017  L 276.417164 64.880746  L 278.040436 65.338596  L 279.663709 66.04164  L 281.611636 67.168506  L 283.884218 68.791114  L 287.130764 71.445232  L 291.351273 74.879999  L 293.623855 76.44488  L 295.571782 77.512399  L 297.195055 78.165829  L 298.818327 78.579743  L 300.4416 78.74035  L 302.064873 78.643283  L 303.688145 78.293616  L 305.311418 77.705514  L 306.934691 76.901553  L 308.882618 75.694539  L 311.479855 73.780053  L 320.245527 66.989978  L 322.193455 65.86462  L 324.141382 65.00197  L 325.764655 64.508314  L 327.387927 64.232  L 329.0112 64.177247  L 330.634473 64.34128  L 332.257745 64.714798  L 334.205673 65.417864  L 336.1536 66.365058  L 338.426182 67.720447  L 341.348073 69.738555  L 350.4384 76.239812  L 353.035636 77.736045  L 355.308218 78.812726  L 357.5808 79.64972  L 359.853382 80.239187  L 362.125964 80.585259  L 364.398545 80.70222  L 366.671127 80.612378  L 369.268364 80.292677  L 372.190255 79.71317  L 376.086109 78.695347  L 391.344873 74.437872  L 395.890036 73.545415  L 398.487273 73.138718  L 398.487273 73.138718  " style="fill:none;stroke:#17becf;stroke-linecap:square;stroke-width:1.5;"/>
   </g>
   <g id="patch_3">
    <path d="M 57.6 307.584  L 57.6 41.472  " style="fill:none;stroke:#000000;stroke-linecap:square;stroke-linejoin:miter;stroke-width:0.8;"/>
   </g>
   <g id="patch_4">
    <path d="M 414.72 307.584  L 414.72 41.472  " style="fill:none;stroke:#000000;stroke-linecap:square;stroke-linejoin:miter;stroke-width:0.8;"/>
   </g>
   <g id="patch_5">
    <path d="M 57.6 307.584  L 414.72 307.584  " style="fill:none;stroke:#000000;stroke-linecap:square;stroke-linejoin:miter;stroke-width:0.8;"/>
   </g>
   <g id="patch_6">
    <path d="M 57.6 41.472  L 414.72 41.472  " style="fill:none;stroke:#000000;stroke-linecap:square;stroke-linejoin:miter;stroke-width:0.8;"/>
   </g>
  </g>
 </g>
 <defs>
  <clipPath id="p7a546fd553">
   <rect height="266.112" width="357.12" x="57.6" y="41.472"/>
  </clipPath>
 </defs>
</svg>