<svg xmlns="http://www.w3.org/2000/svg" xmlns:xlink="http://www.w3.org/1999/xlink" version="1.1" viewBox="0 0 460 345" viewport="0 0 1280px 960px">
 <defs>
  <style type="text/css">
*{stroke-linecap:butt;stroke-linejoin:round;}
  </style>
 </defs>
 <g id="figure_1">
  <g id="patch_1">
   <path d="M 0 345.6  L 460.8 345.6  L 460.8 0  L 0 0  z " style="fill:none;opacity:0;"/>
  </g>
  <g id="axes_1">
   <g id="patch_2">
    <path d="M 57.6 307.584  L 414.72 307.584  L 414.72 41.472  L 57.6 41.472  z " style="fill:#ffffff;"/>
   </g>
   <g id="matplotlib.axis_1">
    <g id="xtick_1">
     <g id="line2d_1">
      <defs>
       <path d="M 0 0  L 0 3.5  " id="m62b616d77a" style="stroke:#000000;stroke-width:0.8;"/>
      </defs>
      <g>
       <use style="stroke:#000000;stroke-width:0.8;" x="106.298182" xlink:href="#m62b616d77a" y="307.584"/>
      </g>
     </g>
     <g id="text_1">
      <!-- &#8722;4 -->
      <defs>
       <path d="M 10.59375 35.5  L 73.1875 35.5  L 73.1875 27.203125  L 10.59375 27.203125  z " id="DejaVuSans-2212"/>
       <path d="M 37.796875 64.3125  L 12.890625 25.390625  L 37.796875 25.390625  z M 35.203125 72.90625  L 47.609375 72.90625  L 47.609375 25.390625  L 58.015625 25.390625  L 58.015625 17.1875  L 47.609375 17.1875  L 47.609375 0  L 37.796875 0  L 37.796875 17.1875  L 4.890625 17.1875  L 4.890625 26.703125  z " id="DejaVuSans-34"/>
      </defs>
      <g transform="translate(98.927088 322.182437)scale(0.1 -0.1)">
       <use xlink:href="#DejaVuSans-2212"/>
       <use x="83.789062" xlink:href="#DejaVuSans-34"/>
      </g>
     </g>
    </g>
    <g id="xtick_2">
     <g id="line2d_2">
      <g>
       <use style="stroke:#000000;stroke-width:0.8;" x="171.229091" xlink:href="#m62b616d77a" y="307.584"/>
      </g>
     </g>
     <g id="text_2">
      <!-- &#8722;2 -->
      <defs>
       <path d="M 19.1875 8.296875  L 53.609375 8.296875  L 53.609375 0  L 7.328125 0  L 7.328125 8.296875  Q 12.9375 14.109375 22.625 23.890625  Q 32.328125 33.6875 34.8125 36.53125  Q 39.546875 41.84375 41.421875 45.53125  Q 43.3125 49.21875 43.3125 52.78125  Q 43.3125 58.59375 39.234375 62.25  Q 35.15625 65.921875 28.609375 65.921875  Q 23.96875 65.921875 18.8125 64.3125  Q 13.671875 62.703125 7.8125 59.421875  L 7.8125 69.390625  Q 13.765625 71.78125 18.9375 73  Q 24.125 74.21875 28.421875 74.21875  Q 39.75 74.21875 46.484375 68.546875  Q 53.21875 62.890625 53.21875 53.421875  Q 53.21875 48.921875 51.53125 44.890625  Q 49.859375 40.875 45.40625 35.40625  Q 44.1875 33.984375 37.640625 27.21875  Q 31.109375 20.453125 19.1875 8.296875  z " id="DejaVuSans-32"/>
      </defs>
      <g transform="translate(163.857997 322.182437)scale(0.1 -0.1)">
       <use xlink:href="#DejaVuSans-2212"/>
       <use x="83.789062" xlink:href="#DejaVuSans-32"/>
      </g>
     </g>
    </g>
    <g id="xtick_3">
     <g id="line2d_3">
      <g>
       <use style="stroke:#000000;stroke-width:0.8;" x="236.16" xlink:href="#m62b616d77a" y="307.584"/>
      </g>
     </g>
     <g id="text_3">
      <!-- 0 -->
      <defs>
       <path d="M 31.78125 66.40625  Q 24.171875 66.40625 20.328125 58.90625  Q 16.5 51.421875 16.5 36.375  Q 16.5 21.390625 20.328125 13.890625  Q 24.171875 6.390625 31.78125 6.390625  Q 39.453125 6.390625 43.28125 13.890625  Q 47.125 21.390625 47.125 36.375  Q 47.125 51.421875 43.28125 58.90625  Q 39.453125 66.40625 31.78125 66.40625  z M 31.78125 74.21875  Q 44.046875 74.21875 50.515625 64.515625  Q 56.984375 54.828125 56.984375 36.375  Q 56.984375 17.96875 50.515625 8.265625  Q 44.046875 -1.421875 31.78125 -1.421875  Q 19.53125 -1.421875 13.0625 8.265625  Q 6.59375 17.96875 6.59375 36.375  Q 6.59375 54.828125 13.0625 64.515625  Q 19.53125 74.21875 31.78125 74.21875  z " id="DejaVuSans-30"/>
      </defs>
      <g transform="translate(232.97875 322.182437)scale(0.1 -0.1)">
       <use xlink:href="#DejaVuSans-30"/>
      </g>
     </g>
    </g>
    <g id="xtick_4">
     <g id="line2d_4">
      <g>
       <use style="stroke:#000000;stroke-width:0.8;" x="301.090909" xlink:href="#m62b616d77a" y="307.584"/>
      </g>
     </g>
     <g id="text_4">
      <!-- 2 -->
      <g transform="translate(297.909659 322.182437)scale(0.1 -0.1)">
       <use xlink:href="#DejaVuSans-32"/>
      </g>
     </g>
    </g>
    <g id="xtick_5">
     <g id="line2d_5">
      <g>
       <use style="stroke:#000000;stroke-width:0.8;" x="366.021818" xlink:href="#m62b616d77a" y="307.584"/>
      </g>
     </g>
     <g id="text_5">
      <!-- 4 -->
      <g transform="translate(362.840568 322.182437)scale(0.1 -0.1)">
       <use xlink:href="#DejaVuSans-34"/>
      </g>
     </g>
    </g>
    <g id="text_6">
     <!-- $x$ -->
     <defs>
      <path d="M 7.8125 2.875  Q 9.578125 1.515625 12.796875 1.515625  Q 15.921875 1.515625 18.3125 4.515625  Q 20.703125 7.515625 21.578125 11.078125  L 26.125 28.8125  Q 27.203125 33.640625 27.203125 35.40625  Q 27.203125 37.890625 25.8125 39.75  Q 24.421875 41.609375 21.921875 41.609375  Q 18.75 41.609375 15.96875 39.625  Q 13.1875 37.640625 11.28125 34.59375  Q 9.375 31.546875 8.59375 28.421875  Q 8.40625 27.78125 7.8125 27.78125  L 6.59375 27.78125  Q 5.8125 27.78125 5.8125 28.71875  L 5.8125 29  Q 6.78125 32.71875 9.125 36.25  Q 11.46875 39.796875 14.859375 41.984375  Q 18.265625 44.1875 22.125 44.1875  Q 25.78125 44.1875 28.734375 42.234375  Q 31.6875 40.28125 32.90625 36.921875  Q 34.625 39.984375 37.28125 42.078125  Q 39.9375 44.1875 43.109375 44.1875  Q 45.265625 44.1875 47.5 43.421875  Q 49.75 42.671875 51.171875 41.109375  Q 52.59375 39.546875 52.59375 37.203125  Q 52.59375 34.671875 50.953125 32.828125  Q 49.3125 31 46.78125 31  Q 45.171875 31 44.09375 32.03125  Q 43.015625 33.0625 43.015625 34.625  Q 43.015625 36.71875 44.453125 38.296875  Q 45.90625 39.890625 47.90625 40.1875  Q 46.09375 41.609375 42.921875 41.609375  Q 39.703125 41.609375 37.328125 38.625  Q 34.96875 35.640625 33.984375 31.984375  L 29.59375 14.3125  Q 28.515625 10.296875 28.515625 7.71875  Q 28.515625 5.171875 29.953125 3.34375  Q 31.390625 1.515625 33.796875 1.515625  Q 38.484375 1.515625 42.15625 5.640625  Q 45.84375 9.765625 47.015625 14.703125  Q 47.21875 15.28125 47.796875 15.28125  L 49.03125 15.28125  Q 49.421875 15.28125 49.65625 15.015625  Q 49.90625 14.75 49.90625 14.40625  Q 49.90625 14.3125 49.8125 14.109375  Q 48.390625 8.15625 43.84375 3.515625  Q 39.3125 -1.125 33.59375 -1.125  Q 29.9375 -1.125 26.984375 0.84375  Q 24.03125 2.828125 22.796875 6.203125  Q 21.234375 3.265625 18.46875 1.0625  Q 15.71875 -1.125 12.59375 -1.125  Q 10.453125 -1.125 8.171875 -0.359375  Q 5.90625 0.390625 4.484375 1.953125  Q 3.078125 3.515625 3.078125 5.90625  Q 3.078125 8.25 4.703125 10.171875  Q 6.34375 12.109375 8.796875 12.109375  Q 10.453125 12.109375 11.578125 11.109375  Q 12.703125 10.109375 12.703125 8.5  Q 12.703125 6.390625 11.296875 4.828125  Q 9.90625 3.265625 7.8125 2.875  z " id="Cmmi10-78"/>
     </defs>
     <g transform="translate(233.26 335.860562)scale(0.1 -0.1)">
      <use transform="translate(0 0.8125)" xlink:href="#Cmmi10-78"/>
     </g>
    </g>
   </g>
   <g id="matplotlib.axis_2">
    <g id="ytick_1">
     <g id="line2d_6">
      <defs>
       <path d="M 0 0  L -3.5 0  " id="m639daf9b6c" style="stroke:#000000;stroke-width:0.8;"/>
      </defs>
      <g>
       <use style="stroke:#000000;stroke-width:0.8;" x="57.6" xlink:href="#m639daf9b6c" y="307.584"/>
      </g>
     </g>
     <g id="text_7">
      <!-- 0 -->
      <g transform="translate(44.2375 311.383219)scale(0.1 -0.1)">
       <use xlink:href="#DejaVuSans-30"/>
      </g>
     </g>
    </g>
    <g id="ytick_2">
     <g id="line2d_7">
      <g>
       <use style="stroke:#000000;stroke-width:0.8;" x="57.6" xlink:href="#m639daf9b6c" y="256.896"/>
      </g>
     </g>
     <g id="text_8">
      <!-- 2 -->
      <g transform="translate(44.2375 260.695219)scale(0.1 -0.1)">
       <use xlink:href="#DejaVuSans-32"/>
      </g>
     </g>
    </g>
    <g id="ytick_3">
     <g id="line2d_8">
      <g>
       <use style="stroke:#000000;stroke-width:0.8;" x="57.6" xlink:href="#m639daf9b6c" y="206.208"/>
      </g>
     </g>
     <g id="text_9">
      <!-- 4 -->
      <g transform="translate(44.2375 210.007219)scale(0.1 -0.1)">
       <use xlink:href="#DejaVuSans-34"/>
      </g>
     </g>
    </g>
    <g id="ytick_4">
     <g id="line2d_9">
      <g>
       <use style="stroke:#000000;stroke-width:0.8;" x="57.6" xlink:href="#m639daf9b6c" y="155.52"/>
      </g>
     </g>
     <g id="text_10">
      <!-- 6 -->
      <defs>
       <path d="M 33.015625 40.375  Q 26.375 40.375 22.484375 35.828125  Q 18.609375 31.296875 18.609375 23.390625  Q 18.609375 15.53125 22.484375 10.953125  Q 26.375 6.390625 33.015625 6.390625  Q 39.65625 6.390625 43.53125 10.953125  Q 47.40625 15.53125 47.40625 23.390625  Q 47.40625 31.296875 43.53125 35.828125  Q 39.65625 40.375 33.015625 40.375  z M 52.59375 71.296875  L 52.59375 62.3125  Q 48.875 64.0625 45.09375 64.984375  Q 41.3125 65.921875 37.59375 65.921875  Q 27.828125 65.921875 22.671875 59.328125  Q 17.53125 52.734375 16.796875 39.40625  Q 19.671875 43.65625 24.015625 45.921875  Q 28.375 48.1875 33.59375 48.1875  Q 44.578125 48.1875 50.953125 41.515625  Q 57.328125 34.859375 57.328125 23.390625  Q 57.328125 12.15625 50.6875 5.359375  Q 44.046875 -1.421875 33.015625 -1.421875  Q 20.359375 -1.421875 13.671875 8.265625  Q 6.984375 17.96875 6.984375 36.375  Q 6.984375 53.65625 15.1875 63.9375  Q 23.390625 74.21875 37.203125 74.21875  Q 40.921875 74.21875 44.703125 73.484375  Q 48.484375 72.75 52.59375 71.296875  z " id="DejaVuSans-36"/>
      </defs>
      <g transform="translate(44.2375 159.319219)scale(0.1 -0.1)">
       <use xlink:href="#DejaVuSans-36"/>
      </g>
     </g>
    </g>
    <g id="ytick_5">
     <g id="line2d_10">
      <g>
       <use style="stroke:#000000;stroke-width:0.8;" x="57.6" xlink:href="#m639daf9b6c" y="104.832"/>
      </g>
     </g>
     <g id="text_11">
      <!-- 8 -->
      <defs>
       <path d="M 31.78125 34.625  Q 24.75 34.625 20.71875 30.859375  Q 16.703125 27.09375 16.703125 20.515625  Q 16.703125 13.921875 20.71875 10.15625  Q 24.75 6.390625 31.78125 6.390625  Q 38.8125 6.390625 42.859375 10.171875  Q 46.921875 13.96875 46.921875 20.515625  Q 46.921875 27.09375 42.890625 30.859375  Q 38.875 34.625 31.78125 34.625  z M 21.921875 38.8125  Q 15.578125 40.375 12.03125 44.71875  Q 8.5 49.078125 8.5 55.328125  Q 8.5 64.0625 14.71875 69.140625  Q 20.953125 74.21875 31.78125 74.21875  Q 42.671875 74.21875 48.875 69.140625  Q 55.078125 64.0625 55.078125 55.328125  Q 55.078125 49.078125 51.53125 44.71875  Q 48 40.375 41.703125 38.8125  Q 48.828125 37.15625 52.796875 32.3125  Q 56.78125 27.484375 56.78125 20.515625  Q 56.78125 9.90625 50.3125 4.234375  Q 43.84375 -1.421875 31.78125 -1.421875  Q 19.734375 -1.421875 13.25 4.234375  Q 6.78125 9.90625 6.78125 20.515625  Q 6.78125 27.484375 10.78125 32.3125  Q 14.796875 37.15625 21.921875 38.8125  z M 18.3125 54.390625  Q 18.3125 48.734375 21.84375 45.5625  Q 25.390625 42.390625 31.78125 42.390625  Q 38.140625 42.390625 41.71875 45.5625  Q 45.3125 48.734375 45.3125 54.390625  Q 45.3125 60.0625 41.71875 63.234375  Q 38.140625 66.40625 31.78125 66.40625  Q 25.390625 66.40625 21.84375 63.234375  Q 18.3125 60.0625 18.3125 54.390625  z " id="DejaVuSans-38"/>
      </defs>
      <g transform="translate(44.2375 108.631219)scale(0.1 -0.1)">
       <use xlink:href="#DejaVuSans-38"/>
      </g>
     </g>
    </g>
    <g id="ytick_6">
     <g id="line2d_11">
      <g>
       <use style="stroke:#000000;stroke-width:0.8;" x="57.6" xlink:href="#m639daf9b6c" y="54.144"/>
      </g>
     </g>
     <g id="text_12">
      <!-- 10 -->
      <defs>
       <path d="M 12.40625 8.296875  L 28.515625 8.296875  L 28.515625 63.921875  L 10.984375 60.40625  L 10.984375 69.390625  L 28.421875 72.90625  L 38.28125 72.90625  L 38.28125 8.296875  L 54.390625 8.296875  L 54.390625 0  L 12.40625 0  z " id="DejaVuSans-31"/>
      </defs>
      <g transform="translate(37.875 57.943219)scale(0.1 -0.1)">
       <use xlink:href="#DejaVuSans-31"/>
       <use x="63.623047" xlink:href="#DejaVuSans-30"/>
      </g>
     </g>
    </g>
    <g id="text_13">
     <!-- $\psi(x)$ -->
     <defs>
      <path d="M 23.78125 -19.484375  L 28.515625 -0.875  Q 24.171875 -0.875 20.09375 0.75  Q 16.015625 2.390625 13.5 5.5625  Q 10.984375 8.734375 10.984375 13.28125  Q 10.984375 15.875 11.90625 19.1875  Q 12.84375 22.515625 13.890625 25.296875  Q 14.9375 28.078125 16.703125 32.625  Q 18.015625 36.28125 18.015625 38.625  Q 18.015625 41.609375 15.828125 41.609375  Q 11.859375 41.609375 9.296875 37.53125  Q 6.734375 33.453125 5.515625 28.421875  Q 5.328125 27.78125 4.6875 27.78125  L 3.515625 27.78125  Q 2.6875 27.78125 2.6875 28.71875  L 2.6875 29  Q 4.296875 34.96875 7.609375 39.578125  Q 10.9375 44.1875 16.015625 44.1875  Q 19.578125 44.1875 22.046875 41.84375  Q 24.515625 39.5 24.515625 35.890625  Q 24.515625 34.03125 23.6875 31.984375  Q 21.921875 27.4375 20.890625 24.75  Q 19.875 22.078125 18.9375 18.671875  Q 18.015625 15.28125 18.015625 12.59375  Q 18.015625 7.71875 21.0625 5.03125  Q 24.125 2.34375 29.109375 1.703125  L 45.90625 68.796875  Q 46.09375 69.390625 46.6875 69.390625  L 47.90625 69.390625  Q 48.6875 69.390625 48.6875 68.40625  L 31.984375 1.515625  L 33.109375 1.515625  Q 37.3125 1.515625 41.96875 4  Q 46.625 6.5 50.453125 10.546875  Q 54.296875 14.59375 56.546875 19.25  Q 58.796875 23.921875 58.796875 27.984375  Q 58.796875 31 57.8125 32.6875  Q 56.84375 34.375 55.28125 36.203125  Q 53.71875 38.03125 53.71875 39.109375  Q 53.71875 41.0625 55.328125 42.671875  Q 56.9375 44.28125 58.890625 44.28125  Q 61.28125 44.28125 62.328125 42.078125  Q 63.375 39.890625 63.375 37.109375  Q 63.375 34.1875 62.78125 31.25  Q 62.203125 28.328125 61.1875 24.3125  Q 58.890625 15.1875 51.609375 7.90625  Q 49.125 5.421875 46.109375 3.34375  Q 43.109375 1.265625 39.765625 0.0625  Q 36.421875 -1.125 33.015625 -1.125  L 31.390625 -1.125  L 26.703125 -19.921875  Q 26.515625 -20.515625 25.875 -20.515625  L 24.703125 -20.515625  Q 24.3125 -20.515625 24.046875 -20.1875  Q 23.78125 -19.875 23.78125 -19.484375  z " id="Cmmi10-c3"/>
      <path d="M 31 -24.8125  Q 25.4375 -20.40625 21.40625 -14.71875  Q 17.390625 -9.03125 14.8125 -2.578125  Q 12.25 3.859375 10.984375 10.890625  Q 9.71875 17.921875 9.71875 25  Q 9.71875 32.171875 10.984375 39.203125  Q 12.25 46.234375 14.859375 52.734375  Q 17.484375 59.234375 21.53125 64.890625  Q 25.59375 70.5625 31 74.8125  Q 31 75 31.5 75  L 32.421875 75  Q 32.71875 75 32.953125 74.734375  Q 33.203125 74.46875 33.203125 74.125  Q 33.203125 73.6875 33.015625 73.484375  Q 28.125 68.703125 24.875 63.234375  Q 21.625 57.765625 19.640625 51.578125  Q 17.671875 45.40625 16.796875 38.78125  Q 15.921875 32.171875 15.921875 25  Q 15.921875 -6.78125 32.90625 -23.296875  Q 33.203125 -23.578125 33.203125 -24.125  Q 33.203125 -24.359375 32.9375 -24.671875  Q 32.671875 -25 32.421875 -25  L 31.5 -25  Q 31 -25 31 -24.8125  z " id="Cmr10-28"/>
      <path d="M 6.5 -25  Q 5.609375 -25 5.609375 -24.125  Q 5.609375 -23.6875 5.8125 -23.484375  Q 22.90625 -6.78125 22.90625 25  Q 22.90625 56.78125 6 73.296875  Q 5.609375 73.53125 5.609375 74.125  Q 5.609375 74.46875 5.875 74.734375  Q 6.15625 75 6.5 75  L 7.421875 75  Q 7.71875 75 7.90625 74.8125  Q 15.09375 69.140625 19.875 61.03125  Q 24.65625 52.9375 26.875 43.75  Q 29.109375 34.578125 29.109375 25  Q 29.109375 17.921875 27.90625 11.0625  Q 26.703125 4.203125 24.09375 -2.453125  Q 21.484375 -9.125 17.484375 -14.765625  Q 13.484375 -20.40625 7.90625 -24.8125  Q 7.71875 -25 7.421875 -25  z " id="Cmr10-29"/>
     </defs>
     <g transform="translate(31.375 184.528)rotate(-90)scale(0.1 -0.1)">
      <use xlink:href="#Cmmi10-c3"/>
      <use transform="translate(65.087891 0)" xlink:href="#Cmr10-28"/>
      <use transform="translate(103.90625 0)" xlink:href="#Cmmi10-78"/>
      <use transform="translate(160.986328 0)" xlink:href="#Cmr10-29"/>
     </g>
    </g>
   </g>
   <g id="line2d_12">
    <path clip-path="url(#p5f26c9c36b)" d="M 75.951562 -1  L 81.949091 21.672  L 87.792873 42.930547  L 93.636655 63.367949  L 99.480436 82.984205  L 104.999564 100.756685  L 110.518691 117.796723  L 116.037818 134.10432  L 121.232291 148.783565  L 126.426764 162.814003  L 131.621236 176.195635  L 136.491055 188.151667  L 141.360873 199.537459  L 146.230691 210.353011  L 150.775855 219.933043  L 155.321018 229.016333  L 159.866182 237.60288  L 164.411345 245.692685  L 168.631855 252.759859  L 172.852364 259.39872  L 177.072873 265.609267  L 180.968727 270.96192  L 184.864582 275.949619  L 188.760436 280.572365  L 192.656291 284.830157  L 196.227491 288.412531  L 199.798691 291.688243  L 203.369891 294.657293  L 206.941091 297.31968  L 210.187636 299.47392  L 213.434182 301.37472  L 216.680727 303.02208  L 219.927273 304.416  L 223.173818 305.55648  L 226.420364 306.44352  L 229.342255 307.025165  L 232.264145 307.401523  L 235.186036 307.572595  L 238.107927 307.538381  L 241.029818 307.29888  L 243.951709 306.854093  L 246.8736 306.204019  L 250.120145 305.240947  L 253.366691 304.024435  L 256.613236 302.554483  L 259.859782 300.831091  L 263.106327 298.854259  L 266.352873 296.623987  L 269.599418 294.140275  L 273.170618 291.115469  L 276.741818 287.784  L 280.313018 284.145869  L 283.884218 280.201075  L 287.780073 275.547917  L 291.675927 270.529805  L 295.571782 265.146739  L 299.467636 259.39872  L 303.688145 252.759859  L 307.908655 245.692685  L 312.129164 238.197197  L 316.674327 229.646131  L 321.219491 220.598323  L 325.764655 211.053773  L 330.309818 201.01248  L 335.179636 189.70272  L 340.049455 177.82272  L 344.919273 165.37248  L 350.113745 151.463693  L 355.308218 136.906099  L 360.502691 121.699699  L 366.021818 104.832  L 371.540945 87.231859  L 377.060073 68.899277  L 382.903855 48.689971  L 388.747636 27.65952  L 394.591418 5.807923  L 396.368438 -1  L 396.368438 -1  " style="fill:none;stroke:#000000;stroke-linecap:square;stroke-width:1.5;"/>
   </g>
   <g id="line2d_13">
    <path clip-path="url(#p5f26c9c36b)" d="M 73.832727 294.911972  L 141.685527 294.801802  L 155.970327 294.552083  L 166.359273 294.15824  L 175.124945 293.613293  L 183.565964 292.865012  L 192.331636 291.855351  L 204.0192 290.254312  L 216.680727 288.561274  L 223.823127 287.838402  L 229.991564 287.444807  L 235.510691 287.31032  L 241.029818 287.393857  L 246.8736 287.711725  L 253.042036 288.270292  L 260.833745 289.215971  L 289.403345 292.930668  L 297.844364 293.661468  L 306.610036 294.190109  L 316.674327 294.560881  L 329.335855 294.788298  L 349.464436 294.894777  L 398.487273 294.911972  L 398.487273 294.911972  " style="fill:none;stroke:#1f77b4;stroke-linecap:square;stroke-width:1.5;"/>
   </g>
   <g id="line2d_14">
    <path clip-path="url(#p5f26c9c36b)" d="M 73.832727 269.567766  L 124.154182 269.455444  L 137.140364 269.202884  L 146.555345 268.800794  L 154.347055 268.248005  L 161.489455 267.520789  L 168.631855 266.570624  L 177.072873 265.213518  L 191.033018 262.936553  L 196.227491 262.331531  L 200.772655 262.02442  L 204.668509 261.97171  L 208.564364 262.143389  L 212.135564 262.513511  L 215.706764 263.092125  L 219.602618 263.954499  L 223.823127 265.136291  L 228.368291 266.644876  L 234.536727 268.942005  L 244.925673 272.831453  L 249.795491 274.388457  L 254.016 275.494787  L 257.911855 276.278286  L 261.483055 276.781165  L 265.054255 277.076122  L 268.950109 277.170442  L 272.845964 277.048778  L 277.391127 276.675397  L 282.5856 276.016152  L 290.052655 274.814634  L 304.662109 272.423386  L 311.804509 271.502768  L 318.946909 270.805895  L 326.413964 270.299118  L 335.179636 269.933116  L 346.542545 269.699644  L 364.398545 269.588263  L 398.487273 269.568234  L 398.487273 269.568234  " style="fill:none;stroke:#ff7f0e;stroke-linecap:square;stroke-width:1.5;"/>
   </g>
   <g id="line2d_15">
    <path clip-path="url(#p5f26c9c36b)" d="M 73.832727 244.225388  L 110.194036 244.343124  L 122.206255 244.60364  L 130.647273 245.002242  L 137.789673 245.563628  L 143.958109 246.26314  L 150.126545 247.185584  L 156.619636 248.38464  L 167.333236 250.643946  L 173.826327 251.894702  L 178.371491 252.546773  L 182.267345 252.872037  L 185.513891 252.932503  L 188.760436 252.770121  L 191.682327 252.415532  L 194.604218 251.854399  L 197.850764 250.988414  L 201.097309 249.879628  L 204.668509 248.412444  L 208.889018 246.421002  L 222.849164 239.583859  L 226.095709 238.370274  L 229.0176 237.520982  L 231.614836 236.990086  L 234.212073 236.689118  L 236.809309 236.628402  L 239.406545 236.810027  L 242.003782 237.22775  L 244.601018 237.867282  L 247.522909 238.824633  L 250.769455 240.135716  L 254.665309 241.960599  L 269.599418 249.242112  L 273.170618 250.572844  L 276.417164 251.538266  L 279.339055 252.191867  L 282.260945 252.637651  L 285.507491 252.895694  L 288.754036 252.921241  L 292.325236 252.712507  L 296.221091 252.251762  L 300.766255 251.488241  L 307.584 250.092451  L 318.946909 247.75875  L 325.44 246.671986  L 331.608436 245.868027  L 338.101527 245.252724  L 345.243927 244.804131  L 354.0096 244.489285  L 366.021818 244.303068  L 388.098327 244.229707  L 398.487273 244.225388  L 398.487273 244.225388  " style="fill:none;stroke:#2ca02c;stroke-linecap:square;stroke-width:1.5;"/>
   </g>
   <g id="line2d_16">
    <path clip-path="url(#p5f26c9c36b)" d="M 73.832727 218.884912  L 101.428364 219.013243  L 112.791273 219.283649  L 120.907636 219.690855  L 127.725382 220.24776  L 133.893818 220.964491  L 140.062255 221.89758  L 147.529309 223.269414  L 159.866182 225.582862  L 164.411345 226.17724  L 167.982545 226.437618  L 171.229091 226.470546  L 174.475636 226.276504  L 177.397527 225.888772  L 180.319418 225.290453  L 183.565964 224.381063  L 186.812509 223.232492  L 190.383709 221.736995  L 195.253527 219.439788  L 203.045236 215.754265  L 206.291782 214.462277  L 209.213673 213.528793  L 211.810909 212.926406  L 214.408145 212.568488  L 216.680727 212.471224  L 218.953309 212.581886  L 221.225891 212.899298  L 223.823127 213.504101  L 226.420364 214.343832  L 229.342255 215.5252  L 232.913455 217.216944  L 243.951709 222.652952  L 246.8736 223.756598  L 249.470836 224.511771  L 252.068073 225.021679  L 254.340655 225.251091  L 256.613236 225.272367  L 258.885818 225.087393  L 261.483055 224.634986  L 264.080291 223.947928  L 267.002182 222.934881  L 270.573382 221.431883  L 275.767855 218.955424  L 282.5856 215.73587  L 286.481455 214.159645  L 289.728 213.07982  L 292.974545 212.246593  L 295.896436 211.718802  L 298.818327 211.399889  L 302.064873 211.2768  L 305.311418 211.371957  L 309.207273 211.726452  L 313.752436 212.387353  L 320.245527 213.592801  L 332.5824 215.916678  L 339.075491 216.881194  L 345.243927 217.57536  L 352.061673 218.110877  L 359.853382 218.488108  L 369.917673 218.732613  L 385.176436 218.853185  L 398.487273 218.875088  L 398.487273 218.875088  " style="fill:none;stroke:#d62728;stroke-linecap:square;stroke-width:1.5;"/>
   </g>
   <g id="line2d_17">
    <path clip-path="url(#p5f26c9c36b)" d="M 73.832727 193.556134  L 92.338036 193.71168  L 102.077673 194.002594  L 109.220073 194.422037  L 115.388509 194.997837  L 120.907636 195.726676  L 126.426764 196.680985  L 132.270545 197.926097  L 141.036218 200.066646  L 147.529309 201.551838  L 151.425164 202.230282  L 154.671709 202.590566  L 157.5936 202.707662  L 160.515491 202.591811  L 163.112727 202.270311  L 165.709964 201.729393  L 168.3072 200.964271  L 170.904436 199.97985  L 173.826327 198.630245  L 177.072873 196.877654  L 181.618036 194.13101  L 188.435782 189.995717  L 191.357673 188.476905  L 193.954909 187.36743  L 196.227491 186.630853  L 198.500073 186.146889  L 200.448 185.951336  L 202.395927 185.967982  L 204.343855 186.199827  L 206.291782 186.643447  L 208.564364 187.414955  L 210.836945 188.433781  L 213.434182 189.851314  L 216.680727 191.893987  L 225.4464 197.578525  L 228.043636 198.921279  L 230.316218 199.846944  L 232.264145 200.421713  L 234.212073 200.774353  L 236.16 200.89321  L 238.107927 200.774353  L 240.055855 200.421713  L 242.003782 199.846944  L 244.276364 198.921279  L 246.8736 197.578525  L 249.795491 195.798583  L 260.833745 188.765196  L 263.430982 187.546137  L 265.703564 186.737367  L 267.651491 186.259245  L 269.599418 185.99169  L 271.547345 185.939216  L 273.495273 186.099873  L 275.4432 186.46559  L 277.715782 187.13294  L 279.988364 188.030655  L 282.5856 189.290748  L 285.832145 191.123078  L 292.325236 195.136777  L 296.545745 197.606344  L 299.792291 199.259731  L 302.714182 200.498754  L 305.311418 201.374793  L 307.908655 202.02779  L 310.505891 202.457849  L 313.103127 202.674063  L 316.025018 202.68241  L 318.946909 202.472793  L 322.518109 201.975378  L 326.738618 201.139689  L 333.231709 199.583287  L 342.646691 197.345779  L 348.490473 196.20345  L 354.0096 195.356436  L 359.853382 194.696434  L 366.346473 194.203342  L 373.813527 193.866558  L 383.877818 193.651108  L 398.487273 193.556134  L 398.487273 193.556134  " style="fill:none;stroke:#9467bd;stroke-linecap:square;stroke-width:1.5;"/>
   </g>
   <g id="line2d_18">
    <path clip-path="url(#p5f26c9c36b)" d="M 73.832727 168.142777  L 88.117527 167.949507  L 96.8832 167.623895  L 104.0256 167.137642  L 110.194036 166.493269  L 116.037818 165.656733  L 122.206255 164.540073  L 132.919855 162.302147  L 138.438982 161.294587  L 142.334836 160.802207  L 145.581382 160.60309  L 148.503273 160.630733  L 151.425164 160.884858  L 154.0224 161.317607  L 156.619636 161.951927  L 159.541527 162.902503  L 162.463418 164.084223  L 166.034618 165.785384  L 171.553745 168.722359  L 176.423564 171.238175  L 179.345455 172.525738  L 181.942691 173.439762  L 184.215273 174.01576  L 186.487855 174.351678  L 188.435782 174.432803  L 190.383709 174.315883  L 192.331636 174.000859  L 194.604218 173.39236  L 196.8768 172.546349  L 199.474036 171.33406  L 202.720582 169.555265  L 211.1616 164.778637  L 213.758836 163.639909  L 216.031418 162.891444  L 217.979345 162.467238  L 219.927273 162.262565  L 221.8752 162.286613  L 223.823127 162.539638  L 225.771055 163.012817  L 228.043636 163.819091  L 230.316218 164.858637  L 233.238109 166.448295  L 242.977745 171.996186  L 245.250327 172.941794  L 247.522909 173.63439  L 249.470836 173.999157  L 251.418764 174.13823  L 253.366691 174.047319  L 255.314618 173.731189  L 257.262545 173.203321  L 259.535127 172.348942  L 262.132364 171.115292  L 265.378909 169.312963  L 273.170618 164.886183  L 275.767855 163.703449  L 278.040436 162.889505  L 280.313018 162.317081  L 282.260945 162.034791  L 284.208873 161.951063  L 286.1568 162.064729  L 288.429382 162.436425  L 290.701964 163.044498  L 293.2992 163.989185  L 296.221091 165.302182  L 300.4416 167.486508  L 307.908655 171.401619  L 311.1552 172.851507  L 314.077091 173.934112  L 316.998982 174.774483  L 319.920873 175.360263  L 322.842764 175.694945  L 325.764655 175.7952  L 329.0112 175.664335  L 332.5824 175.279355  L 336.802909 174.58869  L 343.296 173.265013  L 353.360291 171.228818  L 359.204073 170.280659  L 365.047855 169.556421  L 371.216291 169.017594  L 378.358691 168.624518  L 387.449018 168.364555  L 398.487273 168.241223  L 398.487273 168.241223  " style="fill:none;stroke:#8c564b;stroke-linecap:square;stroke-width:1.5;"/>
   </g>
   <g id="line2d_19">
    <path clip-path="url(#p5f26c9c36b)" d="M 73.832727 143.005682  L 83.572364 143.291654  L 90.714764 143.722202  L 96.558545 144.292128  L 101.753018 145.011579  L 106.947491 145.957871  L 112.466618 147.205742  L 119.933673 149.161341  L 126.751418 150.88701  L 130.647273 151.64694  L 133.893818 152.049396  L 136.815709 152.171829  L 139.412945 152.051968  L 142.010182 151.690157  L 144.282764 151.161582  L 146.555345 150.430337  L 149.152582 149.351252  L 151.749818 148.031377  L 154.671709 146.303085  L 158.567564 143.726452  L 165.385309 139.180285  L 167.982545 137.708884  L 170.255127 136.649667  L 172.203055 135.954002  L 174.150982 135.484109  L 176.098909 135.261471  L 178.046836 135.299655  L 179.994764 135.603214  L 181.942691 136.166918  L 183.890618 136.97537  L 186.1632 138.193316  L 188.760436 139.876437  L 192.331636 142.499622  L 197.201455 146.077684  L 199.798691 147.702165  L 201.746618 148.688419  L 203.694545 149.425801  L 205.317818 149.825088  L 206.941091 150.013888  L 208.564364 149.984865  L 210.187636 149.737358  L 211.810909 149.277536  L 213.758836 148.464172  L 215.706764 147.398605  L 217.979345 145.899409  L 221.225891 143.455988  L 226.420364 139.521227  L 228.692945 138.06957  L 230.640873 137.062295  L 232.5888 136.324138  L 234.212073 135.940051  L 235.835345 135.779796  L 237.458618 135.848628  L 239.081891 136.144288  L 240.705164 136.65709  L 242.653091 137.534977  L 244.601018 138.65979  L 247.198255 140.451268  L 251.743418 143.961058  L 254.989964 146.351264  L 257.262545 147.779169  L 259.210473 148.765286  L 261.1584 149.486264  L 262.781673 149.862338  L 264.404945 150.022808  L 266.028218 149.964242  L 267.651491 149.690004  L 269.274764 149.210004  L 271.222691 148.385319  L 273.170618 147.325513  L 275.767855 145.629138  L 279.663709 142.745774  L 284.208873 139.431767  L 286.806109 137.817926  L 289.078691 136.680062  L 291.026618 135.950851  L 292.974545 135.472657  L 294.922473 135.257471  L 296.8704 135.307197  L 298.818327 135.614177  L 300.766255 136.162069  L 302.714182 136.927037  L 304.986764 138.053657  L 307.908655 139.786824  L 312.129164 142.611106  L 317.972945 146.505854  L 321.219491 148.382276  L 323.816727 149.644613  L 326.413964 150.659902  L 329.0112 151.412843  L 331.283782 151.855478  L 333.881018 152.124062  L 336.478255 152.159378  L 339.400145 151.955306  L 342.646691 151.481219  L 346.542545 150.662732  L 352.386327 149.161341  L 361.801309 146.739324  L 367.320436 145.575872  L 372.514909 144.71608  L 378.034036 144.042964  L 383.877818 143.557872  L 391.020218 143.200405  L 398.487273 143.005682  L 398.487273 143.005682  " style="fill:none;stroke:#e377c2;stroke-linecap:square;stroke-width:1.5;"/>
   </g>
   <g id="line2d_20">
    <path clip-path="url(#p5f26c9c36b)" d="M 73.832727 117.202626  L 81.949091 116.833412  L 88.442182 116.316102  L 94.285964 115.622302  L 99.805091 114.741204  L 105.973527 113.515704  L 120.258327 110.532729  L 123.829527 110.081136  L 127.076073 109.904133  L 129.997964 109.983706  L 132.5952 110.273052  L 135.192436 110.784799  L 137.789673 111.524633  L 140.386909 112.485982  L 143.3088 113.806158  L 146.88 115.687351  L 157.268945 121.382177  L 159.866182 122.445918  L 162.138764 123.133962  L 164.086691 123.510513  L 166.034618 123.669908  L 167.982545 123.600624  L 169.930473 123.299691  L 171.8784 122.773428  L 174.150982 121.896474  L 176.423564 120.776559  L 179.345455 119.074418  L 187.786473 113.950883  L 190.059055 112.917221  L 192.006982 112.260171  L 193.954909 111.850435  L 195.578182 111.714527  L 197.201455 111.772561  L 198.824727 112.024329  L 200.772655 112.571968  L 202.720582 113.363763  L 204.993164 114.545654  L 207.915055 116.350295  L 214.7328 120.688737  L 217.005382 121.814425  L 218.953309 122.536973  L 220.576582 122.93752  L 222.199855 123.138056  L 223.823127 123.130567  L 225.4464 122.914766  L 227.069673 122.498168  L 229.0176 121.754941  L 231.290182 120.603452  L 233.887418 119.016369  L 241.679127 114.04846  L 243.951709 112.977789  L 245.899636 112.319898  L 247.522909 111.982224  L 249.146182 111.849281  L 250.769455 111.925474  L 252.392727 112.207399  L 254.340655 112.801255  L 256.288582 113.642675  L 258.561164 114.876261  L 261.807709 116.936393  L 267.002182 120.274904  L 269.274764 121.49098  L 271.222691 122.320165  L 273.170618 122.91056  L 275.118545 123.235439  L 276.741818 123.293473  L 278.365091 123.157565  L 280.313018 122.747829  L 282.260945 122.090779  L 284.533527 121.057117  L 287.130764 119.609128  L 291.675927 116.748429  L 295.571782 114.408074  L 298.169018 113.111526  L 300.4416 112.234572  L 302.389527 111.708309  L 304.337455 111.407376  L 306.285382 111.338092  L 308.233309 111.497487  L 310.181236 111.874038  L 312.453818 112.562082  L 314.7264 113.478938  L 317.648291 114.914678  L 321.8688 117.27964  L 327.712582 120.546219  L 330.959127 122.108121  L 333.881018 123.263244  L 336.478255 124.059594  L 339.075491 124.628274  L 341.672727 124.972096  L 344.269964 125.104508  L 347.191855 125.027937  L 350.4384 124.70905  L 354.334255 124.08363  L 359.853382 122.934895  L 371.540945 120.444845  L 377.060073 119.525005  L 382.5792 118.825783  L 388.422982 118.305272  L 395.240727 117.923606  L 398.487273 117.805374  L 398.487273 117.805374  " style="fill:none;stroke:#7f7f7f;stroke-linecap:square;stroke-width:1.5;"/>
   </g>
   <g id="line2d_21">
    <path clip-path="url(#p5f26c9c36b)" d="M 73.832727 91.521101  L 80.325818 91.011369  L 85.844945 90.363927  L 91.364073 89.489237  L 97.207855 88.326751  L 112.791273 85.053478  L 116.037818 84.681831  L 118.959709 84.5568  L 121.556945 84.649017  L 124.154182 84.958732  L 126.751418 85.502443  L 129.348655 86.285449  L 131.945891 87.299343  L 134.867782 88.685459  L 138.438982 90.646289  L 147.529309 95.791306  L 150.126545 96.929474  L 152.399127 97.679014  L 154.347055 98.101096  L 156.294982 98.296089  L 158.242909 98.250025  L 160.190836 97.958406  L 162.138764 97.427137  L 164.086691 96.672997  L 166.359273 95.548882  L 169.281164 93.814037  L 177.722182 88.554219  L 179.994764 87.513804  L 181.942691 86.872156  L 183.565964 86.542111  L 185.189236 86.413374  L 186.812509 86.492819  L 188.435782 86.779733  L 190.059055 87.265597  L 192.006982 88.087888  L 194.279564 89.322848  L 197.201455 91.207043  L 203.045236 95.078835  L 205.317818 96.28546  L 207.265745 97.065379  L 208.889018 97.499229  L 210.512291 97.716312  L 212.135564 97.706698  L 213.758836 97.469733  L 215.382109 97.014194  L 217.330036 96.204923  L 219.277964 95.154259  L 221.8752 93.486766  L 228.692945 88.933598  L 230.640873 87.931967  L 232.5888 87.187342  L 234.212073 86.796548  L 235.835345 86.632842  L 237.458618 86.703203  L 239.081891 87.00463  L 240.705164 87.524278  L 242.653091 88.404154  L 244.925673 89.714465  L 248.172218 91.905256  L 252.717382 94.959846  L 254.989964 96.204923  L 256.937891 97.014194  L 258.561164 97.469733  L 260.184436 97.706698  L 261.807709 97.716312  L 263.430982 97.499229  L 265.054255 97.065379  L 267.002182 96.28546  L 268.950109 95.267566  L 271.547345 93.645291  L 279.0144 88.762001  L 281.286982 87.646174  L 283.234909 86.950944  L 284.858182 86.582991  L 286.481455 86.420036  L 288.104727 86.465909  L 289.728 86.716724  L 291.675927 87.271963  L 293.623855 88.073925  L 295.896436 89.26285  L 298.818327 91.061307  L 305.636073 95.369983  L 307.908655 96.527423  L 310.181236 97.427137  L 312.129164 97.958406  L 314.077091 98.250025  L 316.025018 98.296089  L 317.972945 98.101096  L 319.920873 97.679014  L 322.193455 96.929474  L 324.466036 95.947459  L 327.387927 94.431828  L 332.257745 91.595796  L 336.802909 89.023556  L 340.049455 87.441298  L 342.646691 86.399895  L 345.243927 85.587264  L 347.841164 85.013671  L 350.4384 84.675406  L 353.035636 84.557218  L 355.957527 84.657207  L 359.204073 85.007036  L 363.099927 85.670008  L 368.619055 86.86122  L 379.008 89.126365  L 384.527127 90.081723  L 390.046255 90.807573  L 395.890036 91.345945  L 398.487273 91.521101  L 398.487273 91.521101  " style="fill:none;stroke:#bcbd22;stroke-linecap:square;stroke-width:1.5;"/>
   </g>
   <g id="line2d_22">
    <path clip-path="url(#p5f26c9c36b)" d="M 73.832727 65.585041  L 79.351855 64.891776  L 84.546327 64.022662  L 90.390109 62.813164  L 104.0256 59.84977  L 107.5968 59.382346  L 110.518691 59.217451  L 113.115927 59.276848  L 115.713164 59.559217  L 118.3104 60.083777  L 120.907636 60.858007  L 123.504873 61.874767  L 126.426764 63.277973  L 129.997964 65.276087  L 138.763636 70.360642  L 141.360873 71.537102  L 143.633455 72.310668  L 145.581382 72.743084  L 147.529309 72.936934  L 149.477236 72.877219  L 151.425164 72.559443  L 153.373091 71.990681  L 155.321018 71.190113  L 157.5936 70.005391  L 160.515491 68.194196  L 167.982545 63.398232  L 170.255127 62.295834  L 172.203055 61.609122  L 173.826327 61.251099  L 175.4496 61.105458  L 177.072873 61.180427  L 178.696145 61.475677  L 180.319418 61.982031  L 182.267345 62.842465  L 184.539927 64.134279  L 187.461818 66.094337  L 192.656291 69.637522  L 194.928873 70.888194  L 196.8768 71.68932  L 198.500073 72.124799  L 200.123345 72.32682  L 201.746618 72.284958  L 203.369891 71.999605  L 204.993164 71.482143  L 206.941091 70.586543  L 209.213673 69.236346  L 212.135564 67.202997  L 216.680727 64.042226  L 218.953309 62.769783  L 220.576582 62.080812  L 222.199855 61.613174  L 223.823127 61.389309  L 225.4464 61.420245  L 227.069673 61.705002  L 228.692945 62.230567  L 230.316218 62.972467  L 232.264145 64.098667  L 234.861382 65.872369  L 240.380509 69.736105  L 242.328436 70.823686  L 243.951709 71.524793  L 245.574982 72.003801  L 247.198255 72.238454  L 248.821527 72.21812  L 250.4448 71.94424  L 252.068073 71.430193  L 253.691345 70.700577  L 255.639273 69.589774  L 258.236509 67.835495  L 264.080291 63.783134  L 266.028218 62.716472  L 267.976145 61.916199  L 269.599418 61.489519  L 271.222691 61.30081  L 272.845964 61.357069  L 274.469236 61.654312  L 276.092509 62.17795  L 278.040436 63.070273  L 280.313018 64.400494  L 283.559564 66.619208  L 287.780073 69.497721  L 290.052655 70.789535  L 292.000582 71.649969  L 293.623855 72.156323  L 295.247127 72.451573  L 296.8704 72.526542  L 298.493673 72.380901  L 300.116945 72.022878  L 302.064873 71.336166  L 304.0128 70.408302  L 306.610036 68.888202  L 311.1552 65.867813  L 314.7264 63.626609  L 316.998982 62.441887  L 318.946909 61.641319  L 320.894836 61.072557  L 322.842764 60.754781  L 324.790691 60.695066  L 326.738618 60.888916  L 328.686545 61.321332  L 330.634473 61.968312  L 332.907055 62.952374  L 335.828945 64.48964  L 340.374109 67.189584  L 345.243927 70.010316  L 348.165818 71.467565  L 350.763055 72.541904  L 353.360291 73.378063  L 355.957527 73.964865  L 358.554764 74.306385  L 361.152 74.4192  L 364.073891 74.305296  L 367.320436 73.933994  L 371.216291 73.242741  L 377.060073 71.941888  L 386.1504 69.923162  L 391.669527 68.93758  L 397.188655 68.189606  L 398.487273 68.046959  L 398.487273 68.046959  " style="fill:none;stroke:#17becf;stroke-linecap:square;stroke-width:1.5;"/>
   </g>
   <g id="patch_3">
    <path d="M 57.6 307.584  L 57.6 41.472  " style="fill:none;stroke:#000000;stroke-linecap:square;stroke-linejoin:miter;stroke-width:0.8;"/>
   </g>
   <g id="patch_4">
    <path d="M 414.72 307.584  L 414.72 41.472  " style="fill:none;stroke:#000000;stroke-linecap:square;stroke-linejoin:miter;stroke-width:0.8;"/>
   </g>
   <g id="patch_5">
    <path d="M 57.6 307.584  L 414.72 307.584  " style="fill:none;stroke:#000000;stroke-linecap:square;stroke-linejoin:miter;stroke-width:0.8;"/>
   </g>
   <g id="patch_6">
    <path d="M 57.6 41.472  L 414.72 41.472  " style="fill:none;stroke:#000000;stroke-linecap:square;stroke-linejoin:miter;stroke-width:0.8;"/>
   </g>
  </g>
 </g>
 <defs>
  <clipPath id="p5f26c9c36b">
   <rect height="266.112" width="357.12" x="57.6" y="41.472"/>
  </clipPath>
 </defs>
</svg>