<svg xmlns="http://www.w3.org/2000/svg" xmlns:xlink="http://www.w3.org/1999/xlink" version="1.1" viewBox="0 0 460 345" viewport="0 0 400px 300px">
 <defs>
  <style type="text/css">
*{stroke-linecap:butt;stroke-linejoin:round;}
  </style>
 </defs>
 <g id="figure_1">
  <g id="patch_1">
   <path d="M 0 345.6  L 460.8 345.6  L 460.8 0  L 0 0  z " style="fill:#ffffff;"/>
  </g>
  <g id="axes_1">
   <g id="patch_2">
    <path d="M 57.6 307.584  L 414.72 307.584  L 414.72 41.472  L 57.6 41.472  z " style="fill:#ffffff;"/>
   </g>
   <g id="matplotlib.axis_1">
    <g id="xtick_1">
     <g id="line2d_1">
      <defs>
       <path d="M 0 0  L 0 3.5  " id="mdf0ae893ca" style="stroke:#000000;stroke-width:0.8;"/>
      </defs>
      <g>
       <use style="stroke:#000000;stroke-width:0.8;" x="73.832727" xlink:href="#mdf0ae893ca" y="307.584"/>
      </g>
     </g>
     <g id="text_1">
      <!-- &#8722;1.00 -->
      <defs>
       <path d="M 10.59375 35.5  L 73.1875 35.5  L 73.1875 27.203125  L 10.59375 27.203125  z " id="DejaVuSans-2212"/>
       <path d="M 12.40625 8.296875  L 28.515625 8.296875  L 28.515625 63.921875  L 10.984375 60.40625  L 10.984375 69.390625  L 28.421875 72.90625  L 38.28125 72.90625  L 38.28125 8.296875  L 54.390625 8.296875  L 54.390625 0  L 12.40625 0  z " id="DejaVuSans-31"/>
       <path d="M 10.6875 12.40625  L 21 12.40625  L 21 0  L 10.6875 0  z " id="DejaVuSans-2e"/>
       <path d="M 31.78125 66.40625  Q 24.171875 66.40625 20.328125 58.90625  Q 16.5 51.421875 16.5 36.375  Q 16.5 21.390625 20.328125 13.890625  Q 24.171875 6.390625 31.78125 6.390625  Q 39.453125 6.390625 43.28125 13.890625  Q 47.125 21.390625 47.125 36.375  Q 47.125 51.421875 43.28125 58.90625  Q 39.453125 66.40625 31.78125 66.40625  z M 31.78125 74.21875  Q 44.046875 74.21875 50.515625 64.515625  Q 56.984375 54.828125 56.984375 36.375  Q 56.984375 17.96875 50.515625 8.265625  Q 44.046875 -1.421875 31.78125 -1.421875  Q 19.53125 -1.421875 13.0625 8.265625  Q 6.59375 17.96875 6.59375 36.375  Q 6.59375 54.828125 13.0625 64.515625  Q 19.53125 74.21875 31.78125 74.21875  z " id="DejaVuSans-30"/>
      </defs>
      <g transform="translate(58.510071 322.182437)scale(0.1 -0.1)">
       <use xlink:href="#DejaVuSans-2212"/>
       <use x="83.789062" xlink:href="#DejaVuSans-31"/>
       <use x="147.412109" xlink:href="#DejaVuSans-2e"/>
       <use x="179.199219" xlink:href="#DejaVuSans-30"/>
       <use x="242.822266" xlink:href="#DejaVuSans-30"/>
      </g>
     </g>
    </g>
    <g id="xtick_2">
     <g id="line2d_2">
      <g>
       <use style="stroke:#000000;stroke-width:0.8;" x="114.414545" xlink:href="#mdf0ae893ca" y="307.584"/>
      </g>
     </g>
     <g id="text_2">
      <!-- &#8722;0.75 -->
      <defs>
       <path d="M 8.203125 72.90625  L 55.078125 72.90625  L 55.078125 68.703125  L 28.609375 0  L 18.3125 0  L 43.21875 64.59375  L 8.203125 64.59375  z " id="DejaVuSans-37"/>
       <path d="M 10.796875 72.90625  L 49.515625 72.90625  L 49.515625 64.59375  L 19.828125 64.59375  L 19.828125 46.734375  Q 21.96875 47.46875 24.109375 47.828125  Q 26.265625 48.1875 28.421875 48.1875  Q 40.625 48.1875 47.75 41.5  Q 54.890625 34.8125 54.890625 23.390625  Q 54.890625 11.625 47.5625 5.09375  Q 40.234375 -1.421875 26.90625 -1.421875  Q 22.3125 -1.421875 17.546875 -0.640625  Q 12.796875 0.140625 7.71875 1.703125  L 7.71875 11.625  Q 12.109375 9.234375 16.796875 8.0625  Q 21.484375 6.890625 26.703125 6.890625  Q 35.15625 6.890625 40.078125 11.328125  Q 45.015625 15.765625 45.015625 23.390625  Q 45.015625 31 40.078125 35.4375  Q 35.15625 39.890625 26.703125 39.890625  Q 22.75 39.890625 18.8125 39.015625  Q 14.890625 38.140625 10.796875 36.28125  z " id="DejaVuSans-35"/>
      </defs>
      <g transform="translate(99.091889 322.182437)scale(0.1 -0.1)">
       <use xlink:href="#DejaVuSans-2212"/>
       <use x="83.789062" xlink:href="#DejaVuSans-30"/>
       <use x="147.412109" xlink:href="#DejaVuSans-2e"/>
       <use x="179.199219" xlink:href="#DejaVuSans-37"/>
       <use x="242.822266" xlink:href="#DejaVuSans-35"/>
      </g>
     </g>
    </g>
    <g id="xtick_3">
     <g id="line2d_3">
      <g>
       <use style="stroke:#000000;stroke-width:0.8;" x="154.996364" xlink:href="#mdf0ae893ca" y="307.584"/>
      </g>
     </g>
     <g id="text_3">
      <!-- &#8722;0.50 -->
      <g transform="translate(139.673707 322.182437)scale(0.1 -0.1)">
       <use xlink:href="#DejaVuSans-2212"/>
       <use x="83.789062" xlink:href="#DejaVuSans-30"/>
       <use x="147.412109" xlink:href="#DejaVuSans-2e"/>
       <use x="179.199219" xlink:href="#DejaVuSans-35"/>
       <use x="242.822266" xlink:href="#DejaVuSans-30"/>
      </g>
     </g>
    </g>
    <g id="xtick_4">
     <g id="line2d_4">
      <g>
       <use style="stroke:#000000;stroke-width:0.8;" x="195.578182" xlink:href="#mdf0ae893ca" y="307.584"/>
      </g>
     </g>
     <g id="text_4">
      <!-- &#8722;0.25 -->
      <defs>
       <path d="M 19.1875 8.296875  L 53.609375 8.296875  L 53.609375 0  L 7.328125 0  L 7.328125 8.296875  Q 12.9375 14.109375 22.625 23.890625  Q 32.328125 33.6875 34.8125 36.53125  Q 39.546875 41.84375 41.421875 45.53125  Q 43.3125 49.21875 43.3125 52.78125  Q 43.3125 58.59375 39.234375 62.25  Q 35.15625 65.921875 28.609375 65.921875  Q 23.96875 65.921875 18.8125 64.3125  Q 13.671875 62.703125 7.8125 59.421875  L 7.8125 69.390625  Q 13.765625 71.78125 18.9375 73  Q 24.125 74.21875 28.421875 74.21875  Q 39.75 74.21875 46.484375 68.546875  Q 53.21875 62.890625 53.21875 53.421875  Q 53.21875 48.921875 51.53125 44.890625  Q 49.859375 40.875 45.40625 35.40625  Q 44.1875 33.984375 37.640625 27.21875  Q 31.109375 20.453125 19.1875 8.296875  z " id="DejaVuSans-32"/>
      </defs>
      <g transform="translate(180.255526 322.182437)scale(0.1 -0.1)">
       <use xlink:href="#DejaVuSans-2212"/>
       <use x="83.789062" xlink:href="#DejaVuSans-30"/>
       <use x="147.412109" xlink:href="#DejaVuSans-2e"/>
       <use x="179.199219" xlink:href="#DejaVuSans-32"/>
       <use x="242.822266" xlink:href="#DejaVuSans-35"/>
      </g>
     </g>
    </g>
    <g id="xtick_5">
     <g id="line2d_5">
      <g>
       <use style="stroke:#000000;stroke-width:0.8;" x="236.16" xlink:href="#mdf0ae893ca" y="307.584"/>
      </g>
     </g>
     <g id="text_5">
      <!-- 0.00 -->
      <g transform="translate(225.027187 322.182437)scale(0.1 -0.1)">
       <use xlink:href="#DejaVuSans-30"/>
       <use x="63.623047" xlink:href="#DejaVuSans-2e"/>
       <use x="95.410156" xlink:href="#DejaVuSans-30"/>
       <use x="159.033203" xlink:href="#DejaVuSans-30"/>
      </g>
     </g>
    </g>
    <g id="xtick_6">
     <g id="line2d_6">
      <g>
       <use style="stroke:#000000;stroke-width:0.8;" x="276.741818" xlink:href="#mdf0ae893ca" y="307.584"/>
      </g>
     </g>
     <g id="text_6">
      <!-- 0.25 -->
      <g transform="translate(265.609006 322.182437)scale(0.1 -0.1)">
       <use xlink:href="#DejaVuSans-30"/>
       <use x="63.623047" xlink:href="#DejaVuSans-2e"/>
       <use x="95.410156" xlink:href="#DejaVuSans-32"/>
       <use x="159.033203" xlink:href="#DejaVuSans-35"/>
      </g>
     </g>
    </g>
    <g id="xtick_7">
     <g id="line2d_7">
      <g>
       <use style="stroke:#000000;stroke-width:0.8;" x="317.323636" xlink:href="#mdf0ae893ca" y="307.584"/>
      </g>
     </g>
     <g id="text_7">
      <!-- 0.50 -->
      <g transform="translate(306.190824 322.182437)scale(0.1 -0.1)">
       <use xlink:href="#DejaVuSans-30"/>
       <use x="63.623047" xlink:href="#DejaVuSans-2e"/>
       <use x="95.410156" xlink:href="#DejaVuSans-35"/>
       <use x="159.033203" xlink:href="#DejaVuSans-30"/>
      </g>
     </g>
    </g>
    <g id="xtick_8">
     <g id="line2d_8">
      <g>
       <use style="stroke:#000000;stroke-width:0.8;" x="357.905455" xlink:href="#mdf0ae893ca" y="307.584"/>
      </g>
     </g>
     <g id="text_8">
      <!-- 0.75 -->
      <g transform="translate(346.772642 322.182437)scale(0.1 -0.1)">
       <use xlink:href="#DejaVuSans-30"/>
       <use x="63.623047" xlink:href="#DejaVuSans-2e"/>
       <use x="95.410156" xlink:href="#DejaVuSans-37"/>
       <use x="159.033203" xlink:href="#DejaVuSans-35"/>
      </g>
     </g>
    </g>
    <g id="xtick_9">
     <g id="line2d_9">
      <g>
       <use style="stroke:#000000;stroke-width:0.8;" x="398.487273" xlink:href="#mdf0ae893ca" y="307.584"/>
      </g>
     </g>
     <g id="text_9">
      <!-- 1.00 -->
      <g transform="translate(387.35446 322.182437)scale(0.1 -0.1)">
       <use xlink:href="#DejaVuSans-31"/>
       <use x="63.623047" xlink:href="#DejaVuSans-2e"/>
       <use x="95.410156" xlink:href="#DejaVuSans-30"/>
       <use x="159.033203" xlink:href="#DejaVuSans-30"/>
      </g>
     </g>
    </g>
   </g>
   <g id="matplotlib.axis_2">
    <g id="ytick_1">
     <g id="line2d_10">
      <defs>
       <path d="M 0 0  L -3.5 0  " id="m295a4d8165" style="stroke:#000000;stroke-width:0.8;"/>
      </defs>
      <g>
       <use style="stroke:#000000;stroke-width:0.8;" x="57.6" xlink:href="#m295a4d8165" y="307.584"/>
      </g>
     </g>
     <g id="text_10">
      <!-- 0.0 -->
      <g transform="translate(34.696875 311.383219)scale(0.1 -0.1)">
       <use xlink:href="#DejaVuSans-30"/>
       <use x="63.623047" xlink:href="#DejaVuSans-2e"/>
       <use x="95.410156" xlink:href="#DejaVuSans-30"/>
      </g>
     </g>
    </g>
    <g id="ytick_2">
     <g id="line2d_11">
      <g>
       <use style="stroke:#000000;stroke-width:0.8;" x="57.6" xlink:href="#m295a4d8165" y="263.232"/>
      </g>
     </g>
     <g id="text_11">
      <!-- 0.2 -->
      <g transform="translate(34.696875 267.031219)scale(0.1 -0.1)">
       <use xlink:href="#DejaVuSans-30"/>
       <use x="63.623047" xlink:href="#DejaVuSans-2e"/>
       <use x="95.410156" xlink:href="#DejaVuSans-32"/>
      </g>
     </g>
    </g>
    <g id="ytick_3">
     <g id="line2d_12">
      <g>
       <use style="stroke:#000000;stroke-width:0.8;" x="57.6" xlink:href="#m295a4d8165" y="218.88"/>
      </g>
     </g>
     <g id="text_12">
      <!-- 0.4 -->
      <defs>
       <path d="M 37.796875 64.3125  L 12.890625 25.390625  L 37.796875 25.390625  z M 35.203125 72.90625  L 47.609375 72.90625  L 47.609375 25.390625  L 58.015625 25.390625  L 58.015625 17.1875  L 47.609375 17.1875  L 47.609375 0  L 37.796875 0  L 37.796875 17.1875  L 4.890625 17.1875  L 4.890625 26.703125  z " id="DejaVuSans-34"/>
      </defs>
      <g transform="translate(34.696875 222.679219)scale(0.1 -0.1)">
       <use xlink:href="#DejaVuSans-30"/>
       <use x="63.623047" xlink:href="#DejaVuSans-2e"/>
       <use x="95.410156" xlink:href="#DejaVuSans-34"/>
      </g>
     </g>
    </g>
    <g id="ytick_4">
     <g id="line2d_13">
      <g>
       <use style="stroke:#000000;stroke-width:0.8;" x="57.6" xlink:href="#m295a4d8165" y="174.528"/>
      </g>
     </g>
     <g id="text_13">
      <!-- 0.6 -->
      <defs>
       <path d="M 33.015625 40.375  Q 26.375 40.375 22.484375 35.828125  Q 18.609375 31.296875 18.609375 23.390625  Q 18.609375 15.53125 22.484375 10.953125  Q 26.375 6.390625 33.015625 6.390625  Q 39.65625 6.390625 43.53125 10.953125  Q 47.40625 15.53125 47.40625 23.390625  Q 47.40625 31.296875 43.53125 35.828125  Q 39.65625 40.375 33.015625 40.375  z M 52.59375 71.296875  L 52.59375 62.3125  Q 48.875 64.0625 45.09375 64.984375  Q 41.3125 65.921875 37.59375 65.921875  Q 27.828125 65.921875 22.671875 59.328125  Q 17.53125 52.734375 16.796875 39.40625  Q 19.671875 43.65625 24.015625 45.921875  Q 28.375 48.1875 33.59375 48.1875  Q 44.578125 48.1875 50.953125 41.515625  Q 57.328125 34.859375 57.328125 23.390625  Q 57.328125 12.15625 50.6875 5.359375  Q 44.046875 -1.421875 33.015625 -1.421875  Q 20.359375 -1.421875 13.671875 8.265625  Q 6.984375 17.96875 6.984375 36.375  Q 6.984375 53.65625 15.1875 63.9375  Q 23.390625 74.21875 37.203125 74.21875  Q 40.921875 74.21875 44.703125 73.484375  Q 48.484375 72.75 52.59375 71.296875  z " id="DejaVuSans-36"/>
      </defs>
      <g transform="translate(34.696875 178.327219)scale(0.1 -0.1)">
       <use xlink:href="#DejaVuSans-30"/>
       <use x="63.623047" xlink:href="#DejaVuSans-2e"/>
       <use x="95.410156" xlink:href="#DejaVuSans-36"/>
      </g>
     </g>
    </g>
    <g id="ytick_5">
     <g id="line2d_14">
      <g>
       <use style="stroke:#000000;stroke-width:0.8;" x="57.6" xlink:href="#m295a4d8165" y="130.176"/>
      </g>
     </g>
     <g id="text_14">
      <!-- 0.8 -->
      <defs>
       <path d="M 31.78125 34.625  Q 24.75 34.625 20.71875 30.859375  Q 16.703125 27.09375 16.703125 20.515625  Q 16.703125 13.921875 20.71875 10.15625  Q 24.75 6.390625 31.78125 6.390625  Q 38.8125 6.390625 42.859375 10.171875  Q 46.921875 13.96875 46.921875 20.515625  Q 46.921875 27.09375 42.890625 30.859375  Q 38.875 34.625 31.78125 34.625  z M 21.921875 38.8125  Q 15.578125 40.375 12.03125 44.71875  Q 8.5 49.078125 8.5 55.328125  Q 8.5 64.0625 14.71875 69.140625  Q 20.953125 74.21875 31.78125 74.21875  Q 42.671875 74.21875 48.875 69.140625  Q 55.078125 64.0625 55.078125 55.328125  Q 55.078125 49.078125 51.53125 44.71875  Q 48 40.375 41.703125 38.8125  Q 48.828125 37.15625 52.796875 32.3125  Q 56.78125 27.484375 56.78125 20.515625  Q 56.78125 9.90625 50.3125 4.234375  Q 43.84375 -1.421875 31.78125 -1.421875  Q 19.734375 -1.421875 13.25 4.234375  Q 6.78125 9.90625 6.78125 20.515625  Q 6.78125 27.484375 10.78125 32.3125  Q 14.796875 37.15625 21.921875 38.8125  z M 18.3125 54.390625  Q 18.3125 48.734375 21.84375 45.5625  Q 25.390625 42.390625 31.78125 42.390625  Q 38.140625 42.390625 41.71875 45.5625  Q 45.3125 48.734375 45.3125 54.390625  Q 45.3125 60.0625 41.71875 63.234375  Q 38.140625 66.40625 31.78125 66.40625  Q 25.390625 66.40625 21.84375 63.234375  Q 18.3125 60.0625 18.3125 54.390625  z " id="DejaVuSans-38"/>
      </defs>
      <g transform="translate(34.696875 133.975219)scale(0.1 -0.1)">
       <use xlink:href="#DejaVuSans-30"/>
       <use x="63.623047" xlink:href="#DejaVuSans-2e"/>
       <use x="95.410156" xlink:href="#DejaVuSans-38"/>
      </g>
     </g>
    </g>
    <g id="ytick_6">
     <g id="line2d_15">
      <g>
       <use style="stroke:#000000;stroke-width:0.8;" x="57.6" xlink:href="#m295a4d8165" y="85.824"/>
      </g>
     </g>
     <g id="text_15">
      <!-- 1.0 -->
      <g transform="translate(34.696875 89.623219)scale(0.1 -0.1)">
       <use xlink:href="#DejaVuSans-31"/>
       <use x="63.623047" xlink:href="#DejaVuSans-2e"/>
       <use x="95.410156" xlink:href="#DejaVuSans-30"/>
      </g>
     </g>
    </g>
    <g id="ytick_7">
     <g id="line2d_16">
      <g>
       <use style="stroke:#000000;stroke-width:0.8;" x="57.6" xlink:href="#m295a4d8165" y="41.472"/>
      </g>
     </g>
     <g id="text_16">
      <!-- 1.2 -->
      <g transform="translate(34.696875 45.271219)scale(0.1 -0.1)">
       <use xlink:href="#DejaVuSans-31"/>
       <use x="63.623047" xlink:href="#DejaVuSans-2e"/>
       <use x="95.410156" xlink:href="#DejaVuSans-32"/>
      </g>
     </g>
    </g>
   </g>
   <g id="line2d_17">
    <path clip-path="url(#p23bf870b95)" d="M 73.832727 299.054769  L 84.613414 297.853247  L 94.095223 296.577603  L 102.53793 295.222796  L 110.136366 293.782817  L 117.020419 292.255265  L 123.255034 290.648472  L 128.970097 288.950211  L 134.230552 287.158964  L 139.101345 285.268968  L 143.647417 283.26834  L 147.868771 281.171168  L 151.830349 278.959123  L 155.597095 276.602517  L 159.169009 274.105185  L 162.546092 271.474648  L 165.793287 268.663496  L 168.910594 265.669394  L 171.898013 262.492573  L 174.820488 259.056168  L 177.613076 255.431065  L 180.34072 251.529408  L 183.00342 247.336903  L 185.666119 242.722787  L 188.263875 237.771214  L 190.861631 232.32958  L 193.394443 226.507158  L 195.927255 220.130075  L 198.460067 213.156175  L 201.057823 205.344683  L 203.720523 196.615243  L 206.448167 186.902226  L 209.370642 175.654467  L 212.617837 162.247214  L 216.969078 143.246821  L 222.619197 118.68466  L 225.152009 108.690218  L 227.100326 101.845313  L 228.788868 96.695235  L 230.217633 93.012655  L 231.451567 90.392283  L 232.555614 88.524117  L 233.529772 87.270058  L 234.438987 86.445427  L 235.218313 86.010418  L 235.99764 85.829546  L 236.712023 85.888096  L 237.426406 86.160919  L 238.205733 86.701035  L 239.050003 87.567448  L 239.959218 88.819861  L 240.99832 90.642251  L 242.167311 93.165412  L 243.466189 96.513709  L 244.959898 101.001682  L 246.713383 107.017331  L 248.791588 114.9806  L 251.519232 126.380663  L 256.974519 150.423926  L 261.260817 168.79039  L 264.508011 181.758008  L 267.430487 192.547743  L 270.223074 202.026288  L 272.950718 210.499793  L 275.613418 218.049683  L 278.211174 224.766533  L 280.80893 230.887099  L 283.47163 236.591231  L 286.134329 241.76947  L 288.797029 246.471076  L 291.524673 250.841594  L 294.317261 254.896456  L 297.174792 258.652541  L 300.097267 262.127519  L 303.084687 265.339338  L 306.201994 268.365752  L 309.449189 271.206568  L 312.826271 273.8642  L 316.333242 276.343158  L 320.035044 278.688527  L 323.931678 280.895293  L 328.088087 282.992548  L 332.504272 284.970684  L 337.245177 286.848392  L 342.310801 288.614973  L 347.831032 290.301468  L 353.805871 291.891266  L 360.365205 293.401779  L 367.509033 294.816111  L 375.432189 296.15477  L 384.264559 297.416674  L 394.136032 298.597747  L 398.487273 299.054769  L 398.487273 299.054769  " style="fill:none;stroke:#1f77b4;stroke-linecap:square;stroke-width:1.5;"/>
   </g>
   <g id="line2d_18">
    <path clip-path="url(#p23bf870b95)" d="M 73.832727 299.054769  L 74.676998 297.949275  L 75.521269 297.197578  L 76.365539 296.747166  L 77.20981 296.550103  L 78.119025 296.571262  L 79.158127 296.830424  L 80.392061 297.37791  L 82.080602 298.38788  L 87.21117 301.606404  L 88.899712 302.317997  L 90.393421 302.709548  L 91.822187 302.85401  L 93.186009 302.774404  L 94.614775 302.463708  L 96.108484 301.898649  L 97.667138 301.064239  L 99.355679 299.906503  L 101.303996 298.291367  L 103.641976 296.04779  L 106.954115 292.526333  L 112.799066 286.296555  L 115.396822 283.880675  L 117.604914 282.124157  L 119.553231 280.845281  L 121.371661 279.904837  L 123.125146 279.242592  L 124.813687 278.837621  L 126.502228 278.66128  L 128.19077 278.708974  L 129.944255 278.985765  L 131.762684 279.501329  L 133.711001 280.287067  L 135.919094 281.428231  L 138.51685 283.037466  L 142.153708 285.582134  L 147.673939 289.431825  L 150.206751 290.914757  L 152.284956 291.885777  L 154.103385 292.503123  L 155.791926 292.847408  L 157.35058 292.944136  L 158.84429 292.817763  L 160.273055 292.480352  L 161.701821 291.917456  L 163.130587 291.116895  L 164.624296 290.014195  L 166.118006 288.629508  L 167.67666 286.874666  L 169.300257 284.702116  L 170.988798 282.063533  L 172.742284 278.910839  L 174.625657 275.056476  L 176.638918 270.405802  L 178.782066 264.866608  L 181.055103 258.353968  L 183.522971 250.582762  L 186.185671 241.448607  L 189.17309 230.386609  L 192.68006 216.502667  L 197.161189 197.782123  L 209.110867 147.37364  L 212.552893 134.099203  L 215.475369 123.699155  L 218.008181 115.47535  L 220.281217 108.809248  L 222.359422 103.365947  L 224.307739 98.870769  L 226.061224 95.356825  L 227.684821 92.571788  L 229.178531 90.420478  L 230.607297 88.74031  L 231.906175 87.539156  L 233.140109 86.689715  L 234.309099 86.149514  L 235.413145 85.877025  L 236.517191 85.83613  L 237.621238 86.026926  L 238.725284 86.448952  L 239.894274 87.146685  L 241.128208 88.161052  L 242.427086 89.533765  L 243.790908 91.306751  L 245.284618 93.630693  L 246.908215 96.598024  L 248.596756 100.155367  L 250.480129 104.665657  L 252.49339 110.084841  L 254.701483 116.688211  L 257.104407 124.586227  L 259.832051 134.340185  L 262.949358 146.339267  L 266.781048 162.012355  L 273.015662 188.613297  L 279.31522 215.177059  L 283.14691 230.386609  L 286.329161 242.141494  L 289.121749 251.645002  L 291.654561 259.515598  L 293.992541 266.091305  L 296.200634 271.657894  L 298.278838 276.304349  L 300.227155 280.127601  L 302.045584 283.227315  L 303.79907 285.789243  L 305.487611 287.864993  L 307.111208 289.506462  L 308.669862 290.764714  L 310.163572 291.689053  L 311.657281 292.349735  L 313.150991 292.760196  L 314.644701 292.935533  L 316.203354 292.885829  L 317.826952 292.60328  L 319.580437 292.062132  L 321.46381 291.245333  L 323.671902 290.034822  L 326.399546 288.2675  L 331.595058 284.558139  L 335.166972 282.162189  L 337.699784 280.727492  L 339.842933 279.762952  L 341.79125 279.12704  L 343.609679 278.767421  L 345.363164 278.652383  L 347.051706 278.76776  L 348.740247 279.110994  L 350.428788 279.683182  L 352.182274 280.515499  L 354.000703 281.624019  L 356.013964 283.120645  L 358.222056 285.047027  L 360.884756 287.682234  L 364.911278 292.02847  L 369.262519 296.633938  L 371.665443 298.859356  L 373.61376 300.380836  L 375.367245 301.476312  L 376.925899 302.198701  L 378.419608 302.647806  L 379.848374 302.842731  L 381.212196 302.81065  L 382.640962 302.551988  L 384.134671 302.049442  L 385.823213 301.23104  L 387.901417 299.954912  L 392.187715 297.245484  L 393.486593 296.726307  L 394.525695 296.538984  L 395.43491 296.598786  L 396.27918 296.887899  L 397.058507 297.394434  L 397.837834 298.170979  L 398.487273 299.054769  L 398.487273 299.054769  " style="fill:none;stroke:#ff7f0e;stroke-linecap:square;stroke-width:1.5;"/>
   </g>
   <g id="line2d_19">
    <defs>
     <path d="M 0 1.5  C 0.397805 1.5 0.77937 1.341951 1.06066 1.06066  C 1.341951 0.77937 1.5 0.397805 1.5 0  C 1.5 -0.397805 1.341951 -0.77937 1.06066 -1.06066  C 0.77937 -1.341951 0.397805 -1.5 0 -1.5  C -0.397805 -1.5 -0.77937 -1.341951 -1.06066 -1.06066  C -1.341951 -0.77937 -1.5 -0.397805 -1.5 0  C -1.5 0.397805 -1.341951 0.77937 -1.06066 1.06066  C -0.77937 1.341951 -0.397805 1.5 0 1.5  z " id="m6355b3580a" style="stroke:#2ca02c;"/>
    </defs>
    <g clip-path="url(#p23bf870b95)">
     <use style="fill:#2ca02c;stroke:#2ca02c;" x="73.832727" xlink:href="#m6355b3580a" y="299.054769"/>
     <use style="fill:#2ca02c;stroke:#2ca02c;" x="81.77759" xlink:href="#m6355b3580a" y="298.192449"/>
     <use style="fill:#2ca02c;stroke:#2ca02c;" x="104.834478" xlink:href="#m6355b3580a" y="294.811802"/>
     <use style="fill:#2ca02c;stroke:#2ca02c;" x="140.746423" xlink:href="#m6355b3580a" y="284.573376"/>
     <use style="fill:#2ca02c;stroke:#2ca02c;" x="185.998114" xlink:href="#m6355b3580a" y="242.115688"/>
     <use style="fill:#2ca02c;stroke:#2ca02c;" x="236.16" xlink:href="#m6355b3580a" y="85.824"/>
     <use style="fill:#2ca02c;stroke:#2ca02c;" x="286.321886" xlink:href="#m6355b3580a" y="242.115688"/>
     <use style="fill:#2ca02c;stroke:#2ca02c;" x="331.573577" xlink:href="#m6355b3580a" y="284.573376"/>
     <use style="fill:#2ca02c;stroke:#2ca02c;" x="367.485522" xlink:href="#m6355b3580a" y="294.811802"/>
     <use style="fill:#2ca02c;stroke:#2ca02c;" x="390.54241" xlink:href="#m6355b3580a" y="298.192449"/>
     <use style="fill:#2ca02c;stroke:#2ca02c;" x="398.487273" xlink:href="#m6355b3580a" y="299.054769"/>
    </g>
   </g>
   <g id="patch_3">
    <path d="M 57.6 307.584  L 57.6 41.472  " style="fill:none;stroke:#000000;stroke-linecap:square;stroke-linejoin:miter;stroke-width:0.8;"/>
   </g>
   <g id="patch_4">
    <path d="M 414.72 307.584  L 414.72 41.472  " style="fill:none;stroke:#000000;stroke-linecap:square;stroke-linejoin:miter;stroke-width:0.8;"/>
   </g>
   <g id="patch_5">
    <path d="M 57.6 307.584  L 414.72 307.584  " style="fill:none;stroke:#000000;stroke-linecap:square;stroke-linejoin:miter;stroke-width:0.8;"/>
   </g>
   <g id="patch_6">
    <path d="M 57.6 41.472  L 414.72 41.472  " style="fill:none;stroke:#000000;stroke-linecap:square;stroke-linejoin:miter;stroke-width:0.8;"/>
   </g>
  </g>
 </g>
 <defs>
  <clipPath id="p23bf870b95">
   <rect height="266.112" width="357.12" x="57.6" y="41.472"/>
  </clipPath>
 </defs>
</svg>