<svg xmlns="http://www.w3.org/2000/svg" xmlns:xlink="http://www.w3.org/1999/xlink" version="1.1" viewBox="0 0 460 345" viewport="0 0 400px 300px">
 <defs>
  <style type="text/css">
*{stroke-linecap:butt;stroke-linejoin:round;}
  </style>
 </defs>
 <g id="figure_1">
  <g id="patch_1">
   <path d="M 0 345.6  L 460.8 345.6  L 460.8 0  L 0 0  z " style="fill:#ffffff;"/>
  </g>
  <g id="axes_1">
   <g id="patch_2">
    <path d="M 57.6 307.584  L 414.72 307.584  L 414.72 41.472  L 57.6 41.472  z " style="fill:#ffffff;"/>
   </g>
   <g id="matplotlib.axis_1">
    <g id="xtick_1">
     <g id="line2d_1">
      <defs>
       <path d="M 0 0  L 0 3.5  " id="m85b266329e" style="stroke:#000000;stroke-width:0.8;"/>
      </defs>
      <g>
       <use style="stroke:#000000;stroke-width:0.8;" x="73.832727" xlink:href="#m85b266329e" y="307.584"/>
      </g>
     </g>
     <g id="text_1">
      <!-- &#8722;1.00 -->
      <defs>
       <path d="M 10.59375 35.5  L 73.1875 35.5  L 73.1875 27.203125  L 10.59375 27.203125  z " id="DejaVuSans-2212"/>
       <path d="M 12.40625 8.296875  L 28.515625 8.296875  L 28.515625 63.921875  L 10.984375 60.40625  L 10.984375 69.390625  L 28.421875 72.90625  L 38.28125 72.90625  L 38.28125 8.296875  L 54.390625 8.296875  L 54.390625 0  L 12.40625 0  z " id="DejaVuSans-31"/>
       <path d="M 10.6875 12.40625  L 21 12.40625  L 21 0  L 10.6875 0  z " id="DejaVuSans-2e"/>
       <path d="M 31.78125 66.40625  Q 24.171875 66.40625 20.328125 58.90625  Q 16.5 51.421875 16.5 36.375  Q 16.5 21.390625 20.328125 13.890625  Q 24.171875 6.390625 31.78125 6.390625  Q 39.453125 6.390625 43.28125 13.890625  Q 47.125 21.390625 47.125 36.375  Q 47.125 51.421875 43.28125 58.90625  Q 39.453125 66.40625 31.78125 66.40625  z M 31.78125 74.21875  Q 44.046875 74.21875 50.515625 64.515625  Q 56.984375 54.828125 56.984375 36.375  Q 56.984375 17.96875 50.515625 8.265625  Q 44.046875 -1.421875 31.78125 -1.421875  Q 19.53125 -1.421875 13.0625 8.265625  Q 6.59375 17.96875 6.59375 36.375  Q 6.59375 54.828125 13.0625 64.515625  Q 19.53125 74.21875 31.78125 74.21875  z " id="DejaVuSans-30"/>
      </defs>
      <g transform="translate(58.510071 322.182437)scale(0.1 -0.1)">
       <use xlink:href="#DejaVuSans-2212"/>
       <use x="83.789062" xlink:href="#DejaVuSans-31"/>
       <use x="147.412109" xlink:href="#DejaVuSans-2e"/>
       <use x="179.199219" xlink:href="#DejaVuSans-30"/>
       <use x="242.822266" xlink:href="#DejaVuSans-30"/>
      </g>
     </g>
    </g>
    <g id="xtick_2">
     <g id="line2d_2">
      <g>
       <use style="stroke:#000000;stroke-width:0.8;" x="114.414545" xlink:href="#m85b266329e" y="307.584"/>
      </g>
     </g>
     <g id="text_2">
      <!-- &#8722;0.75 -->
      <defs>
       <path d="M 8.203125 72.90625  L 55.078125 72.90625  L 55.078125 68.703125  L 28.609375 0  L 18.3125 0  L 43.21875 64.59375  L 8.203125 64.59375  z " id="DejaVuSans-37"/>
       <path d="M 10.796875 72.90625  L 49.515625 72.90625  L 49.515625 64.59375  L 19.828125 64.59375  L 19.828125 46.734375  Q 21.96875 47.46875 24.109375 47.828125  Q 26.265625 48.1875 28.421875 48.1875  Q 40.625 48.1875 47.75 41.5  Q 54.890625 34.8125 54.890625 23.390625  Q 54.890625 11.625 47.5625 5.09375  Q 40.234375 -1.421875 26.90625 -1.421875  Q 22.3125 -1.421875 17.546875 -0.640625  Q 12.796875 0.140625 7.71875 1.703125  L 7.71875 11.625  Q 12.109375 9.234375 16.796875 8.0625  Q 21.484375 6.890625 26.703125 6.890625  Q 35.15625 6.890625 40.078125 11.328125  Q 45.015625 15.765625 45.015625 23.390625  Q 45.015625 31 40.078125 35.4375  Q 35.15625 39.890625 26.703125 39.890625  Q 22.75 39.890625 18.8125 39.015625  Q 14.890625 38.140625 10.796875 36.28125  z " id="DejaVuSans-35"/>
      </defs>
      <g transform="translate(99.091889 322.182437)scale(0.1 -0.1)">
       <use xlink:href="#DejaVuSans-2212"/>
       <use x="83.789062" xlink:href="#DejaVuSans-30"/>
       <use x="147.412109" xlink:href="#DejaVuSans-2e"/>
       <use x="179.199219" xlink:href="#DejaVuSans-37"/>
       <use x="242.822266" xlink:href="#DejaVuSans-35"/>
      </g>
     </g>
    </g>
    <g id="xtick_3">
     <g id="line2d_3">
      <g>
       <use style="stroke:#000000;stroke-width:0.8;" x="154.996364" xlink:href="#m85b266329e" y="307.584"/>
      </g>
     </g>
     <g id="text_3">
      <!-- &#8722;0.50 -->
      <g transform="translate(139.673707 322.182437)scale(0.1 -0.1)">
       <use xlink:href="#DejaVuSans-2212"/>
       <use x="83.789062" xlink:href="#DejaVuSans-30"/>
       <use x="147.412109" xlink:href="#DejaVuSans-2e"/>
       <use x="179.199219" xlink:href="#DejaVuSans-35"/>
       <use x="242.822266" xlink:href="#DejaVuSans-30"/>
      </g>
     </g>
    </g>
    <g id="xtick_4">
     <g id="line2d_4">
      <g>
       <use style="stroke:#000000;stroke-width:0.8;" x="195.578182" xlink:href="#m85b266329e" y="307.584"/>
      </g>
     </g>
     <g id="text_4">
      <!-- &#8722;0.25 -->
      <defs>
       <path d="M 19.1875 8.296875  L 53.609375 8.296875  L 53.609375 0  L 7.328125 0  L 7.328125 8.296875  Q 12.9375 14.109375 22.625 23.890625  Q 32.328125 33.6875 34.8125 36.53125  Q 39.546875 41.84375 41.421875 45.53125  Q 43.3125 49.21875 43.3125 52.78125  Q 43.3125 58.59375 39.234375 62.25  Q 35.15625 65.921875 28.609375 65.921875  Q 23.96875 65.921875 18.8125 64.3125  Q 13.671875 62.703125 7.8125 59.421875  L 7.8125 69.390625  Q 13.765625 71.78125 18.9375 73  Q 24.125 74.21875 28.421875 74.21875  Q 39.75 74.21875 46.484375 68.546875  Q 53.21875 62.890625 53.21875 53.421875  Q 53.21875 48.921875 51.53125 44.890625  Q 49.859375 40.875 45.40625 35.40625  Q 44.1875 33.984375 37.640625 27.21875  Q 31.109375 20.453125 19.1875 8.296875  z " id="DejaVuSans-32"/>
      </defs>
      <g transform="translate(180.255526 322.182437)scale(0.1 -0.1)">
       <use xlink:href="#DejaVuSans-2212"/>
       <use x="83.789062" xlink:href="#DejaVuSans-30"/>
       <use x="147.412109" xlink:href="#DejaVuSans-2e"/>
       <use x="179.199219" xlink:href="#DejaVuSans-32"/>
       <use x="242.822266" xlink:href="#DejaVuSans-35"/>
      </g>
     </g>
    </g>
    <g id="xtick_5">
     <g id="line2d_5">
      <g>
       <use style="stroke:#000000;stroke-width:0.8;" x="236.16" xlink:href="#m85b266329e" y="307.584"/>
      </g>
     </g>
     <g id="text_5">
      <!-- 0.00 -->
      <g transform="translate(225.027187 322.182437)scale(0.1 -0.1)">
       <use xlink:href="#DejaVuSans-30"/>
       <use x="63.623047" xlink:href="#DejaVuSans-2e"/>
       <use x="95.410156" xlink:href="#DejaVuSans-30"/>
       <use x="159.033203" xlink:href="#DejaVuSans-30"/>
      </g>
     </g>
    </g>
    <g id="xtick_6">
     <g id="line2d_6">
      <g>
       <use style="stroke:#000000;stroke-width:0.8;" x="276.741818" xlink:href="#m85b266329e" y="307.584"/>
      </g>
     </g>
     <g id="text_6">
      <!-- 0.25 -->
      <g transform="translate(265.609006 322.182437)scale(0.1 -0.1)">
       <use xlink:href="#DejaVuSans-30"/>
       <use x="63.623047" xlink:href="#DejaVuSans-2e"/>
       <use x="95.410156" xlink:href="#DejaVuSans-32"/>
       <use x="159.033203" xlink:href="#DejaVuSans-35"/>
      </g>
     </g>
    </g>
    <g id="xtick_7">
     <g id="line2d_7">
      <g>
       <use style="stroke:#000000;stroke-width:0.8;" x="317.323636" xlink:href="#m85b266329e" y="307.584"/>
      </g>
     </g>
     <g id="text_7">
      <!-- 0.50 -->
      <g transform="translate(306.190824 322.182437)scale(0.1 -0.1)">
       <use xlink:href="#DejaVuSans-30"/>
       <use x="63.623047" xlink:href="#DejaVuSans-2e"/>
       <use x="95.410156" xlink:href="#DejaVuSans-35"/>
       <use x="159.033203" xlink:href="#DejaVuSans-30"/>
      </g>
     </g>
    </g>
    <g id="xtick_8">
     <g id="line2d_8">
      <g>
       <use style="stroke:#000000;stroke-width:0.8;" x="357.905455" xlink:href="#m85b266329e" y="307.584"/>
      </g>
     </g>
     <g id="text_8">
      <!-- 0.75 -->
      <g transform="translate(346.772642 322.182437)scale(0.1 -0.1)">
       <use xlink:href="#DejaVuSans-30"/>
       <use x="63.623047" xlink:href="#DejaVuSans-2e"/>
       <use x="95.410156" xlink:href="#DejaVuSans-37"/>
       <use x="159.033203" xlink:href="#DejaVuSans-35"/>
      </g>
     </g>
    </g>
    <g id="xtick_9">
     <g id="line2d_9">
      <g>
       <use style="stroke:#000000;stroke-width:0.8;" x="398.487273" xlink:href="#m85b266329e" y="307.584"/>
      </g>
     </g>
     <g id="text_9">
      <!-- 1.00 -->
      <g transform="translate(387.35446 322.182437)scale(0.1 -0.1)">
       <use xlink:href="#DejaVuSans-31"/>
       <use x="63.623047" xlink:href="#DejaVuSans-2e"/>
       <use x="95.410156" xlink:href="#DejaVuSans-30"/>
       <use x="159.033203" xlink:href="#DejaVuSans-30"/>
      </g>
     </g>
    </g>
   </g>
   <g id="matplotlib.axis_2">
    <g id="ytick_1">
     <g id="line2d_10">
      <defs>
       <path d="M 0 0  L -3.5 0  " id="m8baf68d2bb" style="stroke:#000000;stroke-width:0.8;"/>
      </defs>
      <g>
       <use style="stroke:#000000;stroke-width:0.8;" x="57.6" xlink:href="#m8baf68d2bb" y="307.584"/>
      </g>
     </g>
     <g id="text_10">
      <!-- 0.0 -->
      <g transform="translate(34.696875 311.383219)scale(0.1 -0.1)">
       <use xlink:href="#DejaVuSans-30"/>
       <use x="63.623047" xlink:href="#DejaVuSans-2e"/>
       <use x="95.410156" xlink:href="#DejaVuSans-30"/>
      </g>
     </g>
    </g>
    <g id="ytick_2">
     <g id="line2d_11">
      <g>
       <use style="stroke:#000000;stroke-width:0.8;" x="57.6" xlink:href="#m8baf68d2bb" y="263.232"/>
      </g>
     </g>
     <g id="text_11">
      <!-- 0.2 -->
      <g transform="translate(34.696875 267.031219)scale(0.1 -0.1)">
       <use xlink:href="#DejaVuSans-30"/>
       <use x="63.623047" xlink:href="#DejaVuSans-2e"/>
       <use x="95.410156" xlink:href="#DejaVuSans-32"/>
      </g>
     </g>
    </g>
    <g id="ytick_3">
     <g id="line2d_12">
      <g>
       <use style="stroke:#000000;stroke-width:0.8;" x="57.6" xlink:href="#m8baf68d2bb" y="218.88"/>
      </g>
     </g>
     <g id="text_12">
      <!-- 0.4 -->
      <defs>
       <path d="M 37.796875 64.3125  L 12.890625 25.390625  L 37.796875 25.390625  z M 35.203125 72.90625  L 47.609375 72.90625  L 47.609375 25.390625  L 58.015625 25.390625  L 58.015625 17.1875  L 47.609375 17.1875  L 47.609375 0  L 37.796875 0  L 37.796875 17.1875  L 4.890625 17.1875  L 4.890625 26.703125  z " id="DejaVuSans-34"/>
      </defs>
      <g transform="translate(34.696875 222.679219)scale(0.1 -0.1)">
       <use xlink:href="#DejaVuSans-30"/>
       <use x="63.623047" xlink:href="#DejaVuSans-2e"/>
       <use x="95.410156" xlink:href="#DejaVuSans-34"/>
      </g>
     </g>
    </g>
    <g id="ytick_4">
     <g id="line2d_13">
      <g>
       <use style="stroke:#000000;stroke-width:0.8;" x="57.6" xlink:href="#m8baf68d2bb" y="174.528"/>
      </g>
     </g>
     <g id="text_13">
      <!-- 0.6 -->
      <defs>
       <path d="M 33.015625 40.375  Q 26.375 40.375 22.484375 35.828125  Q 18.609375 31.296875 18.609375 23.390625  Q 18.609375 15.53125 22.484375 10.953125  Q 26.375 6.390625 33.015625 6.390625  Q 39.65625 6.390625 43.53125 10.953125  Q 47.40625 15.53125 47.40625 23.390625  Q 47.40625 31.296875 43.53125 35.828125  Q 39.65625 40.375 33.015625 40.375  z M 52.59375 71.296875  L 52.59375 62.3125  Q 48.875 64.0625 45.09375 64.984375  Q 41.3125 65.921875 37.59375 65.921875  Q 27.828125 65.921875 22.671875 59.328125  Q 17.53125 52.734375 16.796875 39.40625  Q 19.671875 43.65625 24.015625 45.921875  Q 28.375 48.1875 33.59375 48.1875  Q 44.578125 48.1875 50.953125 41.515625  Q 57.328125 34.859375 57.328125 23.390625  Q 57.328125 12.15625 50.6875 5.359375  Q 44.046875 -1.421875 33.015625 -1.421875  Q 20.359375 -1.421875 13.671875 8.265625  Q 6.984375 17.96875 6.984375 36.375  Q 6.984375 53.65625 15.1875 63.9375  Q 23.390625 74.21875 37.203125 74.21875  Q 40.921875 74.21875 44.703125 73.484375  Q 48.484375 72.75 52.59375 71.296875  z " id="DejaVuSans-36"/>
      </defs>
      <g transform="translate(34.696875 178.327219)scale(0.1 -0.1)">
       <use xlink:href="#DejaVuSans-30"/>
       <use x="63.623047" xlink:href="#DejaVuSans-2e"/>
       <use x="95.410156" xlink:href="#DejaVuSans-36"/>
      </g>
     </g>
    </g>
    <g id="ytick_5">
     <g id="line2d_14">
      <g>
       <use style="stroke:#000000;stroke-width:0.8;" x="57.6" xlink:href="#m8baf68d2bb" y="130.176"/>
      </g>
     </g>
     <g id="text_14">
      <!-- 0.8 -->
      <defs>
       <path d="M 31.78125 34.625  Q 24.75 34.625 20.71875 30.859375  Q 16.703125 27.09375 16.703125 20.515625  Q 16.703125 13.921875 20.71875 10.15625  Q 24.75 6.390625 31.78125 6.390625  Q 38.8125 6.390625 42.859375 10.171875  Q 46.921875 13.96875 46.921875 20.515625  Q 46.921875 27.09375 42.890625 30.859375  Q 38.875 34.625 31.78125 34.625  z M 21.921875 38.8125  Q 15.578125 40.375 12.03125 44.71875  Q 8.5 49.078125 8.5 55.328125  Q 8.5 64.0625 14.71875 69.140625  Q 20.953125 74.21875 31.78125 74.21875  Q 42.671875 74.21875 48.875 69.140625  Q 55.078125 64.0625 55.078125 55.328125  Q 55.078125 49.078125 51.53125 44.71875  Q 48 40.375 41.703125 38.8125  Q 48.828125 37.15625 52.796875 32.3125  Q 56.78125 27.484375 56.78125 20.515625  Q 56.78125 9.90625 50.3125 4.234375  Q 43.84375 -1.421875 31.78125 -1.421875  Q 19.734375 -1.421875 13.25 4.234375  Q 6.78125 9.90625 6.78125 20.515625  Q 6.78125 27.484375 10.78125 32.3125  Q 14.796875 37.15625 21.921875 38.8125  z M 18.3125 54.390625  Q 18.3125 48.734375 21.84375 45.5625  Q 25.390625 42.390625 31.78125 42.390625  Q 38.140625 42.390625 41.71875 45.5625  Q 45.3125 48.734375 45.3125 54.390625  Q 45.3125 60.0625 41.71875 63.234375  Q 38.140625 66.40625 31.78125 66.40625  Q 25.390625 66.40625 21.84375 63.234375  Q 18.3125 60.0625 18.3125 54.390625  z " id="DejaVuSans-38"/>
      </defs>
      <g transform="translate(34.696875 133.975219)scale(0.1 -0.1)">
       <use xlink:href="#DejaVuSans-30"/>
       <use x="63.623047" xlink:href="#DejaVuSans-2e"/>
       <use x="95.410156" xlink:href="#DejaVuSans-38"/>
      </g>
     </g>
    </g>
    <g id="ytick_6">
     <g id="line2d_15">
      <g>
       <use style="stroke:#000000;stroke-width:0.8;" x="57.6" xlink:href="#m8baf68d2bb" y="85.824"/>
      </g>
     </g>
     <g id="text_15">
      <!-- 1.0 -->
      <g transform="translate(34.696875 89.623219)scale(0.1 -0.1)">
       <use xlink:href="#DejaVuSans-31"/>
       <use x="63.623047" xlink:href="#DejaVuSans-2e"/>
       <use x="95.410156" xlink:href="#DejaVuSans-30"/>
      </g>
     </g>
    </g>
    <g id="ytick_7">
     <g id="line2d_16">
      <g>
       <use style="stroke:#000000;stroke-width:0.8;" x="57.6" xlink:href="#m8baf68d2bb" y="41.472"/>
      </g>
     </g>
     <g id="text_16">
      <!-- 1.2 -->
      <g transform="translate(34.696875 45.271219)scale(0.1 -0.1)">
       <use xlink:href="#DejaVuSans-31"/>
       <use x="63.623047" xlink:href="#DejaVuSans-2e"/>
       <use x="95.410156" xlink:href="#DejaVuSans-32"/>
      </g>
     </g>
    </g>
   </g>
   <g id="line2d_17">
    <path clip-path="url(#pe860fdedd0)" d="M 73.832727 299.054769  L 84.613414 297.853247  L 94.095223 296.577603  L 102.53793 295.222796  L 110.136366 293.782817  L 117.020419 292.255265  L 123.255034 290.648472  L 128.970097 288.950211  L 134.230552 287.158964  L 139.101345 285.268968  L 143.647417 283.26834  L 147.868771 281.171168  L 151.830349 278.959123  L 155.597095 276.602517  L 159.169009 274.105185  L 162.546092 271.474648  L 165.793287 268.663496  L 168.910594 265.669394  L 171.898013 262.492573  L 174.820488 259.056168  L 177.613076 255.431065  L 180.34072 251.529408  L 183.00342 247.336903  L 185.666119 242.722787  L 188.263875 237.771214  L 190.861631 232.32958  L 193.394443 226.507158  L 195.927255 220.130075  L 198.460067 213.156175  L 201.057823 205.344683  L 203.720523 196.615243  L 206.448167 186.902226  L 209.370642 175.654467  L 212.617837 162.247214  L 216.969078 143.246821  L 222.619197 118.68466  L 225.152009 108.690218  L 227.100326 101.845313  L 228.788868 96.695235  L 230.217633 93.012655  L 231.451567 90.392283  L 232.555614 88.524117  L 233.529772 87.270058  L 234.438987 86.445427  L 235.218313 86.010418  L 235.99764 85.829546  L 236.712023 85.888096  L 237.426406 86.160919  L 238.205733 86.701035  L 239.050003 87.567448  L 239.959218 88.819861  L 240.99832 90.642251  L 242.167311 93.165412  L 243.466189 96.513709  L 244.959898 101.001682  L 246.713383 107.017331  L 248.791588 114.9806  L 251.519232 126.380663  L 256.974519 150.423926  L 261.260817 168.79039  L 264.508011 181.758008  L 267.430487 192.547743  L 270.223074 202.026288  L 272.950718 210.499793  L 275.613418 218.049683  L 278.211174 224.766533  L 280.80893 230.887099  L 283.47163 236.591231  L 286.134329 241.76947  L 288.797029 246.471076  L 291.524673 250.841594  L 294.317261 254.896456  L 297.174792 258.652541  L 300.097267 262.127519  L 303.084687 265.339338  L 306.201994 268.365752  L 309.449189 271.206568  L 312.826271 273.8642  L 316.333242 276.343158  L 320.035044 278.688527  L 323.931678 280.895293  L 328.088087 282.992548  L 332.504272 284.970684  L 337.245177 286.848392  L 342.310801 288.614973  L 347.831032 290.301468  L 353.805871 291.891266  L 360.365205 293.401779  L 367.509033 294.816111  L 375.432189 296.15477  L 384.264559 297.416674  L 394.136032 298.597747  L 398.487273 299.054769  L 398.487273 299.054769  " style="fill:none;stroke:#1f77b4;stroke-linecap:square;stroke-width:1.5;"/>
   </g>
   <g id="line2d_18">
    <path clip-path="url(#pe860fdedd0)" d="M 73.832727 288.67158  L 73.897671 295.492347  L 73.962615 278.490816  L 74.027559 294.850167  L 74.092503 269.546827  L 74.157447 283.22939  L 74.352278 300.017742  L 74.417222 299.742915  L 74.54711 294.056352  L 74.612054 297.856347  L 74.741942 287.962042  L 74.806886 294.857252  L 74.87183 281.170671  L 74.936774 294.090189  L 75.001717 280.253982  L 75.066661 303.956895  L 75.131605 294.503963  L 75.196549 285.646367  L 75.326437 301.415035  L 75.391381 290.360725  L 75.456325 310.948544  L 75.521269 286.159857  L 75.586213 297.042334  L 75.651156 293.838626  L 75.7161 295.49129  L 75.781044 297.196825  L 75.845988 286.38435  L 75.910932 298.158191  L 76.105764 277.628584  L 76.170708 296.429604  L 76.235651 295.593966  L 76.300595 293.174769  L 76.365539 301.745748  L 76.430483 283.558357  L 76.495427 306.568758  L 76.560371 296.996177  L 76.625315 300.093137  L 76.690259 289.017572  L 76.755203 297.732785  L 76.820147 297.308913  L 76.88509 296.657005  L 76.950034 285.063879  L 77.014978 299.974017  L 77.144866 282.905921  L 77.274754 297.859942  L 77.339698 296.025823  L 77.404642 288.173951  L 77.534529 299.464651  L 77.664417 282.625172  L 77.794305 299.465021  L 77.924193 281.198323  L 78.054081 300.046768  L 78.119025 296.335756  L 78.248912 301.761239  L 78.313856 302.029722  L 78.3788 291.972202  L 78.443744 298.731585  L 78.573632 285.565579  L 78.638576 305.881558  L 78.70352 298.864108  L 78.768464 290.263018  L 78.898351 299.006994  L 78.963295 290.395779  L 79.028239 298.189491  L 79.093183 293.891154  L 79.158127 289.040228  L 79.352959 295.754406  L 79.417902 297.985671  L 79.482846 292.604547  L 79.54779 297.796417  L 79.612734 288.289159  L 79.677678 291.941298  L 79.937454 295.433184  L 80.002398 294.778896  L 80.067341 299.128889  L 80.132285 298.5832  L 80.197229 296.859847  L 80.262173 297.068717  L 80.327117 298.482533  L 80.457005 293.881399  L 80.521949 295.151774  L 80.586893 299.830523  L 80.651837 296.924906  L 80.71678 293.195944  L 80.781724 298.384694  L 80.846668 296.912164  L 80.976556 294.356451  L 81.106444 301.296431  L 81.171388 298.35116  L 81.301276 298.563255  L 81.366219 295.647274  L 81.431163 296.802957  L 81.496107 298.207653  L 81.561051 294.598128  L 81.625995 297.630241  L 81.755883 293.183797  L 81.820827 294.056563  L 81.885771 301.311909  L 81.950715 293.642921  L 82.015658 297.189568  L 82.080602 294.907996  L 82.145546 294.933916  L 82.275434 298.117295  L 82.405322 296.296658  L 82.470266 299.29028  L 82.53521 295.07096  L 82.600153 296.909785  L 82.665097 294.764594  L 82.859929 300.324477  L 82.924873 295.199544  L 82.989817 297.119038  L 83.054761 294.921531  L 83.119705 295.856355  L 83.249592 298.616774  L 83.314536 295.754802  L 83.37948 297.515549  L 83.444424 296.308772  L 83.574312 298.180411  L 83.639256 297.4417  L 83.7042 298.249904  L 83.769144 295.586776  L 83.834088 296.114812  L 83.899031 298.440698  L 83.963975 296.923881  L 84.028919 295.538854  L 84.093863 297.778024  L 84.288695 293.411621  L 84.353639 298.259612  L 84.418583 297.588789  L 84.483527 294.023254  L 84.54847 294.445031  L 84.678358 297.948403  L 84.87319 296.308713  L 84.938134 299.66902  L 85.003078 296.433966  L 85.068022 296.525328  L 85.132966 297.888612  L 85.197909 296.641038  L 85.262853 298.127942  L 85.327797 295.80737  L 85.392741 299.226649  L 85.457685 297.47004  L 85.522629 295.986902  L 85.587573 296.838765  L 85.652517 295.96426  L 85.912292 299.270751  L 86.107124 295.107418  L 86.172068 297.766171  L 86.237012 296.779221  L 86.301956 298.137261  L 86.3669 296.165427  L 86.431843 299.502841  L 86.496787 295.789436  L 86.561731 297.891658  L 86.691619 296.761797  L 86.756563 299.116914  L 86.821507 296.172224  L 86.951395 298.748355  L 87.081282 296.001693  L 87.146226 297.621206  L 87.276114 295.734684  L 87.341058 295.960655  L 87.470946 297.57802  L 87.53589 295.891043  L 87.600834 297.838737  L 87.665778 296.489758  L 87.730721 297.790478  L 87.795665 296.906156  L 87.860609 296.984535  L 87.925553 296.821029  L 87.990497 296.296119  L 88.055441 297.577516  L 88.120385 296.551914  L 88.185329 296.931122  L 88.250273 297.206649  L 88.315216 296.535716  L 88.38016 297.942625  L 88.510048 296.473016  L 88.574992 297.598105  L 88.639936 297.151598  L 88.70488 296.304534  L 88.769824 297.679501  L 88.834768 296.830847  L 89.029599 298.333388  L 89.094543 295.831109  L 89.159487 296.785166  L 89.224431 296.860612  L 89.289375 295.606414  L 89.419263 297.555023  L 89.614094 296.147338  L 89.679038 296.457085  L 89.743982 296.528508  L 89.808926 297.318004  L 89.87387 296.062846  L 89.938814 298.189941  L 90.003758 297.949047  L 90.133646 296.505043  L 90.19859 296.576067  L 90.328477 295.706919  L 90.458365 296.693593  L 90.523309 296.608919  L 90.588253 296.362288  L 90.653197 297.031135  L 90.718141 296.75282  L 90.912972 295.836615  L 90.977916 295.911602  L 91.04286 296.226895  L 91.107804 297.296689  L 91.172748 296.428641  L 91.237692 296.466353  L 91.302636 296.384236  L 91.432524 296.895992  L 91.497467 295.837912  L 91.562411 296.20548  L 91.627355 295.947761  L 91.757243 296.171292  L 91.887131 295.794523  L 91.952075 296.569965  L 92.081963 295.625838  L 92.146906 296.322527  L 92.21185 296.172896  L 92.341738 295.867197  L 92.406682 296.29624  L 92.601514 295.739274  L 92.666458 296.142435  L 92.731402 295.940174  L 92.861289 295.908665  L 93.056121 295.737617  L 93.121065 295.775686  L 93.315897 295.310567  L 93.380841 295.994618  L 93.445784 295.392631  L 93.510728 295.743341  L 93.575672 295.771188  L 93.70556 295.362755  L 93.770504 295.905517  L 93.835448 295.421049  L 93.900392 295.80379  L 93.965336 294.900718  L 94.03028 295.115725  L 94.095223 295.275155  L 94.160167 295.0003  L 94.225111 295.603949  L 94.290055 295.231026  L 94.354999 295.591582  L 94.419943 294.773299  L 94.484887 295.325131  L 94.614775 294.966334  L 94.679718 295.376754  L 94.744662 295.095624  L 94.809606 295.113438  L 94.87455 295.349133  L 94.939494 294.767019  L 95.004438 295.011865  L 95.069382 295.236174  L 95.134326 294.652174  L 95.19927 295.025499  L 95.264214 295.159805  L 95.329157 294.736438  L 95.394101 294.812439  L 95.523989 294.902425  L 95.653877 294.586132  L 95.718821 294.814155  L 95.848709 294.416639  L 95.913653 294.820538  L 95.978596 294.37259  L 96.04354 294.649161  L 96.108484 294.768822  L 96.303316 294.347099  L 96.433204 294.30623  L 96.563092 294.340803  L 96.628035 294.175301  L 96.692979 294.338218  L 96.757923 294.080605  L 96.822867 294.213758  L 96.887811 294.030511  L 96.952755 294.303106  L 97.082643 293.990286  L 97.277474 294.09054  L 97.53725 293.658484  L 97.602194 293.702727  L 97.667138 293.89558  L 97.732082 293.723967  L 97.797026 293.845632  L 97.861969 293.869684  L 97.926913 293.473309  L 97.991857 293.653798  L 98.121745 293.583395  L 98.186689 293.384266  L 98.251633 293.537595  L 98.381521 293.566704  L 98.446465 293.792802  L 98.576352 293.280574  L 98.70624 293.365749  L 98.771184 293.11105  L 98.836128 293.305523  L 99.095904 293.217743  L 99.225791 292.963468  L 99.355679 293.244344  L 99.485567 292.892644  L 99.550511 292.989112  L 100.070062 292.675804  L 100.19995 292.69923  L 100.394782 292.51482  L 100.589613 292.48071  L 100.654557 292.300041  L 100.719501 292.341878  L 100.849389 292.266375  L 100.914333 292.162274  L 100.979277 292.290862  L 101.04422 292.181578  L 101.109164 292.271961  L 101.174108 292.132167  L 101.239052 292.269831  L 101.303996 292.053948  L 101.36894 292.082264  L 101.888491 291.820483  L 101.953435 291.89462  L 102.018379 291.681808  L 102.083323 291.800159  L 102.278155 291.625439  L 103.187369 291.189734  L 103.382201 291.09338  L 105.655237 289.95523  L 106.109845 289.754734  L 113.383561 286.595629  L 114.227832 286.275315  L 117.734802 285.043202  L 127.346499 282.229158  L 137.932354 279.439601  L 141.764044 278.110092  L 145.271015 276.659977  L 148.388322 275.136376  L 151.245854 273.496121  L 153.973497 271.674363  L 156.701141 269.579677  L 159.493729 267.14517  L 162.35126 264.353012  L 165.273735 261.183586  L 168.196211 257.686291  L 171.118686 253.838279  L 174.041162 249.613194  L 176.963637 244.991775  L 179.951056 239.849524  L 183.00342 234.155013  L 186.120727 227.865038  L 189.17309 221.202598  L 192.160509 214.137226  L 195.018041 206.806859  L 197.875572 198.856157  L 200.733104 190.242174  L 203.655579 180.726048  L 206.772886 169.795579  L 210.085025 157.35246  L 213.981659 141.805532  L 223.073805 105.097962  L 225.281897 97.325036  L 227.100326 91.691921  L 228.65898 87.561091  L 230.022802 84.5634  L 231.191792 82.503422  L 232.230894 81.097198  L 233.140109 80.211658  L 233.984379 79.687692  L 234.763706 79.464863  L 235.478089 79.483663  L 236.192472 79.717332  L 236.971799 80.217552  L 237.816069 81.046756  L 238.725284 82.269447  L 239.764386 84.075546  L 240.868433 86.454659  L 242.102367 89.644344  L 243.531132 93.983339  L 245.15473 99.662225  L 247.038103 107.089065  L 249.376083 117.26883  L 252.623278 132.496779  L 261.130929 172.815557  L 264.443068 187.188817  L 267.430487 199.168799  L 270.223074 209.458071  L 272.885774 218.435092  L 275.48353 226.421909  L 278.016342 233.508322  L 280.549154 239.950136  L 283.081966 245.802928  L 285.679722 251.252675  L 288.277478 256.194851  L 290.875234 260.670498  L 293.47299 264.709619  L 296.070746 268.336764  L 298.668502 271.578213  L 301.266258 274.466945  L 303.993901 277.164057  L 306.851433 279.671813  L 309.838852 281.9955  L 312.891215 284.089282  L 315.943579 285.915214  L 318.995942 287.482134  L 322.113249 288.833553  L 325.490332 290.053243  L 329.192134 291.151865  L 332.95888 292.040321  L 336.46585 292.640391  L 339.713045 292.976048  L 343.090128 293.10078  L 346.662042 293.014303  L 350.62362 292.685021  L 355.819132 291.855673  L 356.728346 291.652997  L 360.819812 290.623202  L 364.067007 289.679739  L 365.560717 289.200097  L 365.690604 289.204625  L 366.015324 289.086214  L 366.210155 289.038869  L 366.469931 288.950561  L 369.392406 288.030244  L 369.522294 288.078079  L 369.717126 287.879028  L 371.600499 287.266608  L 371.730387 287.214813  L 372.12005 287.291476  L 372.249938 287.103325  L 372.314882 287.163761  L 372.509714 286.971033  L 372.639601 287.096971  L 372.834433 286.793501  L 373.029265 286.954061  L 373.159153 286.697035  L 373.224096 286.841744  L 373.28904 286.716133  L 373.353984 286.643619  L 373.418928 286.784049  L 373.548816 286.507549  L 373.61376 286.642933  L 373.678704 286.511172  L 373.743648 286.621299  L 373.873535 286.852095  L 373.938479 286.61369  L 374.003423 286.707949  L 374.263199 286.438951  L 374.328143 286.550148  L 374.393087 286.264437  L 374.458031 286.5942  L 374.587918 286.345211  L 374.652862 286.449067  L 374.912638 285.932139  L 374.977582 286.347619  L 375.042526 286.26723  L 375.107469 286.141445  L 375.172413 286.3752  L 375.237357 286.117838  L 375.367245 286.47405  L 375.432189 285.967758  L 375.497133 286.277098  L 375.627021 285.990553  L 375.756908 286.056408  L 375.821852 285.827198  L 375.886796 285.986263  L 376.016684 285.811676  L 376.081628 285.909716  L 376.146572 285.780051  L 376.211516 286.248216  L 376.341404 285.56571  L 376.406347 286.0227  L 376.471291 285.738959  L 376.666123 285.586773  L 376.796011 285.847579  L 376.860955 285.754313  L 376.925899 285.781686  L 376.990843 285.553231  L 377.055786 286.030184  L 377.12073 285.788316  L 377.185674 285.337052  L 377.250618 285.485192  L 377.315562 285.556322  L 377.380506 285.406752  L 377.44545 285.587677  L 377.510394 285.494753  L 377.575338 285.462471  L 377.640282 285.736147  L 377.705225 285.264436  L 377.770169 285.892832  L 377.835113 285.53569  L 377.900057 286.027829  L 377.965001 285.936138  L 378.159833 285.093226  L 378.224777 285.276127  L 378.354664 284.955841  L 378.419608 285.525279  L 378.484552 285.339076  L 378.549496 285.52889  L 378.61444 284.941426  L 378.679384 285.342372  L 378.744328 285.051758  L 378.809272 285.331462  L 378.874216 284.934647  L 378.939159 285.236465  L 379.004103 285.147635  L 379.069047 284.860452  L 379.133991 284.998905  L 379.198935 285.233703  L 379.263879 285.113179  L 379.328823 285.186871  L 379.393767 284.917692  L 379.458711 284.935923  L 379.523655 285.17236  L 379.588598 284.803837  L 379.653542 285.201403  L 379.718486 284.872611  L 379.78343 285.348193  L 379.848374 284.950542  L 379.913318 285.502809  L 379.978262 284.685149  L 380.043206 284.96201  L 380.173094 285.118907  L 380.302981 284.59818  L 380.367925 285.045629  L 380.497813 284.57186  L 380.562757 285.295106  L 380.627701 284.582486  L 380.692645 285.086703  L 380.757589 285.067262  L 380.822533 284.470099  L 380.887476 284.479367  L 380.95242 285.605885  L 381.017364 284.566779  L 381.082308 284.911057  L 381.147252 284.518735  L 381.212196 285.076782  L 381.407028 284.095237  L 381.536915 284.855022  L 381.601859 284.660136  L 381.666803 284.971387  L 381.731747 283.915378  L 381.796691 284.471188  L 381.861635 285.1088  L 381.991523 284.178367  L 382.186354 285.211041  L 382.251298 283.909312  L 382.316242 285.830271  L 382.44613 283.899208  L 382.511074 285.057883  L 382.576018 284.264758  L 382.705906 283.912362  L 382.770849 284.951064  L 382.835793 284.566508  L 382.900737 284.723483  L 382.965681 284.571478  L 383.030625 284.600322  L 383.160513 284.799507  L 383.225457 283.698058  L 383.290401 285.39785  L 383.355345 284.433154  L 383.420288 285.417447  L 383.680064 282.574567  L 383.745008 285.135345  L 383.809952 284.698313  L 383.874896 283.516485  L 383.93984 285.374228  L 384.004784 283.702889  L 384.069727 283.794896  L 384.134671 284.832764  L 384.199615 283.775731  L 384.329503 284.983491  L 384.394447 283.773826  L 384.459391 284.270103  L 384.589279 285.231122  L 384.654222 283.684143  L 384.719166 284.745905  L 384.78411 286.126283  L 384.978942 283.250079  L 385.043886 282.601247  L 385.10883 285.47421  L 385.173774 284.135274  L 385.238718 282.74295  L 385.303661 282.749985  L 385.433549 285.075389  L 385.498493 283.974801  L 385.563437 285.603858  L 385.758269 282.146316  L 385.888157 286.678492  L 385.9531 284.07  L 386.018044 284.719903  L 386.082988 283.709442  L 386.147932 285.73804  L 386.27782 282.44782  L 386.342764 283.096031  L 386.407708 285.094155  L 386.472652 282.173201  L 386.537596 285.353682  L 386.602539 285.201323  L 386.667483 281.587069  L 386.797371 284.9332  L 386.992203 283.151576  L 387.057147 284.425605  L 387.122091 282.592662  L 387.187034 285.501617  L 387.251978 284.536286  L 387.316922 282.924188  L 387.381866 286.857995  L 387.44681 286.659052  L 387.576698 283.073121  L 387.641642 284.184947  L 387.706586 283.156149  L 387.77153 284.375741  L 387.836473 281.712183  L 387.966361 285.011021  L 388.031305 280.584311  L 388.096249 283.672151  L 388.161193 283.278494  L 388.226137 285.252288  L 388.291081 282.990496  L 388.356025 284.216485  L 388.420969 284.807914  L 388.550856 282.444747  L 388.680744 284.657745  L 388.745688 284.575616  L 388.810632 285.214101  L 388.875576 282.444959  L 388.94052 283.970354  L 389.005464 281.754375  L 389.070408 284.359047  L 389.135351 284.29564  L 389.330183 285.584335  L 389.395127 285.383105  L 389.460071 287.990143  L 389.525015 279.931147  L 389.589959 285.222098  L 389.654903 283.318505  L 389.719847 286.15527  L 389.914678 279.3876  L 389.979622 286.144524  L 390.044566 280.058422  L 390.10951 286.428339  L 390.174454 281.486315  L 390.239398 284.91757  L 390.304342 285.919436  L 390.369285 284.932215  L 390.434229 287.151598  L 390.499173 282.331734  L 390.564117 286.269764  L 390.629061 281.85803  L 390.694005 287.005738  L 390.758949 283.292889  L 390.888837 286.50881  L 391.018724 281.349774  L 391.083668 287.578709  L 391.148612 286.162752  L 391.213556 288.506924  L 391.343444 277.660109  L 391.408388 281.662775  L 391.473332 287.039536  L 391.538276 282.535687  L 391.60322 283.745867  L 391.668163 282.277117  L 391.733107 288.5845  L 391.798051 284.782152  L 391.862995 290.090498  L 391.927939 285.292549  L 391.992883 286.166413  L 392.057827 286.682599  L 392.187715 278.648162  L 392.252659 288.473338  L 392.317602 283.694053  L 392.382546 285.040325  L 392.44749 283.535015  L 392.512434 278.235525  L 392.642322 289.632047  L 392.707266 287.693929  L 392.77221 289.580577  L 393.096929 281.490149  L 393.161873 288.262247  L 393.226817 280.1885  L 393.356705 291.623698  L 393.421649 288.425885  L 393.486593 290.864434  L 393.551536 283.823668  L 393.61648 284.830001  L 393.681424 287.517126  L 393.746368 275.530106  L 393.811312 287.98935  L 393.876256 287.140415  L 393.9412 280.514692  L 394.071088 291.428839  L 394.200975 287.574281  L 394.265919 287.475146  L 394.395807 274.385064  L 394.460751 292.094283  L 394.525695 282.172167  L 394.655583 292.130394  L 394.720527 282.615761  L 394.785471 296.363726  L 394.915358 282.078055  L 395.045246 292.244544  L 395.11019 289.008003  L 395.175134 276.652678  L 395.240078 277.890035  L 395.305022 292.163756  L 395.369966 282.409297  L 395.43491 270.578248  L 395.499853 292.304289  L 395.564797 291.765473  L 395.629741 288.132183  L 395.694685 292.902585  L 395.759629 285.117755  L 395.824573 301.648728  L 395.889517 277.680716  L 395.954461 288.311259  L 396.019405 282.622423  L 396.149292 291.116791  L 396.214236 279.980318  L 396.27918 285.895181  L 396.344124 282.21494  L 396.538956 292.623634  L 396.6039 285.141442  L 396.668844 287.829016  L 396.733787 304.080192  L 396.798731 290.412116  L 396.863675 308.787994  L 396.928619 263.276032  L 396.993563 293.906407  L 397.058507 289.268607  L 397.253339 297.398795  L 397.383226 268.809055  L 397.44817 298.880154  L 397.513114 294.309078  L 397.578058 289.763063  L 397.643002 291.711914  L 397.707946 304.255092  L 397.77289 283.821659  L 397.837834 292.039719  L 397.902778 291.734015  L 397.967722 298.434129  L 398.097609 277.615789  L 398.227497 292.507211  L 398.422329 263.540179  L 398.487273 285.903641  L 398.487273 285.903641  " style="fill:none;stroke:#ff7f0e;stroke-linecap:square;stroke-width:1.5;"/>
   </g>
   <g id="line2d_19">
    <defs>
     <path d="M 0 1.5  C 0.397805 1.5 0.77937 1.341951 1.06066 1.06066  C 1.341951 0.77937 1.5 0.397805 1.5 0  C 1.5 -0.397805 1.341951 -0.77937 1.06066 -1.06066  C 0.77937 -1.341951 0.397805 -1.5 0 -1.5  C -0.397805 -1.5 -0.77937 -1.341951 -1.06066 -1.06066  C -1.341951 -0.77937 -1.5 -0.397805 -1.5 0  C -1.5 0.397805 -1.341951 0.77937 -1.06066 1.06066  C -0.77937 1.341951 -0.397805 1.5 0 1.5  z " id="m710261e9f3" style="stroke:#2ca02c;"/>
    </defs>
    <g clip-path="url(#pe860fdedd0)">
     <use style="fill:#2ca02c;stroke:#2ca02c;" x="73.832727" xlink:href="#m710261e9f3" y="299.054769"/>
     <use style="fill:#2ca02c;stroke:#2ca02c;" x="74.246319" xlink:href="#m710261e9f3" y="299.012826"/>
     <use style="fill:#2ca02c;stroke:#2ca02c;" x="75.484985" xlink:href="#m710261e9f3" y="298.885367"/>
     <use style="fill:#2ca02c;stroke:#2ca02c;" x="77.542414" xlink:href="#m710261e9f3" y="298.667376"/>
     <use style="fill:#2ca02c;stroke:#2ca02c;" x="80.408122" xlink:href="#m710261e9f3" y="298.350029"/>
     <use style="fill:#2ca02c;stroke:#2ca02c;" x="84.067506" xlink:href="#m710261e9f3" y="297.919937"/>
     <use style="fill:#2ca02c;stroke:#2ca02c;" x="88.501919" xlink:href="#m710261e9f3" y="297.357934"/>
     <use style="fill:#2ca02c;stroke:#2ca02c;" x="93.688763" xlink:href="#m710261e9f3" y="296.637219"/>
     <use style="fill:#2ca02c;stroke:#2ca02c;" x="99.601608" xlink:href="#m710261e9f3" y="295.720537"/>
     <use style="fill:#2ca02c;stroke:#2ca02c;" x="106.210324" xlink:href="#m710261e9f3" y="294.555891"/>
     <use style="fill:#2ca02c;stroke:#2ca02c;" x="113.481233" xlink:href="#m710261e9f3" y="293.0699"/>
     <use style="fill:#2ca02c;stroke:#2ca02c;" x="121.377285" xlink:href="#m710261e9f3" y="291.157333"/>
     <use style="fill:#2ca02c;stroke:#2ca02c;" x="129.858243" xlink:href="#m710261e9f3" y="288.664217"/>
     <use style="fill:#2ca02c;stroke:#2ca02c;" x="138.880891" xlink:href="#m710261e9f3" y="285.359869"/>
     <use style="fill:#2ca02c;stroke:#2ca02c;" x="148.399251" xlink:href="#m710261e9f3" y="280.889446"/>
     <use style="fill:#2ca02c;stroke:#2ca02c;" x="158.364819" xlink:href="#m710261e9f3" y="274.691633"/>
     <use style="fill:#2ca02c;stroke:#2ca02c;" x="168.726814" xlink:href="#m710261e9f3" y="265.854615"/>
     <use style="fill:#2ca02c;stroke:#2ca02c;" x="179.432433" xlink:href="#m710261e9f3" y="252.870733"/>
     <use style="fill:#2ca02c;stroke:#2ca02c;" x="190.427122" xlink:href="#m710261e9f3" y="233.275885"/>
     <use style="fill:#2ca02c;stroke:#2ca02c;" x="201.654856" xlink:href="#m710261e9f3" y="203.451771"/>
     <use style="fill:#2ca02c;stroke:#2ca02c;" x="213.05842" xlink:href="#m710261e9f3" y="160.366028"/>
     <use style="fill:#2ca02c;stroke:#2ca02c;" x="224.579705" xlink:href="#m710261e9f3" y="110.854308"/>
     <use style="fill:#2ca02c;stroke:#2ca02c;" x="236.16" xlink:href="#m710261e9f3" y="85.824"/>
     <use style="fill:#2ca02c;stroke:#2ca02c;" x="247.740295" xlink:href="#m710261e9f3" y="110.854308"/>
     <use style="fill:#2ca02c;stroke:#2ca02c;" x="259.26158" xlink:href="#m710261e9f3" y="160.366028"/>
     <use style="fill:#2ca02c;stroke:#2ca02c;" x="270.665144" xlink:href="#m710261e9f3" y="203.451771"/>
     <use style="fill:#2ca02c;stroke:#2ca02c;" x="281.892878" xlink:href="#m710261e9f3" y="233.275885"/>
     <use style="fill:#2ca02c;stroke:#2ca02c;" x="292.887567" xlink:href="#m710261e9f3" y="252.870733"/>
     <use style="fill:#2ca02c;stroke:#2ca02c;" x="303.593186" xlink:href="#m710261e9f3" y="265.854615"/>
     <use style="fill:#2ca02c;stroke:#2ca02c;" x="313.955181" xlink:href="#m710261e9f3" y="274.691633"/>
     <use style="fill:#2ca02c;stroke:#2ca02c;" x="323.920749" xlink:href="#m710261e9f3" y="280.889446"/>
     <use style="fill:#2ca02c;stroke:#2ca02c;" x="333.439109" xlink:href="#m710261e9f3" y="285.359869"/>
     <use style="fill:#2ca02c;stroke:#2ca02c;" x="342.461757" xlink:href="#m710261e9f3" y="288.664217"/>
     <use style="fill:#2ca02c;stroke:#2ca02c;" x="350.942715" xlink:href="#m710261e9f3" y="291.157333"/>
     <use style="fill:#2ca02c;stroke:#2ca02c;" x="358.838767" xlink:href="#m710261e9f3" y="293.0699"/>
     <use style="fill:#2ca02c;stroke:#2ca02c;" x="366.109676" xlink:href="#m710261e9f3" y="294.555891"/>
     <use style="fill:#2ca02c;stroke:#2ca02c;" x="372.718392" xlink:href="#m710261e9f3" y="295.720537"/>
     <use style="fill:#2ca02c;stroke:#2ca02c;" x="378.631237" xlink:href="#m710261e9f3" y="296.637219"/>
     <use style="fill:#2ca02c;stroke:#2ca02c;" x="383.818081" xlink:href="#m710261e9f3" y="297.357934"/>
     <use style="fill:#2ca02c;stroke:#2ca02c;" x="388.252494" xlink:href="#m710261e9f3" y="297.919937"/>
     <use style="fill:#2ca02c;stroke:#2ca02c;" x="391.911878" xlink:href="#m710261e9f3" y="298.350029"/>
     <use style="fill:#2ca02c;stroke:#2ca02c;" x="394.777586" xlink:href="#m710261e9f3" y="298.667376"/>
     <use style="fill:#2ca02c;stroke:#2ca02c;" x="396.835015" xlink:href="#m710261e9f3" y="298.885367"/>
     <use style="fill:#2ca02c;stroke:#2ca02c;" x="398.073681" xlink:href="#m710261e9f3" y="299.012826"/>
     <use style="fill:#2ca02c;stroke:#2ca02c;" x="398.487273" xlink:href="#m710261e9f3" y="299.054769"/>
    </g>
   </g>
   <g id="patch_3">
    <path d="M 57.6 307.584  L 57.6 41.472  " style="fill:none;stroke:#000000;stroke-linecap:square;stroke-linejoin:miter;stroke-width:0.8;"/>
   </g>
   <g id="patch_4">
    <path d="M 414.72 307.584  L 414.72 41.472  " style="fill:none;stroke:#000000;stroke-linecap:square;stroke-linejoin:miter;stroke-width:0.8;"/>
   </g>
   <g id="patch_5">
    <path d="M 57.6 307.584  L 414.72 307.584  " style="fill:none;stroke:#000000;stroke-linecap:square;stroke-linejoin:miter;stroke-width:0.8;"/>
   </g>
   <g id="patch_6">
    <path d="M 57.6 41.472  L 414.72 41.472  " style="fill:none;stroke:#000000;stroke-linecap:square;stroke-linejoin:miter;stroke-width:0.8;"/>
   </g>
  </g>
 </g>
 <defs>
  <clipPath id="pe860fdedd0">
   <rect height="266.112" width="357.12" x="57.6" y="41.472"/>
  </clipPath>
 </defs>
</svg>