<svg xmlns="http://www.w3.org/2000/svg" xmlns:xlink="http://www.w3.org/1999/xlink" version="1.1" viewBox="0 0 280.43375 204.68425" viewport="0 0 1280px 932px">
 <defs>
  <style type="text/css">
*{stroke-linecap:butt;stroke-linejoin:round;}
  </style>
 </defs>
 <g id="figure_1">
  <g id="patch_1">
   <path d="M 0 204.68425  L 280.43375 204.68425  L 280.43375 0  L 0 0  z " style="fill:#ffffff;"/>
  </g>
  <g id="axes_1">
   <g id="patch_2">
    <path d="M 46.64375 170.628  L 273.23375 170.628  L 273.23375 7.2  L 46.64375 7.2  z " style="fill:#ffffff;"/>
   </g>
   <g id="matplotlib.axis_1">
    <g id="xtick_1">
     <g id="line2d_1">
      <path clip-path="url(#p1e7a03c85d)" d="M 56.943295 170.628  L 56.943295 7.2  " style="fill:none;stroke:#c7dedf;stroke-linecap:square;stroke-width:0.3;"/>
     </g>
     <g id="line2d_2">
      <defs>
       <path d="M 0 0  L 0 -3.5  " id="mb37fbd7c3a"/>
      </defs>
      <g>
       <use x="56.943295" xlink:href="#mb37fbd7c3a" y="170.628"/>
      </g>
     </g>
     <g id="text_1">
      <!-- $\mathdefault{10^{1}}$ -->
      <defs>
       <path d="M 12.40625 8.296875  L 28.515625 8.296875  L 28.515625 63.921875  L 10.984375 60.40625  L 10.984375 69.390625  L 28.421875 72.90625  L 38.28125 72.90625  L 38.28125 8.296875  L 54.390625 8.296875  L 54.390625 0  L 12.40625 0  z " id="DejaVuSans-49"/>
       <path d="M 31.78125 66.40625  Q 24.171875 66.40625 20.328125 58.90625  Q 16.5 51.421875 16.5 36.375  Q 16.5 21.390625 20.328125 13.890625  Q 24.171875 6.390625 31.78125 6.390625  Q 39.453125 6.390625 43.28125 13.890625  Q 47.125 21.390625 47.125 36.375  Q 47.125 51.421875 43.28125 58.90625  Q 39.453125 66.40625 31.78125 66.40625  z M 31.78125 74.21875  Q 44.046875 74.21875 50.515625 64.515625  Q 56.984375 54.828125 56.984375 36.375  Q 56.984375 17.96875 50.515625 8.265625  Q 44.046875 -1.421875 31.78125 -1.421875  Q 19.53125 -1.421875 13.0625 8.265625  Q 6.59375 17.96875 6.59375 36.375  Q 6.59375 54.828125 13.0625 64.515625  Q 19.53125 74.21875 31.78125 74.21875  z " id="DejaVuSans-48"/>
      </defs>
      <g transform="translate(48.143295 181.726437)scale(0.1 -0.1)">
       <use transform="translate(0 0.684375)" xlink:href="#DejaVuSans-49"/>
       <use transform="translate(63.623047 0.684375)" xlink:href="#DejaVuSans-48"/>
       <use transform="translate(128.203125 38.965625)scale(0.7)" xlink:href="#DejaVuSans-49"/>
      </g>
     </g>
    </g>
    <g id="xtick_2">
     <g id="line2d_3">
      <path clip-path="url(#p1e7a03c85d)" d="M 108.441023 170.628  L 108.441023 7.2  " style="fill:none;stroke:#c7dedf;stroke-linecap:square;stroke-width:0.3;"/>
     </g>
     <g id="line2d_4">
      <g>
       <use x="108.441023" xlink:href="#mb37fbd7c3a" y="170.628"/>
      </g>
     </g>
     <g id="text_2">
      <!-- $\mathdefault{10^{2}}$ -->
      <defs>
       <path d="M 19.1875 8.296875  L 53.609375 8.296875  L 53.609375 0  L 7.328125 0  L 7.328125 8.296875  Q 12.9375 14.109375 22.625 23.890625  Q 32.328125 33.6875 34.8125 36.53125  Q 39.546875 41.84375 41.421875 45.53125  Q 43.3125 49.21875 43.3125 52.78125  Q 43.3125 58.59375 39.234375 62.25  Q 35.15625 65.921875 28.609375 65.921875  Q 23.96875 65.921875 18.8125 64.3125  Q 13.671875 62.703125 7.8125 59.421875  L 7.8125 69.390625  Q 13.765625 71.78125 18.9375 73  Q 24.125 74.21875 28.421875 74.21875  Q 39.75 74.21875 46.484375 68.546875  Q 53.21875 62.890625 53.21875 53.421875  Q 53.21875 48.921875 51.53125 44.890625  Q 49.859375 40.875 45.40625 35.40625  Q 44.1875 33.984375 37.640625 27.21875  Q 31.109375 20.453125 19.1875 8.296875  z " id="DejaVuSans-50"/>
      </defs>
      <g transform="translate(99.641023 181.726437)scale(0.1 -0.1)">
       <use transform="translate(0 0.765625)" xlink:href="#DejaVuSans-49"/>
       <use transform="translate(63.623047 0.765625)" xlink:href="#DejaVuSans-48"/>
       <use transform="translate(128.203125 39.046875)scale(0.7)" xlink:href="#DejaVuSans-50"/>
      </g>
     </g>
    </g>
    <g id="xtick_3">
     <g id="line2d_5">
      <path clip-path="url(#p1e7a03c85d)" d="M 159.93875 170.628  L 159.93875 7.2  " style="fill:none;stroke:#c7dedf;stroke-linecap:square;stroke-width:0.3;"/>
     </g>
     <g id="line2d_6">
      <g>
       <use x="159.93875" xlink:href="#mb37fbd7c3a" y="170.628"/>
      </g>
     </g>
     <g id="text_3">
      <!-- $\mathdefault{10^{3}}$ -->
      <defs>
       <path d="M 40.578125 39.3125  Q 47.65625 37.796875 51.625 33  Q 55.609375 28.21875 55.609375 21.1875  Q 55.609375 10.40625 48.1875 4.484375  Q 40.765625 -1.421875 27.09375 -1.421875  Q 22.515625 -1.421875 17.65625 -0.515625  Q 12.796875 0.390625 7.625 2.203125  L 7.625 11.71875  Q 11.71875 9.328125 16.59375 8.109375  Q 21.484375 6.890625 26.8125 6.890625  Q 36.078125 6.890625 40.9375 10.546875  Q 45.796875 14.203125 45.796875 21.1875  Q 45.796875 27.640625 41.28125 31.265625  Q 36.765625 34.90625 28.71875 34.90625  L 20.21875 34.90625  L 20.21875 43.015625  L 29.109375 43.015625  Q 36.375 43.015625 40.234375 45.921875  Q 44.09375 48.828125 44.09375 54.296875  Q 44.09375 59.90625 40.109375 62.90625  Q 36.140625 65.921875 28.71875 65.921875  Q 24.65625 65.921875 20.015625 65.03125  Q 15.375 64.15625 9.8125 62.3125  L 9.8125 71.09375  Q 15.4375 72.65625 20.34375 73.4375  Q 25.25 74.21875 29.59375 74.21875  Q 40.828125 74.21875 47.359375 69.109375  Q 53.90625 64.015625 53.90625 55.328125  Q 53.90625 49.265625 50.4375 45.09375  Q 46.96875 40.921875 40.578125 39.3125  z " id="DejaVuSans-51"/>
      </defs>
      <g transform="translate(151.13875 181.726437)scale(0.1 -0.1)">
       <use transform="translate(0 0.765625)" xlink:href="#DejaVuSans-49"/>
       <use transform="translate(63.623047 0.765625)" xlink:href="#DejaVuSans-48"/>
       <use transform="translate(128.203125 39.046875)scale(0.7)" xlink:href="#DejaVuSans-51"/>
      </g>
     </g>
    </g>
    <g id="xtick_4">
     <g id="line2d_7">
      <path clip-path="url(#p1e7a03c85d)" d="M 211.436477 170.628  L 211.436477 7.2  " style="fill:none;stroke:#c7dedf;stroke-linecap:square;stroke-width:0.3;"/>
     </g>
     <g id="line2d_8">
      <g>
       <use x="211.436477" xlink:href="#mb37fbd7c3a" y="170.628"/>
      </g>
     </g>
     <g id="text_4">
      <!-- $\mathdefault{10^{4}}$ -->
      <defs>
       <path d="M 37.796875 64.3125  L 12.890625 25.390625  L 37.796875 25.390625  z M 35.203125 72.90625  L 47.609375 72.90625  L 47.609375 25.390625  L 58.015625 25.390625  L 58.015625 17.1875  L 47.609375 17.1875  L 47.609375 0  L 37.796875 0  L 37.796875 17.1875  L 4.890625 17.1875  L 4.890625 26.703125  z " id="DejaVuSans-52"/>
      </defs>
      <g transform="translate(202.636477 181.726437)scale(0.1 -0.1)">
       <use transform="translate(0 0.684375)" xlink:href="#DejaVuSans-49"/>
       <use transform="translate(63.623047 0.684375)" xlink:href="#DejaVuSans-48"/>
       <use transform="translate(128.203125 38.965625)scale(0.7)" xlink:href="#DejaVuSans-52"/>
      </g>
     </g>
    </g>
    <g id="xtick_5">
     <g id="line2d_9">
      <path clip-path="url(#p1e7a03c85d)" d="M 262.934205 170.628  L 262.934205 7.2  " style="fill:none;stroke:#c7dedf;stroke-linecap:square;stroke-width:0.3;"/>
     </g>
     <g id="line2d_10">
      <g>
       <use x="262.934205" xlink:href="#mb37fbd7c3a" y="170.628"/>
      </g>
     </g>
     <g id="text_5">
      <!-- $\mathdefault{10^{5}}$ -->
      <defs>
       <path d="M 10.796875 72.90625  L 49.515625 72.90625  L 49.515625 64.59375  L 19.828125 64.59375  L 19.828125 46.734375  Q 21.96875 47.46875 24.109375 47.828125  Q 26.265625 48.1875 28.421875 48.1875  Q 40.625 48.1875 47.75 41.5  Q 54.890625 34.8125 54.890625 23.390625  Q 54.890625 11.625 47.5625 5.09375  Q 40.234375 -1.421875 26.90625 -1.421875  Q 22.3125 -1.421875 17.546875 -0.640625  Q 12.796875 0.140625 7.71875 1.703125  L 7.71875 11.625  Q 12.109375 9.234375 16.796875 8.0625  Q 21.484375 6.890625 26.703125 6.890625  Q 35.15625 6.890625 40.078125 11.328125  Q 45.015625 15.765625 45.015625 23.390625  Q 45.015625 31 40.078125 35.4375  Q 35.15625 39.890625 26.703125 39.890625  Q 22.75 39.890625 18.8125 39.015625  Q 14.890625 38.140625 10.796875 36.28125  z " id="DejaVuSans-53"/>
      </defs>
      <g transform="translate(254.134205 181.726437)scale(0.1 -0.1)">
       <use transform="translate(0 0.684375)" xlink:href="#DejaVuSans-49"/>
       <use transform="translate(63.623047 0.684375)" xlink:href="#DejaVuSans-48"/>
       <use transform="translate(128.203125 38.965625)scale(0.7)" xlink:href="#DejaVuSans-53"/>
      </g>
     </g>
    </g>
    <g id="xtick_6">
     <g id="line2d_11">
      <defs>
       <path d="M 0 0  L 0 -2  " id="mdb37da8343"/>
      </defs>
      <g>
       <use x="48.966197" xlink:href="#mdb37da8343" y="170.628"/>
      </g>
     </g>
    </g>
    <g id="xtick_7">
     <g id="line2d_12">
      <g>
       <use x="51.95265" xlink:href="#mdb37da8343" y="170.628"/>
      </g>
     </g>
    </g>
    <g id="xtick_8">
     <g id="line2d_13">
      <g>
       <use x="54.586889" xlink:href="#mdb37da8343" y="170.628"/>
      </g>
     </g>
    </g>
    <g id="xtick_9">
     <g id="line2d_14">
      <g>
       <use x="72.445656" xlink:href="#mdb37da8343" y="170.628"/>
      </g>
     </g>
    </g>
    <g id="xtick_10">
     <g id="line2d_15">
      <g>
       <use x="81.513956" xlink:href="#mdb37da8343" y="170.628"/>
      </g>
     </g>
    </g>
    <g id="xtick_11">
     <g id="line2d_16">
      <g>
       <use x="87.948017" xlink:href="#mdb37da8343" y="170.628"/>
      </g>
     </g>
    </g>
    <g id="xtick_12">
     <g id="line2d_17">
      <g>
       <use x="92.938662" xlink:href="#mdb37da8343" y="170.628"/>
      </g>
     </g>
    </g>
    <g id="xtick_13">
     <g id="line2d_18">
      <g>
       <use x="97.016316" xlink:href="#mdb37da8343" y="170.628"/>
      </g>
     </g>
    </g>
    <g id="xtick_14">
     <g id="line2d_19">
      <g>
       <use x="100.463924" xlink:href="#mdb37da8343" y="170.628"/>
      </g>
     </g>
    </g>
    <g id="xtick_15">
     <g id="line2d_20">
      <g>
       <use x="103.450377" xlink:href="#mdb37da8343" y="170.628"/>
      </g>
     </g>
    </g>
    <g id="xtick_16">
     <g id="line2d_21">
      <g>
       <use x="106.084616" xlink:href="#mdb37da8343" y="170.628"/>
      </g>
     </g>
    </g>
    <g id="xtick_17">
     <g id="line2d_22">
      <g>
       <use x="123.943383" xlink:href="#mdb37da8343" y="170.628"/>
      </g>
     </g>
    </g>
    <g id="xtick_18">
     <g id="line2d_23">
      <g>
       <use x="133.011683" xlink:href="#mdb37da8343" y="170.628"/>
      </g>
     </g>
    </g>
    <g id="xtick_19">
     <g id="line2d_24">
      <g>
       <use x="139.445744" xlink:href="#mdb37da8343" y="170.628"/>
      </g>
     </g>
    </g>
    <g id="xtick_20">
     <g id="line2d_25">
      <g>
       <use x="144.436389" xlink:href="#mdb37da8343" y="170.628"/>
      </g>
     </g>
    </g>
    <g id="xtick_21">
     <g id="line2d_26">
      <g>
       <use x="148.514044" xlink:href="#mdb37da8343" y="170.628"/>
      </g>
     </g>
    </g>
    <g id="xtick_22">
     <g id="line2d_27">
      <g>
       <use x="151.961651" xlink:href="#mdb37da8343" y="170.628"/>
      </g>
     </g>
    </g>
    <g id="xtick_23">
     <g id="line2d_28">
      <g>
       <use x="154.948105" xlink:href="#mdb37da8343" y="170.628"/>
      </g>
     </g>
    </g>
    <g id="xtick_24">
     <g id="line2d_29">
      <g>
       <use x="157.582343" xlink:href="#mdb37da8343" y="170.628"/>
      </g>
     </g>
    </g>
    <g id="xtick_25">
     <g id="line2d_30">
      <g>
       <use x="175.441111" xlink:href="#mdb37da8343" y="170.628"/>
      </g>
     </g>
    </g>
    <g id="xtick_26">
     <g id="line2d_31">
      <g>
       <use x="184.50941" xlink:href="#mdb37da8343" y="170.628"/>
      </g>
     </g>
    </g>
    <g id="xtick_27">
     <g id="line2d_32">
      <g>
       <use x="190.943471" xlink:href="#mdb37da8343" y="170.628"/>
      </g>
     </g>
    </g>
    <g id="xtick_28">
     <g id="line2d_33">
      <g>
       <use x="195.934117" xlink:href="#mdb37da8343" y="170.628"/>
      </g>
     </g>
    </g>
    <g id="xtick_29">
     <g id="line2d_34">
      <g>
       <use x="200.011771" xlink:href="#mdb37da8343" y="170.628"/>
      </g>
     </g>
    </g>
    <g id="xtick_30">
     <g id="line2d_35">
      <g>
       <use x="203.459378" xlink:href="#mdb37da8343" y="170.628"/>
      </g>
     </g>
    </g>
    <g id="xtick_31">
     <g id="line2d_36">
      <g>
       <use x="206.445832" xlink:href="#mdb37da8343" y="170.628"/>
      </g>
     </g>
    </g>
    <g id="xtick_32">
     <g id="line2d_37">
      <g>
       <use x="209.080071" xlink:href="#mdb37da8343" y="170.628"/>
      </g>
     </g>
    </g>
    <g id="xtick_33">
     <g id="line2d_38">
      <g>
       <use x="226.938838" xlink:href="#mdb37da8343" y="170.628"/>
      </g>
     </g>
    </g>
    <g id="xtick_34">
     <g id="line2d_39">
      <g>
       <use x="236.007138" xlink:href="#mdb37da8343" y="170.628"/>
      </g>
     </g>
    </g>
    <g id="xtick_35">
     <g id="line2d_40">
      <g>
       <use x="242.441199" xlink:href="#mdb37da8343" y="170.628"/>
      </g>
     </g>
    </g>
    <g id="xtick_36">
     <g id="line2d_41">
      <g>
       <use x="247.431844" xlink:href="#mdb37da8343" y="170.628"/>
      </g>
     </g>
    </g>
    <g id="xtick_37">
     <g id="line2d_42">
      <g>
       <use x="251.509498" xlink:href="#mdb37da8343" y="170.628"/>
      </g>
     </g>
    </g>
    <g id="xtick_38">
     <g id="line2d_43">
      <g>
       <use x="254.957106" xlink:href="#mdb37da8343" y="170.628"/>
      </g>
     </g>
    </g>
    <g id="xtick_39">
     <g id="line2d_44">
      <g>
       <use x="257.943559" xlink:href="#mdb37da8343" y="170.628"/>
      </g>
     </g>
    </g>
    <g id="xtick_40">
     <g id="line2d_45">
      <g>
       <use x="260.577798" xlink:href="#mdb37da8343" y="170.628"/>
      </g>
     </g>
    </g>
    <g id="text_6">
     <!-- Number of trials -->
     <defs>
      <path d="M 9.8125 72.90625  L 23.09375 72.90625  L 55.421875 11.921875  L 55.421875 72.90625  L 64.984375 72.90625  L 64.984375 0  L 51.703125 0  L 19.390625 60.984375  L 19.390625 0  L 9.8125 0  z " id="DejaVuSans-78"/>
      <path d="M 8.5 21.578125  L 8.5 54.6875  L 17.484375 54.6875  L 17.484375 21.921875  Q 17.484375 14.15625 20.5 10.265625  Q 23.53125 6.390625 29.59375 6.390625  Q 36.859375 6.390625 41.078125 11.03125  Q 45.3125 15.671875 45.3125 23.6875  L 45.3125 54.6875  L 54.296875 54.6875  L 54.296875 0  L 45.3125 0  L 45.3125 8.40625  Q 42.046875 3.421875 37.71875 1  Q 33.40625 -1.421875 27.6875 -1.421875  Q 18.265625 -1.421875 13.375 4.4375  Q 8.5 10.296875 8.5 21.578125  z M 31.109375 56  z " id="DejaVuSans-117"/>
      <path d="M 52 44.1875  Q 55.375 50.25 60.0625 53.125  Q 64.75 56 71.09375 56  Q 79.640625 56 84.28125 50.015625  Q 88.921875 44.046875 88.921875 33.015625  L 88.921875 0  L 79.890625 0  L 79.890625 32.71875  Q 79.890625 40.578125 77.09375 44.375  Q 74.3125 48.1875 68.609375 48.1875  Q 61.625 48.1875 57.5625 43.546875  Q 53.515625 38.921875 53.515625 30.90625  L 53.515625 0  L 44.484375 0  L 44.484375 32.71875  Q 44.484375 40.625 41.703125 44.40625  Q 38.921875 48.1875 33.109375 48.1875  Q 26.21875 48.1875 22.15625 43.53125  Q 18.109375 38.875 18.109375 30.90625  L 18.109375 0  L 9.078125 0  L 9.078125 54.6875  L 18.109375 54.6875  L 18.109375 46.1875  Q 21.1875 51.21875 25.484375 53.609375  Q 29.78125 56 35.6875 56  Q 41.65625 56 45.828125 52.96875  Q 50 49.953125 52 44.1875  z " id="DejaVuSans-109"/>
      <path d="M 48.6875 27.296875  Q 48.6875 37.203125 44.609375 42.84375  Q 40.53125 48.484375 33.40625 48.484375  Q 26.265625 48.484375 22.1875 42.84375  Q 18.109375 37.203125 18.109375 27.296875  Q 18.109375 17.390625 22.1875 11.75  Q 26.265625 6.109375 33.40625 6.109375  Q 40.53125 6.109375 44.609375 11.75  Q 48.6875 17.390625 48.6875 27.296875  z M 18.109375 46.390625  Q 20.953125 51.265625 25.265625 53.625  Q 29.59375 56 35.59375 56  Q 45.5625 56 51.78125 48.09375  Q 58.015625 40.1875 58.015625 27.296875  Q 58.015625 14.40625 51.78125 6.484375  Q 45.5625 -1.421875 35.59375 -1.421875  Q 29.59375 -1.421875 25.265625 0.953125  Q 20.953125 3.328125 18.109375 8.203125  L 18.109375 0  L 9.078125 0  L 9.078125 75.984375  L 18.109375 75.984375  z " id="DejaVuSans-98"/>
      <path d="M 56.203125 29.59375  L 56.203125 25.203125  L 14.890625 25.203125  Q 15.484375 15.921875 20.484375 11.0625  Q 25.484375 6.203125 34.421875 6.203125  Q 39.59375 6.203125 44.453125 7.46875  Q 49.3125 8.734375 54.109375 11.28125  L 54.109375 2.78125  Q 49.265625 0.734375 44.1875 -0.34375  Q 39.109375 -1.421875 33.890625 -1.421875  Q 20.796875 -1.421875 13.15625 6.1875  Q 5.515625 13.8125 5.515625 26.8125  Q 5.515625 40.234375 12.765625 48.109375  Q 20.015625 56 32.328125 56  Q 43.359375 56 49.78125 48.890625  Q 56.203125 41.796875 56.203125 29.59375  z M 47.21875 32.234375  Q 47.125 39.59375 43.09375 43.984375  Q 39.0625 48.390625 32.421875 48.390625  Q 24.90625 48.390625 20.390625 44.140625  Q 15.875 39.890625 15.1875 32.171875  z " id="DejaVuSans-101"/>
      <path d="M 41.109375 46.296875  Q 39.59375 47.171875 37.8125 47.578125  Q 36.03125 48 33.890625 48  Q 26.265625 48 22.1875 43.046875  Q 18.109375 38.09375 18.109375 28.8125  L 18.109375 0  L 9.078125 0  L 9.078125 54.6875  L 18.109375 54.6875  L 18.109375 46.1875  Q 20.953125 51.171875 25.484375 53.578125  Q 30.03125 56 36.53125 56  Q 37.453125 56 38.578125 55.875  Q 39.703125 55.765625 41.0625 55.515625  z " id="DejaVuSans-114"/>
      <path id="DejaVuSans-32"/>
      <path d="M 30.609375 48.390625  Q 23.390625 48.390625 19.1875 42.75  Q 14.984375 37.109375 14.984375 27.296875  Q 14.984375 17.484375 19.15625 11.84375  Q 23.34375 6.203125 30.609375 6.203125  Q 37.796875 6.203125 41.984375 11.859375  Q 46.1875 17.53125 46.1875 27.296875  Q 46.1875 37.015625 41.984375 42.703125  Q 37.796875 48.390625 30.609375 48.390625  z M 30.609375 56  Q 42.328125 56 49.015625 48.375  Q 55.71875 40.765625 55.71875 27.296875  Q 55.71875 13.875 49.015625 6.21875  Q 42.328125 -1.421875 30.609375 -1.421875  Q 18.84375 -1.421875 12.171875 6.21875  Q 5.515625 13.875 5.515625 27.296875  Q 5.515625 40.765625 12.171875 48.375  Q 18.84375 56 30.609375 56  z " id="DejaVuSans-111"/>
      <path d="M 37.109375 75.984375  L 37.109375 68.5  L 28.515625 68.5  Q 23.6875 68.5 21.796875 66.546875  Q 19.921875 64.59375 19.921875 59.515625  L 19.921875 54.6875  L 34.71875 54.6875  L 34.71875 47.703125  L 19.921875 47.703125  L 19.921875 0  L 10.890625 0  L 10.890625 47.703125  L 2.296875 47.703125  L 2.296875 54.6875  L 10.890625 54.6875  L 10.890625 58.5  Q 10.890625 67.625 15.140625 71.796875  Q 19.390625 75.984375 28.609375 75.984375  z " id="DejaVuSans-102"/>
      <path d="M 18.3125 70.21875  L 18.3125 54.6875  L 36.8125 54.6875  L 36.8125 47.703125  L 18.3125 47.703125  L 18.3125 18.015625  Q 18.3125 11.328125 20.140625 9.421875  Q 21.96875 7.515625 27.59375 7.515625  L 36.8125 7.515625  L 36.8125 0  L 27.59375 0  Q 17.1875 0 13.234375 3.875  Q 9.28125 7.765625 9.28125 18.015625  L 9.28125 47.703125  L 2.6875 47.703125  L 2.6875 54.6875  L 9.28125 54.6875  L 9.28125 70.21875  z " id="DejaVuSans-116"/>
      <path d="M 9.421875 54.6875  L 18.40625 54.6875  L 18.40625 0  L 9.421875 0  z M 9.421875 75.984375  L 18.40625 75.984375  L 18.40625 64.59375  L 9.421875 64.59375  z " id="DejaVuSans-105"/>
      <path d="M 34.28125 27.484375  Q 23.390625 27.484375 19.1875 25  Q 14.984375 22.515625 14.984375 16.5  Q 14.984375 11.71875 18.140625 8.90625  Q 21.296875 6.109375 26.703125 6.109375  Q 34.1875 6.109375 38.703125 11.40625  Q 43.21875 16.703125 43.21875 25.484375  L 43.21875 27.484375  z M 52.203125 31.203125  L 52.203125 0  L 43.21875 0  L 43.21875 8.296875  Q 40.140625 3.328125 35.546875 0.953125  Q 30.953125 -1.421875 24.3125 -1.421875  Q 15.921875 -1.421875 10.953125 3.296875  Q 6 8.015625 6 15.921875  Q 6 25.140625 12.171875 29.828125  Q 18.359375 34.515625 30.609375 34.515625  L 43.21875 34.515625  L 43.21875 35.40625  Q 43.21875 41.609375 39.140625 45  Q 35.0625 48.390625 27.6875 48.390625  Q 23 48.390625 18.546875 47.265625  Q 14.109375 46.140625 10.015625 43.890625  L 10.015625 52.203125  Q 14.9375 54.109375 19.578125 55.046875  Q 24.21875 56 28.609375 56  Q 40.484375 56 46.34375 49.84375  Q 52.203125 43.703125 52.203125 31.203125  z " id="DejaVuSans-97"/>
      <path d="M 9.421875 75.984375  L 18.40625 75.984375  L 18.40625 0  L 9.421875 0  z " id="DejaVuSans-108"/>
      <path d="M 44.28125 53.078125  L 44.28125 44.578125  Q 40.484375 46.53125 36.375 47.5  Q 32.28125 48.484375 27.875 48.484375  Q 21.1875 48.484375 17.84375 46.4375  Q 14.5 44.390625 14.5 40.28125  Q 14.5 37.15625 16.890625 35.375  Q 19.28125 33.59375 26.515625 31.984375  L 29.59375 31.296875  Q 39.15625 29.25 43.1875 25.515625  Q 47.21875 21.78125 47.21875 15.09375  Q 47.21875 7.46875 41.1875 3.015625  Q 35.15625 -1.421875 24.609375 -1.421875  Q 20.21875 -1.421875 15.453125 -0.5625  Q 10.6875 0.296875 5.421875 2  L 5.421875 11.28125  Q 10.40625 8.6875 15.234375 7.390625  Q 20.0625 6.109375 24.8125 6.109375  Q 31.15625 6.109375 34.5625 8.28125  Q 37.984375 10.453125 37.984375 14.40625  Q 37.984375 18.0625 35.515625 20.015625  Q 33.0625 21.96875 24.703125 23.78125  L 21.578125 24.515625  Q 13.234375 26.265625 9.515625 29.90625  Q 5.8125 33.546875 5.8125 39.890625  Q 5.8125 47.609375 11.28125 51.796875  Q 16.75 56 26.8125 56  Q 31.78125 56 36.171875 55.265625  Q 40.578125 54.546875 44.28125 53.078125  z " id="DejaVuSans-115"/>
     </defs>
     <g transform="translate(119.392656 195.404562)scale(0.1 -0.1)">
      <use xlink:href="#DejaVuSans-78"/>
      <use x="74.804688" xlink:href="#DejaVuSans-117"/>
      <use x="138.183594" xlink:href="#DejaVuSans-109"/>
      <use x="235.595703" xlink:href="#DejaVuSans-98"/>
      <use x="299.072266" xlink:href="#DejaVuSans-101"/>
      <use x="360.595703" xlink:href="#DejaVuSans-114"/>
      <use x="401.708984" xlink:href="#DejaVuSans-32"/>
      <use x="433.496094" xlink:href="#DejaVuSans-111"/>
      <use x="494.677734" xlink:href="#DejaVuSans-102"/>
      <use x="529.882812" xlink:href="#DejaVuSans-32"/>
      <use x="561.669922" xlink:href="#DejaVuSans-116"/>
      <use x="600.878906" xlink:href="#DejaVuSans-114"/>
      <use x="641.992188" xlink:href="#DejaVuSans-105"/>
      <use x="669.775391" xlink:href="#DejaVuSans-97"/>
      <use x="731.054688" xlink:href="#DejaVuSans-108"/>
      <use x="758.837891" xlink:href="#DejaVuSans-115"/>
     </g>
    </g>
   </g>
   <g id="matplotlib.axis_2">
    <g id="ytick_1">
     <g id="line2d_46">
      <path clip-path="url(#p1e7a03c85d)" d="M 46.64375 157.425974  L 273.23375 157.425974  " style="fill:none;stroke:#c7dedf;stroke-linecap:square;stroke-width:0.3;"/>
     </g>
     <g id="line2d_47">
      <defs>
       <path d="M 0 0  L 3.5 0  " id="mf9f926aef4"/>
      </defs>
      <g>
       <use x="46.64375" xlink:href="#mf9f926aef4" y="157.425974"/>
      </g>
     </g>
     <g id="text_7">
      <!-- 0.50 -->
      <defs>
       <path d="M 10.6875 12.40625  L 21 12.40625  L 21 0  L 10.6875 0  z " id="DejaVuSans-46"/>
      </defs>
      <g transform="translate(20.878125 161.225192)scale(0.1 -0.1)">
       <use xlink:href="#DejaVuSans-48"/>
       <use x="63.623047" xlink:href="#DejaVuSans-46"/>
       <use x="95.410156" xlink:href="#DejaVuSans-53"/>
       <use x="159.033203" xlink:href="#DejaVuSans-48"/>
      </g>
     </g>
    </g>
    <g id="ytick_2">
     <g id="line2d_48">
      <path clip-path="url(#p1e7a03c85d)" d="M 46.64375 126.826525  L 273.23375 126.826525  " style="fill:none;stroke:#c7dedf;stroke-linecap:square;stroke-width:0.3;"/>
     </g>
     <g id="line2d_49">
      <g>
       <use x="46.64375" xlink:href="#mf9f926aef4" y="126.826525"/>
      </g>
     </g>
     <g id="text_8">
      <!-- 0.55 -->
      <g transform="translate(20.878125 130.625743)scale(0.1 -0.1)">
       <use xlink:href="#DejaVuSans-48"/>
       <use x="63.623047" xlink:href="#DejaVuSans-46"/>
       <use x="95.410156" xlink:href="#DejaVuSans-53"/>
       <use x="159.033203" xlink:href="#DejaVuSans-53"/>
      </g>
     </g>
    </g>
    <g id="ytick_3">
     <g id="line2d_50">
      <path clip-path="url(#p1e7a03c85d)" d="M 46.64375 96.227076  L 273.23375 96.227076  " style="fill:none;stroke:#c7dedf;stroke-linecap:square;stroke-width:0.3;"/>
     </g>
     <g id="line2d_51">
      <g>
       <use x="46.64375" xlink:href="#mf9f926aef4" y="96.227076"/>
      </g>
     </g>
     <g id="text_9">
      <!-- 0.60 -->
      <defs>
       <path d="M 33.015625 40.375  Q 26.375 40.375 22.484375 35.828125  Q 18.609375 31.296875 18.609375 23.390625  Q 18.609375 15.53125 22.484375 10.953125  Q 26.375 6.390625 33.015625 6.390625  Q 39.65625 6.390625 43.53125 10.953125  Q 47.40625 15.53125 47.40625 23.390625  Q 47.40625 31.296875 43.53125 35.828125  Q 39.65625 40.375 33.015625 40.375  z M 52.59375 71.296875  L 52.59375 62.3125  Q 48.875 64.0625 45.09375 64.984375  Q 41.3125 65.921875 37.59375 65.921875  Q 27.828125 65.921875 22.671875 59.328125  Q 17.53125 52.734375 16.796875 39.40625  Q 19.671875 43.65625 24.015625 45.921875  Q 28.375 48.1875 33.59375 48.1875  Q 44.578125 48.1875 50.953125 41.515625  Q 57.328125 34.859375 57.328125 23.390625  Q 57.328125 12.15625 50.6875 5.359375  Q 44.046875 -1.421875 33.015625 -1.421875  Q 20.359375 -1.421875 13.671875 8.265625  Q 6.984375 17.96875 6.984375 36.375  Q 6.984375 53.65625 15.1875 63.9375  Q 23.390625 74.21875 37.203125 74.21875  Q 40.921875 74.21875 44.703125 73.484375  Q 48.484375 72.75 52.59375 71.296875  z " id="DejaVuSans-54"/>
      </defs>
      <g transform="translate(20.878125 100.026295)scale(0.1 -0.1)">
       <use xlink:href="#DejaVuSans-48"/>
       <use x="63.623047" xlink:href="#DejaVuSans-46"/>
       <use x="95.410156" xlink:href="#DejaVuSans-54"/>
       <use x="159.033203" xlink:href="#DejaVuSans-48"/>
      </g>
     </g>
    </g>
    <g id="ytick_4">
     <g id="line2d_52">
      <path clip-path="url(#p1e7a03c85d)" d="M 46.64375 65.627627  L 273.23375 65.627627  " style="fill:none;stroke:#c7dedf;stroke-linecap:square;stroke-width:0.3;"/>
     </g>
     <g id="line2d_53">
      <g>
       <use x="46.64375" xlink:href="#mf9f926aef4" y="65.627627"/>
      </g>
     </g>
     <g id="text_10">
      <!-- 0.65 -->
      <g transform="translate(20.878125 69.426846)scale(0.1 -0.1)">
       <use xlink:href="#DejaVuSans-48"/>
       <use x="63.623047" xlink:href="#DejaVuSans-46"/>
       <use x="95.410156" xlink:href="#DejaVuSans-54"/>
       <use x="159.033203" xlink:href="#DejaVuSans-53"/>
      </g>
     </g>
    </g>
    <g id="ytick_5">
     <g id="line2d_54">
      <path clip-path="url(#p1e7a03c85d)" d="M 46.64375 35.028178  L 273.23375 35.028178  " style="fill:none;stroke:#c7dedf;stroke-linecap:square;stroke-width:0.3;"/>
     </g>
     <g id="line2d_55">
      <g>
       <use x="46.64375" xlink:href="#mf9f926aef4" y="35.028178"/>
      </g>
     </g>
     <g id="text_11">
      <!-- 0.70 -->
      <defs>
       <path d="M 8.203125 72.90625  L 55.078125 72.90625  L 55.078125 68.703125  L 28.609375 0  L 18.3125 0  L 43.21875 64.59375  L 8.203125 64.59375  z " id="DejaVuSans-55"/>
      </defs>
      <g transform="translate(20.878125 38.827397)scale(0.1 -0.1)">
       <use xlink:href="#DejaVuSans-48"/>
       <use x="63.623047" xlink:href="#DejaVuSans-46"/>
       <use x="95.410156" xlink:href="#DejaVuSans-55"/>
       <use x="159.033203" xlink:href="#DejaVuSans-48"/>
      </g>
     </g>
    </g>
    <g id="text_12">
     <!-- Estimated probability -->
     <defs>
      <path d="M 9.8125 72.90625  L 55.90625 72.90625  L 55.90625 64.59375  L 19.671875 64.59375  L 19.671875 43.015625  L 54.390625 43.015625  L 54.390625 34.71875  L 19.671875 34.71875  L 19.671875 8.296875  L 56.78125 8.296875  L 56.78125 0  L 9.8125 0  z " id="DejaVuSans-69"/>
      <path d="M 45.40625 46.390625  L 45.40625 75.984375  L 54.390625 75.984375  L 54.390625 0  L 45.40625 0  L 45.40625 8.203125  Q 42.578125 3.328125 38.25 0.953125  Q 33.9375 -1.421875 27.875 -1.421875  Q 17.96875 -1.421875 11.734375 6.484375  Q 5.515625 14.40625 5.515625 27.296875  Q 5.515625 40.1875 11.734375 48.09375  Q 17.96875 56 27.875 56  Q 33.9375 56 38.25 53.625  Q 42.578125 51.265625 45.40625 46.390625  z M 14.796875 27.296875  Q 14.796875 17.390625 18.875 11.75  Q 22.953125 6.109375 30.078125 6.109375  Q 37.203125 6.109375 41.296875 11.75  Q 45.40625 17.390625 45.40625 27.296875  Q 45.40625 37.203125 41.296875 42.84375  Q 37.203125 48.484375 30.078125 48.484375  Q 22.953125 48.484375 18.875 42.84375  Q 14.796875 37.203125 14.796875 27.296875  z " id="DejaVuSans-100"/>
      <path d="M 18.109375 8.203125  L 18.109375 -20.796875  L 9.078125 -20.796875  L 9.078125 54.6875  L 18.109375 54.6875  L 18.109375 46.390625  Q 20.953125 51.265625 25.265625 53.625  Q 29.59375 56 35.59375 56  Q 45.5625 56 51.78125 48.09375  Q 58.015625 40.1875 58.015625 27.296875  Q 58.015625 14.40625 51.78125 6.484375  Q 45.5625 -1.421875 35.59375 -1.421875  Q 29.59375 -1.421875 25.265625 0.953125  Q 20.953125 3.328125 18.109375 8.203125  z M 48.6875 27.296875  Q 48.6875 37.203125 44.609375 42.84375  Q 40.53125 48.484375 33.40625 48.484375  Q 26.265625 48.484375 22.1875 42.84375  Q 18.109375 37.203125 18.109375 27.296875  Q 18.109375 17.390625 22.1875 11.75  Q 26.265625 6.109375 33.40625 6.109375  Q 40.53125 6.109375 44.609375 11.75  Q 48.6875 17.390625 48.6875 27.296875  z " id="DejaVuSans-112"/>
      <path d="M 32.171875 -5.078125  Q 28.375 -14.84375 24.75 -17.8125  Q 21.140625 -20.796875 15.09375 -20.796875  L 7.90625 -20.796875  L 7.90625 -13.28125  L 13.1875 -13.28125  Q 16.890625 -13.28125 18.9375 -11.515625  Q 21 -9.765625 23.484375 -3.21875  L 25.09375 0.875  L 2.984375 54.6875  L 12.5 54.6875  L 29.59375 11.921875  L 46.6875 54.6875  L 56.203125 54.6875  z " id="DejaVuSans-121"/>
     </defs>
     <g transform="translate(14.798438 142.548375)rotate(-90)scale(0.1 -0.1)">
      <use xlink:href="#DejaVuSans-69"/>
      <use x="63.183594" xlink:href="#DejaVuSans-115"/>
      <use x="115.283203" xlink:href="#DejaVuSans-116"/>
      <use x="154.492188" xlink:href="#DejaVuSans-105"/>
      <use x="182.275391" xlink:href="#DejaVuSans-109"/>
      <use x="279.6875" xlink:href="#DejaVuSans-97"/>
      <use x="340.966797" xlink:href="#DejaVuSans-116"/>
      <use x="380.175781" xlink:href="#DejaVuSans-101"/>
      <use x="441.699219" xlink:href="#DejaVuSans-100"/>
      <use x="505.175781" xlink:href="#DejaVuSans-32"/>
      <use x="536.962891" xlink:href="#DejaVuSans-112"/>
      <use x="600.439453" xlink:href="#DejaVuSans-114"/>
      <use x="641.521484" xlink:href="#DejaVuSans-111"/>
      <use x="702.703125" xlink:href="#DejaVuSans-98"/>
      <use x="766.179688" xlink:href="#DejaVuSans-97"/>
      <use x="827.458984" xlink:href="#DejaVuSans-98"/>
      <use x="890.935547" xlink:href="#DejaVuSans-105"/>
      <use x="918.71875" xlink:href="#DejaVuSans-108"/>
      <use x="946.501953" xlink:href="#DejaVuSans-105"/>
      <use x="974.285156" xlink:href="#DejaVuSans-116"/>
      <use x="1013.494141" xlink:href="#DejaVuSans-121"/>
     </g>
    </g>
   </g>
   <g id="LineCollection_1">
    <path clip-path="url(#p1e7a03c85d)" d="M 56.943295 77.867407  L 262.934205 77.867407  " style="fill:none;stroke:#3f3f3f;stroke-width:1.5;"/>
   </g>
   <g id="line2d_56">
    <defs>
     <path d="M 0 3  C 0.795609 3 1.55874 2.683901 2.12132 2.12132  C 2.683901 1.55874 3 0.795609 3 0  C 3 -0.795609 2.683901 -1.55874 2.12132 -2.12132  C 1.55874 -2.683901 0.795609 -3 0 -3  C -0.795609 -3 -1.55874 -2.683901 -2.12132 -2.12132  C -2.683901 -1.55874 -3 -0.795609 -3 0  C -3 0.795609 -2.683901 1.55874 -2.12132 2.12132  C -1.55874 2.683901 -0.795609 3 0 3  z " id="m2f7d64f8a6" style="stroke:#e41a1c;stroke-opacity:0.5;"/>
    </defs>
    <g clip-path="url(#p1e7a03c85d)">
     <use style="fill:#e41a1c;fill-opacity:0.5;stroke:#e41a1c;stroke-opacity:0.5;" x="56.943295" xlink:href="#m2f7d64f8a6" y="96.227076"/>
     <use style="fill:#e41a1c;fill-opacity:0.5;stroke:#e41a1c;stroke-opacity:0.5;" x="56.943295" xlink:href="#m2f7d64f8a6" y="96.227076"/>
     <use style="fill:#e41a1c;fill-opacity:0.5;stroke:#e41a1c;stroke-opacity:0.5;" x="61.02095" xlink:href="#m2f7d64f8a6" y="55.427811"/>
     <use style="fill:#e41a1c;fill-opacity:0.5;stroke:#e41a1c;stroke-opacity:0.5;" x="62.811119" xlink:href="#m2f7d64f8a6" y="39.735786"/>
     <use style="fill:#e41a1c;fill-opacity:0.5;stroke:#e41a1c;stroke-opacity:0.5;" x="64.468557" xlink:href="#m2f7d64f8a6" y="26.285478"/>
     <use style="fill:#e41a1c;fill-opacity:0.5;stroke:#e41a1c;stroke-opacity:0.5;" x="66.011595" xlink:href="#m2f7d64f8a6" y="137.026341"/>
     <use style="fill:#e41a1c;fill-opacity:0.5;stroke:#e41a1c;stroke-opacity:0.5;" x="68.810891" xlink:href="#m2f7d64f8a6" y="31.428243"/>
     <use style="fill:#e41a1c;fill-opacity:0.5;stroke:#e41a1c;stroke-opacity:0.5;" x="71.298472" xlink:href="#m2f7d64f8a6" y="109.111054"/>
     <use style="fill:#e41a1c;fill-opacity:0.5;stroke:#e41a1c;stroke-opacity:0.5;" x="73.536857" xlink:href="#m2f7d64f8a6" y="142.854807"/>
     <use style="fill:#e41a1c;fill-opacity:0.5;stroke:#e41a1c;stroke-opacity:0.5;" x="75.571457" xlink:href="#m2f7d64f8a6" y="64.297216"/>
     <use style="fill:#e41a1c;fill-opacity:0.5;stroke:#e41a1c;stroke-opacity:0.5;" x="77.436301" xlink:href="#m2f7d64f8a6" y="47.267958"/>
     <use style="fill:#e41a1c;fill-opacity:0.5;stroke:#e41a1c;stroke-opacity:0.5;" x="79.157549" xlink:href="#m2f7d64f8a6" y="78.094069"/>
     <use style="fill:#e41a1c;fill-opacity:0.5;stroke:#e41a1c;stroke-opacity:0.5;" x="81.513956" xlink:href="#m2f7d64f8a6" y="14.628545"/>
     <use style="fill:#e41a1c;fill-opacity:0.5;stroke:#e41a1c;stroke-opacity:0.5;" x="83.645585" xlink:href="#m2f7d64f8a6" y="111.063172"/>
     <use style="fill:#e41a1c;fill-opacity:0.5;stroke:#e41a1c;stroke-opacity:0.5;" x="85.59161" xlink:href="#m2f7d64f8a6" y="123.426586"/>
     <use style="fill:#e41a1c;fill-opacity:0.5;stroke:#e41a1c;stroke-opacity:0.5;" x="87.948017" xlink:href="#m2f7d64f8a6" y="126.826525"/>
     <use style="fill:#e41a1c;fill-opacity:0.5;stroke:#e41a1c;stroke-opacity:0.5;" x="90.079646" xlink:href="#m2f7d64f8a6" y="87.881772"/>
     <use style="fill:#e41a1c;fill-opacity:0.5;stroke:#e41a1c;stroke-opacity:0.5;" x="92.025671" xlink:href="#m2f7d64f8a6" y="93.677122"/>
     <use style="fill:#e41a1c;fill-opacity:0.5;stroke:#e41a1c;stroke-opacity:0.5;" x="94.241857" xlink:href="#m2f7d64f8a6" y="163.199455"/>
     <use style="fill:#e41a1c;fill-opacity:0.5;stroke:#e41a1c;stroke-opacity:0.5;" x="96.258102" xlink:href="#m2f7d64f8a6" y="136.322905"/>
     <use style="fill:#e41a1c;fill-opacity:0.5;stroke:#e41a1c;stroke-opacity:0.5;" x="98.459732" xlink:href="#m2f7d64f8a6" y="80.927351"/>
     <use style="fill:#e41a1c;fill-opacity:0.5;stroke:#e41a1c;stroke-opacity:0.5;" x="100.463924" xlink:href="#m2f7d64f8a6" y="122.455175"/>
     <use style="fill:#e41a1c;fill-opacity:0.5;stroke:#e41a1c;stroke-opacity:0.5;" x="102.595553" xlink:href="#m2f7d64f8a6" y="58.077114"/>
     <use style="fill:#e41a1c;fill-opacity:0.5;stroke:#e41a1c;stroke-opacity:0.5;" x="104.541578" xlink:href="#m2f7d64f8a6" y="91.855726"/>
     <use style="fill:#e41a1c;fill-opacity:0.5;stroke:#e41a1c;stroke-opacity:0.5;" x="106.817966" xlink:href="#m2f7d64f8a6" y="81.749917"/>
     <use style="fill:#e41a1c;fill-opacity:0.5;stroke:#e41a1c;stroke-opacity:0.5;" x="108.883912" xlink:href="#m2f7d64f8a6" y="79.427378"/>
     <use style="fill:#e41a1c;fill-opacity:0.5;stroke:#e41a1c;stroke-opacity:0.5;" x="110.975639" xlink:href="#m2f7d64f8a6" y="97.319913"/>
     <use style="fill:#e41a1c;fill-opacity:0.5;stroke:#e41a1c;stroke-opacity:0.5;" x="113.070932" xlink:href="#m2f7d64f8a6" y="75.329891"/>
     <use style="fill:#e41a1c;fill-opacity:0.5;stroke:#e41a1c;stroke-opacity:0.5;" x="115.152916" xlink:href="#m2f7d64f8a6" y="87.160572"/>
     <use style="fill:#e41a1c;fill-opacity:0.5;stroke:#e41a1c;stroke-opacity:0.5;" x="117.209114" xlink:href="#m2f7d64f8a6" y="41.644275"/>
     <use style="fill:#e41a1c;fill-opacity:0.5;stroke:#e41a1c;stroke-opacity:0.5;" x="119.23057" xlink:href="#m2f7d64f8a6" y="81.871779"/>
     <use style="fill:#e41a1c;fill-opacity:0.5;stroke:#e41a1c;stroke-opacity:0.5;" x="121.337084" xlink:href="#m2f7d64f8a6" y="68.034325"/>
     <use style="fill:#e41a1c;fill-opacity:0.5;stroke:#e41a1c;stroke-opacity:0.5;" x="123.491546" xlink:href="#m2f7d64f8a6" y="104.345297"/>
     <use style="fill:#e41a1c;fill-opacity:0.5;stroke:#e41a1c;stroke-opacity:0.5;" x="125.560848" xlink:href="#m2f7d64f8a6" y="87.687695"/>
     <use style="fill:#e41a1c;fill-opacity:0.5;stroke:#e41a1c;stroke-opacity:0.5;" x="127.645143" xlink:href="#m2f7d64f8a6" y="95.189806"/>
     <use style="fill:#e41a1c;fill-opacity:0.5;stroke:#e41a1c;stroke-opacity:0.5;" x="129.725021" xlink:href="#m2f7d64f8a6" y="80.63199"/>
     <use style="fill:#e41a1c;fill-opacity:0.5;stroke:#e41a1c;stroke-opacity:0.5;" x="131.785887" xlink:href="#m2f7d64f8a6" y="90.62436"/>
     <use style="fill:#e41a1c;fill-opacity:0.5;stroke:#e41a1c;stroke-opacity:0.5;" x="133.888861" xlink:href="#m2f7d64f8a6" y="82.888855"/>
     <use style="fill:#e41a1c;fill-opacity:0.5;stroke:#e41a1c;stroke-opacity:0.5;" x="136.007453" xlink:href="#m2f7d64f8a6" y="90.517558"/>
     <use style="fill:#e41a1c;fill-opacity:0.5;stroke:#e41a1c;stroke-opacity:0.5;" x="138.061889" xlink:href="#m2f7d64f8a6" y="84.182612"/>
     <use style="fill:#e41a1c;fill-opacity:0.5;stroke:#e41a1c;stroke-opacity:0.5;" x="140.161051" xlink:href="#m2f7d64f8a6" y="81.112578"/>
     <use style="fill:#e41a1c;fill-opacity:0.5;stroke:#e41a1c;stroke-opacity:0.5;" x="142.228589" xlink:href="#m2f7d64f8a6" y="47.321996"/>
     <use style="fill:#e41a1c;fill-opacity:0.5;stroke:#e41a1c;stroke-opacity:0.5;" x="144.301794" xlink:href="#m2f7d64f8a6" y="84.159688"/>
     <use style="fill:#e41a1c;fill-opacity:0.5;stroke:#e41a1c;stroke-opacity:0.5;" x="146.404768" xlink:href="#m2f7d64f8a6" y="82.328425"/>
     <use style="fill:#e41a1c;fill-opacity:0.5;stroke:#e41a1c;stroke-opacity:0.5;" x="148.476737" xlink:href="#m2f7d64f8a6" y="82.332167"/>
     <use style="fill:#e41a1c;fill-opacity:0.5;stroke:#e41a1c;stroke-opacity:0.5;" x="150.543781" xlink:href="#m2f7d64f8a6" y="69.400162"/>
     <use style="fill:#e41a1c;fill-opacity:0.5;stroke:#e41a1c;stroke-opacity:0.5;" x="152.653737" xlink:href="#m2f7d64f8a6" y="80.291629"/>
     <use style="fill:#e41a1c;fill-opacity:0.5;stroke:#e41a1c;stroke-opacity:0.5;" x="154.723327" xlink:href="#m2f7d64f8a6" y="90.199912"/>
     <use style="fill:#e41a1c;fill-opacity:0.5;stroke:#e41a1c;stroke-opacity:0.5;" x="156.798407" xlink:href="#m2f7d64f8a6" y="64.817745"/>
     <use style="fill:#e41a1c;fill-opacity:0.5;stroke:#e41a1c;stroke-opacity:0.5;" x="158.885538" xlink:href="#m2f7d64f8a6" y="74.031249"/>
     <use style="fill:#e41a1c;fill-opacity:0.5;stroke:#e41a1c;stroke-opacity:0.5;" x="160.965959" xlink:href="#m2f7d64f8a6" y="95.174946"/>
     <use style="fill:#e41a1c;fill-opacity:0.5;stroke:#e41a1c;stroke-opacity:0.5;" x="163.045094" xlink:href="#m2f7d64f8a6" y="83.657067"/>
     <use style="fill:#e41a1c;fill-opacity:0.5;stroke:#e41a1c;stroke-opacity:0.5;" x="165.125348" xlink:href="#m2f7d64f8a6" y="74.193531"/>
     <use style="fill:#e41a1c;fill-opacity:0.5;stroke:#e41a1c;stroke-opacity:0.5;" x="167.206938" xlink:href="#m2f7d64f8a6" y="88.444557"/>
     <use style="fill:#e41a1c;fill-opacity:0.5;stroke:#e41a1c;stroke-opacity:0.5;" x="169.288563" xlink:href="#m2f7d64f8a6" y="65.365749"/>
     <use style="fill:#e41a1c;fill-opacity:0.5;stroke:#e41a1c;stroke-opacity:0.5;" x="171.381341" xlink:href="#m2f7d64f8a6" y="80.010102"/>
     <use style="fill:#e41a1c;fill-opacity:0.5;stroke:#e41a1c;stroke-opacity:0.5;" x="173.454385" xlink:href="#m2f7d64f8a6" y="68.470199"/>
     <use style="fill:#e41a1c;fill-opacity:0.5;stroke:#e41a1c;stroke-opacity:0.5;" x="175.541528" xlink:href="#m2f7d64f8a6" y="69.237418"/>
     <use style="fill:#e41a1c;fill-opacity:0.5;stroke:#e41a1c;stroke-opacity:0.5;" x="177.623512" xlink:href="#m2f7d64f8a6" y="74.023394"/>
     <use style="fill:#e41a1c;fill-opacity:0.5;stroke:#e41a1c;stroke-opacity:0.5;" x="179.704369" xlink:href="#m2f7d64f8a6" y="62.845859"/>
     <use style="fill:#e41a1c;fill-opacity:0.5;stroke:#e41a1c;stroke-opacity:0.5;" x="181.785531" xlink:href="#m2f7d64f8a6" y="76.319001"/>
     <use style="fill:#e41a1c;fill-opacity:0.5;stroke:#e41a1c;stroke-opacity:0.5;" x="183.86658" xlink:href="#m2f7d64f8a6" y="84.890059"/>
     <use style="fill:#e41a1c;fill-opacity:0.5;stroke:#e41a1c;stroke-opacity:0.5;" x="185.945836" xlink:href="#m2f7d64f8a6" y="84.251299"/>
     <use style="fill:#e41a1c;fill-opacity:0.5;stroke:#e41a1c;stroke-opacity:0.5;" x="188.027198" xlink:href="#m2f7d64f8a6" y="79.075348"/>
     <use style="fill:#e41a1c;fill-opacity:0.5;stroke:#e41a1c;stroke-opacity:0.5;" x="190.106068" xlink:href="#m2f7d64f8a6" y="87.777085"/>
     <use style="fill:#e41a1c;fill-opacity:0.5;stroke:#e41a1c;stroke-opacity:0.5;" x="192.188568" xlink:href="#m2f7d64f8a6" y="74.867517"/>
     <use style="fill:#e41a1c;fill-opacity:0.5;stroke:#e41a1c;stroke-opacity:0.5;" x="194.267731" xlink:href="#m2f7d64f8a6" y="66.6364"/>
     <use style="fill:#e41a1c;fill-opacity:0.5;stroke:#e41a1c;stroke-opacity:0.5;" x="196.350678" xlink:href="#m2f7d64f8a6" y="78.734811"/>
     <use style="fill:#e41a1c;fill-opacity:0.5;stroke:#e41a1c;stroke-opacity:0.5;" x="198.428759" xlink:href="#m2f7d64f8a6" y="82.870608"/>
     <use style="fill:#e41a1c;fill-opacity:0.5;stroke:#e41a1c;stroke-opacity:0.5;" x="200.50941" xlink:href="#m2f7d64f8a6" y="71.388403"/>
     <use style="fill:#e41a1c;fill-opacity:0.5;stroke:#e41a1c;stroke-opacity:0.5;" x="202.592933" xlink:href="#m2f7d64f8a6" y="80.359349"/>
     <use style="fill:#e41a1c;fill-opacity:0.5;stroke:#e41a1c;stroke-opacity:0.5;" x="204.671964" xlink:href="#m2f7d64f8a6" y="79.250386"/>
     <use style="fill:#e41a1c;fill-opacity:0.5;stroke:#e41a1c;stroke-opacity:0.5;" x="206.754016" xlink:href="#m2f7d64f8a6" y="81.031098"/>
     <use style="fill:#e41a1c;fill-opacity:0.5;stroke:#e41a1c;stroke-opacity:0.5;" x="208.835203" xlink:href="#m2f7d64f8a6" y="73.691692"/>
     <use style="fill:#e41a1c;fill-opacity:0.5;stroke:#e41a1c;stroke-opacity:0.5;" x="210.91607" xlink:href="#m2f7d64f8a6" y="77.560472"/>
     <use style="fill:#e41a1c;fill-opacity:0.5;stroke:#e41a1c;stroke-opacity:0.5;" x="212.995612" xlink:href="#m2f7d64f8a6" y="79.514674"/>
     <use style="fill:#e41a1c;fill-opacity:0.5;stroke:#e41a1c;stroke-opacity:0.5;" x="215.077504" xlink:href="#m2f7d64f8a6" y="78.95118"/>
     <use style="fill:#e41a1c;fill-opacity:0.5;stroke:#e41a1c;stroke-opacity:0.5;" x="217.157587" xlink:href="#m2f7d64f8a6" y="80.21064"/>
     <use style="fill:#e41a1c;fill-opacity:0.5;stroke:#e41a1c;stroke-opacity:0.5;" x="219.237993" xlink:href="#m2f7d64f8a6" y="82.384571"/>
     <use style="fill:#e41a1c;fill-opacity:0.5;stroke:#e41a1c;stroke-opacity:0.5;" x="221.318785" xlink:href="#m2f7d64f8a6" y="75.635984"/>
     <use style="fill:#e41a1c;fill-opacity:0.5;stroke:#e41a1c;stroke-opacity:0.5;" x="223.399906" xlink:href="#m2f7d64f8a6" y="75.537095"/>
     <use style="fill:#e41a1c;fill-opacity:0.5;stroke:#e41a1c;stroke-opacity:0.5;" x="225.481104" xlink:href="#m2f7d64f8a6" y="78.485993"/>
     <use style="fill:#e41a1c;fill-opacity:0.5;stroke:#e41a1c;stroke-opacity:0.5;" x="227.561894" xlink:href="#m2f7d64f8a6" y="79.056269"/>
     <use style="fill:#e41a1c;fill-opacity:0.5;stroke:#e41a1c;stroke-opacity:0.5;" x="229.642549" xlink:href="#m2f7d64f8a6" y="75.61956"/>
     <use style="fill:#e41a1c;fill-opacity:0.5;stroke:#e41a1c;stroke-opacity:0.5;" x="231.722771" xlink:href="#m2f7d64f8a6" y="76.016863"/>
     <use style="fill:#e41a1c;fill-opacity:0.5;stroke:#e41a1c;stroke-opacity:0.5;" x="233.803451" xlink:href="#m2f7d64f8a6" y="78.555148"/>
     <use style="fill:#e41a1c;fill-opacity:0.5;stroke:#e41a1c;stroke-opacity:0.5;" x="235.884539" xlink:href="#m2f7d64f8a6" y="76.281437"/>
     <use style="fill:#e41a1c;fill-opacity:0.5;stroke:#e41a1c;stroke-opacity:0.5;" x="237.965274" xlink:href="#m2f7d64f8a6" y="79.574696"/>
     <use style="fill:#e41a1c;fill-opacity:0.5;stroke:#e41a1c;stroke-opacity:0.5;" x="240.046241" xlink:href="#m2f7d64f8a6" y="77.270369"/>
     <use style="fill:#e41a1c;fill-opacity:0.5;stroke:#e41a1c;stroke-opacity:0.5;" x="242.127008" xlink:href="#m2f7d64f8a6" y="79.581323"/>
     <use style="fill:#e41a1c;fill-opacity:0.5;stroke:#e41a1c;stroke-opacity:0.5;" x="244.207442" xlink:href="#m2f7d64f8a6" y="78.062651"/>
     <use style="fill:#e41a1c;fill-opacity:0.5;stroke:#e41a1c;stroke-opacity:0.5;" x="246.288427" xlink:href="#m2f7d64f8a6" y="78.524894"/>
     <use style="fill:#e41a1c;fill-opacity:0.5;stroke:#e41a1c;stroke-opacity:0.5;" x="248.369155" xlink:href="#m2f7d64f8a6" y="78.491837"/>
     <use style="fill:#e41a1c;fill-opacity:0.5;stroke:#e41a1c;stroke-opacity:0.5;" x="250.449643" xlink:href="#m2f7d64f8a6" y="78.289744"/>
     <use style="fill:#e41a1c;fill-opacity:0.5;stroke:#e41a1c;stroke-opacity:0.5;" x="252.530298" xlink:href="#m2f7d64f8a6" y="77.967388"/>
     <use style="fill:#e41a1c;fill-opacity:0.5;stroke:#e41a1c;stroke-opacity:0.5;" x="254.6113" xlink:href="#m2f7d64f8a6" y="77.417955"/>
     <use style="fill:#e41a1c;fill-opacity:0.5;stroke:#e41a1c;stroke-opacity:0.5;" x="256.691957" xlink:href="#m2f7d64f8a6" y="77.268572"/>
     <use style="fill:#e41a1c;fill-opacity:0.5;stroke:#e41a1c;stroke-opacity:0.5;" x="258.772568" xlink:href="#m2f7d64f8a6" y="78.311392"/>
     <use style="fill:#e41a1c;fill-opacity:0.5;stroke:#e41a1c;stroke-opacity:0.5;" x="260.853421" xlink:href="#m2f7d64f8a6" y="77.592564"/>
     <use style="fill:#e41a1c;fill-opacity:0.5;stroke:#e41a1c;stroke-opacity:0.5;" x="262.934205" xlink:href="#m2f7d64f8a6" y="77.818447"/>
    </g>
   </g>
   <g id="patch_3">
    <path d="M 46.64375 170.628  L 46.64375 7.2  " style="fill:none;"/>
   </g>
   <g id="patch_4">
    <path d="M 273.23375 170.628  L 273.23375 7.2  " style="fill:none;"/>
   </g>
   <g id="patch_5">
    <path d="M 46.64375 170.628  L 273.23375 170.628  " style="fill:none;"/>
   </g>
   <g id="patch_6">
    <path d="M 46.64375 7.2  L 273.23375 7.2  " style="fill:none;"/>
   </g>
  </g>
 </g>
 <defs>
  <clipPath id="p1e7a03c85d">
   <rect height="163.428" width="226.59" x="46.64375" y="7.2"/>
  </clipPath>
 </defs>
</svg>