<svg xmlns="http://www.w3.org/2000/svg" xmlns:xlink="http://www.w3.org/1999/xlink" version="1.1" viewBox="0 0 360 216" viewport="0 0 400px 240px">
 <defs>
  <style type="text/css">
*{stroke-linecap:butt;stroke-linejoin:round;}
  </style>
 </defs>
 <g id="figure_1">
  <g id="patch_1">
   <path d="M 0 216  L 360 216  L 360 0  L 0 0  z " style="fill:#ffffff;"/>
  </g>
  <g id="axes_1">
   <g id="patch_2">
    <path d="M 45 192.24  L 268.2 192.24  L 268.2 25.92  L 45 25.92  z " style="fill:#c0c0c0;"/>
   </g>
   <g id="matplotlib.axis_1">
    <g id="xtick_1">
     <g id="line2d_1">
      <defs>
       <path d="M 0 0  L 0 3.5  " id="m8bf29fac41" style="stroke:#000000;stroke-width:0.8;"/>
      </defs>
      <g>
       <use style="stroke:#000000;stroke-width:0.8;" x="55.145455" xlink:href="#m8bf29fac41" y="192.24"/>
      </g>
     </g>
     <g id="text_1">
      <!-- 0 -->
      <defs>
       <path d="M 31.78125 66.40625  Q 24.171875 66.40625 20.328125 58.90625  Q 16.5 51.421875 16.5 36.375  Q 16.5 21.390625 20.328125 13.890625  Q 24.171875 6.390625 31.78125 6.390625  Q 39.453125 6.390625 43.28125 13.890625  Q 47.125 21.390625 47.125 36.375  Q 47.125 51.421875 43.28125 58.90625  Q 39.453125 66.40625 31.78125 66.40625  z M 31.78125 74.21875  Q 44.046875 74.21875 50.515625 64.515625  Q 56.984375 54.828125 56.984375 36.375  Q 56.984375 17.96875 50.515625 8.265625  Q 44.046875 -1.421875 31.78125 -1.421875  Q 19.53125 -1.421875 13.0625 8.265625  Q 6.59375 17.96875 6.59375 36.375  Q 6.59375 54.828125 13.0625 64.515625  Q 19.53125 74.21875 31.78125 74.21875  z " id="DejaVuSans-30"/>
      </defs>
      <g transform="translate(51.964205 206.838437)scale(0.1 -0.1)">
       <use xlink:href="#DejaVuSans-30"/>
      </g>
     </g>
    </g>
    <g id="xtick_2">
     <g id="line2d_2">
      <g>
       <use style="stroke:#000000;stroke-width:0.8;" x="105.872727" xlink:href="#m8bf29fac41" y="192.24"/>
      </g>
     </g>
     <g id="text_2">
      <!-- 1 -->
      <defs>
       <path d="M 12.40625 8.296875  L 28.515625 8.296875  L 28.515625 63.921875  L 10.984375 60.40625  L 10.984375 69.390625  L 28.421875 72.90625  L 38.28125 72.90625  L 38.28125 8.296875  L 54.390625 8.296875  L 54.390625 0  L 12.40625 0  z " id="DejaVuSans-31"/>
      </defs>
      <g transform="translate(102.691477 206.838437)scale(0.1 -0.1)">
       <use xlink:href="#DejaVuSans-31"/>
      </g>
     </g>
    </g>
    <g id="xtick_3">
     <g id="line2d_3">
      <g>
       <use style="stroke:#000000;stroke-width:0.8;" x="156.6" xlink:href="#m8bf29fac41" y="192.24"/>
      </g>
     </g>
     <g id="text_3">
      <!-- 2 -->
      <defs>
       <path d="M 19.1875 8.296875  L 53.609375 8.296875  L 53.609375 0  L 7.328125 0  L 7.328125 8.296875  Q 12.9375 14.109375 22.625 23.890625  Q 32.328125 33.6875 34.8125 36.53125  Q 39.546875 41.84375 41.421875 45.53125  Q 43.3125 49.21875 43.3125 52.78125  Q 43.3125 58.59375 39.234375 62.25  Q 35.15625 65.921875 28.609375 65.921875  Q 23.96875 65.921875 18.8125 64.3125  Q 13.671875 62.703125 7.8125 59.421875  L 7.8125 69.390625  Q 13.765625 71.78125 18.9375 73  Q 24.125 74.21875 28.421875 74.21875  Q 39.75 74.21875 46.484375 68.546875  Q 53.21875 62.890625 53.21875 53.421875  Q 53.21875 48.921875 51.53125 44.890625  Q 49.859375 40.875 45.40625 35.40625  Q 44.1875 33.984375 37.640625 27.21875  Q 31.109375 20.453125 19.1875 8.296875  z " id="DejaVuSans-32"/>
      </defs>
      <g transform="translate(153.41875 206.838437)scale(0.1 -0.1)">
       <use xlink:href="#DejaVuSans-32"/>
      </g>
     </g>
    </g>
    <g id="xtick_4">
     <g id="line2d_4">
      <g>
       <use style="stroke:#000000;stroke-width:0.8;" x="207.327273" xlink:href="#m8bf29fac41" y="192.24"/>
      </g>
     </g>
     <g id="text_4">
      <!-- 3 -->
      <defs>
       <path d="M 40.578125 39.3125  Q 47.65625 37.796875 51.625 33  Q 55.609375 28.21875 55.609375 21.1875  Q 55.609375 10.40625 48.1875 4.484375  Q 40.765625 -1.421875 27.09375 -1.421875  Q 22.515625 -1.421875 17.65625 -0.515625  Q 12.796875 0.390625 7.625 2.203125  L 7.625 11.71875  Q 11.71875 9.328125 16.59375 8.109375  Q 21.484375 6.890625 26.8125 6.890625  Q 36.078125 6.890625 40.9375 10.546875  Q 45.796875 14.203125 45.796875 21.1875  Q 45.796875 27.640625 41.28125 31.265625  Q 36.765625 34.90625 28.71875 34.90625  L 20.21875 34.90625  L 20.21875 43.015625  L 29.109375 43.015625  Q 36.375 43.015625 40.234375 45.921875  Q 44.09375 48.828125 44.09375 54.296875  Q 44.09375 59.90625 40.109375 62.90625  Q 36.140625 65.921875 28.71875 65.921875  Q 24.65625 65.921875 20.015625 65.03125  Q 15.375 64.15625 9.8125 62.3125  L 9.8125 71.09375  Q 15.4375 72.65625 20.34375 73.4375  Q 25.25 74.21875 29.59375 74.21875  Q 40.828125 74.21875 47.359375 69.109375  Q 53.90625 64.015625 53.90625 55.328125  Q 53.90625 49.265625 50.4375 45.09375  Q 46.96875 40.921875 40.578125 39.3125  z " id="DejaVuSans-33"/>
      </defs>
      <g transform="translate(204.146023 206.838437)scale(0.1 -0.1)">
       <use xlink:href="#DejaVuSans-33"/>
      </g>
     </g>
    </g>
    <g id="xtick_5">
     <g id="line2d_5">
      <g>
       <use style="stroke:#000000;stroke-width:0.8;" x="258.054545" xlink:href="#m8bf29fac41" y="192.24"/>
      </g>
     </g>
     <g id="text_5">
      <!-- 4 -->
      <defs>
       <path d="M 37.796875 64.3125  L 12.890625 25.390625  L 37.796875 25.390625  z M 35.203125 72.90625  L 47.609375 72.90625  L 47.609375 25.390625  L 58.015625 25.390625  L 58.015625 17.1875  L 47.609375 17.1875  L 47.609375 0  L 37.796875 0  L 37.796875 17.1875  L 4.890625 17.1875  L 4.890625 26.703125  z " id="DejaVuSans-34"/>
      </defs>
      <g transform="translate(254.873295 206.838437)scale(0.1 -0.1)">
       <use xlink:href="#DejaVuSans-34"/>
      </g>
     </g>
    </g>
   </g>
   <g id="matplotlib.axis_2">
    <g id="ytick_1">
     <g id="line2d_6">
      <path clip-path="url(#p04c97b458c)" d="M 45 182.573828  L 268.2 182.573828  " style="fill:none;stroke:#000000;stroke-linecap:square;stroke-width:0.8;"/>
     </g>
     <g id="line2d_7">
      <defs>
       <path d="M 0 0  L -3.5 0  " id="m648a8f02b1" style="stroke:#000000;stroke-width:0.8;"/>
      </defs>
      <g>
       <use style="stroke:#000000;stroke-width:0.8;" x="45" xlink:href="#m648a8f02b1" y="182.573828"/>
      </g>
     </g>
     <g id="text_6">
      <!-- &#8722;0.2 -->
      <defs>
       <path d="M 10.59375 35.5  L 73.1875 35.5  L 73.1875 27.203125  L 10.59375 27.203125  z " id="DejaVuSans-2212"/>
       <path d="M 10.6875 12.40625  L 21 12.40625  L 21 0  L 10.6875 0  z " id="DejaVuSans-2e"/>
      </defs>
      <g transform="translate(13.717187 186.373047)scale(0.1 -0.1)">
       <use xlink:href="#DejaVuSans-2212"/>
       <use x="83.789062" xlink:href="#DejaVuSans-30"/>
       <use x="147.412109" xlink:href="#DejaVuSans-2e"/>
       <use x="179.199219" xlink:href="#DejaVuSans-32"/>
      </g>
     </g>
    </g>
    <g id="ytick_2">
     <g id="line2d_8">
      <path clip-path="url(#p04c97b458c)" d="M 45 157.724857  L 268.2 157.724857  " style="fill:none;stroke:#000000;stroke-linecap:square;stroke-width:0.8;"/>
     </g>
     <g id="line2d_9">
      <g>
       <use style="stroke:#000000;stroke-width:0.8;" x="45" xlink:href="#m648a8f02b1" y="157.724857"/>
      </g>
     </g>
     <g id="text_7">
      <!-- 0.0 -->
      <g transform="translate(22.096875 161.524075)scale(0.1 -0.1)">
       <use xlink:href="#DejaVuSans-30"/>
       <use x="63.623047" xlink:href="#DejaVuSans-2e"/>
       <use x="95.410156" xlink:href="#DejaVuSans-30"/>
      </g>
     </g>
    </g>
    <g id="ytick_3">
     <g id="line2d_10">
      <path clip-path="url(#p04c97b458c)" d="M 45 132.875885  L 268.2 132.875885  " style="fill:none;stroke:#000000;stroke-linecap:square;stroke-width:0.8;"/>
     </g>
     <g id="line2d_11">
      <g>
       <use style="stroke:#000000;stroke-width:0.8;" x="45" xlink:href="#m648a8f02b1" y="132.875885"/>
      </g>
     </g>
     <g id="text_8">
      <!-- 0.2 -->
      <g transform="translate(22.096875 136.675104)scale(0.1 -0.1)">
       <use xlink:href="#DejaVuSans-30"/>
       <use x="63.623047" xlink:href="#DejaVuSans-2e"/>
       <use x="95.410156" xlink:href="#DejaVuSans-32"/>
      </g>
     </g>
    </g>
    <g id="ytick_4">
     <g id="line2d_12">
      <path clip-path="url(#p04c97b458c)" d="M 45 108.026914  L 268.2 108.026914  " style="fill:none;stroke:#000000;stroke-linecap:square;stroke-width:0.8;"/>
     </g>
     <g id="line2d_13">
      <g>
       <use style="stroke:#000000;stroke-width:0.8;" x="45" xlink:href="#m648a8f02b1" y="108.026914"/>
      </g>
     </g>
     <g id="text_9">
      <!-- 0.4 -->
      <g transform="translate(22.096875 111.826133)scale(0.1 -0.1)">
       <use xlink:href="#DejaVuSans-30"/>
       <use x="63.623047" xlink:href="#DejaVuSans-2e"/>
       <use x="95.410156" xlink:href="#DejaVuSans-34"/>
      </g>
     </g>
    </g>
    <g id="ytick_5">
     <g id="line2d_14">
      <path clip-path="url(#p04c97b458c)" d="M 45 83.177943  L 268.2 83.177943  " style="fill:none;stroke:#000000;stroke-linecap:square;stroke-width:0.8;"/>
     </g>
     <g id="line2d_15">
      <g>
       <use style="stroke:#000000;stroke-width:0.8;" x="45" xlink:href="#m648a8f02b1" y="83.177943"/>
      </g>
     </g>
     <g id="text_10">
      <!-- 0.6 -->
      <defs>
       <path d="M 33.015625 40.375  Q 26.375 40.375 22.484375 35.828125  Q 18.609375 31.296875 18.609375 23.390625  Q 18.609375 15.53125 22.484375 10.953125  Q 26.375 6.390625 33.015625 6.390625  Q 39.65625 6.390625 43.53125 10.953125  Q 47.40625 15.53125 47.40625 23.390625  Q 47.40625 31.296875 43.53125 35.828125  Q 39.65625 40.375 33.015625 40.375  z M 52.59375 71.296875  L 52.59375 62.3125  Q 48.875 64.0625 45.09375 64.984375  Q 41.3125 65.921875 37.59375 65.921875  Q 27.828125 65.921875 22.671875 59.328125  Q 17.53125 52.734375 16.796875 39.40625  Q 19.671875 43.65625 24.015625 45.921875  Q 28.375 48.1875 33.59375 48.1875  Q 44.578125 48.1875 50.953125 41.515625  Q 57.328125 34.859375 57.328125 23.390625  Q 57.328125 12.15625 50.6875 5.359375  Q 44.046875 -1.421875 33.015625 -1.421875  Q 20.359375 -1.421875 13.671875 8.265625  Q 6.984375 17.96875 6.984375 36.375  Q 6.984375 53.65625 15.1875 63.9375  Q 23.390625 74.21875 37.203125 74.21875  Q 40.921875 74.21875 44.703125 73.484375  Q 48.484375 72.75 52.59375 71.296875  z " id="DejaVuSans-36"/>
      </defs>
      <g transform="translate(22.096875 86.977161)scale(0.1 -0.1)">
       <use xlink:href="#DejaVuSans-30"/>
       <use x="63.623047" xlink:href="#DejaVuSans-2e"/>
       <use x="95.410156" xlink:href="#DejaVuSans-36"/>
      </g>
     </g>
    </g>
    <g id="ytick_6">
     <g id="line2d_16">
      <path clip-path="url(#p04c97b458c)" d="M 45 58.328971  L 268.2 58.328971  " style="fill:none;stroke:#000000;stroke-linecap:square;stroke-width:0.8;"/>
     </g>
     <g id="line2d_17">
      <g>
       <use style="stroke:#000000;stroke-width:0.8;" x="45" xlink:href="#m648a8f02b1" y="58.328971"/>
      </g>
     </g>
     <g id="text_11">
      <!-- 0.8 -->
      <defs>
       <path d="M 31.78125 34.625  Q 24.75 34.625 20.71875 30.859375  Q 16.703125 27.09375 16.703125 20.515625  Q 16.703125 13.921875 20.71875 10.15625  Q 24.75 6.390625 31.78125 6.390625  Q 38.8125 6.390625 42.859375 10.171875  Q 46.921875 13.96875 46.921875 20.515625  Q 46.921875 27.09375 42.890625 30.859375  Q 38.875 34.625 31.78125 34.625  z M 21.921875 38.8125  Q 15.578125 40.375 12.03125 44.71875  Q 8.5 49.078125 8.5 55.328125  Q 8.5 64.0625 14.71875 69.140625  Q 20.953125 74.21875 31.78125 74.21875  Q 42.671875 74.21875 48.875 69.140625  Q 55.078125 64.0625 55.078125 55.328125  Q 55.078125 49.078125 51.53125 44.71875  Q 48 40.375 41.703125 38.8125  Q 48.828125 37.15625 52.796875 32.3125  Q 56.78125 27.484375 56.78125 20.515625  Q 56.78125 9.90625 50.3125 4.234375  Q 43.84375 -1.421875 31.78125 -1.421875  Q 19.734375 -1.421875 13.25 4.234375  Q 6.78125 9.90625 6.78125 20.515625  Q 6.78125 27.484375 10.78125 32.3125  Q 14.796875 37.15625 21.921875 38.8125  z M 18.3125 54.390625  Q 18.3125 48.734375 21.84375 45.5625  Q 25.390625 42.390625 31.78125 42.390625  Q 38.140625 42.390625 41.71875 45.5625  Q 45.3125 48.734375 45.3125 54.390625  Q 45.3125 60.0625 41.71875 63.234375  Q 38.140625 66.40625 31.78125 66.40625  Q 25.390625 66.40625 21.84375 63.234375  Q 18.3125 60.0625 18.3125 54.390625  z " id="DejaVuSans-38"/>
      </defs>
      <g transform="translate(22.096875 62.12819)scale(0.1 -0.1)">
       <use xlink:href="#DejaVuSans-30"/>
       <use x="63.623047" xlink:href="#DejaVuSans-2e"/>
       <use x="95.410156" xlink:href="#DejaVuSans-38"/>
      </g>
     </g>
    </g>
    <g id="ytick_7">
     <g id="line2d_18">
      <path clip-path="url(#p04c97b458c)" d="M 45 33.48  L 268.2 33.48  " style="fill:none;stroke:#000000;stroke-linecap:square;stroke-width:0.8;"/>
     </g>
     <g id="line2d_19">
      <g>
       <use style="stroke:#000000;stroke-width:0.8;" x="45" xlink:href="#m648a8f02b1" y="33.48"/>
      </g>
     </g>
     <g id="text_12">
      <!-- 1.0 -->
      <g transform="translate(22.096875 37.279219)scale(0.1 -0.1)">
       <use xlink:href="#DejaVuSans-31"/>
       <use x="63.623047" xlink:href="#DejaVuSans-2e"/>
       <use x="95.410156" xlink:href="#DejaVuSans-30"/>
      </g>
     </g>
    </g>
   </g>
   <g id="line2d_20">
    <path clip-path="url(#p04c97b458c)" d="M 55.145455 33.48  L 57.195041 33.813375  L 59.244628 34.810272  L 61.294215 36.461068  L 63.343802 38.749854  L 65.393388 41.654609  L 67.442975 45.147459  L 69.492562 49.194993  L 71.542149 53.758645  L 73.591736 58.795135  L 75.641322 64.256963  L 77.690909 70.092944  L 79.740496 76.24879  L 81.790083 82.66772  L 83.839669 89.291093  L 85.889256 96.059067  L 87.938843 102.911256  L 89.98843 109.787396  L 92.038017 116.628001  L 94.087603 123.375004  L 96.13719 129.972373  L 98.186777 136.366705  L 100.236364 142.507774  L 102.28595 148.34904  L 104.335537 153.848109  L 106.385124 158.967135  L 108.434711 163.673171  L 110.484298 167.938446  L 112.533884 171.740587  L 114.583471 175.062769  L 116.633058 177.893799  L 118.682645 180.228124  L 120.732231 182.065783  L 122.781818 183.412283  L 124.831405 184.278413  L 126.880992 184.68  L 128.930579 184.637606  L 130.980165 184.176172  L 133.029752 183.324612  L 135.079339 182.115374  L 137.128926 180.583957  L 139.178512 178.768402  L 141.228099 176.708766  L 143.277686 174.446572  L 145.327273 172.024262  L 147.37686 169.48464  L 149.426446 166.87033  L 151.476033 164.223245  L 153.52562 161.584071  L 155.575207 158.99179  L 157.624793 156.483223  L 159.67438 154.092617  L 161.723967 151.851278  L 163.773554 149.787242  L 165.82314 147.925007  L 167.872727 146.285305  L 169.922314 144.884944  L 171.971901 143.736692  L 174.021488 142.84923  L 176.071074 142.227149  L 178.120661 141.871011  L 180.170248 141.777463  L 182.219835 141.939393  L 184.269421 142.346145  L 186.319008 142.983769  L 188.368595 143.835314  L 190.418182 144.881157  L 192.467769 146.099356  L 194.517355 147.466033  L 196.566942 148.955772  L 198.616529 150.54203  L 200.666116 152.197551  L 202.715702 153.894786  L 204.765289 155.606305  L 206.814876 157.305194  L 208.864463 158.965442  L 210.91405 160.562301  L 212.963636 162.07262  L 215.013223 163.475152  L 217.06281 164.750824  L 219.112397 165.882968  L 221.161983 166.85751  L 223.21157 167.663127  L 225.261157 168.291348  L 227.310744 168.736617  L 229.360331 168.99631  L 231.409917 169.070711  L 233.459504 168.96294  L 235.509091 168.678849  L 237.558678 168.226868  L 239.608264 167.617828  L 241.657851 166.86474  L 243.707438 165.982559  L 245.757025 164.987908  L 247.806612 163.898798  L 249.856198 162.734322  L 251.905785 161.514341  L 253.955372 160.259168  L 256.004959 158.98925  L 258.054545 157.724847  " style="fill:none;stroke:#000080;stroke-linecap:square;"/>
   </g>
   <g id="line2d_21">
    <path clip-path="url(#p04c97b458c)" d="M 55.145455 95.602428  L 57.195041 95.769116  L 59.244628 96.267564  L 61.294215 97.092962  L 63.343802 98.237355  L 65.393388 99.689733  L 67.442975 101.436158  L 69.492562 103.459925  L 71.542149 105.741751  L 73.591736 108.259996  L 75.641322 110.99091  L 77.690909 113.9089  L 79.740496 116.986824  L 81.790083 120.196288  L 83.839669 123.507975  L 85.889256 126.891962  L 87.938843 130.318056  L 89.98843 133.756127  L 92.038017 137.176429  L 94.087603 140.54993  L 96.13719 143.848615  L 98.186777 147.045781  L 100.236364 150.116315  L 102.28595 153.036948  L 104.335537 155.786483  L 106.385124 158.345996  L 108.434711 160.699014  L 110.484298 162.831651  L 112.533884 164.732722  L 114.583471 166.393813  L 116.633058 167.809328  L 118.682645 168.97649  L 120.732231 169.89532  L 122.781818 170.56857  L 124.831405 171.001635  L 126.880992 171.202428  L 128.930579 171.181232  L 130.980165 170.950514  L 133.029752 170.524734  L 135.079339 169.920115  L 137.128926 169.154407  L 139.178512 168.246629  L 141.228099 167.216811  L 143.277686 166.085714  L 145.327273 164.874559  L 147.37686 163.604748  L 149.426446 162.297593  L 151.476033 160.974051  L 153.52562 159.654464  L 155.575207 158.358323  L 157.624793 157.10404  L 159.67438 155.908737  L 161.723967 154.788067  L 163.773554 153.756049  L 165.82314 152.824932  L 167.872727 152.005081  L 169.922314 151.3049  L 171.971901 150.730774  L 174.021488 150.287043  L 176.071074 149.976003  L 178.120661 149.797934  L 180.170248 149.75116  L 182.219835 149.832125  L 184.269421 150.035501  L 186.319008 150.354313  L 188.368595 150.780086  L 190.418182 151.303007  L 192.467769 151.912106  L 194.517355 152.595445  L 196.566942 153.340314  L 198.616529 154.133443  L 200.666116 154.961204  L 202.715702 155.809821  L 204.765289 156.665581  L 206.814876 157.515025  L 208.864463 158.345149  L 210.91405 159.143579  L 212.963636 159.898738  L 215.013223 160.600004  L 217.06281 161.237841  L 219.112397 161.803912  L 221.161983 162.291183  L 223.21157 162.693992  L 225.261157 163.008103  L 227.310744 163.230737  L 229.360331 163.360583  L 231.409917 163.397784  L 233.459504 163.343898  L 235.509091 163.201853  L 237.558678 162.975862  L 239.608264 162.671342  L 241.657851 162.294798  L 243.707438 161.853708  L 245.757025 161.356382  L 247.806612 160.811828  L 249.856198 160.229589  L 251.905785 159.619599  L 253.955372 158.992012  L 256.004959 158.357053  L 258.054545 157.724852  " style="fill:none;stroke:#ff00ff;stroke-linecap:square;"/>
   </g>
   <g id="line2d_22">
    <path clip-path="url(#p04c97b458c)" d="M 55.145455 116.309904  L 57.195041 116.42103  L 59.244628 116.753328  L 61.294215 117.303594  L 63.343802 118.066522  L 65.393388 119.034774  L 67.442975 120.199058  L 69.492562 121.548235  L 71.542149 123.069453  L 73.591736 124.748283  L 75.641322 126.568892  L 77.690909 128.514219  L 79.740496 130.566168  L 81.790083 132.705811  L 83.839669 134.913602  L 85.889256 137.169593  L 87.938843 139.453656  L 89.98843 141.745703  L 92.038017 144.025905  L 94.087603 146.274906  L 96.13719 148.474029  L 98.186777 150.605473  L 100.236364 152.652496  L 102.28595 154.599584  L 104.335537 156.432607  L 106.385124 158.13895  L 108.434711 159.707628  L 110.484298 161.129386  L 112.533884 162.396767  L 114.583471 163.504161  L 116.633058 164.447837  L 118.682645 165.225946  L 120.732231 165.838499  L 122.781818 166.287332  L 124.831405 166.576042  L 126.880992 166.709904  L 128.930579 166.695773  L 130.980165 166.541962  L 133.029752 166.258108  L 135.079339 165.855029  L 137.128926 165.344557  L 139.178512 164.739372  L 141.228099 164.052826  L 143.277686 163.298762  L 145.327273 162.491325  L 147.37686 161.644784  L 149.426446 160.773348  L 151.476033 159.890986  L 153.52562 159.011261  L 155.575207 158.147168  L 157.624793 157.310979  L 159.67438 156.51411  L 161.723967 155.766997  L 163.773554 155.078985  L 165.82314 154.45824  L 167.872727 153.911673  L 169.922314 153.444886  L 171.971901 153.062135  L 174.021488 152.766314  L 176.071074 152.558954  L 178.120661 152.440242  L 180.170248 152.409059  L 182.219835 152.463036  L 184.269421 152.59862  L 186.319008 152.811161  L 188.368595 153.095009  L 190.418182 153.443623  L 192.467769 153.84969  L 194.517355 154.305249  L 196.566942 154.801829  L 198.616529 155.330581  L 200.666116 155.882421  L 202.715702 156.448166  L 204.765289 157.018673  L 206.814876 157.584969  L 208.864463 158.138385  L 210.91405 158.670671  L 212.963636 159.174111  L 215.013223 159.641622  L 217.06281 160.066846  L 219.112397 160.444227  L 221.161983 160.769074  L 223.21157 161.037614  L 225.261157 161.247021  L 227.310744 161.395443  L 229.360331 161.482008  L 231.409917 161.506808  L 233.459504 161.470884  L 235.509091 161.376187  L 237.558678 161.225527  L 239.608264 161.022514  L 241.657851 160.771484  L 243.707438 160.477424  L 245.757025 160.145874  L 247.806612 159.782837  L 249.856198 159.394678  L 251.905785 158.988018  L 253.955372 158.569627  L 256.004959 158.146321  L 258.054545 157.724853  " style="fill:none;stroke:#ffff00;stroke-linecap:square;"/>
   </g>
   <g id="line2d_23">
    <path clip-path="url(#p04c97b458c)" d="M 55.145455 126.663642  L 57.195041 126.746986  L 59.244628 126.99621  L 61.294215 127.40891  L 63.343802 127.981106  L 65.393388 128.707295  L 67.442975 129.580507  L 69.492562 130.592391  L 71.542149 131.733304  L 73.591736 132.992426  L 75.641322 134.357883  L 77.690909 135.816879  L 79.740496 137.35584  L 81.790083 138.960572  L 83.839669 140.616416  L 85.889256 142.308409  L 87.938843 144.021456  L 89.98843 145.740492  L 92.038017 147.450643  L 94.087603 149.137393  L 96.13719 150.786736  L 98.186777 152.385319  L 100.236364 153.920586  L 102.28595 155.380902  L 104.335537 156.75567  L 106.385124 158.035426  L 108.434711 159.211935  L 110.484298 160.278254  L 112.533884 161.228789  L 114.583471 162.059335  L 116.633058 162.767092  L 118.682645 163.350673  L 120.732231 163.810088  L 122.781818 164.146713  L 124.831405 164.363246  L 126.880992 164.463642  L 128.930579 164.453044  L 130.980165 164.337685  L 133.029752 164.124795  L 135.079339 163.822486  L 137.128926 163.439632  L 139.178512 162.985743  L 141.228099 162.470834  L 143.277686 161.905286  L 145.327273 161.299708  L 147.37686 160.664802  L 149.426446 160.011225  L 151.476033 159.349454  L 153.52562 158.68966  L 155.575207 158.04159  L 157.624793 157.414448  L 159.67438 156.816797  L 161.723967 156.256462  L 163.773554 155.740453  L 165.82314 155.274894  L 167.872727 154.864969  L 169.922314 154.514878  L 171.971901 154.227816  L 174.021488 154.00595  L 176.071074 153.85043  L 178.120661 153.761395  L 180.170248 153.738008  L 182.219835 153.778491  L 184.269421 153.880179  L 186.319008 154.039585  L 188.368595 154.252471  L 190.418182 154.513932  L 192.467769 154.818481  L 194.517355 155.160151  L 196.566942 155.532586  L 198.616529 155.92915  L 200.666116 156.34303  L 202.715702 156.767339  L 204.765289 157.195219  L 206.814876 157.619941  L 208.864463 158.035003  L 210.91405 158.434218  L 212.963636 158.811797  L 215.013223 159.162431  L 217.06281 159.481349  L 219.112397 159.764384  L 221.161983 160.00802  L 223.21157 160.209424  L 225.261157 160.36648  L 227.310744 160.477797  L 229.360331 160.54272  L 231.409917 160.56132  L 233.459504 160.534377  L 235.509091 160.463355  L 237.558678 160.350359  L 239.608264 160.198099  L 241.657851 160.009828  L 243.707438 159.789282  L 245.757025 159.54062  L 247.806612 159.268342  L 249.856198 158.977223  L 251.905785 158.672228  L 253.955372 158.358435  L 256.004959 158.040955  L 258.054545 157.724854  " style="fill:none;stroke:#00ffff;stroke-linecap:square;"/>
   </g>
   <g id="line2d_24">
    <path clip-path="url(#p04c97b458c)" d="M 55.145455 132.875885  L 57.195041 132.94256  L 59.244628 133.14194  L 61.294215 133.472099  L 63.343802 133.929856  L 65.393388 134.510807  L 67.442975 135.209377  L 69.492562 136.018884  L 71.542149 136.931614  L 73.591736 137.938912  L 75.641322 139.031278  L 77.690909 140.198474  L 79.740496 141.429643  L 81.790083 142.713429  L 83.839669 144.038104  L 85.889256 145.391699  L 87.938843 146.762137  L 89.98843 148.137365  L 92.038017 149.505486  L 94.087603 150.854886  L 96.13719 152.17436  L 98.186777 153.453226  L 100.236364 154.68144  L 102.28595 155.849693  L 104.335537 156.949507  L 106.385124 157.973312  L 108.434711 158.914519  L 110.484298 159.767574  L 112.533884 160.528003  L 114.583471 161.192439  L 116.633058 161.758645  L 118.682645 162.22551  L 120.732231 162.593042  L 122.781818 162.862342  L 124.831405 163.035568  L 126.880992 163.115885  L 128.930579 163.107407  L 130.980165 163.01512  L 133.029752 162.844808  L 135.079339 162.60296  L 137.128926 162.296677  L 139.178512 161.933566  L 141.228099 161.521639  L 143.277686 161.0692  L 145.327273 160.584738  L 147.37686 160.076813  L 149.426446 159.553951  L 151.476033 159.024534  L 153.52562 158.4967  L 155.575207 157.978243  L 157.624793 157.47653  L 159.67438 156.998409  L 161.723967 156.550141  L 163.773554 156.137334  L 165.82314 155.764887  L 167.872727 155.436946  L 169.922314 155.156874  L 171.971901 154.927224  L 174.021488 154.749731  L 176.071074 154.625315  L 178.120661 154.554088  L 180.170248 154.535378  L 182.219835 154.567764  L 184.269421 154.649114  L 186.319008 154.776639  L 188.368595 154.946948  L 190.418182 155.156117  L 192.467769 155.399756  L 194.517355 155.673092  L 196.566942 155.97104  L 198.616529 156.288291  L 200.666116 156.619395  L 202.715702 156.958843  L 204.765289 157.301146  L 206.814876 157.640924  L 208.864463 157.972974  L 210.91405 158.292345  L 212.963636 158.594409  L 215.013223 158.874916  L 217.06281 159.13005  L 219.112397 159.356479  L 221.161983 159.551387  L 223.21157 159.712511  L 225.261157 159.838155  L 227.310744 159.927209  L 229.360331 159.979147  L 231.409917 159.994027  L 233.459504 159.972473  L 235.509091 159.915655  L 237.558678 159.825259  L 239.608264 159.703451  L 241.657851 159.552833  L 243.707438 159.376397  L 245.757025 159.177467  L 247.806612 158.959645  L 249.856198 158.72675  L 251.905785 158.482753  L 253.955372 158.231719  L 256.004959 157.977735  L 258.054545 157.724855  " style="fill:none;stroke:#800080;stroke-linecap:square;"/>
   </g>
   <g id="patch_3">
    <path d="M 45 192.24  L 45 25.92  " style="fill:none;stroke:#000000;stroke-linecap:square;stroke-linejoin:miter;stroke-width:0.8;"/>
   </g>
   <g id="patch_4">
    <path d="M 268.2 192.24  L 268.2 25.92  " style="fill:none;stroke:#000000;stroke-linecap:square;stroke-linejoin:miter;stroke-width:0.8;"/>
   </g>
   <g id="patch_5">
    <path d="M 45 192.24  L 268.2 192.24  " style="fill:none;stroke:#000000;stroke-linecap:square;stroke-linejoin:miter;stroke-width:0.8;"/>
   </g>
   <g id="patch_6">
    <path d="M 45 25.92  L 268.2 25.92  " style="fill:none;stroke:#000000;stroke-linecap:square;stroke-linejoin:miter;stroke-width:0.8;"/>
   </g>
   <g id="legend_1">
    <g id="patch_7">
     <path d="M 273.2 147.275312  L 315.5625 147.275312  L 315.5625 70.884687  L 273.2 70.884687  z " style="fill:#ffffff;opacity:0.8;stroke:#000000;stroke-linejoin:miter;"/>
    </g>
    <g id="line2d_25">
     <path d="M 277.2 78.983125  L 297.2 78.983125  " style="fill:none;stroke:#000080;stroke-linecap:square;"/>
    </g>
    <g id="line2d_26"/>
    <g id="text_13">
     <!-- 0 -->
     <g transform="translate(305.2 82.483125)scale(0.1 -0.1)">
      <use xlink:href="#DejaVuSans-30"/>
     </g>
    </g>
    <g id="line2d_27">
     <path d="M 277.2 93.66125  L 297.2 93.66125  " style="fill:none;stroke:#ff00ff;stroke-linecap:square;"/>
    </g>
    <g id="line2d_28"/>
    <g id="text_14">
     <!-- 1 -->
     <g transform="translate(305.2 97.16125)scale(0.1 -0.1)">
      <use xlink:href="#DejaVuSans-31"/>
     </g>
    </g>
    <g id="line2d_29">
     <path d="M 277.2 108.339375  L 297.2 108.339375  " style="fill:none;stroke:#ffff00;stroke-linecap:square;"/>
    </g>
    <g id="line2d_30"/>
    <g id="text_15">
     <!-- 2 -->
     <g transform="translate(305.2 111.839375)scale(0.1 -0.1)">
      <use xlink:href="#DejaVuSans-32"/>
     </g>
    </g>
    <g id="line2d_31">
     <path d="M 277.2 123.0175  L 297.2 123.0175  " style="fill:none;stroke:#00ffff;stroke-linecap:square;"/>
    </g>
    <g id="line2d_32"/>
    <g id="text_16">
     <!-- 3 -->
     <g transform="translate(305.2 126.5175)scale(0.1 -0.1)">
      <use xlink:href="#DejaVuSans-33"/>
     </g>
    </g>
    <g id="line2d_33">
     <path d="M 277.2 137.695625  L 297.2 137.695625  " style="fill:none;stroke:#800080;stroke-linecap:square;"/>
    </g>
    <g id="line2d_34"/>
    <g id="text_17">
     <!-- 4 -->
     <g transform="translate(305.2 141.195625)scale(0.1 -0.1)">
      <use xlink:href="#DejaVuSans-34"/>
     </g>
    </g>
   </g>
  </g>
 </g>
 <defs>
  <clipPath id="p04c97b458c">
   <rect height="166.32" width="223.2" x="45" y="25.92"/>
  </clipPath>
 </defs>
</svg>