<svg xmlns="http://www.w3.org/2000/svg" xmlns:xlink="http://www.w3.org/1999/xlink" version="1.1" viewBox="0 0 288 216" viewport="0 0 1280px 960px">
 <defs>
  <style type="text/css">
*{stroke-linecap:butt;stroke-linejoin:round;}
  </style>
 </defs>
 <g id="figure_1">
  <g id="patch_1">
   <path d="M 0 216  L 288 216  L 288 0  L 0 0  z " style="fill:#ffffff;"/>
  </g>
  <g id="axes_1">
   <g id="patch_2">
    <path d="M 54.02 170.728  L 274.68 170.728  L 274.68 13.32  L 54.02 13.32  z " style="fill:#ffffff;"/>
   </g>
   <g id="matplotlib.axis_1">
    <g id="xtick_1">
     <g id="line2d_1">
      <defs>
       <path d="M 0 0  L 0 3.5  " id="m65d96fee9b" style="stroke:#000000;stroke-width:0.8;"/>
      </defs>
      <g>
       <use style="stroke:#000000;stroke-width:0.8;" x="64.05" xlink:href="#m65d96fee9b" y="170.728"/>
      </g>
     </g>
     <g id="text_1">
      <!-- $\mathdefault{10^{1}}$ -->
      <defs>
       <path d="M 12.40625 8.296875  L 28.515625 8.296875  L 28.515625 63.921875  L 10.984375 60.40625  L 10.984375 69.390625  L 28.421875 72.90625  L 38.28125 72.90625  L 38.28125 8.296875  L 54.390625 8.296875  L 54.390625 0  L 12.40625 0  z " id="DejaVuSans-31"/>
       <path d="M 31.78125 66.40625  Q 24.171875 66.40625 20.328125 58.90625  Q 16.5 51.421875 16.5 36.375  Q 16.5 21.390625 20.328125 13.890625  Q 24.171875 6.390625 31.78125 6.390625  Q 39.453125 6.390625 43.28125 13.890625  Q 47.125 21.390625 47.125 36.375  Q 47.125 51.421875 43.28125 58.90625  Q 39.453125 66.40625 31.78125 66.40625  z M 31.78125 74.21875  Q 44.046875 74.21875 50.515625 64.515625  Q 56.984375 54.828125 56.984375 36.375  Q 56.984375 17.96875 50.515625 8.265625  Q 44.046875 -1.421875 31.78125 -1.421875  Q 19.53125 -1.421875 13.0625 8.265625  Q 6.59375 17.96875 6.59375 36.375  Q 6.59375 54.828125 13.0625 64.515625  Q 19.53125 74.21875 31.78125 74.21875  z " id="DejaVuSans-30"/>
      </defs>
      <g transform="translate(55.25 185.326437)scale(0.1 -0.1)">
       <use transform="translate(0 0.684375)" xlink:href="#DejaVuSans-31"/>
       <use transform="translate(63.623047 0.684375)" xlink:href="#DejaVuSans-30"/>
       <use transform="translate(128.203125 38.965625)scale(0.7)" xlink:href="#DejaVuSans-31"/>
      </g>
     </g>
    </g>
    <g id="xtick_2">
     <g id="line2d_2">
      <g>
       <use style="stroke:#000000;stroke-width:0.8;" x="114.2" xlink:href="#m65d96fee9b" y="170.728"/>
      </g>
     </g>
     <g id="text_2">
      <!-- $\mathdefault{10^{2}}$ -->
      <defs>
       <path d="M 19.1875 8.296875  L 53.609375 8.296875  L 53.609375 0  L 7.328125 0  L 7.328125 8.296875  Q 12.9375 14.109375 22.625 23.890625  Q 32.328125 33.6875 34.8125 36.53125  Q 39.546875 41.84375 41.421875 45.53125  Q 43.3125 49.21875 43.3125 52.78125  Q 43.3125 58.59375 39.234375 62.25  Q 35.15625 65.921875 28.609375 65.921875  Q 23.96875 65.921875 18.8125 64.3125  Q 13.671875 62.703125 7.8125 59.421875  L 7.8125 69.390625  Q 13.765625 71.78125 18.9375 73  Q 24.125 74.21875 28.421875 74.21875  Q 39.75 74.21875 46.484375 68.546875  Q 53.21875 62.890625 53.21875 53.421875  Q 53.21875 48.921875 51.53125 44.890625  Q 49.859375 40.875 45.40625 35.40625  Q 44.1875 33.984375 37.640625 27.21875  Q 31.109375 20.453125 19.1875 8.296875  z " id="DejaVuSans-32"/>
      </defs>
      <g transform="translate(105.4 185.326437)scale(0.1 -0.1)">
       <use transform="translate(0 0.765625)" xlink:href="#DejaVuSans-31"/>
       <use transform="translate(63.623047 0.765625)" xlink:href="#DejaVuSans-30"/>
       <use transform="translate(128.203125 39.046875)scale(0.7)" xlink:href="#DejaVuSans-32"/>
      </g>
     </g>
    </g>
    <g id="xtick_3">
     <g id="line2d_3">
      <g>
       <use style="stroke:#000000;stroke-width:0.8;" x="164.35" xlink:href="#m65d96fee9b" y="170.728"/>
      </g>
     </g>
     <g id="text_3">
      <!-- $\mathdefault{10^{3}}$ -->
      <defs>
       <path d="M 40.578125 39.3125  Q 47.65625 37.796875 51.625 33  Q 55.609375 28.21875 55.609375 21.1875  Q 55.609375 10.40625 48.1875 4.484375  Q 40.765625 -1.421875 27.09375 -1.421875  Q 22.515625 -1.421875 17.65625 -0.515625  Q 12.796875 0.390625 7.625 2.203125  L 7.625 11.71875  Q 11.71875 9.328125 16.59375 8.109375  Q 21.484375 6.890625 26.8125 6.890625  Q 36.078125 6.890625 40.9375 10.546875  Q 45.796875 14.203125 45.796875 21.1875  Q 45.796875 27.640625 41.28125 31.265625  Q 36.765625 34.90625 28.71875 34.90625  L 20.21875 34.90625  L 20.21875 43.015625  L 29.109375 43.015625  Q 36.375 43.015625 40.234375 45.921875  Q 44.09375 48.828125 44.09375 54.296875  Q 44.09375 59.90625 40.109375 62.90625  Q 36.140625 65.921875 28.71875 65.921875  Q 24.65625 65.921875 20.015625 65.03125  Q 15.375 64.15625 9.8125 62.3125  L 9.8125 71.09375  Q 15.4375 72.65625 20.34375 73.4375  Q 25.25 74.21875 29.59375 74.21875  Q 40.828125 74.21875 47.359375 69.109375  Q 53.90625 64.015625 53.90625 55.328125  Q 53.90625 49.265625 50.4375 45.09375  Q 46.96875 40.921875 40.578125 39.3125  z " id="DejaVuSans-33"/>
      </defs>
      <g transform="translate(155.55 185.326437)scale(0.1 -0.1)">
       <use transform="translate(0 0.765625)" xlink:href="#DejaVuSans-31"/>
       <use transform="translate(63.623047 0.765625)" xlink:href="#DejaVuSans-30"/>
       <use transform="translate(128.203125 39.046875)scale(0.7)" xlink:href="#DejaVuSans-33"/>
      </g>
     </g>
    </g>
    <g id="xtick_4">
     <g id="line2d_4">
      <g>
       <use style="stroke:#000000;stroke-width:0.8;" x="214.5" xlink:href="#m65d96fee9b" y="170.728"/>
      </g>
     </g>
     <g id="text_4">
      <!-- $\mathdefault{10^{4}}$ -->
      <defs>
       <path d="M 37.796875 64.3125  L 12.890625 25.390625  L 37.796875 25.390625  z M 35.203125 72.90625  L 47.609375 72.90625  L 47.609375 25.390625  L 58.015625 25.390625  L 58.015625 17.1875  L 47.609375 17.1875  L 47.609375 0  L 37.796875 0  L 37.796875 17.1875  L 4.890625 17.1875  L 4.890625 26.703125  z " id="DejaVuSans-34"/>
      </defs>
      <g transform="translate(205.7 185.326437)scale(0.1 -0.1)">
       <use transform="translate(0 0.684375)" xlink:href="#DejaVuSans-31"/>
       <use transform="translate(63.623047 0.684375)" xlink:href="#DejaVuSans-30"/>
       <use transform="translate(128.203125 38.965625)scale(0.7)" xlink:href="#DejaVuSans-34"/>
      </g>
     </g>
    </g>
    <g id="xtick_5">
     <g id="line2d_5">
      <g>
       <use style="stroke:#000000;stroke-width:0.8;" x="264.65" xlink:href="#m65d96fee9b" y="170.728"/>
      </g>
     </g>
     <g id="text_5">
      <!-- $\mathdefault{10^{5}}$ -->
      <defs>
       <path d="M 10.796875 72.90625  L 49.515625 72.90625  L 49.515625 64.59375  L 19.828125 64.59375  L 19.828125 46.734375  Q 21.96875 47.46875 24.109375 47.828125  Q 26.265625 48.1875 28.421875 48.1875  Q 40.625 48.1875 47.75 41.5  Q 54.890625 34.8125 54.890625 23.390625  Q 54.890625 11.625 47.5625 5.09375  Q 40.234375 -1.421875 26.90625 -1.421875  Q 22.3125 -1.421875 17.546875 -0.640625  Q 12.796875 0.140625 7.71875 1.703125  L 7.71875 11.625  Q 12.109375 9.234375 16.796875 8.0625  Q 21.484375 6.890625 26.703125 6.890625  Q 35.15625 6.890625 40.078125 11.328125  Q 45.015625 15.765625 45.015625 23.390625  Q 45.015625 31 40.078125 35.4375  Q 35.15625 39.890625 26.703125 39.890625  Q 22.75 39.890625 18.8125 39.015625  Q 14.890625 38.140625 10.796875 36.28125  z " id="DejaVuSans-35"/>
      </defs>
      <g transform="translate(255.85 185.326437)scale(0.1 -0.1)">
       <use transform="translate(0 0.684375)" xlink:href="#DejaVuSans-31"/>
       <use transform="translate(63.623047 0.684375)" xlink:href="#DejaVuSans-30"/>
       <use transform="translate(128.203125 38.965625)scale(0.7)" xlink:href="#DejaVuSans-35"/>
      </g>
     </g>
    </g>
    <g id="xtick_6">
     <g id="line2d_6">
      <defs>
       <path d="M 0 0  L 0 2  " id="m23b1165d4b" style="stroke:#000000;stroke-width:0.6;"/>
      </defs>
      <g>
       <use style="stroke:#000000;stroke-width:0.6;" x="56.281667" xlink:href="#m23b1165d4b" y="170.728"/>
      </g>
     </g>
    </g>
    <g id="xtick_7">
     <g id="line2d_7">
      <g>
       <use style="stroke:#000000;stroke-width:0.6;" x="59.189963" xlink:href="#m23b1165d4b" y="170.728"/>
      </g>
     </g>
    </g>
    <g id="xtick_8">
     <g id="line2d_8">
      <g>
       <use style="stroke:#000000;stroke-width:0.6;" x="61.755262" xlink:href="#m23b1165d4b" y="170.728"/>
      </g>
     </g>
    </g>
    <g id="xtick_9">
     <g id="line2d_9">
      <g>
       <use style="stroke:#000000;stroke-width:0.6;" x="79.146654" xlink:href="#m23b1165d4b" y="170.728"/>
      </g>
     </g>
    </g>
    <g id="xtick_10">
     <g id="line2d_10">
      <g>
       <use style="stroke:#000000;stroke-width:0.6;" x="87.977631" xlink:href="#m23b1165d4b" y="170.728"/>
      </g>
     </g>
    </g>
    <g id="xtick_11">
     <g id="line2d_11">
      <g>
       <use style="stroke:#000000;stroke-width:0.6;" x="94.243309" xlink:href="#m23b1165d4b" y="170.728"/>
      </g>
     </g>
    </g>
    <g id="xtick_12">
     <g id="line2d_12">
      <g>
       <use style="stroke:#000000;stroke-width:0.6;" x="99.103346" xlink:href="#m23b1165d4b" y="170.728"/>
      </g>
     </g>
    </g>
    <g id="xtick_13">
     <g id="line2d_13">
      <g>
       <use style="stroke:#000000;stroke-width:0.6;" x="103.074285" xlink:href="#m23b1165d4b" y="170.728"/>
      </g>
     </g>
    </g>
    <g id="xtick_14">
     <g id="line2d_14">
      <g>
       <use style="stroke:#000000;stroke-width:0.6;" x="106.431667" xlink:href="#m23b1165d4b" y="170.728"/>
      </g>
     </g>
    </g>
    <g id="xtick_15">
     <g id="line2d_15">
      <g>
       <use style="stroke:#000000;stroke-width:0.6;" x="109.339963" xlink:href="#m23b1165d4b" y="170.728"/>
      </g>
     </g>
    </g>
    <g id="xtick_16">
     <g id="line2d_16">
      <g>
       <use style="stroke:#000000;stroke-width:0.6;" x="111.905262" xlink:href="#m23b1165d4b" y="170.728"/>
      </g>
     </g>
    </g>
    <g id="xtick_17">
     <g id="line2d_17">
      <g>
       <use style="stroke:#000000;stroke-width:0.6;" x="129.296654" xlink:href="#m23b1165d4b" y="170.728"/>
      </g>
     </g>
    </g>
    <g id="xtick_18">
     <g id="line2d_18">
      <g>
       <use style="stroke:#000000;stroke-width:0.6;" x="138.127631" xlink:href="#m23b1165d4b" y="170.728"/>
      </g>
     </g>
    </g>
    <g id="xtick_19">
     <g id="line2d_19">
      <g>
       <use style="stroke:#000000;stroke-width:0.6;" x="144.393309" xlink:href="#m23b1165d4b" y="170.728"/>
      </g>
     </g>
    </g>
    <g id="xtick_20">
     <g id="line2d_20">
      <g>
       <use style="stroke:#000000;stroke-width:0.6;" x="149.253346" xlink:href="#m23b1165d4b" y="170.728"/>
      </g>
     </g>
    </g>
    <g id="xtick_21">
     <g id="line2d_21">
      <g>
       <use style="stroke:#000000;stroke-width:0.6;" x="153.224285" xlink:href="#m23b1165d4b" y="170.728"/>
      </g>
     </g>
    </g>
    <g id="xtick_22">
     <g id="line2d_22">
      <g>
       <use style="stroke:#000000;stroke-width:0.6;" x="156.581667" xlink:href="#m23b1165d4b" y="170.728"/>
      </g>
     </g>
    </g>
    <g id="xtick_23">
     <g id="line2d_23">
      <g>
       <use style="stroke:#000000;stroke-width:0.6;" x="159.489963" xlink:href="#m23b1165d4b" y="170.728"/>
      </g>
     </g>
    </g>
    <g id="xtick_24">
     <g id="line2d_24">
      <g>
       <use style="stroke:#000000;stroke-width:0.6;" x="162.055262" xlink:href="#m23b1165d4b" y="170.728"/>
      </g>
     </g>
    </g>
    <g id="xtick_25">
     <g id="line2d_25">
      <g>
       <use style="stroke:#000000;stroke-width:0.6;" x="179.446654" xlink:href="#m23b1165d4b" y="170.728"/>
      </g>
     </g>
    </g>
    <g id="xtick_26">
     <g id="line2d_26">
      <g>
       <use style="stroke:#000000;stroke-width:0.6;" x="188.277631" xlink:href="#m23b1165d4b" y="170.728"/>
      </g>
     </g>
    </g>
    <g id="xtick_27">
     <g id="line2d_27">
      <g>
       <use style="stroke:#000000;stroke-width:0.6;" x="194.543309" xlink:href="#m23b1165d4b" y="170.728"/>
      </g>
     </g>
    </g>
    <g id="xtick_28">
     <g id="line2d_28">
      <g>
       <use style="stroke:#000000;stroke-width:0.6;" x="199.403346" xlink:href="#m23b1165d4b" y="170.728"/>
      </g>
     </g>
    </g>
    <g id="xtick_29">
     <g id="line2d_29">
      <g>
       <use style="stroke:#000000;stroke-width:0.6;" x="203.374285" xlink:href="#m23b1165d4b" y="170.728"/>
      </g>
     </g>
    </g>
    <g id="xtick_30">
     <g id="line2d_30">
      <g>
       <use style="stroke:#000000;stroke-width:0.6;" x="206.731667" xlink:href="#m23b1165d4b" y="170.728"/>
      </g>
     </g>
    </g>
    <g id="xtick_31">
     <g id="line2d_31">
      <g>
       <use style="stroke:#000000;stroke-width:0.6;" x="209.639963" xlink:href="#m23b1165d4b" y="170.728"/>
      </g>
     </g>
    </g>
    <g id="xtick_32">
     <g id="line2d_32">
      <g>
       <use style="stroke:#000000;stroke-width:0.6;" x="212.205262" xlink:href="#m23b1165d4b" y="170.728"/>
      </g>
     </g>
    </g>
    <g id="xtick_33">
     <g id="line2d_33">
      <g>
       <use style="stroke:#000000;stroke-width:0.6;" x="229.596654" xlink:href="#m23b1165d4b" y="170.728"/>
      </g>
     </g>
    </g>
    <g id="xtick_34">
     <g id="line2d_34">
      <g>
       <use style="stroke:#000000;stroke-width:0.6;" x="238.427631" xlink:href="#m23b1165d4b" y="170.728"/>
      </g>
     </g>
    </g>
    <g id="xtick_35">
     <g id="line2d_35">
      <g>
       <use style="stroke:#000000;stroke-width:0.6;" x="244.693309" xlink:href="#m23b1165d4b" y="170.728"/>
      </g>
     </g>
    </g>
    <g id="xtick_36">
     <g id="line2d_36">
      <g>
       <use style="stroke:#000000;stroke-width:0.6;" x="249.553346" xlink:href="#m23b1165d4b" y="170.728"/>
      </g>
     </g>
    </g>
    <g id="xtick_37">
     <g id="line2d_37">
      <g>
       <use style="stroke:#000000;stroke-width:0.6;" x="253.524285" xlink:href="#m23b1165d4b" y="170.728"/>
      </g>
     </g>
    </g>
    <g id="xtick_38">
     <g id="line2d_38">
      <g>
       <use style="stroke:#000000;stroke-width:0.6;" x="256.881667" xlink:href="#m23b1165d4b" y="170.728"/>
      </g>
     </g>
    </g>
    <g id="xtick_39">
     <g id="line2d_39">
      <g>
       <use style="stroke:#000000;stroke-width:0.6;" x="259.789963" xlink:href="#m23b1165d4b" y="170.728"/>
      </g>
     </g>
    </g>
    <g id="xtick_40">
     <g id="line2d_40">
      <g>
       <use style="stroke:#000000;stroke-width:0.6;" x="262.355262" xlink:href="#m23b1165d4b" y="170.728"/>
      </g>
     </g>
    </g>
    <g id="text_6">
     <!-- Number of trials -->
     <defs>
      <path d="M 9.8125 72.90625  L 23.09375 72.90625  L 55.421875 11.921875  L 55.421875 72.90625  L 64.984375 72.90625  L 64.984375 0  L 51.703125 0  L 19.390625 60.984375  L 19.390625 0  L 9.8125 0  z " id="DejaVuSans-4e"/>
      <path d="M 8.5 21.578125  L 8.5 54.6875  L 17.484375 54.6875  L 17.484375 21.921875  Q 17.484375 14.15625 20.5 10.265625  Q 23.53125 6.390625 29.59375 6.390625  Q 36.859375 6.390625 41.078125 11.03125  Q 45.3125 15.671875 45.3125 23.6875  L 45.3125 54.6875  L 54.296875 54.6875  L 54.296875 0  L 45.3125 0  L 45.3125 8.40625  Q 42.046875 3.421875 37.71875 1  Q 33.40625 -1.421875 27.6875 -1.421875  Q 18.265625 -1.421875 13.375 4.4375  Q 8.5 10.296875 8.5 21.578125  z M 31.109375 56  z " id="DejaVuSans-75"/>
      <path d="M 52 44.1875  Q 55.375 50.25 60.0625 53.125  Q 64.75 56 71.09375 56  Q 79.640625 56 84.28125 50.015625  Q 88.921875 44.046875 88.921875 33.015625  L 88.921875 0  L 79.890625 0  L 79.890625 32.71875  Q 79.890625 40.578125 77.09375 44.375  Q 74.3125 48.1875 68.609375 48.1875  Q 61.625 48.1875 57.5625 43.546875  Q 53.515625 38.921875 53.515625 30.90625  L 53.515625 0  L 44.484375 0  L 44.484375 32.71875  Q 44.484375 40.625 41.703125 44.40625  Q 38.921875 48.1875 33.109375 48.1875  Q 26.21875 48.1875 22.15625 43.53125  Q 18.109375 38.875 18.109375 30.90625  L 18.109375 0  L 9.078125 0  L 9.078125 54.6875  L 18.109375 54.6875  L 18.109375 46.1875  Q 21.1875 51.21875 25.484375 53.609375  Q 29.78125 56 35.6875 56  Q 41.65625 56 45.828125 52.96875  Q 50 49.953125 52 44.1875  z " id="DejaVuSans-6d"/>
      <path d="M 48.6875 27.296875  Q 48.6875 37.203125 44.609375 42.84375  Q 40.53125 48.484375 33.40625 48.484375  Q 26.265625 48.484375 22.1875 42.84375  Q 18.109375 37.203125 18.109375 27.296875  Q 18.109375 17.390625 22.1875 11.75  Q 26.265625 6.109375 33.40625 6.109375  Q 40.53125 6.109375 44.609375 11.75  Q 48.6875 17.390625 48.6875 27.296875  z M 18.109375 46.390625  Q 20.953125 51.265625 25.265625 53.625  Q 29.59375 56 35.59375 56  Q 45.5625 56 51.78125 48.09375  Q 58.015625 40.1875 58.015625 27.296875  Q 58.015625 14.40625 51.78125 6.484375  Q 45.5625 -1.421875 35.59375 -1.421875  Q 29.59375 -1.421875 25.265625 0.953125  Q 20.953125 3.328125 18.109375 8.203125  L 18.109375 0  L 9.078125 0  L 9.078125 75.984375  L 18.109375 75.984375  z " id="DejaVuSans-62"/>
      <path d="M 56.203125 29.59375  L 56.203125 25.203125  L 14.890625 25.203125  Q 15.484375 15.921875 20.484375 11.0625  Q 25.484375 6.203125 34.421875 6.203125  Q 39.59375 6.203125 44.453125 7.46875  Q 49.3125 8.734375 54.109375 11.28125  L 54.109375 2.78125  Q 49.265625 0.734375 44.1875 -0.34375  Q 39.109375 -1.421875 33.890625 -1.421875  Q 20.796875 -1.421875 13.15625 6.1875  Q 5.515625 13.8125 5.515625 26.8125  Q 5.515625 40.234375 12.765625 48.109375  Q 20.015625 56 32.328125 56  Q 43.359375 56 49.78125 48.890625  Q 56.203125 41.796875 56.203125 29.59375  z M 47.21875 32.234375  Q 47.125 39.59375 43.09375 43.984375  Q 39.0625 48.390625 32.421875 48.390625  Q 24.90625 48.390625 20.390625 44.140625  Q 15.875 39.890625 15.1875 32.171875  z " id="DejaVuSans-65"/>
      <path d="M 41.109375 46.296875  Q 39.59375 47.171875 37.8125 47.578125  Q 36.03125 48 33.890625 48  Q 26.265625 48 22.1875 43.046875  Q 18.109375 38.09375 18.109375 28.8125  L 18.109375 0  L 9.078125 0  L 9.078125 54.6875  L 18.109375 54.6875  L 18.109375 46.1875  Q 20.953125 51.171875 25.484375 53.578125  Q 30.03125 56 36.53125 56  Q 37.453125 56 38.578125 55.875  Q 39.703125 55.765625 41.0625 55.515625  z " id="DejaVuSans-72"/>
      <path id="DejaVuSans-20"/>
      <path d="M 30.609375 48.390625  Q 23.390625 48.390625 19.1875 42.75  Q 14.984375 37.109375 14.984375 27.296875  Q 14.984375 17.484375 19.15625 11.84375  Q 23.34375 6.203125 30.609375 6.203125  Q 37.796875 6.203125 41.984375 11.859375  Q 46.1875 17.53125 46.1875 27.296875  Q 46.1875 37.015625 41.984375 42.703125  Q 37.796875 48.390625 30.609375 48.390625  z M 30.609375 56  Q 42.328125 56 49.015625 48.375  Q 55.71875 40.765625 55.71875 27.296875  Q 55.71875 13.875 49.015625 6.21875  Q 42.328125 -1.421875 30.609375 -1.421875  Q 18.84375 -1.421875 12.171875 6.21875  Q 5.515625 13.875 5.515625 27.296875  Q 5.515625 40.765625 12.171875 48.375  Q 18.84375 56 30.609375 56  z " id="DejaVuSans-6f"/>
      <path d="M 37.109375 75.984375  L 37.109375 68.5  L 28.515625 68.5  Q 23.6875 68.5 21.796875 66.546875  Q 19.921875 64.59375 19.921875 59.515625  L 19.921875 54.6875  L 34.71875 54.6875  L 34.71875 47.703125  L 19.921875 47.703125  L 19.921875 0  L 10.890625 0  L 10.890625 47.703125  L 2.296875 47.703125  L 2.296875 54.6875  L 10.890625 54.6875  L 10.890625 58.5  Q 10.890625 67.625 15.140625 71.796875  Q 19.390625 75.984375 28.609375 75.984375  z " id="DejaVuSans-66"/>
      <path d="M 18.3125 70.21875  L 18.3125 54.6875  L 36.8125 54.6875  L 36.8125 47.703125  L 18.3125 47.703125  L 18.3125 18.015625  Q 18.3125 11.328125 20.140625 9.421875  Q 21.96875 7.515625 27.59375 7.515625  L 36.8125 7.515625  L 36.8125 0  L 27.59375 0  Q 17.1875 0 13.234375 3.875  Q 9.28125 7.765625 9.28125 18.015625  L 9.28125 47.703125  L 2.6875 47.703125  L 2.6875 54.6875  L 9.28125 54.6875  L 9.28125 70.21875  z " id="DejaVuSans-74"/>
      <path d="M 9.421875 54.6875  L 18.40625 54.6875  L 18.40625 0  L 9.421875 0  z M 9.421875 75.984375  L 18.40625 75.984375  L 18.40625 64.59375  L 9.421875 64.59375  z " id="DejaVuSans-69"/>
      <path d="M 34.28125 27.484375  Q 23.390625 27.484375 19.1875 25  Q 14.984375 22.515625 14.984375 16.5  Q 14.984375 11.71875 18.140625 8.90625  Q 21.296875 6.109375 26.703125 6.109375  Q 34.1875 6.109375 38.703125 11.40625  Q 43.21875 16.703125 43.21875 25.484375  L 43.21875 27.484375  z M 52.203125 31.203125  L 52.203125 0  L 43.21875 0  L 43.21875 8.296875  Q 40.140625 3.328125 35.546875 0.953125  Q 30.953125 -1.421875 24.3125 -1.421875  Q 15.921875 -1.421875 10.953125 3.296875  Q 6 8.015625 6 15.921875  Q 6 25.140625 12.171875 29.828125  Q 18.359375 34.515625 30.609375 34.515625  L 43.21875 34.515625  L 43.21875 35.40625  Q 43.21875 41.609375 39.140625 45  Q 35.0625 48.390625 27.6875 48.390625  Q 23 48.390625 18.546875 47.265625  Q 14.109375 46.140625 10.015625 43.890625  L 10.015625 52.203125  Q 14.9375 54.109375 19.578125 55.046875  Q 24.21875 56 28.609375 56  Q 40.484375 56 46.34375 49.84375  Q 52.203125 43.703125 52.203125 31.203125  z " id="DejaVuSans-61"/>
      <path d="M 9.421875 75.984375  L 18.40625 75.984375  L 18.40625 0  L 9.421875 0  z " id="DejaVuSans-6c"/>
      <path d="M 44.28125 53.078125  L 44.28125 44.578125  Q 40.484375 46.53125 36.375 47.5  Q 32.28125 48.484375 27.875 48.484375  Q 21.1875 48.484375 17.84375 46.4375  Q 14.5 44.390625 14.5 40.28125  Q 14.5 37.15625 16.890625 35.375  Q 19.28125 33.59375 26.515625 31.984375  L 29.59375 31.296875  Q 39.15625 29.25 43.1875 25.515625  Q 47.21875 21.78125 47.21875 15.09375  Q 47.21875 7.46875 41.1875 3.015625  Q 35.15625 -1.421875 24.609375 -1.421875  Q 20.21875 -1.421875 15.453125 -0.5625  Q 10.6875 0.296875 5.421875 2  L 5.421875 11.28125  Q 10.40625 8.6875 15.234375 7.390625  Q 20.0625 6.109375 24.8125 6.109375  Q 31.15625 6.109375 34.5625 8.28125  Q 37.984375 10.453125 37.984375 14.40625  Q 37.984375 18.0625 35.515625 20.015625  Q 33.0625 21.96875 24.703125 23.78125  L 21.578125 24.515625  Q 13.234375 26.265625 9.515625 29.90625  Q 5.8125 33.546875 5.8125 39.890625  Q 5.8125 47.609375 11.28125 51.796875  Q 16.75 56 26.8125 56  Q 31.78125 56 36.171875 55.265625  Q 40.578125 54.546875 44.28125 53.078125  z " id="DejaVuSans-73"/>
     </defs>
     <g transform="translate(123.803906 199.004562)scale(0.1 -0.1)">
      <use xlink:href="#DejaVuSans-4e"/>
      <use x="74.804688" xlink:href="#DejaVuSans-75"/>
      <use x="138.183594" xlink:href="#DejaVuSans-6d"/>
      <use x="235.595703" xlink:href="#DejaVuSans-62"/>
      <use x="299.072266" xlink:href="#DejaVuSans-65"/>
      <use x="360.595703" xlink:href="#DejaVuSans-72"/>
      <use x="401.708984" xlink:href="#DejaVuSans-20"/>
      <use x="433.496094" xlink:href="#DejaVuSans-6f"/>
      <use x="494.677734" xlink:href="#DejaVuSans-66"/>
      <use x="529.882812" xlink:href="#DejaVuSans-20"/>
      <use x="561.669922" xlink:href="#DejaVuSans-74"/>
      <use x="600.878906" xlink:href="#DejaVuSans-72"/>
      <use x="641.992188" xlink:href="#DejaVuSans-69"/>
      <use x="669.775391" xlink:href="#DejaVuSans-61"/>
      <use x="731.054688" xlink:href="#DejaVuSans-6c"/>
      <use x="758.837891" xlink:href="#DejaVuSans-73"/>
     </g>
    </g>
   </g>
   <g id="matplotlib.axis_2">
    <g id="ytick_1">
     <g id="line2d_41">
      <defs>
       <path d="M 0 0  L -3.5 0  " id="m1684d8bcf7" style="stroke:#000000;stroke-width:0.8;"/>
      </defs>
      <g>
       <use style="stroke:#000000;stroke-width:0.8;" x="54.02" xlink:href="#m1684d8bcf7" y="163.573091"/>
      </g>
     </g>
     <g id="text_7">
      <!-- 0.00 -->
      <defs>
       <path d="M 10.6875 12.40625  L 21 12.40625  L 21 0  L 10.6875 0  z " id="DejaVuSans-2e"/>
      </defs>
      <g transform="translate(24.754375 167.37231)scale(0.1 -0.1)">
       <use xlink:href="#DejaVuSans-30"/>
       <use x="63.623047" xlink:href="#DejaVuSans-2e"/>
       <use x="95.410156" xlink:href="#DejaVuSans-30"/>
       <use x="159.033203" xlink:href="#DejaVuSans-30"/>
      </g>
     </g>
    </g>
    <g id="ytick_2">
     <g id="line2d_42">
      <g>
       <use style="stroke:#000000;stroke-width:0.8;" x="54.02" xlink:href="#m1684d8bcf7" y="140.157025"/>
      </g>
     </g>
     <g id="text_8">
      <!-- 0.05 -->
      <g transform="translate(24.754375 143.956244)scale(0.1 -0.1)">
       <use xlink:href="#DejaVuSans-30"/>
       <use x="63.623047" xlink:href="#DejaVuSans-2e"/>
       <use x="95.410156" xlink:href="#DejaVuSans-30"/>
       <use x="159.033203" xlink:href="#DejaVuSans-35"/>
      </g>
     </g>
    </g>
    <g id="ytick_3">
     <g id="line2d_43">
      <g>
       <use style="stroke:#000000;stroke-width:0.8;" x="54.02" xlink:href="#m1684d8bcf7" y="116.740959"/>
      </g>
     </g>
     <g id="text_9">
      <!-- 0.10 -->
      <g transform="translate(24.754375 120.540177)scale(0.1 -0.1)">
       <use xlink:href="#DejaVuSans-30"/>
       <use x="63.623047" xlink:href="#DejaVuSans-2e"/>
       <use x="95.410156" xlink:href="#DejaVuSans-31"/>
       <use x="159.033203" xlink:href="#DejaVuSans-30"/>
      </g>
     </g>
    </g>
    <g id="ytick_4">
     <g id="line2d_44">
      <g>
       <use style="stroke:#000000;stroke-width:0.8;" x="54.02" xlink:href="#m1684d8bcf7" y="93.324893"/>
      </g>
     </g>
     <g id="text_10">
      <!-- 0.15 -->
      <g transform="translate(24.754375 97.124111)scale(0.1 -0.1)">
       <use xlink:href="#DejaVuSans-30"/>
       <use x="63.623047" xlink:href="#DejaVuSans-2e"/>
       <use x="95.410156" xlink:href="#DejaVuSans-31"/>
       <use x="159.033203" xlink:href="#DejaVuSans-35"/>
      </g>
     </g>
    </g>
    <g id="ytick_5">
     <g id="line2d_45">
      <g>
       <use style="stroke:#000000;stroke-width:0.8;" x="54.02" xlink:href="#m1684d8bcf7" y="69.908826"/>
      </g>
     </g>
     <g id="text_11">
      <!-- 0.20 -->
      <g transform="translate(24.754375 73.708045)scale(0.1 -0.1)">
       <use xlink:href="#DejaVuSans-30"/>
       <use x="63.623047" xlink:href="#DejaVuSans-2e"/>
       <use x="95.410156" xlink:href="#DejaVuSans-32"/>
       <use x="159.033203" xlink:href="#DejaVuSans-30"/>
      </g>
     </g>
    </g>
    <g id="ytick_6">
     <g id="line2d_46">
      <g>
       <use style="stroke:#000000;stroke-width:0.8;" x="54.02" xlink:href="#m1684d8bcf7" y="46.49276"/>
      </g>
     </g>
     <g id="text_12">
      <!-- 0.25 -->
      <g transform="translate(24.754375 50.291979)scale(0.1 -0.1)">
       <use xlink:href="#DejaVuSans-30"/>
       <use x="63.623047" xlink:href="#DejaVuSans-2e"/>
       <use x="95.410156" xlink:href="#DejaVuSans-32"/>
       <use x="159.033203" xlink:href="#DejaVuSans-35"/>
      </g>
     </g>
    </g>
    <g id="ytick_7">
     <g id="line2d_47">
      <g>
       <use style="stroke:#000000;stroke-width:0.8;" x="54.02" xlink:href="#m1684d8bcf7" y="23.076694"/>
      </g>
     </g>
     <g id="text_13">
      <!-- 0.30 -->
      <g transform="translate(24.754375 26.875913)scale(0.1 -0.1)">
       <use xlink:href="#DejaVuSans-30"/>
       <use x="63.623047" xlink:href="#DejaVuSans-2e"/>
       <use x="95.410156" xlink:href="#DejaVuSans-33"/>
       <use x="159.033203" xlink:href="#DejaVuSans-30"/>
      </g>
     </g>
    </g>
    <g id="text_14">
     <!-- Computed probability -->
     <defs>
      <path d="M 64.40625 67.28125  L 64.40625 56.890625  Q 59.421875 61.53125 53.78125 63.8125  Q 48.140625 66.109375 41.796875 66.109375  Q 29.296875 66.109375 22.65625 58.46875  Q 16.015625 50.828125 16.015625 36.375  Q 16.015625 21.96875 22.65625 14.328125  Q 29.296875 6.6875 41.796875 6.6875  Q 48.140625 6.6875 53.78125 8.984375  Q 59.421875 11.28125 64.40625 15.921875  L 64.40625 5.609375  Q 59.234375 2.09375 53.4375 0.328125  Q 47.65625 -1.421875 41.21875 -1.421875  Q 24.65625 -1.421875 15.125 8.703125  Q 5.609375 18.84375 5.609375 36.375  Q 5.609375 53.953125 15.125 64.078125  Q 24.65625 74.21875 41.21875 74.21875  Q 47.75 74.21875 53.53125 72.484375  Q 59.328125 70.75 64.40625 67.28125  z " id="DejaVuSans-43"/>
      <path d="M 18.109375 8.203125  L 18.109375 -20.796875  L 9.078125 -20.796875  L 9.078125 54.6875  L 18.109375 54.6875  L 18.109375 46.390625  Q 20.953125 51.265625 25.265625 53.625  Q 29.59375 56 35.59375 56  Q 45.5625 56 51.78125 48.09375  Q 58.015625 40.1875 58.015625 27.296875  Q 58.015625 14.40625 51.78125 6.484375  Q 45.5625 -1.421875 35.59375 -1.421875  Q 29.59375 -1.421875 25.265625 0.953125  Q 20.953125 3.328125 18.109375 8.203125  z M 48.6875 27.296875  Q 48.6875 37.203125 44.609375 42.84375  Q 40.53125 48.484375 33.40625 48.484375  Q 26.265625 48.484375 22.1875 42.84375  Q 18.109375 37.203125 18.109375 27.296875  Q 18.109375 17.390625 22.1875 11.75  Q 26.265625 6.109375 33.40625 6.109375  Q 40.53125 6.109375 44.609375 11.75  Q 48.6875 17.390625 48.6875 27.296875  z " id="DejaVuSans-70"/>
      <path d="M 45.40625 46.390625  L 45.40625 75.984375  L 54.390625 75.984375  L 54.390625 0  L 45.40625 0  L 45.40625 8.203125  Q 42.578125 3.328125 38.25 0.953125  Q 33.9375 -1.421875 27.875 -1.421875  Q 17.96875 -1.421875 11.734375 6.484375  Q 5.515625 14.40625 5.515625 27.296875  Q 5.515625 40.1875 11.734375 48.09375  Q 17.96875 56 27.875 56  Q 33.9375 56 38.25 53.625  Q 42.578125 51.265625 45.40625 46.390625  z M 14.796875 27.296875  Q 14.796875 17.390625 18.875 11.75  Q 22.953125 6.109375 30.078125 6.109375  Q 37.203125 6.109375 41.296875 11.75  Q 45.40625 17.390625 45.40625 27.296875  Q 45.40625 37.203125 41.296875 42.84375  Q 37.203125 48.484375 30.078125 48.484375  Q 22.953125 48.484375 18.875 42.84375  Q 14.796875 37.203125 14.796875 27.296875  z " id="DejaVuSans-64"/>
      <path d="M 32.171875 -5.078125  Q 28.375 -14.84375 24.75 -17.8125  Q 21.140625 -20.796875 15.09375 -20.796875  L 7.90625 -20.796875  L 7.90625 -13.28125  L 13.1875 -13.28125  Q 16.890625 -13.28125 18.9375 -11.515625  Q 21 -9.765625 23.484375 -3.21875  L 25.09375 0.875  L 2.984375 54.6875  L 12.5 54.6875  L 29.59375 11.921875  L 46.6875 54.6875  L 56.203125 54.6875  z " id="DejaVuSans-79"/>
     </defs>
     <g transform="translate(18.674687 146.374781)rotate(-90)scale(0.1 -0.1)">
      <use xlink:href="#DejaVuSans-43"/>
      <use x="69.824219" xlink:href="#DejaVuSans-6f"/>
      <use x="131.005859" xlink:href="#DejaVuSans-6d"/>
      <use x="228.417969" xlink:href="#DejaVuSans-70"/>
      <use x="291.894531" xlink:href="#DejaVuSans-75"/>
      <use x="355.273438" xlink:href="#DejaVuSans-74"/>
      <use x="394.482422" xlink:href="#DejaVuSans-65"/>
      <use x="456.005859" xlink:href="#DejaVuSans-64"/>
      <use x="519.482422" xlink:href="#DejaVuSans-20"/>
      <use x="551.269531" xlink:href="#DejaVuSans-70"/>
      <use x="614.746094" xlink:href="#DejaVuSans-72"/>
      <use x="655.828125" xlink:href="#DejaVuSans-6f"/>
      <use x="717.009766" xlink:href="#DejaVuSans-62"/>
      <use x="780.486328" xlink:href="#DejaVuSans-61"/>
      <use x="841.765625" xlink:href="#DejaVuSans-62"/>
      <use x="905.242188" xlink:href="#DejaVuSans-69"/>
      <use x="933.025391" xlink:href="#DejaVuSans-6c"/>
      <use x="960.808594" xlink:href="#DejaVuSans-69"/>
      <use x="988.591797" xlink:href="#DejaVuSans-74"/>
      <use x="1027.800781" xlink:href="#DejaVuSans-79"/>
     </g>
    </g>
   </g>
   <g id="LineCollection_1">
    <path clip-path="url(#p40802067cc)" d="M 64.05 105.032926  L 264.65 105.032926  " style="fill:none;stroke:#3f3f3f;stroke-width:1.5;"/>
   </g>
   <g id="line2d_48">
    <defs>
     <path d="M 0 3  C 0.795609 3 1.55874 2.683901 2.12132 2.12132  C 2.683901 1.55874 3 0.795609 3 0  C 3 -0.795609 2.683901 -1.55874 2.12132 -2.12132  C 1.55874 -2.683901 0.795609 -3 0 -3  C -0.795609 -3 -1.55874 -2.683901 -2.12132 -2.12132  C -2.683901 -1.55874 -3 -0.795609 -3 0  C -3 0.795609 -2.683901 1.55874 -2.12132 2.12132  C -1.55874 2.683901 -0.795609 3 0 3  z " id="m60d59c186e" style="stroke:#1f77b4;"/>
    </defs>
    <g clip-path="url(#p40802067cc)">
     <use style="fill:#1f77b4;opacity:0.5;stroke:#1f77b4;" x="64.05" xlink:href="#m60d59c186e" y="163.573091"/>
     <use style="fill:#1f77b4;opacity:0.5;stroke:#1f77b4;" x="64.05" xlink:href="#m60d59c186e" y="116.740959"/>
     <use style="fill:#1f77b4;opacity:0.5;stroke:#1f77b4;" x="68.020939" xlink:href="#m60d59c186e" y="124.546314"/>
     <use style="fill:#1f77b4;opacity:0.5;stroke:#1f77b4;" x="69.764259" xlink:href="#m60d59c186e" y="127.548374"/>
     <use style="fill:#1f77b4;opacity:0.5;stroke:#1f77b4;" x="71.378321" xlink:href="#m60d59c186e" y="96.670045"/>
     <use style="fill:#1f77b4;opacity:0.5;stroke:#1f77b4;" x="72.880977" xlink:href="#m60d59c186e" y="69.908826"/>
     <use style="fill:#1f77b4;opacity:0.5;stroke:#1f77b4;" x="75.607013" xlink:href="#m60d59c186e" y="53.379839"/>
     <use style="fill:#1f77b4;opacity:0.5;stroke:#1f77b4;" x="78.029493" xlink:href="#m60d59c186e" y="114.27611"/>
     <use style="fill:#1f77b4;opacity:0.5;stroke:#1f77b4;" x="80.209298" xlink:href="#m60d59c186e" y="52.068014"/>
     <use style="fill:#1f77b4;opacity:0.5;stroke:#1f77b4;" x="82.190651" xlink:href="#m60d59c186e" y="122.849498"/>
     <use style="fill:#1f77b4;opacity:0.5;stroke:#1f77b4;" x="84.006691" xlink:href="#m60d59c186e" y="107.374532"/>
     <use style="fill:#1f77b4;opacity:0.5;stroke:#1f77b4;" x="85.682893" xlink:href="#m60d59c186e" y="94.192154"/>
     <use style="fill:#1f77b4;opacity:0.5;stroke:#1f77b4;" x="87.977631" xlink:href="#m60d59c186e" y="101.130248"/>
     <use style="fill:#1f77b4;opacity:0.5;stroke:#1f77b4;" x="90.053474" xlink:href="#m60d59c186e" y="106.80687"/>
     <use style="fill:#1f77b4;opacity:0.5;stroke:#1f77b4;" x="91.94857" xlink:href="#m60d59c186e" y="20.474909"/>
     <use style="fill:#1f77b4;opacity:0.5;stroke:#1f77b4;" x="94.243309" xlink:href="#m60d59c186e" y="128.448992"/>
     <use style="fill:#1f77b4;opacity:0.5;stroke:#1f77b4;" x="96.319152" xlink:href="#m60d59c186e" y="78.42376"/>
     <use style="fill:#1f77b4;opacity:0.5;stroke:#1f77b4;" x="98.214248" xlink:href="#m60d59c186e" y="114.78962"/>
     <use style="fill:#1f77b4;opacity:0.5;stroke:#1f77b4;" x="100.372435" xlink:href="#m60d59c186e" y="101.719331"/>
     <use style="fill:#1f77b4;opacity:0.5;stroke:#1f77b4;" x="102.335914" xlink:href="#m60d59c186e" y="123.200563"/>
     <use style="fill:#1f77b4;opacity:0.5;stroke:#1f77b4;" x="104.479926" xlink:href="#m60d59c186e" y="112.350446"/>
     <use style="fill:#1f77b4;opacity:0.5;stroke:#1f77b4;" x="106.431667" xlink:href="#m60d59c186e" y="116.740959"/>
     <use style="fill:#1f77b4;opacity:0.5;stroke:#1f77b4;" x="108.50751" xlink:href="#m60d59c186e" y="120.998425"/>
     <use style="fill:#1f77b4;opacity:0.5;stroke:#1f77b4;" x="110.402606" xlink:href="#m60d59c186e" y="107.820553"/>
     <use style="fill:#1f77b4;opacity:0.5;stroke:#1f77b4;" x="112.61942" xlink:href="#m60d59c186e" y="118.251673"/>
     <use style="fill:#1f77b4;opacity:0.5;stroke:#1f77b4;" x="114.631299" xlink:href="#m60d59c186e" y="117.659236"/>
     <use style="fill:#1f77b4;opacity:0.5;stroke:#1f77b4;" x="116.668284" xlink:href="#m60d59c186e" y="117.577247"/>
     <use style="fill:#1f77b4;opacity:0.5;stroke:#1f77b4;" x="118.708741" xlink:href="#m60d59c186e" y="102.653244"/>
     <use style="fill:#1f77b4;opacity:0.5;stroke:#1f77b4;" x="120.736238" xlink:href="#m60d59c186e" y="111.537388"/>
     <use style="fill:#1f77b4;opacity:0.5;stroke:#1f77b4;" x="122.738625" xlink:href="#m60d59c186e" y="103.450759"/>
     <use style="fill:#1f77b4;opacity:0.5;stroke:#1f77b4;" x="124.707178" xlink:href="#m60d59c186e" y="97.083027"/>
     <use style="fill:#1f77b4;opacity:0.5;stroke:#1f77b4;" x="126.758563" xlink:href="#m60d59c186e" y="100.428643"/>
     <use style="fill:#1f77b4;opacity:0.5;stroke:#1f77b4;" x="128.856642" xlink:href="#m60d59c186e" y="113.395806"/>
     <use style="fill:#1f77b4;opacity:0.5;stroke:#1f77b4;" x="130.871789" xlink:href="#m60d59c186e" y="93.869452"/>
     <use style="fill:#1f77b4;opacity:0.5;stroke:#1f77b4;" x="132.901537" xlink:href="#m60d59c186e" y="102.056307"/>
     <use style="fill:#1f77b4;opacity:0.5;stroke:#1f77b4;" x="134.926983" xlink:href="#m60d59c186e" y="109.327378"/>
     <use style="fill:#1f77b4;opacity:0.5;stroke:#1f77b4;" x="136.933915" xlink:href="#m60d59c186e" y="107.506454"/>
     <use style="fill:#1f77b4;opacity:0.5;stroke:#1f77b4;" x="138.981853" xlink:href="#m60d59c186e" y="102.030866"/>
     <use style="fill:#1f77b4;opacity:0.5;stroke:#1f77b4;" x="141.045" xlink:href="#m60d59c186e" y="118.515937"/>
     <use style="fill:#1f77b4;opacity:0.5;stroke:#1f77b4;" x="143.04567" xlink:href="#m60d59c186e" y="105.032926"/>
     <use style="fill:#1f77b4;opacity:0.5;stroke:#1f77b4;" x="145.089895" xlink:href="#m60d59c186e" y="105.741644"/>
     <use style="fill:#1f77b4;opacity:0.5;stroke:#1f77b4;" x="147.103325" xlink:href="#m60d59c186e" y="92.23938"/>
     <use style="fill:#1f77b4;opacity:0.5;stroke:#1f77b4;" x="149.122273" xlink:href="#m60d59c186e" y="105.150713"/>
     <use style="fill:#1f77b4;opacity:0.5;stroke:#1f77b4;" x="151.170211" xlink:href="#m60d59c186e" y="106.10509"/>
     <use style="fill:#1f77b4;opacity:0.5;stroke:#1f77b4;" x="153.187955" xlink:href="#m60d59c186e" y="111.189905"/>
     <use style="fill:#1f77b4;opacity:0.5;stroke:#1f77b4;" x="155.200903" xlink:href="#m60d59c186e" y="115.101478"/>
     <use style="fill:#1f77b4;opacity:0.5;stroke:#1f77b4;" x="157.25564" xlink:href="#m60d59c186e" y="98.059997"/>
     <use style="fill:#1f77b4;opacity:0.5;stroke:#1f77b4;" x="159.271068" xlink:href="#m60d59c186e" y="96.754518"/>
     <use style="fill:#1f77b4;opacity:0.5;stroke:#1f77b4;" x="161.291842" xlink:href="#m60d59c186e" y="109.681109"/>
     <use style="fill:#1f77b4;opacity:0.5;stroke:#1f77b4;" x="163.324351" xlink:href="#m60d59c186e" y="104.664748"/>
     <use style="fill:#1f77b4;opacity:0.5;stroke:#1f77b4;" x="165.350326" xlink:href="#m60d59c186e" y="102.293224"/>
     <use style="fill:#1f77b4;opacity:0.5;stroke:#1f77b4;" x="167.375049" xlink:href="#m60d59c186e" y="99.581405"/>
     <use style="fill:#1f77b4;opacity:0.5;stroke:#1f77b4;" x="169.400862" xlink:href="#m60d59c186e" y="102.293933"/>
     <use style="fill:#1f77b4;opacity:0.5;stroke:#1f77b4;" x="171.427975" xlink:href="#m60d59c186e" y="110.785427"/>
     <use style="fill:#1f77b4;opacity:0.5;stroke:#1f77b4;" x="173.455122" xlink:href="#m60d59c186e" y="99.444826"/>
     <use style="fill:#1f77b4;opacity:0.5;stroke:#1f77b4;" x="175.493132" xlink:href="#m60d59c186e" y="104.892542"/>
     <use style="fill:#1f77b4;opacity:0.5;stroke:#1f77b4;" x="177.511922" xlink:href="#m60d59c186e" y="108.551733"/>
     <use style="fill:#1f77b4;opacity:0.5;stroke:#1f77b4;" x="179.544444" xlink:href="#m60d59c186e" y="109.258074"/>
     <use style="fill:#1f77b4;opacity:0.5;stroke:#1f77b4;" x="181.571941" xlink:href="#m60d59c186e" y="106.015232"/>
     <use style="fill:#1f77b4;opacity:0.5;stroke:#1f77b4;" x="183.598341" xlink:href="#m60d59c186e" y="105.323207"/>
     <use style="fill:#1f77b4;opacity:0.5;stroke:#1f77b4;" x="185.625038" xlink:href="#m60d59c186e" y="101.153758"/>
     <use style="fill:#1f77b4;opacity:0.5;stroke:#1f77b4;" x="187.651624" xlink:href="#m60d59c186e" y="100.11274"/>
     <use style="fill:#1f77b4;opacity:0.5;stroke:#1f77b4;" x="189.676464" xlink:href="#m60d59c186e" y="105.600211"/>
     <use style="fill:#1f77b4;opacity:0.5;stroke:#1f77b4;" x="191.703356" xlink:href="#m60d59c186e" y="97.679974"/>
     <use style="fill:#1f77b4;opacity:0.5;stroke:#1f77b4;" x="193.72782" xlink:href="#m60d59c186e" y="103.771874"/>
     <use style="fill:#1f77b4;opacity:0.5;stroke:#1f77b4;" x="195.75582" xlink:href="#m60d59c186e" y="108.202871"/>
     <use style="fill:#1f77b4;opacity:0.5;stroke:#1f77b4;" x="197.78057" xlink:href="#m60d59c186e" y="103.531896"/>
     <use style="fill:#1f77b4;opacity:0.5;stroke:#1f77b4;" x="199.809006" xlink:href="#m60d59c186e" y="109.790607"/>
     <use style="fill:#1f77b4;opacity:0.5;stroke:#1f77b4;" x="201.832702" xlink:href="#m60d59c186e" y="103.839083"/>
     <use style="fill:#1f77b4;opacity:0.5;stroke:#1f77b4;" x="203.858901" xlink:href="#m60d59c186e" y="104.412696"/>
     <use style="fill:#1f77b4;opacity:0.5;stroke:#1f77b4;" x="205.887897" xlink:href="#m60d59c186e" y="102.372799"/>
     <use style="fill:#1f77b4;opacity:0.5;stroke:#1f77b4;" x="207.912519" xlink:href="#m60d59c186e" y="103.052541"/>
     <use style="fill:#1f77b4;opacity:0.5;stroke:#1f77b4;" x="209.940081" xlink:href="#m60d59c186e" y="101.041715"/>
     <use style="fill:#1f77b4;opacity:0.5;stroke:#1f77b4;" x="211.966803" xlink:href="#m60d59c186e" y="104.598905"/>
     <use style="fill:#1f77b4;opacity:0.5;stroke:#1f77b4;" x="213.993212" xlink:href="#m60d59c186e" y="105.044909"/>
     <use style="fill:#1f77b4;opacity:0.5;stroke:#1f77b4;" x="216.018332" xlink:href="#m60d59c186e" y="102.20474"/>
     <use style="fill:#1f77b4;opacity:0.5;stroke:#1f77b4;" x="218.045738" xlink:href="#m60d59c186e" y="103.918633"/>
     <use style="fill:#1f77b4;opacity:0.5;stroke:#1f77b4;" x="220.071385" xlink:href="#m60d59c186e" y="105.409142"/>
     <use style="fill:#1f77b4;opacity:0.5;stroke:#1f77b4;" x="222.097345" xlink:href="#m60d59c186e" y="104.793379"/>
     <use style="fill:#1f77b4;opacity:0.5;stroke:#1f77b4;" x="224.123681" xlink:href="#m60d59c186e" y="102.368588"/>
     <use style="fill:#1f77b4;opacity:0.5;stroke:#1f77b4;" x="226.150338" xlink:href="#m60d59c186e" y="106.161006"/>
     <use style="fill:#1f77b4;opacity:0.5;stroke:#1f77b4;" x="228.17707" xlink:href="#m60d59c186e" y="104.839229"/>
     <use style="fill:#1f77b4;opacity:0.5;stroke:#1f77b4;" x="230.203405" xlink:href="#m60d59c186e" y="103.248112"/>
     <use style="fill:#1f77b4;opacity:0.5;stroke:#1f77b4;" x="232.229608" xlink:href="#m60d59c186e" y="105.9926"/>
     <use style="fill:#1f77b4;opacity:0.5;stroke:#1f77b4;" x="234.255389" xlink:href="#m60d59c186e" y="105.472509"/>
     <use style="fill:#1f77b4;opacity:0.5;stroke:#1f77b4;" x="236.281616" xlink:href="#m60d59c186e" y="106.223756"/>
     <use style="fill:#1f77b4;opacity:0.5;stroke:#1f77b4;" x="238.308241" xlink:href="#m60d59c186e" y="104.868112"/>
     <use style="fill:#1f77b4;opacity:0.5;stroke:#1f77b4;" x="240.334521" xlink:href="#m60d59c186e" y="105.706911"/>
     <use style="fill:#1f77b4;opacity:0.5;stroke:#1f77b4;" x="242.361028" xlink:href="#m60d59c186e" y="105.818066"/>
     <use style="fill:#1f77b4;opacity:0.5;stroke:#1f77b4;" x="244.38734" xlink:href="#m60d59c186e" y="104.406589"/>
     <use style="fill:#1f77b4;opacity:0.5;stroke:#1f77b4;" x="246.413328" xlink:href="#m60d59c186e" y="103.625105"/>
     <use style="fill:#1f77b4;opacity:0.5;stroke:#1f77b4;" x="248.439852" xlink:href="#m60d59c186e" y="104.564683"/>
     <use style="fill:#1f77b4;opacity:0.5;stroke:#1f77b4;" x="250.466127" xlink:href="#m60d59c186e" y="105.612264"/>
     <use style="fill:#1f77b4;opacity:0.5;stroke:#1f77b4;" x="252.492167" xlink:href="#m60d59c186e" y="105.670266"/>
     <use style="fill:#1f77b4;opacity:0.5;stroke:#1f77b4;" x="254.51837" xlink:href="#m60d59c186e" y="106.034042"/>
     <use style="fill:#1f77b4;opacity:0.5;stroke:#1f77b4;" x="256.544911" xlink:href="#m60d59c186e" y="105.472873"/>
     <use style="fill:#1f77b4;opacity:0.5;stroke:#1f77b4;" x="258.571116" xlink:href="#m60d59c186e" y="105.94764"/>
     <use style="fill:#1f77b4;opacity:0.5;stroke:#1f77b4;" x="260.597276" xlink:href="#m60d59c186e" y="104.320044"/>
     <use style="fill:#1f77b4;opacity:0.5;stroke:#1f77b4;" x="262.623671" xlink:href="#m60d59c186e" y="104.845322"/>
     <use style="fill:#1f77b4;opacity:0.5;stroke:#1f77b4;" x="264.65" xlink:href="#m60d59c186e" y="104.503723"/>
    </g>
   </g>
   <g id="patch_3">
    <path d="M 54.02 170.728  L 54.02 13.32  " style="fill:none;stroke:#000000;stroke-linecap:square;stroke-linejoin:miter;stroke-width:0.8;"/>
   </g>
   <g id="patch_4">
    <path d="M 274.68 170.728  L 274.68 13.32  " style="fill:none;stroke:#000000;stroke-linecap:square;stroke-linejoin:miter;stroke-width:0.8;"/>
   </g>
   <g id="patch_5">
    <path d="M 54.02 170.728  L 274.68 170.728  " style="fill:none;stroke:#000000;stroke-linecap:square;stroke-linejoin:miter;stroke-width:0.8;"/>
   </g>
   <g id="patch_6">
    <path d="M 54.02 13.32  L 274.68 13.32  " style="fill:none;stroke:#000000;stroke-linecap:square;stroke-linejoin:miter;stroke-width:0.8;"/>
   </g>
  </g>
 </g>
 <defs>
  <clipPath id="p40802067cc">
   <rect height="157.408" width="220.66" x="54.02" y="13.32"/>
  </clipPath>
 </defs>
</svg>