<svg xmlns="http://www.w3.org/2000/svg" xmlns:xlink="http://www.w3.org/1999/xlink" version="1.1" viewBox="0 0 460 345" viewport="0 0 1280px 960px">
 <defs>
  <style type="text/css">
*{stroke-linecap:butt;stroke-linejoin:round;}
  </style>
 </defs>
 <g id="figure_1">
  <g id="patch_1">
   <path d="M 0 345.6  L 460.8 345.6  L 460.8 0  L 0 0  z " style="fill:#ffffff;"/>
  </g>
  <g id="axes_1">
   <g id="patch_2">
    <path d="M 57.6 307.584  L 414.72 307.584  L 414.72 41.472  L 57.6 41.472  z " style="fill:#ffffff;"/>
   </g>
   <g id="matplotlib.axis_1">
    <g id="xtick_1">
     <g id="line2d_1">
      <defs>
       <path d="M 0 0  L 0 3.5  " id="meda61c3e38" style="stroke:#000000;stroke-width:0.8;"/>
      </defs>
      <g>
       <use style="stroke:#000000;stroke-width:0.8;" x="73.832727" xlink:href="#meda61c3e38" y="307.584"/>
      </g>
     </g>
     <g id="text_1">
      <!-- 0 -->
      <defs>
       <path d="M 31.78125 66.40625  Q 24.171875 66.40625 20.328125 58.90625  Q 16.5 51.421875 16.5 36.375  Q 16.5 21.390625 20.328125 13.890625  Q 24.171875 6.390625 31.78125 6.390625  Q 39.453125 6.390625 43.28125 13.890625  Q 47.125 21.390625 47.125 36.375  Q 47.125 51.421875 43.28125 58.90625  Q 39.453125 66.40625 31.78125 66.40625  z M 31.78125 74.21875  Q 44.046875 74.21875 50.515625 64.515625  Q 56.984375 54.828125 56.984375 36.375  Q 56.984375 17.96875 50.515625 8.265625  Q 44.046875 -1.421875 31.78125 -1.421875  Q 19.53125 -1.421875 13.0625 8.265625  Q 6.59375 17.96875 6.59375 36.375  Q 6.59375 54.828125 13.0625 64.515625  Q 19.53125 74.21875 31.78125 74.21875  z " id="DejaVuSans-30"/>
      </defs>
      <g transform="translate(70.651477 322.182437)scale(0.1 -0.1)">
       <use xlink:href="#DejaVuSans-30"/>
      </g>
     </g>
    </g>
    <g id="xtick_2">
     <g id="line2d_2">
      <g>
       <use style="stroke:#000000;stroke-width:0.8;" x="138.763636" xlink:href="#meda61c3e38" y="307.584"/>
      </g>
     </g>
     <g id="text_2">
      <!-- 2 -->
      <defs>
       <path d="M 19.1875 8.296875  L 53.609375 8.296875  L 53.609375 0  L 7.328125 0  L 7.328125 8.296875  Q 12.9375 14.109375 22.625 23.890625  Q 32.328125 33.6875 34.8125 36.53125  Q 39.546875 41.84375 41.421875 45.53125  Q 43.3125 49.21875 43.3125 52.78125  Q 43.3125 58.59375 39.234375 62.25  Q 35.15625 65.921875 28.609375 65.921875  Q 23.96875 65.921875 18.8125 64.3125  Q 13.671875 62.703125 7.8125 59.421875  L 7.8125 69.390625  Q 13.765625 71.78125 18.9375 73  Q 24.125 74.21875 28.421875 74.21875  Q 39.75 74.21875 46.484375 68.546875  Q 53.21875 62.890625 53.21875 53.421875  Q 53.21875 48.921875 51.53125 44.890625  Q 49.859375 40.875 45.40625 35.40625  Q 44.1875 33.984375 37.640625 27.21875  Q 31.109375 20.453125 19.1875 8.296875  z " id="DejaVuSans-32"/>
      </defs>
      <g transform="translate(135.582386 322.182437)scale(0.1 -0.1)">
       <use xlink:href="#DejaVuSans-32"/>
      </g>
     </g>
    </g>
    <g id="xtick_3">
     <g id="line2d_3">
      <g>
       <use style="stroke:#000000;stroke-width:0.8;" x="203.694545" xlink:href="#meda61c3e38" y="307.584"/>
      </g>
     </g>
     <g id="text_3">
      <!-- 4 -->
      <defs>
       <path d="M 37.796875 64.3125  L 12.890625 25.390625  L 37.796875 25.390625  z M 35.203125 72.90625  L 47.609375 72.90625  L 47.609375 25.390625  L 58.015625 25.390625  L 58.015625 17.1875  L 47.609375 17.1875  L 47.609375 0  L 37.796875 0  L 37.796875 17.1875  L 4.890625 17.1875  L 4.890625 26.703125  z " id="DejaVuSans-34"/>
      </defs>
      <g transform="translate(200.513295 322.182437)scale(0.1 -0.1)">
       <use xlink:href="#DejaVuSans-34"/>
      </g>
     </g>
    </g>
    <g id="xtick_4">
     <g id="line2d_4">
      <g>
       <use style="stroke:#000000;stroke-width:0.8;" x="268.625455" xlink:href="#meda61c3e38" y="307.584"/>
      </g>
     </g>
     <g id="text_4">
      <!-- 6 -->
      <defs>
       <path d="M 33.015625 40.375  Q 26.375 40.375 22.484375 35.828125  Q 18.609375 31.296875 18.609375 23.390625  Q 18.609375 15.53125 22.484375 10.953125  Q 26.375 6.390625 33.015625 6.390625  Q 39.65625 6.390625 43.53125 10.953125  Q 47.40625 15.53125 47.40625 23.390625  Q 47.40625 31.296875 43.53125 35.828125  Q 39.65625 40.375 33.015625 40.375  z M 52.59375 71.296875  L 52.59375 62.3125  Q 48.875 64.0625 45.09375 64.984375  Q 41.3125 65.921875 37.59375 65.921875  Q 27.828125 65.921875 22.671875 59.328125  Q 17.53125 52.734375 16.796875 39.40625  Q 19.671875 43.65625 24.015625 45.921875  Q 28.375 48.1875 33.59375 48.1875  Q 44.578125 48.1875 50.953125 41.515625  Q 57.328125 34.859375 57.328125 23.390625  Q 57.328125 12.15625 50.6875 5.359375  Q 44.046875 -1.421875 33.015625 -1.421875  Q 20.359375 -1.421875 13.671875 8.265625  Q 6.984375 17.96875 6.984375 36.375  Q 6.984375 53.65625 15.1875 63.9375  Q 23.390625 74.21875 37.203125 74.21875  Q 40.921875 74.21875 44.703125 73.484375  Q 48.484375 72.75 52.59375 71.296875  z " id="DejaVuSans-36"/>
      </defs>
      <g transform="translate(265.444205 322.182437)scale(0.1 -0.1)">
       <use xlink:href="#DejaVuSans-36"/>
      </g>
     </g>
    </g>
    <g id="xtick_5">
     <g id="line2d_5">
      <g>
       <use style="stroke:#000000;stroke-width:0.8;" x="333.556364" xlink:href="#meda61c3e38" y="307.584"/>
      </g>
     </g>
     <g id="text_5">
      <!-- 8 -->
      <defs>
       <path d="M 31.78125 34.625  Q 24.75 34.625 20.71875 30.859375  Q 16.703125 27.09375 16.703125 20.515625  Q 16.703125 13.921875 20.71875 10.15625  Q 24.75 6.390625 31.78125 6.390625  Q 38.8125 6.390625 42.859375 10.171875  Q 46.921875 13.96875 46.921875 20.515625  Q 46.921875 27.09375 42.890625 30.859375  Q 38.875 34.625 31.78125 34.625  z M 21.921875 38.8125  Q 15.578125 40.375 12.03125 44.71875  Q 8.5 49.078125 8.5 55.328125  Q 8.5 64.0625 14.71875 69.140625  Q 20.953125 74.21875 31.78125 74.21875  Q 42.671875 74.21875 48.875 69.140625  Q 55.078125 64.0625 55.078125 55.328125  Q 55.078125 49.078125 51.53125 44.71875  Q 48 40.375 41.703125 38.8125  Q 48.828125 37.15625 52.796875 32.3125  Q 56.78125 27.484375 56.78125 20.515625  Q 56.78125 9.90625 50.3125 4.234375  Q 43.84375 -1.421875 31.78125 -1.421875  Q 19.734375 -1.421875 13.25 4.234375  Q 6.78125 9.90625 6.78125 20.515625  Q 6.78125 27.484375 10.78125 32.3125  Q 14.796875 37.15625 21.921875 38.8125  z M 18.3125 54.390625  Q 18.3125 48.734375 21.84375 45.5625  Q 25.390625 42.390625 31.78125 42.390625  Q 38.140625 42.390625 41.71875 45.5625  Q 45.3125 48.734375 45.3125 54.390625  Q 45.3125 60.0625 41.71875 63.234375  Q 38.140625 66.40625 31.78125 66.40625  Q 25.390625 66.40625 21.84375 63.234375  Q 18.3125 60.0625 18.3125 54.390625  z " id="DejaVuSans-38"/>
      </defs>
      <g transform="translate(330.375114 322.182437)scale(0.1 -0.1)">
       <use xlink:href="#DejaVuSans-38"/>
      </g>
     </g>
    </g>
    <g id="xtick_6">
     <g id="line2d_6">
      <g>
       <use style="stroke:#000000;stroke-width:0.8;" x="398.487273" xlink:href="#meda61c3e38" y="307.584"/>
      </g>
     </g>
     <g id="text_6">
      <!-- 10 -->
      <defs>
       <path d="M 12.40625 8.296875  L 28.515625 8.296875  L 28.515625 63.921875  L 10.984375 60.40625  L 10.984375 69.390625  L 28.421875 72.90625  L 38.28125 72.90625  L 38.28125 8.296875  L 54.390625 8.296875  L 54.390625 0  L 12.40625 0  z " id="DejaVuSans-31"/>
      </defs>
      <g transform="translate(392.124773 322.182437)scale(0.1 -0.1)">
       <use xlink:href="#DejaVuSans-31"/>
       <use x="63.623047" xlink:href="#DejaVuSans-30"/>
      </g>
     </g>
    </g>
    <g id="text_7">
     <!-- $t$ -->
     <defs>
      <path d="M 42.28125 54.6875  L 40.921875 47.703125  L 23 47.703125  L 17.1875 18.015625  Q 16.890625 16.359375 16.75 15.234375  Q 16.609375 14.109375 16.609375 13.484375  Q 16.609375 10.359375 18.484375 8.9375  Q 20.359375 7.515625 24.515625 7.515625  L 33.59375 7.515625  L 32.078125 0  L 23.484375 0  Q 15.484375 0 11.546875 3.125  Q 7.625 6.25 7.625 12.59375  Q 7.625 13.71875 7.765625 15.0625  Q 7.90625 16.40625 8.203125 18.015625  L 14.015625 47.703125  L 6.390625 47.703125  L 7.8125 54.6875  L 15.28125 54.6875  L 18.3125 70.21875  L 27.296875 70.21875  L 24.3125 54.6875  z " id="DejaVuSans-Oblique-74"/>
     </defs>
     <g transform="translate(234.16 335.860562)scale(0.1 -0.1)">
      <use transform="translate(0 0.78125)" xlink:href="#DejaVuSans-Oblique-74"/>
     </g>
    </g>
   </g>
   <g id="matplotlib.axis_2">
    <g id="ytick_1">
     <g id="line2d_7">
      <defs>
       <path d="M 0 0  L -3.5 0  " id="meb4012c77c" style="stroke:#000000;stroke-width:0.8;"/>
      </defs>
      <g>
       <use style="stroke:#000000;stroke-width:0.8;" x="57.6" xlink:href="#meb4012c77c" y="295.373664"/>
      </g>
     </g>
     <g id="text_8">
      <!-- &#8722;4 -->
      <defs>
       <path d="M 10.59375 35.5  L 73.1875 35.5  L 73.1875 27.203125  L 10.59375 27.203125  z " id="DejaVuSans-2212"/>
      </defs>
      <g transform="translate(35.857813 299.172882)scale(0.1 -0.1)">
       <use xlink:href="#DejaVuSans-2212"/>
       <use x="83.789062" xlink:href="#DejaVuSans-34"/>
      </g>
     </g>
    </g>
    <g id="ytick_2">
     <g id="line2d_8">
      <g>
       <use style="stroke:#000000;stroke-width:0.8;" x="57.6" xlink:href="#meb4012c77c" y="262.202485"/>
      </g>
     </g>
     <g id="text_9">
      <!-- &#8722;3 -->
      <defs>
       <path d="M 40.578125 39.3125  Q 47.65625 37.796875 51.625 33  Q 55.609375 28.21875 55.609375 21.1875  Q 55.609375 10.40625 48.1875 4.484375  Q 40.765625 -1.421875 27.09375 -1.421875  Q 22.515625 -1.421875 17.65625 -0.515625  Q 12.796875 0.390625 7.625 2.203125  L 7.625 11.71875  Q 11.71875 9.328125 16.59375 8.109375  Q 21.484375 6.890625 26.8125 6.890625  Q 36.078125 6.890625 40.9375 10.546875  Q 45.796875 14.203125 45.796875 21.1875  Q 45.796875 27.640625 41.28125 31.265625  Q 36.765625 34.90625 28.71875 34.90625  L 20.21875 34.90625  L 20.21875 43.015625  L 29.109375 43.015625  Q 36.375 43.015625 40.234375 45.921875  Q 44.09375 48.828125 44.09375 54.296875  Q 44.09375 59.90625 40.109375 62.90625  Q 36.140625 65.921875 28.71875 65.921875  Q 24.65625 65.921875 20.015625 65.03125  Q 15.375 64.15625 9.8125 62.3125  L 9.8125 71.09375  Q 15.4375 72.65625 20.34375 73.4375  Q 25.25 74.21875 29.59375 74.21875  Q 40.828125 74.21875 47.359375 69.109375  Q 53.90625 64.015625 53.90625 55.328125  Q 53.90625 49.265625 50.4375 45.09375  Q 46.96875 40.921875 40.578125 39.3125  z " id="DejaVuSans-33"/>
      </defs>
      <g transform="translate(35.857813 266.001703)scale(0.1 -0.1)">
       <use xlink:href="#DejaVuSans-2212"/>
       <use x="83.789062" xlink:href="#DejaVuSans-33"/>
      </g>
     </g>
    </g>
    <g id="ytick_3">
     <g id="line2d_9">
      <g>
       <use style="stroke:#000000;stroke-width:0.8;" x="57.6" xlink:href="#meb4012c77c" y="229.031305"/>
      </g>
     </g>
     <g id="text_10">
      <!-- &#8722;2 -->
      <g transform="translate(35.857813 232.830524)scale(0.1 -0.1)">
       <use xlink:href="#DejaVuSans-2212"/>
       <use x="83.789062" xlink:href="#DejaVuSans-32"/>
      </g>
     </g>
    </g>
    <g id="ytick_4">
     <g id="line2d_10">
      <g>
       <use style="stroke:#000000;stroke-width:0.8;" x="57.6" xlink:href="#meb4012c77c" y="195.860126"/>
      </g>
     </g>
     <g id="text_11">
      <!-- &#8722;1 -->
      <g transform="translate(35.857813 199.659345)scale(0.1 -0.1)">
       <use xlink:href="#DejaVuSans-2212"/>
       <use x="83.789062" xlink:href="#DejaVuSans-31"/>
      </g>
     </g>
    </g>
    <g id="ytick_5">
     <g id="line2d_11">
      <g>
       <use style="stroke:#000000;stroke-width:0.8;" x="57.6" xlink:href="#meb4012c77c" y="162.688947"/>
      </g>
     </g>
     <g id="text_12">
      <!-- 0 -->
      <g transform="translate(44.2375 166.488166)scale(0.1 -0.1)">
       <use xlink:href="#DejaVuSans-30"/>
      </g>
     </g>
    </g>
    <g id="ytick_6">
     <g id="line2d_12">
      <g>
       <use style="stroke:#000000;stroke-width:0.8;" x="57.6" xlink:href="#meb4012c77c" y="129.517768"/>
      </g>
     </g>
     <g id="text_13">
      <!-- 1 -->
      <g transform="translate(44.2375 133.316987)scale(0.1 -0.1)">
       <use xlink:href="#DejaVuSans-31"/>
      </g>
     </g>
    </g>
    <g id="ytick_7">
     <g id="line2d_13">
      <g>
       <use style="stroke:#000000;stroke-width:0.8;" x="57.6" xlink:href="#meb4012c77c" y="96.346589"/>
      </g>
     </g>
     <g id="text_14">
      <!-- 2 -->
      <g transform="translate(44.2375 100.145807)scale(0.1 -0.1)">
       <use xlink:href="#DejaVuSans-32"/>
      </g>
     </g>
    </g>
    <g id="ytick_8">
     <g id="line2d_14">
      <g>
       <use style="stroke:#000000;stroke-width:0.8;" x="57.6" xlink:href="#meb4012c77c" y="63.17541"/>
      </g>
     </g>
     <g id="text_15">
      <!-- 3 -->
      <g transform="translate(44.2375 66.974628)scale(0.1 -0.1)">
       <use xlink:href="#DejaVuSans-33"/>
      </g>
     </g>
    </g>
   </g>
   <g id="line2d_15">
    <path clip-path="url(#pfea43280dd)" d="M 73.832727 61.795732  L 77.079273 61.87818  L 80.325818 62.126857  L 83.572364 62.54992  L 86.818909 63.163895  L 90.065455 63.994239  L 93.312 65.076279  L 96.558545 66.456532  L 99.805091 68.19437  L 103.051636 70.363976  L 106.298182 73.056412  L 109.544727 76.381415  L 112.791273 80.468191  L 116.037818 85.463835  L 119.284364 91.527117  L 122.530909 98.814201  L 125.777455 107.452167  L 129.024 117.497399  L 132.270545 128.881793  L 135.517091 141.361976  L 138.763636 154.500517  L 142.010182 167.707995  L 145.256727 180.346639  L 148.503273 191.854111  L 151.749818 201.830228  L 154.996364 210.057489  L 158.242909 216.467858  L 161.489455 221.087494  L 164.736 223.984956  L 167.982545 225.234111  L 171.229091 224.892943  L 174.475636 222.995767  L 177.722182 219.556528  L 180.968727 214.58231  L 184.215273 208.097105  L 187.461818 200.174995  L 190.708364 190.977923  L 193.954909 180.786529  L 197.201455 170.00695  L 200.448 159.139748  L 203.694545 148.713545  L 206.941091 139.207003  L 210.187636 130.99051  L 213.434182 124.30568  L 216.680727 119.279286  L 219.927273 115.955196  L 223.173818 114.327873  L 226.420364 114.36742  L 229.666909 116.03244  L 232.913455 119.270418  L 236.16 124.006942  L 239.406545 130.126342  L 242.653091 137.44864  L 245.899636 145.711019  L 249.146182 154.564228  L 252.392727 163.592014  L 255.639273 172.352772  L 258.885818 180.431185  L 262.132364 187.481865  L 265.378909 193.25195  L 268.625455 197.580869  L 271.872 200.384895  L 275.118545 201.636926  L 278.365091 201.349716  L 281.611636 199.566942  L 284.858182 196.363208  L 288.104727 191.851658  L 291.351273 186.195782  L 294.597818 179.619963  L 297.844364 172.412109  L 301.090909 164.912784  L 304.337455 157.48981  L 307.584 150.503718  L 310.830545 144.274113  L 314.077091 139.056411  L 317.323636 135.033117  L 320.570182 132.317524  L 323.816727 130.964048  L 327.063273 130.979134  L 330.309818 132.328559  L 333.556364 134.939422  L 336.802909 138.697404  L 340.049455 143.441775  L 343.296 148.962036  L 346.542545 155.000446  L 349.789091 161.263416  L 353.035636 167.441624  L 356.282182 173.235021  L 359.528727 178.376554  L 362.775273 182.649095  L 366.021818 185.893138  L 369.268364 188.00642  L 372.514909 188.938878  L 375.761455 188.686662  L 379.008 187.287859  L 382.254545 184.820953  L 385.501091 181.405391  L 388.747636 177.202282  L 391.994182 172.412636  L 395.240727 167.270728  L 398.487273 162.031642  " style="fill:none;stroke:#1f77b4;stroke-linecap:square;stroke-width:1.5;"/>
   </g>
   <g id="line2d_16">
    <path clip-path="url(#pfea43280dd)" d="M 73.832727 162.688947  L 77.079273 164.337774  L 80.325818 166.027212  L 83.572364 167.839439  L 86.818909 169.860333  L 90.065455 172.183272  L 93.312 174.912928  L 96.558545 178.168969  L 99.805091 182.089359  L 103.051636 186.832576  L 106.298182 192.577283  L 109.544727 199.516733  L 112.791273 207.84318  L 116.037818 217.714611  L 119.284364 229.193149  L 122.530909 242.144136  L 125.777455 256.09464  L 129.024 270.081874  L 132.270545 282.58203  L 135.517091 291.666615  L 138.763636 295.488  L 142.010182 292.962411  L 145.256727 284.242254  L 148.503273 270.617874  L 151.749818 253.926102  L 154.996364 235.892042  L 158.242909 217.744327  L 161.489455 200.145907  L 164.736 183.307501  L 167.982545 167.151444  L 171.229091 151.460027  L 174.475636 135.995865  L 177.722182 120.605858  L 180.968727 105.32305  L 184.215273 90.46874  L 187.461818 76.731915  L 190.708364 65.170023  L 193.954909 57.059155  L 197.201455 53.568  L 200.448 55.354754  L 203.694545 62.302009  L 206.941091 73.562789  L 210.187636 87.884385  L 213.434182 104.002928  L 216.680727 120.915227  L 219.927273 137.968118  L 223.173818 154.811739  L 226.420364 171.288128  L 229.666909 187.304257  L 232.913455 202.712088  L 236.16 217.207137  L 239.406545 230.262156  L 242.653091 241.125483  L 245.899636 248.917083  L 249.146182 252.827826  L 252.392727 252.365271  L 255.639273 247.532194  L 258.885818 238.837475  L 262.132364 227.134333  L 265.378909 213.380846  L 268.625455 198.439213  L 271.872 182.976533  L 275.118545 167.464442  L 278.365091 152.241874  L 281.611636 137.603526  L 284.858182 123.886137  L 288.104727 111.530999  L 291.351273 101.101806  L 294.597818 93.239467  L 297.844364 88.550458  L 301.090909 87.456481  L 304.337455 90.065131  L 307.584 96.124657  L 310.830545 105.086265  L 314.077091 116.239987  L 317.323636 128.858643  L 320.570182 142.296197  L 323.816727 156.021812  L 327.063273 169.600612  L 330.309818 182.64499  L 333.556364 194.760889  L 336.802909 205.510061  L 340.049455 214.405232  L 343.296 220.948239  L 346.542545 224.707574  L 349.789091 225.412711  L 353.035636 223.02799  L 356.282182 217.772263  L 359.528727 210.07489  L 362.775273 200.489185  L 366.021818 189.600566  L 369.268364 177.960749  L 372.514909 166.060596  L 375.761455 154.336525  L 379.008 143.19565  L 382.254545 133.04249  L 385.501091 124.292016  L 388.747636 117.358462  L 391.994182 112.61725  L 395.240727 110.348351  L 398.487273 110.679983  " style="fill:none;stroke:#ff7f0e;stroke-linecap:square;stroke-width:1.5;"/>
   </g>
   <g id="patch_3">
    <path d="M 57.6 307.584  L 57.6 41.472  " style="fill:none;stroke:#000000;stroke-linecap:square;stroke-linejoin:miter;stroke-width:0.8;"/>
   </g>
   <g id="patch_4">
    <path d="M 414.72 307.584  L 414.72 41.472  " style="fill:none;stroke:#000000;stroke-linecap:square;stroke-linejoin:miter;stroke-width:0.8;"/>
   </g>
   <g id="patch_5">
    <path d="M 57.6 307.584  L 414.72 307.584  " style="fill:none;stroke:#000000;stroke-linecap:square;stroke-linejoin:miter;stroke-width:0.8;"/>
   </g>
   <g id="patch_6">
    <path d="M 57.6 41.472  L 414.72 41.472  " style="fill:none;stroke:#000000;stroke-linecap:square;stroke-linejoin:miter;stroke-width:0.8;"/>
   </g>
   <g id="legend_1">
    <g id="patch_7">
     <path d="M 355.62 78.82825  L 407.72 78.82825  Q 409.72 78.82825 409.72 76.82825  L 409.72 48.472  Q 409.72 46.472 407.72 46.472  L 355.62 46.472  Q 353.62 46.472 353.62 48.472  L 353.62 76.82825  Q 353.62 78.82825 355.62 78.82825  z " style="fill:#ffffff;opacity:0.8;stroke:#cccccc;stroke-linejoin:miter;"/>
    </g>
    <g id="line2d_17">
     <path d="M 357.62 54.570437  L 377.62 54.570437  " style="fill:none;stroke:#1f77b4;stroke-linecap:square;stroke-width:1.5;"/>
    </g>
    <g id="line2d_18"/>
    <g id="text_16">
     <!-- $\theta(t)$ -->
     <defs>
      <path d="M 45.515625 34.671875  L 14.453125 34.671875  Q 12.359375 20.0625 14.5 13.875  Q 17.1875 6.25 24.46875 6.25  Q 31.78125 6.25 37.359375 13.921875  Q 42.234375 20.65625 45.515625 34.671875  z M 47.015625 42.96875  Q 48.34375 56.84375 46.625 61.71875  Q 43.953125 69.4375 36.765625 69.4375  Q 29.296875 69.4375 23.828125 61.8125  Q 19.53125 55.671875 16.15625 42.96875  z M 38.1875 76.765625  Q 49.90625 76.765625 54.59375 66.40625  Q 59.28125 56.109375 55.71875 37.84375  Q 52.203125 19.625 43.453125 9.28125  Q 34.765625 -1.125 23.046875 -1.125  Q 11.28125 -1.125 6.640625 9.28125  Q 2 19.625 5.515625 37.84375  Q 9.078125 56.109375 17.71875 66.40625  Q 26.421875 76.765625 38.1875 76.765625  z " id="DejaVuSans-Oblique-3b8"/>
      <path d="M 31 75.875  Q 24.46875 64.65625 21.28125 53.65625  Q 18.109375 42.671875 18.109375 31.390625  Q 18.109375 20.125 21.3125 9.0625  Q 24.515625 -2 31 -13.1875  L 23.1875 -13.1875  Q 15.875 -1.703125 12.234375 9.375  Q 8.59375 20.453125 8.59375 31.390625  Q 8.59375 42.28125 12.203125 53.3125  Q 15.828125 64.359375 23.1875 75.875  z " id="DejaVuSans-28"/>
      <path d="M 8.015625 75.875  L 15.828125 75.875  Q 23.140625 64.359375 26.78125 53.3125  Q 30.421875 42.28125 30.421875 31.390625  Q 30.421875 20.453125 26.78125 9.375  Q 23.140625 -1.703125 15.828125 -13.1875  L 8.015625 -13.1875  Q 14.5 -2 17.703125 9.0625  Q 20.90625 20.125 20.90625 31.390625  Q 20.90625 42.671875 17.703125 53.65625  Q 14.5 64.65625 8.015625 75.875  z " id="DejaVuSans-29"/>
     </defs>
     <g transform="translate(385.62 58.070437)scale(0.1 -0.1)">
      <use transform="translate(0 0.234375)" xlink:href="#DejaVuSans-Oblique-3b8"/>
      <use transform="translate(61.181641 0.234375)" xlink:href="#DejaVuSans-28"/>
      <use transform="translate(100.195312 0.234375)" xlink:href="#DejaVuSans-Oblique-74"/>
      <use transform="translate(139.404297 0.234375)" xlink:href="#DejaVuSans-29"/>
     </g>
    </g>
    <g id="line2d_19">
     <path d="M 357.62 69.248562  L 377.62 69.248562  " style="fill:none;stroke:#ff7f0e;stroke-linecap:square;stroke-width:1.5;"/>
    </g>
    <g id="line2d_20"/>
    <g id="text_17">
     <!-- $\omega(t)$ -->
     <defs>
      <path d="M 21.390625 -1.421875  Q 1.125 -1.421875 6.78125 27.59375  Q 8.984375 39.0625 19.625 54.6875  L 29.296875 54.6875  Q 19.234375 39.0625 17 27.34375  Q 12.796875 6.203125 23.734375 6.203125  Q 33.84375 6.203125 38.71875 32.46875  L 47.015625 32.46875  Q 41.703125 6.0625 51.8125 6.203125  Q 62.703125 6.296875 66.796875 27.34375  Q 69.046875 39.0625 65.140625 54.6875  L 74.8125 54.6875  Q 79.296875 39.0625 77.09375 27.59375  Q 71.53125 -1.46875 51.21875 -1.421875  Q 37.9375 -1.375 39.109375 13.1875  Q 34.28125 -1.421875 21.390625 -1.421875  z " id="DejaVuSans-Oblique-3c9"/>
     </defs>
     <g transform="translate(385.62 72.748562)scale(0.1 -0.1)">
      <use transform="translate(0 0.125)" xlink:href="#DejaVuSans-Oblique-3c9"/>
      <use transform="translate(83.740234 0.125)" xlink:href="#DejaVuSans-28"/>
      <use transform="translate(122.753906 0.125)" xlink:href="#DejaVuSans-Oblique-74"/>
      <use transform="translate(161.962891 0.125)" xlink:href="#DejaVuSans-29"/>
     </g>
    </g>
   </g>
  </g>
 </g>
 <defs>
  <clipPath id="pfea43280dd">
   <rect height="266.112" width="357.12" x="57.6" y="41.472"/>
  </clipPath>
 </defs>
</svg>