<svg xmlns="http://www.w3.org/2000/svg" xmlns:xlink="http://www.w3.org/1999/xlink" version="1.1" viewBox="0 0 460 345" viewport="0 0 400px 300px">
 <defs>
  <style type="text/css">
*{stroke-linecap:butt;stroke-linejoin:round;}
  </style>
 </defs>
 <g id="figure_1">
  <g id="patch_1">
   <path d="M 0 345.6  L 460.8 345.6  L 460.8 0  L 0 0  z " style="fill:#ffffff;"/>
  </g>
  <g id="axes_1">
   <g id="patch_2">
    <path d="M 57.6 307.584  L 414.72 307.584  L 414.72 41.472  L 57.6 41.472  z " style="fill:#ffffff;"/>
   </g>
   <g id="matplotlib.axis_1">
    <g id="xtick_1">
     <g id="line2d_1">
      <defs>
       <path d="M 0 0  L 0 3.5  " id="m4be844b412" style="stroke:#000000;stroke-width:0.8;"/>
      </defs>
      <g>
       <use style="stroke:#000000;stroke-width:0.8;" x="73.832727" xlink:href="#m4be844b412" y="307.584"/>
      </g>
     </g>
     <g id="text_1">
      <!-- &#8722;1.00 -->
      <defs>
       <path d="M 10.59375 35.5  L 73.1875 35.5  L 73.1875 27.203125  L 10.59375 27.203125  z " id="DejaVuSans-2212"/>
       <path d="M 12.40625 8.296875  L 28.515625 8.296875  L 28.515625 63.921875  L 10.984375 60.40625  L 10.984375 69.390625  L 28.421875 72.90625  L 38.28125 72.90625  L 38.28125 8.296875  L 54.390625 8.296875  L 54.390625 0  L 12.40625 0  z " id="DejaVuSans-31"/>
       <path d="M 10.6875 12.40625  L 21 12.40625  L 21 0  L 10.6875 0  z " id="DejaVuSans-2e"/>
       <path d="M 31.78125 66.40625  Q 24.171875 66.40625 20.328125 58.90625  Q 16.5 51.421875 16.5 36.375  Q 16.5 21.390625 20.328125 13.890625  Q 24.171875 6.390625 31.78125 6.390625  Q 39.453125 6.390625 43.28125 13.890625  Q 47.125 21.390625 47.125 36.375  Q 47.125 51.421875 43.28125 58.90625  Q 39.453125 66.40625 31.78125 66.40625  z M 31.78125 74.21875  Q 44.046875 74.21875 50.515625 64.515625  Q 56.984375 54.828125 56.984375 36.375  Q 56.984375 17.96875 50.515625 8.265625  Q 44.046875 -1.421875 31.78125 -1.421875  Q 19.53125 -1.421875 13.0625 8.265625  Q 6.59375 17.96875 6.59375 36.375  Q 6.59375 54.828125 13.0625 64.515625  Q 19.53125 74.21875 31.78125 74.21875  z " id="DejaVuSans-30"/>
      </defs>
      <g transform="translate(58.510071 322.182437)scale(0.1 -0.1)">
       <use xlink:href="#DejaVuSans-2212"/>
       <use x="83.789062" xlink:href="#DejaVuSans-31"/>
       <use x="147.412109" xlink:href="#DejaVuSans-2e"/>
       <use x="179.199219" xlink:href="#DejaVuSans-30"/>
       <use x="242.822266" xlink:href="#DejaVuSans-30"/>
      </g>
     </g>
    </g>
    <g id="xtick_2">
     <g id="line2d_2">
      <g>
       <use style="stroke:#000000;stroke-width:0.8;" x="114.414545" xlink:href="#m4be844b412" y="307.584"/>
      </g>
     </g>
     <g id="text_2">
      <!-- &#8722;0.75 -->
      <defs>
       <path d="M 8.203125 72.90625  L 55.078125 72.90625  L 55.078125 68.703125  L 28.609375 0  L 18.3125 0  L 43.21875 64.59375  L 8.203125 64.59375  z " id="DejaVuSans-37"/>
       <path d="M 10.796875 72.90625  L 49.515625 72.90625  L 49.515625 64.59375  L 19.828125 64.59375  L 19.828125 46.734375  Q 21.96875 47.46875 24.109375 47.828125  Q 26.265625 48.1875 28.421875 48.1875  Q 40.625 48.1875 47.75 41.5  Q 54.890625 34.8125 54.890625 23.390625  Q 54.890625 11.625 47.5625 5.09375  Q 40.234375 -1.421875 26.90625 -1.421875  Q 22.3125 -1.421875 17.546875 -0.640625  Q 12.796875 0.140625 7.71875 1.703125  L 7.71875 11.625  Q 12.109375 9.234375 16.796875 8.0625  Q 21.484375 6.890625 26.703125 6.890625  Q 35.15625 6.890625 40.078125 11.328125  Q 45.015625 15.765625 45.015625 23.390625  Q 45.015625 31 40.078125 35.4375  Q 35.15625 39.890625 26.703125 39.890625  Q 22.75 39.890625 18.8125 39.015625  Q 14.890625 38.140625 10.796875 36.28125  z " id="DejaVuSans-35"/>
      </defs>
      <g transform="translate(99.091889 322.182437)scale(0.1 -0.1)">
       <use xlink:href="#DejaVuSans-2212"/>
       <use x="83.789062" xlink:href="#DejaVuSans-30"/>
       <use x="147.412109" xlink:href="#DejaVuSans-2e"/>
       <use x="179.199219" xlink:href="#DejaVuSans-37"/>
       <use x="242.822266" xlink:href="#DejaVuSans-35"/>
      </g>
     </g>
    </g>
    <g id="xtick_3">
     <g id="line2d_3">
      <g>
       <use style="stroke:#000000;stroke-width:0.8;" x="154.996364" xlink:href="#m4be844b412" y="307.584"/>
      </g>
     </g>
     <g id="text_3">
      <!-- &#8722;0.50 -->
      <g transform="translate(139.673707 322.182437)scale(0.1 -0.1)">
       <use xlink:href="#DejaVuSans-2212"/>
       <use x="83.789062" xlink:href="#DejaVuSans-30"/>
       <use x="147.412109" xlink:href="#DejaVuSans-2e"/>
       <use x="179.199219" xlink:href="#DejaVuSans-35"/>
       <use x="242.822266" xlink:href="#DejaVuSans-30"/>
      </g>
     </g>
    </g>
    <g id="xtick_4">
     <g id="line2d_4">
      <g>
       <use style="stroke:#000000;stroke-width:0.8;" x="195.578182" xlink:href="#m4be844b412" y="307.584"/>
      </g>
     </g>
     <g id="text_4">
      <!-- &#8722;0.25 -->
      <defs>
       <path d="M 19.1875 8.296875  L 53.609375 8.296875  L 53.609375 0  L 7.328125 0  L 7.328125 8.296875  Q 12.9375 14.109375 22.625 23.890625  Q 32.328125 33.6875 34.8125 36.53125  Q 39.546875 41.84375 41.421875 45.53125  Q 43.3125 49.21875 43.3125 52.78125  Q 43.3125 58.59375 39.234375 62.25  Q 35.15625 65.921875 28.609375 65.921875  Q 23.96875 65.921875 18.8125 64.3125  Q 13.671875 62.703125 7.8125 59.421875  L 7.8125 69.390625  Q 13.765625 71.78125 18.9375 73  Q 24.125 74.21875 28.421875 74.21875  Q 39.75 74.21875 46.484375 68.546875  Q 53.21875 62.890625 53.21875 53.421875  Q 53.21875 48.921875 51.53125 44.890625  Q 49.859375 40.875 45.40625 35.40625  Q 44.1875 33.984375 37.640625 27.21875  Q 31.109375 20.453125 19.1875 8.296875  z " id="DejaVuSans-32"/>
      </defs>
      <g transform="translate(180.255526 322.182437)scale(0.1 -0.1)">
       <use xlink:href="#DejaVuSans-2212"/>
       <use x="83.789062" xlink:href="#DejaVuSans-30"/>
       <use x="147.412109" xlink:href="#DejaVuSans-2e"/>
       <use x="179.199219" xlink:href="#DejaVuSans-32"/>
       <use x="242.822266" xlink:href="#DejaVuSans-35"/>
      </g>
     </g>
    </g>
    <g id="xtick_5">
     <g id="line2d_5">
      <g>
       <use style="stroke:#000000;stroke-width:0.8;" x="236.16" xlink:href="#m4be844b412" y="307.584"/>
      </g>
     </g>
     <g id="text_5">
      <!-- 0.00 -->
      <g transform="translate(225.027187 322.182437)scale(0.1 -0.1)">
       <use xlink:href="#DejaVuSans-30"/>
       <use x="63.623047" xlink:href="#DejaVuSans-2e"/>
       <use x="95.410156" xlink:href="#DejaVuSans-30"/>
       <use x="159.033203" xlink:href="#DejaVuSans-30"/>
      </g>
     </g>
    </g>
    <g id="xtick_6">
     <g id="line2d_6">
      <g>
       <use style="stroke:#000000;stroke-width:0.8;" x="276.741818" xlink:href="#m4be844b412" y="307.584"/>
      </g>
     </g>
     <g id="text_6">
      <!-- 0.25 -->
      <g transform="translate(265.609006 322.182437)scale(0.1 -0.1)">
       <use xlink:href="#DejaVuSans-30"/>
       <use x="63.623047" xlink:href="#DejaVuSans-2e"/>
       <use x="95.410156" xlink:href="#DejaVuSans-32"/>
       <use x="159.033203" xlink:href="#DejaVuSans-35"/>
      </g>
     </g>
    </g>
    <g id="xtick_7">
     <g id="line2d_7">
      <g>
       <use style="stroke:#000000;stroke-width:0.8;" x="317.323636" xlink:href="#m4be844b412" y="307.584"/>
      </g>
     </g>
     <g id="text_7">
      <!-- 0.50 -->
      <g transform="translate(306.190824 322.182437)scale(0.1 -0.1)">
       <use xlink:href="#DejaVuSans-30"/>
       <use x="63.623047" xlink:href="#DejaVuSans-2e"/>
       <use x="95.410156" xlink:href="#DejaVuSans-35"/>
       <use x="159.033203" xlink:href="#DejaVuSans-30"/>
      </g>
     </g>
    </g>
    <g id="xtick_8">
     <g id="line2d_8">
      <g>
       <use style="stroke:#000000;stroke-width:0.8;" x="357.905455" xlink:href="#m4be844b412" y="307.584"/>
      </g>
     </g>
     <g id="text_8">
      <!-- 0.75 -->
      <g transform="translate(346.772642 322.182437)scale(0.1 -0.1)">
       <use xlink:href="#DejaVuSans-30"/>
       <use x="63.623047" xlink:href="#DejaVuSans-2e"/>
       <use x="95.410156" xlink:href="#DejaVuSans-37"/>
       <use x="159.033203" xlink:href="#DejaVuSans-35"/>
      </g>
     </g>
    </g>
    <g id="xtick_9">
     <g id="line2d_9">
      <g>
       <use style="stroke:#000000;stroke-width:0.8;" x="398.487273" xlink:href="#m4be844b412" y="307.584"/>
      </g>
     </g>
     <g id="text_9">
      <!-- 1.00 -->
      <g transform="translate(387.35446 322.182437)scale(0.1 -0.1)">
       <use xlink:href="#DejaVuSans-31"/>
       <use x="63.623047" xlink:href="#DejaVuSans-2e"/>
       <use x="95.410156" xlink:href="#DejaVuSans-30"/>
       <use x="159.033203" xlink:href="#DejaVuSans-30"/>
      </g>
     </g>
    </g>
    <g id="text_10">
     <!-- x -->
     <defs>
      <path d="M 54.890625 54.6875  L 35.109375 28.078125  L 55.90625 0  L 45.3125 0  L 29.390625 21.484375  L 13.484375 0  L 2.875 0  L 24.125 28.609375  L 4.6875 54.6875  L 15.28125 54.6875  L 29.78125 35.203125  L 44.28125 54.6875  z " id="DejaVuSans-78"/>
     </defs>
     <g transform="translate(233.200625 335.860562)scale(0.1 -0.1)">
      <use xlink:href="#DejaVuSans-78"/>
     </g>
    </g>
   </g>
   <g id="matplotlib.axis_2">
    <g id="ytick_1">
     <g id="line2d_10">
      <defs>
       <path d="M 0 0  L -3.5 0  " id="m38f609ea5f" style="stroke:#000000;stroke-width:0.8;"/>
      </defs>
      <g>
       <use style="stroke:#000000;stroke-width:0.8;" x="57.6" xlink:href="#m38f609ea5f" y="267.412875"/>
      </g>
     </g>
     <g id="text_11">
      <!-- 0.0 -->
      <g transform="translate(34.696875 271.212094)scale(0.1 -0.1)">
       <use xlink:href="#DejaVuSans-30"/>
       <use x="63.623047" xlink:href="#DejaVuSans-2e"/>
       <use x="95.410156" xlink:href="#DejaVuSans-30"/>
      </g>
     </g>
    </g>
    <g id="ytick_2">
     <g id="line2d_11">
      <g>
       <use style="stroke:#000000;stroke-width:0.8;" x="57.6" xlink:href="#m38f609ea5f" y="212.831294"/>
      </g>
     </g>
     <g id="text_12">
      <!-- 0.5 -->
      <g transform="translate(34.696875 216.630512)scale(0.1 -0.1)">
       <use xlink:href="#DejaVuSans-30"/>
       <use x="63.623047" xlink:href="#DejaVuSans-2e"/>
       <use x="95.410156" xlink:href="#DejaVuSans-35"/>
      </g>
     </g>
    </g>
    <g id="ytick_3">
     <g id="line2d_12">
      <g>
       <use style="stroke:#000000;stroke-width:0.8;" x="57.6" xlink:href="#m38f609ea5f" y="158.249713"/>
      </g>
     </g>
     <g id="text_13">
      <!-- 1.0 -->
      <g transform="translate(34.696875 162.048931)scale(0.1 -0.1)">
       <use xlink:href="#DejaVuSans-31"/>
       <use x="63.623047" xlink:href="#DejaVuSans-2e"/>
       <use x="95.410156" xlink:href="#DejaVuSans-30"/>
      </g>
     </g>
    </g>
    <g id="ytick_4">
     <g id="line2d_13">
      <g>
       <use style="stroke:#000000;stroke-width:0.8;" x="57.6" xlink:href="#m38f609ea5f" y="103.668131"/>
      </g>
     </g>
     <g id="text_14">
      <!-- 1.5 -->
      <g transform="translate(34.696875 107.46735)scale(0.1 -0.1)">
       <use xlink:href="#DejaVuSans-31"/>
       <use x="63.623047" xlink:href="#DejaVuSans-2e"/>
       <use x="95.410156" xlink:href="#DejaVuSans-35"/>
      </g>
     </g>
    </g>
    <g id="ytick_5">
     <g id="line2d_14">
      <g>
       <use style="stroke:#000000;stroke-width:0.8;" x="57.6" xlink:href="#m38f609ea5f" y="49.08655"/>
      </g>
     </g>
     <g id="text_15">
      <!-- 2.0 -->
      <g transform="translate(34.696875 52.885769)scale(0.1 -0.1)">
       <use xlink:href="#DejaVuSans-32"/>
       <use x="63.623047" xlink:href="#DejaVuSans-2e"/>
       <use x="95.410156" xlink:href="#DejaVuSans-30"/>
      </g>
     </g>
    </g>
    <g id="text_16">
     <!-- y -->
     <defs>
      <path d="M 32.171875 -5.078125  Q 28.375 -14.84375 24.75 -17.8125  Q 21.140625 -20.796875 15.09375 -20.796875  L 7.90625 -20.796875  L 7.90625 -13.28125  L 13.1875 -13.28125  Q 16.890625 -13.28125 18.9375 -11.515625  Q 21 -9.765625 23.484375 -3.21875  L 25.09375 0.875  L 2.984375 54.6875  L 12.5 54.6875  L 29.59375 11.921875  L 46.6875 54.6875  L 56.203125 54.6875  z " id="DejaVuSans-79"/>
     </defs>
     <g transform="translate(28.617188 177.487375)rotate(-90)scale(0.1 -0.1)">
      <use xlink:href="#DejaVuSans-79"/>
     </g>
    </g>
   </g>
   <g id="line2d_15">
    <path clip-path="url(#p48829a8a4d)" d="M 73.832727 263.214292  L 77.112066 263.046366  L 80.391405 262.868312  L 83.670744 262.679313  L 86.950083 262.478466  L 90.229421 262.264779  L 93.50876 262.037154  L 96.788099 261.794377  L 100.067438 261.535098  L 103.346777 261.257822  L 106.626116 260.960882  L 109.905455 260.642418  L 113.184793 260.300353  L 116.464132 259.93236  L 119.743471 259.535825  L 123.02281 259.107811  L 126.302149 258.645004  L 129.581488 258.143662  L 132.860826 257.599544  L 136.140165 257.00784  L 139.419504 256.363073  L 142.698843 255.659001  L 145.978182 254.888489  L 149.257521 254.043368  L 152.53686 253.11426  L 155.816198 252.090385  L 159.095537 250.959331  L 162.374876 249.706786  L 165.654215 248.316238  L 168.933554 246.768639  L 172.212893 245.042027  L 175.492231 243.111141  L 178.77157 240.947032  L 182.050909 238.516744  L 185.330248 235.783118  L 188.609587 232.704896  L 191.888926 229.237318  L 195.168264 225.33358  L 198.447603 220.947655  L 201.726942 216.0392  L 205.006281 210.581463  L 208.28562 204.573209  L 211.564959 198.055416  L 214.844298 191.132527  L 218.123636 183.995741  L 221.402975 176.942035  L 224.682314 170.377853  L 227.961653 164.793639  L 231.240992 160.699514  L 234.520331 158.527453  L 237.799669 158.527453  L 241.079008 160.699514  L 244.358347 164.793639  L 247.637686 170.377853  L 250.917025 176.942035  L 254.196364 183.995741  L 257.475702 191.132527  L 260.755041 198.055416  L 264.03438 204.573209  L 267.313719 210.581463  L 270.593058 216.0392  L 273.872397 220.947655  L 277.151736 225.33358  L 280.431074 229.237318  L 283.710413 232.704896  L 286.989752 235.783118  L 290.269091 238.516744  L 293.54843 240.947032  L 296.827769 243.111141  L 300.107107 245.042027  L 303.386446 246.768639  L 306.665785 248.316238  L 309.945124 249.706786  L 313.224463 250.959331  L 316.503802 252.090385  L 319.78314 253.11426  L 323.062479 254.043368  L 326.341818 254.888489  L 329.621157 255.659001  L 332.900496 256.363073  L 336.179835 257.00784  L 339.459174 257.599544  L 342.738512 258.143662  L 346.017851 258.645004  L 349.29719 259.107811  L 352.576529 259.535825  L 355.855868 259.93236  L 359.135207 260.300353  L 362.414545 260.642418  L 365.693884 260.960882  L 368.973223 261.257822  L 372.252562 261.535098  L 375.531901 261.794377  L 378.81124 262.037154  L 382.090579 262.264779  L 385.369917 262.478466  L 388.649256 262.679313  L 391.928595 262.868312  L 395.207934 263.046366  L 398.487273 263.214292  " style="fill:none;stroke:#000000;stroke-linecap:square;stroke-width:1.5;"/>
   </g>
   <g id="line2d_16">
    <path clip-path="url(#p48829a8a4d)" d="M 73.832727 263.214292  L 75.132645 201.39762  L 76.107584 163.844181  L 77.082523 133.015263  L 78.057461 108.224202  L 79.0324 88.833838  L 80.007338 74.253857  L 80.657297 66.934918  L 81.307256 61.359039  L 81.957215 57.382823  L 82.607174 54.870522  L 82.932154 54.122938  L 83.257133 53.693746  L 83.582113 53.568  L 83.907093 53.731179  L 84.232072 54.169176  L 84.882031 55.81524  L 85.53199 58.401357  L 86.181949 61.828828  L 87.156888 68.346095  L 88.456806 79.160931  L 90.081704 95.24653  L 92.35656 120.761003  L 99.18113 199.703415  L 101.455987 222.538704  L 103.405864 239.785157  L 105.030762 252.358664  L 106.655659 263.238969  L 108.280557 272.420412  L 109.580475 278.56316  L 110.880393 283.670138  L 112.180311 287.783176  L 113.15525 290.245765  L 114.130188 292.20141  L 115.105127 293.675802  L 116.080066 294.696071  L 117.055004 295.290454  L 117.704963 295.464426  L 118.354922 295.470765  L 119.004881 295.318292  L 119.97982 294.811195  L 120.954758 293.99663  L 121.929697 292.904361  L 123.229615 291.066795  L 124.529533 288.856028  L 126.154431 285.668063  L 128.429287 280.630364  L 132.004062 272.028142  L 136.228796 261.974159  L 138.828632 256.364047  L 141.103489 252.016975  L 143.053366 248.782145  L 144.678264 246.460937  L 146.303161 244.491854  L 147.928059 242.877153  L 149.552957 241.611518  L 151.177854 240.682792  L 152.477772 240.170306  L 153.77769 239.85003  L 155.402588 239.698859  L 157.027486 239.795922  L 158.652383 240.107426  L 160.60226 240.712958  L 162.877117 241.654949  L 166.776871 243.558904  L 170.351646 245.228724  L 172.626503 246.067633  L 174.57638 246.56516  L 176.201278 246.784769  L 177.826175 246.799599  L 179.451073 246.587436  L 181.075971 246.12968  L 182.700868 245.41149  L 184.325766 244.421885  L 185.950663 243.153788  L 187.575561 241.60404  L 189.200459 239.773352  L 191.150336 237.212296  L 193.100213 234.268125  L 195.37507 230.378748  L 197.649926 226.044527  L 200.249762 220.620839  L 203.499558 213.28656  L 208.049271 202.397507  L 214.548862 186.858126  L 217.798657 179.672631  L 220.398493 174.434163  L 222.67335 170.322557  L 224.623227 167.205323  L 226.573104 164.505396  L 228.198002 162.598959  L 229.822899 161.022777  L 231.447797 159.790687  L 232.747715 159.060138  L 234.047633 158.560904  L 235.347551 158.295795  L 236.647469 158.266304  L 237.947387 158.472597  L 239.247305 158.913511  L 240.547224 159.586566  L 241.847142 160.487975  L 243.472039 161.928015  L 245.096937 163.704198  L 246.721835 165.800941  L 248.671712 168.714112  L 250.621589 172.025595  L 252.896446 176.33663  L 255.496282 181.763172  L 258.746077 189.118376  L 263.62077 200.817488  L 269.795381 215.540008  L 273.045176 222.707832  L 275.645012 227.953064  L 277.919869 232.103073  L 280.194726 235.78689  L 282.144603 238.54181  L 284.09448 240.905309  L 285.719378 242.567734  L 287.344275 243.94833  L 288.969173 245.048702  L 290.59407 245.874358  L 292.218968 246.434721  L 293.843866 246.743097  L 295.468763 246.816597  L 297.093661 246.67601  L 299.043538 246.259145  L 300.993415 245.617292  L 303.593251 244.505993  L 312.367699 240.486659  L 314.317576 239.959369  L 315.942473 239.729406  L 317.567371 239.72775  L 319.192269 239.986959  L 320.492187 240.401735  L 321.792105 241.014894  L 323.092023 241.837211  L 324.391941 242.877153  L 326.016839 244.491854  L 327.641736 246.460937  L 329.266634 248.782145  L 331.216511 252.016975  L 333.166388 255.708067  L 335.441245 260.516462  L 338.366061 267.2965  L 345.84059 284.983783  L 347.790467 288.856028  L 349.415364 291.563807  L 350.715283 293.297481  L 351.690221 294.300473  L 352.66516 295.015867  L 353.640098 295.413827  L 354.290057 295.488  L 354.940016 295.398943  L 355.589975 295.137868  L 356.239934 294.696071  L 357.214873 293.675802  L 358.189812 292.20141  L 359.16475 290.245765  L 360.139689 287.783176  L 361.114627 284.789741  L 362.414545 279.935539  L 363.714464 274.055112  L 365.014382 267.114362  L 366.3143 259.091331  L 367.939197 247.530668  L 369.564095 234.291523  L 371.513972 216.29545  L 373.463849 196.229852  L 376.063686 166.951049  L 382.563276 91.847015  L 384.188174 76.259213  L 385.488092 66.004841  L 386.46303 60.015859  L 387.112989 56.997101  L 387.762948 54.868296  L 388.412907 53.731179  L 388.737887 53.568  L 389.062867 53.693746  L 389.387846 54.122938  L 389.712826 54.870522  L 390.362785 57.382823  L 391.012744 61.359039  L 391.662703 66.934918  L 392.312662 74.253857  L 392.962621 83.467208  L 393.937559 101.19076  L 394.912498 124.11316  L 395.887437 152.855664  L 396.862375 188.088131  L 397.837314 230.531758  L 398.487273 263.214292  L 398.487273 263.214292  " style="fill:none;stroke:#1f77b4;stroke-linecap:square;stroke-width:1.5;"/>
   </g>
   <g id="line2d_17">
    <path clip-path="url(#p48829a8a4d)" d="M 73.832727 263.214292  L 74.807666 262.021401  L 75.782604 261.196586  L 76.757543 260.683397  L 77.732482 260.43072  L 78.70742 260.392442  L 80.007338 260.603908  L 81.632236 261.171014  L 83.907093 262.284294  L 88.456806 264.616594  L 90.406683 265.374905  L 92.35656 265.893467  L 93.981458 266.12063  L 95.606355 266.154872  L 97.231253 265.998825  L 99.18113 265.573947  L 101.131007 264.91481  L 103.405864 263.895289  L 106.0057 262.476847  L 109.905455 260.055047  L 115.755086 256.410824  L 118.679902 254.842552  L 121.279738 253.689785  L 123.554595 252.902633  L 125.829451 252.340971  L 128.104308 252.012598  L 130.379165 251.91598  L 132.654021 252.040849  L 135.253857 252.431053  L 137.853694 253.048127  L 141.103489 254.063898  L 146.303161 255.984142  L 151.177854 257.709511  L 154.10267 258.521007  L 156.702506 259.00961  L 158.977363 259.208238  L 160.92724 259.179303  L 162.877117 258.944743  L 164.826994 258.48652  L 166.776871 257.789297  L 168.726749 256.840625  L 170.676626 255.631088  L 172.626503 254.154403  L 174.57638 252.407488  L 176.526257 250.390488  L 178.801114 247.700625  L 181.075971 244.65863  L 183.675807 240.772262  L 186.275643 236.480902  L 189.200459 231.221448  L 192.450254 224.925953  L 196.674988 216.214107  L 211.624046 184.802435  L 214.873841 178.768099  L 217.798657 173.832641  L 220.398493 169.913109  L 222.67335 166.889883  L 224.623227 164.626579  L 226.573104 162.685145  L 228.522981 161.08102  L 230.147879 160.011219  L 231.772776 159.190507  L 233.397674 158.623435  L 235.022572 158.313148  L 236.647469 158.261366  L 238.272367 158.468378  L 239.897265 158.933034  L 241.522162 159.652757  L 243.14706 160.623558  L 244.771957 161.840056  L 246.721835 163.614602  L 248.671712 165.719063  L 250.621589 168.136716  L 252.896446 171.327448  L 255.496282 175.419704  L 258.096118 179.932307  L 261.345913 186.06802  L 265.245667 193.980852  L 271.095299 206.466173  L 278.244848 221.633516  L 282.144603 229.37821  L 285.394398 235.349508  L 288.319214 240.257212  L 290.91905 244.196204  L 293.193907 247.287289  L 295.468763 250.028252  L 297.74362 252.407488  L 299.693497 254.154403  L 301.643374 255.631088  L 303.593251 256.840625  L 305.543129 257.789297  L 307.493006 258.48652  L 309.442883 258.944743  L 311.39276 259.179303  L 313.342637 259.208238  L 315.617494 259.00961  L 317.892351 258.595478  L 320.492187 257.909479  L 324.066962 256.709039  L 334.141327 253.138895  L 337.066143 252.431053  L 339.665979 252.040849  L 341.940835 251.91598  L 344.215692 252.012598  L 346.490549 252.340971  L 348.765405 252.902633  L 351.040262 253.689785  L 353.640098 254.842552  L 356.564914 256.410824  L 360.464668 258.803178  L 366.964259 262.85173  L 369.564095 264.210871  L 371.838952 265.158589  L 373.788829 265.743077  L 375.738706 266.083613  L 377.363604 266.164325  L 378.988501 266.052801  L 380.613399 265.749538  L 382.563276 265.14663  L 384.838133 264.163621  L 388.412907 262.284294  L 391.012744 261.037014  L 392.637641 260.527114  L 393.937559 260.38403  L 394.912498 260.488946  L 395.887437 260.823096  L 396.862375 261.434225  L 397.837314 262.375185  L 398.487273 263.214292  L 398.487273 263.214292  " style="fill:none;stroke:#ff7f0e;stroke-linecap:square;stroke-width:1.5;"/>
   </g>
   <g id="patch_3">
    <path d="M 57.6 307.584  L 57.6 41.472  " style="fill:none;stroke:#000000;stroke-linecap:square;stroke-linejoin:miter;stroke-width:0.8;"/>
   </g>
   <g id="patch_4">
    <path d="M 414.72 307.584  L 414.72 41.472  " style="fill:none;stroke:#000000;stroke-linecap:square;stroke-linejoin:miter;stroke-width:0.8;"/>
   </g>
   <g id="patch_5">
    <path d="M 57.6 307.584  L 414.72 307.584  " style="fill:none;stroke:#000000;stroke-linecap:square;stroke-linejoin:miter;stroke-width:0.8;"/>
   </g>
   <g id="patch_6">
    <path d="M 57.6 41.472  L 414.72 41.472  " style="fill:none;stroke:#000000;stroke-linecap:square;stroke-linejoin:miter;stroke-width:0.8;"/>
   </g>
   <g id="legend_1">
    <g id="patch_7">
     <path d="M 142.955312 93.506375  L 329.364688 93.506375  Q 331.364688 93.506375 331.364688 91.506375  L 331.364688 48.472  Q 331.364688 46.472 329.364688 46.472  L 142.955312 46.472  Q 140.955312 46.472 140.955312 48.472  L 140.955312 91.506375  Q 140.955312 93.506375 142.955312 93.506375  z " style="fill:#ffffff;opacity:0.8;stroke:#cccccc;stroke-linejoin:miter;"/>
    </g>
    <g id="line2d_18">
     <path d="M 144.955312 54.570438  L 164.955312 54.570438  " style="fill:none;stroke:#000000;stroke-linecap:square;stroke-width:1.5;"/>
    </g>
    <g id="line2d_19"/>
    <g id="text_17">
     <!-- Runge function -->
     <defs>
      <path d="M 44.390625 34.1875  Q 47.5625 33.109375 50.5625 29.59375  Q 53.5625 26.078125 56.59375 19.921875  L 66.609375 0  L 56 0  L 46.6875 18.703125  Q 43.0625 26.03125 39.671875 28.421875  Q 36.28125 30.8125 30.421875 30.8125  L 19.671875 30.8125  L 19.671875 0  L 9.8125 0  L 9.8125 72.90625  L 32.078125 72.90625  Q 44.578125 72.90625 50.734375 67.671875  Q 56.890625 62.453125 56.890625 51.90625  Q 56.890625 45.015625 53.6875 40.46875  Q 50.484375 35.9375 44.390625 34.1875  z M 19.671875 64.796875  L 19.671875 38.921875  L 32.078125 38.921875  Q 39.203125 38.921875 42.84375 42.21875  Q 46.484375 45.515625 46.484375 51.90625  Q 46.484375 58.296875 42.84375 61.546875  Q 39.203125 64.796875 32.078125 64.796875  z " id="DejaVuSans-52"/>
      <path d="M 8.5 21.578125  L 8.5 54.6875  L 17.484375 54.6875  L 17.484375 21.921875  Q 17.484375 14.15625 20.5 10.265625  Q 23.53125 6.390625 29.59375 6.390625  Q 36.859375 6.390625 41.078125 11.03125  Q 45.3125 15.671875 45.3125 23.6875  L 45.3125 54.6875  L 54.296875 54.6875  L 54.296875 0  L 45.3125 0  L 45.3125 8.40625  Q 42.046875 3.421875 37.71875 1  Q 33.40625 -1.421875 27.6875 -1.421875  Q 18.265625 -1.421875 13.375 4.4375  Q 8.5 10.296875 8.5 21.578125  z M 31.109375 56  z " id="DejaVuSans-75"/>
      <path d="M 54.890625 33.015625  L 54.890625 0  L 45.90625 0  L 45.90625 32.71875  Q 45.90625 40.484375 42.875 44.328125  Q 39.84375 48.1875 33.796875 48.1875  Q 26.515625 48.1875 22.3125 43.546875  Q 18.109375 38.921875 18.109375 30.90625  L 18.109375 0  L 9.078125 0  L 9.078125 54.6875  L 18.109375 54.6875  L 18.109375 46.1875  Q 21.34375 51.125 25.703125 53.5625  Q 30.078125 56 35.796875 56  Q 45.21875 56 50.046875 50.171875  Q 54.890625 44.34375 54.890625 33.015625  z " id="DejaVuSans-6e"/>
      <path d="M 45.40625 27.984375  Q 45.40625 37.75 41.375 43.109375  Q 37.359375 48.484375 30.078125 48.484375  Q 22.859375 48.484375 18.828125 43.109375  Q 14.796875 37.75 14.796875 27.984375  Q 14.796875 18.265625 18.828125 12.890625  Q 22.859375 7.515625 30.078125 7.515625  Q 37.359375 7.515625 41.375 12.890625  Q 45.40625 18.265625 45.40625 27.984375  z M 54.390625 6.78125  Q 54.390625 -7.171875 48.1875 -13.984375  Q 42 -20.796875 29.203125 -20.796875  Q 24.46875 -20.796875 20.265625 -20.09375  Q 16.0625 -19.390625 12.109375 -17.921875  L 12.109375 -9.1875  Q 16.0625 -11.328125 19.921875 -12.34375  Q 23.78125 -13.375 27.78125 -13.375  Q 36.625 -13.375 41.015625 -8.765625  Q 45.40625 -4.15625 45.40625 5.171875  L 45.40625 9.625  Q 42.625 4.78125 38.28125 2.390625  Q 33.9375 0 27.875 0  Q 17.828125 0 11.671875 7.65625  Q 5.515625 15.328125 5.515625 27.984375  Q 5.515625 40.671875 11.671875 48.328125  Q 17.828125 56 27.875 56  Q 33.9375 56 38.28125 53.609375  Q 42.625 51.21875 45.40625 46.390625  L 45.40625 54.6875  L 54.390625 54.6875  z " id="DejaVuSans-67"/>
      <path d="M 56.203125 29.59375  L 56.203125 25.203125  L 14.890625 25.203125  Q 15.484375 15.921875 20.484375 11.0625  Q 25.484375 6.203125 34.421875 6.203125  Q 39.59375 6.203125 44.453125 7.46875  Q 49.3125 8.734375 54.109375 11.28125  L 54.109375 2.78125  Q 49.265625 0.734375 44.1875 -0.34375  Q 39.109375 -1.421875 33.890625 -1.421875  Q 20.796875 -1.421875 13.15625 6.1875  Q 5.515625 13.8125 5.515625 26.8125  Q 5.515625 40.234375 12.765625 48.109375  Q 20.015625 56 32.328125 56  Q 43.359375 56 49.78125 48.890625  Q 56.203125 41.796875 56.203125 29.59375  z M 47.21875 32.234375  Q 47.125 39.59375 43.09375 43.984375  Q 39.0625 48.390625 32.421875 48.390625  Q 24.90625 48.390625 20.390625 44.140625  Q 15.875 39.890625 15.1875 32.171875  z " id="DejaVuSans-65"/>
      <path id="DejaVuSans-20"/>
      <path d="M 37.109375 75.984375  L 37.109375 68.5  L 28.515625 68.5  Q 23.6875 68.5 21.796875 66.546875  Q 19.921875 64.59375 19.921875 59.515625  L 19.921875 54.6875  L 34.71875 54.6875  L 34.71875 47.703125  L 19.921875 47.703125  L 19.921875 0  L 10.890625 0  L 10.890625 47.703125  L 2.296875 47.703125  L 2.296875 54.6875  L 10.890625 54.6875  L 10.890625 58.5  Q 10.890625 67.625 15.140625 71.796875  Q 19.390625 75.984375 28.609375 75.984375  z " id="DejaVuSans-66"/>
      <path d="M 48.78125 52.59375  L 48.78125 44.1875  Q 44.96875 46.296875 41.140625 47.34375  Q 37.3125 48.390625 33.40625 48.390625  Q 24.65625 48.390625 19.8125 42.84375  Q 14.984375 37.3125 14.984375 27.296875  Q 14.984375 17.28125 19.8125 11.734375  Q 24.65625 6.203125 33.40625 6.203125  Q 37.3125 6.203125 41.140625 7.25  Q 44.96875 8.296875 48.78125 10.40625  L 48.78125 2.09375  Q 45.015625 0.34375 40.984375 -0.53125  Q 36.96875 -1.421875 32.421875 -1.421875  Q 20.0625 -1.421875 12.78125 6.34375  Q 5.515625 14.109375 5.515625 27.296875  Q 5.515625 40.671875 12.859375 48.328125  Q 20.21875 56 33.015625 56  Q 37.15625 56 41.109375 55.140625  Q 45.0625 54.296875 48.78125 52.59375  z " id="DejaVuSans-63"/>
      <path d="M 18.3125 70.21875  L 18.3125 54.6875  L 36.8125 54.6875  L 36.8125 47.703125  L 18.3125 47.703125  L 18.3125 18.015625  Q 18.3125 11.328125 20.140625 9.421875  Q 21.96875 7.515625 27.59375 7.515625  L 36.8125 7.515625  L 36.8125 0  L 27.59375 0  Q 17.1875 0 13.234375 3.875  Q 9.28125 7.765625 9.28125 18.015625  L 9.28125 47.703125  L 2.6875 47.703125  L 2.6875 54.6875  L 9.28125 54.6875  L 9.28125 70.21875  z " id="DejaVuSans-74"/>
      <path d="M 9.421875 54.6875  L 18.40625 54.6875  L 18.40625 0  L 9.421875 0  z M 9.421875 75.984375  L 18.40625 75.984375  L 18.40625 64.59375  L 9.421875 64.59375  z " id="DejaVuSans-69"/>
      <path d="M 30.609375 48.390625  Q 23.390625 48.390625 19.1875 42.75  Q 14.984375 37.109375 14.984375 27.296875  Q 14.984375 17.484375 19.15625 11.84375  Q 23.34375 6.203125 30.609375 6.203125  Q 37.796875 6.203125 41.984375 11.859375  Q 46.1875 17.53125 46.1875 27.296875  Q 46.1875 37.015625 41.984375 42.703125  Q 37.796875 48.390625 30.609375 48.390625  z M 30.609375 56  Q 42.328125 56 49.015625 48.375  Q 55.71875 40.765625 55.71875 27.296875  Q 55.71875 13.875 49.015625 6.21875  Q 42.328125 -1.421875 30.609375 -1.421875  Q 18.84375 -1.421875 12.171875 6.21875  Q 5.515625 13.875 5.515625 27.296875  Q 5.515625 40.765625 12.171875 48.375  Q 18.84375 56 30.609375 56  z " id="DejaVuSans-6f"/>
     </defs>
     <g transform="translate(172.955312 58.070438)scale(0.1 -0.1)">
      <use xlink:href="#DejaVuSans-52"/>
      <use x="69.419922" xlink:href="#DejaVuSans-75"/>
      <use x="132.798828" xlink:href="#DejaVuSans-6e"/>
      <use x="196.177734" xlink:href="#DejaVuSans-67"/>
      <use x="259.654297" xlink:href="#DejaVuSans-65"/>
      <use x="321.177734" xlink:href="#DejaVuSans-20"/>
      <use x="352.964844" xlink:href="#DejaVuSans-66"/>
      <use x="388.169922" xlink:href="#DejaVuSans-75"/>
      <use x="451.548828" xlink:href="#DejaVuSans-6e"/>
      <use x="514.927734" xlink:href="#DejaVuSans-63"/>
      <use x="569.908203" xlink:href="#DejaVuSans-74"/>
      <use x="609.117188" xlink:href="#DejaVuSans-69"/>
      <use x="636.900391" xlink:href="#DejaVuSans-6f"/>
      <use x="698.082031" xlink:href="#DejaVuSans-6e"/>
     </g>
    </g>
    <g id="line2d_20">
     <path d="M 144.955312 69.248563  L 164.955312 69.248563  " style="fill:none;stroke:#1f77b4;stroke-linecap:square;stroke-width:1.5;"/>
    </g>
    <g id="line2d_21"/>
    <g id="text_18">
     <!-- Uniform interpolation -->
     <defs>
      <path d="M 8.6875 72.90625  L 18.609375 72.90625  L 18.609375 28.609375  Q 18.609375 16.890625 22.84375 11.734375  Q 27.09375 6.59375 36.625 6.59375  Q 46.09375 6.59375 50.34375 11.734375  Q 54.59375 16.890625 54.59375 28.609375  L 54.59375 72.90625  L 64.5 72.90625  L 64.5 27.390625  Q 64.5 13.140625 57.4375 5.859375  Q 50.390625 -1.421875 36.625 -1.421875  Q 22.796875 -1.421875 15.734375 5.859375  Q 8.6875 13.140625 8.6875 27.390625  z " id="DejaVuSans-55"/>
      <path d="M 41.109375 46.296875  Q 39.59375 47.171875 37.8125 47.578125  Q 36.03125 48 33.890625 48  Q 26.265625 48 22.1875 43.046875  Q 18.109375 38.09375 18.109375 28.8125  L 18.109375 0  L 9.078125 0  L 9.078125 54.6875  L 18.109375 54.6875  L 18.109375 46.1875  Q 20.953125 51.171875 25.484375 53.578125  Q 30.03125 56 36.53125 56  Q 37.453125 56 38.578125 55.875  Q 39.703125 55.765625 41.0625 55.515625  z " id="DejaVuSans-72"/>
      <path d="M 52 44.1875  Q 55.375 50.25 60.0625 53.125  Q 64.75 56 71.09375 56  Q 79.640625 56 84.28125 50.015625  Q 88.921875 44.046875 88.921875 33.015625  L 88.921875 0  L 79.890625 0  L 79.890625 32.71875  Q 79.890625 40.578125 77.09375 44.375  Q 74.3125 48.1875 68.609375 48.1875  Q 61.625 48.1875 57.5625 43.546875  Q 53.515625 38.921875 53.515625 30.90625  L 53.515625 0  L 44.484375 0  L 44.484375 32.71875  Q 44.484375 40.625 41.703125 44.40625  Q 38.921875 48.1875 33.109375 48.1875  Q 26.21875 48.1875 22.15625 43.53125  Q 18.109375 38.875 18.109375 30.90625  L 18.109375 0  L 9.078125 0  L 9.078125 54.6875  L 18.109375 54.6875  L 18.109375 46.1875  Q 21.1875 51.21875 25.484375 53.609375  Q 29.78125 56 35.6875 56  Q 41.65625 56 45.828125 52.96875  Q 50 49.953125 52 44.1875  z " id="DejaVuSans-6d"/>
      <path d="M 18.109375 8.203125  L 18.109375 -20.796875  L 9.078125 -20.796875  L 9.078125 54.6875  L 18.109375 54.6875  L 18.109375 46.390625  Q 20.953125 51.265625 25.265625 53.625  Q 29.59375 56 35.59375 56  Q 45.5625 56 51.78125 48.09375  Q 58.015625 40.1875 58.015625 27.296875  Q 58.015625 14.40625 51.78125 6.484375  Q 45.5625 -1.421875 35.59375 -1.421875  Q 29.59375 -1.421875 25.265625 0.953125  Q 20.953125 3.328125 18.109375 8.203125  z M 48.6875 27.296875  Q 48.6875 37.203125 44.609375 42.84375  Q 40.53125 48.484375 33.40625 48.484375  Q 26.265625 48.484375 22.1875 42.84375  Q 18.109375 37.203125 18.109375 27.296875  Q 18.109375 17.390625 22.1875 11.75  Q 26.265625 6.109375 33.40625 6.109375  Q 40.53125 6.109375 44.609375 11.75  Q 48.6875 17.390625 48.6875 27.296875  z " id="DejaVuSans-70"/>
      <path d="M 9.421875 75.984375  L 18.40625 75.984375  L 18.40625 0  L 9.421875 0  z " id="DejaVuSans-6c"/>
      <path d="M 34.28125 27.484375  Q 23.390625 27.484375 19.1875 25  Q 14.984375 22.515625 14.984375 16.5  Q 14.984375 11.71875 18.140625 8.90625  Q 21.296875 6.109375 26.703125 6.109375  Q 34.1875 6.109375 38.703125 11.40625  Q 43.21875 16.703125 43.21875 25.484375  L 43.21875 27.484375  z M 52.203125 31.203125  L 52.203125 0  L 43.21875 0  L 43.21875 8.296875  Q 40.140625 3.328125 35.546875 0.953125  Q 30.953125 -1.421875 24.3125 -1.421875  Q 15.921875 -1.421875 10.953125 3.296875  Q 6 8.015625 6 15.921875  Q 6 25.140625 12.171875 29.828125  Q 18.359375 34.515625 30.609375 34.515625  L 43.21875 34.515625  L 43.21875 35.40625  Q 43.21875 41.609375 39.140625 45  Q 35.0625 48.390625 27.6875 48.390625  Q 23 48.390625 18.546875 47.265625  Q 14.109375 46.140625 10.015625 43.890625  L 10.015625 52.203125  Q 14.9375 54.109375 19.578125 55.046875  Q 24.21875 56 28.609375 56  Q 40.484375 56 46.34375 49.84375  Q 52.203125 43.703125 52.203125 31.203125  z " id="DejaVuSans-61"/>
     </defs>
     <g transform="translate(172.955312 72.748563)scale(0.1 -0.1)">
      <use xlink:href="#DejaVuSans-55"/>
      <use x="73.193359" xlink:href="#DejaVuSans-6e"/>
      <use x="136.572266" xlink:href="#DejaVuSans-69"/>
      <use x="164.355469" xlink:href="#DejaVuSans-66"/>
      <use x="199.560547" xlink:href="#DejaVuSans-6f"/>
      <use x="260.742188" xlink:href="#DejaVuSans-72"/>
      <use x="301.839844" xlink:href="#DejaVuSans-6d"/>
      <use x="399.251953" xlink:href="#DejaVuSans-20"/>
      <use x="431.039062" xlink:href="#DejaVuSans-69"/>
      <use x="458.822266" xlink:href="#DejaVuSans-6e"/>
      <use x="522.201172" xlink:href="#DejaVuSans-74"/>
      <use x="561.410156" xlink:href="#DejaVuSans-65"/>
      <use x="622.933594" xlink:href="#DejaVuSans-72"/>
      <use x="664.046875" xlink:href="#DejaVuSans-70"/>
      <use x="727.523438" xlink:href="#DejaVuSans-6f"/>
      <use x="788.705078" xlink:href="#DejaVuSans-6c"/>
      <use x="816.488281" xlink:href="#DejaVuSans-61"/>
      <use x="877.767578" xlink:href="#DejaVuSans-74"/>
      <use x="916.976562" xlink:href="#DejaVuSans-69"/>
      <use x="944.759766" xlink:href="#DejaVuSans-6f"/>
      <use x="1005.941406" xlink:href="#DejaVuSans-6e"/>
     </g>
    </g>
    <g id="line2d_22">
     <path d="M 144.955312 83.926688  L 164.955312 83.926688  " style="fill:none;stroke:#ff7f0e;stroke-linecap:square;stroke-width:1.5;"/>
    </g>
    <g id="line2d_23"/>
    <g id="text_19">
     <!-- Lobatto-sampling interpolation -->
     <defs>
      <path d="M 9.8125 72.90625  L 19.671875 72.90625  L 19.671875 8.296875  L 55.171875 8.296875  L 55.171875 0  L 9.8125 0  z " id="DejaVuSans-4c"/>
      <path d="M 48.6875 27.296875  Q 48.6875 37.203125 44.609375 42.84375  Q 40.53125 48.484375 33.40625 48.484375  Q 26.265625 48.484375 22.1875 42.84375  Q 18.109375 37.203125 18.109375 27.296875  Q 18.109375 17.390625 22.1875 11.75  Q 26.265625 6.109375 33.40625 6.109375  Q 40.53125 6.109375 44.609375 11.75  Q 48.6875 17.390625 48.6875 27.296875  z M 18.109375 46.390625  Q 20.953125 51.265625 25.265625 53.625  Q 29.59375 56 35.59375 56  Q 45.5625 56 51.78125 48.09375  Q 58.015625 40.1875 58.015625 27.296875  Q 58.015625 14.40625 51.78125 6.484375  Q 45.5625 -1.421875 35.59375 -1.421875  Q 29.59375 -1.421875 25.265625 0.953125  Q 20.953125 3.328125 18.109375 8.203125  L 18.109375 0  L 9.078125 0  L 9.078125 75.984375  L 18.109375 75.984375  z " id="DejaVuSans-62"/>
      <path d="M 4.890625 31.390625  L 31.203125 31.390625  L 31.203125 23.390625  L 4.890625 23.390625  z " id="DejaVuSans-2d"/>
      <path d="M 44.28125 53.078125  L 44.28125 44.578125  Q 40.484375 46.53125 36.375 47.5  Q 32.28125 48.484375 27.875 48.484375  Q 21.1875 48.484375 17.84375 46.4375  Q 14.5 44.390625 14.5 40.28125  Q 14.5 37.15625 16.890625 35.375  Q 19.28125 33.59375 26.515625 31.984375  L 29.59375 31.296875  Q 39.15625 29.25 43.1875 25.515625  Q 47.21875 21.78125 47.21875 15.09375  Q 47.21875 7.46875 41.1875 3.015625  Q 35.15625 -1.421875 24.609375 -1.421875  Q 20.21875 -1.421875 15.453125 -0.5625  Q 10.6875 0.296875 5.421875 2  L 5.421875 11.28125  Q 10.40625 8.6875 15.234375 7.390625  Q 20.0625 6.109375 24.8125 6.109375  Q 31.15625 6.109375 34.5625 8.28125  Q 37.984375 10.453125 37.984375 14.40625  Q 37.984375 18.0625 35.515625 20.015625  Q 33.0625 21.96875 24.703125 23.78125  L 21.578125 24.515625  Q 13.234375 26.265625 9.515625 29.90625  Q 5.8125 33.546875 5.8125 39.890625  Q 5.8125 47.609375 11.28125 51.796875  Q 16.75 56 26.8125 56  Q 31.78125 56 36.171875 55.265625  Q 40.578125 54.546875 44.28125 53.078125  z " id="DejaVuSans-73"/>
     </defs>
     <g transform="translate(172.955312 87.426688)scale(0.1 -0.1)">
      <use xlink:href="#DejaVuSans-4c"/>
      <use x="55.697266" xlink:href="#DejaVuSans-6f"/>
      <use x="116.878906" xlink:href="#DejaVuSans-62"/>
      <use x="180.355469" xlink:href="#DejaVuSans-61"/>
      <use x="241.634766" xlink:href="#DejaVuSans-74"/>
      <use x="280.84375" xlink:href="#DejaVuSans-74"/>
      <use x="320.052734" xlink:href="#DejaVuSans-6f"/>
      <use x="381.25" xlink:href="#DejaVuSans-2d"/>
      <use x="417.333984" xlink:href="#DejaVuSans-73"/>
      <use x="469.433594" xlink:href="#DejaVuSans-61"/>
      <use x="530.712891" xlink:href="#DejaVuSans-6d"/>
      <use x="628.125" xlink:href="#DejaVuSans-70"/>
      <use x="691.601562" xlink:href="#DejaVuSans-6c"/>
      <use x="719.384766" xlink:href="#DejaVuSans-69"/>
      <use x="747.167969" xlink:href="#DejaVuSans-6e"/>
      <use x="810.546875" xlink:href="#DejaVuSans-67"/>
      <use x="874.023438" xlink:href="#DejaVuSans-20"/>
      <use x="905.810547" xlink:href="#DejaVuSans-69"/>
      <use x="933.59375" xlink:href="#DejaVuSans-6e"/>
      <use x="996.972656" xlink:href="#DejaVuSans-74"/>
      <use x="1036.181641" xlink:href="#DejaVuSans-65"/>
      <use x="1097.705078" xlink:href="#DejaVuSans-72"/>
      <use x="1138.818359" xlink:href="#DejaVuSans-70"/>
      <use x="1202.294922" xlink:href="#DejaVuSans-6f"/>
      <use x="1263.476562" xlink:href="#DejaVuSans-6c"/>
      <use x="1291.259766" xlink:href="#DejaVuSans-61"/>
      <use x="1352.539062" xlink:href="#DejaVuSans-74"/>
      <use x="1391.748047" xlink:href="#DejaVuSans-69"/>
      <use x="1419.53125" xlink:href="#DejaVuSans-6f"/>
      <use x="1480.712891" xlink:href="#DejaVuSans-6e"/>
     </g>
    </g>
   </g>
  </g>
 </g>
 <defs>
  <clipPath id="p48829a8a4d">
   <rect height="266.112" width="357.12" x="57.6" y="41.472"/>
  </clipPath>
 </defs>
</svg>