<svg xmlns="http://www.w3.org/2000/svg" xmlns:xlink="http://www.w3.org/1999/xlink" version="1.1" viewBox="0 0 460 345" viewport="0 0 1280px 960px">
 <defs>
  <style type="text/css">
*{stroke-linecap:butt;stroke-linejoin:round;}
  </style>
 </defs>
 <g id="figure_1">
  <g id="patch_1">
   <path d="M 0 345.6  L 460.8 345.6  L 460.8 0  L 0 0  z " style="fill:none;opacity:0;"/>
  </g>
  <g id="axes_1">
   <g id="patch_2">
    <path d="M 57.6 307.584  L 414.72 307.584  L 414.72 41.472  L 57.6 41.472  z " style="fill:#ffffff;"/>
   </g>
   <g id="matplotlib.axis_1">
    <g id="xtick_1">
     <g id="line2d_1">
      <defs>
       <path d="M 0 0  L 0 3.5  " id="mf2273a786a" style="stroke:#000000;stroke-width:0.8;"/>
      </defs>
      <g>
       <use style="stroke:#000000;stroke-width:0.8;" x="73.832727" xlink:href="#mf2273a786a" y="307.584"/>
      </g>
     </g>
     <g id="text_1">
      <!-- 2.0 -->
      <defs>
       <path d="M 19.1875 8.296875  L 53.609375 8.296875  L 53.609375 0  L 7.328125 0  L 7.328125 8.296875  Q 12.9375 14.109375 22.625 23.890625  Q 32.328125 33.6875 34.8125 36.53125  Q 39.546875 41.84375 41.421875 45.53125  Q 43.3125 49.21875 43.3125 52.78125  Q 43.3125 58.59375 39.234375 62.25  Q 35.15625 65.921875 28.609375 65.921875  Q 23.96875 65.921875 18.8125 64.3125  Q 13.671875 62.703125 7.8125 59.421875  L 7.8125 69.390625  Q 13.765625 71.78125 18.9375 73  Q 24.125 74.21875 28.421875 74.21875  Q 39.75 74.21875 46.484375 68.546875  Q 53.21875 62.890625 53.21875 53.421875  Q 53.21875 48.921875 51.53125 44.890625  Q 49.859375 40.875 45.40625 35.40625  Q 44.1875 33.984375 37.640625 27.21875  Q 31.109375 20.453125 19.1875 8.296875  z " id="DejaVuSans-32"/>
       <path d="M 10.6875 12.40625  L 21 12.40625  L 21 0  L 10.6875 0  z " id="DejaVuSans-2e"/>
       <path d="M 31.78125 66.40625  Q 24.171875 66.40625 20.328125 58.90625  Q 16.5 51.421875 16.5 36.375  Q 16.5 21.390625 20.328125 13.890625  Q 24.171875 6.390625 31.78125 6.390625  Q 39.453125 6.390625 43.28125 13.890625  Q 47.125 21.390625 47.125 36.375  Q 47.125 51.421875 43.28125 58.90625  Q 39.453125 66.40625 31.78125 66.40625  z M 31.78125 74.21875  Q 44.046875 74.21875 50.515625 64.515625  Q 56.984375 54.828125 56.984375 36.375  Q 56.984375 17.96875 50.515625 8.265625  Q 44.046875 -1.421875 31.78125 -1.421875  Q 19.53125 -1.421875 13.0625 8.265625  Q 6.59375 17.96875 6.59375 36.375  Q 6.59375 54.828125 13.0625 64.515625  Q 19.53125 74.21875 31.78125 74.21875  z " id="DejaVuSans-30"/>
      </defs>
      <g transform="translate(65.881165 322.182437)scale(0.1 -0.1)">
       <use xlink:href="#DejaVuSans-32"/>
       <use x="63.623047" xlink:href="#DejaVuSans-2e"/>
       <use x="95.410156" xlink:href="#DejaVuSans-30"/>
      </g>
     </g>
    </g>
    <g id="xtick_2">
     <g id="line2d_2">
      <g>
       <use style="stroke:#000000;stroke-width:0.8;" x="127.941818" xlink:href="#mf2273a786a" y="307.584"/>
      </g>
     </g>
     <g id="text_2">
      <!-- 2.5 -->
      <defs>
       <path d="M 10.796875 72.90625  L 49.515625 72.90625  L 49.515625 64.59375  L 19.828125 64.59375  L 19.828125 46.734375  Q 21.96875 47.46875 24.109375 47.828125  Q 26.265625 48.1875 28.421875 48.1875  Q 40.625 48.1875 47.75 41.5  Q 54.890625 34.8125 54.890625 23.390625  Q 54.890625 11.625 47.5625 5.09375  Q 40.234375 -1.421875 26.90625 -1.421875  Q 22.3125 -1.421875 17.546875 -0.640625  Q 12.796875 0.140625 7.71875 1.703125  L 7.71875 11.625  Q 12.109375 9.234375 16.796875 8.0625  Q 21.484375 6.890625 26.703125 6.890625  Q 35.15625 6.890625 40.078125 11.328125  Q 45.015625 15.765625 45.015625 23.390625  Q 45.015625 31 40.078125 35.4375  Q 35.15625 39.890625 26.703125 39.890625  Q 22.75 39.890625 18.8125 39.015625  Q 14.890625 38.140625 10.796875 36.28125  z " id="DejaVuSans-35"/>
      </defs>
      <g transform="translate(119.990256 322.182437)scale(0.1 -0.1)">
       <use xlink:href="#DejaVuSans-32"/>
       <use x="63.623047" xlink:href="#DejaVuSans-2e"/>
       <use x="95.410156" xlink:href="#DejaVuSans-35"/>
      </g>
     </g>
    </g>
    <g id="xtick_3">
     <g id="line2d_3">
      <g>
       <use style="stroke:#000000;stroke-width:0.8;" x="182.050909" xlink:href="#mf2273a786a" y="307.584"/>
      </g>
     </g>
     <g id="text_3">
      <!-- 3.0 -->
      <defs>
       <path d="M 40.578125 39.3125  Q 47.65625 37.796875 51.625 33  Q 55.609375 28.21875 55.609375 21.1875  Q 55.609375 10.40625 48.1875 4.484375  Q 40.765625 -1.421875 27.09375 -1.421875  Q 22.515625 -1.421875 17.65625 -0.515625  Q 12.796875 0.390625 7.625 2.203125  L 7.625 11.71875  Q 11.71875 9.328125 16.59375 8.109375  Q 21.484375 6.890625 26.8125 6.890625  Q 36.078125 6.890625 40.9375 10.546875  Q 45.796875 14.203125 45.796875 21.1875  Q 45.796875 27.640625 41.28125 31.265625  Q 36.765625 34.90625 28.71875 34.90625  L 20.21875 34.90625  L 20.21875 43.015625  L 29.109375 43.015625  Q 36.375 43.015625 40.234375 45.921875  Q 44.09375 48.828125 44.09375 54.296875  Q 44.09375 59.90625 40.109375 62.90625  Q 36.140625 65.921875 28.71875 65.921875  Q 24.65625 65.921875 20.015625 65.03125  Q 15.375 64.15625 9.8125 62.3125  L 9.8125 71.09375  Q 15.4375 72.65625 20.34375 73.4375  Q 25.25 74.21875 29.59375 74.21875  Q 40.828125 74.21875 47.359375 69.109375  Q 53.90625 64.015625 53.90625 55.328125  Q 53.90625 49.265625 50.4375 45.09375  Q 46.96875 40.921875 40.578125 39.3125  z " id="DejaVuSans-33"/>
      </defs>
      <g transform="translate(174.099347 322.182437)scale(0.1 -0.1)">
       <use xlink:href="#DejaVuSans-33"/>
       <use x="63.623047" xlink:href="#DejaVuSans-2e"/>
       <use x="95.410156" xlink:href="#DejaVuSans-30"/>
      </g>
     </g>
    </g>
    <g id="xtick_4">
     <g id="line2d_4">
      <g>
       <use style="stroke:#000000;stroke-width:0.8;" x="236.16" xlink:href="#mf2273a786a" y="307.584"/>
      </g>
     </g>
     <g id="text_4">
      <!-- 3.5 -->
      <g transform="translate(228.208437 322.182437)scale(0.1 -0.1)">
       <use xlink:href="#DejaVuSans-33"/>
       <use x="63.623047" xlink:href="#DejaVuSans-2e"/>
       <use x="95.410156" xlink:href="#DejaVuSans-35"/>
      </g>
     </g>
    </g>
    <g id="xtick_5">
     <g id="line2d_5">
      <g>
       <use style="stroke:#000000;stroke-width:0.8;" x="290.269091" xlink:href="#mf2273a786a" y="307.584"/>
      </g>
     </g>
     <g id="text_5">
      <!-- 4.0 -->
      <defs>
       <path d="M 37.796875 64.3125  L 12.890625 25.390625  L 37.796875 25.390625  z M 35.203125 72.90625  L 47.609375 72.90625  L 47.609375 25.390625  L 58.015625 25.390625  L 58.015625 17.1875  L 47.609375 17.1875  L 47.609375 0  L 37.796875 0  L 37.796875 17.1875  L 4.890625 17.1875  L 4.890625 26.703125  z " id="DejaVuSans-34"/>
      </defs>
      <g transform="translate(282.317528 322.182437)scale(0.1 -0.1)">
       <use xlink:href="#DejaVuSans-34"/>
       <use x="63.623047" xlink:href="#DejaVuSans-2e"/>
       <use x="95.410156" xlink:href="#DejaVuSans-30"/>
      </g>
     </g>
    </g>
    <g id="xtick_6">
     <g id="line2d_6">
      <g>
       <use style="stroke:#000000;stroke-width:0.8;" x="344.378182" xlink:href="#mf2273a786a" y="307.584"/>
      </g>
     </g>
     <g id="text_6">
      <!-- 4.5 -->
      <g transform="translate(336.426619 322.182437)scale(0.1 -0.1)">
       <use xlink:href="#DejaVuSans-34"/>
       <use x="63.623047" xlink:href="#DejaVuSans-2e"/>
       <use x="95.410156" xlink:href="#DejaVuSans-35"/>
      </g>
     </g>
    </g>
    <g id="xtick_7">
     <g id="line2d_7">
      <g>
       <use style="stroke:#000000;stroke-width:0.8;" x="398.487273" xlink:href="#mf2273a786a" y="307.584"/>
      </g>
     </g>
     <g id="text_7">
      <!-- 5.0 -->
      <g transform="translate(390.53571 322.182437)scale(0.1 -0.1)">
       <use xlink:href="#DejaVuSans-35"/>
       <use x="63.623047" xlink:href="#DejaVuSans-2e"/>
       <use x="95.410156" xlink:href="#DejaVuSans-30"/>
      </g>
     </g>
    </g>
    <g id="text_8">
     <!-- x -->
     <defs>
      <path d="M 54.890625 54.6875  L 35.109375 28.078125  L 55.90625 0  L 45.3125 0  L 29.390625 21.484375  L 13.484375 0  L 2.875 0  L 24.125 28.609375  L 4.6875 54.6875  L 15.28125 54.6875  L 29.78125 35.203125  L 44.28125 54.6875  z " id="DejaVuSans-78"/>
     </defs>
     <g transform="translate(233.200625 335.860562)scale(0.1 -0.1)">
      <use xlink:href="#DejaVuSans-78"/>
     </g>
    </g>
   </g>
   <g id="matplotlib.axis_2">
    <g id="ytick_1">
     <g id="line2d_8">
      <defs>
       <path d="M 0 0  L -3.5 0  " id="m099bc734bc" style="stroke:#000000;stroke-width:0.8;"/>
      </defs>
      <g>
       <use style="stroke:#000000;stroke-width:0.8;" x="57.6" xlink:href="#m099bc734bc" y="299.304621"/>
      </g>
     </g>
     <g id="text_9">
      <!-- &#8722;0.06 -->
      <defs>
       <path d="M 10.59375 35.5  L 73.1875 35.5  L 73.1875 27.203125  L 10.59375 27.203125  z " id="DejaVuSans-2212"/>
       <path d="M 33.015625 40.375  Q 26.375 40.375 22.484375 35.828125  Q 18.609375 31.296875 18.609375 23.390625  Q 18.609375 15.53125 22.484375 10.953125  Q 26.375 6.390625 33.015625 6.390625  Q 39.65625 6.390625 43.53125 10.953125  Q 47.40625 15.53125 47.40625 23.390625  Q 47.40625 31.296875 43.53125 35.828125  Q 39.65625 40.375 33.015625 40.375  z M 52.59375 71.296875  L 52.59375 62.3125  Q 48.875 64.0625 45.09375 64.984375  Q 41.3125 65.921875 37.59375 65.921875  Q 27.828125 65.921875 22.671875 59.328125  Q 17.53125 52.734375 16.796875 39.40625  Q 19.671875 43.65625 24.015625 45.921875  Q 28.375 48.1875 33.59375 48.1875  Q 44.578125 48.1875 50.953125 41.515625  Q 57.328125 34.859375 57.328125 23.390625  Q 57.328125 12.15625 50.6875 5.359375  Q 44.046875 -1.421875 33.015625 -1.421875  Q 20.359375 -1.421875 13.671875 8.265625  Q 6.984375 17.96875 6.984375 36.375  Q 6.984375 53.65625 15.1875 63.9375  Q 23.390625 74.21875 37.203125 74.21875  Q 40.921875 74.21875 44.703125 73.484375  Q 48.484375 72.75 52.59375 71.296875  z " id="DejaVuSans-36"/>
      </defs>
      <g transform="translate(19.954687 303.103839)scale(0.1 -0.1)">
       <use xlink:href="#DejaVuSans-2212"/>
       <use x="83.789062" xlink:href="#DejaVuSans-30"/>
       <use x="147.412109" xlink:href="#DejaVuSans-2e"/>
       <use x="179.199219" xlink:href="#DejaVuSans-30"/>
       <use x="242.822266" xlink:href="#DejaVuSans-36"/>
      </g>
     </g>
    </g>
    <g id="ytick_2">
     <g id="line2d_9">
      <g>
       <use style="stroke:#000000;stroke-width:0.8;" x="57.6" xlink:href="#m099bc734bc" y="261.760268"/>
      </g>
     </g>
     <g id="text_10">
      <!-- &#8722;0.04 -->
      <g transform="translate(19.954687 265.559487)scale(0.1 -0.1)">
       <use xlink:href="#DejaVuSans-2212"/>
       <use x="83.789062" xlink:href="#DejaVuSans-30"/>
       <use x="147.412109" xlink:href="#DejaVuSans-2e"/>
       <use x="179.199219" xlink:href="#DejaVuSans-30"/>
       <use x="242.822266" xlink:href="#DejaVuSans-34"/>
      </g>
     </g>
    </g>
    <g id="ytick_3">
     <g id="line2d_10">
      <g>
       <use style="stroke:#000000;stroke-width:0.8;" x="57.6" xlink:href="#m099bc734bc" y="224.215916"/>
      </g>
     </g>
     <g id="text_11">
      <!-- &#8722;0.02 -->
      <g transform="translate(19.954687 228.015134)scale(0.1 -0.1)">
       <use xlink:href="#DejaVuSans-2212"/>
       <use x="83.789062" xlink:href="#DejaVuSans-30"/>
       <use x="147.412109" xlink:href="#DejaVuSans-2e"/>
       <use x="179.199219" xlink:href="#DejaVuSans-30"/>
       <use x="242.822266" xlink:href="#DejaVuSans-32"/>
      </g>
     </g>
    </g>
    <g id="ytick_4">
     <g id="line2d_11">
      <g>
       <use style="stroke:#000000;stroke-width:0.8;" x="57.6" xlink:href="#m099bc734bc" y="186.671563"/>
      </g>
     </g>
     <g id="text_12">
      <!-- 0.00 -->
      <g transform="translate(28.334375 190.470782)scale(0.1 -0.1)">
       <use xlink:href="#DejaVuSans-30"/>
       <use x="63.623047" xlink:href="#DejaVuSans-2e"/>
       <use x="95.410156" xlink:href="#DejaVuSans-30"/>
       <use x="159.033203" xlink:href="#DejaVuSans-30"/>
      </g>
     </g>
    </g>
    <g id="ytick_5">
     <g id="line2d_12">
      <g>
       <use style="stroke:#000000;stroke-width:0.8;" x="57.6" xlink:href="#m099bc734bc" y="149.12721"/>
      </g>
     </g>
     <g id="text_13">
      <!-- 0.02 -->
      <g transform="translate(28.334375 152.926429)scale(0.1 -0.1)">
       <use xlink:href="#DejaVuSans-30"/>
       <use x="63.623047" xlink:href="#DejaVuSans-2e"/>
       <use x="95.410156" xlink:href="#DejaVuSans-30"/>
       <use x="159.033203" xlink:href="#DejaVuSans-32"/>
      </g>
     </g>
    </g>
    <g id="ytick_6">
     <g id="line2d_13">
      <g>
       <use style="stroke:#000000;stroke-width:0.8;" x="57.6" xlink:href="#m099bc734bc" y="111.582858"/>
      </g>
     </g>
     <g id="text_14">
      <!-- 0.04 -->
      <g transform="translate(28.334375 115.382077)scale(0.1 -0.1)">
       <use xlink:href="#DejaVuSans-30"/>
       <use x="63.623047" xlink:href="#DejaVuSans-2e"/>
       <use x="95.410156" xlink:href="#DejaVuSans-30"/>
       <use x="159.033203" xlink:href="#DejaVuSans-34"/>
      </g>
     </g>
    </g>
    <g id="ytick_7">
     <g id="line2d_14">
      <g>
       <use style="stroke:#000000;stroke-width:0.8;" x="57.6" xlink:href="#m099bc734bc" y="74.038505"/>
      </g>
     </g>
     <g id="text_15">
      <!-- 0.06 -->
      <g transform="translate(28.334375 77.837724)scale(0.1 -0.1)">
       <use xlink:href="#DejaVuSans-30"/>
       <use x="63.623047" xlink:href="#DejaVuSans-2e"/>
       <use x="95.410156" xlink:href="#DejaVuSans-30"/>
       <use x="159.033203" xlink:href="#DejaVuSans-36"/>
      </g>
     </g>
    </g>
    <g id="text_16">
     <!-- y -->
     <defs>
      <path d="M 32.171875 -5.078125  Q 28.375 -14.84375 24.75 -17.8125  Q 21.140625 -20.796875 15.09375 -20.796875  L 7.90625 -20.796875  L 7.90625 -13.28125  L 13.1875 -13.28125  Q 16.890625 -13.28125 18.9375 -11.515625  Q 21 -9.765625 23.484375 -3.21875  L 25.09375 0.875  L 2.984375 54.6875  L 12.5 54.6875  L 29.59375 11.921875  L 46.6875 54.6875  L 56.203125 54.6875  z " id="DejaVuSans-79"/>
     </defs>
     <g transform="translate(13.875 177.487375)rotate(-90)scale(0.1 -0.1)">
      <use xlink:href="#DejaVuSans-79"/>
     </g>
    </g>
   </g>
   <g id="line2d_15">
    <path clip-path="url(#p8eb8a5d425)" d="M 73.832727 186.671563  L 75.464157 172.648532  L 77.095587 158.958553  L 80.358447 133.033754  L 83.621307 109.748338  L 85.252736 99.330542  L 86.884166 89.83835  L 88.515596 81.342189  L 90.147026 73.902838  L 91.778456 67.571034  L 93.409886 62.387174  L 95.041316 58.381102  L 96.672746 55.571996  L 98.304175 53.968341  L 99.935605 53.568  L 101.567035 54.358367  L 103.198465 56.316614  L 104.829895 59.410021  L 106.461325 63.596385  L 108.092755 68.824504  L 109.724185 75.034737  L 111.355614 82.159625  L 112.987044 90.12457  L 114.618474 98.848576  L 117.881334 118.222497  L 121.144194 139.535964  L 127.669913 184.783092  L 132.564203 217.828662  L 135.827063 237.997152  L 137.458492 247.263885  L 139.089922 255.883191  L 140.721352 263.786295  L 142.352782 270.911496  L 143.984212 277.204627  L 145.615642 282.619442  L 147.247072 287.117929  L 148.878502 290.670554  L 150.509931 293.256427  L 152.141361 294.863383  L 153.772791 295.488  L 155.404221 295.135533  L 157.035651 293.819771  L 158.667081 291.562832  L 160.298511 288.394873  L 161.929941 284.353749  L 163.56137 279.484595  L 165.1928 273.839359  L 166.82423 267.476273  L 168.45566 260.459284  L 171.71852 244.744179  L 174.98138 227.295419  L 179.875669 199.300441  L 184.769959 171.144737  L 188.032819 153.387434  L 191.295678 137.156493  L 192.927108 129.78595  L 194.558538 122.99427  L 196.189968 116.836146  L 197.821398 111.360149  L 199.452828 106.608367  L 201.084258 102.616091  L 202.715688 99.411571  L 204.347117 97.015833  L 205.978547 95.44256  L 207.609977 94.698042  L 209.241407 94.781188  L 210.872837 95.683602  L 212.504267 97.389722  L 214.135697 99.877028  L 215.767127 103.116296  L 217.398556 107.07192  L 219.029986 111.702279  L 220.661416 116.960163  L 222.292846 122.793229  L 223.924276 129.144518  L 227.187136 143.154088  L 230.449995 158.462088  L 241.870005 214.043132  L 245.132864 228.174905  L 246.764294 234.627536  L 248.395724 240.598167  L 250.027154 246.037715  L 251.658584 250.902205  L 253.290014 255.15312  L 254.921444 258.757697  L 256.552873 261.689166  L 258.184303 263.926943  L 259.815733 265.456755  L 261.447163 266.270721  L 263.078593 266.36737  L 264.710023 265.751599  L 266.341453 264.434583  L 267.972883 262.433624  L 269.604312 259.771952  L 271.235742 256.478472  L 272.867172 252.587466  L 274.498602 248.138245  L 276.130032 243.174764  L 277.761462 237.7452  L 281.024322 225.698845  L 284.287181 212.450863  L 290.812901 184.3166  L 295.70719 163.766071  L 298.97005 151.235432  L 300.60148 145.486321  L 302.23291 140.147269  L 303.86434 135.262822  L 305.49577 130.873165  L 307.1272 127.013797  L 308.75863 123.715253  L 310.390059 121.002867  L 312.021489 118.896582  L 313.652919 117.410821  L 315.284349 116.554386  L 316.915779 116.330432  L 318.547209 116.736471  L 320.178639 117.764435  L 321.810069 119.400788  L 323.441498 121.626686  L 325.072928 124.418176  L 326.704358 127.746446  L 328.335788 131.578116  L 329.967218 135.875562  L 331.598648 140.59728  L 334.861508 151.130509  L 338.124367 162.783828  L 343.018657 181.42165  L 347.912947 200.104422  L 351.175806 211.848617  L 354.438666 222.543666  L 356.070096 227.381522  L 357.701526 231.824033  L 359.332956 235.83417  L 360.964386 239.378988  L 362.595815 242.429891  L 364.227245 244.962866  L 365.858675 246.958656  L 367.490105 248.402908  L 369.121535 249.286268  L 370.752965 249.604429  L 372.384395 249.358141  L 374.015825 248.553171  L 375.647254 247.200219  L 377.278684 245.314797  L 378.910114 242.917053  L 380.541544 240.031571  L 382.172974 236.687122  L 383.804404 232.916381  L 385.435834 228.755616  L 388.698693 219.424953  L 391.961553 209.043386  L 396.855843 192.340147  L 398.487273 186.671563  L 398.487273 186.671563  " style="fill:none;stroke:#000000;stroke-linecap:square;stroke-width:1.5;"/>
   </g>
   <g id="line2d_16">
    <path clip-path="url(#p8eb8a5d425)" d="M 73.832727 186.671563  L 76.396403 165.466303  L 78.727017 147.983791  L 81.057631 132.220541  L 83.155184 119.511375  L 85.252736 108.209318  L 87.117228 99.349876  L 88.981719 91.61248  L 90.613149 85.766481  L 92.244579 80.786475  L 93.642947 77.209611  L 95.041316 74.273398  L 96.206623 72.31741  L 97.37193 70.808912  L 98.304175 69.925097  L 99.236421 69.329033  L 100.168667 69.021323  L 101.100912 69.002571  L 102.033158 69.273378  L 102.965404 69.83435  L 103.897649 70.686089  L 104.829895 71.829197  L 105.995202 73.668742  L 107.160509 75.965673  L 108.325816 78.72117  L 109.724185 82.634731  L 111.122553 87.212359  L 112.753983 93.394948  L 114.385413 100.48741  L 116.249904 109.711359  L 118.114395 120.132763  L 119.978887 131.756447  L 120.211948 133.294183  L 120.211948 133.294183  " style="fill:none;stroke:#4daf4a;stroke-dasharray:5.55,2.4;stroke-dashoffset:0;stroke-width:1.5;"/>
   </g>
   <g id="line2d_17">
    <path clip-path="url(#p8eb8a5d425)" d="M 73.832727 186.671563  L 120.211948 133.294183  " style="fill:none;"/>
    <defs>
     <path d="M 0 3  C 0.795609 3 1.55874 2.683901 2.12132 2.12132  C 2.683901 1.55874 3 0.795609 3 0  C 3 -0.795609 2.683901 -1.55874 2.12132 -2.12132  C 1.55874 -2.683901 0.795609 -3 0 -3  C -0.795609 -3 -1.55874 -2.683901 -2.12132 -2.12132  C -2.683901 -1.55874 -3 -0.795609 -3 0  C -3 0.795609 -2.683901 1.55874 -2.12132 2.12132  C -1.55874 2.683901 -0.795609 3 0 3  z " id="mb2450c3df1" style="stroke:#4daf4a;"/>
    </defs>
    <g clip-path="url(#p8eb8a5d425)">
     <use style="fill:#4daf4a;stroke:#4daf4a;" x="73.832727" xlink:href="#mb2450c3df1" y="186.671563"/>
     <use style="fill:#4daf4a;stroke:#4daf4a;" x="120.211948" xlink:href="#mb2450c3df1" y="133.294183"/>
    </g>
   </g>
   <g id="line2d_18">
    <path clip-path="url(#p8eb8a5d425)" d="M 120.211948 133.294183  L 126.271545 172.800694  L 130.233589 197.254273  L 133.496448 216.103112  L 136.293185 231.076604  L 138.856861 243.66487  L 141.187475 254.032546  L 143.285028 262.389339  L 145.149519 268.972875  L 146.780949 274.03326  L 148.412379 278.399024  L 149.810747 281.558511  L 151.209116 284.154143  L 152.374423 285.868626  L 153.53973 287.160093  L 154.471975 287.879089  L 155.404221 288.310887  L 156.336467 288.448168  L 157.035651 288.35345  L 157.734835 288.08586  L 158.667081 287.454828  L 159.599327 286.503661  L 160.531572 285.225042  L 161.463818 283.61165  L 162.629125 281.112987  L 163.794432 278.065511  L 164.959739 274.454927  L 166.358107 269.358796  L 166.591169 268.42687  L 166.591169 268.42687  " style="fill:none;stroke:#4daf4a;stroke-dasharray:5.55,2.4;stroke-dashoffset:0;stroke-width:1.5;"/>
   </g>
   <g id="line2d_19">
    <path clip-path="url(#p8eb8a5d425)" d="M 120.211948 133.294183  L 166.591169 268.42687  " style="fill:none;"/>
    <g clip-path="url(#p8eb8a5d425)">
     <use style="fill:#4daf4a;stroke:#4daf4a;" x="120.211948" xlink:href="#mb2450c3df1" y="133.294183"/>
     <use style="fill:#4daf4a;stroke:#4daf4a;" x="166.591169" xlink:href="#mb2450c3df1" y="268.42687"/>
    </g>
   </g>
   <g id="line2d_20">
    <path clip-path="url(#p8eb8a5d425)" d="M 166.591169 268.42687  L 168.921783 258.50701  L 171.485458 246.618172  L 174.748318 230.347106  L 179.176485 206.989816  L 187.566696 162.504353  L 190.829556 146.465735  L 193.626293 133.818162  L 195.956907 124.274154  L 198.054459 116.605762  L 199.918951 110.624135  L 201.55038 106.104705  L 202.948749 102.807201  L 204.347117 100.079681  L 205.512424 98.26814  L 206.677732 96.898281  L 207.609977 96.134414  L 208.542223 95.677236  L 209.241407 95.542039  L 209.940591 95.589862  L 210.639776 95.825206  L 211.33896 96.252575  L 212.271205 97.128887  L 212.97039 98.021823  L 212.97039 98.021823  " style="fill:none;stroke:#4daf4a;stroke-dasharray:5.55,2.4;stroke-dashoffset:0;stroke-width:1.5;"/>
   </g>
   <g id="line2d_21">
    <path clip-path="url(#p8eb8a5d425)" d="M 166.591169 268.42687  L 212.97039 98.021823  " style="fill:none;"/>
    <g clip-path="url(#p8eb8a5d425)">
     <use style="fill:#4daf4a;stroke:#4daf4a;" x="166.591169" xlink:href="#mb2450c3df1" y="268.42687"/>
     <use style="fill:#4daf4a;stroke:#4daf4a;" x="212.97039" xlink:href="#mb2450c3df1" y="98.021823"/>
    </g>
   </g>
   <g id="line2d_22">
    <path clip-path="url(#p8eb8a5d425)" d="M 212.97039 98.021823  L 214.135697 99.886002  L 215.301004 102.145005  L 216.699372 105.346298  L 218.330802 109.709834  L 220.195293 115.45257  L 222.059785 121.916006  L 224.390399 130.872823  L 226.954074 141.65686  L 230.216934 156.437538  L 235.111224 179.842961  L 241.403882 209.777883  L 244.666741 224.195937  L 247.230417 234.580168  L 249.561031 243.085793  L 251.425522 249.128116  L 253.056952 253.783135  L 254.688382 257.785638  L 256.086751 260.651687  L 257.252058 262.613135  L 258.417365 264.163229  L 259.34961 265.092486  L 259.34961 265.092486  " style="fill:none;stroke:#4daf4a;stroke-dasharray:5.55,2.4;stroke-dashoffset:0;stroke-width:1.5;"/>
   </g>
   <g id="line2d_23">
    <path clip-path="url(#p8eb8a5d425)" d="M 212.97039 98.021823  L 259.34961 265.092486  " style="fill:none;"/>
    <g clip-path="url(#p8eb8a5d425)">
     <use style="fill:#4daf4a;stroke:#4daf4a;" x="212.97039" xlink:href="#mb2450c3df1" y="98.021823"/>
     <use style="fill:#4daf4a;stroke:#4daf4a;" x="259.34961" xlink:href="#mb2450c3df1" y="265.092486"/>
    </g>
   </g>
   <g id="line2d_24">
    <path clip-path="url(#p8eb8a5d425)" d="M 259.34961 265.092486  L 260.281856 265.732524  L 261.214102 266.085056  L 262.146347 266.159512  L 263.078593 265.965322  L 264.010839 265.511915  L 264.943084 264.808719  L 266.108391 263.592826  L 267.273698 262.019788  L 268.672067 259.686644  L 270.070435 256.897557  L 271.701865 253.109816  L 273.566356 248.138931  L 275.663909 241.818253  L 277.994523 234.016658  L 280.79126 223.773835  L 284.05412 210.931063  L 289.414532 188.768848  L 295.008006 165.923166  L 298.270866 153.5255  L 300.834542 144.595569  L 303.165156 137.277313  L 305.029647 132.073728  L 305.728831 130.288592  L 305.728831 130.288592  " style="fill:none;stroke:#4daf4a;stroke-dasharray:5.55,2.4;stroke-dashoffset:0;stroke-width:1.5;"/>
   </g>
   <g id="line2d_25">
    <path clip-path="url(#p8eb8a5d425)" d="M 259.34961 265.092486  L 305.728831 130.288592  " style="fill:none;"/>
    <g clip-path="url(#p8eb8a5d425)">
     <use style="fill:#4daf4a;stroke:#4daf4a;" x="259.34961" xlink:href="#mb2450c3df1" y="265.092486"/>
     <use style="fill:#4daf4a;stroke:#4daf4a;" x="305.728831" xlink:href="#mb2450c3df1" y="130.288592"/>
    </g>
   </g>
   <g id="line2d_26">
    <path clip-path="url(#p8eb8a5d425)" d="M 305.728831 130.288592  L 307.1272 127.109222  L 308.525568 124.506485  L 309.690875 122.762736  L 310.856182 121.392454  L 312.021489 120.38338  L 312.953735 119.827951  L 313.885981 119.489571  L 314.818226 119.361962  L 315.750472 119.438848  L 316.682717 119.713952  L 317.848025 120.327011  L 319.013332 121.227717  L 320.178639 122.403809  L 321.577007 124.161367  L 322.975376 126.276641  L 324.606805 129.16831  L 326.471297 132.990803  L 328.335788 137.317415  L 330.433341 142.724906  L 332.997016 150.009912  L 335.793753 158.660699  L 339.289674 170.254928  L 344.183964 187.351044  L 352.108052 215.028296  L 352.108052 215.028296  " style="fill:none;stroke:#4daf4a;stroke-dasharray:5.55,2.4;stroke-dashoffset:0;stroke-width:1.5;"/>
   </g>
   <g id="line2d_27">
    <path clip-path="url(#p8eb8a5d425)" d="M 305.728831 130.288592  L 352.108052 215.028296  " style="fill:none;"/>
    <g clip-path="url(#p8eb8a5d425)">
     <use style="fill:#4daf4a;stroke:#4daf4a;" x="305.728831" xlink:href="#mb2450c3df1" y="130.288592"/>
     <use style="fill:#4daf4a;stroke:#4daf4a;" x="352.108052" xlink:href="#mb2450c3df1" y="215.028296"/>
    </g>
   </g>
   <g id="line2d_28">
    <path clip-path="url(#p8eb8a5d425)" d="M 352.108052 215.028296  L 353.972543 220.917728  L 355.837035 226.064605  L 357.468464 229.974841  L 359.099894 233.345497  L 360.731324 236.190075  L 362.129693 238.219808  L 363.528061 239.881461  L 364.92643 241.183538  L 366.091737 242.000061  L 367.257044 242.577707  L 368.422351 242.921396  L 369.587658 243.036049  L 370.752965 242.926589  L 371.918272 242.597935  L 373.083579 242.055011  L 374.481947 241.127593  L 375.880316 239.907215  L 377.278684 238.402383  L 378.910114 236.29857  L 380.541544 233.832661  L 382.406035 230.58842  L 384.270527 226.909033  L 386.368079 222.274688  L 388.698693 216.544328  L 391.262369 209.579925  L 393.826045 201.973854  L 396.622781 193.006079  L 398.487273 186.671563  L 398.487273 186.671563  " style="fill:none;stroke:#4daf4a;stroke-dasharray:5.55,2.4;stroke-dashoffset:0;stroke-width:1.5;"/>
   </g>
   <g id="line2d_29">
    <path clip-path="url(#p8eb8a5d425)" d="M 352.108052 215.028296  L 398.487273 186.671563  " style="fill:none;"/>
    <g clip-path="url(#p8eb8a5d425)">
     <use style="fill:#4daf4a;stroke:#4daf4a;" x="352.108052" xlink:href="#mb2450c3df1" y="215.028296"/>
     <use style="fill:#4daf4a;stroke:#4daf4a;" x="398.487273" xlink:href="#mb2450c3df1" y="186.671563"/>
    </g>
   </g>
   <g id="patch_3">
    <path d="M 57.6 307.584  L 57.6 41.472  " style="fill:none;stroke:#000000;stroke-linecap:square;stroke-linejoin:miter;stroke-width:0.8;"/>
   </g>
   <g id="patch_4">
    <path d="M 414.72 307.584  L 414.72 41.472  " style="fill:none;stroke:#000000;stroke-linecap:square;stroke-linejoin:miter;stroke-width:0.8;"/>
   </g>
   <g id="patch_5">
    <path d="M 57.6 307.584  L 414.72 307.584  " style="fill:none;stroke:#000000;stroke-linecap:square;stroke-linejoin:miter;stroke-width:0.8;"/>
   </g>
   <g id="patch_6">
    <path d="M 57.6 41.472  L 414.72 41.472  " style="fill:none;stroke:#000000;stroke-linecap:square;stroke-linejoin:miter;stroke-width:0.8;"/>
   </g>
   <g id="legend_1">
    <g id="patch_7">
     <path d="M 268.33875 78.82825  L 407.72 78.82825  Q 409.72 78.82825 409.72 76.82825  L 409.72 48.472  Q 409.72 46.472 407.72 46.472  L 268.33875 46.472  Q 266.33875 46.472 266.33875 48.472  L 266.33875 76.82825  Q 266.33875 78.82825 268.33875 78.82825  z " style="fill:#ffffff;opacity:0.8;stroke:#cccccc;stroke-linejoin:miter;"/>
    </g>
    <g id="line2d_30">
     <path d="M 270.33875 54.570437  L 290.33875 54.570437  " style="fill:none;stroke:#000000;stroke-linecap:square;stroke-width:1.5;"/>
    </g>
    <g id="line2d_31"/>
    <g id="text_17">
     <!-- Original function -->
     <defs>
      <path d="M 39.40625 66.21875  Q 28.65625 66.21875 22.328125 58.203125  Q 16.015625 50.203125 16.015625 36.375  Q 16.015625 22.609375 22.328125 14.59375  Q 28.65625 6.59375 39.40625 6.59375  Q 50.140625 6.59375 56.421875 14.59375  Q 62.703125 22.609375 62.703125 36.375  Q 62.703125 50.203125 56.421875 58.203125  Q 50.140625 66.21875 39.40625 66.21875  z M 39.40625 74.21875  Q 54.734375 74.21875 63.90625 63.9375  Q 73.09375 53.65625 73.09375 36.375  Q 73.09375 19.140625 63.90625 8.859375  Q 54.734375 -1.421875 39.40625 -1.421875  Q 24.03125 -1.421875 14.8125 8.828125  Q 5.609375 19.09375 5.609375 36.375  Q 5.609375 53.65625 14.8125 63.9375  Q 24.03125 74.21875 39.40625 74.21875  z " id="DejaVuSans-4f"/>
      <path d="M 41.109375 46.296875  Q 39.59375 47.171875 37.8125 47.578125  Q 36.03125 48 33.890625 48  Q 26.265625 48 22.1875 43.046875  Q 18.109375 38.09375 18.109375 28.8125  L 18.109375 0  L 9.078125 0  L 9.078125 54.6875  L 18.109375 54.6875  L 18.109375 46.1875  Q 20.953125 51.171875 25.484375 53.578125  Q 30.03125 56 36.53125 56  Q 37.453125 56 38.578125 55.875  Q 39.703125 55.765625 41.0625 55.515625  z " id="DejaVuSans-72"/>
      <path d="M 9.421875 54.6875  L 18.40625 54.6875  L 18.40625 0  L 9.421875 0  z M 9.421875 75.984375  L 18.40625 75.984375  L 18.40625 64.59375  L 9.421875 64.59375  z " id="DejaVuSans-69"/>
      <path d="M 45.40625 27.984375  Q 45.40625 37.75 41.375 43.109375  Q 37.359375 48.484375 30.078125 48.484375  Q 22.859375 48.484375 18.828125 43.109375  Q 14.796875 37.75 14.796875 27.984375  Q 14.796875 18.265625 18.828125 12.890625  Q 22.859375 7.515625 30.078125 7.515625  Q 37.359375 7.515625 41.375 12.890625  Q 45.40625 18.265625 45.40625 27.984375  z M 54.390625 6.78125  Q 54.390625 -7.171875 48.1875 -13.984375  Q 42 -20.796875 29.203125 -20.796875  Q 24.46875 -20.796875 20.265625 -20.09375  Q 16.0625 -19.390625 12.109375 -17.921875  L 12.109375 -9.1875  Q 16.0625 -11.328125 19.921875 -12.34375  Q 23.78125 -13.375 27.78125 -13.375  Q 36.625 -13.375 41.015625 -8.765625  Q 45.40625 -4.15625 45.40625 5.171875  L 45.40625 9.625  Q 42.625 4.78125 38.28125 2.390625  Q 33.9375 0 27.875 0  Q 17.828125 0 11.671875 7.65625  Q 5.515625 15.328125 5.515625 27.984375  Q 5.515625 40.671875 11.671875 48.328125  Q 17.828125 56 27.875 56  Q 33.9375 56 38.28125 53.609375  Q 42.625 51.21875 45.40625 46.390625  L 45.40625 54.6875  L 54.390625 54.6875  z " id="DejaVuSans-67"/>
      <path d="M 54.890625 33.015625  L 54.890625 0  L 45.90625 0  L 45.90625 32.71875  Q 45.90625 40.484375 42.875 44.328125  Q 39.84375 48.1875 33.796875 48.1875  Q 26.515625 48.1875 22.3125 43.546875  Q 18.109375 38.921875 18.109375 30.90625  L 18.109375 0  L 9.078125 0  L 9.078125 54.6875  L 18.109375 54.6875  L 18.109375 46.1875  Q 21.34375 51.125 25.703125 53.5625  Q 30.078125 56 35.796875 56  Q 45.21875 56 50.046875 50.171875  Q 54.890625 44.34375 54.890625 33.015625  z " id="DejaVuSans-6e"/>
      <path d="M 34.28125 27.484375  Q 23.390625 27.484375 19.1875 25  Q 14.984375 22.515625 14.984375 16.5  Q 14.984375 11.71875 18.140625 8.90625  Q 21.296875 6.109375 26.703125 6.109375  Q 34.1875 6.109375 38.703125 11.40625  Q 43.21875 16.703125 43.21875 25.484375  L 43.21875 27.484375  z M 52.203125 31.203125  L 52.203125 0  L 43.21875 0  L 43.21875 8.296875  Q 40.140625 3.328125 35.546875 0.953125  Q 30.953125 -1.421875 24.3125 -1.421875  Q 15.921875 -1.421875 10.953125 3.296875  Q 6 8.015625 6 15.921875  Q 6 25.140625 12.171875 29.828125  Q 18.359375 34.515625 30.609375 34.515625  L 43.21875 34.515625  L 43.21875 35.40625  Q 43.21875 41.609375 39.140625 45  Q 35.0625 48.390625 27.6875 48.390625  Q 23 48.390625 18.546875 47.265625  Q 14.109375 46.140625 10.015625 43.890625  L 10.015625 52.203125  Q 14.9375 54.109375 19.578125 55.046875  Q 24.21875 56 28.609375 56  Q 40.484375 56 46.34375 49.84375  Q 52.203125 43.703125 52.203125 31.203125  z " id="DejaVuSans-61"/>
      <path d="M 9.421875 75.984375  L 18.40625 75.984375  L 18.40625 0  L 9.421875 0  z " id="DejaVuSans-6c"/>
      <path id="DejaVuSans-20"/>
      <path d="M 37.109375 75.984375  L 37.109375 68.5  L 28.515625 68.5  Q 23.6875 68.5 21.796875 66.546875  Q 19.921875 64.59375 19.921875 59.515625  L 19.921875 54.6875  L 34.71875 54.6875  L 34.71875 47.703125  L 19.921875 47.703125  L 19.921875 0  L 10.890625 0  L 10.890625 47.703125  L 2.296875 47.703125  L 2.296875 54.6875  L 10.890625 54.6875  L 10.890625 58.5  Q 10.890625 67.625 15.140625 71.796875  Q 19.390625 75.984375 28.609375 75.984375  z " id="DejaVuSans-66"/>
      <path d="M 8.5 21.578125  L 8.5 54.6875  L 17.484375 54.6875  L 17.484375 21.921875  Q 17.484375 14.15625 20.5 10.265625  Q 23.53125 6.390625 29.59375 6.390625  Q 36.859375 6.390625 41.078125 11.03125  Q 45.3125 15.671875 45.3125 23.6875  L 45.3125 54.6875  L 54.296875 54.6875  L 54.296875 0  L 45.3125 0  L 45.3125 8.40625  Q 42.046875 3.421875 37.71875 1  Q 33.40625 -1.421875 27.6875 -1.421875  Q 18.265625 -1.421875 13.375 4.4375  Q 8.5 10.296875 8.5 21.578125  z M 31.109375 56  z " id="DejaVuSans-75"/>
      <path d="M 48.78125 52.59375  L 48.78125 44.1875  Q 44.96875 46.296875 41.140625 47.34375  Q 37.3125 48.390625 33.40625 48.390625  Q 24.65625 48.390625 19.8125 42.84375  Q 14.984375 37.3125 14.984375 27.296875  Q 14.984375 17.28125 19.8125 11.734375  Q 24.65625 6.203125 33.40625 6.203125  Q 37.3125 6.203125 41.140625 7.25  Q 44.96875 8.296875 48.78125 10.40625  L 48.78125 2.09375  Q 45.015625 0.34375 40.984375 -0.53125  Q 36.96875 -1.421875 32.421875 -1.421875  Q 20.0625 -1.421875 12.78125 6.34375  Q 5.515625 14.109375 5.515625 27.296875  Q 5.515625 40.671875 12.859375 48.328125  Q 20.21875 56 33.015625 56  Q 37.15625 56 41.109375 55.140625  Q 45.0625 54.296875 48.78125 52.59375  z " id="DejaVuSans-63"/>
      <path d="M 18.3125 70.21875  L 18.3125 54.6875  L 36.8125 54.6875  L 36.8125 47.703125  L 18.3125 47.703125  L 18.3125 18.015625  Q 18.3125 11.328125 20.140625 9.421875  Q 21.96875 7.515625 27.59375 7.515625  L 36.8125 7.515625  L 36.8125 0  L 27.59375 0  Q 17.1875 0 13.234375 3.875  Q 9.28125 7.765625 9.28125 18.015625  L 9.28125 47.703125  L 2.6875 47.703125  L 2.6875 54.6875  L 9.28125 54.6875  L 9.28125 70.21875  z " id="DejaVuSans-74"/>
      <path d="M 30.609375 48.390625  Q 23.390625 48.390625 19.1875 42.75  Q 14.984375 37.109375 14.984375 27.296875  Q 14.984375 17.484375 19.15625 11.84375  Q 23.34375 6.203125 30.609375 6.203125  Q 37.796875 6.203125 41.984375 11.859375  Q 46.1875 17.53125 46.1875 27.296875  Q 46.1875 37.015625 41.984375 42.703125  Q 37.796875 48.390625 30.609375 48.390625  z M 30.609375 56  Q 42.328125 56 49.015625 48.375  Q 55.71875 40.765625 55.71875 27.296875  Q 55.71875 13.875 49.015625 6.21875  Q 42.328125 -1.421875 30.609375 -1.421875  Q 18.84375 -1.421875 12.171875 6.21875  Q 5.515625 13.875 5.515625 27.296875  Q 5.515625 40.765625 12.171875 48.375  Q 18.84375 56 30.609375 56  z " id="DejaVuSans-6f"/>
     </defs>
     <g transform="translate(298.33875 58.070437)scale(0.1 -0.1)">
      <use xlink:href="#DejaVuSans-4f"/>
      <use x="78.710938" xlink:href="#DejaVuSans-72"/>
      <use x="119.824219" xlink:href="#DejaVuSans-69"/>
      <use x="147.607422" xlink:href="#DejaVuSans-67"/>
      <use x="211.083984" xlink:href="#DejaVuSans-69"/>
      <use x="238.867188" xlink:href="#DejaVuSans-6e"/>
      <use x="302.246094" xlink:href="#DejaVuSans-61"/>
      <use x="363.525391" xlink:href="#DejaVuSans-6c"/>
      <use x="391.308594" xlink:href="#DejaVuSans-20"/>
      <use x="423.095703" xlink:href="#DejaVuSans-66"/>
      <use x="458.300781" xlink:href="#DejaVuSans-75"/>
      <use x="521.679688" xlink:href="#DejaVuSans-6e"/>
      <use x="585.058594" xlink:href="#DejaVuSans-63"/>
      <use x="640.039062" xlink:href="#DejaVuSans-74"/>
      <use x="679.248047" xlink:href="#DejaVuSans-69"/>
      <use x="707.03125" xlink:href="#DejaVuSans-6f"/>
      <use x="768.212891" xlink:href="#DejaVuSans-6e"/>
     </g>
    </g>
    <g id="line2d_32">
     <path d="M 270.33875 69.248562  L 290.33875 69.248562  " style="fill:none;stroke:#4daf4a;stroke-dasharray:5.55,2.4;stroke-dashoffset:0;stroke-width:1.5;"/>
    </g>
    <g id="line2d_33"/>
    <g id="text_18">
     <!-- Hermite interpolation -->
     <defs>
      <path d="M 9.8125 72.90625  L 19.671875 72.90625  L 19.671875 43.015625  L 55.515625 43.015625  L 55.515625 72.90625  L 65.375 72.90625  L 65.375 0  L 55.515625 0  L 55.515625 34.71875  L 19.671875 34.71875  L 19.671875 0  L 9.8125 0  z " id="DejaVuSans-48"/>
      <path d="M 56.203125 29.59375  L 56.203125 25.203125  L 14.890625 25.203125  Q 15.484375 15.921875 20.484375 11.0625  Q 25.484375 6.203125 34.421875 6.203125  Q 39.59375 6.203125 44.453125 7.46875  Q 49.3125 8.734375 54.109375 11.28125  L 54.109375 2.78125  Q 49.265625 0.734375 44.1875 -0.34375  Q 39.109375 -1.421875 33.890625 -1.421875  Q 20.796875 -1.421875 13.15625 6.1875  Q 5.515625 13.8125 5.515625 26.8125  Q 5.515625 40.234375 12.765625 48.109375  Q 20.015625 56 32.328125 56  Q 43.359375 56 49.78125 48.890625  Q 56.203125 41.796875 56.203125 29.59375  z M 47.21875 32.234375  Q 47.125 39.59375 43.09375 43.984375  Q 39.0625 48.390625 32.421875 48.390625  Q 24.90625 48.390625 20.390625 44.140625  Q 15.875 39.890625 15.1875 32.171875  z " id="DejaVuSans-65"/>
      <path d="M 52 44.1875  Q 55.375 50.25 60.0625 53.125  Q 64.75 56 71.09375 56  Q 79.640625 56 84.28125 50.015625  Q 88.921875 44.046875 88.921875 33.015625  L 88.921875 0  L 79.890625 0  L 79.890625 32.71875  Q 79.890625 40.578125 77.09375 44.375  Q 74.3125 48.1875 68.609375 48.1875  Q 61.625 48.1875 57.5625 43.546875  Q 53.515625 38.921875 53.515625 30.90625  L 53.515625 0  L 44.484375 0  L 44.484375 32.71875  Q 44.484375 40.625 41.703125 44.40625  Q 38.921875 48.1875 33.109375 48.1875  Q 26.21875 48.1875 22.15625 43.53125  Q 18.109375 38.875 18.109375 30.90625  L 18.109375 0  L 9.078125 0  L 9.078125 54.6875  L 18.109375 54.6875  L 18.109375 46.1875  Q 21.1875 51.21875 25.484375 53.609375  Q 29.78125 56 35.6875 56  Q 41.65625 56 45.828125 52.96875  Q 50 49.953125 52 44.1875  z " id="DejaVuSans-6d"/>
      <path d="M 18.109375 8.203125  L 18.109375 -20.796875  L 9.078125 -20.796875  L 9.078125 54.6875  L 18.109375 54.6875  L 18.109375 46.390625  Q 20.953125 51.265625 25.265625 53.625  Q 29.59375 56 35.59375 56  Q 45.5625 56 51.78125 48.09375  Q 58.015625 40.1875 58.015625 27.296875  Q 58.015625 14.40625 51.78125 6.484375  Q 45.5625 -1.421875 35.59375 -1.421875  Q 29.59375 -1.421875 25.265625 0.953125  Q 20.953125 3.328125 18.109375 8.203125  z M 48.6875 27.296875  Q 48.6875 37.203125 44.609375 42.84375  Q 40.53125 48.484375 33.40625 48.484375  Q 26.265625 48.484375 22.1875 42.84375  Q 18.109375 37.203125 18.109375 27.296875  Q 18.109375 17.390625 22.1875 11.75  Q 26.265625 6.109375 33.40625 6.109375  Q 40.53125 6.109375 44.609375 11.75  Q 48.6875 17.390625 48.6875 27.296875  z " id="DejaVuSans-70"/>
     </defs>
     <g transform="translate(298.33875 72.748562)scale(0.1 -0.1)">
      <use xlink:href="#DejaVuSans-48"/>
      <use x="75.195312" xlink:href="#DejaVuSans-65"/>
      <use x="136.71875" xlink:href="#DejaVuSans-72"/>
      <use x="177.816406" xlink:href="#DejaVuSans-6d"/>
      <use x="275.228516" xlink:href="#DejaVuSans-69"/>
      <use x="303.011719" xlink:href="#DejaVuSans-74"/>
      <use x="342.220703" xlink:href="#DejaVuSans-65"/>
      <use x="403.744141" xlink:href="#DejaVuSans-20"/>
      <use x="435.53125" xlink:href="#DejaVuSans-69"/>
      <use x="463.314453" xlink:href="#DejaVuSans-6e"/>
      <use x="526.693359" xlink:href="#DejaVuSans-74"/>
      <use x="565.902344" xlink:href="#DejaVuSans-65"/>
      <use x="627.425781" xlink:href="#DejaVuSans-72"/>
      <use x="668.539062" xlink:href="#DejaVuSans-70"/>
      <use x="732.015625" xlink:href="#DejaVuSans-6f"/>
      <use x="793.197266" xlink:href="#DejaVuSans-6c"/>
      <use x="820.980469" xlink:href="#DejaVuSans-61"/>
      <use x="882.259766" xlink:href="#DejaVuSans-74"/>
      <use x="921.46875" xlink:href="#DejaVuSans-69"/>
      <use x="949.251953" xlink:href="#DejaVuSans-6f"/>
      <use x="1010.433594" xlink:href="#DejaVuSans-6e"/>
     </g>
    </g>
   </g>
  </g>
 </g>
 <defs>
  <clipPath id="p8eb8a5d425">
   <rect height="266.112" width="357.12" x="57.6" y="41.472"/>
  </clipPath>
 </defs>
</svg>