<svg xmlns="http://www.w3.org/2000/svg" xmlns:xlink="http://www.w3.org/1999/xlink" version="1.1" viewBox="0 0 432 216" viewport="0 0 400px 200px">
 <defs>
  <style type="text/css">
*{stroke-linecap:butt;stroke-linejoin:round;}
  </style>
 </defs>
 <g id="figure_1">
  <g id="patch_1">
   <path d="M 0 216  L 432 216  L 432 0  L 0 0  z " style="fill:#ffffff;"/>
  </g>
  <g id="axes_1">
   <g id="patch_2">
    <path d="M 54 192.24  L 206.181818 192.24  L 206.181818 25.92  L 54 25.92  z " style="fill:#ffffff;"/>
   </g>
   <g id="matplotlib.axis_1">
    <g id="xtick_1">
     <g id="line2d_1">
      <defs>
       <path d="M 0 0  L 0 3.5  " id="mccb4529c6a" style="stroke:#000000;stroke-width:0.8;"/>
      </defs>
      <g>
       <use style="stroke:#000000;stroke-width:0.8;" x="60.917355" xlink:href="#mccb4529c6a" y="192.24"/>
      </g>
     </g>
     <g id="text_1">
      <!-- 0.0 -->
      <defs>
       <path d="M 31.78125 66.40625  Q 24.171875 66.40625 20.328125 58.90625  Q 16.5 51.421875 16.5 36.375  Q 16.5 21.390625 20.328125 13.890625  Q 24.171875 6.390625 31.78125 6.390625  Q 39.453125 6.390625 43.28125 13.890625  Q 47.125 21.390625 47.125 36.375  Q 47.125 51.421875 43.28125 58.90625  Q 39.453125 66.40625 31.78125 66.40625  z M 31.78125 74.21875  Q 44.046875 74.21875 50.515625 64.515625  Q 56.984375 54.828125 56.984375 36.375  Q 56.984375 17.96875 50.515625 8.265625  Q 44.046875 -1.421875 31.78125 -1.421875  Q 19.53125 -1.421875 13.0625 8.265625  Q 6.59375 17.96875 6.59375 36.375  Q 6.59375 54.828125 13.0625 64.515625  Q 19.53125 74.21875 31.78125 74.21875  z " id="DejaVuSans-30"/>
       <path d="M 10.6875 12.40625  L 21 12.40625  L 21 0  L 10.6875 0  z " id="DejaVuSans-2e"/>
      </defs>
      <g transform="translate(52.965793 206.838437)scale(0.1 -0.1)">
       <use xlink:href="#DejaVuSans-30"/>
       <use x="63.623047" xlink:href="#DejaVuSans-2e"/>
       <use x="95.410156" xlink:href="#DejaVuSans-30"/>
      </g>
     </g>
    </g>
    <g id="xtick_2">
     <g id="line2d_2">
      <g>
       <use style="stroke:#000000;stroke-width:0.8;" x="95.504132" xlink:href="#mccb4529c6a" y="192.24"/>
      </g>
     </g>
     <g id="text_2">
      <!-- 2.5 -->
      <defs>
       <path d="M 19.1875 8.296875  L 53.609375 8.296875  L 53.609375 0  L 7.328125 0  L 7.328125 8.296875  Q 12.9375 14.109375 22.625 23.890625  Q 32.328125 33.6875 34.8125 36.53125  Q 39.546875 41.84375 41.421875 45.53125  Q 43.3125 49.21875 43.3125 52.78125  Q 43.3125 58.59375 39.234375 62.25  Q 35.15625 65.921875 28.609375 65.921875  Q 23.96875 65.921875 18.8125 64.3125  Q 13.671875 62.703125 7.8125 59.421875  L 7.8125 69.390625  Q 13.765625 71.78125 18.9375 73  Q 24.125 74.21875 28.421875 74.21875  Q 39.75 74.21875 46.484375 68.546875  Q 53.21875 62.890625 53.21875 53.421875  Q 53.21875 48.921875 51.53125 44.890625  Q 49.859375 40.875 45.40625 35.40625  Q 44.1875 33.984375 37.640625 27.21875  Q 31.109375 20.453125 19.1875 8.296875  z " id="DejaVuSans-32"/>
       <path d="M 10.796875 72.90625  L 49.515625 72.90625  L 49.515625 64.59375  L 19.828125 64.59375  L 19.828125 46.734375  Q 21.96875 47.46875 24.109375 47.828125  Q 26.265625 48.1875 28.421875 48.1875  Q 40.625 48.1875 47.75 41.5  Q 54.890625 34.8125 54.890625 23.390625  Q 54.890625 11.625 47.5625 5.09375  Q 40.234375 -1.421875 26.90625 -1.421875  Q 22.3125 -1.421875 17.546875 -0.640625  Q 12.796875 0.140625 7.71875 1.703125  L 7.71875 11.625  Q 12.109375 9.234375 16.796875 8.0625  Q 21.484375 6.890625 26.703125 6.890625  Q 35.15625 6.890625 40.078125 11.328125  Q 45.015625 15.765625 45.015625 23.390625  Q 45.015625 31 40.078125 35.4375  Q 35.15625 39.890625 26.703125 39.890625  Q 22.75 39.890625 18.8125 39.015625  Q 14.890625 38.140625 10.796875 36.28125  z " id="DejaVuSans-35"/>
      </defs>
      <g transform="translate(87.55257 206.838437)scale(0.1 -0.1)">
       <use xlink:href="#DejaVuSans-32"/>
       <use x="63.623047" xlink:href="#DejaVuSans-2e"/>
       <use x="95.410156" xlink:href="#DejaVuSans-35"/>
      </g>
     </g>
    </g>
    <g id="xtick_3">
     <g id="line2d_3">
      <g>
       <use style="stroke:#000000;stroke-width:0.8;" x="130.090909" xlink:href="#mccb4529c6a" y="192.24"/>
      </g>
     </g>
     <g id="text_3">
      <!-- 5.0 -->
      <g transform="translate(122.139347 206.838437)scale(0.1 -0.1)">
       <use xlink:href="#DejaVuSans-35"/>
       <use x="63.623047" xlink:href="#DejaVuSans-2e"/>
       <use x="95.410156" xlink:href="#DejaVuSans-30"/>
      </g>
     </g>
    </g>
    <g id="xtick_4">
     <g id="line2d_4">
      <g>
       <use style="stroke:#000000;stroke-width:0.8;" x="164.677686" xlink:href="#mccb4529c6a" y="192.24"/>
      </g>
     </g>
     <g id="text_4">
      <!-- 7.5 -->
      <defs>
       <path d="M 8.203125 72.90625  L 55.078125 72.90625  L 55.078125 68.703125  L 28.609375 0  L 18.3125 0  L 43.21875 64.59375  L 8.203125 64.59375  z " id="DejaVuSans-37"/>
      </defs>
      <g transform="translate(156.726123 206.838437)scale(0.1 -0.1)">
       <use xlink:href="#DejaVuSans-37"/>
       <use x="63.623047" xlink:href="#DejaVuSans-2e"/>
       <use x="95.410156" xlink:href="#DejaVuSans-35"/>
      </g>
     </g>
    </g>
    <g id="xtick_5">
     <g id="line2d_5">
      <g>
       <use style="stroke:#000000;stroke-width:0.8;" x="199.264463" xlink:href="#mccb4529c6a" y="192.24"/>
      </g>
     </g>
     <g id="text_5">
      <!-- 10.0 -->
      <defs>
       <path d="M 12.40625 8.296875  L 28.515625 8.296875  L 28.515625 63.921875  L 10.984375 60.40625  L 10.984375 69.390625  L 28.421875 72.90625  L 38.28125 72.90625  L 38.28125 8.296875  L 54.390625 8.296875  L 54.390625 0  L 12.40625 0  z " id="DejaVuSans-31"/>
      </defs>
      <g transform="translate(188.13165 206.838437)scale(0.1 -0.1)">
       <use xlink:href="#DejaVuSans-31"/>
       <use x="63.623047" xlink:href="#DejaVuSans-30"/>
       <use x="127.246094" xlink:href="#DejaVuSans-2e"/>
       <use x="159.033203" xlink:href="#DejaVuSans-30"/>
      </g>
     </g>
    </g>
   </g>
   <g id="matplotlib.axis_2">
    <g id="ytick_1">
     <g id="line2d_6">
      <defs>
       <path d="M 0 0  L -3.5 0  " id="m8346c04c3c" style="stroke:#000000;stroke-width:0.8;"/>
      </defs>
      <g>
       <use style="stroke:#000000;stroke-width:0.8;" x="54" xlink:href="#m8346c04c3c" y="184.679261"/>
      </g>
     </g>
     <g id="text_6">
      <!-- &#8722;1.0 -->
      <defs>
       <path d="M 10.59375 35.5  L 73.1875 35.5  L 73.1875 27.203125  L 10.59375 27.203125  z " id="DejaVuSans-2212"/>
      </defs>
      <g transform="translate(22.717187 188.47848)scale(0.1 -0.1)">
       <use xlink:href="#DejaVuSans-2212"/>
       <use x="83.789062" xlink:href="#DejaVuSans-31"/>
       <use x="147.412109" xlink:href="#DejaVuSans-2e"/>
       <use x="179.199219" xlink:href="#DejaVuSans-30"/>
      </g>
     </g>
    </g>
    <g id="ytick_2">
     <g id="line2d_7">
      <g>
       <use style="stroke:#000000;stroke-width:0.8;" x="54" xlink:href="#m8346c04c3c" y="146.879677"/>
      </g>
     </g>
     <g id="text_7">
      <!-- &#8722;0.5 -->
      <g transform="translate(22.717187 150.678895)scale(0.1 -0.1)">
       <use xlink:href="#DejaVuSans-2212"/>
       <use x="83.789062" xlink:href="#DejaVuSans-30"/>
       <use x="147.412109" xlink:href="#DejaVuSans-2e"/>
       <use x="179.199219" xlink:href="#DejaVuSans-35"/>
      </g>
     </g>
    </g>
    <g id="ytick_3">
     <g id="line2d_8">
      <g>
       <use style="stroke:#000000;stroke-width:0.8;" x="54" xlink:href="#m8346c04c3c" y="109.080092"/>
      </g>
     </g>
     <g id="text_8">
      <!-- 0.0 -->
      <g transform="translate(31.096875 112.879311)scale(0.1 -0.1)">
       <use xlink:href="#DejaVuSans-30"/>
       <use x="63.623047" xlink:href="#DejaVuSans-2e"/>
       <use x="95.410156" xlink:href="#DejaVuSans-30"/>
      </g>
     </g>
    </g>
    <g id="ytick_4">
     <g id="line2d_9">
      <g>
       <use style="stroke:#000000;stroke-width:0.8;" x="54" xlink:href="#m8346c04c3c" y="71.280508"/>
      </g>
     </g>
     <g id="text_9">
      <!-- 0.5 -->
      <g transform="translate(31.096875 75.079727)scale(0.1 -0.1)">
       <use xlink:href="#DejaVuSans-30"/>
       <use x="63.623047" xlink:href="#DejaVuSans-2e"/>
       <use x="95.410156" xlink:href="#DejaVuSans-35"/>
      </g>
     </g>
    </g>
    <g id="ytick_5">
     <g id="line2d_10">
      <g>
       <use style="stroke:#000000;stroke-width:0.8;" x="54" xlink:href="#m8346c04c3c" y="33.480924"/>
      </g>
     </g>
     <g id="text_10">
      <!-- 1.0 -->
      <g transform="translate(31.096875 37.280143)scale(0.1 -0.1)">
       <use xlink:href="#DejaVuSans-31"/>
       <use x="63.623047" xlink:href="#DejaVuSans-2e"/>
       <use x="95.410156" xlink:href="#DejaVuSans-30"/>
      </g>
     </g>
    </g>
   </g>
   <g id="line2d_11">
    <path clip-path="url(#p6e43c93ffb)" d="M 60.917355 33.480924  L 61.609783 33.575593  L 62.440697 33.938756  L 63.27161 34.57289  L 64.102524 35.475709  L 65.071923 36.864188  L 66.179808 38.884534  L 67.426178 41.694454  L 68.811034 45.456463  L 70.334376 50.328747  L 71.996203 56.453271  L 73.796516 63.941012  L 76.012285 74.190043  L 78.643511 87.497863  L 82.659593 109.139196  L 87.645075 135.792632  L 90.276301 148.680796  L 92.492071 158.443867  L 94.292383 165.456474  L 95.95421 171.085936  L 97.477552 175.463023  L 98.862408 178.745686  L 100.108778 181.104536  L 101.216663 182.711361  L 102.186062 183.730476  L 103.016976 184.312542  L 103.847889 184.623308  L 104.540317 184.674198  L 105.232745 184.535762  L 106.063659 184.120251  L 106.894572 183.434133  L 107.863971 182.295  L 108.833371 180.79654  L 109.941255 178.653534  L 111.187626 175.710426  L 112.572482 171.80766  L 114.095823 166.790958  L 115.75765 160.523315  L 117.696449 152.280992  L 119.912218 141.834198  L 122.68193 127.630193  L 127.667411 100.596421  L 131.545008 80.146864  L 134.037748 68.098787  L 136.115032 59.056957  L 137.915345 52.124557  L 139.577172 46.577859  L 141.100514 42.282954  L 142.346884 39.368678  L 143.593254 37.019817  L 144.701139 35.422118  L 145.670538 34.411131  L 146.501452 33.836106  L 147.332365 33.532422  L 148.024793 33.487447  L 148.717221 33.631795  L 149.548135 34.054374  L 150.379048 34.747508  L 151.348448 35.894727  L 152.317847 37.401128  L 153.425732 39.552982  L 154.672102 42.505686  L 156.056958 46.418579  L 157.580299 51.445654  L 159.242126 57.723552  L 161.180925 65.976251  L 163.396694 76.432564  L 166.166406 90.644609  L 171.290373 118.432609  L 175.029484 138.122493  L 177.522225 150.160681  L 179.599509 159.191797  L 181.399821 166.113289  L 183.061648 171.648748  L 184.58499 175.932506  L 185.83136 178.837157  L 187.077731 181.176022  L 188.185615 182.764592  L 189.155015 183.767449  L 189.985928 184.335432  L 190.816842 184.632032  L 191.50927 184.671092  L 192.201698 184.520834  L 193.032611 184.091187  L 193.863525 183.391038  L 194.832924 182.235736  L 195.802323 180.721398  L 196.910208 178.560702  L 198.156578 175.598409  L 199.264463 172.511485  L 199.264463 172.511485  " style="fill:none;stroke:#1f77b4;stroke-linecap:square;stroke-width:1.5;"/>
   </g>
   <g id="line2d_12">
    <path clip-path="url(#p6e43c93ffb)" d="M 60.917355 109.080092  L 65.902837 82.422518  L 68.534063 69.529252  L 70.749832 59.76048  L 72.550145 52.7424  L 74.211972 47.107305  L 75.735314 42.724632  L 77.12017 39.4366  L 78.36654 37.072728  L 79.474425 35.461322  L 80.443824 34.438131  L 81.274738 33.852538  L 82.105651 33.538228  L 82.798079 33.484379  L 83.490507 33.619861  L 84.321421 34.031843  L 85.152334 34.71446  L 86.121733 35.849563  L 87.091132 37.344071  L 88.199017 39.482677  L 89.445388 42.421021  L 90.830243 46.318768  L 92.353585 51.330343  L 94.015412 57.592931  L 95.95421 65.830161  L 98.16998 76.272317  L 100.939692 90.472468  L 105.925173 117.505136  L 109.80277 137.95907  L 112.29551 150.012232  L 114.372794 159.059524  L 116.173107 165.997458  L 117.834934 171.54984  L 119.358276 175.850368  L 120.604646 178.769491  L 121.851016 181.123376  L 122.958901 182.725659  L 123.9283 183.740723  L 124.759214 184.319276  L 125.590127 184.626504  L 126.282555 184.674438  L 126.974983 184.533044  L 127.805897 184.113993  L 128.63681 183.424359  L 129.60621 182.281168  L 130.575609 180.778718  L 131.683493 178.631261  L 132.929864 175.683317  L 134.31472 171.775438  L 135.838061 166.753484  L 137.499888 160.480633  L 139.438687 152.233017  L 141.654456 141.781329  L 144.424168 127.573122  L 149.409649 100.537586  L 153.287246 80.091906  L 155.779987 68.048619  L 157.85727 59.01203  L 159.657583 52.084995  L 161.31941 46.543846  L 162.842752 42.254459  L 164.089122 39.344958  L 165.335493 37.001065  L 166.443377 35.40791  L 167.412776 34.400975  L 168.24369 33.829464  L 169.074604 33.529318  L 169.767031 33.4873  L 170.459459 33.634605  L 171.290373 34.060724  L 172.121287 34.757374  L 173.090686 35.908649  L 174.060085 37.419038  L 175.16797 39.575341  L 176.41434 42.532877  L 177.799196 46.450879  L 179.322537 51.483199  L 180.984365 57.766298  L 182.923163 66.024281  L 185.138932 76.485474  L 187.908644 90.701704  L 193.032611 118.491374  L 196.771722 138.177418  L 199.264463 150.2108  L 199.264463 150.2108  " style="fill:none;stroke:#ff7f0e;stroke-linecap:square;stroke-width:1.5;"/>
   </g>
   <g id="patch_3">
    <path d="M 54 192.24  L 54 25.92  " style="fill:none;stroke:#000000;stroke-linecap:square;stroke-linejoin:miter;stroke-width:0.8;"/>
   </g>
   <g id="patch_4">
    <path d="M 206.181818 192.24  L 206.181818 25.92  " style="fill:none;stroke:#000000;stroke-linecap:square;stroke-linejoin:miter;stroke-width:0.8;"/>
   </g>
   <g id="patch_5">
    <path d="M 54 192.24  L 206.181818 192.24  " style="fill:none;stroke:#000000;stroke-linecap:square;stroke-linejoin:miter;stroke-width:0.8;"/>
   </g>
   <g id="patch_6">
    <path d="M 54 25.92  L 206.181818 25.92  " style="fill:none;stroke:#000000;stroke-linecap:square;stroke-linejoin:miter;stroke-width:0.8;"/>
   </g>
  </g>
  <g id="axes_2">
   <g id="patch_7">
    <path d="M 236.618182 192.24  L 388.8 192.24  L 388.8 25.92  L 236.618182 25.92  z " style="fill:#ffffff;"/>
   </g>
   <g id="matplotlib.axis_3">
    <g id="xtick_6">
     <g id="line2d_13">
      <g>
       <use style="stroke:#000000;stroke-width:0.8;" x="243.535453" xlink:href="#mccb4529c6a" y="192.24"/>
      </g>
     </g>
     <g id="text_11">
      <!-- &#8722;1.0 -->
      <g transform="translate(231.394046 206.838437)scale(0.1 -0.1)">
       <use xlink:href="#DejaVuSans-2212"/>
       <use x="83.789062" xlink:href="#DejaVuSans-31"/>
       <use x="147.412109" xlink:href="#DejaVuSans-2e"/>
       <use x="179.199219" xlink:href="#DejaVuSans-30"/>
      </g>
     </g>
    </g>
    <g id="xtick_7">
     <g id="line2d_14">
      <g>
       <use style="stroke:#000000;stroke-width:0.8;" x="278.122251" xlink:href="#mccb4529c6a" y="192.24"/>
      </g>
     </g>
     <g id="text_12">
      <!-- &#8722;0.5 -->
      <g transform="translate(265.980844 206.838437)scale(0.1 -0.1)">
       <use xlink:href="#DejaVuSans-2212"/>
       <use x="83.789062" xlink:href="#DejaVuSans-30"/>
       <use x="147.412109" xlink:href="#DejaVuSans-2e"/>
       <use x="179.199219" xlink:href="#DejaVuSans-35"/>
      </g>
     </g>
    </g>
    <g id="xtick_8">
     <g id="line2d_15">
      <g>
       <use style="stroke:#000000;stroke-width:0.8;" x="312.709049" xlink:href="#mccb4529c6a" y="192.24"/>
      </g>
     </g>
     <g id="text_13">
      <!-- 0.0 -->
      <g transform="translate(304.757486 206.838437)scale(0.1 -0.1)">
       <use xlink:href="#DejaVuSans-30"/>
       <use x="63.623047" xlink:href="#DejaVuSans-2e"/>
       <use x="95.410156" xlink:href="#DejaVuSans-30"/>
      </g>
     </g>
    </g>
    <g id="xtick_9">
     <g id="line2d_16">
      <g>
       <use style="stroke:#000000;stroke-width:0.8;" x="347.295847" xlink:href="#mccb4529c6a" y="192.24"/>
      </g>
     </g>
     <g id="text_14">
      <!-- 0.5 -->
      <g transform="translate(339.344284 206.838437)scale(0.1 -0.1)">
       <use xlink:href="#DejaVuSans-30"/>
       <use x="63.623047" xlink:href="#DejaVuSans-2e"/>
       <use x="95.410156" xlink:href="#DejaVuSans-35"/>
      </g>
     </g>
    </g>
    <g id="xtick_10">
     <g id="line2d_17">
      <g>
       <use style="stroke:#000000;stroke-width:0.8;" x="381.882645" xlink:href="#mccb4529c6a" y="192.24"/>
      </g>
     </g>
     <g id="text_15">
      <!-- 1.0 -->
      <g transform="translate(373.931082 206.838437)scale(0.1 -0.1)">
       <use xlink:href="#DejaVuSans-31"/>
       <use x="63.623047" xlink:href="#DejaVuSans-2e"/>
       <use x="95.410156" xlink:href="#DejaVuSans-30"/>
      </g>
     </g>
    </g>
   </g>
   <g id="matplotlib.axis_4">
    <g id="ytick_6">
     <g id="line2d_18">
      <g>
       <use style="stroke:#000000;stroke-width:0.8;" x="236.618182" xlink:href="#m8346c04c3c" y="184.679261"/>
      </g>
     </g>
     <g id="text_16">
      <!-- &#8722;1.0 -->
      <g transform="translate(205.335369 188.47848)scale(0.1 -0.1)">
       <use xlink:href="#DejaVuSans-2212"/>
       <use x="83.789062" xlink:href="#DejaVuSans-31"/>
       <use x="147.412109" xlink:href="#DejaVuSans-2e"/>
       <use x="179.199219" xlink:href="#DejaVuSans-30"/>
      </g>
     </g>
    </g>
    <g id="ytick_7">
     <g id="line2d_19">
      <g>
       <use style="stroke:#000000;stroke-width:0.8;" x="236.618182" xlink:href="#m8346c04c3c" y="146.879677"/>
      </g>
     </g>
     <g id="text_17">
      <!-- &#8722;0.5 -->
      <g transform="translate(205.335369 150.678895)scale(0.1 -0.1)">
       <use xlink:href="#DejaVuSans-2212"/>
       <use x="83.789062" xlink:href="#DejaVuSans-30"/>
       <use x="147.412109" xlink:href="#DejaVuSans-2e"/>
       <use x="179.199219" xlink:href="#DejaVuSans-35"/>
      </g>
     </g>
    </g>
    <g id="ytick_8">
     <g id="line2d_20">
      <g>
       <use style="stroke:#000000;stroke-width:0.8;" x="236.618182" xlink:href="#m8346c04c3c" y="109.080092"/>
      </g>
     </g>
     <g id="text_18">
      <!-- 0.0 -->
      <g transform="translate(213.715057 112.879311)scale(0.1 -0.1)">
       <use xlink:href="#DejaVuSans-30"/>
       <use x="63.623047" xlink:href="#DejaVuSans-2e"/>
       <use x="95.410156" xlink:href="#DejaVuSans-30"/>
      </g>
     </g>
    </g>
    <g id="ytick_9">
     <g id="line2d_21">
      <g>
       <use style="stroke:#000000;stroke-width:0.8;" x="236.618182" xlink:href="#m8346c04c3c" y="71.280508"/>
      </g>
     </g>
     <g id="text_19">
      <!-- 0.5 -->
      <g transform="translate(213.715057 75.079727)scale(0.1 -0.1)">
       <use xlink:href="#DejaVuSans-30"/>
       <use x="63.623047" xlink:href="#DejaVuSans-2e"/>
       <use x="95.410156" xlink:href="#DejaVuSans-35"/>
      </g>
     </g>
    </g>
    <g id="ytick_10">
     <g id="line2d_22">
      <g>
       <use style="stroke:#000000;stroke-width:0.8;" x="236.618182" xlink:href="#m8346c04c3c" y="33.480924"/>
      </g>
     </g>
     <g id="text_20">
      <!-- 1.0 -->
      <g transform="translate(213.715057 37.280143)scale(0.1 -0.1)">
       <use xlink:href="#DejaVuSans-31"/>
       <use x="63.623047" xlink:href="#DejaVuSans-2e"/>
       <use x="95.410156" xlink:href="#DejaVuSans-30"/>
      </g>
     </g>
    </g>
   </g>
   <g id="line2d_23">
    <path clip-path="url(#p6894c62c16)" d="M 381.882645 109.080092  L 381.757919 104.542255  L 381.384193 100.020782  L 380.762813 95.531979  L 379.896021 91.092032  L 378.786942 86.716952  L 377.439575 82.422518  L 375.85878 78.224215  L 374.050258 74.137183  L 372.020529 70.176161  L 369.776914 66.355433  L 367.327503 62.688776  L 364.68113 59.189414  L 361.847337 55.869965  L 358.836344 52.7424  L 355.659008 49.817998  L 352.326788 47.107305  L 348.851701 44.620094  L 345.246277 42.365337  L 342.151562 40.669833  L 338.983108 39.145663  L 335.748851 37.796643  L 332.45689 36.626154  L 329.115471 35.637126  L 325.732961 34.832036  L 322.317834 34.212901  L 318.878641 33.781271  L 315.423996 33.538228  L 311.962551 33.484379  L 308.502977 33.619861  L 305.053936 33.944333  L 301.624068 34.456982  L 298.221962 35.156526  L 294.856139 36.041212  L 291.535028 37.108824  L 288.266949 38.356689  L 285.060084 39.781681  L 281.922467 41.380231  L 278.861954 43.148335  L 275.301896 45.487609  L 271.876734 48.056207  L 268.598819 50.844867  L 265.479973 53.843532  L 262.531443 57.041389  L 259.76386 60.426905  L 257.187207 63.987873  L 254.810773 67.71145  L 252.64313 71.584209  L 250.692095 75.592184  L 248.964702 79.720921  L 247.467181 83.955533  L 246.204932 88.280747  L 245.182508 92.680967  L 244.403595 97.140325  L 243.871002 101.64274  L 243.58665 106.171975  L 243.551564 110.711697  L 243.765871 115.245535  L 244.228798 119.75714  L 244.938676 124.230242  L 245.892944 128.648709  L 247.088161 132.99661  L 248.520017 137.258263  L 250.18335 141.418302  L 252.072159 145.461724  L 254.179635 149.373948  L 256.498177 153.140866  L 259.019424 156.748894  L 261.734285 160.185021  L 264.632968 163.436856  L 267.705022 166.492672  L 270.939366 169.341448  L 274.324339 171.972913  L 277.847734 174.377577  L 281.496843 176.546767  L 284.624319 178.168881  L 287.822133 179.617962  L 291.082277 180.89038  L 294.396585 181.982949  L 297.756757 182.892933  L 301.154377 183.618051  L 304.580936 184.156489  L 308.027851 184.506898  L 311.486491 184.6684  L 314.948192 184.64059  L 318.404286 184.423539  L 321.846116 184.01779  L 325.265062 183.424359  L 328.652561 182.644732  L 332.00013 181.680862  L 335.299384 180.535163  L 338.54206 179.210505  L 341.720038 177.710204  L 344.825358 176.038019  L 347.850241 174.198138  L 351.363276 171.775438  L 354.736917 169.126648  L 357.958999 166.261321  L 361.017903 163.18979  L 363.902598 159.923131  L 366.60268 156.473124  L 369.108414 152.85221  L 371.410762 149.073447  L 373.501423 145.150462  L 375.372858 141.097401  L 377.018316 136.928881  L 378.431866 132.659933  L 379.608408 128.305954  L 380.543701 123.882642  L 381.234372 119.405951  L 381.67793 114.892022  L 381.872775 110.357135  L 381.818205 105.817643  L 381.514416 101.289916  L 380.962504 96.790281  L 380.16446 92.334965  L 379.123161 87.940035  L 377.842362 83.621339  L 376.326683 79.394451  L 374.581588 75.274615  L 372.613371 71.276686  L 370.42913 67.415083  L 368.036741 63.70373  L 365.444832 60.156011  L 362.662749 56.78472  L 359.700525 53.602014  L 356.568843 50.619371  L 353.278995 47.847547  L 349.842846 45.296536  L 346.272787 42.97554  L 343.204719 41.223144  L 340.060275 39.640697  L 336.84733 38.232162  L 333.57393 37.001065  L 330.248274 35.950491  L 326.878691 35.08307  L 323.47362 34.400975  L 320.041589 33.905914  L 316.591194 33.599128  L 313.131076 33.481384  L 309.6699 33.552977  L 306.216337 33.813729  L 302.779034 34.262985  L 299.366601 34.899622  L 295.987585 35.722043  L 292.650447 36.728191  L 289.363546 37.915544  L 286.135115 39.281129  L 282.973238 40.821526  L 279.885834 42.532877  L 276.880636 44.410896  L 273.393492 46.877869  L 270.048127 49.569153  L 266.856603 52.475043  L 263.83043 55.585059  L 260.980522 58.887987  L 258.317154 62.371915  L 255.849932 66.024281  L 253.587753 69.831912  L 251.538775 73.781079  L 249.710386 77.857539  L 248.109181 82.046593  L 246.740932 86.333134  L 245.610575 90.701704  L 244.722186 95.136549  L 244.078968 99.621677  L 243.683241 104.140913  L 243.536431 108.677961  L 243.639069 113.216459  L 243.990784 117.740041  L 244.590308 122.232393  L 245.435479 126.677316  L 246.523249 131.058781  L 247.849695 135.360987  L 249.410034 139.568421  L 251.198639 143.665908  L 253.209061 147.638674  L 254.669025 150.2108  L 254.669025 150.2108  " style="fill:none;stroke:#1f77b4;stroke-linecap:square;stroke-width:1.5;"/>
   </g>
   <g id="patch_8">
    <path d="M 236.618182 192.24  L 236.618182 25.92  " style="fill:none;stroke:#000000;stroke-linecap:square;stroke-linejoin:miter;stroke-width:0.8;"/>
   </g>
   <g id="patch_9">
    <path d="M 388.8 192.24  L 388.8 25.92  " style="fill:none;stroke:#000000;stroke-linecap:square;stroke-linejoin:miter;stroke-width:0.8;"/>
   </g>
   <g id="patch_10">
    <path d="M 236.618182 192.24  L 388.8 192.24  " style="fill:none;stroke:#000000;stroke-linecap:square;stroke-linejoin:miter;stroke-width:0.8;"/>
   </g>
   <g id="patch_11">
    <path d="M 236.618182 25.92  L 388.8 25.92  " style="fill:none;stroke:#000000;stroke-linecap:square;stroke-linejoin:miter;stroke-width:0.8;"/>
   </g>
  </g>
 </g>
 <defs>
  <clipPath id="p6e43c93ffb">
   <rect height="166.32" width="152.181818" x="54" y="25.92"/>
  </clipPath>
  <clipPath id="p6894c62c16">
   <rect height="166.32" width="152.181818" x="236.618182" y="25.92"/>
  </clipPath>
 </defs>
</svg>